<?xml version="1.0" encoding="utf-8"?>
<!-- Generator: Adobe Illustrator 15.0.0, SVG Export Plug-In . SVG Version: 6.00 Build 0)  -->
<!DOCTYPE svg PUBLIC "-//W3C//DTD SVG 1.1//EN" "http://www.w3.org/Graphics/SVG/1.1/DTD/svg11.dtd">
<svg version="1.1" id="Layer_1" xmlns="http://www.w3.org/2000/svg" xmlns:xlink="http://www.w3.org/1999/xlink" x="0px" y="0px"
	 width="158px" height="74px" viewBox="100.494 27.03 158 74" enable-background="new 100.494 27.03 158 74" xml:space="preserve">
<g>
	<g>
		<g>
			<g>
				<g>
					<path fill="#0A9995" d="M146.862,98.701c-0.159,0-0.313-0.01-0.461-0.028c-0.263-0.031-0.506-0.117-0.74-0.2
						c-0.26-0.093-0.504-0.179-0.74-0.179c-0.118,0-0.226,0.021-0.329,0.065c-0.266,0.108-0.479,0.182-0.666,0.182
						c-0.476,0-0.575-0.493-0.608-0.656c-0.142-0.692-0.462-2.268,0.038-2.879c0.14-0.17,0.326-0.255,0.556-0.255
						c0.114,0,0.24,0.021,0.375,0.064c0.507,0.163,0.957,0.676,1.43,1.217c0.438,0.496,0.891,1.014,1.382,1.23
						c0.16,0.07,0.316,0.104,0.463,0.104c0.457,0,0.728-0.345,0.828-0.67c0.124-0.411,0.043-0.973-0.436-1.297
						c-0.537-0.369-1.156-0.549-1.812-0.74c-0.694-0.197-1.414-0.409-2.019-0.864c-0.642-0.483-0.918-1.163-0.781-1.913
						c0.19-1.028,1.127-2.033,2.187-2.341c0.392-0.113,0.8-0.172,1.214-0.172c0.43,0,0.854,0.062,1.261,0.184
						c0.26,0.079,0.44,0.113,0.585,0.113c0.122,0,0.219-0.024,0.352-0.058c0.147-0.036,0.329-0.082,0.612-0.109
						c0.027-0.003,0.049-0.006,0.073-0.006c0.198,0,0.37,0.089,0.498,0.257c0.543,0.716,0.214,2.854,0.079,3.335
						c-0.016,0.062-0.072,0.102-0.133,0.102c-0.003,0-0.008-0.001-0.012-0.001c-0.726-0.062-1.288-0.688-1.831-1.294
						c-0.481-0.539-0.939-1.05-1.423-1.05c-0.332,0-0.677,0.239-1.049,0.733c0.408,0.975,1.353,1.241,2.353,1.523
						c1.119,0.316,2.278,0.645,2.679,2.016c0.214,0.736,0.095,1.442-0.351,2.037C149.634,98.216,148.022,98.701,146.862,98.701
						L146.862,98.701z"/>
				</g>
				<path fill="#0A9995" d="M146.741,89.505c0.413,0,0.827,0.061,1.222,0.179c0.289,0.087,0.474,0.119,0.623,0.119
					c0.287,0,0.444-0.113,0.979-0.168c0.02-0.001,0.039-0.003,0.059-0.003c1.006,0,0.612,2.809,0.443,3.414
					c-1.316-0.11-2.148-2.348-3.268-2.348c-0.362,0-0.754,0.236-1.203,0.853c0.861,2.265,4.32,1.089,5.054,3.6
					c0.641,2.186-1.934,3.411-3.786,3.411c-0.155,0-0.305-0.009-0.444-0.025c-0.536-0.065-1.014-0.383-1.497-0.383
					c-0.127,0-0.253,0.022-0.382,0.075c-0.245,0.103-0.447,0.173-0.613,0.173c-0.235,0-0.392-0.144-0.474-0.545
					c-0.15-0.74-0.613-2.969,0.457-2.969c0.099,0,0.209,0.021,0.333,0.06c0.932,0.304,1.75,1.979,2.799,2.442
					c0.186,0.083,0.361,0.119,0.519,0.119c1.038,0,1.437-1.562,0.475-2.223c-1.149-0.791-2.697-0.75-3.825-1.602
					c-1.69-1.274-0.261-3.538,1.359-4.009C145.947,89.56,146.344,89.505,146.741,89.505 M146.741,89.227v0.278V89.227
					c-0.427,0-0.847,0.06-1.253,0.178c-1.106,0.321-2.087,1.373-2.282,2.446c-0.147,0.806,0.149,1.535,0.833,2.052
					c0.623,0.472,1.355,0.681,2.062,0.886c0.643,0.188,1.254,0.363,1.771,0.721c0.419,0.288,0.492,0.782,0.382,1.144
					c-0.087,0.275-0.314,0.572-0.697,0.572c-0.127,0-0.264-0.029-0.406-0.094c-0.464-0.204-0.903-0.709-1.335-1.196
					c-0.487-0.556-0.945-1.081-1.49-1.255c-0.149-0.047-0.288-0.071-0.418-0.071c-0.27,0-0.499,0.104-0.662,0.307
					c-0.475,0.586-0.304,1.833-0.071,2.976c0.107,0.529,0.359,0.786,0.75,0.786c0.212,0,0.438-0.078,0.718-0.195
					c0.088-0.034,0.178-0.053,0.277-0.053c0.214,0,0.446,0.085,0.695,0.171c0.243,0.085,0.493,0.177,0.771,0.211
					c0.151,0.018,0.312,0.027,0.478,0.027c1.193,0,2.854-0.503,3.682-1.609c0.471-0.63,0.601-1.377,0.373-2.159
					c-0.425-1.442-1.673-1.797-2.777-2.108c-0.938-0.266-1.828-0.519-2.228-1.371c0.32-0.406,0.619-0.613,0.886-0.613
					c0.424,0,0.862,0.486,1.322,1.004c0.56,0.626,1.142,1.273,1.925,1.34c0.007,0.003,0.015,0.003,0.022,0.003
					c0.123,0,0.233-0.084,0.268-0.204c0.084-0.304,0.519-2.634-0.103-3.457c-0.154-0.203-0.363-0.309-0.606-0.309
					c-0.028,0-0.058,0.001-0.085,0.005c-0.293,0.027-0.48,0.076-0.633,0.113c-0.128,0.032-0.214,0.054-0.319,0.054
					c-0.131,0-0.3-0.032-0.545-0.105C147.622,89.291,147.184,89.227,146.741,89.227L146.741,89.227z"/>
			</g>
			<g>
				<g>
					<path fill="#0A9995" d="M199.96,98.774c-2.067,0-3.84-1.144-4.623-2.985c-0.555-1.297-0.517-2.642,0.104-3.789
						c0.7-1.288,2.074-2.191,3.772-2.483c0.358-0.062,0.727-0.093,1.093-0.093c2.39,0,4.992,1.365,5.063,4.358
						c0.051,2.107-1.501,4.062-3.771,4.752C201.061,98.692,200.51,98.774,199.96,98.774L199.96,98.774z M200.226,90.95
						c-0.179,0-0.364,0.02-0.554,0.061c-1.619,0.34-2.038,1.962-1.906,3.246c0.157,1.497,1.063,3.017,2.498,3.017
						c0.429,0,0.879-0.14,1.341-0.411c1.126-0.664,1.356-2.426,0.996-3.743C202.235,91.762,201.344,90.95,200.226,90.95z"/>
				</g>
				<path fill="#0A9995" d="M200.307,89.561c2.477,0,4.859,1.45,4.926,4.223c0.054,2.225-1.635,3.995-3.675,4.613
					c-0.529,0.16-1.068,0.239-1.599,0.239c-1.905,0-3.692-1.018-4.498-2.904c-1.191-2.787,0.53-5.525,3.776-6.08
					C199.592,89.591,199.951,89.561,200.307,89.561 M200.264,97.413c0.431,0,0.902-0.132,1.411-0.431
					c2.086-1.228,1.44-6.171-1.449-6.171c-0.186,0-0.382,0.021-0.585,0.063C196.369,91.563,197.383,97.413,200.264,97.413
					 M200.307,89.283c-0.373,0-0.749,0.032-1.117,0.094c-1.739,0.298-3.15,1.229-3.87,2.555c-0.644,1.186-0.685,2.576-0.113,3.91
					c0.809,1.896,2.628,3.074,4.752,3.074c0.567,0,1.13-0.084,1.682-0.251c2.332-0.707,3.921-2.716,3.871-4.884
					C205.436,90.688,202.762,89.283,200.307,89.283L200.307,89.283z M200.264,97.135c-1.352,0-2.21-1.455-2.358-2.893
					c-0.128-1.226,0.266-2.774,1.795-3.096c0.18-0.039,0.358-0.059,0.527-0.059c1.051,0,1.889,0.773,2.241,2.068
					c0.344,1.271,0.134,2.957-0.935,3.587C201.094,97.003,200.666,97.135,200.264,97.135L200.264,97.135z"/>
			</g>
			<g>
				<g>
					<path fill="#0A9995" d="M208.725,98.562c-0.302,0-1.095,0-1.182-0.731c-0.093-0.771-0.074-1.556-0.056-2.315
						c0.005-0.19,0.01-0.382,0.012-0.57c0.001-0.038,0.018-0.076,0.046-0.102c0.027-0.025,0.06-0.036,0.092-0.036
						c0.006,0,0.011,0.001,0.016,0.001c0.793,0.087,1.389,0.689,1.966,1.273c0.569,0.575,1.106,1.118,1.776,1.118
						c0.277,0,0.562-0.09,0.872-0.281c0.296-0.18,0.436-0.366,0.418-0.557c-0.066-0.735-2.278-1.575-3.221-1.933
						c-0.302-0.116-0.521-0.199-0.626-0.255c-0.881-0.458-1.32-1.247-1.214-2.166c0.129-1.089,1.017-2.075,2.111-2.351
						c0.566-0.141,1.194-0.21,1.919-0.21c0.636,0,1.284,0.052,1.889,0.111c0.987,0.091,1.029,0.338,1.009,1.039
						c-0.004,0.153-0.009,0.332-0.003,0.547l0.008,0.195c0.021,0.562,0.047,1.198-0.157,1.755c-0.022,0.056-0.074,0.091-0.131,0.091
						c-0.009,0-0.013-0.001-0.019-0.002c-0.698-0.093-1.247-0.703-1.777-1.294c-0.49-0.544-0.951-1.06-1.447-1.06
						c-0.337,0-0.681,0.239-1.06,0.732c0.446,0.688,1.452,1.13,2.427,1.558c1.153,0.507,2.346,1.033,2.682,2.001
						c0.19,0.557,0.089,1.191-0.315,1.946c-0.703,1.317-2.322,1.486-3.655,1.486l0,0c-0.348,0-0.692-0.012-1.007-0.026l-0.352-0.01
						c-0.146,0-0.309,0.01-0.475,0.021C209.091,98.551,208.904,98.562,208.725,98.562z"/>
				</g>
				<path fill="#0A9995" d="M211.659,89.588c0.629,0,1.259,0.05,1.875,0.109c1.132,0.105,0.847,0.355,0.884,1.453
					c0.02,0.614,0.07,1.304-0.142,1.896c-1.294-0.172-2.124-2.354-3.242-2.354c-0.368,0-0.771,0.235-1.228,0.861
					c1.184,2.074,6.728,1.905,4.836,5.451c-0.65,1.218-2.167,1.412-3.531,1.412c-0.45,0-0.884-0.021-1.265-0.032
					c-0.029-0.002-0.064-0.003-0.094-0.003c-0.31,0-0.681,0.044-1.024,0.044c-0.528,0-0.984-0.103-1.048-0.607
					c-0.112-0.952-0.056-1.911-0.042-2.868c1.516,0.164,2.326,2.391,3.759,2.391c0.288,0,0.599-0.088,0.945-0.303
					c2.015-1.236-2.842-2.675-3.44-2.985c-2.073-1.082-1.081-3.771,0.871-4.258C210.386,89.64,211.021,89.588,211.659,89.588
					 M211.659,89.31c-0.734,0-1.374,0.068-1.951,0.214c-1.166,0.29-2.077,1.306-2.216,2.468c-0.116,0.977,0.351,1.819,1.284,2.305
					c0.118,0.06,0.338,0.144,0.645,0.261c0.839,0.319,3.07,1.166,3.131,1.814c0.016,0.161-0.185,0.322-0.354,0.426
					c-0.285,0.177-0.546,0.261-0.799,0.261c-0.611,0-1.128-0.523-1.678-1.078c-0.594-0.599-1.208-1.218-2.051-1.312
					c-0.01-0.001-0.02-0.002-0.03-0.002c-0.064,0-0.132,0.026-0.183,0.069c-0.059,0.051-0.092,0.125-0.094,0.203
					c-0.003,0.19-0.008,0.381-0.01,0.569c-0.019,0.765-0.037,1.553,0.056,2.334c0.102,0.854,1.017,0.854,1.319,0.854
					c0.186,0,0.374-0.01,0.557-0.023c0.161-0.01,0.324-0.021,0.468-0.021c0.028,0,0.058,0.001,0.084,0.002l0.263,0.01
					c0.308,0.011,0.658,0.027,1.012,0.027c1.263,0,3.029-0.161,3.777-1.56c0.42-0.79,0.527-1.464,0.322-2.059
					c-0.355-1.027-1.575-1.562-2.757-2.083c-0.913-0.401-1.856-0.815-2.307-1.425c0.318-0.397,0.618-0.598,0.884-0.598
					c0.436,0,0.878,0.493,1.347,1.014c0.547,0.61,1.112,1.238,1.862,1.339c0.012,0.002,0.025,0.004,0.036,0.004
					c0.115,0,0.221-0.071,0.261-0.181c0.211-0.584,0.187-1.235,0.166-1.805l-0.009-0.196c-0.008-0.208-0.003-0.383,0.004-0.538
					c0.022-0.779-0.069-1.083-1.137-1.181C212.951,89.362,212.3,89.31,211.659,89.31L211.659,89.31z"/>
			</g>
			<g>
				<g>
					<path fill="#0A9995" d="M157.628,98.594c-0.288,0-0.572-0.017-0.836-0.033c-0.121-0.008-0.262-0.011-0.404-0.016
						c-0.898-0.025-2.122-0.059-2.122-1.018c0.037-0.57,0.466-0.57,0.671-0.57l0.225,0.003c0.279,0,0.594,0,0.594-0.737v-5.233
						c-0.119-0.021-0.231-0.031-0.333-0.031c-0.512,0-0.895,0.25-1.249,0.814c-0.27,0.426-0.679,0.934-1.118,0.934
						c-0.324,0-0.571-0.262-0.739-0.775c-0.222-0.69-0.16-1.269,0.178-1.675c0.605-0.725,1.562-1.063,3.012-1.063
						c0.881,0,1.85,0.123,2.783,0.24c0.911,0.115,1.852,0.232,2.678,0.232c0.161,0,0.319-0.004,0.472-0.013
						c0.003-0.002,0.008-0.002,0.01-0.002c0.039,0,0.075,0.018,0.103,0.047s0.042,0.071,0.034,0.114
						c-0.018,0.127-0.001,0.401,0.019,0.694c0.049,0.76,0.11,1.706-0.243,2.084c-0.102,0.11-0.231,0.164-0.387,0.164
						c-0.075,0-0.156-0.012-0.241-0.041c-0.464-0.15-0.69-0.53-0.91-0.894c-0.189-0.314-0.365-0.613-0.689-0.754
						c-0.078-0.034-0.152-0.051-0.221-0.051c-0.253,0-0.467,0.25-0.627,0.734c-0.549,1.633-0.217,4.938,0.066,5.156
						c0.066,0.028,0.212,0.065,0.364,0.104c0.499,0.122,1.063,0.268,1.116,0.609c0.04,0.265-0.243,0.47-0.459,0.601
						C158.945,98.473,158.39,98.594,157.628,98.594z"/>
				</g>
				<path fill="#0A9995" d="M155.506,89.329c1.728,0,3.778,0.473,5.461,0.473c0.163,0,0.323-0.004,0.48-0.014
					c-0.078,0.534,0.38,2.824-0.476,2.824c-0.06,0-0.125-0.01-0.196-0.034c-0.8-0.261-0.836-1.316-1.589-1.642
					c-0.1-0.043-0.191-0.062-0.276-0.062c-1.477,0-1.142,5.925-0.62,6.151c0.396,0.17,2.187,0.351,1.011,1.069
					c-0.475,0.289-1.084,0.359-1.673,0.359c-0.287,0-0.567-0.018-0.827-0.032c-0.847-0.053-2.398,0.069-2.398-0.896
					c0.025-0.392,0.258-0.432,0.532-0.432c0.074,0,0.149,0.003,0.226,0.003c0.365,0,0.732-0.069,0.732-0.878
					c0-1.782,0-3.563,0-5.347c-0.171-0.038-0.326-0.056-0.474-0.056c-0.594,0-1.006,0.307-1.367,0.879
					c-0.298,0.477-0.667,0.868-1,0.868c-0.232,0-0.448-0.194-0.605-0.68c-0.165-0.514-0.213-1.106,0.155-1.544
					C153.253,89.56,154.299,89.329,155.506,89.329 M155.506,89.052c-1.494,0-2.483,0.353-3.116,1.11
					c-0.372,0.447-0.443,1.07-0.207,1.808c0.233,0.722,0.604,0.873,0.869,0.873c0.506,0,0.953-0.545,1.237-0.999
					c0.33-0.524,0.668-0.749,1.13-0.749c0.062,0,0.124,0.005,0.195,0.01v5.112c0,0.601-0.182,0.601-0.454,0.601l-0.109-0.002
					l-0.116-0.002h-0.001c-0.192,0-0.762,0.002-0.81,0.691c0,1.113,1.357,1.15,2.257,1.179c0.143,0.003,0.28,0.007,0.402,0.012
					c0.281,0.019,0.558,0.034,0.845,0.034c0.791,0,1.367-0.126,1.813-0.4c0.145-0.087,0.582-0.354,0.524-0.738
					c-0.065-0.437-0.679-0.588-1.218-0.725c-0.121-0.029-0.24-0.062-0.313-0.086c-0.3-0.471-0.555-3.918,0.08-5.25
					c0.121-0.251,0.254-0.381,0.396-0.381c0.049,0,0.104,0.011,0.167,0.039c0.281,0.121,0.44,0.387,0.627,0.697
					c0.221,0.367,0.472,0.787,0.984,0.953c0.1,0.032,0.195,0.048,0.284,0.048c0.19,0,0.362-0.072,0.491-0.212
					c0.394-0.421,0.328-1.4,0.28-2.187c-0.019-0.27-0.035-0.552-0.02-0.664c0.011-0.084-0.014-0.167-0.07-0.228
					c-0.052-0.059-0.126-0.091-0.204-0.091c-0.007,0-0.011,0.001-0.017,0.001c-0.151,0.009-0.307,0.014-0.463,0.014
					c-0.818,0-1.755-0.119-2.66-0.232C157.365,89.175,156.392,89.052,155.506,89.052L155.506,89.052z"/>
			</g>
			<g>
				<g>
					<path fill="#0A9995" d="M169.159,98.894c-0.863,0-1.771-0.253-2.553-0.713c-2.019-1.185-2.985-3.514-2.468-5.933
						c0.034-0.16,0.079-0.31,0.119-0.445c0.08-0.273,0.14-0.492,0.065-0.604c-0.06-0.089-0.232-0.15-0.515-0.179
						c-0.273-0.027-0.474-0.149-0.563-0.344c-0.086-0.195-0.047-0.426,0.112-0.654c0.307-0.444,0.93-0.669,1.853-0.669
						c0.328,0,0.645,0.027,0.886,0.05c0.021,0.002,2.104,0.381,2.196,0.996c0.027,0.197-0.121,0.366-0.444,0.5
						c-0.247,0.103-0.456,0.116-0.619,0.13c-0.287,0.022-0.345,0.024-0.33,0.495c0.015,0.546-0.01,1.101-0.033,1.635
						c-0.009,0.215-0.019,0.434-0.025,0.649c-0.047,1.508-0.098,3.065,1.59,3.299c0.117,0.017,0.232,0.025,0.343,0.025
						c0.827,0,1.46-0.438,1.782-1.232c0.465-1.15,0.379-2.536,0.23-3.736c-0.01-0.075-0.017-0.156-0.022-0.235
						c-0.043-0.481-0.086-0.778-0.475-0.853c-0.037-0.007-0.077-0.008-0.12-0.008c-0.053,0-0.109,0.001-0.171,0.006
						c-0.064,0.007-0.137,0.01-0.206,0.01c-0.283,0-0.67-0.064-0.763-0.596c0.044-0.76,0.814-1.181,2.118-1.181
						c1.09,0,2.478,0.331,2.818,0.866c0.094,0.145,0.104,0.302,0.037,0.452c-0.166,0.362-0.538,0.387-0.865,0.411
						c-0.235,0.017-0.463,0.034-0.587,0.165c-0.103,0.681-0.05,1.389,0,2.074l0.027,0.454c0.088,1.424,0.098,2.903-0.805,4.004
						C170.995,98.693,169.922,98.894,169.159,98.894z"/>
				</g>
				<path fill="#0A9995" d="M171.148,89.452c1.407,0,3.005,0.53,2.729,1.119c-0.25,0.541-1.117,0.142-1.459,0.577
					c-0.135,0.855-0.03,1.735,0.022,2.595c0.081,1.321,0.112,2.826-0.773,3.909c-0.641,0.784-1.56,1.105-2.509,1.105
					c-0.865,0-1.757-0.268-2.482-0.693c-2.028-1.192-2.889-3.517-2.401-5.785c0.17-0.804,0.566-1.289-0.456-1.395
					c-0.459-0.046-0.62-0.393-0.349-0.778c0.342-0.493,1.07-0.608,1.739-0.608c0.32,0,0.627,0.027,0.871,0.049
					c0.254,0.026,3.055,0.671,1.712,1.23c-0.673,0.281-1.061-0.149-1.034,0.759c0.021,0.759-0.03,1.518-0.059,2.276
					c-0.046,1.509-0.098,3.19,1.712,3.44c0.122,0.018,0.242,0.027,0.361,0.027c0.865,0,1.564-0.463,1.911-1.317
					c0.476-1.179,0.389-2.573,0.237-3.805c-0.061-0.493-0.006-1.092-0.609-1.208c-0.044-0.009-0.093-0.01-0.143-0.01
					c-0.117,0-0.247,0.014-0.377,0.014c-0.281,0-0.553-0.065-0.624-0.48C169.211,89.73,170.131,89.452,171.148,89.452
					 M171.148,89.175c-1.385,0-2.207,0.463-2.258,1.274c-0.001,0.021,0,0.043,0.005,0.065c0.083,0.472,0.383,0.71,0.897,0.71
					c0.072,0,0.144-0.004,0.215-0.008c0.057-0.003,0.11-0.008,0.16-0.008c0.031,0,0.065,0.002,0.093,0.008
					c0.266,0.049,0.319,0.208,0.362,0.728c0.01,0.082,0.014,0.162,0.024,0.241c0.146,1.183,0.233,2.544-0.219,3.666
					c-0.302,0.739-0.888,1.146-1.654,1.146c-0.104,0-0.215-0.009-0.324-0.023c-1.455-0.201-1.527-1.383-1.473-3.157
					c0.008-0.217,0.017-0.432,0.028-0.647c0.023-0.538,0.046-1.094,0.03-1.645c-0.008-0.273,0.028-0.334,0.031-0.343
					c0.012-0.002,0.103-0.009,0.169-0.011c0.168-0.012,0.396-0.028,0.662-0.141c0.392-0.162,0.567-0.381,0.529-0.648
					c-0.11-0.745-2.297-1.112-2.319-1.115c-0.243-0.024-0.564-0.052-0.898-0.052c-0.985,0-1.628,0.237-1.968,0.729
					c-0.187,0.268-0.231,0.554-0.121,0.791c0.105,0.235,0.353,0.389,0.673,0.423c0.351,0.034,0.411,0.109,0.416,0.119
					c0.038,0.058-0.031,0.306-0.084,0.485c-0.04,0.135-0.085,0.289-0.121,0.456c-0.53,2.478,0.462,4.864,2.535,6.081
					c0.803,0.473,1.734,0.731,2.62,0.731c1.139,0,2.078-0.418,2.726-1.206c0.934-1.142,0.925-2.65,0.836-4.102
					c-0.01-0.15-0.02-0.302-0.03-0.454c-0.047-0.66-0.095-1.345-0.009-1.994c0.102-0.068,0.28-0.083,0.469-0.098
					c0.33-0.025,0.781-0.057,0.981-0.493c0.086-0.193,0.071-0.399-0.047-0.586C173.712,89.521,172.301,89.175,171.148,89.175
					L171.148,89.175z"/>
			</g>
			<g>
				<g>
					<path fill="#0A9995" d="M178.953,98.737c-0.363,0-0.731-0.021-1.094-0.059c-0.734-0.079-1.44-0.24-2.101-0.48
						c-0.044-0.014-0.076-0.051-0.088-0.095c-0.071-0.283-0.052-0.506,0.062-0.683c0.168-0.259,0.503-0.344,0.775-0.389
						c0.865-0.144,0.672-3.098,0.567-4.681c-0.029-0.442-0.055-0.826-0.055-1.07c-0.03-0.023-0.268-0.099-0.425-0.146
						c-0.405-0.128-0.865-0.272-0.938-0.635c-0.056-0.258,0.112-0.555,0.511-0.904c0.218-0.194,1.633-0.197,1.795-0.197
						c3.038,0,6.663,0.784,7.723,2.985c0.456,0.949,0.507,1.888,0.147,2.797c-0.48,1.218-1.721,2.306-3.314,2.915
						C181.409,98.514,180.176,98.737,178.953,98.737z M179.674,96.828c2.056,0,3.34-1.337,3.552-2.659
						c0.188-1.183-0.475-2.144-1.773-2.567c-0.266-0.085-1.034-0.239-1.628-0.239c-0.479,0-0.612,0.099-0.616,0.156
						c-0.029,0.45,0.056,1.528,0.146,2.671c0.077,0.973,0.156,1.978,0.165,2.637C179.572,96.827,179.674,96.828,179.674,96.828z"/>
				</g>
				<path fill="#0A9995" d="M177.958,89.534c2.36,0,6.45,0.521,7.599,2.905c1.23,2.552-0.819,4.653-3.091,5.521
					c-1.116,0.426-2.317,0.638-3.514,0.638c-0.362,0-0.721-0.019-1.078-0.056c-0.703-0.077-1.405-0.231-2.069-0.474
					c-0.16-0.615,0.195-0.812,0.725-0.901c1.237-0.208,0.626-4.689,0.626-5.887c-0.035-0.376-2.345-0.312-0.901-1.583
					C176.347,89.618,177.015,89.534,177.958,89.534 M179.674,96.968c3.723,0,5.216-4.389,1.821-5.497
					c-0.299-0.098-1.076-0.247-1.67-0.247c-0.417,0-0.741,0.071-0.755,0.288c-0.059,0.882,0.312,4.093,0.312,5.45
					C179.48,96.964,179.579,96.968,179.674,96.968 M177.958,89.255c-0.486,0-1.646,0.024-1.885,0.232
					c-0.28,0.248-0.642,0.623-0.556,1.037c0.093,0.439,0.616,0.604,1.035,0.737c0.103,0.033,0.25,0.082,0.328,0.117
					c0.007,0.247,0.027,0.588,0.052,0.977c0.083,1.206,0.292,4.413-0.45,4.537c-0.302,0.048-0.672,0.146-0.87,0.451
					c-0.135,0.21-0.158,0.475-0.078,0.792c0.023,0.089,0.089,0.158,0.177,0.192c0.67,0.242,1.386,0.405,2.134,0.486
					c0.365,0.04,0.737,0.059,1.106,0.059c1.24,0,2.489-0.228,3.613-0.654c1.628-0.623,2.896-1.741,3.395-2.993
					c0.375-0.943,0.323-1.924-0.153-2.911C184.438,89.477,179.454,89.255,177.958,89.255L177.958,89.255z M179.344,91.566
					c0.044-0.022,0.17-0.065,0.481-0.065c0.576,0,1.327,0.148,1.585,0.233c1.227,0.4,1.854,1.304,1.678,2.412
					c-0.198,1.264-1.437,2.541-3.412,2.541c-0.009,0-0.012,0-0.018,0c-0.018-0.661-0.092-1.602-0.164-2.513
					C179.409,93.122,179.323,92.029,179.344,91.566L179.344,91.566z"/>
			</g>
			<g>
				<g>
					<path fill="#0A9995" d="M190.351,98.517c-0.887,0-1.665-0.057-2.378-0.176c-0.057-0.01-0.103-0.05-0.113-0.106
						c-0.078-0.382-0.029-0.685,0.149-0.902c0.195-0.246,0.547-0.368,1.033-0.368c0.056,0,0.111,0.001,0.167,0.006v-4.972
						c0-0.859-0.107-0.859-0.25-0.859l-0.212,0.004c-0.213,0-0.498-0.031-0.838-0.293c-0.028-0.023-0.047-0.05-0.051-0.084
						c-0.057-0.285,0.004-0.538,0.178-0.75c0.537-0.651,2.024-0.703,2.468-0.703c0.069,0,0.131,0.003,0.185,0.004
						c0.569,0.02,1.396,0.092,2.009,0.518c0.192,0.136,0.535,0.538,0.457,0.859c-0.028,0.12-0.124,0.271-0.418,0.31
						c-1.126,0.154-1.122,0.456-1.11,1.582c0.002,0.142,0.005,0.295,0.004,0.46c-0.005,0.479,0.009,0.959,0.02,1.441
						c0.009,0.466,0.021,0.944,0.019,1.423c0.066,0.042,0.112,0.179,0.112,0.6c0,0.128-0.004,0.247-0.027,0.33
						c0.132,0.112,0.33,0.148,0.537,0.186c0.29,0.049,0.617,0.107,0.802,0.378c0.18,0.262,0.221,0.486,0.125,0.671
						c-0.2,0.384-0.903,0.418-1.605,0.419c-0.084,0-0.158,0-0.214,0.004C191.057,98.508,190.705,98.517,190.351,98.517
						L190.351,98.517z"/>
				</g>
				<path fill="#0A9995" d="M190.508,89.451c0.067,0,0.128,0.001,0.182,0.002c0.642,0.022,1.39,0.116,1.933,0.495
					c0.27,0.189,0.711,0.834,0.103,0.916c-1.404,0.191-1.221,0.713-1.229,2.178c-0.009,1.218,0.076,2.435,0.02,3.652
					c0,0.009,0,0.012-0.002,0.02c0.002,0.004,0.002,0.005,0.003,0.007c0.026,0.073,0.047,0.114,0.062,0.128
					c0.287,0.436,1.104,0.192,1.406,0.636c0.672,0.979-1.106,0.854-1.584,0.871c-0.349,0.013-0.697,0.025-1.051,0.025
					c-0.79,0-1.582-0.046-2.356-0.172c-0.175-0.857,0.378-1.104,1.049-1.104c0.103,0,0.202,0.007,0.308,0.015
					c0-1.708,0-3.413,0-5.121c0-0.911-0.126-0.999-0.389-0.999c-0.062,0-0.133,0.009-0.21,0.009c-0.199,0-0.453-0.033-0.755-0.271
					C187.782,89.623,189.666,89.451,190.508,89.451 M191.594,96.028c0.054,0,0.087,0.823,0,0.823c-0.005,0-0.01-0.002-0.012-0.006
					c-0.027-0.039-0.047-0.083-0.064-0.13c0,0-0.001-0.002-0.001-0.005c0-0.008,0-0.012,0-0.019
					C191.541,96.199,191.569,96.028,191.594,96.028 M190.508,89.174c-0.586,0-2.014,0.073-2.573,0.753
					c-0.2,0.244-0.272,0.543-0.209,0.865c0.01,0.065,0.046,0.127,0.102,0.168c0.373,0.289,0.689,0.326,0.923,0.326
					c0.046,0,0.086-0.001,0.126-0.002c0.029-0.002,0.059-0.003,0.084-0.003c0.021,0,0.034,0.001,0.043,0.001
					c0.025,0.047,0.067,0.205,0.067,0.719v4.826c-0.01,0-0.019,0-0.028,0c-0.531,0-0.918,0.14-1.144,0.419
					c-0.204,0.251-0.263,0.594-0.177,1.016c0.024,0.112,0.115,0.197,0.229,0.216c0.719,0.12,1.507,0.177,2.399,0.177
					c0.335,0,0.68-0.01,1.064-0.025c0.051-0.001,0.121-0.001,0.204-0.001c0.745-0.002,1.492-0.042,1.728-0.493
					c0.121-0.232,0.077-0.508-0.132-0.813c-0.218-0.318-0.593-0.384-0.894-0.438c-0.158-0.027-0.31-0.054-0.412-0.108
					c0.01-0.071,0.013-0.161,0.013-0.271c0-0.247,0-0.517-0.111-0.658c0.001-0.465-0.009-0.921-0.021-1.37
					c-0.009-0.473-0.023-0.958-0.02-1.437c0.002-0.165,0-0.319-0.003-0.461c-0.011-1.106-0.013-1.308,0.993-1.443
					c0.388-0.051,0.498-0.284,0.53-0.416c0.101-0.414-0.31-0.863-0.512-1.006c-0.642-0.447-1.497-0.523-2.084-0.542
					C190.643,89.175,190.579,89.174,190.508,89.174L190.508,89.174z"/>
			</g>
		</g>
		<g>
			<g>
				<g>
					<g>
						<path fill="#0A9995" d="M176.074,75.264c-0.033,0-0.065-0.01-0.093-0.036c-0.325-0.299-0.237-0.714-0.158-1.08
							c0.058-0.27,0.111-0.524-0.004-0.684c-0.084-0.12-0.279-0.199-0.572-0.235c-0.047-0.009-0.089-0.036-0.108-0.082
							c-0.02-0.044-0.017-0.093,0.01-0.134c0.271-0.418,0.548-0.463,0.746-0.499c0.202-0.034,0.314-0.054,0.314-0.784
							c0-0.054,0.031-0.103,0.084-0.126c0.019-0.009,0.038-0.01,0.057-0.01c0.033,0,0.065,0.009,0.092,0.034
							c0.193,0.17,0.286,0.381,0.368,0.567c0.121,0.272,0.191,0.403,0.422,0.403c0.084,0,0.182-0.017,0.298-0.048
							c0.011-0.006,0.026-0.008,0.038-0.008c0.055,0,0.104,0.033,0.127,0.083c0.028,0.065,0.003,0.141-0.059,0.177
							c-0.2,0.119-0.324,0.271-0.376,0.474c-0.095,0.362,0.046,0.871,0.426,1.511c0.03,0.054,0.023,0.12-0.02,0.166
							c-0.028,0.028-0.064,0.044-0.101,0.044c-0.024,0-0.047-0.007-0.066-0.019c-0.125-0.069-0.249-0.148-0.363-0.225
							c-0.231-0.151-0.451-0.293-0.597-0.293c-0.152,0-0.263,0.231-0.325,0.689c-0.009,0.05-0.044,0.094-0.091,0.11
							C176.105,75.262,176.09,75.264,176.074,75.264z"/>
					</g>
					<path fill="#0A9995" d="M176.346,71.73c0.418,0.374,0.325,1.006,0.883,1.006c0.092,0,0.202-0.017,0.336-0.056
						c-0.825,0.479-0.402,1.495,0,2.173c-0.401-0.229-0.756-0.536-1.027-0.536c-0.218,0-0.38,0.2-0.464,0.809
						c-0.647-0.595,0.723-1.849-0.81-2.036C175.827,72.219,176.346,73.193,176.346,71.73 M176.346,71.453
						c-0.039,0-0.077,0.009-0.115,0.026c-0.101,0.047-0.162,0.142-0.162,0.252c0,0.537-0.077,0.616-0.081,0.621
						c-0.013,0.01-0.079,0.021-0.12,0.028c-0.201,0.032-0.536,0.09-0.841,0.559c-0.052,0.08-0.059,0.181-0.019,0.27
						c0.04,0.084,0.123,0.145,0.218,0.157c0.246,0.03,0.416,0.095,0.476,0.181c0.077,0.108,0.028,0.344-0.021,0.573
						c-0.081,0.383-0.182,0.859,0.201,1.211c0.052,0.048,0.118,0.074,0.188,0.074c0.031,0,0.063-0.007,0.094-0.017
						c0.097-0.034,0.165-0.121,0.18-0.223c0.065-0.474,0.167-0.568,0.189-0.568c0.105,0,0.337,0.151,0.521,0.271
						c0.118,0.077,0.242,0.157,0.369,0.23c0.043,0.026,0.09,0.035,0.137,0.035c0.073,0,0.144-0.027,0.198-0.084
						c0.086-0.088,0.103-0.228,0.039-0.335c-0.352-0.596-0.494-1.084-0.409-1.406c0.041-0.159,0.142-0.288,0.312-0.384
						c0.12-0.068,0.17-0.219,0.115-0.35c-0.046-0.104-0.146-0.169-0.254-0.169c-0.026,0-0.052,0.004-0.077,0.01
						c-0.103,0.028-0.189,0.047-0.259,0.047c-0.135,0-0.171-0.041-0.297-0.322c-0.083-0.19-0.188-0.425-0.401-0.613
						C176.478,71.477,176.413,71.453,176.346,71.453L176.346,71.453z"/>
				</g>
				<g>
					<g>
						<path fill="#0A9995" d="M183.649,75.269c-0.104,0-0.177-0.093-0.328-0.296c-0.158-0.207-0.446-0.593-0.648-0.593
							c-0.139,0-0.271,0.232-0.367,0.641c-0.015,0.061-0.064,0.104-0.129,0.106c-0.001,0.001-0.004,0.001-0.007,0.001
							c-0.059,0-0.111-0.038-0.131-0.095c-0.12-0.354-0.017-0.714,0.082-1.061c0.149-0.535,0.223-0.879-0.171-1.183
							c-0.056-0.043-0.068-0.12-0.034-0.181c0.028-0.043,0.072-0.065,0.121-0.065c0.019,0,0.038,0.004,0.057,0.01
							c0.114,0.053,0.213,0.08,0.295,0.08c0.307,0,0.387-0.418,0.456-0.921c0.01-0.06,0.053-0.104,0.111-0.118
							c0.01-0.002,0.019-0.002,0.027-0.002c0.048,0,0.097,0.026,0.121,0.069c0.098,0.17,0.15,0.362,0.202,0.548
							c0.112,0.405,0.191,0.633,0.515,0.633c0.064,0,0.138-0.01,0.216-0.026c0.01-0.004,0.021-0.004,0.03-0.004
							c0.058,0,0.111,0.036,0.132,0.093c0.021,0.065-0.01,0.14-0.073,0.172c-0.911,0.434-0.541,1.535-0.338,1.99
							c0.023,0.055,0.009,0.117-0.032,0.158C183.73,75.25,183.684,75.269,183.649,75.269L183.649,75.269z"/>
					</g>
					<path fill="#0A9995" d="M182.982,71.73c0.275,0.487,0.188,1.253,0.838,1.253c0.07,0,0.155-0.009,0.248-0.029
						c-0.823,0.395-0.782,1.328-0.406,2.174c-0.003,0.003-0.009,0.007-0.012,0.007c-0.108,0-0.567-0.89-0.977-0.89
						c-0.189,0-0.371,0.191-0.503,0.748c-0.256-0.768,0.688-1.67-0.134-2.31c0.137,0.064,0.25,0.092,0.353,0.092
						C182.838,72.772,182.919,72.191,182.982,71.73 M182.982,71.453c-0.017,0-0.035,0.002-0.053,0.008
						c-0.119,0.023-0.206,0.117-0.222,0.233c-0.057,0.423-0.125,0.801-0.32,0.801c-0.046,0-0.121-0.009-0.238-0.065
						c-0.037-0.016-0.075-0.026-0.114-0.026c-0.095,0-0.187,0.047-0.238,0.136c-0.071,0.121-0.042,0.277,0.066,0.363
						c0.325,0.251,0.267,0.529,0.121,1.033c-0.099,0.351-0.211,0.749-0.08,1.144c0.038,0.113,0.143,0.189,0.264,0.189
						c0.004,0,0.008,0,0.01,0c0.123-0.007,0.231-0.092,0.256-0.215c0.114-0.478,0.235-0.533,0.236-0.533
						c0.13,0,0.435,0.404,0.535,0.538c0.17,0.227,0.266,0.35,0.438,0.35c0.071,0,0.153-0.032,0.204-0.081
						c0.085-0.083,0.109-0.208,0.063-0.314c-0.185-0.417-0.53-1.427,0.271-1.81c0.128-0.061,0.189-0.207,0.143-0.343
						c-0.038-0.114-0.146-0.188-0.262-0.188c-0.019,0-0.039,0.005-0.062,0.009c-0.068,0.017-0.135,0.025-0.188,0.025
						c-0.195,0-0.255-0.085-0.381-0.532c-0.051-0.185-0.109-0.394-0.216-0.579C183.174,71.505,183.08,71.453,182.982,71.453
						L182.982,71.453z"/>
				</g>
				<g>
					<g>
						<path fill="#0A9995" d="M169.03,78.25c-0.049,0-0.098-0.027-0.121-0.073c-0.169-0.315-0.205-0.638-0.235-0.923
							c-0.056-0.498-0.084-0.771-0.726-0.771c-0.04,0-0.132,0.004-0.134,0.004c-0.062,0-0.115-0.041-0.133-0.101
							c-0.019-0.061,0.008-0.127,0.064-0.159c0.651-0.379,0.636-0.521,0.594-0.867c-0.022-0.198-0.052-0.448,0.015-0.804
							c0.01-0.052,0.049-0.096,0.102-0.107c0.011-0.003,0.025-0.006,0.035-0.006c0.041,0,0.08,0.018,0.104,0.048
							c0.062,0.071,0.121,0.146,0.177,0.218c0.142,0.179,0.288,0.368,0.394,0.368c0.043,0,0.139-0.04,0.289-0.294
							c0.028-0.045,0.071-0.067,0.121-0.067c0.018,0,0.03,0.003,0.047,0.01c0.065,0.027,0.103,0.09,0.087,0.158
							c-0.163,0.803,0.091,1.44,0.753,1.893c0.053,0.035,0.074,0.103,0.053,0.161c-0.019,0.049-0.082,0.169-0.271,0.169l0,0
							c-0.238,0-0.604-0.193-0.79-0.308c-0.195,0.235-0.228,0.633-0.253,0.987c-0.009,0.124-0.018,0.243-0.034,0.348
							c-0.01,0.061-0.054,0.104-0.112,0.117C169.047,78.249,169.038,78.25,169.03,78.25z"/>
					</g>
					<path fill="#0A9995" d="M168.489,74.582c0.251,0.291,0.445,0.634,0.676,0.634c0.121,0,0.252-0.101,0.41-0.362
						c-0.164,0.809,0.065,1.523,0.81,2.036c-0.02,0.054-0.071,0.077-0.14,0.077c-0.251,0-0.733-0.285-0.807-0.348
						c-0.398,0.33-0.344,1.047-0.408,1.495c-0.441-0.828,0.099-1.769-1.084-1.769c-0.043,0-0.084,0.002-0.135,0.005
						C168.915,75.709,168.302,75.572,168.489,74.582 M168.489,74.303c-0.024,0-0.047,0.003-0.072,0.01
						c-0.103,0.028-0.178,0.111-0.198,0.217c-0.07,0.375-0.039,0.648-0.017,0.847c0.037,0.313,0.047,0.399-0.528,0.73
						c-0.109,0.065-0.161,0.197-0.125,0.321c0.035,0.12,0.141,0.196,0.266,0.196c0.006,0,0.009,0,0.015,0
						c0.042-0.003,0.082-0.003,0.12-0.003c0.517,0,0.533,0.149,0.587,0.647c0.028,0.282,0.07,0.633,0.251,0.972
						c0.049,0.093,0.143,0.146,0.246,0.146c0.015,0,0.03,0,0.046-0.003c0.118-0.021,0.209-0.115,0.227-0.234
						c0.016-0.104,0.028-0.229,0.034-0.356c0.022-0.286,0.047-0.602,0.158-0.81c0.214,0.121,0.522,0.262,0.748,0.262
						c0.193,0,0.344-0.101,0.4-0.265c0.045-0.12-0.001-0.25-0.103-0.322c-0.612-0.419-0.847-1.009-0.698-1.751
						c0.028-0.134-0.045-0.267-0.172-0.315c-0.032-0.011-0.065-0.019-0.1-0.019c-0.097,0-0.188,0.05-0.238,0.137
						c-0.093,0.157-0.152,0.209-0.178,0.223c-0.064-0.037-0.193-0.197-0.279-0.309c-0.058-0.072-0.118-0.149-0.179-0.224
						C168.645,74.338,168.568,74.303,168.489,74.303L168.489,74.303z"/>
				</g>
				<g>
					<g>
						<path fill="#0A9995" d="M190.501,77.975c-0.087,0-0.311,0-0.339-1.09c-0.183,0.005-0.345,0.065-0.513,0.128
							c-0.172,0.067-0.35,0.139-0.563,0.151c-0.005,0-0.009,0-0.01,0c-0.047,0-0.096-0.026-0.12-0.066
							c-0.028-0.046-0.027-0.103,0.003-0.146c0.098-0.147,0.23-0.288,0.37-0.438c0.473-0.51,0.729-0.847,0.323-1.292
							c-0.038-0.04-0.046-0.102-0.025-0.15c0.022-0.05,0.072-0.085,0.126-0.085c0.002,0,0.002,0,0.003,0
							c0.077,0.003,0.156,0.008,0.232,0.011c0.084,0.004,0.166,0.009,0.245,0.009c0.329,0,0.526-0.072,0.604-0.452
							c0.013-0.062,0.065-0.105,0.129-0.11c0.001-0.001,0.005-0.001,0.007-0.001c0.061,0,0.112,0.04,0.132,0.098
							c0.055,0.17,0.054,0.39,0.051,0.624c-0.002,0.311-0.006,0.662,0.146,0.818c0.063,0.064,0.156,0.094,0.282,0.094
							c0,0,0.063-0.001,0.066-0.001c0.042,0,0.083,0.021,0.106,0.053c0.028,0.036,0.037,0.084,0.024,0.128
							c-0.099,0.303-0.398,0.338-0.638,0.368c-0.112,0.012-0.229,0.027-0.304,0.065c0.037,1.15-0.188,1.236-0.272,1.274
							C190.554,77.968,190.518,77.975,190.501,77.975z"/>
					</g>
					<path fill="#0A9995" d="M190.975,74.582c0.158,0.482-0.22,1.632,0.611,1.632c0.021,0,0.044-0.001,0.065-0.003
						c-0.122,0.377-0.713,0.182-0.949,0.405c0.003,0.084,0.054,1.122-0.183,1.216c-0.009,0.003-0.013,0.004-0.02,0.004
						c-0.175,0-0.201-0.967-0.203-1.082c0,0,0,0,0.001,0c0-0.01-0.001-0.01-0.001-0.01s0,0.003,0,0.01
						c-0.043-0.009-0.085-0.01-0.124-0.01c-0.403,0-0.688,0.251-1.096,0.279c0.365-0.555,1.375-1.144,0.679-1.898
						c0.16,0.003,0.325,0.017,0.479,0.017C190.581,75.142,190.874,75.064,190.975,74.582 M190.975,74.303c-0.005,0-0.009,0-0.015,0
						c-0.123,0.008-0.231,0.098-0.255,0.221c-0.062,0.288-0.177,0.341-0.468,0.341c-0.079,0-0.158-0.005-0.237-0.01
						c-0.079-0.006-0.159-0.009-0.237-0.009c-0.002,0-0.002,0-0.004,0c-0.109,0-0.208,0.065-0.254,0.164
						c-0.045,0.103-0.025,0.221,0.05,0.303c0.301,0.327,0.189,0.55-0.325,1.101c-0.139,0.147-0.28,0.301-0.382,0.459
						c-0.059,0.088-0.062,0.202-0.01,0.292c0.05,0.083,0.142,0.139,0.24,0.139c0.009,0,0.013,0,0.02-0.002
						c0.235-0.017,0.429-0.092,0.604-0.159c0.116-0.045,0.221-0.083,0.326-0.106c0.052,1.077,0.324,1.077,0.474,1.077
						c0.035,0,0.089-0.009,0.12-0.023c0.196-0.077,0.387-0.295,0.365-1.305c0.057-0.01,0.125-0.021,0.177-0.027
						c0.251-0.028,0.625-0.076,0.753-0.463c0.027-0.087,0.012-0.183-0.047-0.256c-0.05-0.067-0.133-0.106-0.216-0.106
						c-0.009,0-0.013,0.001-0.019,0.001c-0.018,0-0.033,0.001-0.047,0.001c-0.131,0-0.171-0.041-0.185-0.054
						c-0.111-0.113-0.107-0.448-0.104-0.717c0.003-0.247,0.005-0.475-0.058-0.667C191.202,74.38,191.094,74.303,190.975,74.303
						L190.975,74.303z"/>
				</g>
				<g>
					<g>
						<path fill="#0A9995" d="M162.441,83.317c-0.116,0-0.234,0-0.566-1.279c-0.01-0.002-0.021-0.002-0.031-0.002
							c-0.102,0-0.2,0.035-0.305,0.071c-0.115,0.042-0.248,0.089-0.4,0.089l0,0c-0.038,0-0.078-0.003-0.119-0.01
							c-0.051-0.01-0.094-0.046-0.11-0.094c-0.016-0.049-0.003-0.103,0.032-0.141c0.286-0.296,0.54-0.568,0.758-0.882l-0.251-1.026
							c-0.015-0.054,0.006-0.112,0.051-0.145c0.025-0.018,0.052-0.028,0.084-0.028c0.024,0,0.047,0.008,0.069,0.02
							c0.177,0.104,0.312,0.239,0.432,0.357c0.107,0.105,0.219,0.216,0.285,0.216c0.034,0,0.135-0.036,0.311-0.381
							c0.023-0.047,0.072-0.075,0.123-0.075c0.009,0,0.017,0.001,0.027,0.003c0.103,0.021,0.177,0.085,0.21,0.188
							c0.068,0.213-0.084,0.567-0.195,0.753c0.064,0.075,0.127,0.153,0.19,0.232c0.256,0.316,0.499,0.619,0.892,0.734
							c0.041,0.011,0.074,0.045,0.089,0.083c0.017,0.041,0.011,0.084-0.009,0.121c-0.049,0.089-0.156,0.195-0.361,0.195
							c-0.129,0-0.268-0.041-0.402-0.081c-0.113-0.031-0.231-0.065-0.32-0.065c0,0-0.004,0.017-0.005,0.027
							c-0.103,0.6-0.202,0.994-0.393,1.103C162.502,83.309,162.465,83.317,162.441,83.317z"/>
					</g>
					<path fill="#0A9995" d="M161.582,80.012c0.362,0.217,0.563,0.591,0.786,0.591c0.127,0,0.259-0.12,0.436-0.456
						c0.289,0.058-0.048,0.72-0.139,0.816c0.374,0.405,0.647,0.916,1.219,1.085c-0.054,0.095-0.14,0.126-0.24,0.126
						c-0.217,0-0.508-0.147-0.723-0.147c-0.044,0-0.085,0.009-0.121,0.021c-0.028,0.126-0.14,1.009-0.345,1.126
						c-0.004,0.003-0.01,0.004-0.014,0.004c-0.147,0-0.451-1.258-0.455-1.266c-0.05-0.011-0.1-0.016-0.142-0.016
						c-0.257,0-0.445,0.159-0.705,0.159c-0.031,0-0.064-0.002-0.099-0.009c0.288-0.301,0.574-0.603,0.809-0.953
						C161.761,80.736,161.671,80.373,161.582,80.012 M161.582,79.733c-0.06,0-0.116,0.019-0.166,0.054
						c-0.09,0.065-0.131,0.182-0.103,0.289l0.237,0.964c-0.205,0.286-0.441,0.539-0.71,0.812c-0.071,0.075-0.096,0.182-0.063,0.283
						c0.033,0.099,0.117,0.17,0.22,0.187c0.046,0.01,0.096,0.01,0.139,0.01c0.18,0,0.321-0.051,0.448-0.098
						c0.065-0.024,0.126-0.045,0.184-0.058c0.302,1.151,0.44,1.274,0.671,1.274c0.048,0,0.108-0.014,0.15-0.039
						c0.228-0.129,0.336-0.486,0.443-1.094c0.055,0.012,0.113,0.028,0.17,0.047c0.143,0.041,0.291,0.084,0.439,0.084
						c0.286,0,0.425-0.166,0.481-0.266c0.041-0.074,0.046-0.163,0.014-0.242c-0.029-0.081-0.098-0.14-0.177-0.162
						c-0.352-0.103-0.57-0.374-0.823-0.688c-0.045-0.054-0.086-0.106-0.131-0.16c0.116-0.219,0.235-0.547,0.159-0.779
						c-0.047-0.147-0.162-0.25-0.316-0.282c-0.017-0.003-0.035-0.006-0.053-0.006c-0.102,0-0.195,0.058-0.246,0.152
						c-0.102,0.196-0.169,0.271-0.195,0.297c-0.034-0.028-0.118-0.106-0.179-0.169c-0.119-0.118-0.267-0.262-0.456-0.377
						C161.679,79.747,161.63,79.733,161.582,79.733L161.582,79.733z"/>
				</g>
				<g>
					<g>
						<path fill="#0A9995" d="M196.935,83.409c-0.029,0-0.062-0.009-0.085-0.029c-0.033-0.026-0.054-0.065-0.054-0.106v-1.098
							c-0.009-0.002-0.022-0.002-0.035-0.002c-0.14,0-0.279,0.037-0.42,0.076c-0.158,0.043-0.317,0.083-0.498,0.083
							c-0.047,0-0.095-0.002-0.143-0.009c-0.049-0.008-0.094-0.041-0.111-0.088c-0.018-0.049-0.009-0.104,0.027-0.142
							c0.077-0.084,0.146-0.176,0.215-0.267c0.213-0.27,0.428-0.552,0.806-0.688c-0.082-0.32-0.158-0.638-0.236-0.958
							c-0.014-0.053,0.005-0.108,0.046-0.142c0.028-0.02,0.055-0.028,0.086-0.028c0.022,0,0.043,0.007,0.062,0.016
							c0.199,0.102,0.335,0.214,0.443,0.307c0.084,0.067,0.158,0.13,0.199,0.13c0.069,0,0.205-0.136,0.403-0.4
							c0.026-0.035,0.065-0.055,0.111-0.055c0.017,0,0.038,0.006,0.057,0.012c0.102,0.047,0.172,0.129,0.199,0.239
							c0.075,0.277-0.126,0.668-0.23,0.835c0.197,0.279,0.438,0.515,0.724,0.7c0.056,0.037,0.078,0.106,0.053,0.171
							c-0.078,0.188-0.215,0.228-0.315,0.228c-0.103,0-0.205-0.04-0.308-0.077c-0.085-0.032-0.176-0.067-0.249-0.067
							c-0.033,0-0.096,0-0.157,0.123c-0.043,0.085-0.06,0.229-0.076,0.382c-0.038,0.338-0.084,0.754-0.484,0.85
							C196.959,83.408,196.947,83.409,196.935,83.409z"/>
					</g>
					<path fill="#0A9995" d="M197.749,80.146c0.328,0.149-0.021,0.787-0.136,0.952c0.214,0.329,0.483,0.6,0.812,0.815
						c-0.047,0.104-0.109,0.141-0.188,0.141c-0.158,0-0.368-0.144-0.554-0.144c-0.107,0-0.206,0.047-0.28,0.2
						c-0.158,0.318-0.009,1.049-0.468,1.161c0-0.408,0-0.816,0-1.223c-0.062-0.011-0.119-0.016-0.177-0.016
						c-0.322,0-0.595,0.16-0.92,0.16c-0.04,0-0.084-0.003-0.124-0.009c0.329-0.365,0.539-0.819,1.083-0.952
						c-0.089-0.361-0.177-0.724-0.27-1.086c0.388,0.199,0.526,0.453,0.705,0.453C197.356,80.602,197.498,80.483,197.749,80.146
						 M197.749,79.87c-0.084,0-0.169,0.039-0.223,0.111c-0.164,0.223-0.251,0.304-0.289,0.331c-0.031-0.021-0.077-0.06-0.111-0.089
						c-0.106-0.091-0.254-0.214-0.467-0.324c-0.04-0.02-0.084-0.029-0.127-0.029c-0.061,0-0.123,0.021-0.171,0.061
						c-0.086,0.065-0.123,0.179-0.101,0.284c0.068,0.28,0.14,0.563,0.212,0.844c-0.346,0.158-0.559,0.437-0.752,0.687
						c-0.066,0.084-0.136,0.175-0.21,0.254c-0.069,0.077-0.089,0.187-0.054,0.283c0.035,0.099,0.121,0.164,0.224,0.179
						c0.055,0.009,0.108,0.01,0.16,0.01c0.199,0,0.378-0.047,0.535-0.09c0.098-0.026,0.191-0.05,0.283-0.064v0.955
						c0,0.085,0.039,0.163,0.103,0.217c0.049,0.039,0.11,0.061,0.174,0.061c0.023,0,0.044-0.004,0.065-0.009
						c0.494-0.119,0.551-0.631,0.589-0.973c0.016-0.124,0.031-0.27,0.063-0.338c0.019-0.037,0.03-0.046,0.03-0.046
						c0.047,0.003,0.129,0.032,0.2,0.062c0.112,0.043,0.228,0.086,0.354,0.086c0.199,0,0.362-0.117,0.444-0.315
						c0.048-0.121,0.006-0.266-0.105-0.336c-0.245-0.161-0.457-0.361-0.632-0.593c0.114-0.214,0.276-0.576,0.197-0.865
						c-0.043-0.149-0.14-0.267-0.279-0.331C197.826,79.877,197.787,79.87,197.749,79.87L197.749,79.87z"/>
				</g>
			</g>
			<g>
				<g>
					<path fill="#0A9995" d="M156.372,86.438c-13.087,0-13.087-0.103-13.087-0.312c0-0.12,0-0.12,1.759-0.423
						c1.526-0.261,3.834-0.653,4.146-0.735c2.2-0.585,4.058-1.312,5.677-2.223c1.158-0.651,2.781-1.695,3.514-3.229
						c0.419-0.882,0.419-1.854,0-2.742c-0.068-0.146-0.523-0.729-0.889-1.196c-0.824-1.051-0.822-1.052-0.734-1.166
						c0.027-0.035,0.076-0.069,0.154-0.069c0.192,0,0.616,0.236,1.242,0.595c0.278,0.157,0.565,0.324,0.66,0.354
						c0.354,0.111,0.732,0.167,1.112,0.167c0.403,0,0.814-0.065,1.225-0.184c1.343-0.401,2.524-1.258,3.666-2.086
						c0.383-0.277,0.763-0.553,1.144-0.81c0.635-0.427,1.479-0.964,2.409-1.341c0.894-0.362,0.731-1.278,0.559-2.25l-0.01-0.053
						c-0.027-0.17-0.264-0.842-0.512-1.555c-1.008-2.887-1.059-3.225-0.825-3.311c0.013-0.005,0.042-0.01,0.059-0.01
						c0.25,0,0.728,0.695,2.763,4.633c0.198,0.385,0.345,0.667,0.402,0.769c0.097,0.172,0.167,0.321,0.226,0.445
						c0.151,0.323,0.195,0.4,0.389,0.4c0.106,0,0.26-0.027,0.479-0.085c0.649-0.177,1.333-0.329,2.097-0.475
						c1.048-0.196,2.175-0.361,3.553-0.516c0.216-0.024,0.404-0.027,0.571-0.027c0.52-0.003,0.679-0.003,0.746-0.654
						s0.123-1.336,0.174-2.098c0.089-1.448,0.139-2.929,0.189-4.358c0,0,0.008-0.317,0.01-0.539c0.104-5.597,0.35-6.053,0.634-6.053
						c0.224,0.01,0.381,0.018,0.511,6.744c0.01,0.49,0.017,0.849,0.022,0.991c0.055,1.324,0.115,2.65,0.179,3.971
						c0.01,0.226,0.014,0.426,0.019,0.604c0.017,0.972,0.02,1.174,1.214,1.349c0.417,0.062,0.836,0.121,1.252,0.179
						c0.994,0.14,2.021,0.283,3.022,0.465c0.305,0.056,0.567,0.121,0.806,0.179c0.337,0.085,0.604,0.151,0.839,0.151
						c0.355,0,0.688-0.146,1.147-0.859c0.108-0.17,0.412-0.78,0.762-1.487c1.484-2.999,1.913-3.729,2.177-3.729
						c0.014,0,0.037,0.003,0.047,0.007c0.274,0.091,0.215,0.52-0.742,3.562c-0.266,0.843-0.515,1.64-0.543,1.865
						c-0.124,1.107,0.053,1.184,0.648,1.435c0.217,0.091,0.485,0.204,0.8,0.39c0.782,0.464,1.485,1.04,2.26,1.69
						c0.244,0.205,0.509,0.455,0.791,0.716c1.093,1.018,2.454,2.286,3.773,2.286c0.279,0,1.313-0.567,2.146-1.022
						c1.107-0.604,1.8-0.973,2.082-0.973c0.139,0,0.188,0.081,0.204,0.116c0.037,0.089,0.037,0.089-0.376,0.545
						c-0.503,0.554-1.684,1.851-1.803,2.143c-0.295,0.713-0.286,1.519,0.023,2.264c0.619,1.468,2.071,2.522,3.106,3.189
						c3.3,2.117,5.747,3.417,11.944,3.643c0.084,0.005,0.251,0.009,0.251,0.16c-0.003,0.316-2.589,0.467-2.616,0.468
						c-1.278,0.028-2.561,0.049-3.848,0.064c-1.75,0.021-3.499,0.028-5.25,0.028c-1.08,0-2.161-0.003-3.242-0.008l-3.236-0.015
						c-2.197-0.01-4.394-0.021-6.59-0.021c-1.534,0-3.068,0.005-4.601,0.019h-0.002c-0.028,0-0.062-0.01-0.084-0.027
						c-0.244-0.194-0.33-0.639-0.418-1.07c-0.046-0.247-0.095-0.48-0.16-0.631c-0.958-2.052-3.343-3.277-6.389-3.277
						c-1.544,0-3.112,0.339-4.305,0.93c-0.975,0.483-1.744,1.147-2.23,1.924c-0.065,0.102-0.224,0.57-0.365,0.984
						c-0.382,1.126-0.415,1.168-0.551,1.168h-1.104c-0.388,0-1.308,0.004-2.59,0.009C165.907,86.42,161.054,86.438,156.372,86.438z
						 M190.153,84.244c1.195,0.092,2.511,0.135,4.116,0.135c0.884,0,1.767-0.01,2.651-0.026c0.784-0.01,1.57-0.021,2.353-0.023
						c0.007,0,0.451,0,0.452,0c0.801,0,3.468,0.002,4.668,0.01c-1.666-1.029-4.228-3.302-5.15-4.619
						c-0.425-0.612-0.923-1.162-1.48-1.64c-0.405,0.376-0.872,0.734-1.458,1.118c-0.523,0.343-1.089,0.666-1.638,0.979
						C192.856,81.211,190.99,82.278,190.153,84.244z M169.455,84.348c-0.993-2.539-4.674-4.521-6.67-5.598
						c-0.519-0.279-0.918-0.494-1.153-0.653c-0.349,0.462-0.733,1.032-1.135,1.637c-1.163,1.735-2.566,3.836-4.097,4.614H169.455z
						 M171.848,83.035c-0.175,0-0.471,0.217-0.597,0.437c-0.047,0.081-0.065,0.148-0.044,0.181c0.02,0.036,0.102,0.072,0.271,0.072
						c0.116,0,0.259-0.018,0.426-0.05c0.112-0.437,0.047-0.574,0.02-0.604C171.915,83.053,171.895,83.035,171.848,83.035z
						 M187.939,82.754c-0.118,0-0.24,0.074-0.348,0.214c-0.131,0.168-0.178,0.308-0.139,0.392c0.041,0.084,0.188,0.14,0.359,0.14
						c0.223,0,0.421-0.088,0.449-0.205c0.037-0.151,0.01-0.304-0.076-0.413C188.121,82.802,188.032,82.754,187.939,82.754z
						 M167.114,78.923c1.144,0.573,2.108,1.047,3.099,1.497c0.206,0.092,0.408,0.197,0.604,0.298
						c0.471,0.243,0.913,0.475,1.286,0.475c0.234,0,0.586-0.081,0.904-0.771c0.809-1.744-0.296-3.808-1.181-5.466l-0.232-0.438
						c-0.125-0.241-0.227-0.501-0.324-0.751c-0.234-0.61-0.437-1.137-0.905-1.137c-0.102,0-0.214,0.024-0.341,0.067
						c-1.188,0.429-2.222,0.875-3.158,1.36c-1.602,0.836-2.87,1.775-3.874,2.865c1.213,0.544,2.417,1.145,3.581,1.729
						L167.114,78.923z M189.01,72.491c-0.198,0.711-0.648,1.553-1.125,2.437c-1.133,2.114-2.415,4.513-0.818,6.062
						c0.121,0.116,0.289,0.171,0.521,0.171c0.921,0,2.47-0.909,3.495-1.513c0.332-0.195,0.617-0.362,0.825-0.469
						c1.59-0.807,3.079-1.563,4.697-2.26C194.832,74.961,192.344,73.511,189.01,72.491z M184.657,79.98
						c-0.027,0-0.109,0-0.157,0.152c-0.096,0.325-0.099,0.579-0.01,0.7c0.046,0.059,0.117,0.087,0.224,0.087
						c0.064,0,0.146-0.011,0.233-0.036c0.183-0.276,0.115-0.513,0.057-0.629C184.917,80.076,184.76,79.98,184.657,79.98z
						 M175.089,79.874c-0.048,0-0.118,0.007-0.156,0.045c-0.026,0.025-0.036,0.063-0.036,0.11c0,0.238,0.285,0.619,0.623,0.619v0.14
						l0.007-0.14c0.022-0.018,0.047-0.161-0.028-0.372C175.432,80.09,175.285,79.874,175.089,79.874z M179.643,79.874
						c0.344,0,0.574-0.086,0.685-0.257c0.281-0.435-0.152-1.405-0.439-2.053c-0.016-0.03-0.028-0.065-0.043-0.095
						c-0.06,0.158-0.132,0.322-0.207,0.49c-0.292,0.66-0.594,1.342-0.15,1.833c0.037,0.03,0.064,0.058,0.092,0.081
						C179.602,79.874,179.623,79.874,179.643,79.874z M180.89,74.007c0.018,2.009,0.214,4.4,2.103,5.05c0.001,0,0.002,0,0.003,0
						c0.523,0,1.386-1.785,1.852-2.745c0.189-0.388,0.351-0.727,0.469-0.923c0.64-1.075,1.361-2.288,1.888-3.573
						c-0.506-0.089-1.01-0.188-1.514-0.288c-1.523-0.299-3.099-0.608-4.684-0.608c-0.055,0-0.111,0-0.167,0.002
						c0.026,0.501,0.033,1,0.043,1.5l0.005,0.271C180.899,73.632,180.902,73.911,180.89,74.007z M172.534,71.888
						c-0.104,0.564,0.95,2.281,1.526,3.222c0.188,0.307,0.35,0.572,0.455,0.766c0.117,0.205,0.245,0.477,0.38,0.765
						c0.462,0.984,1.093,2.335,1.843,2.335c0.151,0,0.308-0.058,0.47-0.172c1.558-1.104,1.581-3.733,1.6-5.849
						c0.006-0.699,0.012-1.365,0.068-1.923c-0.289-0.026-0.586-0.037-0.888-0.037c-1.873,0-3.797,0.481-5.345,0.866L172.534,71.888z
						"/>
				</g>
				<path fill="#0A9995" d="M179.873,55.432c0.305,0.013,0.363,6.851,0.396,7.602c0.055,1.325,0.113,2.648,0.177,3.972
					c0.074,1.474-0.195,1.854,1.349,2.085c1.424,0.21,2.855,0.384,4.269,0.642c0.739,0.137,1.243,0.333,1.67,0.333
					c0.44,0,0.803-0.213,1.263-0.921c0.351-0.545,2.462-5.156,2.822-5.155c0.004,0,0.008,0,0.009,0.001
					c0.33,0.11-1.31,4.632-1.385,5.276c-0.187,1.635,0.325,1.256,1.516,1.963c0.802,0.474,1.526,1.078,2.24,1.676
					c1.2,1.017,2.932,3.034,4.654,3.034c0.61,0,3.68-1.996,4.227-1.996c0.041,0,0.067,0.011,0.078,0.033
					c0.01,0.022-2.004,2.148-2.18,2.576c-0.319,0.769-0.295,1.607,0.023,2.371c0.592,1.411,1.909,2.452,3.159,3.254
					c3.487,2.239,6.005,3.449,12.013,3.665c0.675,0.029-1.768,0.336-2.363,0.351c-1.28,0.028-2.562,0.049-3.847,0.065
					c-1.749,0.02-3.499,0.027-5.248,0.027c-1.082,0-2.161-0.002-3.242-0.008c-3.278-0.012-6.555-0.035-9.83-0.035
					c-1.534,0-3.069,0.006-4.601,0.019c-0.332-0.263-0.344-1.224-0.539-1.648c-1.106-2.373-3.83-3.357-6.512-3.357
					c-1.583,0-3.153,0.344-4.365,0.943c-0.911,0.452-1.741,1.104-2.286,1.975c-0.158,0.25-0.697,2.088-0.801,2.088
					c-0.363,0-0.734,0-1.103,0c-1.275,0-8.35,0.034-15.071,0.034c-6.647,0-12.949-0.032-12.949-0.173
					c0-0.018,5.296-0.893,5.803-1.028c1.975-0.526,3.925-1.235,5.708-2.239c1.386-0.779,2.864-1.812,3.569-3.289
					c0.441-0.922,0.438-1.94,0-2.861c-0.146-0.316-1.685-2.157-1.639-2.221c0.009-0.009,0.025-0.016,0.046-0.016
					c0.283,0,1.589,0.858,1.861,0.942c0.378,0.12,0.766,0.175,1.155,0.175c0.422,0,0.848-0.065,1.264-0.189
					c1.812-0.542,3.301-1.876,4.846-2.912c0.753-0.509,1.536-0.983,2.381-1.326c1.017-0.412,0.816-1.441,0.636-2.458
					c-0.084-0.504-1.683-4.616-1.426-4.713c0.005-0.001,0.009-0.002,0.01-0.002c0.36,0,2.765,4.832,3.046,5.332
					c0.345,0.603,0.333,0.915,0.735,0.915c0.122,0,0.288-0.028,0.513-0.09c0.688-0.186,1.387-0.341,2.09-0.474
					c1.171-0.219,2.354-0.381,3.544-0.513c0.896-0.102,1.331,0.206,1.438-0.805c0.073-0.7,0.129-1.404,0.175-2.104
					c0.093-1.482,0.14-2.965,0.192-4.449C179.389,61.227,179.433,55.432,179.873,55.432 M180.747,72.694
					c-0.002-0.05-0.002-0.073-0.002-0.073s0,0.107,0.007,0.263c0.009,2.062-0.17,5.494,2.198,6.305
					c0.027,0.01,0.058,0.015,0.086,0.015c0.755,0,1.943-2.978,2.397-3.746c0.723-1.214,1.443-2.435,1.963-3.753
					c-2.13-0.364-4.219-0.927-6.39-0.927c-0.102,0-0.209,0.002-0.311,0.005C180.728,71.419,180.735,72.056,180.747,72.694
					 M172.612,71.726c0.227-0.056,0.574-0.143,0.574-0.143s-0.15,0.037-0.586,0.146c-0.059,0.014-0.118,0.027-0.177,0.045l0,0l0,0
					l0,0l0,0l0,0c-0.296,0.699,1.466,3.259,1.974,4.17c0.515,0.92,1.27,3.171,2.341,3.171c0.175,0,0.357-0.062,0.548-0.195
					c2.176-1.54,1.463-5.761,1.744-8.011c-0.349-0.033-0.695-0.049-1.043-0.049C176.173,70.855,174.368,71.286,172.612,71.726
					 M187.59,81.302c1.255,0,3.507-1.554,4.383-1.997c1.603-0.814,3.176-1.616,4.863-2.335c-2.067-2.357-4.966-3.767-7.925-4.655
					c-0.559,2.364-4.346,6.439-1.938,8.775C187.125,81.237,187.337,81.302,187.59,81.302 M166.622,78.833
					c-0.223-0.112-0.308-0.154-0.308-0.154c-0.002,0,0.905,0.455,0.906,0.455c0,0-0.046-0.024-0.169-0.084
					c1.026,0.513,2.057,1.022,3.104,1.497c0.719,0.325,1.379,0.784,1.947,0.784c0.393,0,0.738-0.217,1.032-0.85
					c0.911-1.97-0.523-4.325-1.417-6.025c-0.442-0.845-0.572-1.963-1.352-1.963c-0.114,0-0.242,0.024-0.385,0.077
					c-1.084,0.39-2.149,0.835-3.176,1.367c-1.5,0.783-2.913,1.767-4.044,3.039C164.069,77.552,165.344,78.192,166.622,78.833
					 M179.392,79.893c-0.074-0.062-0.158-0.125-0.16-0.125c-0.003,0,0.064,0.062,0.281,0.242c0.047,0.002,0.089,0.006,0.13,0.006
					c1.73,0,0.54-2.037,0.181-2.948C179.64,77.927,178.659,79.095,179.392,79.893 M194.269,84.518c1.768,0,3.536-0.049,5.299-0.049
					c0.556,0,4.801,0.003,5.356,0.015c-1.584-0.821-4.562-3.408-5.569-4.845c-0.45-0.65-0.989-1.237-1.599-1.743
					c-0.468,0.448-0.989,0.832-1.528,1.186c-2.279,1.488-5.219,2.538-6.276,5.287C191.39,84.483,192.829,84.518,194.269,84.518
					 M155.579,84.487c3.768,0,10.306,0,14.073,0c-1.16-3.448-7.17-5.874-8.049-6.582C160.063,79.886,157.927,84.073,155.579,84.487
					 M175.519,80.786c-0.008,0-0.157,0-0.157,0S175.399,80.786,175.519,80.786C175.52,80.786,175.52,80.786,175.519,80.786
					C175.52,80.786,175.52,80.786,175.519,80.786c0.359,0,0.106-1.05-0.431-1.05C174.418,79.733,174.87,80.786,175.519,80.786
					 M184.715,81.061c0.09,0,0.195-0.019,0.32-0.056c0.027-0.038,0.038-0.048,0.038-0.048s-0.036,0.047-0.038,0.048
					c0.428-0.576-0.027-1.163-0.378-1.163c-0.125,0-0.234,0.075-0.288,0.251C184.217,80.614,184.26,81.061,184.715,81.061
					 M187.813,83.641c0.261,0,0.532-0.109,0.585-0.311c0,0.003,0,0.003,0,0.003l0.021-0.083c0,0-0.005,0.02-0.02,0.077
					c0.092-0.374-0.15-0.713-0.457-0.713c-0.149,0-0.312,0.08-0.456,0.269C187.073,83.405,187.43,83.641,187.813,83.641
					 M171.482,83.864c0.14,0,0.314-0.022,0.537-0.07c-0.002,0-0.045,0.01-0.045,0.01l0,0l0,0c0,0,0.01-0.003,0.045-0.01
					c0.19-0.671,0.052-0.897-0.171-0.897C171.386,82.896,170.553,83.864,171.482,83.864 M172.612,71.726
					c-0.091,0.021-0.162,0.041-0.183,0.046c0.065-0.013,0.121-0.028,0.172-0.042C172.606,71.728,172.609,71.727,172.612,71.726
					 M172.429,71.771L172.429,71.771L172.429,71.771 M172.429,71.771c-0.001,0-0.001,0-0.002,0.001
					C172.428,71.771,172.428,71.771,172.429,71.771 M172.427,71.771L172.427,71.771L172.427,71.771 M172.427,71.771L172.427,71.771
					L172.427,71.771 M172.427,71.771L172.427,71.771L172.427,71.771 M172.427,71.771L172.427,71.771L172.427,71.771 M172.427,71.771
					C172.427,71.771,172.427,71.771,172.427,71.771L172.427,71.771 M172.426,71.771L172.426,71.771L172.426,71.771 M172.426,71.771
					C172.425,71.771,172.425,71.771,172.426,71.771L172.426,71.771L172.426,71.771L172.426,71.771L172.426,71.771L172.426,71.771
					C172.425,71.771,172.425,71.771,172.426,71.771 M180.747,72.694c0.014,0.956,0.019,1.277,0.019,1.277
					c-0.001,0-0.01-0.696-0.014-1.088C180.748,72.818,180.748,72.756,180.747,72.694 M166.622,78.833
					c0.196,0.098,0.335,0.168,0.43,0.216C166.909,78.976,166.765,78.903,166.622,78.833 M179.392,79.893
					c0.067,0.059,0.135,0.117,0.121,0.117l0,0C179.469,79.973,179.428,79.932,179.392,79.893 M185.035,81.005L185.035,81.005
					 M188.397,83.328c0,0.001-0.001,0.002-0.001,0.002S188.396,83.329,188.397,83.328 M172.019,83.793L172.019,83.793
					L172.019,83.793 M199.721,84.469c0,0-0.066,0-0.153,0C199.679,84.469,199.721,84.469,199.721,84.469 M199.568,84.469
					c-0.209,0-0.282,0-0.282,0S199.442,84.469,199.568,84.469 M179.873,55.153c-0.363,0-0.655,0-0.771,6.19
					c-0.004,0.221-0.007,0.378-0.01,0.452l-0.003,0.085c-0.046,1.429-0.1,2.907-0.188,4.354c-0.047,0.758-0.104,1.443-0.173,2.091
					c-0.055,0.529-0.097,0.529-0.608,0.531c-0.169,0.002-0.36,0.002-0.585,0.027c-1.386,0.158-2.517,0.32-3.562,0.518
					c-0.768,0.145-1.458,0.301-2.11,0.479c-0.203,0.055-0.349,0.081-0.441,0.081c-0.104,0-0.113,0-0.264-0.319
					c-0.058-0.123-0.13-0.277-0.232-0.457c-0.055-0.097-0.206-0.39-0.399-0.761c-2.32-4.49-2.598-4.708-2.887-4.708l0,0
					c-0.03,0-0.072,0.008-0.103,0.018c-0.368,0.138-0.349,0.385,0.735,3.488c0.233,0.678,0.478,1.376,0.507,1.535l0.01,0.053
					c0.195,1.104,0.276,1.795-0.475,2.099c-0.939,0.381-1.795,0.921-2.432,1.353c-0.386,0.255-0.771,0.538-1.147,0.809
					c-1.132,0.823-2.304,1.673-3.623,2.066c-0.399,0.12-0.796,0.179-1.185,0.179c-0.369,0-0.729-0.055-1.071-0.16
					c-0.08-0.025-0.385-0.201-0.632-0.343c-0.726-0.418-1.091-0.613-1.311-0.613l0,0c-0.14,0-0.219,0.067-0.255,0.11
					c-0.165,0.215-0.165,0.215,0.726,1.351c0.325,0.413,0.812,1.036,0.872,1.167c0.402,0.849,0.402,1.78,0.001,2.624
					c-0.716,1.497-2.315,2.524-3.455,3.167c-1.609,0.905-3.455,1.628-5.646,2.213c-0.309,0.083-2.613,0.474-4.135,0.734
					c-0.465,0.079-0.878,0.149-1.17,0.201c-0.64,0.108-0.703,0.121-0.703,0.358c0,0.357,0,0.37,4.255,0.419
					c2.13,0.023,5.15,0.034,8.97,0.034c4.683,0,9.565-0.018,12.482-0.028c1.281-0.006,2.202-0.009,2.589-0.009h1.103
					c0.253,0,0.304-0.143,0.684-1.264c0.124-0.362,0.294-0.861,0.351-0.954c0.472-0.753,1.225-1.402,2.176-1.874
					c1.173-0.581,2.719-0.914,4.242-0.914c2.988,0,5.329,1.194,6.262,3.197c0.061,0.132,0.105,0.367,0.152,0.599
					c0.089,0.456,0.182,0.924,0.466,1.15c0.046,0.038,0.109,0.06,0.171,0.06c0.002,0,0.002,0,0.003,0
					c1.359-0.013,2.821-0.018,4.6-0.018c2.194,0,4.429,0.009,6.588,0.02c1.08,0.006,2.158,0.01,3.238,0.014
					c1.081,0.005,2.161,0.008,3.242,0.008c1.927,0,3.645-0.009,5.252-0.027c1.293-0.014,2.588-0.035,3.852-0.065
					c0.299-0.009,0.97-0.079,1.463-0.142c1.122-0.142,1.283-0.181,1.285-0.461c0.002-0.128-0.063-0.289-0.381-0.303
					c-6.165-0.224-8.601-1.517-11.877-3.621c-1.022-0.653-2.452-1.691-3.054-3.126c-0.296-0.713-0.304-1.479-0.021-2.157
					c0.11-0.271,1.321-1.599,1.775-2.102c0.475-0.519,0.475-0.519,0.403-0.688c-0.061-0.134-0.183-0.204-0.333-0.204
					c-0.306,0-0.889,0.301-2.148,0.99c-0.733,0.399-1.836,1.004-2.077,1.004c-1.267,0-2.605-1.245-3.681-2.247
					c-0.281-0.263-0.548-0.511-0.795-0.719c-0.777-0.655-1.487-1.236-2.276-1.704c-0.324-0.192-0.599-0.308-0.817-0.4
					c-0.575-0.24-0.678-0.286-0.564-1.292c0.025-0.211,0.286-1.038,0.538-1.837c0.988-3.143,1.068-3.598,0.658-3.734
					c-0.027-0.01-0.067-0.015-0.098-0.015c-0.315,0-0.564,0.295-2.301,3.807c-0.349,0.703-0.649,1.312-0.753,1.474
					c-0.43,0.661-0.714,0.795-1.032,0.795c-0.219,0-0.479-0.065-0.806-0.146c-0.236-0.059-0.504-0.125-0.815-0.181
					c-1.006-0.182-2.033-0.326-3.027-0.466c-0.417-0.06-0.835-0.117-1.251-0.177c-1.077-0.16-1.08-0.259-1.096-1.217
					c-0.003-0.179-0.006-0.381-0.019-0.609c-0.063-1.321-0.121-2.646-0.177-3.969c-0.008-0.142-0.012-0.5-0.023-0.989
					c-0.132-6.855-0.269-6.863-0.635-6.879C179.883,55.153,179.878,55.153,179.873,55.153L179.873,55.153z M180.985,71.057
					c0.01,0,0.016,0,0.021,0c1.572,0,3.141,0.308,4.659,0.605c0.438,0.086,0.893,0.176,1.345,0.257
					c-0.517,1.219-1.201,2.37-1.812,3.395c-0.122,0.204-0.287,0.543-0.476,0.936c-0.353,0.731-1.292,2.674-1.684,2.674
					c-1.812-0.619-1.99-2.975-2.009-4.946c0.011-0.167,0.009-0.512-0.006-1.285c0-0.001,0-0.002,0-0.005l-0.004-0.27
					C181.011,71.973,181.004,71.513,180.985,71.057L180.985,71.057z M172.677,71.996C172.677,71.995,172.678,71.995,172.677,71.996
					c1.891-0.475,3.595-0.865,5.312-0.865c0.248,0,0.496,0.01,0.736,0.028c-0.046,0.532-0.05,1.149-0.057,1.795
					c-0.018,2.081-0.043,4.674-1.539,5.734c-0.14,0.1-0.267,0.146-0.392,0.146c-0.661,0-1.296-1.357-1.716-2.256
					c-0.139-0.289-0.268-0.564-0.382-0.773c-0.109-0.196-0.273-0.462-0.463-0.771c-0.463-0.756-1.504-2.452-1.516-3.036l0.01-0.004
					c0,0,0.001,0,0.002,0h0.005L172.677,71.996L172.677,71.996z M187.59,81.022c-0.194,0-0.332-0.043-0.424-0.132
					c-1.521-1.477-0.266-3.825,0.846-5.898c0.448-0.836,0.875-1.633,1.093-2.327c3.162,0.984,5.545,2.362,7.266,4.204
					c-1.554,0.676-2.988,1.407-4.508,2.18c-0.23,0.116-0.517,0.285-0.85,0.479C190.002,80.124,188.473,81.022,187.59,81.022
					L187.59,81.022z M163.227,76.878c0.974-1.021,2.187-1.904,3.707-2.694c0.932-0.484,1.959-0.926,3.141-1.354
					c0.107-0.039,0.208-0.059,0.291-0.059c0.355,0,0.529,0.397,0.776,1.047c0.099,0.256,0.2,0.518,0.33,0.768
					c0.074,0.14,0.152,0.288,0.232,0.437c0.871,1.632,1.956,3.661,1.18,5.343c-0.285,0.611-0.567,0.69-0.781,0.69
					c-0.342,0-0.771-0.223-1.222-0.456c-0.197-0.103-0.4-0.208-0.611-0.304c-0.99-0.447-1.952-0.921-3.091-1.493
					c-0.001,0-0.001,0-0.002-0.001l-0.429-0.215h-0.002l-0.108-0.054C165.528,77.975,164.384,77.4,163.227,76.878L163.227,76.878z
					 M179.585,79.693c-0.349-0.397-0.154-0.922,0.18-1.681c0.027-0.065,0.058-0.127,0.084-0.192
					c0.253,0.582,0.574,1.387,0.362,1.721c-0.084,0.127-0.274,0.194-0.569,0.194c-0.003,0-0.006,0-0.01,0
					C179.619,79.721,179.602,79.707,179.585,79.693L179.585,79.693z M190.361,84.12c0.854-1.813,2.642-2.834,4.373-3.822
					c0.55-0.314,1.121-0.641,1.646-0.983c0.548-0.359,0.994-0.697,1.384-1.048c0.512,0.45,0.971,0.964,1.367,1.531
					c0.861,1.229,3.126,3.276,4.789,4.399c-1.322-0.006-3.487-0.007-4.193-0.007c-0.003,0-0.003,0-0.008,0h-0.152h-0.283
					c-0.005,0-0.01,0-0.016,0c-0.786,0.002-1.581,0.011-2.352,0.023c-0.868,0.01-1.767,0.025-2.65,0.025
					C192.755,84.239,191.5,84.2,190.361,84.12L190.361,84.12z M156.905,84.208c1.386-0.935,2.646-2.815,3.705-4.397
					c0.372-0.558,0.727-1.088,1.051-1.526c0.249,0.154,0.605,0.347,1.055,0.589c1.932,1.039,5.447,2.937,6.528,5.336L156.905,84.208
					L156.905,84.208z M175.039,80.015c0.009,0,0.025-0.003,0.05-0.003c0.084,0,0.153,0.083,0.188,0.135
					c0.082,0.111,0.121,0.249,0.13,0.343c-0.119-0.04-0.217-0.136-0.282-0.226c-0.082-0.119-0.095-0.217-0.089-0.249
					C175.036,80.015,175.037,80.015,175.039,80.015L175.039,80.015z M184.715,80.782c-0.058,0-0.096-0.011-0.111-0.032
					c-0.037-0.049-0.071-0.227,0.029-0.576c0.012-0.044,0.027-0.056,0.027-0.056c0.039,0.001,0.152,0.064,0.222,0.2
					c0.052,0.103,0.084,0.259-0.021,0.444C184.806,80.776,184.757,80.782,184.715,80.782L184.715,80.782z M187.813,83.364
					c-0.14,0-0.224-0.047-0.232-0.065c-0.007-0.014,0.004-0.096,0.12-0.244c0.085-0.104,0.167-0.162,0.24-0.162
					c0.067,0,0.115,0.048,0.137,0.076c0.062,0.076,0.081,0.185,0.053,0.292l0,0c0,0,0,0.001-0.001,0.002
					C188.115,83.293,187.993,83.364,187.813,83.364L187.813,83.364z M171.351,83.575c0.057-0.139,0.317-0.374,0.475-0.398
					c0.009,0.045,0.019,0.153-0.03,0.378c-0.121,0.021-0.226,0.031-0.312,0.031C171.42,83.586,171.378,83.58,171.351,83.575
					L171.351,83.575z"/>
			</g>
		</g>
		<g>
			<g>
				<g>
					<g>
						<path fill="#0A9995" d="M148.304,82.854c-3.639,0-7.312-1.326-10.339-3.73c-8.918-7.096-12.658-19.13-15.359-31.104
							c-1.906,0.668-3.909,1.072-5.846,1.463c-1.826,0.369-3.712,0.75-5.509,1.351c-1.174,0.393-6.996,2.534-6.277,6.073
							c0.309,1.545,1.915,2.354,3.339,2.353c0.464,0,0.918-0.084,1.312-0.243c0.795-0.321,1.178-0.897,1.046-1.581
							c-0.122-0.632-0.721-1.284-1.514-1.284c-0.386,0-0.774,0.165-1.124,0.477c-0.027,0.024-0.06,0.036-0.093,0.036
							c-0.024,0-0.046-0.006-0.069-0.019c-0.049-0.029-0.078-0.089-0.064-0.149c0.216-1.059,1.081-1.719,2.254-1.719
							c1.325,0,2.785,0.864,2.933,2.309c0.1,0.957-0.146,1.771-0.733,2.42c-0.828,0.921-2.358,1.47-4.099,1.47
							c-0.265,0-0.526-0.014-0.779-0.04c-2.513-0.265-5.36-1.77-5.12-5.143c0.181-2.468,2.218-4.618,6.058-6.387
							c2.215-1.021,4.625-1.648,6.961-2.253c1.573-0.409,3.203-0.831,4.749-1.37c4.293-1.497,8.685-3.402,13.049-5.664
							c0.623-0.324,1.301-0.649,2.017-0.994c2.627-1.264,5.603-2.697,7.329-4.683c0.726-0.834,0.939-1.702,0.604-2.44
							c-0.324-0.708-1.137-1.222-1.937-1.222c-0.79,0-1.319,0.483-1.453,1.326c-0.01,0.068-0.066,0.118-0.137,0.118
							c-0.004,0-0.008,0-0.01,0c-0.07-0.006-0.126-0.066-0.126-0.139c-0.001-0.833,0.214-1.554,0.62-2.084
							c0.41-0.536,0.994-0.831,1.647-0.831c0.511,0,1.046,0.173,1.591,0.514c2.08,1.303,2.762,3.998,1.546,6.136
							c-1.414,2.48-4.343,3.874-6.926,5.101c-0.659,0.313-1.28,0.61-1.865,0.915c-0.875,0.458-1.871,0.853-2.837,1.235
							c-1.808,0.716-3.676,1.457-5.009,2.684c-1.875,1.724-0.643,5.975,0.021,8.259l0.148,0.513
							c0.992,3.519,2.138,6.781,3.401,9.698c3.016,6.98,6.105,12.988,13.4,15.795c0.898,0.344,1.925,0.528,2.968,0.528
							c1.979,0,3.694-0.665,4.715-1.828c0.57-1.595-0.168-2.413-1.021-3.361c-0.412-0.458-0.839-0.934-1.144-1.526
							c-0.025-0.048-0.019-0.108,0.017-0.153c0.028-0.03,0.065-0.049,0.106-0.049c0.012,0,0.027,0.003,0.041,0.009
							c2.521,0.775,4.957,2.837,4.344,5.533c-0.569,2.493-3.054,3.262-4.483,3.498C149.883,82.79,149.094,82.854,148.304,82.854z"/>
					</g>
					<path fill="#0A9995" d="M141.631,29.309c0.462,0,0.977,0.153,1.519,0.492c2.025,1.269,2.678,3.875,1.499,5.949
						c-1.741,3.053-5.794,4.425-8.734,5.962c-2.482,1.299-5.797,2.026-7.874,3.939c-2.085,1.918-0.507,6.665,0.13,8.912
						c0.929,3.293,2.046,6.576,3.407,9.716c2.692,6.232,5.83,12.926,13.477,15.868c0.897,0.346,1.95,0.538,3.017,0.538
						c1.827,0,3.686-0.566,4.837-1.894c0.902-2.485-1.235-3.22-2.164-5.025c2.278,0.701,4.864,2.67,4.25,5.369
						c-0.476,2.089-2.416,3.07-4.369,3.391c-0.772,0.129-1.547,0.189-2.321,0.189c-3.708,0-7.367-1.407-10.253-3.703
						c-9.258-7.364-12.859-20.117-15.346-31.179c-3.729,1.338-7.743,1.608-11.496,2.864c-2.451,0.821-7.028,2.99-6.371,6.233
						c0.317,1.58,1.927,2.465,3.475,2.465c0.475,0,0.94-0.083,1.364-0.254c2.082-0.84,1.011-3.132-0.518-3.132
						c-0.391,0-0.811,0.149-1.218,0.512c0.228-1.118,1.14-1.608,2.118-1.608c1.272,0,2.656,0.829,2.796,2.183
						c0.28,2.728-2.411,3.737-4.692,3.737c-0.262,0-0.519-0.013-0.765-0.039c-2.729-0.286-5.215-1.936-4.996-4.993
						c0.228-3.093,3.459-5.11,5.979-6.271c3.695-1.704,7.857-2.279,11.693-3.618c4.488-1.563,8.85-3.486,13.069-5.672
						c2.928-1.518,7.17-3.161,9.386-5.708c1.852-2.133,0.08-3.893-1.438-3.893c-0.746,0-1.427,0.426-1.59,1.444
						C139.501,30.454,140.37,29.309,141.631,29.309 M141.631,29.03c-0.697,0-1.321,0.313-1.758,0.885
						c-0.426,0.556-0.65,1.306-0.648,2.169c0,0.146,0.111,0.265,0.255,0.277c0.007,0,0.015,0,0.021,0
						c0.136,0,0.254-0.099,0.274-0.234c0.12-0.768,0.601-1.209,1.313-1.209c0.75,0,1.512,0.48,1.812,1.141
						c0.217,0.486,0.298,1.278-0.586,2.292c-1.706,1.964-4.67,3.391-7.282,4.649c-0.717,0.346-1.395,0.671-2.021,0.995
						c-4.358,2.258-8.743,4.162-13.03,5.656c-1.54,0.537-3.168,0.959-4.738,1.368c-2.339,0.606-4.758,1.235-6.984,2.261
						c-3.89,1.792-5.953,3.979-6.137,6.502c-0.232,3.251,2.466,5,5.243,5.291c0.258,0.027,0.527,0.041,0.794,0.041
						c1.776,0,3.346-0.567,4.2-1.517c0.612-0.679,0.869-1.529,0.768-2.527c-0.156-1.522-1.685-2.433-3.072-2.433l0,0
						c-1.244,0-2.159,0.701-2.391,1.829c-0.023,0.118,0.03,0.237,0.136,0.297c0.044,0.025,0.089,0.037,0.139,0.037
						c0.066,0,0.133-0.023,0.185-0.07c0.328-0.293,0.675-0.442,1.031-0.442c0.72,0,1.267,0.596,1.377,1.172
						c0.12,0.612-0.232,1.131-0.96,1.425c-0.38,0.152-0.812,0.233-1.259,0.233c-1.367,0-2.907-0.771-3.203-2.241
						c-0.693-3.425,5.031-5.528,6.188-5.915c1.782-0.598,3.668-0.978,5.491-1.346c1.89-0.382,3.847-0.777,5.715-1.417
						c2.705,11.949,6.463,23.94,15.377,31.031c3.051,2.427,6.753,3.764,10.425,3.764c0.798,0,1.594-0.065,2.368-0.193
						c1.462-0.24,4.007-1.032,4.596-3.602c0.63-2.781-1.858-4.901-4.438-5.698c-0.027-0.01-0.055-0.012-0.083-0.012
						c-0.082,0-0.158,0.036-0.214,0.102c-0.071,0.085-0.084,0.206-0.032,0.308c0.313,0.607,0.745,1.088,1.163,1.553
						c0.853,0.948,1.527,1.7,1.002,3.198c-0.995,1.12-2.668,1.76-4.594,1.76c-1.029,0-2.037-0.179-2.916-0.52
						c-7.244-2.785-10.319-8.769-13.323-15.719c-1.261-2.911-2.404-6.167-3.395-9.681c-0.045-0.16-0.095-0.331-0.148-0.515
						c-0.653-2.254-1.871-6.451-0.062-8.118c1.312-1.208,3.171-1.944,4.968-2.657c0.966-0.383,1.966-0.779,2.848-1.24
						c0.583-0.304,1.203-0.6,1.859-0.912c2.602-1.237,5.551-2.64,6.986-5.158c1.251-2.203,0.549-4.979-1.594-6.322
						C142.728,29.21,142.169,29.03,141.631,29.03L141.631,29.03z"/>
				</g>
			</g>
			<g>
				<g>
					<path fill="#0A9995" d="M211.878,82.699c-1.096,0-2.164-0.128-3.176-0.385c-1.266-0.318-3.486-1.206-4.13-3.556
						c-0.307-1.118-0.063-2.29,0.688-3.3c0.884-1.185,2.312-1.938,3.729-1.968c0.002,0,0.003,0,0.003,0
						c0.062,0,0.115,0.042,0.132,0.1c0.019,0.06-0.005,0.124-0.058,0.158c-1.142,0.72-2.031,1.897-2.269,2.998
						c-0.159,0.744-0.034,1.432,0.372,2.047c0.858,1.299,2.468,1.571,3.668,1.571c1.037,0,2.214-0.207,3.229-0.568
						c4.812-1.722,9.117-6.371,12.788-13.815c1.993-4.045,2.635-7.329,2.079-10.65c-0.504-3.026-1.751-5.846-3.709-8.383
						c-1.663-2.157-3.705-4.038-5.681-5.858l-0.662-0.613c-0.325-0.301-0.677-0.609-1.033-0.923
						c-1.974-1.732-4.21-3.696-4.255-6.243c-0.017-0.986,0.379-1.942,1.112-2.692c0.754-0.768,1.767-1.228,2.713-1.228
						c1.461,0,2.365,1.057,2.412,2.827c0.003,0.075-0.055,0.138-0.13,0.142c-0.002,0-0.007,0-0.01,0
						c-0.07,0-0.131-0.054-0.137-0.125c-0.085-0.841-0.586-1.324-1.367-1.324c-1.035,0-2.234,0.854-2.287,1.994
						c-0.085,1.928,2.244,3.383,3.786,4.347l0.287,0.179c0.423,0.267,0.849,0.524,1.274,0.781c1.8,1.09,3.5,2.12,4.89,3.734
						c1.037,1.211,1.871,2.595,2.681,3.934c0.82,1.36,1.665,2.765,2.725,3.976c0.373-1.528,1.055-5.514-1.373-7.479
						c-0.057-0.047-0.065-0.129-0.024-0.189c0.028-0.038,0.069-0.058,0.113-0.058c0.027,0,0.05,0.008,0.073,0.022
						c3.327,2.117,7.308,3.121,11.157,4.092c1.365,0.344,2.776,0.7,4.118,1.098c4.628,1.372,9.673,3.25,10.951,8.205
						c0.37,1.427,0.173,2.69-0.568,3.652c-0.902,1.169-2.609,1.867-4.562,1.867c-1.013,0-2.009-0.188-2.877-0.543
						c-1.086-0.443-1.977-1.281-2.328-2.188c-0.255-0.662-0.229-1.358,0.082-2.012c0.38-0.805,1.149-1.249,2.167-1.249
						c0.996,0,2.151,0.432,2.876,1.076c0.037,0.033,0.055,0.084,0.044,0.132c-0.009,0.048-0.045,0.088-0.089,0.104
						c-0.174,0.058-0.438,0.11-0.745,0.169c-0.785,0.152-1.969,0.383-2.188,0.908c-0.076,0.184-0.028,0.4,0.143,0.662
						c0.529,0.796,1.371,1.252,2.312,1.252c0.28,0,0.562-0.041,0.839-0.122c1.162-0.338,1.963-1.101,2.26-2.148
						c0.332-1.181-0.039-2.552-0.973-3.581c-2.438-2.687-6.348-3.303-10.129-3.901c-2.149-0.34-4.186-0.661-5.972-1.336
						c-0.419,1.395-0.822,2.814-1.249,4.316c-2.8,9.841-5.971,20.997-14.446,27.047C218.439,81.591,215.059,82.699,211.878,82.699z"
						/>
				</g>
				<path fill="#0A9995" d="M217.419,29.527c1.191,0,2.223,0.783,2.275,2.692c-0.102-1.026-0.759-1.448-1.505-1.448
					c-1.088,0-2.368,0.896-2.424,2.127c-0.097,2.136,2.61,3.686,4.137,4.649c2.181,1.374,4.425,2.503,6.129,4.488
					c2.146,2.501,3.368,5.672,5.582,8.105c0.659-2.468,0.861-6.079-1.354-7.874c4.547,2.892,10.228,3.701,15.312,5.206
					c4.381,1.297,9.571,3.125,10.856,8.106c0.941,3.636-1.988,5.346-4.996,5.346c-0.977,0-1.963-0.18-2.827-0.533
					c-1.534-0.628-3.008-2.243-2.172-4.014c0.397-0.845,1.185-1.168,2.041-1.168c1.018,0,2.13,0.458,2.785,1.041
					c-0.801,0.271-3.873,0.424-2.859,1.949c0.567,0.852,1.464,1.312,2.428,1.312c0.288,0,0.585-0.041,0.876-0.126
					c2.837-0.824,3.172-3.949,1.354-5.955c-3.866-4.261-11.299-3.372-16.294-5.327c-3.246,10.76-5.945,24.478-15.688,31.434
					c-2.611,1.863-5.924,3.022-9.195,3.022c-1.061,0-2.117-0.122-3.143-0.381c-1.822-0.46-3.507-1.554-4.03-3.458
					c-0.71-2.581,1.744-5.039,4.287-5.092c-1.646,1.039-3.2,3.328-1.938,5.24c0.804,1.217,2.278,1.634,3.783,1.634
					c1.172,0,2.366-0.253,3.276-0.579c5.99-2.144,10.172-8.421,12.866-13.885c1.693-3.438,2.735-6.892,2.093-10.734
					c-0.517-3.104-1.817-5.961-3.733-8.445c-1.854-2.405-4.14-4.433-6.359-6.488c-2.105-1.946-5.193-4.125-5.244-7.067
					C213.695,31.122,215.718,29.527,217.419,29.527 M217.419,29.25c-0.98,0-2.032,0.474-2.812,1.27
					c-0.76,0.775-1.169,1.767-1.15,2.791c0.046,2.608,2.308,4.594,4.303,6.346c0.364,0.319,0.707,0.621,1.032,0.92l0.661,0.613
					c1.971,1.816,4.01,3.694,5.664,5.841c1.942,2.519,3.182,5.318,3.682,8.321c0.549,3.291-0.089,6.549-2.067,10.566
					c-3.656,7.411-7.934,12.035-12.712,13.744c-1.001,0.359-2.16,0.564-3.184,0.564c-1.166,0-2.729-0.263-3.553-1.51
					c-0.386-0.582-0.504-1.236-0.353-1.94c0.231-1.067,1.097-2.209,2.207-2.911c0.104-0.065,0.154-0.196,0.119-0.313
					c-0.036-0.12-0.142-0.197-0.268-0.197c-0.001,0-0.003,0-0.005,0c-1.461,0.027-2.93,0.806-3.839,2.021
					c-0.777,1.047-1.03,2.261-0.712,3.421c0.664,2.416,2.935,3.325,4.23,3.654c1.022,0.258,2.106,0.389,3.211,0.389
					c3.209,0,6.619-1.119,9.356-3.073c8.516-6.08,11.695-17.26,14.499-27.122c0.414-1.449,0.804-2.824,1.205-4.172
					c1.765,0.645,3.758,0.958,5.86,1.292c3.758,0.594,7.644,1.208,10.052,3.858c0.899,0.992,1.257,2.314,0.938,3.448
					c-0.281,1-1.051,1.729-2.164,2.052c-0.266,0.078-0.534,0.117-0.8,0.117c-0.894,0-1.694-0.434-2.196-1.19
					c-0.218-0.327-0.155-0.48-0.132-0.532c0.19-0.456,1.378-0.688,2.089-0.825c0.31-0.061,0.578-0.112,0.76-0.174
					c0.095-0.031,0.163-0.111,0.184-0.208c0.021-0.098-0.015-0.198-0.088-0.264c-0.746-0.664-1.942-1.11-2.968-1.11
					c-1.073,0-1.888,0.471-2.293,1.328c-0.325,0.69-0.355,1.424-0.084,2.123c0.363,0.94,1.285,1.81,2.403,2.267
					c0.885,0.362,1.9,0.554,2.93,0.554c1.998,0,3.744-0.718,4.673-1.921c0.769-0.997,0.975-2.302,0.592-3.772
					c-1.295-5.026-6.382-6.922-11.046-8.304c-1.346-0.398-2.759-0.754-4.122-1.099c-3.839-0.969-7.81-1.97-11.117-4.075
					c-0.046-0.029-0.098-0.043-0.148-0.043c-0.084,0-0.171,0.041-0.226,0.116c-0.083,0.12-0.064,0.286,0.051,0.378
					c1.865,1.512,1.955,4.553,1.386,7.074c-0.972-1.154-1.764-2.472-2.536-3.75c-0.811-1.343-1.647-2.732-2.693-3.952
					c-1.402-1.633-3.19-2.715-4.921-3.763c-0.422-0.255-0.848-0.513-1.271-0.78l-0.287-0.179c-1.517-0.947-3.804-2.376-3.722-4.222
					c0.047-1.065,1.174-1.862,2.147-1.862c0.415,0,1.126,0.156,1.229,1.199c0.015,0.143,0.136,0.25,0.276,0.25
					c0.007,0,0.012,0,0.018-0.001c0.149-0.009,0.264-0.136,0.26-0.285C219.921,30.357,218.966,29.25,217.419,29.25L217.419,29.25z"
					/>
			</g>
			<g>
				<g>
					<g>
						<path fill="#0A9995" d="M158.094,72.191c-1.667,0-3.05-2.258-3.433-2.949c-1.051-1.895-1.65-4.008-2.231-6.053
							c-0.587-2.068-1.193-4.207-2.268-6.098c-0.041-0.073-0.177-0.114-0.371-0.114c-0.945,0-3.004,0.908-3.816,1.839
							c-0.24,0.274-0.348,0.521-0.318,0.731l0.111,0.819c0.264,1.896,0.535,3.854,0.333,5.787c-0.254,2.457-1.521,3.922-3.393,3.922
							h-0.071c-1.788-0.035-4.115-1.215-4.758-3.052c-0.022-0.064,0.003-0.131,0.06-0.166c0.021-0.012,0.046-0.019,0.07-0.019
							c0.038,0,0.076,0.017,0.103,0.046c0.591,0.653,1.361,0.998,2.229,0.998c1.821,0,3.637-1.492,3.961-3.26
							c0.444-2.417-0.729-4.666-1.861-6.84c-0.476-0.911-0.966-1.853-1.315-2.775c-1.032-2.723-0.538-6.359,2.406-8.04
							c0.902-0.517,1.813-0.802,2.564-0.802c0.87,0,1.537,0.358,1.981,1.063c0.582,0.929,0.981,1.958,1.368,2.955
							c0.262,0.675,0.53,1.37,0.856,2.028c0.974-3.61-0.518-8.525-4.356-10.087c-0.048-0.021-0.084-0.068-0.084-0.123
							c-0.003-0.055,0.025-0.104,0.074-0.13c0.731-0.386,1.479-0.581,2.218-0.581c2.744,0,5.059,2.589,7.296,5.093
							c1.375,1.537,2.677,2.994,3.989,3.743c-0.336-0.951-0.764-1.909-1.181-2.84c-0.994-2.232-2.025-4.541-1.952-7.021
							c0.141-4.853,6.688-5.521,8.693-5.61c0.236-0.011,0.476-0.016,0.716-0.016c5.026,0,9.84,2.236,12.267,5.698
							c1.847,2.636,2.188,5.783,0.993,9.101c-1.241,3.445-4.005,5.421-7.584,5.422c-1.228,0-2.491-0.238-3.756-0.708
							c-3.854-1.432-6.689-5.421-7.059-9.926c-0.168-2.042,0.726-3.481,1.504-4.329c1.236-1.346,3.118-2.181,4.917-2.181
							c2.409,0,4.181,1.435,4.744,3.839c0.013,0.061-0.015,0.124-0.069,0.154c-0.021,0.011-0.044,0.017-0.065,0.017
							c-0.036,0-0.072-0.014-0.1-0.042c-1.348-1.398-2.658-2.107-3.903-2.107c-0.824,0-1.635,0.312-2.414,0.931
							c-0.366,0.29-0.699,0.679-0.919,0.947c-1.43,1.744-1.438,4.216-0.019,6.299c1.181,1.733,3.193,2.768,5.388,2.768
							c1.654,0,3.223-0.592,4.417-1.667c2.184-1.968,1.788-5.514,0.494-7.977c-1.416-2.702-4.575-4.381-8.246-4.381
							c-2.189,0-4.241,0.629-5.777,1.772c-2.221,1.653-2.641,4.542-1.25,8.586c1.144,3.322,3.303,6.587,6.602,9.979
							c0.042,0.044,0.051,0.11,0.022,0.164c-0.025,0.045-0.071,0.072-0.12,0.072c-0.01,0-0.02,0-0.028-0.002
							c-4.102-0.812-6.811-3.724-9.43-6.541c-1.267-1.36-2.569-2.763-4.024-3.923c1.738,3.079,2.947,6.441,4.043,9.637
							c0.456,1.322,0.891,2.65,1.328,3.978l0.545,1.653c0.302,0.92,0.61,1.838,0.928,2.753c0.009,0.034,0.009,0.071-0.008,0.103
							c-0.446,0.973-0.716,2.007-0.802,3.077c-0.006,0.064-0.053,0.116-0.116,0.127c-0.008,0-0.015,0.001-0.021,0.001
							c-0.057,0-0.106-0.032-0.128-0.084c-1.008-2.395-1.812-4.911-2.587-7.344c-0.928-2.908-1.887-5.91-3.2-8.721
							c-0.999,4.573,1.113,9.226,3.188,13.245c0.353,0.684,0.713,1.363,1.071,2.039l0.56,1.057c0.151,0.292,0.242,0.623,0.327,0.941
							c0.126,0.465,0.248,0.906,0.546,1.238c0.183,0.204,0.35,0.312,0.482,0.312c0.095,0,0.181-0.057,0.269-0.171
							c0.499-0.668,0.549-2.741,0.424-3.157c-0.019-0.064,0.01-0.131,0.069-0.16c0.021-0.01,0.041-0.017,0.063-0.017
							c0.042,0,0.083,0.019,0.108,0.051c0.662,0.819,0.989,1.996,0.829,2.999c-0.118,0.735-0.485,1.326-1.067,1.702
							C158.815,72.081,158.46,72.191,158.094,72.191L158.094,72.191z M146.241,48.996c-0.891,0-2.129,1.503-2.923,2.793
							c-0.612,0.994-0.448,1.433-0.055,2.496l0.058,0.156c0.221,0.602,0.549,1.362,1.125,1.91c0.055,0.052,0.147,0.078,0.28,0.078
							c1.051,0,3.637-1.582,4.109-1.877c-0.196-1.532-0.622-3.704-1.986-5.256C146.671,49.094,146.471,48.996,146.241,48.996z"/>
					</g>
					<path fill="#0A9995" d="M165.716,34.78c7.894,0,16.316,5.768,13.128,14.612c-1.286,3.568-4.162,5.33-7.454,5.33
						c-1.199,0-2.453-0.234-3.708-0.699c-3.995-1.484-6.627-5.636-6.968-9.807c-0.311-3.794,3.148-6.36,6.282-6.36
						c2.068,0,3.996,1.116,4.608,3.732c-1.536-1.598-2.874-2.15-4.003-2.15c-1.002,0-1.837,0.435-2.502,0.96
						c-0.353,0.28-0.679,0.65-0.938,0.968c-1.556,1.897-1.373,4.486-0.027,6.465c1.267,1.861,3.376,2.828,5.502,2.828
						c1.614,0,3.237-0.557,4.511-1.703c2.271-2.047,1.812-5.692,0.524-8.144c-1.543-2.946-4.976-4.456-8.367-4.456
						c-2.129,0-4.239,0.594-5.861,1.8c-2.82,2.1-2.318,5.774-1.297,8.743c1.313,3.819,3.846,7.165,6.632,10.032
						c-6.269-1.242-9.158-7.344-13.951-10.863c1.897,3.187,3.186,6.72,4.381,10.217c0.642,1.871,1.249,3.752,1.87,5.63
						c0.302,0.92,0.608,1.839,0.927,2.753c-0.455,0.985-0.728,2.041-0.813,3.123c-2.262-5.372-3.426-11.164-5.961-16.427
						c-1.219,4.747,0.977,9.59,3.109,13.725c0.534,1.039,1.087,2.064,1.63,3.098c0.359,0.689,0.357,1.611,0.894,2.21
						c0.225,0.251,0.419,0.358,0.586,0.358c0.873,0,0.989-2.946,0.827-3.506c0.988,1.219,1.313,3.512-0.204,4.493
						c-0.327,0.215-0.658,0.308-0.979,0.308c-1.421,0-2.706-1.784-3.314-2.876c-2.107-3.804-2.354-8.38-4.496-12.153
						c-0.072-0.127-0.251-0.184-0.493-0.184c-1.279,0-4.428,1.56-4.271,2.728c0.289,2.167,0.673,4.381,0.444,6.574
						c-0.195,1.901-1.106,3.797-3.25,3.797c-0.026,0-0.048,0-0.072,0c-1.762-0.035-4.016-1.209-4.629-2.959
						c0.66,0.734,1.49,1.047,2.332,1.047c1.848,0,3.753-1.507,4.098-3.375c0.644-3.502-2.018-6.606-3.185-9.689
						c-1.066-2.816-0.413-6.295,2.344-7.87c0.761-0.435,1.669-0.784,2.5-0.784c0.733,0,1.405,0.272,1.864,0.998
						c1.029,1.644,1.469,3.574,2.376,5.281c1.229-3.843-0.399-8.986-4.339-10.589c0.748-0.392,1.462-0.565,2.154-0.565
						c4.486,0,7.952,7.254,11.526,8.982c-1.091-3.311-3.342-6.534-3.237-10.142c0.122-4.186,5.174-5.325,8.56-5.476
						C165.241,34.785,165.478,34.78,165.716,34.78 M144.724,56.567c1.207,0,4.259-1.945,4.259-1.945
						c-0.235-1.908-0.729-3.939-2.034-5.418c-0.214-0.244-0.455-0.347-0.709-0.347c-1.147,0-2.576,2.103-3.041,2.859
						c-0.678,1.101-0.448,1.579-0.01,2.772c0.261,0.713,0.602,1.431,1.161,1.963C144.433,56.532,144.563,56.567,144.724,56.567
						 M165.716,34.502c-0.241,0-0.484,0.005-0.724,0.016c-2.033,0.091-8.677,0.774-8.824,5.746
						c-0.073,2.512,0.964,4.835,1.966,7.082c0.358,0.805,0.728,1.632,1.035,2.455c-1.181-0.782-2.369-2.112-3.616-3.508
						c-2.259-2.527-4.594-5.139-7.399-5.139c-0.763,0-1.531,0.201-2.283,0.596c-0.095,0.05-0.153,0.152-0.146,0.26
						c0.007,0.108,0.07,0.204,0.174,0.244c3.636,1.482,5.125,6.036,4.361,9.547c-0.25-0.548-0.471-1.114-0.683-1.667
						c-0.389-1.002-0.791-2.038-1.381-2.978c-0.467-0.738-1.192-1.128-2.099-1.128c-0.993,0-1.981,0.446-2.635,0.82
						c-3.009,1.719-3.519,5.431-2.466,8.209c0.353,0.93,0.847,1.876,1.322,2.791c1.124,2.154,2.284,4.381,1.851,6.75
						c-0.314,1.706-2.065,3.147-3.825,3.147c-0.826,0-1.562-0.331-2.125-0.955c-0.055-0.06-0.13-0.092-0.206-0.092
						c-0.048,0-0.098,0.013-0.142,0.04c-0.112,0.066-0.161,0.206-0.12,0.331c0.662,1.896,3.053,3.107,4.883,3.144l0.079,0.002
						c1.945,0,3.264-1.515,3.526-4.047c0.202-1.95-0.07-3.916-0.334-5.821c-0.037-0.273-0.075-0.546-0.111-0.818
						c-0.022-0.168,0.076-0.382,0.287-0.622c0.791-0.906,2.794-1.792,3.711-1.792c0.201,0,0.252,0.046,0.253,0.046
						c1.063,1.874,1.666,4.004,2.252,6.065c0.583,2.05,1.182,4.172,2.241,6.083c0.396,0.707,1.813,3.018,3.557,3.018
						c0.392,0,0.771-0.117,1.129-0.35c0.613-0.398,1.004-1.019,1.127-1.795c0.165-1.042-0.173-2.262-0.859-3.11
						c-0.054-0.064-0.135-0.103-0.215-0.103c-0.045,0-0.088,0.01-0.129,0.031c-0.117,0.063-0.175,0.196-0.138,0.325
						c0.114,0.391,0.065,2.41-0.401,3.035c-0.058,0.076-0.11,0.116-0.158,0.116c-0.033,0-0.158-0.021-0.381-0.267
						c-0.275-0.308-0.392-0.735-0.514-1.185c-0.088-0.326-0.18-0.663-0.341-0.968c-0.187-0.355-0.374-0.708-0.559-1.06
						c-0.36-0.678-0.718-1.354-1.069-2.037c-2-3.874-4.035-8.342-3.259-12.734c1.22,2.691,2.13,5.547,3.016,8.316
						c0.775,2.436,1.581,4.957,2.591,7.356c0.045,0.104,0.146,0.171,0.256,0.171c0.015,0,0.028,0,0.044-0.005
						c0.126-0.02,0.223-0.122,0.233-0.251c0.084-1.051,0.347-2.073,0.789-3.027c0.03-0.066,0.033-0.141,0.011-0.209
						c-0.296-0.849-0.598-1.748-0.927-2.749c-0.183-0.552-0.364-1.103-0.546-1.654c-0.431-1.306-0.872-2.656-1.329-3.98
						c-1.021-2.981-2.142-6.109-3.7-9.019c1.227,1.055,2.354,2.266,3.45,3.445c2.633,2.833,5.359,5.761,9.504,6.583
						c0.019,0.003,0.035,0.005,0.053,0.005c0.103,0,0.195-0.055,0.245-0.146c0.058-0.107,0.039-0.239-0.046-0.326
						c-3.283-3.379-5.434-6.626-6.569-9.928c-1.369-3.981-0.966-6.817,1.2-8.429c1.513-1.125,3.536-1.746,5.695-1.746
						c3.617,0,6.729,1.651,8.12,4.307c1.269,2.416,1.665,5.89-0.465,7.809c-1.164,1.052-2.703,1.632-4.323,1.632
						c-2.148,0-4.12-1.012-5.273-2.708c-1.384-2.03-1.379-4.437,0.011-6.131c0.214-0.263,0.542-0.645,0.896-0.927
						c0.754-0.598,1.538-0.901,2.328-0.901c1.206,0,2.486,0.695,3.805,2.065c0.054,0.056,0.124,0.085,0.198,0.085
						c0.046,0,0.089-0.011,0.132-0.034c0.11-0.06,0.166-0.185,0.14-0.307c-0.58-2.472-2.404-3.947-4.88-3.947
						c-1.834,0-3.758,0.854-5.02,2.227c-1.144,1.245-1.676,2.778-1.54,4.434c0.372,4.558,3.247,8.594,7.151,10.044
						c1.278,0.476,2.559,0.718,3.804,0.718c3.64,0,6.452-2.01,7.715-5.514c1.212-3.362,0.862-6.553-1.013-9.228
						C175.644,36.762,170.786,34.502,165.716,34.502L165.716,34.502z M144.724,56.288c-0.104,0-0.164-0.021-0.183-0.038
						c-0.556-0.529-0.876-1.271-1.091-1.858l-0.058-0.157c-0.397-1.076-0.53-1.438,0.046-2.375c0.831-1.357,2.022-2.727,2.803-2.727
						c0.188,0,0.352,0.083,0.501,0.253c1.316,1.495,1.744,3.585,1.943,5.094C147.752,55.062,145.598,56.288,144.724,56.288
						L144.724,56.288z"/>
				</g>
			</g>
			<g>
				<g>
					<g>
						<path fill="#0A9995" d="M199.048,72.299c-0.119,0-0.242-0.008-0.369-0.024c-0.79-0.104-1.386-0.68-1.677-1.627
							c-0.396-1.278-0.107-2.818,0.654-3.505c0.028-0.024,0.062-0.033,0.093-0.033c0.026,0,0.048,0.008,0.069,0.018
							c0.052,0.028,0.079,0.09,0.065,0.149c-0.08,0.368-0.035,2.559,0.392,3.089c0.072,0.091,0.127,0.092,0.146,0.092l0,0
							c0.058,0,0.183-0.041,0.391-0.314c0.869-1.156,1.516-2.907,2.086-4.451c0.161-0.442,0.321-0.868,0.475-1.257
							c1.63-4.128,2.695-8.528,3.171-13.099c-1.004,3.055-1.971,6.156-2.911,9.165c-0.82,2.63-1.669,5.347-2.534,8.01
							c-0.019,0.055-0.069,0.095-0.129,0.097c0,0-0.002,0-0.004,0c-0.056,0-0.108-0.033-0.128-0.087
							c-0.189-0.493-0.251-1.02-0.308-1.526c-0.044-0.396-0.088-0.804-0.195-1.184c-0.308-1.086-0.347-1.223,0.046-2.465
							l0.574-1.813c0.464-1.467,0.93-2.935,1.396-4.402c1.129-3.552,2.465-7.716,3.877-11.845c-0.382,0.361-0.717,0.774-1.042,1.178
							c-0.584,0.719-1.184,1.462-2.056,1.934c-0.304,0.167-0.56,0.248-0.776,0.248c-0.229,0-0.414-0.093-0.538-0.27
							c-0.533-0.756,0.184-2.875,0.27-3.114c0.108-0.31,0.231-0.629,0.355-0.954c0.827-2.163,1.764-4.615-0.642-6.026
							c-1.502-0.883-3.376-1.348-5.417-1.348c-3.788,0-7.3,1.646-8.938,4.194c-1.324,2.054-2.298,5.252-0.684,7.508
							c1.047,1.465,2.844,2.306,4.928,2.306c1.507,0,3.018-0.463,4.146-1.269c1.615-1.155,2.817-3.27,2.927-5.143
							c0.073-1.262-0.354-2.352-1.237-3.149c-0.652-0.591-1.572-0.904-2.666-0.904c-1.557,0-3.421,0.655-4.636,1.629
							c-0.025,0.02-0.057,0.031-0.088,0.031c-0.017,0-0.035-0.005-0.05-0.011c-0.046-0.019-0.082-0.062-0.085-0.112
							c-0.11-0.966,0.125-1.786,0.7-2.433c0.821-0.923,2.326-1.453,4.129-1.453c1.115,0,2.212,0.213,3.006,0.583
							c1.988,0.927,3.133,2.973,3.058,5.471c-0.166,5.556-4.291,10.363-9.392,10.945c-0.392,0.045-0.787,0.067-1.168,0.067l0,0
							c-2.817,0-5.326-1.229-6.88-3.374c-1.608-2.221-2.004-5.123-1.084-7.965c1.787-5.498,6.223-8.5,13.179-8.921
							c0.247-0.015,0.493-0.022,0.74-0.022c3.562,0,6.709,1.441,8.022,3.67c0.885,1.505,0.914,3.306,0.09,5.251
							c1.479-1.669,2.928-3.118,4.771-4.129c0.021-0.011,0.044-0.017,0.065-0.017c0.022,0,0.047,0.005,0.066,0.017
							c0.041,0.023,0.066,0.065,0.071,0.112c0.097,1.499-0.387,2.906-0.854,4.267c-0.559,1.628-1.089,3.171-0.725,4.872
							c0.693-1.295,1.085-2.754,1.463-4.17l0.094-0.348c0.064-0.236,0.118-0.492,0.175-0.755c0.244-1.146,0.522-2.446,1.688-2.798
							c0.508-0.154,1.028-0.232,1.549-0.232c1.302,0,2.582,0.502,3.6,1.413c2.761,2.458,3.77,7.045,2.299,10.443
							c-0.42,0.968-1.057,1.801-1.837,2.412l-0.131,0.102c-0.783,0.608-0.783,0.608-0.729,1.724
							c0.026,0.512,0.045,1.025,0.064,1.538c0.054,1.449,0.109,2.945,0.306,4.404c0.25,1.86,1.065,4.978,3.734,4.978
							c0.783,0,1.674-0.271,2.648-0.809c0.021-0.011,0.044-0.018,0.065-0.018c0.028,0,0.062,0.01,0.086,0.031
							c0.045,0.034,0.063,0.095,0.046,0.149c-0.602,1.903-2.685,2.898-4.43,2.898c-0.587,0-1.134-0.105-1.628-0.316
							c-2.147-0.918-2.477-3.487-2.516-5.881c-0.01-0.686,0.027-1.408,0.071-2.17c0.102-1.898,0.211-3.861-0.446-5.46
							c-0.484-1.182-1.581-1.51-2.743-1.859c-0.772-0.232-1.57-0.471-2.186-0.982c-0.48,1.773-1.088,3.53-1.674,5.231
							c-0.461,1.34-0.939,2.725-1.351,4.105c-0.267,0.894-0.47,1.825-0.666,2.724c-0.232,1.071-0.475,2.185-0.827,3.251
							C201.681,71.076,200.547,72.299,199.048,72.299z M211.018,43.879c-1.659,0-2.197,2.534-2.487,3.896l-0.016,0.074
							c-0.171,0.805-0.301,1.635-0.426,2.437l-0.058,0.357c-0.156,0.995,0.95,1.297,2.02,1.587c0.275,0.075,0.542,0.147,0.772,0.23
							c0.264,0.093,0.493,0.188,0.701,0.274c0.39,0.163,0.7,0.291,0.969,0.291l0,0c0.376,0,0.709-0.261,1.148-0.9
							c0.943-1.37,1.771-2.817,1.445-4.124c-0.405-1.616-1.992-3.946-3.919-4.116C211.119,43.882,211.068,43.879,211.018,43.879z"/>
					</g>
					<path fill="#0A9995" d="M194.282,35.049c5.338,0,10.941,3.464,7.53,9.662c1.594-1.847,3.252-3.699,5.418-4.887
						c0.215,3.309-2.441,6.125-1.491,9.503c0.873-1.488,1.296-3.203,1.743-4.855c0.336-1.243,0.422-3.05,1.767-3.456
						c0.502-0.152,1.008-0.226,1.509-0.226c1.278,0,2.51,0.485,3.507,1.377c2.697,2.403,3.698,6.972,2.266,10.286
						c-0.399,0.918-1.008,1.739-1.795,2.356c-0.965,0.753-0.976,0.696-0.913,1.942c0.098,1.986,0.103,3.979,0.367,5.954
						c0.393,2.936,1.609,5.098,3.873,5.098c0.777,0,1.681-0.256,2.711-0.824c-0.542,1.724-2.478,2.802-4.296,2.802
						c-0.548,0-1.086-0.099-1.571-0.308c-2.176-0.93-2.399-3.714-2.432-5.755c-0.037-2.392,0.549-5.405-0.387-7.681
						c-0.878-2.145-3.675-1.624-5.13-3.044c-0.859,3.24-2.127,6.345-3.081,9.552c-0.587,1.968-0.847,4.018-1.498,5.971
						c-0.516,1.566-1.46,3.646-3.336,3.646c-0.114,0-0.229-0.01-0.351-0.024c-1.998-0.265-2.199-3.766-0.947-4.887
						c-0.092,0.428-0.048,3.349,0.672,3.349c0.141,0,0.308-0.109,0.5-0.368c1.136-1.506,1.887-3.984,2.579-5.742
						c1.807-4.578,2.892-9.441,3.288-14.346c-2.023,6.083-3.844,12.232-5.823,18.331c-0.329-0.859-0.251-1.813-0.499-2.697
						c-0.302-1.069-0.332-1.189,0.045-2.386c0.658-2.071,1.312-4.145,1.97-6.215c1.312-4.12,2.637-8.236,4.04-12.327
						c-1.295,1.006-1.97,2.62-3.46,3.429c-0.291,0.161-0.528,0.23-0.71,0.23c-1.051,0-0.456-2.295-0.14-3.198
						c0.846-2.409,2.524-5.459-0.347-7.146c-1.565-0.918-3.507-1.367-5.484-1.367c-3.57,0-7.257,1.463-9.057,4.259
						c-1.386,2.152-2.309,5.385-0.679,7.664c1.159,1.62,3.091,2.364,5.04,2.364c1.516,0,3.047-0.453,4.228-1.294
						c2.418-1.729,4.391-6.075,1.701-8.51c-0.736-0.667-1.721-0.938-2.759-0.938c-1.715,0-3.577,0.741-4.723,1.658
						c-0.309-2.701,2.254-3.73,4.693-3.73c1.101,0,2.174,0.209,2.948,0.57c2.102,0.979,3.043,3.097,2.974,5.34
						c-0.154,5.203-4.047,10.216-9.268,10.811c-0.392,0.045-0.777,0.066-1.152,0.066c-5.925,0-9.7-5.39-7.83-11.156
						c1.792-5.515,6.228-8.412,13.056-8.826C193.793,35.057,194.037,35.049,194.282,35.049 M212.496,53.166
						c0.402,0,0.771-0.241,1.263-0.959c0.854-1.24,1.822-2.803,1.466-4.236c-0.423-1.683-2.031-4.043-4.043-4.221
						c-0.055-0.005-0.11-0.008-0.163-0.008c-1.805,0-2.354,2.733-2.639,4.079c-0.197,0.928-0.336,1.865-0.484,2.802
						c-0.221,1.402,1.744,1.568,2.884,1.971C211.552,52.865,212.047,53.166,212.496,53.166 M194.282,34.771
						c-0.25,0-0.502,0.008-0.748,0.023c-7.022,0.425-11.498,3.459-13.305,9.018c-0.936,2.884-0.532,5.832,1.104,8.089
						c1.578,2.18,4.127,3.431,6.991,3.431c0.387,0,0.785-0.023,1.181-0.068c5.169-0.589,9.348-5.456,9.515-11.08
						c0.078-2.557-1.095-4.65-3.135-5.601c-0.812-0.379-1.932-0.596-3.067-0.596c-1.843,0-3.385,0.546-4.23,1.499
						c-0.605,0.679-0.852,1.534-0.735,2.541c0.011,0.101,0.078,0.187,0.172,0.225c0.031,0.014,0.066,0.021,0.103,0.021
						c0.064,0,0.123-0.021,0.175-0.062c1.194-0.955,3.022-1.598,4.549-1.598c1.056,0,1.944,0.3,2.572,0.867
						c0.851,0.77,1.264,1.821,1.196,3.039c-0.104,1.805-1.312,3.923-2.873,5.038c-1.104,0.79-2.587,1.242-4.063,1.242
						c-2.037,0-3.793-0.819-4.813-2.248c-1.573-2.199-0.613-5.334,0.687-7.351c1.614-2.509,5.078-4.13,8.823-4.13
						c1.986,0,3.885,0.471,5.348,1.328c2.301,1.351,1.425,3.642,0.581,5.857c-0.124,0.327-0.247,0.648-0.357,0.958
						c-0.14,0.401-0.812,2.445-0.251,3.24c0.152,0.215,0.38,0.329,0.65,0.329c0.241,0,0.518-0.086,0.846-0.264
						c0.896-0.485,1.507-1.239,2.096-1.968c0.201-0.25,0.4-0.493,0.604-0.723c-1.335,3.937-2.6,7.876-3.676,11.26
						c-0.468,1.467-0.934,2.938-1.397,4.407l-0.573,1.809c-0.391,1.237-0.369,1.405-0.046,2.545c0.103,0.37,0.147,0.755,0.195,1.163
						c0.057,0.515,0.119,1.049,0.312,1.558c0.043,0.108,0.145,0.178,0.259,0.178c0.003,0,0.006,0,0.008,0
						c0.12-0.004,0.22-0.081,0.256-0.191c0.865-2.668,1.714-5.384,2.535-8.014c0.804-2.576,1.628-5.218,2.479-7.84
						c-0.53,4.063-1.536,7.981-2.999,11.681c-0.154,0.393-0.309,0.814-0.474,1.261c-0.567,1.535-1.208,3.277-2.068,4.415
						c-0.185,0.248-0.279,0.26-0.279,0.26c-0.345-0.14-0.518-2.466-0.4-3.015c0.026-0.119-0.028-0.237-0.133-0.297
						c-0.043-0.028-0.091-0.039-0.14-0.039c-0.066,0-0.135,0.025-0.184,0.071c-0.803,0.716-1.107,2.317-0.698,3.647
						c0.306,0.984,0.959,1.612,1.794,1.721c0.129,0.017,0.259,0.028,0.385,0.028c2.331,0,3.286-2.887,3.599-3.835
						c0.356-1.075,0.6-2.188,0.836-3.266c0.195-0.899,0.397-1.823,0.66-2.713c0.411-1.376,0.888-2.761,1.35-4.099
						c0.564-1.64,1.148-3.332,1.621-5.041c0.608,0.44,1.348,0.662,2.066,0.878c1.129,0.339,2.194,0.658,2.654,1.779
						c0.642,1.571,0.537,3.518,0.436,5.4c-0.042,0.765-0.082,1.489-0.071,2.181c0.04,2.436,0.38,5.056,2.6,6.006
						c0.51,0.217,1.075,0.328,1.681,0.328c1.798,0,3.94-1.032,4.562-2.996c0.034-0.106,0-0.228-0.087-0.299
						c-0.051-0.043-0.113-0.065-0.177-0.065c-0.047,0-0.092,0.01-0.136,0.035c-0.952,0.524-1.82,0.79-2.578,0.79
						c-2.564,0-3.356-3.041-3.598-4.856c-0.195-1.452-0.251-2.946-0.305-4.391c-0.019-0.514-0.038-1.027-0.062-1.54
						c-0.052-1.042-0.052-1.042,0.674-1.607l0.133-0.102c0.798-0.624,1.449-1.477,1.878-2.464c1.493-3.451,0.466-8.108-2.334-10.604
						c-1.046-0.933-2.355-1.447-3.692-1.447c-0.534,0-1.069,0.08-1.591,0.238c-1.242,0.375-1.528,1.718-1.779,2.901
						c-0.056,0.266-0.109,0.517-0.175,0.747l-0.094,0.348c-0.341,1.274-0.692,2.584-1.265,3.771
						c-0.198-1.508,0.285-2.914,0.79-4.391c0.472-1.374,0.958-2.794,0.86-4.321c-0.006-0.095-0.06-0.18-0.144-0.225
						c-0.042-0.023-0.084-0.035-0.133-0.035c-0.046,0-0.092,0.011-0.133,0.034c-1.656,0.908-2.991,2.163-4.312,3.61
						c0.689-2.116,0.23-3.676-0.362-4.679C201.085,36.239,197.89,34.771,194.282,34.771L194.282,34.771z M212.496,52.887
						c-0.242,0-0.539-0.123-0.916-0.28c-0.207-0.085-0.44-0.183-0.707-0.277c-0.24-0.084-0.504-0.157-0.784-0.233
						c-1.242-0.337-2.047-0.619-1.918-1.432l0.055-0.357c0.124-0.801,0.254-1.627,0.426-2.43l0.015-0.073
						c0.282-1.323,0.806-3.786,2.353-3.786c0.046,0,0.093,0.003,0.139,0.007c1.862,0.165,3.402,2.436,3.798,4.012
						c0.311,1.252-0.498,2.667-1.423,4.011C213.022,52.785,212.733,52.887,212.496,52.887L212.496,52.887z"/>
				</g>
			</g>
		</g>
	</g>
</g>
</svg>
