<?xml version="1.0" encoding="utf-8"?>
<!-- Generator: Adobe Illustrator 15.0.0, SVG Export Plug-In . SVG Version: 6.00 Build 0)  -->
<!DOCTYPE svg PUBLIC "-//W3C//DTD SVG 1.1//EN" "http://www.w3.org/Graphics/SVG/1.1/DTD/svg11.dtd">
<svg version="1.1" id="Layer_1" xmlns="http://www.w3.org/2000/svg" xmlns:xlink="http://www.w3.org/1999/xlink" x="0px" y="0px"
	 width="358.988px" height="165.121px" viewBox="0 0 358.988 165.121" enable-background="new 0 0 358.988 165.121"
	 xml:space="preserve">
<g>
	<g>
		<g>
			<g>
				<g>
					<path fill="#125C72" d="M106.393,160.225c-0.358,0-0.702-0.021-1.034-0.062c-0.588-0.07-1.133-0.263-1.658-0.45
						c-0.58-0.206-1.127-0.4-1.658-0.4c-0.265,0-0.505,0.049-0.739,0.146c-0.593,0.243-1.072,0.408-1.492,0.408
						c-1.065,0-1.289-1.105-1.363-1.471c-0.316-1.551-1.034-5.078,0.087-6.448c0.312-0.382,0.729-0.572,1.243-0.572
						c0.256,0,0.538,0.048,0.84,0.146c1.136,0.365,2.142,1.51,3.203,2.722c0.979,1.116,1.995,2.271,3.097,2.757
						c0.358,0.158,0.707,0.236,1.035,0.236c1.025,0,1.63-0.775,1.856-1.502c0.28-0.92,0.095-2.178-0.973-2.908
						c-1.204-0.826-2.591-1.229-4.062-1.657c-1.556-0.446-3.166-0.917-4.521-1.938c-1.437-1.082-2.056-2.604-1.749-4.285
						c0.423-2.303,2.524-4.555,4.896-5.243c0.878-0.254,1.793-0.386,2.721-0.386c0.962,0,1.913,0.14,2.824,0.412
						c0.582,0.176,0.986,0.254,1.31,0.254c0.274,0,0.49-0.055,0.788-0.129c0.329-0.082,0.736-0.183,1.37-0.246
						c0.06-0.006,0.111-0.012,0.165-0.012c0.443,0,0.829,0.2,1.115,0.576c1.218,1.605,0.479,6.393,0.179,7.469
						c-0.037,0.137-0.162,0.229-0.298,0.229c-0.008,0-0.019-0.003-0.027-0.003c-1.626-0.137-2.885-1.542-4.101-2.899
						c-1.079-1.209-2.104-2.35-3.188-2.35c-0.746,0-1.517,0.536-2.35,1.641c0.915,2.183,3.03,2.781,5.271,3.414
						c2.507,0.709,5.102,1.444,6,4.513c0.481,1.651,0.211,3.232-0.786,4.562C112.601,159.139,108.991,160.225,106.393,160.225
						L106.393,160.225z"/>
				</g>
				<path fill="#125C72" d="M106.121,139.626c0.925,0,1.851,0.135,2.736,0.399c0.651,0.195,1.062,0.268,1.396,0.268
					c0.642,0,0.997-0.255,2.192-0.376c0.045-0.004,0.089-0.007,0.132-0.007c2.253,0,1.372,6.291,0.993,7.648
					c-2.948-0.248-4.812-5.257-7.319-5.257c-0.812,0-1.692,0.528-2.698,1.91c1.929,5.072,9.678,2.438,11.324,8.062
					c1.431,4.896-4.333,7.641-8.484,7.641c-0.346,0-0.68-0.021-0.995-0.057c-1.201-0.146-2.271-0.858-3.354-0.858
					c-0.285,0-0.569,0.051-0.858,0.169c-0.55,0.23-1.002,0.387-1.373,0.387c-0.528,0-0.878-0.322-1.061-1.22
					c-0.337-1.658-1.373-6.651,1.025-6.651c0.22,0,0.467,0.045,0.746,0.133c2.087,0.678,3.92,4.43,6.269,5.469
					c0.417,0.186,0.807,0.267,1.162,0.267c2.324,0,3.218-3.5,1.062-4.981c-2.575-1.771-6.041-1.678-8.568-3.586
					c-3.787-2.856-0.583-7.926,3.046-8.979C104.343,139.748,105.231,139.626,106.121,139.626 M106.121,139.002v0.624V139.002
					c-0.955,0-1.899,0.134-2.807,0.398c-2.476,0.72-4.674,3.076-5.111,5.482c-0.332,1.803,0.333,3.436,1.866,4.594
					c1.396,1.056,3.036,1.527,4.618,1.987c1.444,0.419,2.811,0.815,3.97,1.614c0.938,0.645,1.102,1.751,0.854,2.562
					c-0.193,0.618-0.703,1.282-1.562,1.282c-0.283,0-0.589-0.067-0.909-0.211c-1.038-0.456-2.027-1.588-2.989-2.678
					c-1.092-1.246-2.121-2.421-3.34-2.812c-0.334-0.106-0.646-0.162-0.935-0.162c-0.604,0-1.119,0.236-1.483,0.688
					c-1.066,1.312-0.681,4.104-0.161,6.664c0.24,1.186,0.804,1.761,1.679,1.761c0.473,0,0.984-0.174,1.609-0.434
					c0.196-0.079,0.399-0.12,0.621-0.12c0.479,0,1,0.188,1.556,0.383c0.544,0.191,1.104,0.396,1.728,0.471
					c0.34,0.041,0.699,0.062,1.07,0.062c2.674,0,6.395-1.126,8.246-3.604c1.056-1.412,1.347-3.084,0.836-4.836
					c-0.95-3.232-3.747-4.027-6.218-4.724c-2.103-0.595-4.095-1.161-4.992-3.07c0.717-0.911,1.387-1.375,1.986-1.375
					c0.95,0,1.928,1.089,2.961,2.248c1.254,1.402,2.556,2.854,4.309,3.003c0.016,0.004,0.034,0.004,0.052,0.004
					c0.275,0,0.522-0.188,0.599-0.457c0.188-0.678,1.162-5.899-0.231-7.742c-0.347-0.455-0.815-0.693-1.36-0.693
					c-0.062,0-0.129,0.001-0.193,0.011c-0.655,0.062-1.076,0.17-1.416,0.253c-0.287,0.072-0.478,0.12-0.714,0.12
					c-0.294,0-0.671-0.073-1.22-0.237C108.094,139.146,107.114,139.002,106.121,139.002L106.121,139.002z"/>
			</g>
			<g>
				<g>
					<path fill="#125C72" d="M225.336,160.391c-4.632,0-8.602-2.562-10.358-6.691c-1.244-2.904-1.157-5.918,0.236-8.487
						c1.567-2.886,4.646-4.91,8.45-5.562c0.804-0.14,1.628-0.209,2.447-0.209c5.354,0,11.185,3.056,11.344,9.762
						c0.114,4.72-3.363,9.099-8.449,10.643C227.803,160.207,226.569,160.391,225.336,160.391L225.336,160.391z M225.931,142.863
						c-0.398,0-0.815,0.043-1.238,0.135c-3.627,0.763-4.566,4.395-4.269,7.271c0.351,3.357,2.38,6.758,5.593,6.758
						c0.96,0,1.97-0.312,3.004-0.92c2.525-1.489,3.038-5.432,2.234-8.387C230.431,144.682,228.438,142.863,225.931,142.863z"/>
				</g>
				<path fill="#125C72" d="M226.114,139.751c5.548,0,10.886,3.247,11.033,9.459c0.121,4.981-3.661,8.949-8.231,10.334
					c-1.186,0.358-2.392,0.535-3.58,0.535c-4.268,0-8.271-2.279-10.076-6.505c-2.668-6.243,1.188-12.379,8.459-13.62
					C224.51,139.818,225.315,139.751,226.114,139.751 M226.017,157.34c0.966,0,2.025-0.294,3.161-0.964
					c4.674-2.751,3.227-13.824-3.247-13.824c-0.415,0-0.852,0.046-1.306,0.144C217.291,144.236,219.563,157.34,226.017,157.34
					 M226.114,139.129c-0.836,0-1.679,0.071-2.502,0.21c-3.896,0.667-7.058,2.752-8.671,5.722c-1.441,2.657-1.532,5.769-0.253,8.76
					c1.811,4.246,5.888,6.884,10.645,6.884c1.268,0,2.532-0.188,3.764-0.563c5.224-1.584,8.787-6.084,8.672-10.94
					C237.603,142.277,231.613,139.129,226.114,139.129L226.114,139.129z M226.017,156.718c-3.027,0-4.949-3.261-5.283-6.481
					c-0.286-2.747,0.595-6.215,4.021-6.934c0.402-0.087,0.801-0.131,1.179-0.131c2.356,0,4.235,1.732,5.023,4.633
					c0.771,2.846,0.301,6.623-2.093,8.035C227.876,156.422,226.918,156.718,226.017,156.718L226.017,156.718z"/>
			</g>
			<g>
				<g>
					<path fill="#125C72" d="M244.97,159.913c-0.673,0-2.452,0-2.647-1.638c-0.207-1.729-0.165-3.485-0.123-5.187
						c0.011-0.426,0.021-0.854,0.024-1.278c0.003-0.086,0.041-0.172,0.104-0.229c0.062-0.055,0.135-0.08,0.207-0.08
						c0.012,0,0.022,0.003,0.034,0.003c1.776,0.193,3.111,1.543,4.403,2.849c1.277,1.289,2.479,2.506,3.98,2.506
						c0.623,0,1.262-0.203,1.953-0.631c0.663-0.402,0.978-0.821,0.938-1.246c-0.152-1.647-5.104-3.529-7.215-4.33
						c-0.677-0.26-1.165-0.446-1.405-0.571c-1.971-1.026-2.957-2.794-2.716-4.851c0.289-2.438,2.276-4.65,4.729-5.265
						c1.269-0.315,2.675-0.47,4.299-0.47c1.423,0,2.876,0.118,4.23,0.249c2.211,0.204,2.307,0.757,2.261,2.329
						c-0.011,0.343-0.021,0.744-0.007,1.224l0.018,0.437c0.047,1.258,0.102,2.684-0.354,3.929c-0.047,0.125-0.165,0.204-0.293,0.204
						c-0.016,0-0.027-0.001-0.041-0.004c-1.565-0.207-2.793-1.575-3.981-2.898c-1.098-1.22-2.131-2.374-3.243-2.374
						c-0.753,0-1.527,0.535-2.372,1.64c1,1.543,3.252,2.531,5.433,3.49c2.584,1.135,5.255,2.311,6.007,4.482
						c0.428,1.246,0.2,2.67-0.706,4.361c-1.575,2.951-5.202,3.328-8.186,3.328l0,0c-0.782,0-1.551-0.027-2.255-0.057l-0.787-0.021
						c-0.33,0-0.694,0.021-1.067,0.045C245.79,159.889,245.371,159.913,244.97,159.913z"/>
				</g>
				<path fill="#125C72" d="M251.542,139.811c1.409,0,2.821,0.113,4.201,0.246c2.534,0.236,1.896,0.795,1.978,3.256
					c0.044,1.375,0.16,2.92-0.318,4.246c-2.894-0.387-4.757-5.276-7.263-5.276c-0.824,0-1.725,0.53-2.749,1.931
					c2.655,4.646,15.074,4.264,10.834,12.209c-1.457,2.727-4.854,3.165-7.912,3.165c-1.007,0-1.979-0.048-2.831-0.075
					c-0.067-0.003-0.142-0.005-0.211-0.005c-0.692,0-1.525,0.097-2.295,0.097c-1.18,0-2.204-0.227-2.344-1.361
					c-0.252-2.133-0.125-4.281-0.095-6.424c3.393,0.367,5.211,5.354,8.42,5.354c0.645,0,1.341-0.197,2.118-0.677
					c4.512-2.771-6.367-5.993-7.706-6.688c-4.646-2.424-2.423-8.449,1.95-9.537C248.691,139.928,250.114,139.811,251.542,139.811
					 M251.542,139.188c-1.646,0-3.078,0.153-4.371,0.479c-2.614,0.649-4.655,2.924-4.962,5.528
					c-0.262,2.189,0.785,4.074,2.876,5.162c0.261,0.134,0.756,0.322,1.443,0.584c1.879,0.715,6.879,2.613,7.013,4.067
					c0.035,0.362-0.413,0.72-0.793,0.954c-0.64,0.393-1.224,0.584-1.789,0.584c-1.37,0-2.529-1.172-3.76-2.415
					c-1.328-1.341-2.705-2.729-4.592-2.938c-0.022-0.002-0.045-0.004-0.068-0.004c-0.146,0-0.295,0.058-0.409,0.156
					c-0.131,0.113-0.207,0.279-0.21,0.455c-0.007,0.426-0.018,0.852-0.025,1.275c-0.041,1.714-0.084,3.48,0.125,5.229
					c0.228,1.912,2.28,1.912,2.956,1.912c0.414,0,0.837-0.023,1.247-0.052c0.362-0.021,0.725-0.046,1.048-0.046
					c0.062,0,0.127,0.003,0.189,0.005l0.588,0.021c0.688,0.025,1.472,0.06,2.265,0.06c2.827,0,6.785-0.36,8.461-3.493
					c0.942-1.771,1.182-3.279,0.722-4.611c-0.796-2.302-3.529-3.502-6.176-4.666c-2.046-0.901-4.159-1.828-5.168-3.193
					c0.715-0.891,1.385-1.338,1.983-1.338c0.974,0,1.965,1.104,3.015,2.271c1.225,1.365,2.491,2.774,4.171,2.999
					c0.027,0.004,0.058,0.008,0.082,0.008c0.257,0,0.494-0.162,0.583-0.408c0.474-1.306,0.419-2.764,0.371-4.043l-0.016-0.438
					c-0.018-0.466-0.007-0.858,0.006-1.205c0.051-1.746-0.156-2.427-2.546-2.646C254.437,139.307,252.978,139.188,251.542,139.188
					L251.542,139.188z"/>
			</g>
			<g>
				<g>
					<path fill="#125C72" d="M130.509,159.984c-0.648,0-1.286-0.037-1.874-0.074c-0.272-0.018-0.585-0.024-0.908-0.034
						c-2.009-0.058-4.754-0.132-4.754-2.28c0.085-1.277,1.044-1.277,1.505-1.277l0.503,0.005c0.624,0,1.33,0,1.33-1.652v-11.722
						c-0.266-0.047-0.517-0.07-0.747-0.07c-1.143,0-2.004,0.562-2.798,1.825c-0.601,0.953-1.518,2.091-2.505,2.091
						c-0.723,0-1.278-0.585-1.655-1.738c-0.497-1.545-0.358-2.84,0.4-3.752c1.357-1.623,3.499-2.381,6.746-2.381
						c1.971,0,4.141,0.276,6.236,0.538c2.04,0.257,4.146,0.521,5.998,0.521c0.36,0,0.714-0.01,1.057-0.029
						c0.005-0.003,0.015-0.003,0.021-0.003c0.086,0,0.169,0.038,0.229,0.104c0.062,0.067,0.093,0.162,0.078,0.256
						c-0.041,0.285-0.002,0.901,0.041,1.555c0.108,1.703,0.247,3.822-0.544,4.668c-0.232,0.248-0.521,0.369-0.868,0.369
						c-0.168,0-0.349-0.027-0.54-0.092c-1.038-0.338-1.546-1.186-2.039-2.002c-0.424-0.705-0.821-1.375-1.544-1.687
						c-0.174-0.077-0.342-0.114-0.495-0.114c-0.569,0-1.045,0.557-1.406,1.643c-1.229,3.658-0.486,11.063,0.151,11.55
						c0.148,0.063,0.473,0.146,0.816,0.231c1.117,0.277,2.383,0.6,2.5,1.367c0.089,0.592-0.544,1.051-1.028,1.344
						C133.46,159.714,132.218,159.984,130.509,159.984z"/>
				</g>
				<path fill="#125C72" d="M125.754,139.232c3.87,0,8.465,1.058,12.233,1.058c0.366,0,0.725-0.008,1.077-0.031
					c-0.176,1.198,0.85,6.327-1.066,6.327c-0.133,0-0.279-0.021-0.441-0.077c-1.792-0.583-1.874-2.948-3.558-3.677
					c-0.222-0.096-0.428-0.141-0.619-0.141c-3.307,0-2.557,13.275-1.389,13.781c0.887,0.379,4.899,0.788,2.264,2.395
					c-1.064,0.646-2.428,0.805-3.746,0.805c-0.644,0-1.271-0.039-1.854-0.072c-1.896-0.117-5.373,0.155-5.373-2.008
					c0.058-0.877,0.579-0.967,1.193-0.967c0.165,0,0.335,0.007,0.504,0.007c0.821,0,1.641-0.155,1.641-1.967
					c0-3.992,0-7.983,0-11.978c-0.381-0.084-0.733-0.125-1.06-0.125c-1.33,0-2.254,0.688-3.062,1.97
					c-0.668,1.067-1.495,1.944-2.241,1.944c-0.521,0-1.003-0.433-1.359-1.522c-0.369-1.149-0.473-2.478,0.348-3.459
					C120.709,139.748,123.052,139.232,125.754,139.232 M125.754,138.609c-3.346,0-5.563,0.791-6.983,2.488
					c-0.833,1.002-0.992,2.399-0.463,4.049c0.526,1.617,1.354,1.955,1.949,1.955c1.132,0,2.133-1.217,2.771-2.237
					c0.739-1.175,1.498-1.677,2.532-1.677c0.139,0,0.281,0.011,0.438,0.024v11.452c0,1.344-0.406,1.344-1.019,1.344l-0.244-0.004
					l-0.26-0.003c-0.001,0-0.003,0-0.003,0c-0.429,0-1.707,0.003-1.812,1.548c-0.001,2.494,3.04,2.576,5.054,2.637
					c0.321,0.008,0.628,0.016,0.901,0.03c0.63,0.041,1.25,0.075,1.893,0.075c1.771,0,3.062-0.282,4.063-0.895
					c0.324-0.196,1.304-0.793,1.174-1.655c-0.146-0.976-1.52-1.318-2.729-1.623c-0.267-0.066-0.538-0.14-0.7-0.194
					c-0.672-1.053-1.243-8.777,0.178-11.76c0.271-0.564,0.569-0.854,0.887-0.854c0.109,0,0.234,0.026,0.374,0.088
					c0.629,0.273,0.987,0.867,1.403,1.562c0.496,0.823,1.059,1.763,2.206,2.135c0.223,0.073,0.438,0.107,0.637,0.107
					c0.427,0,0.81-0.162,1.097-0.472c0.882-0.944,0.738-3.137,0.628-4.9c-0.041-0.604-0.079-1.236-0.043-1.488
					c0.026-0.188-0.031-0.374-0.157-0.51c-0.117-0.13-0.283-0.203-0.457-0.203c-0.016,0-0.024,0.003-0.038,0.003
					c-0.338,0.022-0.688,0.031-1.036,0.031c-1.834,0-3.931-0.267-5.959-0.521C129.921,138.887,127.741,138.609,125.754,138.609
					L125.754,138.609z"/>
			</g>
			<g>
				<g>
					<path fill="#125C72" d="M156.339,160.657c-1.935,0-3.965-0.567-5.719-1.597c-4.521-2.654-6.688-7.871-5.527-13.291
						c0.076-0.358,0.175-0.693,0.265-0.996c0.179-0.614,0.315-1.101,0.146-1.35c-0.134-0.201-0.522-0.337-1.154-0.402
						c-0.614-0.062-1.062-0.336-1.26-0.768c-0.195-0.438-0.107-0.954,0.25-1.466c0.688-0.996,2.083-1.499,4.151-1.499
						c0.735,0,1.444,0.062,1.984,0.115c0.046,0.003,4.712,0.85,4.919,2.23c0.062,0.441-0.271,0.82-0.996,1.12
						c-0.552,0.229-1.018,0.261-1.387,0.291c-0.64,0.05-0.771,0.056-0.738,1.108c0.033,1.225-0.021,2.467-0.074,3.662
						c-0.021,0.485-0.042,0.972-0.058,1.455c-0.105,3.379-0.216,6.869,3.563,7.391c0.262,0.038,0.518,0.057,0.766,0.057
						c1.853,0,3.271-0.982,3.994-2.762c1.042-2.577,0.847-5.68,0.514-8.368c-0.021-0.17-0.037-0.35-0.051-0.528
						c-0.094-1.078-0.191-1.744-1.062-1.91c-0.083-0.014-0.173-0.018-0.27-0.018c-0.118,0-0.245,0.004-0.379,0.014
						c-0.146,0.012-0.308,0.019-0.463,0.019c-0.634,0-1.501-0.142-1.707-1.333c0.095-1.703,1.824-2.643,4.744-2.643
						c2.441,0,5.55,0.742,6.312,1.939c0.21,0.325,0.236,0.678,0.084,1.014c-0.373,0.81-1.205,0.866-1.938,0.922
						c-0.529,0.037-1.036,0.076-1.318,0.369c-0.226,1.523-0.11,3.109,0,4.646l0.063,1.017c0.198,3.187,0.219,6.502-1.802,8.969
						C160.451,160.208,158.048,160.657,156.339,160.657z"/>
				</g>
				<path fill="#125C72" d="M160.796,139.507c3.152,0,6.727,1.188,6.113,2.507c-0.56,1.213-2.503,0.318-3.269,1.293
					c-0.299,1.916-0.067,3.887,0.051,5.812c0.183,2.961,0.252,6.33-1.733,8.758c-1.435,1.755-3.493,2.475-5.619,2.475
					c-1.938,0-3.935-0.599-5.56-1.553c-4.544-2.67-6.472-7.876-5.381-12.958c0.382-1.801,1.271-2.889-1.021-3.124
					c-1.03-0.104-1.388-0.881-0.782-1.744c0.765-1.104,2.396-1.363,3.897-1.363c0.717,0,1.404,0.059,1.951,0.109
					c0.568,0.061,6.842,1.504,3.835,2.758c-1.507,0.629-2.377-0.336-2.316,1.698c0.045,1.7-0.072,3.399-0.132,5.101
					c-0.104,3.379-0.219,7.146,3.834,7.705c0.274,0.041,0.544,0.06,0.808,0.06c1.938,0,3.504-1.037,4.283-2.952
					c1.066-2.639,0.871-5.763,0.531-8.525c-0.136-1.102-0.012-2.444-1.364-2.705c-0.098-0.018-0.209-0.022-0.323-0.022
					c-0.258,0-0.551,0.03-0.841,0.03c-0.631,0-1.241-0.146-1.4-1.076C156.456,140.131,158.515,139.507,160.796,139.507
					 M160.796,138.887c-3.104,0-4.947,1.037-5.059,2.854c-0.003,0.048,0,0.096,0.011,0.146c0.183,1.057,0.857,1.592,2.012,1.592
					c0.16,0,0.321-0.01,0.479-0.018c0.127-0.007,0.247-0.018,0.36-0.018c0.072,0,0.146,0.004,0.207,0.018
					c0.596,0.109,0.715,0.466,0.812,1.629c0.02,0.184,0.031,0.362,0.055,0.54c0.325,2.649,0.522,5.698-0.492,8.213
					c-0.674,1.655-1.988,2.565-3.707,2.565c-0.231,0-0.478-0.02-0.723-0.053c-3.259-0.451-3.421-3.095-3.298-7.072
					c0.016-0.484,0.037-0.967,0.062-1.451c0.052-1.205,0.104-2.449,0.07-3.684c-0.018-0.611,0.063-0.748,0.07-0.764
					c0.026-0.005,0.232-0.02,0.379-0.027c0.375-0.027,0.887-0.064,1.483-0.314c0.876-0.364,1.271-0.854,1.185-1.454
					c-0.247-1.669-5.146-2.491-5.194-2.498c-0.545-0.055-1.266-0.116-2.014-0.116c-2.207,0-3.646,0.532-4.408,1.633
					c-0.416,0.596-0.518,1.24-0.272,1.771c0.238,0.527,0.789,0.872,1.507,0.947c0.786,0.078,0.921,0.246,0.932,0.268
					c0.087,0.129-0.073,0.684-0.188,1.088c-0.089,0.301-0.189,0.645-0.271,1.021c-1.19,5.549,1.034,10.896,5.677,13.622
					c1.798,1.058,3.884,1.638,5.872,1.638c2.548,0,4.655-0.936,6.103-2.701c2.093-2.557,2.072-5.938,1.873-9.188
					c-0.021-0.338-0.044-0.676-0.068-1.018c-0.104-1.479-0.212-3.01-0.019-4.464c0.227-0.157,0.628-0.188,1.049-0.22
					c0.74-0.053,1.75-0.127,2.198-1.102c0.197-0.433,0.161-0.896-0.104-1.312C166.538,139.662,163.376,138.887,160.796,138.887
					L160.796,138.887z"/>
			</g>
			<g>
				<g>
					<path fill="#125C72" d="M178.277,160.307c-0.813,0-1.638-0.045-2.448-0.132c-1.647-0.176-3.23-0.538-4.706-1.075
						c-0.098-0.031-0.17-0.113-0.196-0.213c-0.163-0.635-0.119-1.133,0.137-1.529c0.376-0.58,1.126-0.771,1.738-0.871
						c1.938-0.323,1.503-6.938,1.27-10.487c-0.065-0.991-0.122-1.847-0.122-2.396c-0.068-0.053-0.599-0.222-0.951-0.328
						c-0.907-0.289-1.938-0.613-2.105-1.422c-0.123-0.578,0.252-1.244,1.145-2.028c0.489-0.433,3.658-0.443,4.021-0.443
						c6.807,0,14.926,1.757,17.299,6.687c1.024,2.127,1.137,4.231,0.331,6.266c-1.077,2.727-3.855,5.165-7.424,6.529
						C183.78,159.807,181.017,160.307,178.277,160.307z M179.893,156.029c4.604,0,7.483-2.993,7.955-5.955
						c0.421-2.65-1.062-4.803-3.97-5.752c-0.595-0.19-2.319-0.536-3.647-0.536c-1.073,0-1.372,0.221-1.381,0.351
						c-0.066,1.008,0.125,3.424,0.328,5.982c0.172,2.18,0.351,4.429,0.372,5.906C179.666,156.027,179.893,156.029,179.893,156.029z"
						/>
				</g>
				<path fill="#125C72" d="M176.05,139.691c5.286,0,14.448,1.166,17.021,6.507c2.756,5.718-1.835,10.424-6.924,12.368
					c-2.5,0.953-5.191,1.428-7.871,1.428c-0.81,0-1.614-0.043-2.416-0.126c-1.575-0.173-3.144-0.519-4.636-1.06
					c-0.358-1.379,0.438-1.82,1.625-2.017c2.771-0.466,1.404-10.504,1.404-13.188c-0.078-0.84-5.253-0.699-2.02-3.545
					C172.441,139.879,173.937,139.691,176.05,139.691 M179.892,156.342c8.339,0,11.684-9.83,4.081-12.312
					c-0.67-0.219-2.411-0.555-3.742-0.555c-0.931,0-1.66,0.16-1.69,0.643c-0.132,1.975,0.699,9.169,0.699,12.209
					C179.46,156.335,179.679,156.342,179.892,156.342 M176.05,139.066c-1.091,0-3.688,0.053-4.223,0.523
					c-0.627,0.551-1.439,1.395-1.245,2.322c0.209,0.988,1.38,1.357,2.319,1.654c0.23,0.074,0.561,0.181,0.735,0.26
					c0.015,0.554,0.063,1.32,0.118,2.188c0.183,2.702,0.655,9.885-1.009,10.164c-0.676,0.108-1.504,0.328-1.949,1.01
					c-0.301,0.469-0.354,1.063-0.174,1.776c0.052,0.198,0.198,0.356,0.393,0.429c1.5,0.541,3.105,0.91,4.782,1.09
					c0.818,0.088,1.652,0.131,2.479,0.131c2.779,0,5.576-0.51,8.094-1.467c3.647-1.394,6.489-3.901,7.602-6.705
					c0.839-2.114,0.725-4.307-0.341-6.518C190.565,139.562,179.4,139.066,176.05,139.066L176.05,139.066z M179.155,144.243
					c0.098-0.05,0.381-0.147,1.078-0.147c1.292,0,2.975,0.334,3.551,0.523c2.748,0.898,4.153,2.922,3.76,5.404
					c-0.447,2.83-3.22,5.693-7.648,5.693c-0.016,0-0.024,0-0.038,0c-0.04-1.482-0.206-3.586-0.368-5.628
					C179.3,147.729,179.106,145.281,179.155,144.243L179.155,144.243z"/>
			</g>
			<g>
				<g>
					<path fill="#125C72" d="M203.812,159.812c-1.986,0-3.729-0.127-5.327-0.392c-0.127-0.022-0.229-0.114-0.254-0.241
						c-0.174-0.854-0.064-1.533,0.334-2.018c0.442-0.549,1.226-0.826,2.318-0.826c0.124,0,0.249,0.004,0.374,0.012v-11.134
						c0-1.927-0.244-1.927-0.561-1.927l-0.474,0.011c-0.475,0-1.115-0.073-1.876-0.659c-0.064-0.05-0.105-0.113-0.116-0.189
						c-0.125-0.639,0.011-1.205,0.401-1.68c1.204-1.459,4.536-1.574,5.528-1.574c0.155,0,0.294,0.005,0.414,0.007
						c1.275,0.044,3.128,0.207,4.499,1.161c0.431,0.303,1.198,1.205,1.025,1.924c-0.064,0.27-0.279,0.605-0.935,0.693
						c-2.521,0.347-2.513,1.024-2.486,3.545c0.003,0.319,0.008,0.66,0.005,1.029c-0.009,1.076,0.021,2.151,0.044,3.229
						c0.022,1.044,0.049,2.115,0.042,3.188c0.15,0.096,0.252,0.4,0.252,1.344c0,0.287-0.007,0.551-0.062,0.74
						c0.295,0.252,0.74,0.332,1.204,0.414c0.648,0.111,1.382,0.242,1.796,0.848c0.401,0.586,0.494,1.088,0.279,1.502
						c-0.449,0.859-2.022,0.934-3.596,0.938c-0.189,0-0.354,0-0.476,0.008C205.394,159.792,204.604,159.812,203.812,159.812
						L203.812,159.812z"/>
				</g>
				<path fill="#125C72" d="M204.162,139.505c0.151,0,0.287,0.002,0.406,0.005c1.439,0.051,3.114,0.26,4.33,1.108
					c0.604,0.424,1.593,1.868,0.229,2.052c-3.146,0.43-2.736,1.598-2.75,4.879c-0.021,2.729,0.17,5.454,0.042,8.182
					c0,0.018,0,0.026-0.003,0.043c0.003,0.007,0.003,0.009,0.006,0.014c0.056,0.163,0.103,0.255,0.138,0.286
					c0.643,0.975,2.474,0.432,3.152,1.424c1.505,2.196-2.479,1.911-3.548,1.952c-0.781,0.031-1.564,0.056-2.354,0.056
					c-1.771,0-3.545-0.104-5.278-0.385c-0.392-1.92,0.845-2.47,2.35-2.47c0.226,0,0.451,0.014,0.686,0.033c0-3.826,0-7.646,0-11.471
					c0-2.042-0.283-2.238-0.871-2.238c-0.138,0-0.297,0.016-0.471,0.016c-0.445,0-1.013-0.072-1.691-0.602
					C198.056,139.891,202.275,139.505,204.162,139.505 M206.594,154.238c0.121,0,0.196,1.845,0,1.845
					c-0.011,0-0.021-0.005-0.029-0.015c-0.057-0.086-0.104-0.183-0.141-0.289c0-0.002-0.003-0.006-0.003-0.012
					c0-0.015,0-0.026,0-0.041C206.475,154.621,206.539,154.238,206.594,154.238 M204.162,138.884c-1.314,0-4.51,0.163-5.765,1.687
					c-0.447,0.544-0.61,1.214-0.469,1.937c0.025,0.147,0.106,0.283,0.229,0.377c0.836,0.646,1.544,0.728,2.067,0.728
					c0.103,0,0.194-0.002,0.284-0.004c0.067-0.004,0.13-0.008,0.188-0.008c0.047,0,0.077,0.004,0.098,0.004
					c0.054,0.104,0.149,0.459,0.149,1.611v10.812c-0.021,0-0.042,0-0.062,0c-1.192,0-2.058,0.314-2.562,0.938
					c-0.457,0.564-0.588,1.33-0.396,2.275c0.052,0.252,0.255,0.444,0.509,0.485c1.613,0.268,3.375,0.396,5.376,0.396
					c0.749,0,1.524-0.021,2.383-0.056c0.115-0.004,0.274-0.004,0.459-0.004c1.669-0.004,3.342-0.092,3.869-1.104
					c0.272-0.523,0.173-1.135-0.296-1.822c-0.487-0.712-1.327-0.861-2.001-0.979c-0.354-0.062-0.693-0.121-0.921-0.244
					c0.019-0.159,0.028-0.361,0.028-0.602c0-0.555,0-1.158-0.249-1.475c0.003-1.043-0.021-2.064-0.045-3.07
					c-0.021-1.058-0.053-2.146-0.044-3.218c0.003-0.37-0.002-0.715-0.007-1.032c-0.024-2.479-0.029-2.93,2.224-3.235
					c0.868-0.115,1.116-0.634,1.188-0.931c0.226-0.927-0.694-1.933-1.146-2.252c-1.438-1.002-3.354-1.173-4.668-1.215
					C204.466,138.887,204.321,138.884,204.162,138.884L204.162,138.884z"/>
			</g>
		</g>
		<g>
			<g>
				<g>
					<g>
						<path fill="#125C72" d="M171.83,107.725c-0.076,0-0.149-0.025-0.209-0.082c-0.729-0.668-0.531-1.598-0.356-2.42
							c0.128-0.604,0.25-1.174-0.006-1.529c-0.19-0.272-0.627-0.451-1.284-0.531c-0.106-0.016-0.199-0.08-0.243-0.18
							c-0.045-0.099-0.038-0.209,0.021-0.301c0.607-0.937,1.225-1.037,1.671-1.117c0.454-0.078,0.706-0.121,0.706-1.758
							c0-0.119,0.069-0.229,0.184-0.281c0.042-0.021,0.086-0.025,0.128-0.025c0.074,0,0.146,0.023,0.206,0.077
							c0.433,0.38,0.641,0.853,0.825,1.269c0.272,0.612,0.428,0.906,0.947,0.906c0.185,0,0.407-0.037,0.666-0.111
							c0.025-0.009,0.058-0.015,0.086-0.015c0.122,0,0.235,0.074,0.284,0.19c0.063,0.146,0.007,0.314-0.13,0.393
							c-0.449,0.264-0.727,0.607-0.843,1.057c-0.213,0.815,0.104,1.953,0.953,3.385c0.071,0.121,0.054,0.271-0.044,0.373
							c-0.062,0.063-0.142,0.097-0.223,0.097c-0.054,0-0.104-0.015-0.151-0.041c-0.28-0.156-0.554-0.332-0.812-0.502
							c-0.52-0.339-1.011-0.656-1.337-0.656c-0.343,0-0.59,0.519-0.731,1.544c-0.018,0.112-0.097,0.209-0.203,0.247
							C171.899,107.721,171.864,107.725,171.83,107.725z"/>
					</g>
					<path fill="#125C72" d="M172.439,99.811c0.94,0.836,0.729,2.252,1.979,2.252c0.205,0,0.452-0.037,0.752-0.125
						c-1.849,1.074-0.904,3.346,0,4.867c-0.901-0.511-1.696-1.201-2.302-1.201c-0.487,0-0.851,0.448-1.039,1.812
						c-1.45-1.333,1.618-4.14-1.816-4.562C171.276,100.902,172.439,103.087,172.439,99.811 M172.439,99.188
						c-0.087,0-0.173,0.021-0.257,0.058c-0.223,0.104-0.365,0.319-0.365,0.567c0,1.203-0.173,1.379-0.18,1.388
						c-0.03,0.021-0.175,0.046-0.267,0.062c-0.45,0.075-1.202,0.203-1.884,1.252c-0.115,0.18-0.131,0.407-0.041,0.604
						c0.09,0.191,0.276,0.326,0.487,0.354c0.552,0.068,0.932,0.211,1.068,0.404c0.173,0.244,0.063,0.771-0.046,1.285
						c-0.182,0.857-0.408,1.925,0.451,2.713c0.114,0.107,0.265,0.165,0.419,0.165c0.069,0,0.142-0.015,0.211-0.037
						c0.217-0.077,0.37-0.272,0.402-0.499c0.146-1.059,0.373-1.273,0.425-1.273c0.235,0,0.753,0.338,1.168,0.606
						c0.264,0.174,0.541,0.354,0.825,0.515c0.098,0.058,0.202,0.08,0.308,0.08c0.163,0,0.322-0.062,0.443-0.188
						c0.196-0.197,0.232-0.51,0.089-0.751c-0.788-1.334-1.108-2.427-0.918-3.15c0.093-0.358,0.319-0.646,0.697-0.862
						c0.271-0.154,0.382-0.49,0.259-0.783c-0.101-0.231-0.326-0.377-0.569-0.377c-0.059,0-0.114,0.008-0.173,0.022
						c-0.229,0.063-0.424,0.103-0.579,0.103c-0.301,0-0.382-0.09-0.664-0.721c-0.188-0.425-0.424-0.951-0.902-1.375
						C172.735,99.24,172.589,99.188,172.439,99.188L172.439,99.188z"/>
				</g>
				<g>
					<g>
						<path fill="#125C72" d="M188.798,107.734c-0.236,0-0.396-0.207-0.737-0.662c-0.351-0.465-0.999-1.328-1.451-1.328
							c-0.312,0-0.609,0.521-0.823,1.436c-0.033,0.135-0.146,0.233-0.29,0.237c-0.002,0.003-0.007,0.003-0.014,0.003
							c-0.132,0-0.251-0.085-0.293-0.213c-0.268-0.792-0.039-1.598,0.183-2.374c0.336-1.2,0.5-1.97-0.382-2.649
							c-0.125-0.097-0.153-0.272-0.077-0.406c0.062-0.096,0.162-0.146,0.271-0.146c0.042,0,0.086,0.009,0.127,0.022
							c0.256,0.117,0.478,0.178,0.66,0.178c0.69,0,0.87-0.936,1.025-2.062c0.02-0.133,0.117-0.233,0.248-0.265
							c0.021-0.003,0.041-0.004,0.061-0.004c0.109,0,0.215,0.06,0.271,0.156c0.218,0.38,0.336,0.812,0.452,1.226
							c0.253,0.908,0.43,1.418,1.154,1.418c0.143,0,0.308-0.021,0.485-0.06c0.022-0.007,0.046-0.009,0.068-0.009
							c0.13,0,0.25,0.082,0.294,0.209c0.05,0.149-0.021,0.312-0.162,0.384c-2.042,0.972-1.212,3.44-0.759,4.46
							c0.054,0.121,0.021,0.262-0.07,0.354C188.981,107.693,188.878,107.734,188.798,107.734L188.798,107.734z"/>
					</g>
					<path fill="#125C72" d="M187.304,99.811c0.62,1.09,0.419,2.804,1.878,2.804c0.159,0,0.347-0.021,0.556-0.066
						c-1.845,0.88-1.753,2.972-0.91,4.868c-0.007,0.007-0.02,0.014-0.027,0.014c-0.246,0-1.271-1.992-2.188-1.992
						c-0.425,0-0.83,0.429-1.126,1.676c-0.574-1.721,1.541-3.742-0.301-5.174c0.308,0.143,0.564,0.205,0.79,0.205
						C186.98,102.143,187.163,100.843,187.304,99.811 M187.304,99.188c-0.038,0-0.079,0.006-0.118,0.015
						c-0.264,0.053-0.462,0.264-0.496,0.526c-0.128,0.947-0.28,1.795-0.719,1.795c-0.099,0-0.271-0.023-0.532-0.15
						c-0.083-0.035-0.17-0.057-0.257-0.057c-0.212,0-0.417,0.105-0.533,0.302c-0.161,0.271-0.095,0.621,0.15,0.813
						c0.729,0.563,0.595,1.185,0.271,2.317c-0.221,0.785-0.472,1.676-0.179,2.56c0.085,0.254,0.322,0.424,0.591,0.424
						c0.009,0,0.018,0,0.025,0c0.275-0.015,0.514-0.205,0.573-0.479c0.256-1.072,0.525-1.197,0.528-1.197
						c0.291,0,0.975,0.907,1.199,1.205c0.381,0.508,0.594,0.786,0.985,0.786c0.159,0,0.344-0.073,0.456-0.183
						c0.19-0.186,0.245-0.465,0.142-0.705c-0.415-0.932-1.186-3.195,0.605-4.051c0.287-0.137,0.425-0.465,0.321-0.767
						c-0.086-0.256-0.328-0.422-0.587-0.422c-0.043,0-0.088,0.009-0.135,0.017c-0.156,0.037-0.303,0.056-0.422,0.056
						c-0.44,0-0.574-0.19-0.854-1.192c-0.114-0.414-0.246-0.881-0.483-1.296C187.733,99.305,187.523,99.188,187.304,99.188
						L187.304,99.188z"/>
				</g>
				<g>
					<g>
						<path fill="#125C72" d="M156.05,114.413c-0.112,0-0.219-0.062-0.274-0.163c-0.378-0.708-0.458-1.43-0.526-2.068
							c-0.124-1.115-0.189-1.728-1.625-1.728c-0.091,0-0.295,0.01-0.301,0.01c-0.137,0-0.258-0.092-0.298-0.226
							c-0.041-0.137,0.02-0.285,0.146-0.357c1.459-0.848,1.422-1.166,1.331-1.941c-0.052-0.448-0.118-1.006,0.032-1.801
							c0.021-0.117,0.108-0.214,0.226-0.242c0.026-0.006,0.056-0.013,0.08-0.013c0.089,0,0.176,0.04,0.234,0.107
							c0.141,0.161,0.271,0.327,0.396,0.489c0.318,0.402,0.644,0.824,0.88,0.824c0.098,0,0.312-0.087,0.651-0.658
							c0.061-0.099,0.16-0.151,0.271-0.151c0.039,0,0.071,0.007,0.108,0.021c0.146,0.06,0.226,0.203,0.193,0.354
							c-0.365,1.799,0.203,3.228,1.687,4.241c0.118,0.078,0.166,0.229,0.119,0.359c-0.041,0.113-0.184,0.379-0.608,0.379l0,0
							c-0.534,0-1.354-0.43-1.769-0.689c-0.439,0.527-0.509,1.418-0.567,2.212c-0.021,0.278-0.041,0.545-0.077,0.778
							c-0.021,0.136-0.12,0.235-0.252,0.264C156.087,114.412,156.067,114.413,156.05,114.413z"/>
					</g>
					<path fill="#125C72" d="M154.838,106.197c0.562,0.652,0.998,1.42,1.512,1.42c0.271,0,0.566-0.225,0.919-0.812
						c-0.367,1.81,0.146,3.413,1.815,4.56c-0.044,0.122-0.159,0.173-0.314,0.173c-0.561,0-1.641-0.637-1.805-0.78
						c-0.894,0.739-0.77,2.343-0.915,3.347c-0.99-1.855,0.22-3.961-2.428-3.961c-0.097,0-0.191,0.004-0.301,0.01
						C155.792,108.721,154.418,108.416,154.838,106.197 M154.838,105.572c-0.054,0-0.104,0.007-0.162,0.021
						c-0.229,0.064-0.4,0.251-0.445,0.487c-0.159,0.84-0.088,1.451-0.037,1.895c0.082,0.703,0.104,0.895-1.183,1.637
						c-0.246,0.146-0.362,0.443-0.281,0.717c0.078,0.268,0.318,0.443,0.594,0.443c0.014,0,0.021,0,0.034,0
						c0.094-0.006,0.183-0.006,0.268-0.006c1.157,0,1.195,0.334,1.316,1.449c0.066,0.633,0.156,1.418,0.562,2.178
						c0.109,0.207,0.32,0.328,0.549,0.328c0.035,0,0.069,0,0.104-0.008c0.265-0.047,0.469-0.258,0.508-0.523
						c0.035-0.238,0.06-0.516,0.076-0.799c0.05-0.642,0.104-1.348,0.354-1.816c0.48,0.271,1.169,0.585,1.674,0.585
						c0.435,0,0.771-0.222,0.899-0.589c0.099-0.27-0.001-0.562-0.232-0.723c-1.371-0.938-1.896-2.26-1.56-3.922
						c0.062-0.3-0.102-0.597-0.386-0.707c-0.073-0.023-0.148-0.041-0.223-0.041c-0.215,0-0.421,0.112-0.535,0.307
						c-0.206,0.35-0.34,0.464-0.395,0.498c-0.146-0.082-0.435-0.444-0.627-0.693c-0.129-0.163-0.264-0.336-0.403-0.501
						C155.187,105.65,155.014,105.572,154.838,105.572L154.838,105.572z"/>
				</g>
				<g>
					<g>
						<path fill="#125C72" d="M204.147,113.797c-0.194,0-0.695,0-0.761-2.441c-0.407,0.009-0.768,0.146-1.146,0.287
							c-0.386,0.151-0.783,0.307-1.264,0.338c-0.007,0-0.016,0-0.021,0c-0.108,0-0.214-0.058-0.27-0.15
							c-0.061-0.104-0.058-0.229,0.007-0.328c0.22-0.331,0.518-0.648,0.829-0.986c1.06-1.139,1.635-1.896,0.725-2.89
							c-0.085-0.091-0.104-0.226-0.058-0.339c0.051-0.111,0.162-0.188,0.283-0.188c0.004,0,0.004,0,0.007,0
							c0.173,0.006,0.349,0.015,0.521,0.023c0.188,0.01,0.37,0.021,0.549,0.021c0.737,0,1.177-0.162,1.354-1.013
							c0.027-0.139,0.146-0.237,0.287-0.246c0.004-0.003,0.011-0.003,0.017-0.003c0.135,0,0.252,0.09,0.295,0.219
							c0.123,0.381,0.119,0.873,0.114,1.396c-0.005,0.696-0.014,1.485,0.328,1.834c0.141,0.144,0.349,0.211,0.631,0.211
							c0,0,0.143-0.004,0.148-0.004c0.095,0,0.188,0.046,0.243,0.118c0.062,0.082,0.083,0.189,0.052,0.289
							c-0.22,0.676-0.89,0.756-1.427,0.824c-0.252,0.028-0.511,0.062-0.681,0.146c0.084,2.577-0.419,2.773-0.61,2.854
							C204.267,113.781,204.185,113.797,204.147,113.797z"/>
					</g>
					<path fill="#125C72" d="M205.209,106.197c0.354,1.08-0.491,3.654,1.37,3.654c0.047,0,0.098-0.002,0.146-0.006
						c-0.273,0.846-1.593,0.41-2.126,0.91c0.007,0.188,0.121,2.512-0.41,2.721c-0.017,0.008-0.028,0.01-0.042,0.01
						c-0.39,0-0.452-2.166-0.456-2.424c0,0,0,0,0.003,0c0-0.021-0.003-0.022-0.003-0.022s0,0.007,0,0.022
						c-0.096-0.017-0.189-0.021-0.276-0.021c-0.905,0-1.541,0.562-2.456,0.626c0.819-1.244,3.081-2.563,1.521-4.254
						c0.36,0.007,0.729,0.038,1.074,0.038C204.327,107.451,204.981,107.277,205.209,106.197 M205.209,105.572
						c-0.011,0-0.019,0-0.032,0c-0.278,0.017-0.518,0.219-0.573,0.494c-0.136,0.647-0.396,0.763-1.048,0.763
						c-0.175,0-0.352-0.011-0.532-0.021c-0.177-0.011-0.355-0.02-0.532-0.021c-0.003,0-0.004,0-0.007,0
						c-0.246,0-0.467,0.146-0.569,0.369c-0.101,0.229-0.057,0.494,0.11,0.677c0.675,0.733,0.425,1.231-0.725,2.465
						c-0.311,0.331-0.629,0.675-0.858,1.028c-0.131,0.197-0.138,0.453-0.021,0.654c0.111,0.19,0.316,0.311,0.537,0.311
						c0.019,0,0.03,0,0.045-0.003c0.526-0.038,0.961-0.207,1.353-0.356c0.26-0.101,0.494-0.189,0.733-0.238
						c0.115,2.412,0.722,2.412,1.057,2.412c0.079,0,0.2-0.021,0.271-0.053c0.437-0.173,0.865-0.66,0.817-2.923
						c0.128-0.022,0.28-0.046,0.399-0.062c0.561-0.063,1.399-0.17,1.684-1.036c0.064-0.195,0.026-0.409-0.102-0.574
						c-0.116-0.149-0.298-0.237-0.488-0.237c-0.016,0-0.027,0.002-0.04,0.002c-0.039,0-0.075,0.002-0.106,0.002
						c-0.293,0-0.383-0.092-0.413-0.121c-0.249-0.252-0.242-1.004-0.234-1.608c0.007-0.55,0.011-1.063-0.128-1.493
						C205.717,105.745,205.476,105.572,205.209,105.572L205.209,105.572z"/>
				</g>
				<g>
					<g>
						<path fill="#125C72" d="M141.291,125.766c-0.261,0-0.528,0-1.269-2.867c-0.021-0.004-0.048-0.004-0.069-0.004
							c-0.231,0-0.45,0.08-0.683,0.16c-0.259,0.094-0.555,0.198-0.898,0.198l0,0c-0.085,0-0.175-0.007-0.267-0.021
							c-0.114-0.021-0.209-0.102-0.246-0.211c-0.036-0.108-0.008-0.23,0.072-0.315c0.641-0.662,1.21-1.272,1.699-1.974l-0.564-2.301
							c-0.032-0.119,0.014-0.25,0.113-0.322c0.057-0.041,0.118-0.064,0.188-0.064c0.055,0,0.106,0.018,0.157,0.044
							c0.396,0.234,0.697,0.535,0.965,0.8c0.241,0.236,0.49,0.484,0.64,0.484c0.077,0,0.3-0.082,0.695-0.854
							c0.054-0.104,0.162-0.168,0.275-0.168c0.021,0,0.038,0.002,0.062,0.006c0.23,0.047,0.397,0.193,0.471,0.42
							c0.153,0.478-0.191,1.271-0.438,1.687c0.146,0.169,0.285,0.345,0.427,0.521c0.572,0.709,1.117,1.384,1.997,1.644
							c0.092,0.026,0.166,0.097,0.2,0.183c0.035,0.092,0.025,0.19-0.021,0.272c-0.112,0.2-0.349,0.438-0.809,0.438
							c-0.288,0-0.6-0.092-0.9-0.18c-0.255-0.072-0.521-0.148-0.718-0.148c0,0-0.009,0.037-0.012,0.062
							c-0.229,1.342-0.453,2.225-0.88,2.469C141.427,125.745,141.344,125.766,141.291,125.766z"/>
					</g>
					<path fill="#125C72" d="M139.365,118.359c0.812,0.486,1.264,1.324,1.761,1.324c0.284,0,0.581-0.267,0.973-1.021
						c0.652,0.128-0.105,1.612-0.307,1.828c0.838,0.909,1.45,2.052,2.729,2.432c-0.119,0.212-0.312,0.281-0.538,0.281
						c-0.484,0-1.138-0.329-1.619-0.329c-0.098,0-0.188,0.018-0.271,0.048c-0.062,0.281-0.312,2.259-0.774,2.521
						c-0.009,0.007-0.021,0.009-0.029,0.009c-0.332,0-1.012-2.818-1.02-2.835c-0.112-0.024-0.221-0.036-0.318-0.036
						c-0.575,0-0.998,0.358-1.58,0.358c-0.071,0-0.144-0.006-0.22-0.019c0.646-0.672,1.286-1.348,1.814-2.134
						C139.767,119.982,139.565,119.17,139.365,118.359 M139.365,117.736c-0.132,0-0.261,0.041-0.372,0.121
						c-0.2,0.149-0.292,0.406-0.229,0.65l0.534,2.159c-0.46,0.638-0.991,1.206-1.591,1.822c-0.159,0.168-0.215,0.407-0.143,0.632
						c0.074,0.221,0.264,0.38,0.493,0.417c0.104,0.019,0.214,0.021,0.312,0.021c0.4,0,0.72-0.113,1.003-0.215
						c0.146-0.056,0.282-0.102,0.412-0.129c0.675,2.579,0.985,2.854,1.502,2.854c0.107,0,0.243-0.032,0.338-0.088
						c0.51-0.289,0.751-1.09,0.992-2.449c0.122,0.025,0.253,0.062,0.38,0.105c0.319,0.092,0.653,0.188,0.986,0.188
						c0.641,0,0.95-0.373,1.077-0.595c0.093-0.166,0.104-0.366,0.034-0.543c-0.068-0.178-0.219-0.312-0.399-0.362
						c-0.788-0.229-1.276-0.837-1.845-1.541c-0.098-0.121-0.192-0.239-0.292-0.359c0.261-0.489,0.529-1.224,0.358-1.745
						c-0.104-0.332-0.362-0.563-0.708-0.631c-0.038-0.008-0.078-0.014-0.118-0.014c-0.229,0-0.441,0.128-0.552,0.34
						c-0.228,0.441-0.377,0.607-0.438,0.665c-0.076-0.062-0.261-0.237-0.4-0.378c-0.267-0.264-0.597-0.587-1.021-0.844
						C139.584,117.768,139.473,117.736,139.365,117.736L139.365,117.736z"/>
				</g>
				<g>
					<g>
						<path fill="#125C72" d="M218.561,125.971c-0.066,0-0.138-0.021-0.19-0.066c-0.076-0.059-0.12-0.146-0.12-0.24v-2.46
							c-0.022-0.003-0.052-0.004-0.079-0.004c-0.316,0-0.626,0.084-0.945,0.17c-0.351,0.097-0.71,0.19-1.115,0.19
							c-0.104,0-0.212-0.006-0.319-0.021c-0.111-0.016-0.209-0.091-0.249-0.197c-0.04-0.109-0.02-0.232,0.061-0.318
							c0.173-0.188,0.328-0.393,0.482-0.596c0.476-0.607,0.958-1.236,1.803-1.541c-0.182-0.716-0.354-1.428-0.529-2.146
							c-0.03-0.118,0.011-0.243,0.104-0.318c0.059-0.043,0.122-0.063,0.191-0.063c0.051,0,0.097,0.014,0.141,0.033
							c0.446,0.229,0.75,0.483,0.992,0.689c0.189,0.152,0.354,0.29,0.446,0.29c0.155,0,0.461-0.302,0.904-0.894
							c0.06-0.078,0.149-0.123,0.249-0.123c0.039,0,0.086,0.011,0.127,0.027c0.229,0.104,0.385,0.289,0.448,0.535
							c0.169,0.623-0.285,1.496-0.515,1.872c0.44,0.625,0.981,1.153,1.62,1.569c0.124,0.082,0.175,0.238,0.117,0.381
							c-0.173,0.42-0.479,0.51-0.705,0.51c-0.23,0-0.46-0.089-0.687-0.173c-0.194-0.072-0.397-0.15-0.559-0.15
							c-0.075,0-0.214,0-0.349,0.275c-0.097,0.19-0.134,0.515-0.172,0.856c-0.085,0.756-0.19,1.691-1.085,1.904
							C218.612,125.969,218.586,125.971,218.561,125.971z"/>
					</g>
					<path fill="#125C72" d="M220.383,118.662c0.735,0.335-0.046,1.763-0.305,2.132c0.48,0.737,1.084,1.345,1.821,1.828
						c-0.103,0.233-0.246,0.315-0.422,0.315c-0.355,0-0.826-0.322-1.24-0.322c-0.242,0-0.463,0.105-0.629,0.447
						c-0.352,0.713-0.016,2.351-1.047,2.602c0-0.914,0-1.829,0-2.739c-0.137-0.024-0.266-0.034-0.394-0.034
						c-0.722,0-1.332,0.359-2.061,0.359c-0.091,0-0.187-0.007-0.277-0.021c0.735-0.819,1.206-1.834,2.426-2.131
						c-0.202-0.81-0.399-1.621-0.604-2.434c0.867,0.445,1.179,1.016,1.579,1.016C219.504,119.682,219.82,119.416,220.383,118.662
						 M220.383,118.044c-0.189,0-0.378,0.086-0.498,0.249c-0.372,0.497-0.565,0.68-0.651,0.74c-0.069-0.047-0.172-0.133-0.249-0.198
						c-0.238-0.203-0.569-0.479-1.046-0.726c-0.09-0.045-0.188-0.065-0.283-0.065c-0.137,0-0.276,0.045-0.385,0.134
						c-0.192,0.147-0.275,0.401-0.222,0.637c0.154,0.629,0.312,1.26,0.472,1.888c-0.774,0.358-1.25,0.979-1.682,1.537
						c-0.15,0.192-0.304,0.392-0.47,0.573c-0.155,0.172-0.2,0.416-0.121,0.633c0.079,0.218,0.272,0.369,0.501,0.4
						c0.124,0.019,0.244,0.022,0.36,0.022c0.445,0,0.845-0.104,1.197-0.2c0.219-0.061,0.429-0.113,0.636-0.145v2.139
						c0,0.189,0.087,0.365,0.232,0.486c0.108,0.086,0.246,0.135,0.387,0.135c0.051,0,0.098-0.008,0.146-0.02
						c1.107-0.265,1.233-1.414,1.32-2.175c0.033-0.282,0.068-0.608,0.142-0.757c0.041-0.084,0.068-0.104,0.068-0.105
						c0.104,0.008,0.287,0.074,0.448,0.138c0.25,0.096,0.51,0.192,0.792,0.192c0.447,0,0.812-0.259,0.994-0.705
						c0.111-0.272,0.014-0.594-0.235-0.754c-0.549-0.359-1.024-0.808-1.416-1.328c0.257-0.478,0.619-1.289,0.442-1.938
						c-0.095-0.334-0.313-0.597-0.625-0.74C220.555,118.059,220.469,118.044,220.383,118.044L220.383,118.044z"/>
				</g>
			</g>
			<g>
				<g>
					<path fill="#125C72" d="M127.694,132.754c-29.314,0-29.314-0.23-29.314-0.699c0-0.272,0-0.272,3.938-0.947
						c3.421-0.584,8.589-1.463,9.29-1.65c4.928-1.312,9.088-2.941,12.717-4.982c2.594-1.459,6.229-3.797,7.87-7.234
						c0.938-1.975,0.938-4.154,0-6.143c-0.153-0.328-1.173-1.63-1.991-2.677c-1.846-2.354-1.842-2.358-1.646-2.614
						c0.063-0.08,0.171-0.156,0.347-0.156c0.43,0,1.381,0.529,2.783,1.332c0.623,0.356,1.267,0.728,1.479,0.793
						c0.794,0.248,1.637,0.373,2.49,0.373c0.903,0,1.826-0.143,2.744-0.41c3.007-0.9,5.655-2.818,8.212-4.674
						c0.858-0.621,1.708-1.236,2.562-1.812c1.42-0.955,3.314-2.16,5.395-3.003c2.002-0.812,1.639-2.864,1.251-5.041l-0.021-0.118
						c-0.062-0.38-0.59-1.886-1.146-3.483c-2.259-6.467-2.371-7.224-1.85-7.418c0.032-0.012,0.096-0.022,0.132-0.022
						c0.56,0,1.63,1.553,6.191,10.378c0.443,0.863,0.771,1.495,0.9,1.721c0.218,0.385,0.376,0.719,0.506,0.998
						c0.34,0.723,0.438,0.896,0.87,0.896c0.24,0,0.582-0.062,1.073-0.191c1.454-0.395,2.989-0.739,4.699-1.062
						c2.345-0.441,4.872-0.809,7.958-1.156c0.484-0.055,0.907-0.059,1.279-0.062c1.165-0.006,1.52-0.006,1.672-1.465
						c0.15-1.459,0.275-2.992,0.386-4.699c0.203-3.246,0.314-6.561,0.425-9.764c0,0,0.019-0.711,0.026-1.208
						c0.232-12.538,0.781-13.559,1.418-13.559c0.502,0.023,0.854,0.04,1.144,15.106c0.021,1.097,0.035,1.902,0.049,2.219
						c0.124,2.967,0.259,5.935,0.401,8.896c0.021,0.506,0.032,0.954,0.041,1.354c0.037,2.177,0.044,2.629,2.719,3.021
						c0.934,0.139,1.872,0.271,2.805,0.401c2.225,0.313,4.525,0.635,6.771,1.041c0.682,0.125,1.273,0.272,1.804,0.401
						c0.756,0.191,1.352,0.338,1.88,0.338c0.795,0,1.54-0.328,2.569-1.924c0.243-0.38,0.923-1.748,1.707-3.332
						c3.324-6.718,4.284-8.354,4.875-8.354c0.032,0,0.084,0.007,0.109,0.015c0.613,0.205,0.48,1.165-1.663,7.979
						c-0.595,1.887-1.155,3.673-1.216,4.178c-0.281,2.482,0.118,2.652,1.452,3.213c0.485,0.203,1.088,0.458,1.792,0.874
						c1.751,1.039,3.326,2.329,5.061,3.786c0.546,0.46,1.139,1.016,1.771,1.604c2.447,2.28,5.497,5.121,8.454,5.121
						c0.625,0,2.941-1.271,4.805-2.291c2.481-1.354,4.032-2.179,4.665-2.179c0.307,0,0.422,0.181,0.456,0.261
						c0.083,0.2,0.083,0.2-0.842,1.219c-1.127,1.242-3.771,4.146-4.039,4.8c-0.66,1.598-0.641,3.403,0.054,5.071
						c1.384,3.289,4.636,5.652,6.958,7.146c7.39,4.742,12.875,7.654,26.756,8.158c0.186,0.01,0.562,0.023,0.562,0.361
						c-0.007,0.709-5.8,1.045-5.859,1.047c-2.867,0.065-5.739,0.11-8.62,0.144c-3.921,0.047-7.839,0.062-11.76,0.062
						c-2.42,0-4.841-0.006-7.263-0.016l-7.249-0.033c-4.923-0.021-9.843-0.046-14.762-0.046c-3.438,0-6.874,0.011-10.305,0.042
						h-0.003c-0.067,0-0.139-0.023-0.191-0.063c-0.546-0.435-0.739-1.429-0.933-2.396c-0.104-0.554-0.213-1.076-0.363-1.414
						c-2.142-4.595-7.487-7.342-14.308-7.342c-3.458,0-6.972,0.76-9.643,2.083c-2.181,1.083-3.908,2.571-4.997,4.308
						c-0.143,0.229-0.501,1.279-0.817,2.207c-0.858,2.521-0.931,2.617-1.236,2.617h-2.471c-0.867,0-2.929,0.008-5.801,0.018
						C149.055,132.716,138.185,132.754,127.694,132.754z M203.367,127.841c2.678,0.205,5.624,0.302,9.222,0.302
						c1.979,0,3.958-0.025,5.938-0.059c1.758-0.021,3.519-0.048,5.273-0.052c0.012,0,1.007,0,1.01,0
						c1.793,0,7.768,0.004,10.457,0.021c-3.731-2.305-9.467-7.396-11.537-10.347c-0.951-1.371-2.067-2.603-3.317-3.673
						c-0.908,0.843-1.953,1.645-3.265,2.505c-1.173,0.767-2.44,1.491-3.67,2.192C209.424,121.046,205.242,123.438,203.367,127.841z
						 M157.001,128.073c-2.225-5.688-10.469-10.13-14.943-12.54c-1.16-0.626-2.053-1.106-2.582-1.463
						c-0.781,1.035-1.642,2.312-2.543,3.666c-2.604,3.888-5.749,8.593-9.174,10.337H157.001z M162.363,125.134
						c-0.392,0-1.055,0.484-1.337,0.978c-0.104,0.178-0.143,0.332-0.098,0.404c0.044,0.08,0.229,0.162,0.611,0.162
						c0.26,0,0.579-0.039,0.954-0.111c0.25-0.979,0.102-1.287,0.044-1.355C162.512,125.172,162.469,125.134,162.363,125.134z
						 M198.409,124.502c-0.265,0-0.538,0.168-0.778,0.48c-0.294,0.375-0.401,0.688-0.311,0.877c0.091,0.188,0.418,0.315,0.805,0.315
						c0.498,0,0.941-0.2,1.006-0.46c0.084-0.338,0.021-0.681-0.172-0.925C198.816,124.609,198.616,124.502,198.409,124.502z
						 M151.758,115.922c2.56,1.283,4.72,2.344,6.942,3.352c0.462,0.207,0.914,0.443,1.354,0.668
						c1.053,0.545,2.045,1.062,2.881,1.062c0.526,0,1.313-0.181,2.028-1.727c1.809-3.908-0.664-8.53-2.646-12.245l-0.521-0.979
						c-0.282-0.541-0.506-1.121-0.725-1.683c-0.526-1.367-0.979-2.545-2.029-2.545c-0.227,0-0.479,0.054-0.762,0.149
						c-2.661,0.961-4.977,1.961-7.076,3.049c-3.586,1.871-6.43,3.977-8.677,6.418c2.716,1.218,5.413,2.566,8.021,3.873
						L151.758,115.922z M200.806,101.514c-0.444,1.592-1.453,3.476-2.518,5.457c-2.538,4.737-5.41,10.109-1.834,13.582
						c0.269,0.26,0.649,0.383,1.168,0.383c2.062,0,5.531-2.037,7.828-3.389c0.743-0.438,1.383-0.812,1.849-1.05
						c3.559-1.808,6.895-3.504,10.52-5.063C213.848,107.046,208.276,103.797,200.806,101.514z M191.056,118.289
						c-0.062,0-0.245,0-0.351,0.343c-0.214,0.728-0.221,1.296-0.021,1.567c0.104,0.132,0.263,0.195,0.5,0.195
						c0.147,0,0.328-0.024,0.526-0.082c0.409-0.617,0.258-1.145,0.128-1.408C191.637,118.505,191.286,118.289,191.056,118.289z
						 M169.623,118.051c-0.11,0-0.267,0.016-0.351,0.102c-0.057,0.055-0.082,0.139-0.082,0.248c0,0.533,0.64,1.384,1.396,1.384
						v0.312l0.013-0.312c0.05-0.04,0.107-0.362-0.061-0.835C170.391,118.535,170.062,118.051,169.623,118.051z M179.824,118.052
						c0.771,0,1.287-0.192,1.535-0.575c0.629-0.973-0.343-3.151-0.986-4.598c-0.033-0.068-0.062-0.146-0.095-0.214
						c-0.135,0.354-0.297,0.722-0.464,1.099c-0.654,1.478-1.33,3.006-0.338,4.106c0.083,0.067,0.147,0.128,0.207,0.181
						C179.732,118.051,179.778,118.052,179.824,118.052z M182.618,104.909c0.041,4.5,0.479,9.856,4.711,11.312
						c0.003,0,0.005,0,0.007,0c1.171,0,3.104-3.998,4.146-6.15c0.424-0.871,0.786-1.627,1.05-2.068
						c1.435-2.41,3.051-5.126,4.229-8.005c-1.131-0.199-2.259-0.422-3.389-0.646c-3.411-0.668-6.944-1.363-10.49-1.363
						c-0.124,0-0.249,0-0.375,0.003c0.057,1.122,0.074,2.243,0.094,3.362l0.012,0.609
						C182.638,104.068,182.645,104.693,182.618,104.909z M163.898,100.162c-0.231,1.265,2.129,5.109,3.42,7.217
						c0.422,0.686,0.784,1.281,1.023,1.714c0.26,0.46,0.546,1.067,0.848,1.714c1.034,2.204,2.448,5.229,4.127,5.229
						c0.34,0,0.693-0.128,1.054-0.383c3.487-2.473,3.541-8.364,3.582-13.1c0.014-1.568,0.026-3.058,0.153-4.309
						c-0.646-0.057-1.312-0.083-1.988-0.083c-4.195,0-8.506,1.079-11.973,1.942L163.898,100.162z"/>
				</g>
				<path fill="#125C72" d="M180.34,63.299c0.679,0.03,0.812,15.346,0.885,17.028c0.123,2.967,0.255,5.932,0.398,8.897
					c0.167,3.301-0.438,4.157,3.022,4.67c3.188,0.471,6.395,0.862,9.563,1.439c1.656,0.305,2.784,0.746,3.739,0.746
					c0.988,0,1.8-0.477,2.829-2.064c0.785-1.221,5.515-11.548,6.322-11.547c0.01,0,0.017,0.001,0.023,0.003
					c0.738,0.246-2.934,10.375-3.104,11.819c-0.417,3.661,0.731,2.812,3.396,4.396c1.796,1.062,3.42,2.414,5.017,3.754
					c2.689,2.279,6.569,6.797,10.425,6.797c1.367,0,8.243-4.473,9.469-4.473c0.091,0,0.149,0.026,0.174,0.076
					c0.021,0.049-4.489,4.812-4.883,5.772c-0.714,1.721-0.66,3.6,0.053,5.311c1.327,3.16,4.277,5.493,7.076,7.289
					c7.812,5.015,13.452,7.724,26.91,8.209c1.512,0.068-3.96,0.753-5.294,0.787c-2.867,0.065-5.738,0.11-8.616,0.144
					c-3.918,0.045-7.839,0.062-11.757,0.062c-2.423,0-4.841-0.004-7.263-0.017c-7.341-0.026-14.681-0.078-22.016-0.078
					c-3.438,0-6.876,0.011-10.306,0.041c-0.744-0.588-0.77-2.742-1.209-3.694c-2.475-5.317-8.579-7.521-14.586-7.521
					c-3.548,0-7.064,0.77-9.778,2.115c-2.041,1.012-3.901,2.473-5.123,4.422c-0.354,0.558-1.564,4.676-1.792,4.676
					c-0.817,0-1.648,0-2.471,0c-2.856,0-18.703,0.078-33.76,0.078c-14.889,0-29.004-0.072-29.004-0.387
					c0-0.039,11.861-1.998,12.997-2.302c4.422-1.179,8.792-2.767,12.786-5.015c3.104-1.746,6.416-4.061,7.997-7.368
					c0.987-2.066,0.981-4.347,0-6.412c-0.329-0.708-3.776-4.832-3.672-4.972c0.021-0.021,0.058-0.034,0.104-0.034
					c0.632,0,3.557,1.92,4.169,2.11c0.847,0.267,1.714,0.391,2.586,0.391c0.949,0,1.902-0.148,2.831-0.424
					c4.06-1.215,7.398-4.202,10.857-6.526c1.688-1.136,3.442-2.202,5.335-2.968c2.275-0.924,1.827-3.229,1.424-5.506
					c-0.192-1.129-3.771-10.342-3.196-10.558c0.011-0.003,0.02-0.004,0.022-0.004c0.805,0.001,6.192,10.822,6.824,11.943
					c0.771,1.349,0.746,2.05,1.646,2.05c0.275,0,0.645-0.064,1.15-0.201c1.543-0.417,3.106-0.764,4.681-1.061
					c2.624-0.49,5.275-0.852,7.936-1.15c2.007-0.227,2.983,0.462,3.224-1.802c0.163-1.569,0.288-3.144,0.388-4.713
					c0.209-3.32,0.316-6.64,0.431-9.964C179.256,76.281,179.353,63.299,180.34,63.299 M182.298,101.969
					c-0.005-0.111-0.005-0.164-0.005-0.164s0,0.24,0.012,0.588c0.022,4.619-0.378,12.306,4.924,14.123
					c0.062,0.021,0.13,0.032,0.197,0.032c1.69,0,4.35-6.67,5.37-8.392c1.619-2.719,3.232-5.452,4.395-8.405
					c-4.77-0.815-9.451-2.077-14.312-2.077c-0.231,0-0.468,0.006-0.698,0.012C182.257,99.111,182.27,100.538,182.298,101.969
					 M164.074,99.799c0.507-0.125,1.286-0.32,1.286-0.32s-0.337,0.084-1.312,0.328c-0.132,0.03-0.265,0.062-0.396,0.099l0,0l0,0l0,0
					l0,0l0,0c-0.662,1.569,3.284,7.3,4.422,9.34c1.151,2.058,2.843,7.103,5.242,7.103c0.392,0,0.802-0.136,1.231-0.438
					c4.872-3.45,3.276-12.903,3.905-17.944c-0.78-0.076-1.557-0.111-2.335-0.111C172.051,97.85,168.008,98.814,164.074,99.799
					 M197.625,121.249c2.812,0,7.856-3.479,9.818-4.474c3.589-1.824,7.113-3.619,10.895-5.229
					c-4.631-5.28-11.125-8.438-17.752-10.428c-1.251,5.296-9.737,14.424-4.344,19.657
					C196.585,121.105,197.058,121.249,197.625,121.249 M150.656,115.719c-0.498-0.251-0.689-0.346-0.69-0.346
					c-0.003,0,2.028,1.02,2.031,1.02c0,0-0.106-0.055-0.378-0.188c2.298,1.149,4.606,2.291,6.952,3.354
					c1.608,0.729,3.089,1.758,4.361,1.758c0.88,0,1.657-0.49,2.312-1.907c2.041-4.413-1.172-9.685-3.173-13.498
					c-0.991-1.888-1.283-4.396-3.029-4.396c-0.255,0-0.542,0.055-0.863,0.174c-2.426,0.873-4.816,1.869-7.115,3.062
					c-3.359,1.754-6.524,3.956-9.056,6.805C144.937,112.85,147.793,114.284,150.656,115.719 M179.262,118.093
					c-0.167-0.139-0.352-0.28-0.359-0.28s0.146,0.137,0.631,0.543c0.104,0.004,0.198,0.011,0.29,0.011
					c3.878,0,1.21-4.565,0.404-6.604C179.818,113.689,177.62,116.307,179.262,118.093 M212.589,128.453
					c3.959,0,7.92-0.109,11.87-0.109c1.244,0,10.754,0.008,11.999,0.034c-3.55-1.842-10.221-7.637-12.476-10.854
					c-1.01-1.455-2.218-2.771-3.583-3.907c-1.048,1.005-2.216,1.868-3.423,2.659c-5.104,3.334-11.689,5.682-14.057,11.841
					C206.138,128.378,209.362,128.453,212.589,128.453 M125.92,128.385c8.438,0,23.085,0,31.524,0
					c-2.599-7.723-16.061-13.156-18.031-14.744C135.965,118.078,131.18,127.458,125.92,128.385 M170.588,120.096
					c-0.02,0-0.355,0-0.355,0S170.317,120.096,170.588,120.096C170.589,120.096,170.589,120.096,170.588,120.096
					C170.589,120.096,170.589,120.096,170.588,120.096c0.802,0,0.238-2.356-0.965-2.356
					C168.12,117.736,169.132,120.096,170.588,120.096 M191.184,120.709c0.202,0,0.441-0.04,0.719-0.125
					c0.062-0.084,0.084-0.107,0.084-0.107s-0.081,0.105-0.084,0.107c0.957-1.289-0.062-2.604-0.847-2.604
					c-0.279,0-0.525,0.168-0.646,0.564C190.069,119.71,190.166,120.709,191.184,120.709 M198.126,126.488
					c0.584,0,1.193-0.243,1.309-0.694c-0.001,0.007-0.001,0.007-0.001,0.007l0.049-0.188c0,0-0.011,0.044-0.045,0.173
					c0.207-0.837-0.336-1.597-1.023-1.597c-0.334,0-0.697,0.18-1.023,0.603C196.469,125.962,197.269,126.488,198.126,126.488
					 M161.544,126.989c0.309,0,0.703-0.05,1.202-0.157c-0.003,0-0.101,0.021-0.101,0.021l0,0l0,0c0,0,0.025-0.006,0.101-0.021
					c0.427-1.502,0.117-2.01-0.383-2.01C161.328,124.822,159.464,126.989,161.544,126.989 M164.074,99.799
					c-0.204,0.049-0.363,0.092-0.409,0.104c0.144-0.033,0.271-0.066,0.385-0.096C164.06,99.803,164.067,99.802,164.074,99.799
					 M163.665,99.898L163.665,99.898L163.665,99.898 M163.665,99.898c-0.001,0-0.003,0-0.004,0.002
					C163.664,99.898,163.664,99.898,163.665,99.898 M163.661,99.9L163.661,99.9L163.661,99.9 M163.661,99.9L163.661,99.9
					L163.661,99.9 M163.661,99.9L163.661,99.9L163.661,99.9 M163.661,99.9L163.661,99.9L163.661,99.9 M163.661,99.9
					c-0.001,0-0.001,0-0.003,0C163.658,99.9,163.66,99.9,163.661,99.9 M163.657,99.9L163.657,99.9L163.657,99.9 M163.657,99.9
					c-0.002,0-0.003,0.002-0.004,0.002l0,0l0,0l0,0l0,0l0,0C163.654,99.902,163.655,99.9,163.657,99.9 M182.298,101.969
					c0.029,2.141,0.04,2.861,0.04,2.861c-0.001,0-0.022-1.561-0.033-2.438C182.3,102.246,182.3,102.107,182.298,101.969
					 M150.656,115.719c0.438,0.219,0.751,0.377,0.963,0.483C151.299,116.04,150.977,115.878,150.656,115.719 M179.262,118.093
					c0.153,0.132,0.301,0.263,0.271,0.263l0,0C179.435,118.271,179.344,118.182,179.262,118.093 M191.903,120.584L191.903,120.584
					 M199.435,125.789c0,0.002-0.003,0.005-0.003,0.005S199.432,125.791,199.435,125.789 M162.746,126.83L162.746,126.83
					L162.746,126.83 M224.801,128.344c0,0-0.15,0-0.342,0C224.707,128.344,224.801,128.344,224.801,128.344 M224.459,128.344
					c-0.47,0-0.633,0-0.633,0S224.176,128.344,224.459,128.344 M180.34,62.676c-0.818,0-1.469,0-1.729,13.866
					c-0.009,0.494-0.016,0.847-0.021,1.011l-0.007,0.192c-0.107,3.2-0.224,6.51-0.424,9.753c-0.104,1.697-0.233,3.232-0.386,4.684
					c-0.123,1.183-0.217,1.183-1.364,1.19c-0.377,0.003-0.807,0.004-1.309,0.062c-3.102,0.351-5.636,0.717-7.981,1.158
					c-1.719,0.324-3.265,0.674-4.727,1.071c-0.455,0.123-0.78,0.182-0.99,0.182c-0.232,0-0.253,0-0.589-0.715
					c-0.131-0.274-0.292-0.621-0.521-1.022c-0.122-0.217-0.462-0.873-0.894-1.705c-5.199-10.059-5.82-10.548-6.467-10.55
					c0,0,0,0-0.001,0c-0.068,0-0.162,0.017-0.227,0.039c-0.825,0.309-0.78,0.863,1.647,7.814c0.525,1.516,1.073,3.082,1.136,3.436
					l0.021,0.119c0.438,2.473,0.62,4.02-1.062,4.702c-2.104,0.854-4.019,2.063-5.448,3.029c-0.864,0.575-1.729,1.207-2.57,1.813
					c-2.537,1.844-5.162,3.747-8.118,4.629c-0.892,0.267-1.784,0.401-2.654,0.401c-0.826,0-1.634-0.122-2.399-0.36
					c-0.179-0.056-0.864-0.449-1.416-0.767c-1.625-0.935-2.446-1.373-2.936-1.373l0,0c-0.31,0-0.489,0.151-0.571,0.246
					c-0.368,0.483-0.368,0.483,1.626,3.026c0.726,0.926,1.817,2.322,1.953,2.615c0.902,1.902,0.902,3.989,0.003,5.877
					c-1.603,3.356-5.187,5.658-7.74,7.096c-3.606,2.027-7.742,3.647-12.646,4.955c-0.69,0.186-5.851,1.062-9.263,1.645
					c-1.042,0.178-1.964,0.335-2.621,0.45c-1.429,0.244-1.574,0.271-1.574,0.805c0,0.798,0,0.828,9.531,0.937
					c4.773,0.051,11.537,0.076,20.093,0.076c10.49,0,21.427-0.039,27.961-0.062c2.871-0.012,4.933-0.019,5.8-0.019h2.469
					c0.568,0,0.679-0.32,1.533-2.832c0.276-0.812,0.657-1.93,0.784-2.137c1.057-1.688,2.743-3.14,4.874-4.197
					c2.627-1.303,6.091-2.049,9.503-2.049c6.694,0,11.937,2.676,14.026,7.162c0.136,0.297,0.239,0.826,0.341,1.342
					c0.201,1.021,0.408,2.071,1.044,2.576c0.105,0.086,0.245,0.135,0.384,0.135c0.003,0,0.004,0,0.007,0
					c3.044-0.029,6.318-0.041,10.299-0.041c4.917,0,9.922,0.021,14.758,0.045c2.42,0.012,4.836,0.022,7.255,0.031
					c2.422,0.01,4.84,0.015,7.263,0.015c4.316,0,8.164-0.019,11.764-0.06c2.895-0.031,5.796-0.078,8.626-0.146
					c0.67-0.019,2.172-0.177,3.28-0.318c2.512-0.319,2.874-0.405,2.878-1.034c0.005-0.287-0.142-0.646-0.854-0.676
					c-13.808-0.501-19.263-3.398-26.604-8.113c-2.291-1.465-5.493-3.789-6.841-7.002c-0.663-1.596-0.681-3.312-0.049-4.834
					c0.248-0.604,2.96-3.58,3.979-4.707c1.062-1.162,1.062-1.162,0.903-1.543c-0.136-0.298-0.409-0.457-0.747-0.457
					c-0.685,0-1.991,0.674-4.812,2.219c-1.64,0.896-4.112,2.25-4.654,2.25c-2.837,0-5.835-2.791-8.244-5.035
					c-0.631-0.588-1.228-1.145-1.781-1.61c-1.744-1.468-3.331-2.771-5.1-3.819c-0.726-0.429-1.34-0.688-1.831-0.895
					c-1.288-0.539-1.518-0.641-1.264-2.896c0.058-0.471,0.641-2.325,1.205-4.114c2.215-7.041,2.395-8.059,1.476-8.365
					c-0.062-0.021-0.152-0.034-0.219-0.034c-0.707,0-1.263,0.662-5.154,8.528c-0.781,1.575-1.455,2.938-1.688,3.3
					c-0.961,1.482-1.596,1.782-2.312,1.782c-0.488,0-1.071-0.146-1.805-0.328c-0.528-0.132-1.129-0.282-1.826-0.407
					c-2.252-0.406-4.555-0.73-6.78-1.043c-0.935-0.132-1.872-0.261-2.804-0.398c-2.412-0.357-2.418-0.578-2.453-2.723
					c-0.008-0.402-0.014-0.855-0.042-1.365c-0.143-2.961-0.272-5.927-0.397-8.891c-0.017-0.318-0.028-1.121-0.051-2.215
					c-0.295-15.357-0.603-15.373-1.423-15.41C180.36,62.676,180.349,62.676,180.34,62.676L180.34,62.676z M182.831,98.3
					c0.02,0,0.034,0,0.049,0c3.52,0,7.034,0.69,10.433,1.357c0.986,0.192,1.999,0.394,3.013,0.575
					c-1.157,2.729-2.691,5.309-4.058,7.604c-0.272,0.458-0.641,1.216-1.065,2.096c-0.79,1.639-2.894,5.99-3.773,5.99
					c-4.057-1.389-4.46-6.665-4.5-11.082c0.026-0.374,0.02-1.145-0.01-2.878c0-0.003,0-0.005,0-0.01l-0.01-0.604
					C182.889,100.352,182.872,99.322,182.831,98.3L182.831,98.3z M164.22,100.404c0-0.002,0.002-0.002,0.003-0.002
					c4.234-1.059,8.051-1.933,11.896-1.933c0.557,0,1.112,0.021,1.65,0.061c-0.104,1.194-0.113,2.575-0.127,4.021
					c-0.041,4.662-0.094,10.469-3.449,12.846c-0.312,0.22-0.597,0.326-0.877,0.326c-1.479,0-2.902-3.041-3.844-5.053
					c-0.307-0.648-0.595-1.264-0.855-1.734c-0.245-0.438-0.612-1.035-1.035-1.724c-1.038-1.694-3.369-5.493-3.396-6.802l0.021-0.008
					c0.001,0,0.004,0,0.005,0h0.009V100.404z M197.625,120.625c-0.435,0-0.743-0.098-0.949-0.297
					c-3.409-3.307-0.595-8.567,1.892-13.212c1.005-1.873,1.961-3.658,2.449-5.214c7.082,2.205,12.421,5.293,16.276,9.418
					c-3.479,1.514-6.696,3.152-10.098,4.882c-0.515,0.261-1.157,0.639-1.901,1.075C203.028,118.611,199.604,120.625,197.625,120.625
					L197.625,120.625z M143.052,111.341c2.179-2.286,4.898-4.266,8.301-6.036c2.087-1.084,4.39-2.074,7.035-3.033
					c0.244-0.088,0.467-0.133,0.655-0.133c0.796,0,1.183,0.891,1.74,2.346c0.22,0.572,0.448,1.16,0.738,1.716
					c0.167,0.315,0.342,0.646,0.521,0.979c1.952,3.655,4.381,8.201,2.641,11.969c-0.637,1.369-1.271,1.545-1.75,1.545
					c-0.763,0-1.724-0.498-2.738-1.023c-0.44-0.229-0.896-0.465-1.368-0.68c-2.22-1.002-4.374-2.062-6.925-3.342
					c-0.002,0-0.002,0-0.003-0.002l-0.961-0.483c-0.001,0-0.004-0.001-0.004-0.001l-0.243-0.121
					C148.205,113.797,145.641,112.51,143.052,111.341L143.052,111.341z M179.693,117.646c-0.78-0.887-0.346-2.065,0.402-3.761
					c0.063-0.146,0.129-0.288,0.19-0.431c0.568,1.303,1.288,3.107,0.812,3.85c-0.188,0.288-0.615,0.436-1.275,0.436
					c-0.007,0-0.014,0-0.021,0C179.769,117.709,179.732,117.677,179.693,117.646L179.693,117.646z M203.834,127.562
					c1.913-4.059,5.918-6.345,9.796-8.562c1.231-0.704,2.509-1.434,3.688-2.202c1.228-0.806,2.227-1.562,3.099-2.348
					c1.147,1.009,2.175,2.159,3.062,3.432c1.931,2.75,7.004,7.339,10.731,9.854c-2.961-0.014-7.811-0.016-9.393-0.016
					c-0.007,0-0.008,0-0.016,0h-0.34h-0.635c-0.011,0-0.021,0-0.035,0c-1.761,0.004-3.541,0.027-5.268,0.053
					c-1.946,0.025-3.957,0.057-5.935,0.057C209.196,127.829,206.384,127.742,203.834,127.562L203.834,127.562z M128.89,127.76
					c3.104-2.094,5.927-6.306,8.298-9.851c0.835-1.248,1.629-2.437,2.358-3.42c0.554,0.346,1.355,0.778,2.361,1.319
					c4.327,2.328,12.203,6.578,14.624,11.953L128.89,127.76L128.89,127.76z M169.51,118.366c0.018,0,0.055-0.007,0.112-0.007
					c0.186,0,0.343,0.188,0.423,0.303c0.18,0.249,0.271,0.559,0.291,0.768c-0.267-0.089-0.488-0.304-0.632-0.505
					c-0.186-0.267-0.214-0.485-0.201-0.559C169.504,118.366,169.506,118.366,169.51,118.366L169.51,118.366z M191.184,120.086
					c-0.128,0-0.213-0.023-0.248-0.072c-0.083-0.109-0.159-0.507,0.067-1.291c0.026-0.099,0.062-0.125,0.062-0.125
					c0.088,0.004,0.34,0.143,0.496,0.449c0.117,0.23,0.19,0.579-0.045,0.995C191.391,120.072,191.279,120.086,191.184,120.086
					L191.184,120.086z M198.126,125.869c-0.313,0-0.501-0.104-0.523-0.146c-0.012-0.029,0.01-0.213,0.271-0.546
					c0.188-0.235,0.372-0.362,0.538-0.362c0.149,0,0.257,0.106,0.305,0.17c0.137,0.17,0.18,0.412,0.118,0.654l0,0
					c0,0,0,0.002-0.002,0.004C198.802,125.71,198.529,125.869,198.126,125.869L198.126,125.869z M161.25,126.343
					c0.127-0.311,0.711-0.839,1.062-0.893c0.021,0.101,0.042,0.344-0.067,0.847c-0.271,0.049-0.504,0.069-0.698,0.069
					C161.403,126.366,161.308,126.354,161.25,126.343L161.25,126.343z"/>
			</g>
		</g>
		<g>
			<g>
				<g>
					<g>
						<path fill="#125C72" d="M109.623,124.729c-8.152,0-16.381-2.971-23.158-8.359c-19.979-15.893-28.359-42.854-34.409-69.676
							c-4.268,1.496-8.754,2.401-13.093,3.277c-4.091,0.826-8.318,1.68-12.339,3.026c-2.63,0.881-15.672,5.676-14.064,13.604
							c0.693,3.461,4.289,5.273,7.479,5.271c1.038,0,2.054-0.189,2.938-0.545c1.782-0.719,2.638-2.009,2.343-3.54
							c-0.273-1.415-1.615-2.876-3.391-2.876c-0.864,0-1.735,0.369-2.517,1.068c-0.061,0.053-0.133,0.08-0.206,0.08
							c-0.055,0-0.104-0.014-0.156-0.042c-0.112-0.065-0.175-0.2-0.146-0.333c0.485-2.373,2.422-3.85,5.05-3.85
							c2.968,0,6.238,1.934,6.57,5.171c0.222,2.143-0.33,3.968-1.642,5.421c-1.854,2.062-5.285,3.292-9.181,3.292
							c-0.592,0-1.18-0.03-1.746-0.089c-5.627-0.594-12.008-3.964-11.468-11.52c0.403-5.53,4.967-10.344,13.569-14.308
							c4.961-2.287,10.362-3.691,15.593-5.048c3.525-0.915,7.174-1.861,10.637-3.068c9.618-3.353,19.454-7.621,29.231-12.688
							c1.398-0.725,2.914-1.454,4.518-2.226c5.884-2.832,12.55-6.042,16.417-10.489c1.626-1.869,2.105-3.812,1.354-5.466
							c-0.723-1.587-2.545-2.738-4.336-2.738c-1.771,0-2.957,1.083-3.255,2.97c-0.021,0.152-0.152,0.264-0.307,0.264
							c-0.009,0-0.017-0.001-0.022-0.001c-0.16-0.012-0.285-0.148-0.285-0.311C89.599,9.135,90.08,7.52,90.99,6.33
							c0.919-1.2,2.229-1.86,3.69-1.86c1.145,0,2.344,0.387,3.566,1.151c4.661,2.918,6.185,8.956,3.464,13.744
							c-3.168,5.557-9.728,8.677-15.515,11.427c-1.475,0.701-2.867,1.366-4.178,2.05c-1.96,1.026-4.191,1.911-6.354,2.767
							c-4.05,1.605-8.235,3.264-11.222,6.011c-4.198,3.863-1.438,13.384,0.05,18.5l0.331,1.149
							c2.224,7.883,4.789,15.191,7.62,21.725c6.756,15.636,13.678,29.093,30.019,35.382c2.01,0.772,4.308,1.183,6.644,1.183
							c4.434,0,8.278-1.49,10.562-4.093c1.277-3.573-0.375-5.407-2.286-7.532c-0.923-1.027-1.878-2.09-2.562-3.418
							c-0.056-0.109-0.041-0.244,0.039-0.343c0.062-0.069,0.146-0.11,0.238-0.11c0.028,0,0.061,0.006,0.091,0.017
							c5.648,1.739,11.104,6.358,9.732,12.394c-1.278,5.586-6.84,7.305-10.042,7.836
							C113.159,124.584,111.391,124.729,109.623,124.729z"/>
					</g>
					<path fill="#125C72" d="M94.674,4.782c1.035,0,2.188,0.344,3.401,1.104c4.538,2.841,5.999,8.678,3.358,13.326
						c-3.9,6.838-12.979,9.913-19.565,13.355c-5.561,2.91-12.985,4.539-17.639,8.824c-4.671,4.297-1.135,14.93,0.291,19.963
						c2.081,7.377,4.584,14.73,7.633,21.765c6.03,13.961,13.06,28.956,30.188,35.546c2.009,0.774,4.368,1.204,6.756,1.204
						c4.092,0,8.256-1.27,10.834-4.241c2.024-5.567-2.765-7.212-4.845-11.258c5.104,1.571,10.896,5.981,9.521,12.028
						c-1.067,4.678-5.412,6.877-9.788,7.596c-1.729,0.288-3.466,0.424-5.199,0.424c-8.308,0-16.503-3.152-22.969-8.295
						C65.914,99.626,57.846,71.058,52.276,46.28c-8.354,2.997-17.346,3.603-25.751,6.416c-5.492,1.839-15.744,6.697-14.271,13.963
						c0.709,3.538,4.314,5.521,7.783,5.521c1.061,0,2.105-0.185,3.055-0.568c4.664-1.882,2.261-7.016-1.161-7.016
						c-0.876,0-1.817,0.335-2.726,1.147c0.511-2.504,2.553-3.601,4.745-3.601c2.85,0.001,5.95,1.857,6.263,4.89
						c0.628,6.111-5.404,8.371-10.511,8.371c-0.586,0-1.162-0.029-1.713-0.088c-6.114-0.64-11.682-4.337-11.191-11.185
						c0.506-6.928,7.747-11.447,13.39-14.046c8.279-3.818,17.601-5.106,26.196-8.104c10.052-3.502,19.822-7.808,29.275-12.705
						c6.559-3.4,16.062-7.08,21.025-12.788c4.15-4.777,0.18-8.72-3.219-8.72c-1.672,0-3.2,0.954-3.562,3.234
						C89.902,7.346,91.849,4.782,94.674,4.782 M94.674,4.158c-1.562,0-2.959,0.703-3.938,1.982
						c-0.953,1.245-1.456,2.926-1.452,4.859c0,0.325,0.248,0.594,0.571,0.62c0.016,0,0.032,0.001,0.048,0.001
						c0.303,0,0.567-0.221,0.614-0.525c0.27-1.721,1.345-2.708,2.945-2.708c1.677,0,3.384,1.076,4.057,2.556
						c0.489,1.088,0.667,2.862-1.309,5.133c-3.824,4.399-10.462,7.595-16.315,10.414c-1.606,0.774-3.124,1.503-4.527,2.229
						c-9.763,5.058-19.585,9.323-29.188,12.669c-3.451,1.204-7.094,2.148-10.614,3.064c-5.24,1.358-10.659,2.766-15.645,5.065
						C11.207,53.531,6.584,58.43,6.174,64.083c-0.521,7.283,5.523,11.199,11.744,11.851c0.578,0.061,1.179,0.092,1.779,0.092
						c3.979,0,7.495-1.27,9.409-3.398c1.372-1.521,1.947-3.425,1.719-5.66c-0.351-3.411-3.774-5.45-6.882-5.45c0,0,0,0-0.001,0
						c-2.785,0-4.835,1.571-5.354,4.098c-0.053,0.264,0.067,0.531,0.301,0.666c0.099,0.056,0.202,0.082,0.312,0.082
						c0.148,0,0.298-0.053,0.412-0.158c0.736-0.657,1.512-0.989,2.311-0.989c1.613,0,2.836,1.334,3.085,2.625
						c0.266,1.37-0.521,2.534-2.152,3.192c-0.849,0.342-1.821,0.523-2.821,0.523c-3.062,0-6.513-1.727-7.175-5.021
						c-1.554-7.672,11.272-12.382,13.861-13.25c3.994-1.338,8.216-2.189,12.3-3.014c4.236-0.856,8.616-1.74,12.803-3.175
						c6.058,26.766,14.475,53.627,34.444,69.51c6.835,5.438,15.128,8.432,23.354,8.432c1.785,0,3.569-0.146,5.303-0.434
						c3.275-0.539,8.975-2.311,10.293-8.068c1.413-6.229-4.162-10.979-9.942-12.764c-0.062-0.021-0.122-0.026-0.185-0.026
						c-0.183,0-0.356,0.08-0.478,0.228c-0.159,0.19-0.19,0.461-0.073,0.687c0.702,1.364,1.671,2.438,2.605,3.481
						c1.911,2.123,3.423,3.806,2.246,7.164c-2.229,2.51-5.975,3.942-10.292,3.942c-2.302,0-4.559-0.401-6.53-1.164
						c-16.229-6.239-23.116-19.642-29.846-35.212c-2.825-6.52-5.383-13.816-7.604-21.686c-0.101-0.358-0.213-0.742-0.332-1.153
						c-1.463-5.049-4.194-14.451-0.139-18.184c2.94-2.707,7.104-4.356,11.128-5.951c2.165-0.858,4.405-1.745,6.38-2.779
						c1.307-0.681,2.694-1.343,4.165-2.043c5.828-2.771,12.434-5.913,15.65-11.555c2.802-4.934,1.231-11.154-3.571-14.162
						C97.132,4.562,95.879,4.158,94.674,4.158L94.674,4.158z"/>
				</g>
			</g>
			<g>
				<g>
					<path fill="#125C72" d="M252.033,124.381c-2.454,0-4.849-0.288-7.114-0.863c-2.836-0.713-7.81-2.701-9.252-7.965
						c-0.688-2.504-0.142-5.13,1.541-7.391c1.979-2.653,5.177-4.342,8.354-4.408c0.003,0,0.005,0,0.007,0
						c0.136,0,0.257,0.094,0.295,0.223c0.042,0.135-0.012,0.278-0.129,0.355c-2.558,1.611-4.551,4.249-5.082,6.715
						c-0.357,1.666-0.076,3.207,0.832,4.585c1.923,2.91,5.529,3.521,8.217,3.521c2.324,0,4.961-0.465,7.233-1.276
						c10.781-3.86,20.422-14.272,28.646-30.949c4.464-9.06,5.901-16.416,4.657-23.857c-1.129-6.778-3.922-13.096-8.309-18.779
						c-3.723-4.831-8.297-9.045-12.723-13.122l-1.484-1.373c-0.729-0.675-1.514-1.364-2.315-2.068
						c-4.422-3.881-9.431-8.281-9.531-13.985c-0.038-2.209,0.847-4.351,2.491-6.03c1.689-1.721,3.959-2.75,6.077-2.75
						c3.275,0,5.298,2.368,5.404,6.333c0.006,0.167-0.122,0.308-0.291,0.318c-0.004,0.001-0.013,0.001-0.02,0.001
						c-0.159,0-0.294-0.12-0.308-0.279c-0.19-1.883-1.309-2.965-3.062-2.965c-2.321,0-5.005,1.911-5.122,4.467
						c-0.193,4.318,5.025,7.579,8.481,9.736l0.643,0.402c0.946,0.598,1.899,1.175,2.851,1.749c4.034,2.441,7.841,4.748,10.953,8.366
						c2.326,2.713,4.195,5.813,6.005,8.812c1.838,3.047,3.733,6.193,6.105,8.906c0.837-3.423,2.363-12.351-3.074-16.754
						c-0.128-0.105-0.15-0.29-0.056-0.423c0.062-0.084,0.155-0.13,0.253-0.13c0.06,0,0.112,0.017,0.165,0.049
						c7.452,4.742,16.37,6.991,24.992,9.167c3.059,0.771,6.22,1.568,9.226,2.458c10.367,3.073,21.668,7.28,24.532,18.38
						c0.829,3.198,0.387,6.026-1.276,8.181c-2.021,2.62-5.844,4.183-10.218,4.183c-2.27,0-4.499-0.42-6.448-1.217
						c-2.43-0.992-4.424-2.87-5.212-4.902c-0.574-1.482-0.515-3.042,0.182-4.507c0.85-1.804,2.573-2.797,4.855-2.797
						c2.231,0,4.819,0.968,6.443,2.409c0.082,0.074,0.121,0.188,0.098,0.295c-0.021,0.108-0.101,0.199-0.202,0.233
						c-0.387,0.13-0.979,0.247-1.667,0.38c-1.759,0.34-4.413,0.859-4.905,2.034c-0.17,0.412-0.062,0.897,0.322,1.484
						c1.185,1.783,3.071,2.805,5.176,2.805c0.628,0,1.258-0.092,1.879-0.272c2.604-0.757,4.399-2.466,5.062-4.812
						c0.744-2.645-0.087-5.717-2.177-8.021c-5.461-6.018-14.22-7.399-22.691-8.737c-4.816-0.762-9.376-1.482-13.377-2.993
						c-0.938,3.125-1.842,6.305-2.798,9.669c-6.271,22.045-13.374,47.034-32.362,60.589
						C266.731,121.896,259.159,124.381,252.033,124.381z"/>
				</g>
				<path fill="#125C72" d="M264.445,5.272c2.668,0,4.979,1.753,5.097,6.03c-0.229-2.299-1.7-3.243-3.37-3.243
					c-2.438,0-5.306,2.006-5.431,4.764c-0.217,4.785,5.847,8.257,9.267,10.415c4.881,3.077,9.911,5.608,13.729,10.053
					c4.809,5.603,7.545,12.707,12.503,18.157c1.479-5.528,1.931-13.617-3.03-17.639c10.181,6.478,22.91,8.29,34.298,11.662
					c9.813,2.907,21.44,7.001,24.318,18.159c2.109,8.144-4.453,11.974-11.191,11.974c-2.188,0-4.396-0.403-6.333-1.193
					c-3.436-1.407-6.74-5.025-4.868-8.992c0.892-1.893,2.657-2.617,4.575-2.617c2.28,0,4.771,1.026,6.24,2.332
					c-1.794,0.605-8.677,0.95-6.406,4.364c1.27,1.909,3.279,2.941,5.437,2.941c0.646,0,1.31-0.092,1.963-0.284
					c6.354-1.846,7.105-8.845,3.032-13.338c-8.661-9.545-25.308-7.554-36.5-11.933c-7.271,24.102-13.318,54.831-35.142,70.413
					c-5.848,4.174-13.27,6.771-20.597,6.771c-2.375,0-4.743-0.274-7.041-0.854c-4.081-1.03-7.857-3.479-9.027-7.746
					c-1.59-5.782,3.906-11.288,9.604-11.405c-3.688,2.328-7.17,7.455-4.341,11.738c1.8,2.725,5.103,3.66,8.476,3.66
					c2.625,0,5.299-0.566,7.338-1.297c13.418-4.803,22.785-18.863,28.821-31.104c3.793-7.7,6.128-15.435,4.688-24.045
					c-1.159-6.954-4.072-13.353-8.366-18.918c-4.152-5.387-9.271-9.93-14.244-14.534c-4.716-4.359-11.633-9.24-11.747-15.83
					C256.102,8.843,260.635,5.272,264.445,5.272 M264.445,4.65c-2.197,0-4.554,1.062-6.298,2.845
					c-1.703,1.737-2.619,3.958-2.578,6.252c0.104,5.844,5.169,10.291,9.639,14.215c0.815,0.715,1.583,1.391,2.311,2.062l1.484,1.373
					c4.415,4.069,8.981,8.274,12.688,13.085c4.351,5.642,7.125,11.912,8.246,18.64c1.23,7.371-0.198,14.671-4.631,23.67
					c-8.19,16.601-17.771,26.958-28.474,30.787c-2.241,0.805-4.839,1.264-7.131,1.264c-2.612,0-6.111-0.587-7.959-3.381
					c-0.862-1.304-1.127-2.771-0.788-4.348c0.516-2.39,2.455-4.948,4.943-6.521c0.237-0.146,0.345-0.438,0.266-0.702
					c-0.081-0.268-0.318-0.443-0.598-0.443c-0.002,0-0.007,0-0.011,0c-3.273,0.062-6.564,1.804-8.598,4.529
					c-1.741,2.344-2.307,5.062-1.595,7.662c1.488,5.411,6.574,7.449,9.477,8.184c2.291,0.58,4.717,0.873,7.193,0.873
					c7.188,0,14.827-2.508,20.959-6.885c19.075-13.619,26.197-38.664,32.479-60.756c0.924-3.247,1.798-6.326,2.7-9.347
					c3.953,1.444,8.416,2.148,13.126,2.894c8.418,1.329,17.122,2.704,22.514,8.641c2.016,2.223,2.819,5.184,2.104,7.725
					c-0.63,2.239-2.354,3.872-4.849,4.596c-0.593,0.173-1.196,0.261-1.792,0.261c-2.001,0-3.794-0.972-4.92-2.667
					c-0.486-0.731-0.343-1.076-0.294-1.19c0.426-1.021,3.087-1.541,4.679-1.849c0.694-0.136,1.295-0.252,1.703-0.39
					c0.211-0.071,0.366-0.25,0.41-0.466c0.045-0.218-0.033-0.443-0.196-0.59c-1.673-1.488-4.35-2.487-6.649-2.487
					c-2.406,0-4.231,1.055-5.136,2.974c-0.729,1.545-0.797,3.189-0.188,4.755c0.816,2.106,2.878,4.054,5.383,5.078
					c1.986,0.81,4.258,1.241,6.565,1.241c4.473,0,8.385-1.608,10.467-4.304c1.721-2.234,2.181-5.156,1.326-8.449
					c-2.902-11.259-14.294-15.506-24.743-18.602c-3.014-0.892-6.179-1.689-9.237-2.461c-8.597-2.17-17.492-4.412-24.902-9.128
					c-0.104-0.064-0.218-0.097-0.332-0.097c-0.191,0-0.384,0.091-0.505,0.259c-0.189,0.268-0.145,0.64,0.113,0.848
					c4.178,3.386,4.379,10.198,3.104,15.847c-2.176-2.585-3.951-5.537-5.682-8.401c-1.814-3.009-3.688-6.12-6.033-8.853
					c-3.142-3.657-7.147-6.082-11.025-8.429c-0.944-0.573-1.898-1.15-2.846-1.747l-0.643-0.401
					c-3.396-2.121-8.521-5.322-8.337-9.458c0.107-2.386,2.629-4.17,4.812-4.17c0.928,0,2.519,0.35,2.752,2.686
					c0.031,0.32,0.302,0.56,0.617,0.56c0.016,0,0.027-0.001,0.041-0.002c0.335-0.021,0.589-0.304,0.582-0.638
					C270.05,7.131,267.91,4.65,264.445,4.65L264.445,4.65z"/>
			</g>
			<g>
				<g>
					<g>
						<path fill="#125C72" d="M131.553,100.842c-3.733,0-6.831-5.058-7.688-6.605c-2.354-4.247-3.698-8.98-5-13.561
							c-1.314-4.633-2.673-9.423-5.079-13.659c-0.092-0.164-0.396-0.255-0.831-0.255c-2.117,0-6.729,2.035-8.549,4.119
							c-0.537,0.615-0.779,1.167-0.714,1.637l0.251,1.836c0.589,4.246,1.197,8.634,0.744,12.962
							c-0.568,5.504-3.408,8.785-7.596,8.785h-0.163c-4.003-0.078-9.215-2.719-10.658-6.836c-0.049-0.143,0.007-0.293,0.134-0.371
							c0.049-0.026,0.104-0.043,0.159-0.043c0.085,0,0.169,0.037,0.229,0.104c1.323,1.463,3.05,2.237,4.992,2.237
							c4.08,0,8.146-3.344,8.873-7.303c0.996-5.414-1.632-10.451-4.171-15.32c-1.063-2.041-2.163-4.15-2.946-6.218
							c-2.311-6.099-1.204-14.245,5.389-18.009c2.024-1.158,4.065-1.796,5.747-1.796c1.948,0,3.442,0.801,4.438,2.382
							c1.304,2.08,2.199,4.386,3.064,6.618c0.587,1.512,1.188,3.068,1.918,4.544c2.183-8.087-1.158-19.098-9.756-22.597
							c-0.108-0.045-0.187-0.152-0.189-0.274c-0.006-0.122,0.058-0.233,0.166-0.291c1.639-0.865,3.312-1.301,4.968-1.301
							c6.147,0,11.333,5.8,16.344,11.409c3.079,3.443,5.996,6.707,8.933,8.384c-0.752-2.13-1.711-4.276-2.641-6.361
							c-2.229-5.001-4.538-10.171-4.374-15.727c0.316-10.869,14.983-12.367,19.472-12.567c0.532-0.025,1.067-0.036,1.604-0.036
							c11.259,0,22.042,5.009,27.475,12.763c4.137,5.905,4.904,12.954,2.226,20.386c-2.78,7.717-8.973,12.143-16.99,12.145
							c-2.749,0-5.579-0.533-8.413-1.586c-8.635-3.208-14.987-12.143-15.812-22.235c-0.377-4.574,1.626-7.797,3.369-9.696
							c2.77-3.015,6.987-4.887,11.014-4.887c5.394,0,9.366,3.215,10.628,8.601c0.029,0.137-0.032,0.278-0.155,0.345
							c-0.046,0.025-0.098,0.037-0.146,0.037c-0.082,0-0.162-0.031-0.225-0.095c-3.015-3.133-5.954-4.721-8.743-4.721
							c-1.844,0-3.662,0.7-5.408,2.085c-0.82,0.649-1.566,1.521-2.058,2.121c-3.203,3.907-3.22,9.445-0.041,14.11
							c2.644,3.882,7.155,6.2,12.07,6.2c3.706,0,7.219-1.326,9.893-3.734c4.892-4.408,4.005-12.352,1.108-17.868
							c-3.172-6.053-10.248-9.814-18.472-9.814c-4.903,0-9.499,1.41-12.94,3.97c-4.975,3.702-5.915,10.173-2.8,19.234
							c2.559,7.441,7.397,14.755,14.787,22.355c0.095,0.099,0.113,0.247,0.051,0.367c-0.057,0.102-0.161,0.162-0.272,0.162
							c-0.021,0-0.042-0.001-0.062-0.005c-9.188-1.818-15.256-8.343-21.123-14.652c-2.837-3.046-5.756-6.188-9.016-8.788
							c3.894,6.896,6.606,14.428,9.057,21.587c1.02,2.963,1.996,5.937,2.973,8.911l1.222,3.703c0.676,2.061,1.366,4.117,2.077,6.167
							c0.023,0.076,0.021,0.16-0.015,0.231c-1,2.177-1.604,4.494-1.795,6.892c-0.014,0.144-0.121,0.26-0.261,0.285
							c-0.018,0-0.033,0.002-0.05,0.002c-0.125,0-0.238-0.072-0.286-0.191c-2.258-5.363-4.058-11-5.795-16.451
							c-2.077-6.514-4.225-13.237-7.169-19.536c-2.237,10.245,2.495,20.668,7.141,29.671c0.79,1.53,1.595,3.051,2.401,4.567
							l1.252,2.368c0.34,0.654,0.542,1.396,0.733,2.109c0.285,1.043,0.557,2.03,1.224,2.775c0.409,0.457,0.782,0.697,1.08,0.697
							c0.213,0,0.405-0.125,0.601-0.383c1.119-1.496,1.227-6.138,0.951-7.072c-0.042-0.143,0.021-0.293,0.154-0.359
							c0.045-0.021,0.093-0.037,0.143-0.037c0.093,0,0.184,0.041,0.243,0.114c1.483,1.835,2.216,4.471,1.856,6.719
							c-0.262,1.648-1.088,2.97-2.388,3.812C133.169,100.594,132.373,100.842,131.553,100.842
							C131.554,100.842,131.554,100.842,131.553,100.842z M105.002,48.882c-1.995,0-4.771,3.368-6.548,6.256
							c-1.371,2.226-1.004,3.21-0.123,5.591l0.129,0.349c0.494,1.348,1.228,3.051,2.519,4.279c0.121,0.116,0.33,0.174,0.628,0.174
							c2.354,0,8.146-3.543,9.204-4.204c-0.438-3.431-1.39-8.297-4.45-11.774C105.963,49.102,105.518,48.882,105.002,48.882z"/>
					</g>
					<path fill="#125C72" d="M148.626,17.038c17.679,0,36.55,12.921,29.408,32.733c-2.882,7.992-9.325,11.939-16.698,11.939
						c-2.688,0-5.496-0.524-8.306-1.567c-8.949-3.324-14.847-12.625-15.609-21.968c-0.698-8.5,7.051-14.248,14.072-14.248
						c4.635,0,8.952,2.501,10.323,8.36c-3.441-3.58-6.438-4.816-8.967-4.816c-2.244,0-4.115,0.975-5.604,2.151
						c-0.79,0.628-1.52,1.456-2.102,2.169c-3.484,4.25-3.076,10.05-0.06,14.482c2.839,4.169,7.563,6.335,12.326,6.335
						c3.615,0,7.252-1.248,10.102-3.814c5.087-4.586,4.057-12.751,1.175-18.243c-3.457-6.599-11.146-9.981-18.744-9.981
						c-4.767,0-9.496,1.329-13.129,4.032c-6.317,4.703-5.194,12.935-2.905,19.584c2.941,8.556,8.613,16.049,14.856,22.472
						c-14.044-2.782-20.513-16.452-31.253-24.333c4.251,7.139,7.136,15.053,9.816,22.887c1.438,4.191,2.799,8.406,4.19,12.611
						c0.676,2.062,1.365,4.12,2.077,6.168c-1.018,2.208-1.63,4.571-1.825,6.995c-5.065-12.032-7.673-25.007-13.35-36.796
						c-2.73,10.633,2.188,21.483,6.965,30.744c1.198,2.327,2.434,4.625,3.651,6.939c0.806,1.545,0.801,3.609,2.003,4.95
						c0.502,0.562,0.938,0.803,1.312,0.803c1.955,0,2.216-6.601,1.853-7.853c2.214,2.729,2.942,7.865-0.457,10.068
						c-0.735,0.479-1.475,0.686-2.194,0.686c-3.181,0-6.063-3.996-7.422-6.442c-4.723-8.521-5.276-18.773-10.076-27.224
						c-0.162-0.286-0.558-0.412-1.103-0.412c-2.865,0-9.918,3.494-9.568,6.11c0.648,4.854,1.506,9.814,0.996,14.726
						c-0.441,4.26-2.481,8.506-7.284,8.506c-0.056,0-0.105,0-0.16,0c-3.946-0.079-8.995-2.709-10.37-6.629
						c1.48,1.645,3.339,2.346,5.224,2.346c4.137,0,8.408-3.376,9.178-7.561c1.442-7.845-4.518-14.797-7.133-21.705
						c-2.389-6.309-0.924-14.102,5.252-17.628c1.704-0.974,3.737-1.756,5.597-1.756c1.644,0,3.149,0.611,4.177,2.236
						c2.306,3.682,3.288,8.005,5.322,11.829c2.75-8.609-0.896-20.128-9.717-23.719c1.672-0.879,3.274-1.266,4.825-1.266
						c10.05,0,17.812,16.249,25.82,20.121c-2.444-7.416-7.486-14.635-7.252-22.718c0.275-9.376,11.59-11.928,19.174-12.267
						C147.562,17.05,148.094,17.038,148.626,17.038 M101.604,65.842c2.703,0,9.539-4.356,9.539-4.356
						c-0.527-4.275-1.631-8.824-4.553-12.138c-0.479-0.547-1.021-0.778-1.589-0.778c-2.573,0-5.771,4.71-6.812,6.404
						c-1.517,2.467-1.005,3.537-0.021,6.211c0.584,1.596,1.344,3.205,2.597,4.397C100.951,65.763,101.242,65.842,101.604,65.842
						 M148.626,16.416c-0.54,0-1.085,0.012-1.62,0.035c-4.556,0.204-19.439,1.734-19.769,12.871
						c-0.163,5.626,2.16,10.831,4.404,15.863c0.804,1.803,1.629,3.656,2.321,5.499c-2.644-1.751-5.306-4.73-8.1-7.857
						c-5.059-5.661-10.291-11.512-16.575-11.512c-1.708,0-3.43,0.449-5.114,1.335c-0.214,0.113-0.344,0.34-0.329,0.582
						c0.014,0.243,0.16,0.456,0.389,0.547c8.147,3.32,11.482,13.522,9.772,21.387c-0.562-1.227-1.055-2.496-1.533-3.733
						c-0.871-2.245-1.771-4.566-3.09-6.67c-1.045-1.654-2.671-2.527-4.704-2.527c-2.222,0-4.438,0.999-5.902,1.837
						c-6.74,3.851-7.882,12.167-5.522,18.391c0.788,2.083,1.894,4.202,2.961,6.25c2.516,4.825,5.116,9.814,4.143,15.121
						c-0.703,3.822-4.627,7.052-8.568,7.052c-1.852,0-3.498-0.742-4.761-2.141c-0.122-0.132-0.29-0.205-0.461-0.205
						c-0.107,0-0.219,0.029-0.316,0.091c-0.253,0.148-0.365,0.46-0.27,0.74c1.485,4.247,6.839,6.961,10.94,7.043l0.174,0.003
						c4.36,0,7.314-3.393,7.903-9.064c0.452-4.369-0.157-8.775-0.748-13.04c-0.085-0.613-0.17-1.224-0.251-1.833
						c-0.05-0.376,0.171-0.856,0.642-1.392c1.771-2.03,6.259-4.014,8.313-4.013c0.451,0,0.565,0.103,0.567,0.104
						c2.383,4.197,3.734,8.97,5.044,13.585c1.306,4.594,2.649,9.346,5.022,13.627c0.883,1.584,4.061,6.76,7.965,6.76
						c0.877,0,1.729-0.262,2.531-0.782c1.375-0.894,2.25-2.283,2.524-4.021c0.369-2.334-0.388-5.066-1.925-6.965
						c-0.12-0.148-0.299-0.23-0.482-0.23c-0.1,0-0.195,0.021-0.287,0.07c-0.264,0.14-0.393,0.441-0.309,0.728
						c0.255,0.874,0.146,5.399-0.9,6.799c-0.128,0.17-0.247,0.259-0.353,0.259c-0.076,0-0.355-0.045-0.852-0.598
						c-0.616-0.689-0.877-1.645-1.152-2.652c-0.198-0.732-0.402-1.486-0.761-2.169c-0.418-0.795-0.838-1.584-1.252-2.372
						c-0.807-1.52-1.61-3.035-2.398-4.564c-4.479-8.679-9.039-18.686-7.299-28.528c2.733,6.029,4.773,12.426,6.754,18.63
						c1.739,5.457,3.542,11.102,5.804,16.479c0.101,0.234,0.327,0.382,0.574,0.382c0.032,0,0.062,0,0.098-0.009
						c0.283-0.045,0.498-0.275,0.522-0.565c0.188-2.354,0.78-4.642,1.768-6.782c0.067-0.15,0.075-0.316,0.023-0.467
						c-0.661-1.901-1.338-3.916-2.076-6.159c-0.408-1.235-0.815-2.469-1.221-3.704c-0.964-2.925-1.954-5.95-2.976-8.916
						c-2.285-6.677-4.798-13.684-8.289-20.202c2.747,2.363,5.271,5.075,7.729,7.717c5.899,6.345,12.005,12.906,21.289,14.746
						c0.041,0.008,0.081,0.012,0.121,0.012c0.228,0,0.438-0.122,0.547-0.327c0.128-0.239,0.087-0.535-0.104-0.73
						c-7.355-7.569-12.17-14.844-14.715-22.24c-3.067-8.918-2.164-15.271,2.69-18.882c3.388-2.52,7.92-3.911,12.756-3.911
						c8.104,0,15.076,3.699,18.193,9.649c2.841,5.412,3.728,13.194-1.043,17.492c-2.609,2.356-6.055,3.655-9.684,3.655
						c-4.812,0-9.228-2.267-11.812-6.065c-3.1-4.548-3.09-9.938,0.023-13.735c0.482-0.589,1.214-1.444,2.008-2.076
						c1.689-1.339,3.446-2.018,5.217-2.018c2.701,0,5.568,1.557,8.521,4.627c0.121,0.125,0.28,0.191,0.446,0.191
						c0.102,0,0.201-0.024,0.295-0.075c0.247-0.135,0.372-0.415,0.311-0.689c-1.299-5.537-5.384-8.841-10.93-8.841
						c-4.109,0-8.419,1.912-11.244,4.988c-2.562,2.789-3.754,6.223-3.449,9.933c0.833,10.209,7.271,19.251,16.017,22.5
						c2.865,1.066,5.732,1.607,8.521,1.607c8.153,0,14.453-4.503,17.282-12.351c2.715-7.53,1.932-14.678-2.266-20.67
						C170.866,21.478,159.983,16.416,148.626,16.416L148.626,16.416z M101.604,65.218c-0.235,0-0.368-0.047-0.409-0.085
						c-1.246-1.184-1.963-2.848-2.443-4.162l-0.129-0.352c-0.892-2.41-1.191-3.221,0.099-5.319c1.865-3.04,4.533-6.107,6.282-6.107
						c0.422,0,0.787,0.185,1.121,0.566c2.95,3.348,3.908,8.032,4.352,11.412C108.385,62.472,103.561,65.218,101.604,65.218
						L101.604,65.218z"/>
				</g>
			</g>
			<g>
				<g>
					<g>
						<path fill="#125C72" d="M223.292,101.083c-0.268,0-0.543-0.019-0.826-0.056c-1.771-0.23-3.104-1.522-3.756-3.642
							c-0.886-2.866-0.242-6.312,1.466-7.85c0.061-0.054,0.135-0.076,0.207-0.076c0.057,0,0.106,0.015,0.155,0.041
							c0.116,0.065,0.177,0.201,0.147,0.335c-0.177,0.823-0.079,5.73,0.877,6.918c0.161,0.203,0.284,0.206,0.325,0.206l0,0
							c0.13,0,0.413-0.092,0.875-0.704c1.951-2.591,3.397-6.512,4.674-9.971c0.362-0.992,0.718-1.944,1.062-2.816
							c3.651-9.247,6.038-19.104,7.101-29.343c-2.248,6.843-4.414,13.789-6.521,20.531c-1.838,5.891-3.738,11.977-5.676,17.946
							c-0.042,0.123-0.155,0.211-0.29,0.217c0,0-0.004,0-0.007,0c-0.126,0-0.243-0.079-0.288-0.199
							c-0.424-1.105-0.561-2.282-0.688-3.418c-0.098-0.885-0.199-1.798-0.438-2.652c-0.688-2.432-0.776-2.74,0.104-5.521
							l1.286-4.062c1.039-3.287,2.082-6.575,3.126-9.861c2.529-7.957,5.521-17.283,8.681-26.534
							c-0.854,0.81-1.604,1.735-2.333,2.639c-1.307,1.61-2.652,3.274-4.604,4.332c-0.682,0.373-1.254,0.554-1.741,0.554
							c-0.511,0-0.927-0.208-1.205-0.604c-1.197-1.693,0.413-6.44,0.602-6.975c0.243-0.693,0.52-1.408,0.796-2.137
							c1.852-4.844,3.951-10.337-1.438-13.498c-3.365-1.977-7.562-3.02-12.132-3.02c-8.489,0-16.353,3.687-20.022,9.396
							c-2.967,4.6-5.144,11.766-1.53,16.818c2.345,3.282,6.368,5.165,11.038,5.165c3.375,0,6.758-1.036,9.287-2.842
							c3.619-2.587,6.312-7.326,6.558-11.521c0.162-2.826-0.796-5.269-2.774-7.055c-1.463-1.325-3.523-2.024-5.971-2.024
							c-3.488,0-7.664,1.466-10.385,3.648c-0.057,0.044-0.125,0.069-0.196,0.069c-0.039,0-0.08-0.01-0.113-0.024
							c-0.104-0.042-0.181-0.14-0.191-0.251c-0.248-2.165,0.28-4,1.569-5.45c1.839-2.068,5.211-3.254,9.248-3.254
							c2.499,0,4.955,0.477,6.736,1.307c4.454,2.075,7.016,6.658,6.846,12.255c-0.37,12.446-9.611,23.214-21.037,24.518
							c-0.878,0.102-1.763,0.151-2.615,0.151l0,0c-6.314,0-11.933-2.754-15.412-7.558c-3.604-4.974-4.49-11.476-2.428-17.841
							c4.003-12.316,13.937-19.04,29.522-19.985c0.551-0.033,1.104-0.049,1.659-0.049c7.975,0,15.027,3.228,17.968,8.221
							c1.984,3.372,2.046,7.405,0.204,11.764c3.312-3.74,6.556-6.984,10.684-9.25c0.045-0.025,0.098-0.038,0.147-0.038
							s0.104,0.012,0.148,0.038c0.093,0.052,0.15,0.146,0.159,0.252c0.218,3.357-0.864,6.509-1.91,9.557
							c-1.252,3.648-2.439,7.104-1.625,10.914c1.555-2.902,2.431-6.17,3.278-9.342l0.21-0.779c0.145-0.528,0.265-1.102,0.392-1.691
							c0.547-2.568,1.169-5.478,3.779-6.267c1.138-0.345,2.305-0.52,3.47-0.52c2.916,0,5.783,1.124,8.064,3.164
							c6.184,5.505,8.445,15.782,5.152,23.394c-0.942,2.167-2.367,4.033-4.116,5.402l-0.293,0.228
							c-1.754,1.363-1.754,1.363-1.631,3.861c0.057,1.148,0.098,2.296,0.142,3.446c0.121,3.245,0.245,6.597,0.684,9.865
							c0.559,4.167,2.387,11.152,8.366,11.152c1.753,0,3.748-0.61,5.932-1.81c0.046-0.025,0.098-0.039,0.147-0.039
							c0.066,0,0.141,0.021,0.194,0.07c0.099,0.077,0.14,0.213,0.102,0.334c-1.347,4.264-6.013,6.493-9.924,6.493
							c-1.314,0-2.539-0.235-3.645-0.708c-4.812-2.056-5.548-7.812-5.635-13.174c-0.022-1.536,0.062-3.153,0.158-4.861
							c0.229-4.253,0.473-8.649-0.998-12.232c-1.086-2.647-3.542-3.384-6.146-4.165c-1.729-0.52-3.517-1.056-4.896-2.2
							c-1.076,3.973-2.434,7.908-3.748,11.719c-1.033,3.001-2.104,6.104-3.026,9.195c-0.598,2.003-1.052,4.087-1.491,6.101
							c-0.523,2.4-1.067,4.893-1.857,7.282C229.192,98.344,226.651,101.083,223.292,101.083z M250.107,37.421
							c-3.716,0-4.923,5.677-5.571,8.727l-0.035,0.165c-0.384,1.803-0.674,3.662-0.955,5.459l-0.127,0.8
							c-0.352,2.229,2.128,2.905,4.523,3.556c0.617,0.169,1.214,0.331,1.732,0.516c0.589,0.208,1.104,0.423,1.571,0.615
							c0.873,0.365,1.567,0.652,2.17,0.652l0,0c0.843,0,1.588-0.584,2.573-2.016c2.113-3.069,3.966-6.311,3.237-9.237
							c-0.908-3.619-4.463-8.839-8.779-9.22C250.333,37.427,250.219,37.421,250.107,37.421z"/>
					</g>
					<path fill="#125C72" d="M212.616,17.641c11.959,0,24.511,7.76,16.869,21.643c3.57-4.137,7.284-8.285,12.137-10.946
						c0.48,7.412-5.469,13.719-3.341,21.288c1.956-3.333,2.903-7.175,3.905-10.877c0.752-2.785,0.947-6.832,3.958-7.741
						c1.124-0.341,2.257-0.506,3.379-0.506c2.864,0,5.621,1.086,7.858,3.084c6.043,5.384,8.284,15.617,5.074,23.042
						c-0.895,2.056-2.256,3.896-4.022,5.277c-2.16,1.688-2.183,1.559-2.044,4.351c0.219,4.448,0.23,8.914,0.824,13.337
						c0.879,6.576,3.606,11.421,8.675,11.421c1.743,0,3.764-0.574,6.075-1.848c-1.216,3.861-5.551,6.277-9.625,6.277
						c-1.227,0-2.432-0.221-3.52-0.687c-4.872-2.083-5.373-8.321-5.446-12.893c-0.082-5.359,1.229-12.108-0.865-17.206
						c-1.967-4.804-8.235-3.636-11.494-6.818c-1.923,7.257-4.763,14.213-6.903,21.396c-1.314,4.407-1.896,9-3.352,13.374
						c-1.159,3.51-3.271,8.166-7.473,8.166c-0.256,0-0.516-0.021-0.785-0.055c-4.477-0.588-4.927-8.431-2.122-10.945
						c-0.207,0.959-0.11,7.502,1.505,7.502c0.314,0,0.686-0.245,1.119-0.826c2.545-3.372,4.223-8.924,5.777-12.862
						c4.048-10.254,6.479-21.15,7.365-32.137c-4.533,13.625-8.61,27.401-13.043,41.062c-0.738-1.925-0.563-4.065-1.119-6.041
						c-0.675-2.396-0.743-2.666,0.101-5.346c1.473-4.64,2.938-9.284,4.412-13.922c2.938-9.23,5.907-18.45,9.051-27.613
						c-2.903,2.253-4.412,5.869-7.75,7.68c-0.656,0.36-1.185,0.516-1.592,0.516c-2.353,0-1.021-5.141-0.312-7.164
						c1.895-5.396,5.657-12.23-0.776-16.009c-3.508-2.057-7.857-3.062-12.286-3.062c-7.998,0-16.256,3.276-20.288,9.54
						c-3.104,4.821-5.171,12.062-1.521,17.167c2.597,3.628,6.924,5.294,11.291,5.294c3.397,0,6.826-1.013,9.469-2.898
						c5.417-3.873,9.836-13.609,3.811-19.062c-1.65-1.495-3.854-2.102-6.18-2.102c-3.84,0-8.012,1.66-10.578,3.714
						c-0.694-6.05,5.049-8.357,10.512-8.357c2.465,0,4.871,0.47,6.606,1.278c4.708,2.192,6.816,6.937,6.661,11.963
						c-0.346,11.654-9.066,22.885-20.761,24.217c-0.878,0.101-1.741,0.148-2.581,0.148c-13.271,0-21.729-12.074-17.541-24.991
						c4.015-12.353,13.951-18.844,29.246-19.771C211.52,17.657,212.067,17.641,212.616,17.641 M253.418,58.223
						c0.901,0,1.722-0.541,2.828-2.15c1.911-2.776,4.082-6.279,3.283-9.489c-0.947-3.769-4.551-9.058-9.056-9.456
						c-0.124-0.012-0.248-0.017-0.366-0.017c-4.042,0-5.271,6.123-5.911,9.137c-0.441,2.078-0.753,4.177-1.084,6.276
						c-0.495,3.141,3.906,3.512,6.46,4.415C251.302,57.55,252.412,58.223,253.418,58.223 M212.616,17.018
						c-0.56,0-1.124,0.017-1.676,0.052c-15.729,0.952-25.756,7.749-29.802,20.2c-2.095,6.46-1.192,13.064,2.473,18.121
						c3.536,4.884,9.246,7.686,15.661,7.686c0.867,0,1.759-0.052,2.647-0.152c11.578-1.32,20.938-12.221,21.313-24.819
						c0.174-5.727-2.452-10.417-7.023-12.546c-1.819-0.85-4.326-1.335-6.869-1.335c-4.128,0-7.582,1.224-9.479,3.358
						c-1.353,1.52-1.907,3.436-1.646,5.692c0.025,0.226,0.173,0.418,0.383,0.504c0.072,0.032,0.151,0.048,0.231,0.048
						c0.142,0,0.275-0.046,0.39-0.138c2.675-2.139,6.771-3.578,10.191-3.578c2.366,0,4.357,0.672,5.763,1.942
						c1.906,1.724,2.83,4.079,2.677,6.808c-0.232,4.042-2.937,8.788-6.432,11.285c-2.475,1.769-5.795,2.783-9.105,2.783
						c-4.563,0-8.496-1.834-10.783-5.035c-3.522-4.925-1.372-11.948,1.539-16.466c3.616-5.621,11.375-9.252,19.764-9.252
						c4.449,0,8.702,1.055,11.977,2.975c5.156,3.027,3.194,8.158,1.302,13.12c-0.278,0.732-0.553,1.451-0.8,2.145
						c-0.314,0.899-1.821,5.476-0.562,7.259c0.34,0.481,0.847,0.735,1.457,0.735c0.539,0,1.158-0.193,1.892-0.591
						c2.007-1.087,3.375-2.775,4.696-4.409c0.45-0.56,0.894-1.104,1.351-1.619c-2.99,8.818-5.823,17.643-8.232,25.224
						c-1.048,3.287-2.091,6.58-3.131,9.871l-1.283,4.051c-0.877,2.773-0.828,3.149-0.105,5.702c0.231,0.829,0.33,1.689,0.437,2.604
						c0.128,1.153,0.265,2.35,0.699,3.489c0.096,0.244,0.323,0.402,0.58,0.402c0.006,0,0.013,0,0.017-0.002
						c0.266-0.007,0.491-0.181,0.573-0.428c1.938-5.973,3.839-12.061,5.68-17.951c1.796-5.77,3.646-11.688,5.549-17.562
						c-1.189,9.101-3.442,17.878-6.716,26.164c-0.346,0.881-0.693,1.824-1.062,2.826c-1.27,3.438-2.705,7.34-4.632,9.889
						c-0.415,0.557-0.626,0.582-0.626,0.582c-0.773-0.309-1.16-5.522-0.898-6.752c0.057-0.264-0.062-0.531-0.297-0.666
						c-0.097-0.061-0.204-0.088-0.312-0.088c-0.149,0-0.3,0.057-0.413,0.16c-1.797,1.607-2.478,5.195-1.56,8.172
						c0.682,2.205,2.146,3.613,4.016,3.856c0.289,0.038,0.58,0.06,0.863,0.06c5.22,0,7.361-6.465,8.062-8.59
						c0.799-2.408,1.344-4.902,1.872-7.315c0.437-2.013,0.89-4.084,1.481-6.077c0.921-3.083,1.989-6.184,3.022-9.181
						c1.266-3.674,2.573-7.462,3.632-11.291c1.363,0.987,3.019,1.483,4.63,1.968c2.528,0.759,4.916,1.474,5.944,3.985
						c1.44,3.519,1.203,7.879,0.976,12.095c-0.094,1.715-0.183,3.337-0.159,4.886c0.089,5.456,0.849,11.325,5.824,13.453
						c1.141,0.485,2.407,0.735,3.764,0.735c4.027,0,8.827-2.309,10.218-6.711c0.077-0.24,0-0.507-0.194-0.67
						c-0.114-0.093-0.253-0.144-0.396-0.144c-0.104,0-0.206,0.024-0.302,0.078c-2.134,1.176-4.078,1.771-5.777,1.771
						c-5.744,0-7.516-6.813-8.058-10.878c-0.437-3.253-0.562-6.6-0.681-9.836c-0.043-1.151-0.086-2.301-0.14-3.45
						c-0.117-2.334-0.117-2.334,1.508-3.6l0.297-0.229c1.789-1.397,3.247-3.307,4.208-5.52c3.344-7.731,1.044-18.164-5.229-23.754
						c-2.343-2.09-5.278-3.242-8.272-3.242c-1.195,0-2.393,0.179-3.562,0.533c-2.785,0.841-3.425,3.848-3.989,6.499
						c-0.125,0.596-0.245,1.158-0.389,1.674l-0.21,0.779c-0.765,2.853-1.551,5.788-2.834,8.447
						c-0.445-3.379,0.637-6.527,1.771-9.837c1.057-3.078,2.148-6.259,1.927-9.679c-0.014-0.212-0.135-0.402-0.321-0.504
						c-0.094-0.052-0.191-0.078-0.298-0.078c-0.103,0-0.206,0.026-0.299,0.076c-3.709,2.035-6.7,4.844-9.656,8.086
						c1.544-4.74,0.513-8.235-0.812-10.482C227.855,20.306,220.699,17.018,212.616,17.018L212.616,17.018z M253.418,57.599
						c-0.544,0-1.209-0.274-2.054-0.626c-0.462-0.192-0.986-0.41-1.582-0.622c-0.538-0.189-1.129-0.352-1.758-0.523
						c-2.782-0.755-4.584-1.386-4.297-3.206l0.123-0.801c0.281-1.794,0.572-3.646,0.954-5.444l0.035-0.164
						c0.631-2.963,1.803-8.48,5.268-8.48c0.104,0,0.207,0.006,0.312,0.015c4.171,0.37,7.621,5.457,8.506,8.988
						c0.697,2.804-1.117,5.974-3.189,8.984C254.595,57.371,253.949,57.599,253.418,57.599L253.418,57.599z"/>
				</g>
			</g>
		</g>
	</g>
</g>
</svg>
