<?xml version="1.0" encoding="utf-8"?>
<!-- Generator: Adobe Illustrator 15.0.0, SVG Export Plug-In . SVG Version: 6.00 Build 0)  -->
<!DOCTYPE svg PUBLIC "-//W3C//DTD SVG 1.1//EN" "http://www.w3.org/Graphics/SVG/1.1/DTD/svg11.dtd">
<svg version="1.1" id="Layer_1" xmlns="http://www.w3.org/2000/svg" xmlns:xlink="http://www.w3.org/1999/xlink" x="0px" y="0px"
	 width="114px" height="54px" viewBox="122.161 37.03 114 54" enable-background="new 122.161 37.03 114 54" xml:space="preserve">
<g>
	<g>
		<g>
			<g>
				<g>
					<path fill="#0A9995" d="M155.852,88.795c-0.113,0-0.224-0.007-0.329-0.02c-0.188-0.022-0.361-0.084-0.528-0.144
						c-0.186-0.066-0.36-0.128-0.529-0.128c-0.084,0-0.161,0.016-0.234,0.047c-0.19,0.078-0.342,0.13-0.477,0.13
						c-0.339,0-0.41-0.353-0.435-0.469c-0.101-0.494-0.329-1.619,0.027-2.057c0.1-0.121,0.233-0.182,0.397-0.182
						c0.081,0,0.171,0.015,0.268,0.046c0.362,0.116,0.684,0.482,1.021,0.869c0.312,0.354,0.636,0.725,0.986,0.879
						c0.115,0.051,0.227,0.074,0.331,0.074c0.326,0,0.52-0.246,0.592-0.479c0.088-0.294,0.03-0.695-0.312-0.927
						c-0.384-0.264-0.826-0.392-1.295-0.528c-0.495-0.141-1.01-0.292-1.441-0.617c-0.458-0.346-0.655-0.831-0.558-1.367
						c0.136-0.734,0.805-1.452,1.562-1.671c0.279-0.081,0.571-0.123,0.867-0.123c0.307,0,0.61,0.045,0.9,0.131
						c0.186,0.056,0.314,0.081,0.418,0.081c0.087,0,0.156-0.017,0.251-0.041c0.105-0.026,0.235-0.059,0.438-0.078
						c0.02-0.002,0.034-0.004,0.052-0.004c0.142,0,0.265,0.063,0.356,0.183c0.388,0.511,0.152,2.039,0.056,2.382
						c-0.011,0.044-0.051,0.073-0.095,0.073c-0.002,0-0.005-0.001-0.008-0.001c-0.519-0.045-0.92-0.492-1.309-0.924
						c-0.344-0.386-0.671-0.75-1.016-0.75c-0.237,0-0.483,0.171-0.749,0.523c0.291,0.696,0.966,0.887,1.68,1.088
						c0.8,0.227,1.628,0.461,1.914,1.44c0.152,0.525,0.067,1.03-0.251,1.455C157.832,88.448,156.681,88.795,155.852,88.795
						L155.852,88.795z"/>
				</g>
				<path fill="#0A9995" d="M155.766,82.227c0.295,0,0.591,0.043,0.872,0.127c0.207,0.062,0.339,0.085,0.445,0.085
					c0.205,0,0.317-0.081,0.699-0.12c0.014-0.001,0.027-0.002,0.042-0.002c0.718,0,0.437,2.006,0.316,2.439
					c-0.94-0.079-1.535-1.677-2.334-1.677c-0.259,0-0.539,0.169-0.859,0.608c0.615,1.618,3.086,0.778,3.609,2.571
					c0.458,1.562-1.381,2.437-2.704,2.437c-0.111,0-0.218-0.006-0.317-0.018c-0.383-0.047-0.724-0.273-1.069-0.273
					c-0.091,0-0.181,0.016-0.272,0.054c-0.176,0.073-0.319,0.123-0.438,0.123c-0.168,0-0.279-0.103-0.338-0.39
					c-0.107-0.528-0.438-2.12,0.326-2.12c0.07,0,0.149,0.015,0.238,0.043c0.665,0.217,1.25,1.413,1.999,1.744
					c0.132,0.06,0.258,0.085,0.37,0.085c0.741,0,1.026-1.116,0.339-1.588c-0.821-0.564-1.927-0.535-2.732-1.144
					c-1.207-0.91-0.186-2.527,0.972-2.863C155.199,82.266,155.482,82.227,155.766,82.227 M155.766,82.028v0.199V82.028
					c-0.305,0-0.605,0.042-0.896,0.127c-0.79,0.229-1.49,0.981-1.63,1.748c-0.105,0.575,0.106,1.096,0.595,1.465
					c0.445,0.337,0.969,0.486,1.474,0.633c0.459,0.134,0.896,0.26,1.266,0.515c0.299,0.206,0.352,0.559,0.272,0.817
					c-0.062,0.196-0.225,0.408-0.498,0.408c-0.091,0-0.188-0.021-0.29-0.066c-0.332-0.146-0.646-0.507-0.954-0.854
					c-0.348-0.397-0.675-0.772-1.064-0.896c-0.106-0.033-0.205-0.051-0.298-0.051c-0.193,0-0.356,0.074-0.474,0.219
					c-0.339,0.419-0.217,1.31-0.051,2.125c0.077,0.379,0.257,0.562,0.536,0.562c0.151,0,0.312-0.056,0.513-0.139
					c0.062-0.024,0.127-0.038,0.198-0.038c0.152,0,0.318,0.061,0.496,0.122c0.174,0.061,0.353,0.126,0.551,0.15
					c0.108,0.013,0.224,0.02,0.342,0.02c0.853,0,2.039-0.359,2.63-1.149c0.336-0.45,0.429-0.983,0.266-1.542
					c-0.303-1.03-1.194-1.283-1.983-1.506c-0.67-0.19-1.306-0.371-1.591-0.979c0.229-0.29,0.442-0.438,0.633-0.438
					c0.303,0,0.615,0.348,0.944,0.718c0.399,0.446,0.815,0.909,1.375,0.957c0.005,0.002,0.01,0.002,0.016,0.002
					c0.088,0,0.167-0.061,0.191-0.146c0.06-0.217,0.37-1.881-0.073-2.469c-0.11-0.145-0.26-0.221-0.434-0.221
					c-0.021,0-0.041,0.001-0.061,0.003c-0.209,0.02-0.343,0.055-0.452,0.081c-0.091,0.023-0.152,0.039-0.228,0.039
					c-0.094,0-0.215-0.023-0.39-0.076C156.395,82.074,156.083,82.028,155.766,82.028L155.766,82.028z"/>
			</g>
			<g>
				<g>
					<path fill="#0A9995" d="M193.779,88.848c-1.477,0-2.742-0.817-3.302-2.133c-0.396-0.926-0.369-1.887,0.074-2.706
						c0.5-0.92,1.481-1.565,2.695-1.774c0.256-0.044,0.519-0.066,0.78-0.066c1.707,0,3.565,0.975,3.616,3.113
						c0.037,1.506-1.071,2.902-2.693,3.395C194.566,88.789,194.173,88.848,193.779,88.848L193.779,88.848z M193.969,83.259
						c-0.127,0-0.26,0.014-0.396,0.043c-1.156,0.243-1.455,1.401-1.361,2.319c0.112,1.069,0.76,2.154,1.784,2.154
						c0.307,0,0.628-0.1,0.958-0.294c0.804-0.474,0.969-1.732,0.711-2.674C195.405,83.839,194.768,83.259,193.969,83.259z"/>
				</g>
				<path fill="#0A9995" d="M194.028,82.266c1.769,0,3.471,1.036,3.518,3.016c0.039,1.589-1.167,2.854-2.624,3.295
					c-0.379,0.115-0.764,0.171-1.143,0.171c-1.36,0-2.637-0.727-3.213-2.074c-0.851-1.99,0.379-3.947,2.697-4.343
					C193.516,82.288,193.773,82.266,194.028,82.266 M193.997,87.875c0.308,0,0.645-0.094,1.008-0.308
					c1.49-0.877,1.029-4.407-1.035-4.407c-0.132,0-0.272,0.015-0.418,0.045C191.215,83.697,191.938,87.875,193.997,87.875
					 M194.028,82.068c-0.267,0-0.535,0.023-0.799,0.067c-1.242,0.212-2.25,0.877-2.764,1.825c-0.46,0.847-0.489,1.84-0.081,2.793
					c0.577,1.354,1.877,2.195,3.395,2.195c0.405,0,0.807-0.06,1.201-0.179c1.665-0.505,2.8-1.94,2.765-3.488
					C197.691,83.072,195.781,82.068,194.028,82.068L194.028,82.068z M193.997,87.677c-0.965,0-1.578-1.04-1.685-2.066
					c-0.091-0.876,0.189-1.981,1.282-2.211c0.128-0.028,0.256-0.042,0.377-0.042c0.75,0,1.349,0.552,1.601,1.478
					c0.245,0.907,0.096,2.111-0.668,2.562C194.59,87.582,194.284,87.677,193.997,87.677L193.997,87.677z"/>
			</g>
			<g>
				<g>
					<path fill="#0A9995" d="M200.041,88.695c-0.216,0-0.782,0-0.845-0.522c-0.065-0.551-0.053-1.111-0.039-1.653
						c0.003-0.137,0.007-0.273,0.008-0.408c0.001-0.026,0.013-0.054,0.033-0.072c0.02-0.018,0.042-0.025,0.065-0.025
						c0.004,0,0.008,0,0.011,0c0.566,0.062,0.992,0.493,1.404,0.91c0.407,0.411,0.791,0.799,1.27,0.799
						c0.197,0,0.401-0.064,0.622-0.201c0.212-0.128,0.312-0.262,0.299-0.397c-0.047-0.525-1.627-1.125-2.301-1.381
						c-0.215-0.083-0.371-0.142-0.446-0.182c-0.63-0.327-0.943-0.891-0.867-1.547c0.092-0.778,0.726-1.483,1.508-1.679
						c0.404-0.101,0.854-0.15,1.371-0.15c0.454,0,0.917,0.037,1.349,0.08c0.705,0.065,0.735,0.242,0.721,0.742
						c-0.003,0.109-0.007,0.237-0.002,0.391l0.005,0.14c0.016,0.401,0.034,0.855-0.112,1.254c-0.016,0.039-0.053,0.064-0.093,0.064
						c-0.007,0-0.01-0.001-0.014-0.001c-0.499-0.066-0.891-0.503-1.27-0.925c-0.35-0.389-0.68-0.757-1.033-0.757
						c-0.241,0-0.486,0.171-0.757,0.523c0.318,0.491,1.037,0.807,1.733,1.112c0.823,0.362,1.675,0.738,1.915,1.43
						c0.136,0.397,0.063,0.851-0.226,1.39c-0.502,0.941-1.658,1.062-2.61,1.062l0,0c-0.249,0-0.495-0.008-0.72-0.019l-0.251-0.007
						c-0.104,0-0.221,0.007-0.339,0.015C200.302,88.688,200.168,88.695,200.041,88.695z"/>
				</g>
				<path fill="#0A9995" d="M202.135,82.286c0.449,0,0.899,0.036,1.34,0.078c0.809,0.075,0.604,0.254,0.631,1.038
					c0.015,0.439,0.051,0.932-0.101,1.354c-0.925-0.123-1.518-1.682-2.316-1.682c-0.263,0-0.551,0.169-0.877,0.615
					c0.846,1.482,4.806,1.361,3.455,3.895c-0.465,0.869-1.548,1.008-2.522,1.008c-0.322,0-0.632-0.015-0.903-0.022
					c-0.021-0.002-0.046-0.002-0.067-0.002c-0.221,0-0.486,0.031-0.731,0.031c-0.378,0-0.703-0.073-0.749-0.434
					c-0.08-0.681-0.039-1.365-0.029-2.049c1.082,0.117,1.661,1.707,2.685,1.707c0.206,0,0.428-0.062,0.675-0.216
					c1.439-0.883-2.029-1.911-2.457-2.133c-1.48-0.772-0.772-2.694,0.622-3.041C201.227,82.323,201.68,82.286,202.135,82.286
					 M202.135,82.087c-0.524,0-0.981,0.049-1.394,0.153c-0.833,0.207-1.483,0.932-1.582,1.762c-0.083,0.698,0.25,1.3,0.917,1.646
					c0.084,0.043,0.241,0.103,0.46,0.187c0.6,0.228,2.193,0.833,2.236,1.296c0.012,0.115-0.132,0.23-0.253,0.304
					c-0.204,0.127-0.39,0.187-0.57,0.187c-0.437,0-0.806-0.374-1.198-0.77c-0.425-0.428-0.863-0.87-1.465-0.938
					c-0.008,0-0.015-0.001-0.022-0.001c-0.046,0-0.094,0.019-0.13,0.05c-0.042,0.036-0.065,0.089-0.067,0.145
					c-0.002,0.136-0.005,0.272-0.007,0.407c-0.013,0.546-0.026,1.108,0.04,1.667c0.072,0.609,0.726,0.609,0.942,0.609
					c0.133,0,0.267-0.007,0.397-0.017c0.115-0.007,0.231-0.015,0.334-0.015c0.021,0,0.041,0.001,0.061,0.001l0.188,0.007
					c0.22,0.008,0.47,0.02,0.723,0.02c0.901,0,2.163-0.114,2.698-1.113c0.3-0.564,0.376-1.046,0.229-1.471
					c-0.254-0.733-1.125-1.116-1.969-1.488c-0.652-0.286-1.326-0.582-1.647-1.018c0.228-0.283,0.441-0.427,0.631-0.427
					c0.312,0,0.627,0.353,0.962,0.725c0.391,0.436,0.795,0.884,1.33,0.956c0.009,0.001,0.019,0.003,0.026,0.003
					c0.082,0,0.157-0.051,0.186-0.129c0.151-0.418,0.134-0.883,0.119-1.289l-0.007-0.141c-0.005-0.148-0.002-0.273,0.003-0.384
					c0.017-0.557-0.049-0.773-0.812-0.843C203.058,82.125,202.594,82.087,202.135,82.087L202.135,82.087z"/>
			</g>
			<g>
				<g>
					<path fill="#0A9995" d="M163.543,88.719c-0.206,0-0.409-0.012-0.598-0.024c-0.086-0.005-0.187-0.007-0.289-0.011
						c-0.642-0.019-1.516-0.042-1.516-0.727c0.026-0.407,0.333-0.407,0.479-0.407l0.16,0.002c0.2,0,0.425,0,0.425-0.527v-3.737
						c-0.086-0.016-0.166-0.022-0.238-0.022c-0.365,0-0.639,0.179-0.893,0.581c-0.192,0.305-0.484,0.667-0.798,0.667
						c-0.232,0-0.408-0.187-0.528-0.554c-0.158-0.493-0.114-0.906,0.127-1.196c0.433-0.518,1.115-0.759,2.151-0.759
						c0.629,0,1.321,0.088,1.987,0.171c0.651,0.083,1.323,0.166,1.913,0.166c0.115,0,0.229-0.003,0.337-0.009
						c0.002-0.001,0.006-0.001,0.007-0.001c0.028,0,0.054,0.012,0.073,0.033s0.03,0.051,0.024,0.082
						c-0.013,0.091-0.001,0.287,0.014,0.496c0.034,0.543,0.078,1.219-0.174,1.488c-0.072,0.079-0.165,0.117-0.276,0.117
						c-0.054,0-0.111-0.008-0.172-0.029c-0.332-0.107-0.493-0.379-0.65-0.638c-0.136-0.225-0.261-0.438-0.492-0.539
						c-0.057-0.024-0.109-0.036-0.158-0.036c-0.181,0-0.333,0.179-0.447,0.524c-0.393,1.167-0.155,3.527,0.047,3.684
						c0.048,0.02,0.151,0.047,0.261,0.073c0.356,0.088,0.759,0.191,0.797,0.436c0.028,0.189-0.174,0.336-0.328,0.429
						C164.483,88.632,164.087,88.719,163.543,88.719z"/>
				</g>
				<path fill="#0A9995" d="M162.026,82.101c1.234,0,2.699,0.337,3.901,0.337c0.116,0,0.23-0.003,0.343-0.01
					c-0.056,0.381,0.271,2.018-0.34,2.018c-0.042,0-0.089-0.007-0.14-0.024c-0.571-0.187-0.598-0.94-1.135-1.173
					c-0.071-0.03-0.137-0.045-0.198-0.045c-1.055,0-0.815,4.232-0.442,4.395c0.282,0.121,1.562,0.25,0.722,0.764
					c-0.339,0.206-0.774,0.257-1.194,0.257c-0.205,0-0.405-0.013-0.591-0.023c-0.605-0.038-1.714,0.05-1.714-0.641
					c0.019-0.279,0.185-0.308,0.381-0.308c0.053,0,0.106,0.002,0.161,0.002c0.261,0,0.522-0.05,0.522-0.627c0-1.273,0-2.546,0-3.819
					c-0.122-0.027-0.232-0.04-0.338-0.04c-0.424,0-0.719,0.219-0.977,0.628c-0.213,0.341-0.477,0.62-0.715,0.62
					c-0.166,0-0.319-0.139-0.432-0.485c-0.118-0.367-0.152-0.79,0.11-1.103C160.418,82.266,161.165,82.101,162.026,82.101
					 M162.026,81.903c-1.066,0-1.773,0.252-2.226,0.793c-0.266,0.319-0.316,0.764-0.147,1.292c0.166,0.516,0.432,0.623,0.62,0.623
					c0.361,0,0.682-0.389,0.884-0.713c0.236-0.375,0.478-0.535,0.808-0.535c0.045,0,0.089,0.003,0.14,0.007v3.651
					c0,0.429-0.13,0.429-0.324,0.429l-0.078-0.001l-0.083-0.001h-0.001c-0.138,0-0.544,0.001-0.578,0.493
					c0,0.796,0.97,0.822,1.611,0.842c0.103,0.003,0.2,0.005,0.288,0.009c0.2,0.014,0.398,0.024,0.604,0.024
					c0.564,0,0.977-0.09,1.295-0.286c0.104-0.062,0.416-0.252,0.375-0.527c-0.047-0.312-0.485-0.42-0.87-0.518
					c-0.087-0.021-0.172-0.045-0.224-0.062c-0.215-0.336-0.396-2.798,0.057-3.75c0.087-0.179,0.182-0.271,0.282-0.271
					c0.035,0,0.075,0.008,0.12,0.027c0.2,0.087,0.314,0.276,0.447,0.498c0.158,0.263,0.337,0.562,0.703,0.681
					c0.071,0.023,0.14,0.034,0.203,0.034c0.136,0,0.259-0.051,0.351-0.151c0.281-0.3,0.234-1,0.2-1.562
					c-0.013-0.192-0.024-0.394-0.014-0.474c0.008-0.06-0.01-0.119-0.05-0.163c-0.037-0.042-0.091-0.065-0.146-0.065
					c-0.005,0-0.008,0.001-0.012,0.001c-0.108,0.006-0.219,0.01-0.33,0.01c-0.585,0-1.254-0.085-1.9-0.166
					C163.354,81.991,162.66,81.903,162.026,81.903L162.026,81.903z"/>
			</g>
			<g>
				<g>
					<path fill="#0A9995" d="M171.779,88.933c-0.617,0-1.265-0.181-1.823-0.509c-1.442-0.847-2.133-2.51-1.763-4.238
						c0.024-0.114,0.057-0.221,0.085-0.317c0.057-0.195,0.1-0.352,0.047-0.432c-0.043-0.063-0.166-0.107-0.368-0.128
						c-0.195-0.02-0.338-0.106-0.402-0.245c-0.062-0.14-0.033-0.304,0.08-0.467c0.22-0.317,0.664-0.478,1.323-0.478
						c0.234,0,0.461,0.02,0.633,0.036c0.015,0.001,1.503,0.272,1.569,0.711c0.02,0.141-0.087,0.262-0.317,0.357
						c-0.177,0.073-0.326,0.083-0.442,0.093c-0.205,0.016-0.246,0.018-0.236,0.354c0.011,0.39-0.007,0.786-0.023,1.168
						c-0.006,0.153-0.014,0.31-0.019,0.464c-0.033,1.077-0.069,2.189,1.136,2.356c0.084,0.012,0.166,0.018,0.245,0.018
						c0.591,0,1.043-0.313,1.273-0.88c0.332-0.822,0.271-1.812,0.164-2.669c-0.007-0.054-0.012-0.111-0.016-0.168
						c-0.031-0.344-0.062-0.557-0.339-0.609c-0.027-0.005-0.056-0.006-0.086-0.006c-0.038,0-0.078,0.001-0.122,0.005
						c-0.046,0.005-0.098,0.007-0.147,0.007c-0.202,0-0.479-0.046-0.545-0.426c0.031-0.542,0.582-0.843,1.513-0.843
						c0.779,0,1.771,0.236,2.014,0.619c0.066,0.104,0.074,0.216,0.026,0.323c-0.118,0.259-0.385,0.276-0.618,0.294
						c-0.168,0.012-0.33,0.024-0.419,0.117c-0.073,0.486-0.036,0.992,0,1.481l0.02,0.325c0.062,1.017,0.069,2.073-0.575,2.859
						C173.091,88.79,172.324,88.933,171.779,88.933z"/>
				</g>
				<path fill="#0A9995" d="M173.2,82.189c1.005,0,2.146,0.378,1.949,0.799c-0.179,0.387-0.798,0.101-1.042,0.412
					c-0.096,0.611-0.021,1.239,0.017,1.854c0.058,0.943,0.08,2.019-0.553,2.792c-0.458,0.561-1.114,0.79-1.792,0.79
					c-0.618,0-1.255-0.191-1.773-0.495c-1.448-0.853-2.063-2.513-1.715-4.133c0.121-0.574,0.404-0.921-0.326-0.996
					c-0.328-0.032-0.442-0.28-0.249-0.556c0.244-0.353,0.765-0.435,1.242-0.435c0.229,0,0.448,0.02,0.622,0.035
					c0.182,0.019,2.183,0.479,1.224,0.879c-0.481,0.2-0.758-0.107-0.739,0.542c0.015,0.542-0.021,1.084-0.042,1.626
					c-0.032,1.077-0.069,2.278,1.223,2.457c0.088,0.013,0.174,0.02,0.259,0.02c0.618,0,1.117-0.331,1.365-0.941
					c0.339-0.842,0.277-1.838,0.169-2.717c-0.043-0.353-0.004-0.78-0.436-0.863c-0.031-0.006-0.065-0.007-0.102-0.007
					c-0.084,0-0.177,0.01-0.27,0.01c-0.2,0-0.395-0.047-0.445-0.343C171.816,82.388,172.473,82.189,173.2,82.189 M173.2,81.991
					c-0.989,0-1.576,0.331-1.613,0.91c0,0.016,0,0.031,0.004,0.047c0.06,0.336,0.273,0.507,0.641,0.507
					c0.052,0,0.103-0.003,0.154-0.006c0.04-0.002,0.078-0.006,0.114-0.006c0.022,0,0.047,0.002,0.066,0.006
					c0.189,0.035,0.228,0.148,0.259,0.52c0.007,0.059,0.01,0.116,0.017,0.173c0.104,0.845,0.167,1.816-0.156,2.618
					c-0.215,0.528-0.634,0.818-1.182,0.818c-0.073,0-0.153-0.007-0.231-0.017c-1.039-0.144-1.091-0.988-1.052-2.256
					c0.006-0.154,0.012-0.308,0.021-0.462c0.017-0.385,0.032-0.781,0.021-1.175c-0.006-0.195,0.021-0.238,0.022-0.245
					c0.008-0.001,0.073-0.006,0.12-0.008c0.12-0.008,0.283-0.02,0.474-0.1c0.279-0.116,0.405-0.272,0.378-0.463
					c-0.079-0.532-1.641-0.795-1.657-0.797c-0.173-0.018-0.402-0.037-0.642-0.037c-0.703,0-1.162,0.17-1.405,0.521
					c-0.133,0.191-0.165,0.396-0.087,0.565c0.076,0.168,0.252,0.277,0.481,0.302c0.25,0.024,0.293,0.078,0.297,0.086
					c0.027,0.041-0.022,0.218-0.061,0.347c-0.028,0.096-0.061,0.206-0.086,0.325c-0.379,1.77,0.33,3.475,1.811,4.344
					c0.573,0.338,1.239,0.522,1.872,0.522c0.812,0,1.484-0.299,1.946-0.861c0.667-0.815,0.661-1.894,0.598-2.93
					c-0.008-0.107-0.015-0.216-0.022-0.324c-0.033-0.472-0.067-0.961-0.006-1.425c0.072-0.049,0.2-0.06,0.335-0.069
					c0.235-0.019,0.558-0.041,0.701-0.353c0.062-0.138,0.051-0.285-0.034-0.418C175.031,82.238,174.023,81.991,173.2,81.991
					L173.2,81.991z"/>
			</g>
			<g>
				<g>
					<path fill="#0A9995" d="M178.774,88.821c-0.259,0-0.522-0.015-0.781-0.042c-0.524-0.057-1.028-0.172-1.5-0.344
						c-0.031-0.01-0.055-0.036-0.062-0.067c-0.051-0.202-0.037-0.361,0.044-0.487c0.12-0.185,0.359-0.246,0.555-0.277
						c0.617-0.103,0.479-2.213,0.405-3.344c-0.021-0.316-0.039-0.59-0.039-0.765c-0.022-0.017-0.191-0.07-0.304-0.104
						c-0.29-0.092-0.618-0.194-0.671-0.454c-0.039-0.184,0.081-0.396,0.365-0.646c0.155-0.139,1.166-0.141,1.282-0.141
						c2.17,0,4.759,0.56,5.516,2.133c0.326,0.678,0.362,1.348,0.105,1.997c-0.343,0.87-1.229,1.647-2.367,2.082
						C180.529,88.661,179.648,88.821,178.774,88.821z M179.29,87.457c1.468,0,2.385-0.955,2.536-1.899
						c0.134-0.845-0.339-1.531-1.267-1.834c-0.189-0.061-0.738-0.171-1.162-0.171c-0.342,0-0.438,0.071-0.44,0.112
						c-0.021,0.321,0.04,1.092,0.104,1.907c0.055,0.695,0.111,1.413,0.118,1.884C179.217,87.457,179.29,87.457,179.29,87.457z"/>
				</g>
				<path fill="#0A9995" d="M178.064,82.248c1.686,0,4.606,0.372,5.427,2.075c0.879,1.823-0.585,3.324-2.207,3.943
					c-0.798,0.305-1.655,0.456-2.51,0.456c-0.259,0-0.515-0.014-0.771-0.04c-0.502-0.056-1.004-0.165-1.478-0.339
					c-0.115-0.439,0.139-0.58,0.518-0.644c0.884-0.148,0.446-3.35,0.446-4.205c-0.024-0.269-1.675-0.223-0.644-1.13
					C176.914,82.307,177.39,82.248,178.064,82.248 M179.29,87.557c2.658,0,3.725-3.135,1.301-3.926
					c-0.214-0.07-0.77-0.177-1.193-0.177c-0.298,0-0.529,0.051-0.539,0.206c-0.042,0.63,0.224,2.923,0.224,3.893
					C179.151,87.555,179.221,87.557,179.29,87.557 M178.064,82.048c-0.348,0-1.176,0.018-1.347,0.166
					c-0.2,0.177-0.458,0.445-0.396,0.741c0.065,0.314,0.439,0.432,0.739,0.527c0.073,0.023,0.179,0.059,0.234,0.084
					c0.005,0.176,0.02,0.42,0.037,0.697c0.059,0.861,0.208,3.152-0.322,3.24c-0.215,0.034-0.479,0.105-0.621,0.322
					c-0.097,0.15-0.113,0.34-0.056,0.566c0.017,0.063,0.063,0.112,0.126,0.137c0.479,0.174,0.99,0.29,1.524,0.348
					c0.261,0.028,0.526,0.042,0.79,0.042c0.886,0,1.778-0.162,2.581-0.468c1.162-0.444,2.068-1.243,2.425-2.138
					c0.268-0.674,0.23-1.374-0.11-2.079C182.692,82.206,179.133,82.048,178.064,82.048L178.064,82.048z M179.054,83.699
					c0.031-0.017,0.121-0.047,0.344-0.047c0.411,0,0.948,0.105,1.132,0.167c0.876,0.285,1.324,0.931,1.198,1.723
					c-0.142,0.902-1.025,1.814-2.437,1.814c-0.007,0-0.009,0-0.013,0c-0.013-0.472-0.065-1.144-0.117-1.794
					C179.1,84.811,179.039,84.029,179.054,83.699L179.054,83.699z"/>
			</g>
			<g>
				<g>
					<path fill="#0A9995" d="M186.916,88.663c-0.633,0-1.188-0.04-1.698-0.125c-0.04-0.007-0.073-0.036-0.081-0.076
						c-0.056-0.272-0.021-0.489,0.107-0.645c0.139-0.176,0.391-0.263,0.737-0.263c0.04,0,0.08,0,0.119,0.004v-3.552
						c0-0.613-0.076-0.613-0.178-0.613l-0.151,0.003c-0.152,0-0.356-0.022-0.599-0.21c-0.021-0.017-0.034-0.035-0.036-0.06
						c-0.041-0.204,0.002-0.384,0.127-0.536c0.383-0.465,1.445-0.502,1.763-0.502c0.049,0,0.093,0.002,0.132,0.003
						c0.406,0.014,0.997,0.065,1.435,0.37c0.138,0.097,0.382,0.384,0.326,0.614c-0.021,0.086-0.089,0.193-0.299,0.222
						c-0.804,0.109-0.801,0.325-0.793,1.13c0.002,0.101,0.004,0.21,0.003,0.328c-0.003,0.342,0.007,0.686,0.014,1.029
						c0.007,0.333,0.016,0.675,0.014,1.017c0.048,0.03,0.08,0.128,0.08,0.429c0,0.091-0.003,0.176-0.02,0.235
						c0.095,0.08,0.236,0.106,0.384,0.133c0.207,0.035,0.44,0.076,0.572,0.27c0.129,0.188,0.158,0.348,0.09,0.479
						c-0.144,0.274-0.646,0.299-1.146,0.299c-0.061,0-0.113,0-0.153,0.003C187.421,88.657,187.169,88.663,186.916,88.663
						L186.916,88.663z"/>
				</g>
				<path fill="#0A9995" d="M187.028,82.188c0.048,0,0.091,0.001,0.13,0.001c0.458,0.016,0.992,0.083,1.38,0.354
					c0.192,0.135,0.508,0.596,0.073,0.654c-1.003,0.137-0.872,0.51-0.877,1.556c-0.007,0.87,0.054,1.739,0.014,2.608
					c0,0.007,0,0.009-0.002,0.015c0.002,0.003,0.002,0.003,0.003,0.005c0.019,0.052,0.033,0.081,0.044,0.091
					c0.205,0.312,0.789,0.138,1.005,0.454c0.479,0.7-0.79,0.61-1.132,0.622c-0.249,0.01-0.498,0.019-0.75,0.019
					c-0.564,0-1.13-0.033-1.684-0.123c-0.125-0.612,0.271-0.788,0.749-0.788c0.073,0,0.145,0.005,0.22,0.011c0-1.22,0-2.438,0-3.658
					c0-0.65-0.09-0.714-0.277-0.714c-0.044,0-0.095,0.007-0.15,0.007c-0.142,0-0.323-0.023-0.539-0.193
					C185.081,82.311,186.427,82.188,187.028,82.188 M187.803,86.886c0.038,0,0.062,0.588,0,0.588c-0.004,0-0.007-0.001-0.009-0.004
					c-0.02-0.027-0.033-0.06-0.046-0.093c0,0,0-0.001,0-0.003c0-0.006,0-0.009,0-0.014
					C187.765,87.008,187.786,86.886,187.803,86.886 M187.028,81.99c-0.419,0-1.438,0.053-1.838,0.538
					c-0.144,0.174-0.195,0.388-0.149,0.618c0.007,0.047,0.032,0.091,0.072,0.12c0.267,0.207,0.492,0.233,0.659,0.233
					c0.033,0,0.062-0.001,0.09-0.002c0.021-0.001,0.042-0.002,0.061-0.002c0.015,0,0.024,0.001,0.03,0.001
					c0.019,0.033,0.048,0.146,0.048,0.514v3.447c-0.007,0-0.013,0-0.02,0c-0.38,0-0.656,0.1-0.817,0.299
					c-0.146,0.18-0.188,0.424-0.126,0.726c0.018,0.08,0.082,0.141,0.163,0.154c0.514,0.086,1.076,0.126,1.714,0.126
					c0.239,0,0.485-0.007,0.761-0.019c0.036,0,0.086,0,0.146,0c0.532-0.002,1.065-0.03,1.233-0.353
					c0.087-0.166,0.056-0.362-0.094-0.581c-0.155-0.228-0.424-0.274-0.639-0.312c-0.112-0.02-0.221-0.038-0.294-0.077
					c0.007-0.051,0.009-0.115,0.009-0.193c0-0.177,0-0.369-0.079-0.471c0.001-0.332-0.007-0.657-0.015-0.979
					c-0.007-0.337-0.017-0.684-0.014-1.025c0.001-0.118,0-0.229-0.003-0.33c-0.007-0.79-0.009-0.934,0.71-1.03
					c0.276-0.036,0.355-0.203,0.379-0.298c0.071-0.295-0.222-0.616-0.366-0.718c-0.458-0.319-1.069-0.374-1.488-0.387
					C187.125,81.991,187.079,81.99,187.028,81.99L187.028,81.99z"/>
			</g>
		</g>
		<g>
			<g>
				<g>
					<g>
						<path fill="#0A9995" d="M176.719,72.054c-0.024,0-0.047-0.007-0.066-0.026c-0.232-0.213-0.17-0.51-0.113-0.771
							c0.041-0.192,0.08-0.375-0.003-0.488c-0.06-0.086-0.199-0.142-0.408-0.168c-0.034-0.006-0.063-0.026-0.078-0.059
							c-0.014-0.032-0.012-0.066,0.008-0.096c0.192-0.298,0.391-0.331,0.532-0.356c0.145-0.024,0.225-0.039,0.225-0.56
							c0-0.039,0.022-0.073,0.061-0.09c0.013-0.006,0.027-0.007,0.04-0.007c0.023,0,0.047,0.006,0.065,0.024
							c0.139,0.122,0.205,0.272,0.264,0.405c0.086,0.195,0.137,0.288,0.301,0.288c0.061,0,0.13-0.012,0.213-0.034
							c0.008-0.004,0.019-0.005,0.027-0.005c0.039,0,0.074,0.023,0.091,0.059c0.02,0.047,0.002,0.101-0.042,0.126
							c-0.144,0.085-0.231,0.193-0.269,0.338c-0.067,0.259,0.032,0.622,0.304,1.079c0.021,0.038,0.017,0.085-0.014,0.119
							c-0.021,0.02-0.046,0.031-0.072,0.031c-0.017,0-0.033-0.005-0.047-0.013c-0.09-0.05-0.178-0.106-0.26-0.161
							c-0.165-0.108-0.322-0.209-0.426-0.209c-0.109,0-0.188,0.165-0.232,0.492c-0.007,0.036-0.031,0.067-0.065,0.079
							C176.741,72.053,176.729,72.054,176.719,72.054z"/>
					</g>
					<path fill="#0A9995" d="M176.913,69.53c0.299,0.267,0.232,0.719,0.631,0.719c0.065,0,0.145-0.012,0.239-0.04
						c-0.589,0.343-0.287,1.068,0,1.552c-0.286-0.163-0.539-0.383-0.733-0.383c-0.155,0-0.271,0.143-0.331,0.577
						c-0.463-0.425,0.516-1.32-0.578-1.454C176.542,69.879,176.913,70.575,176.913,69.53 M176.913,69.333
						c-0.028,0-0.055,0.006-0.082,0.019c-0.072,0.034-0.116,0.101-0.116,0.18c0,0.383-0.055,0.44-0.058,0.443
						c-0.009,0.007-0.057,0.015-0.086,0.021c-0.144,0.023-0.383,0.064-0.601,0.399c-0.037,0.057-0.042,0.129-0.014,0.192
						c0.029,0.06,0.088,0.104,0.156,0.112c0.176,0.021,0.297,0.068,0.34,0.129c0.055,0.078,0.02,0.246-0.015,0.41
						c-0.059,0.273-0.13,0.614,0.144,0.865c0.037,0.034,0.084,0.053,0.134,0.053c0.022,0,0.045-0.005,0.066-0.012
						c0.069-0.024,0.118-0.086,0.129-0.159c0.047-0.338,0.119-0.406,0.135-0.406c0.076,0,0.241,0.108,0.373,0.193
						c0.084,0.055,0.173,0.112,0.264,0.165c0.03,0.019,0.064,0.025,0.098,0.025c0.052,0,0.103-0.02,0.142-0.06
						c0.062-0.063,0.073-0.163,0.027-0.239c-0.251-0.425-0.353-0.774-0.292-1.004c0.029-0.114,0.102-0.206,0.223-0.274
						c0.086-0.049,0.121-0.156,0.082-0.25c-0.032-0.074-0.104-0.121-0.181-0.121c-0.02,0-0.037,0.003-0.056,0.007
						c-0.073,0.021-0.135,0.034-0.185,0.034c-0.097,0-0.122-0.029-0.212-0.23c-0.06-0.136-0.135-0.303-0.287-0.438
						C177.007,69.349,176.961,69.333,176.913,69.333L176.913,69.333z"/>
				</g>
				<g>
					<g>
						<path fill="#0A9995" d="M182.129,72.058c-0.074,0-0.126-0.066-0.234-0.211c-0.112-0.148-0.318-0.423-0.463-0.423
							c-0.099,0-0.194,0.166-0.263,0.458c-0.01,0.043-0.046,0.075-0.092,0.076c-0.001,0-0.003,0-0.005,0
							c-0.042,0-0.079-0.027-0.094-0.067c-0.085-0.252-0.012-0.51,0.059-0.758c0.107-0.382,0.159-0.627-0.122-0.845
							c-0.039-0.031-0.049-0.085-0.024-0.129c0.021-0.031,0.052-0.047,0.087-0.047c0.014,0,0.027,0.003,0.04,0.007
							c0.082,0.038,0.152,0.057,0.211,0.057c0.219,0,0.276-0.299,0.326-0.658c0.007-0.043,0.037-0.074,0.079-0.084
							c0.007-0.001,0.014-0.001,0.02-0.001c0.034,0,0.069,0.019,0.087,0.049c0.069,0.122,0.107,0.259,0.145,0.392
							c0.08,0.29,0.137,0.452,0.367,0.452c0.046,0,0.099-0.007,0.154-0.019c0.007-0.003,0.015-0.003,0.021-0.003
							c0.041,0,0.079,0.026,0.094,0.066c0.016,0.047-0.007,0.1-0.052,0.123c-0.651,0.31-0.387,1.097-0.241,1.422
							c0.017,0.039,0.006,0.083-0.023,0.113C182.187,72.044,182.154,72.058,182.129,72.058L182.129,72.058z"/>
					</g>
					<path fill="#0A9995" d="M181.652,69.53c0.197,0.348,0.135,0.895,0.599,0.895c0.051,0,0.111-0.006,0.178-0.021
						c-0.588,0.282-0.559,0.949-0.29,1.553c-0.003,0.002-0.007,0.005-0.009,0.005c-0.077,0-0.405-0.635-0.697-0.635
						c-0.136,0-0.266,0.137-0.359,0.534c-0.183-0.548,0.491-1.193-0.096-1.649c0.098,0.046,0.179,0.065,0.252,0.065
						C181.55,70.275,181.607,69.86,181.652,69.53 M181.652,69.333c-0.012,0-0.024,0.001-0.037,0.005
						c-0.085,0.017-0.147,0.083-0.158,0.167c-0.041,0.302-0.09,0.572-0.229,0.572c-0.032,0-0.086-0.006-0.17-0.047
						c-0.026-0.011-0.054-0.019-0.081-0.019c-0.068,0-0.134,0.033-0.171,0.097c-0.051,0.086-0.029,0.198,0.048,0.26
						c0.232,0.179,0.19,0.378,0.086,0.738c-0.07,0.25-0.15,0.535-0.057,0.817c0.027,0.081,0.102,0.135,0.188,0.135
						c0.003,0,0.005,0,0.007,0c0.088-0.005,0.165-0.065,0.183-0.153c0.082-0.341,0.168-0.381,0.169-0.381
						c0.093,0,0.311,0.289,0.382,0.384c0.122,0.162,0.19,0.25,0.313,0.25c0.051,0,0.109-0.023,0.146-0.058
						c0.061-0.06,0.078-0.149,0.046-0.225c-0.132-0.298-0.379-1.019,0.193-1.292c0.091-0.043,0.135-0.148,0.102-0.245
						c-0.027-0.082-0.104-0.135-0.188-0.135c-0.013,0-0.027,0.004-0.044,0.006c-0.049,0.012-0.096,0.018-0.134,0.018
						c-0.14,0-0.183-0.061-0.272-0.38c-0.036-0.132-0.078-0.281-0.154-0.414C181.789,69.369,181.722,69.333,181.652,69.333
						L181.652,69.333z"/>
				</g>
				<g>
					<g>
						<path fill="#0A9995" d="M171.687,74.187c-0.035,0-0.07-0.02-0.087-0.052c-0.121-0.225-0.146-0.456-0.168-0.659
							c-0.04-0.355-0.061-0.551-0.519-0.551c-0.028,0-0.094,0.002-0.096,0.002c-0.044,0-0.082-0.029-0.095-0.072
							c-0.013-0.043,0.006-0.09,0.046-0.114c0.466-0.271,0.454-0.372,0.425-0.619c-0.017-0.142-0.037-0.32,0.01-0.574
							c0.007-0.037,0.035-0.068,0.073-0.077c0.007-0.002,0.018-0.004,0.024-0.004c0.029,0,0.058,0.013,0.075,0.034
							c0.044,0.051,0.086,0.104,0.126,0.156c0.102,0.127,0.206,0.263,0.281,0.263c0.03,0,0.099-0.029,0.206-0.21
							c0.021-0.032,0.051-0.048,0.087-0.048c0.013,0,0.021,0.002,0.033,0.007c0.047,0.02,0.073,0.064,0.062,0.113
							c-0.117,0.573,0.064,1.029,0.537,1.352c0.038,0.025,0.054,0.073,0.038,0.115c-0.014,0.035-0.059,0.121-0.193,0.121l0,0
							c-0.17,0-0.432-0.138-0.564-0.22c-0.14,0.168-0.162,0.452-0.181,0.705c-0.006,0.089-0.013,0.174-0.024,0.249
							c-0.007,0.043-0.038,0.074-0.08,0.083C171.699,74.187,171.692,74.187,171.687,74.187z"/>
					</g>
					<path fill="#0A9995" d="M171.301,71.567c0.179,0.208,0.318,0.453,0.482,0.453c0.087,0,0.18-0.072,0.293-0.259
						c-0.117,0.578,0.047,1.088,0.578,1.454c-0.014,0.039-0.051,0.055-0.1,0.055c-0.179,0-0.523-0.204-0.576-0.248
						c-0.284,0.236-0.245,0.748-0.291,1.068c-0.315-0.592,0.07-1.263-0.774-1.263c-0.031,0-0.061,0.001-0.097,0.003
						C171.604,72.372,171.167,72.274,171.301,71.567 M171.301,71.368c-0.018,0-0.033,0.002-0.052,0.007
						c-0.073,0.021-0.127,0.08-0.142,0.155c-0.05,0.268-0.028,0.463-0.012,0.604c0.026,0.224,0.033,0.285-0.378,0.522
						c-0.078,0.046-0.114,0.141-0.089,0.229c0.025,0.085,0.101,0.14,0.189,0.14c0.005,0,0.007,0,0.011,0
						c0.03-0.002,0.059-0.002,0.086-0.002c0.369,0,0.381,0.106,0.419,0.462c0.021,0.202,0.051,0.452,0.18,0.694
						c0.034,0.066,0.102,0.104,0.176,0.104c0.01,0,0.021,0,0.032-0.002c0.085-0.015,0.149-0.082,0.162-0.167
						c0.011-0.075,0.021-0.164,0.024-0.254c0.016-0.205,0.033-0.43,0.113-0.578c0.152,0.086,0.373,0.187,0.534,0.187
						c0.138,0,0.245-0.072,0.286-0.189c0.032-0.085-0.001-0.178-0.073-0.23c-0.438-0.299-0.605-0.721-0.499-1.251
						c0.021-0.095-0.032-0.19-0.123-0.225c-0.022-0.008-0.047-0.013-0.071-0.013c-0.068,0-0.134,0.036-0.17,0.098
						c-0.066,0.112-0.108,0.149-0.127,0.159c-0.046-0.027-0.138-0.141-0.199-0.221c-0.041-0.052-0.085-0.106-0.128-0.16
						C171.412,71.393,171.357,71.368,171.301,71.368L171.301,71.368z"/>
				</g>
				<g>
					<g>
						<path fill="#0A9995" d="M187.023,73.991c-0.062,0-0.222,0-0.242-0.779c-0.131,0.003-0.246,0.047-0.366,0.091
							c-0.123,0.048-0.25,0.099-0.402,0.108c-0.004,0-0.007,0-0.007,0c-0.034,0-0.068-0.019-0.086-0.047
							c-0.021-0.033-0.02-0.073,0.002-0.105c0.069-0.105,0.164-0.206,0.265-0.313c0.337-0.364,0.521-0.605,0.23-0.923
							c-0.027-0.029-0.033-0.073-0.019-0.107c0.017-0.036,0.052-0.061,0.091-0.061c0.001,0,0.001,0,0.002,0
							c0.055,0.002,0.111,0.005,0.166,0.007c0.06,0.003,0.118,0.006,0.175,0.006c0.235,0,0.376-0.051,0.432-0.323
							c0.009-0.045,0.047-0.075,0.092-0.079c0.001,0,0.004,0,0.005,0c0.044,0,0.081,0.029,0.095,0.07
							c0.039,0.121,0.038,0.278,0.036,0.446c-0.001,0.222-0.004,0.473,0.104,0.584c0.046,0.046,0.111,0.067,0.202,0.067
							c0,0,0.045,0,0.047,0c0.03,0,0.06,0.015,0.076,0.038c0.021,0.026,0.026,0.06,0.018,0.091c-0.07,0.216-0.285,0.241-0.456,0.263
							c-0.08,0.009-0.163,0.02-0.217,0.047c0.026,0.822-0.134,0.883-0.194,0.91C187.061,73.986,187.036,73.991,187.023,73.991z"/>
					</g>
					<path fill="#0A9995" d="M187.362,71.567c0.113,0.344-0.157,1.166,0.437,1.166c0.015,0,0.031-0.001,0.047-0.002
						c-0.087,0.269-0.51,0.129-0.678,0.289c0.002,0.06,0.038,0.802-0.131,0.869c-0.006,0.002-0.009,0.003-0.014,0.003
						c-0.125,0-0.144-0.691-0.146-0.773c0,0,0,0,0.001,0c0-0.007-0.001-0.007-0.001-0.007s0,0.002,0,0.007
						c-0.03-0.006-0.061-0.007-0.089-0.007c-0.288,0-0.49,0.179-0.782,0.199c0.261-0.396,0.982-0.817,0.484-1.356
						c0.115,0.002,0.232,0.012,0.343,0.012C187.08,71.967,187.29,71.912,187.362,71.567 M187.362,71.368c-0.004,0-0.007,0-0.011,0
						c-0.088,0.006-0.165,0.07-0.182,0.158c-0.044,0.206-0.127,0.244-0.334,0.244c-0.057,0-0.113-0.004-0.17-0.007
						c-0.057-0.004-0.113-0.006-0.17-0.006c-0.001,0-0.001,0-0.002,0c-0.078,0-0.149,0.047-0.182,0.117
						c-0.032,0.073-0.019,0.158,0.035,0.216c0.215,0.234,0.136,0.393-0.232,0.786c-0.099,0.105-0.2,0.215-0.272,0.328
						c-0.042,0.062-0.044,0.144-0.007,0.208c0.035,0.059,0.102,0.099,0.172,0.099c0.006,0,0.009,0,0.014-0.001
						c0.168-0.012,0.307-0.065,0.432-0.114c0.083-0.032,0.158-0.059,0.233-0.076c0.037,0.77,0.231,0.77,0.338,0.77
						c0.025,0,0.063-0.006,0.086-0.017c0.141-0.055,0.276-0.211,0.261-0.932c0.041-0.007,0.09-0.015,0.126-0.02
						c0.18-0.02,0.447-0.054,0.538-0.331c0.02-0.062,0.009-0.13-0.033-0.183c-0.036-0.048-0.095-0.076-0.154-0.076
						c-0.006,0-0.009,0-0.014,0c-0.012,0-0.023,0.001-0.033,0.001c-0.094,0-0.122-0.029-0.132-0.039
						c-0.079-0.081-0.076-0.32-0.074-0.512c0.003-0.177,0.004-0.339-0.041-0.477C187.524,71.423,187.447,71.368,187.362,71.368
						L187.362,71.368z"/>
				</g>
				<g>
					<g>
						<path fill="#0A9995" d="M166.98,77.807c-0.083,0-0.167,0-0.404-0.914c-0.007-0.001-0.016-0.001-0.022-0.001
							c-0.072,0-0.143,0.025-0.218,0.051c-0.082,0.03-0.177,0.063-0.286,0.063l0,0c-0.026,0-0.056-0.002-0.085-0.007
							c-0.036-0.007-0.066-0.033-0.078-0.067c-0.012-0.035-0.003-0.073,0.022-0.101c0.204-0.211,0.386-0.406,0.541-0.63
							l-0.179-0.733c-0.011-0.039,0.004-0.081,0.036-0.104c0.019-0.012,0.037-0.02,0.06-0.02c0.018,0,0.034,0.005,0.05,0.014
							c0.126,0.075,0.223,0.171,0.309,0.255c0.076,0.076,0.156,0.154,0.203,0.154c0.024,0,0.097-0.026,0.223-0.272
							c0.017-0.034,0.051-0.054,0.088-0.054c0.006,0,0.012,0,0.02,0.002c0.073,0.015,0.126,0.061,0.149,0.134
							c0.049,0.152-0.06,0.405-0.14,0.538c0.046,0.054,0.091,0.109,0.137,0.166c0.183,0.226,0.356,0.442,0.637,0.524
							c0.029,0.008,0.053,0.032,0.063,0.06c0.012,0.029,0.008,0.06-0.007,0.086c-0.034,0.063-0.111,0.139-0.258,0.139
							c-0.092,0-0.191-0.029-0.287-0.058c-0.081-0.022-0.166-0.047-0.229-0.047c0,0-0.002,0.012-0.003,0.02
							c-0.073,0.428-0.145,0.71-0.28,0.788C167.024,77.8,166.997,77.807,166.98,77.807z"/>
					</g>
					<path fill="#0A9995" d="M166.367,75.446c0.259,0.155,0.402,0.422,0.562,0.422c0.091,0,0.185-0.086,0.311-0.326
						c0.207,0.041-0.034,0.514-0.099,0.583c0.267,0.29,0.462,0.654,0.87,0.775c-0.038,0.068-0.1,0.09-0.171,0.09
						c-0.155,0-0.363-0.105-0.517-0.105c-0.031,0-0.061,0.006-0.087,0.015c-0.02,0.09-0.1,0.721-0.246,0.804
						c-0.003,0.002-0.007,0.003-0.01,0.003c-0.105,0-0.322-0.898-0.325-0.904c-0.035-0.008-0.07-0.011-0.101-0.011
						c-0.184,0-0.318,0.114-0.504,0.114c-0.022,0-0.046-0.001-0.07-0.006c0.206-0.215,0.41-0.431,0.577-0.681
						C166.495,75.963,166.43,75.704,166.367,75.446 M166.367,75.247c-0.043,0-0.083,0.014-0.119,0.039
						c-0.063,0.047-0.093,0.13-0.073,0.207l0.17,0.688c-0.146,0.204-0.315,0.385-0.507,0.58c-0.052,0.054-0.068,0.13-0.046,0.203
						c0.023,0.07,0.084,0.121,0.157,0.133c0.032,0.007,0.068,0.007,0.099,0.007c0.129,0,0.229-0.036,0.32-0.07
						c0.047-0.018,0.09-0.032,0.131-0.041c0.216,0.822,0.315,0.91,0.479,0.91c0.034,0,0.077-0.01,0.107-0.028
						c0.163-0.092,0.24-0.348,0.316-0.781c0.039,0.008,0.081,0.02,0.122,0.033c0.102,0.029,0.208,0.06,0.313,0.06
						c0.204,0,0.304-0.119,0.344-0.189c0.029-0.053,0.033-0.117,0.01-0.173c-0.021-0.058-0.069-0.1-0.126-0.116
						c-0.251-0.073-0.407-0.267-0.588-0.491c-0.032-0.039-0.062-0.076-0.094-0.115c0.083-0.156,0.168-0.391,0.114-0.557
						c-0.034-0.105-0.116-0.178-0.227-0.202c-0.012-0.002-0.025-0.004-0.037-0.004c-0.073,0-0.14,0.041-0.176,0.109
						c-0.073,0.14-0.121,0.193-0.14,0.212c-0.024-0.02-0.085-0.076-0.128-0.121c-0.085-0.084-0.19-0.187-0.326-0.27
						C166.436,75.256,166.401,75.247,166.367,75.247L166.367,75.247z"/>
				</g>
				<g>
					<g>
						<path fill="#0A9995" d="M191.619,77.873c-0.021,0-0.045-0.006-0.061-0.021c-0.023-0.019-0.038-0.047-0.038-0.076v-0.784
							c-0.007-0.001-0.017-0.001-0.025-0.001c-0.1,0-0.199,0.027-0.3,0.055c-0.113,0.031-0.227,0.059-0.355,0.059
							c-0.034,0-0.068-0.001-0.103-0.006c-0.034-0.005-0.066-0.029-0.079-0.062c-0.013-0.035-0.007-0.074,0.02-0.101
							c0.055-0.06,0.104-0.125,0.153-0.19c0.152-0.193,0.306-0.394,0.575-0.491c-0.059-0.229-0.112-0.456-0.169-0.684
							c-0.01-0.038,0.004-0.078,0.033-0.102c0.021-0.014,0.039-0.02,0.062-0.02c0.016,0,0.03,0.005,0.045,0.011
							c0.142,0.072,0.239,0.153,0.316,0.219c0.06,0.048,0.113,0.093,0.143,0.093c0.049,0,0.146-0.097,0.288-0.286
							c0.019-0.025,0.046-0.039,0.079-0.039c0.012,0,0.027,0.004,0.04,0.008c0.073,0.033,0.123,0.092,0.143,0.171
							c0.054,0.198-0.09,0.477-0.164,0.596c0.141,0.2,0.312,0.368,0.517,0.5c0.04,0.026,0.056,0.076,0.037,0.122
							c-0.056,0.134-0.153,0.162-0.225,0.162c-0.073,0-0.146-0.028-0.22-0.055c-0.061-0.023-0.126-0.048-0.178-0.048
							c-0.024,0-0.068,0-0.112,0.088c-0.031,0.061-0.043,0.164-0.055,0.273c-0.027,0.241-0.061,0.538-0.346,0.606
							C191.635,77.872,191.628,77.873,191.619,77.873z"/>
					</g>
					<path fill="#0A9995" d="M192.2,75.542c0.234,0.106-0.015,0.562-0.097,0.68c0.152,0.235,0.345,0.428,0.58,0.582
						c-0.033,0.075-0.078,0.101-0.135,0.101c-0.112,0-0.263-0.103-0.396-0.103c-0.076,0-0.146,0.034-0.2,0.143
						c-0.112,0.228-0.006,0.749-0.334,0.83c0-0.292,0-0.583,0-0.874c-0.044-0.008-0.085-0.011-0.126-0.011
						c-0.23,0-0.425,0.114-0.657,0.114c-0.028,0-0.06-0.002-0.089-0.006c0.235-0.261,0.386-0.585,0.773-0.68
						c-0.063-0.258-0.126-0.517-0.192-0.776c0.277,0.143,0.376,0.324,0.504,0.324C191.92,75.867,192.021,75.783,192.2,75.542
						 M192.2,75.344c-0.06,0-0.12,0.028-0.159,0.08c-0.117,0.159-0.179,0.217-0.206,0.237c-0.022-0.016-0.056-0.043-0.08-0.063
						c-0.075-0.065-0.181-0.153-0.333-0.232c-0.028-0.014-0.06-0.021-0.091-0.021c-0.043,0-0.088,0.015-0.122,0.043
						c-0.062,0.047-0.088,0.127-0.071,0.203c0.049,0.2,0.1,0.402,0.151,0.603c-0.247,0.113-0.399,0.312-0.537,0.49
						c-0.048,0.06-0.098,0.125-0.15,0.182c-0.05,0.055-0.063,0.133-0.038,0.202c0.024,0.07,0.086,0.117,0.159,0.127
						c0.039,0.006,0.078,0.007,0.114,0.007c0.143,0,0.271-0.034,0.383-0.064c0.069-0.019,0.137-0.036,0.202-0.046v0.682
						c0,0.061,0.028,0.117,0.073,0.155c0.035,0.028,0.079,0.043,0.124,0.043c0.017,0,0.031-0.003,0.047-0.006
						c0.353-0.085,0.394-0.451,0.421-0.695c0.011-0.088,0.022-0.192,0.045-0.241c0.014-0.026,0.021-0.033,0.021-0.033
						c0.034,0.002,0.093,0.023,0.144,0.044c0.08,0.031,0.162,0.061,0.252,0.061c0.143,0,0.259-0.083,0.317-0.225
						c0.034-0.086,0.005-0.19-0.075-0.24c-0.175-0.115-0.326-0.258-0.451-0.424c0.082-0.152,0.197-0.411,0.141-0.618
						c-0.03-0.107-0.1-0.19-0.199-0.237C192.256,75.349,192.227,75.344,192.2,75.344L192.2,75.344z"/>
				</g>
			</g>
			<g>
				<g>
					<path fill="#0A9995" d="M162.645,80.036c-9.348,0-9.348-0.073-9.348-0.224c0-0.085,0-0.085,1.256-0.302
						c1.091-0.187,2.739-0.467,2.962-0.525c1.571-0.418,2.898-0.937,4.055-1.587c0.827-0.465,1.987-1.211,2.51-2.307
						c0.3-0.63,0.3-1.324,0-1.958c-0.049-0.104-0.374-0.521-0.635-0.854c-0.589-0.75-0.587-0.751-0.524-0.833
						c0.02-0.025,0.055-0.049,0.11-0.049c0.138,0,0.44,0.169,0.888,0.425c0.198,0.112,0.403,0.231,0.471,0.252
						c0.254,0.08,0.523,0.119,0.795,0.119c0.288,0,0.582-0.046,0.875-0.131c0.959-0.287,1.803-0.898,2.618-1.49
						c0.273-0.198,0.545-0.395,0.817-0.578c0.453-0.305,1.057-0.688,1.721-0.958c0.638-0.259,0.522-0.913,0.398-1.607l-0.007-0.038
						c-0.02-0.122-0.188-0.601-0.365-1.11c-0.72-2.062-0.756-2.304-0.59-2.365c0.01-0.004,0.03-0.007,0.042-0.007
						c0.179,0,0.52,0.496,1.974,3.31c0.142,0.275,0.246,0.476,0.287,0.549c0.069,0.123,0.119,0.229,0.161,0.318
						c0.108,0.231,0.14,0.286,0.277,0.286c0.076,0,0.186-0.02,0.342-0.061c0.464-0.126,0.952-0.235,1.498-0.339
						c0.748-0.141,1.554-0.258,2.538-0.369c0.153-0.017,0.288-0.02,0.407-0.02c0.371-0.002,0.485-0.002,0.533-0.467
						s0.088-0.954,0.124-1.498c0.063-1.035,0.1-2.092,0.136-3.113c0,0,0.006-0.227,0.007-0.385c0.074-3.998,0.25-4.324,0.453-4.324
						c0.159,0.007,0.271,0.013,0.364,4.817c0.007,0.35,0.012,0.606,0.016,0.708c0.039,0.946,0.083,1.893,0.128,2.836
						c0.007,0.161,0.01,0.304,0.014,0.432c0.012,0.694,0.014,0.838,0.867,0.963c0.298,0.044,0.597,0.086,0.894,0.127
						c0.71,0.1,1.443,0.203,2.159,0.332c0.218,0.04,0.405,0.087,0.575,0.128c0.241,0.061,0.432,0.108,0.6,0.108
						c0.254,0,0.491-0.104,0.819-0.614c0.077-0.121,0.295-0.557,0.544-1.062c1.061-2.142,1.367-2.664,1.555-2.664
						c0.01,0,0.027,0.002,0.034,0.005c0.195,0.065,0.153,0.371-0.53,2.544c-0.189,0.602-0.368,1.171-0.388,1.332
						c-0.089,0.791,0.037,0.846,0.463,1.025c0.155,0.065,0.347,0.146,0.571,0.278c0.559,0.331,1.061,0.743,1.614,1.208
						c0.174,0.146,0.363,0.325,0.564,0.511c0.781,0.727,1.753,1.633,2.695,1.633c0.2,0,0.938-0.405,1.533-0.73
						c0.791-0.432,1.285-0.694,1.487-0.694c0.099,0,0.134,0.058,0.146,0.083c0.026,0.063,0.026,0.063-0.269,0.389
						c-0.359,0.396-1.203,1.322-1.288,1.53c-0.21,0.509-0.204,1.084,0.017,1.617c0.442,1.049,1.479,1.802,2.22,2.278
						c2.356,1.512,4.104,2.441,8.531,2.602c0.06,0.003,0.18,0.006,0.18,0.114c-0.003,0.226-1.85,0.333-1.869,0.334
						c-0.913,0.021-1.829,0.035-2.748,0.046c-1.25,0.015-2.5,0.02-3.75,0.02c-0.771,0-1.544-0.002-2.316-0.005l-2.312-0.011
						c-1.569-0.007-3.138-0.015-4.707-0.015c-1.096,0-2.191,0.003-3.286,0.013h-0.001c-0.021,0-0.044-0.007-0.061-0.02
						c-0.174-0.139-0.235-0.456-0.298-0.764c-0.033-0.177-0.068-0.343-0.115-0.451c-0.684-1.466-2.388-2.341-4.562-2.341
						c-1.104,0-2.224,0.242-3.075,0.664c-0.696,0.346-1.246,0.82-1.593,1.375c-0.047,0.072-0.16,0.407-0.261,0.703
						c-0.273,0.804-0.297,0.834-0.394,0.834h-0.788c-0.277,0-0.935,0.003-1.851,0.006C169.456,80.023,165.99,80.036,162.645,80.036z
						 M186.774,78.469c0.854,0.065,1.794,0.096,2.94,0.096c0.632,0,1.262-0.007,1.894-0.019c0.561-0.007,1.122-0.016,1.681-0.017
						c0.005,0,0.322,0,0.323,0c0.572,0,2.477,0.001,3.334,0.007c-1.189-0.735-3.02-2.358-3.679-3.3
						c-0.304-0.437-0.659-0.83-1.058-1.171c-0.289,0.269-0.623,0.524-1.041,0.799c-0.374,0.245-0.778,0.476-1.17,0.699
						C188.706,76.302,187.373,77.064,186.774,78.469z M171.99,78.542c-0.709-1.813-3.338-3.229-4.764-3.998
						c-0.371-0.2-0.656-0.353-0.824-0.467c-0.249,0.33-0.523,0.737-0.811,1.169c-0.831,1.24-1.833,2.74-2.926,3.296H171.99z
						 M173.7,77.605c-0.125,0-0.336,0.155-0.426,0.312c-0.034,0.058-0.047,0.106-0.032,0.129c0.015,0.026,0.073,0.052,0.194,0.052
						c0.083,0,0.185-0.013,0.304-0.036c0.081-0.312,0.034-0.41,0.015-0.431C173.748,77.618,173.733,77.605,173.7,77.605z
						 M185.193,77.404c-0.084,0-0.172,0.053-0.248,0.153c-0.094,0.12-0.127,0.22-0.1,0.28c0.029,0.06,0.135,0.1,0.257,0.1
						c0.159,0,0.301-0.063,0.321-0.146c0.026-0.108,0.007-0.217-0.055-0.295C185.323,77.438,185.26,77.404,185.193,77.404z
						 M170.318,74.668c0.817,0.409,1.506,0.748,2.214,1.069c0.146,0.065,0.291,0.141,0.432,0.212
						c0.336,0.174,0.652,0.339,0.918,0.339c0.168,0,0.419-0.058,0.646-0.551c0.577-1.246-0.212-2.72-0.844-3.904l-0.166-0.312
						c-0.089-0.172-0.161-0.357-0.231-0.536c-0.167-0.436-0.312-0.812-0.646-0.812c-0.072,0-0.152,0.018-0.243,0.048
						c-0.849,0.306-1.587,0.625-2.256,0.972c-1.145,0.597-2.051,1.268-2.768,2.046c0.866,0.389,1.727,0.817,2.558,1.235
						L170.318,74.668z M185.958,70.074c-0.142,0.508-0.463,1.109-0.804,1.74c-0.809,1.51-1.725,3.224-0.584,4.331
						c0.086,0.083,0.206,0.122,0.371,0.122c0.658,0,1.765-0.649,2.497-1.081c0.237-0.14,0.44-0.259,0.589-0.335
						c1.136-0.576,2.199-1.117,3.355-1.614C190.117,71.838,188.34,70.802,185.958,70.074z M182.848,75.423
						c-0.02,0-0.078,0-0.112,0.109c-0.068,0.232-0.07,0.414-0.007,0.5c0.033,0.042,0.084,0.062,0.16,0.062
						c0.046,0,0.104-0.008,0.167-0.026c0.13-0.197,0.082-0.366,0.04-0.449C183.034,75.492,182.922,75.423,182.848,75.423z
						 M176.014,75.347c-0.034,0-0.084,0.005-0.111,0.032c-0.02,0.018-0.026,0.045-0.026,0.079c0,0.17,0.204,0.442,0.445,0.442V76
						l0.005-0.1c0.016-0.013,0.033-0.115-0.021-0.266C176.26,75.501,176.155,75.347,176.014,75.347z M179.267,75.347
						c0.246,0,0.41-0.062,0.489-0.184c0.201-0.31-0.108-1.003-0.313-1.466c-0.012-0.022-0.021-0.047-0.031-0.068
						c-0.042,0.113-0.094,0.23-0.147,0.35c-0.209,0.472-0.424,0.958-0.107,1.31c0.026,0.021,0.046,0.041,0.065,0.058
						C179.238,75.347,179.253,75.347,179.267,75.347z M180.158,71.156c0.013,1.435,0.153,3.143,1.502,3.607c0.001,0,0.002,0,0.002,0
						c0.374,0,0.99-1.275,1.323-1.96c0.135-0.277,0.25-0.519,0.335-0.659c0.456-0.768,0.972-1.634,1.348-2.552
						c-0.361-0.063-0.721-0.135-1.081-0.206c-1.088-0.213-2.213-0.435-3.346-0.435c-0.039,0-0.079,0-0.119,0.001
						c0.02,0.358,0.024,0.714,0.031,1.071l0.003,0.194C180.165,70.889,180.167,71.088,180.158,71.156z M174.189,69.643
						c-0.073,0.403,0.679,1.629,1.091,2.301c0.135,0.219,0.25,0.409,0.325,0.547c0.083,0.146,0.175,0.34,0.271,0.546
						c0.329,0.703,0.78,1.667,1.315,1.667c0.108,0,0.22-0.041,0.336-0.123c1.112-0.788,1.129-2.667,1.143-4.178
						c0.004-0.5,0.009-0.975,0.049-1.374c-0.206-0.019-0.419-0.026-0.634-0.026c-1.338,0-2.712,0.344-3.818,0.619L174.189,69.643z"
						/>
				</g>
				<path fill="#0A9995" d="M179.431,57.888c0.218,0.01,0.26,4.894,0.283,5.43c0.039,0.946,0.081,1.892,0.126,2.837
					c0.054,1.053-0.139,1.325,0.964,1.489c1.017,0.15,2.039,0.274,3.049,0.458c0.528,0.098,0.888,0.238,1.192,0.238
					c0.315,0,0.574-0.152,0.902-0.658c0.25-0.389,1.759-3.683,2.016-3.682c0.003,0,0.006,0,0.007,0.001
					c0.235,0.078-0.936,3.309-0.989,3.769c-0.134,1.167,0.232,0.897,1.082,1.402c0.573,0.338,1.091,0.77,1.601,1.197
					c0.857,0.727,2.094,2.167,3.324,2.167c0.437,0,2.629-1.426,3.02-1.426c0.029,0,0.048,0.008,0.056,0.024
					c0.007,0.016-1.432,1.534-1.557,1.84c-0.229,0.549-0.211,1.148,0.017,1.694c0.423,1.008,1.363,1.751,2.256,2.324
					c2.491,1.599,4.29,2.463,8.581,2.618c0.481,0.021-1.263,0.24-1.688,0.25c-0.914,0.02-1.829,0.035-2.747,0.047
					c-1.25,0.014-2.5,0.02-3.749,0.02c-0.772,0-1.544-0.001-2.315-0.006c-2.342-0.008-4.683-0.025-7.021-0.025
					c-1.096,0-2.192,0.004-3.286,0.013c-0.237-0.188-0.246-0.874-0.386-1.177c-0.79-1.695-2.735-2.398-4.65-2.398
					c-1.131,0-2.253,0.246-3.118,0.674c-0.651,0.323-1.244,0.789-1.633,1.411c-0.113,0.178-0.498,1.491-0.572,1.491
					c-0.26,0-0.524,0-0.787,0c-0.911,0-5.965,0.024-10.766,0.024c-4.748,0-9.249-0.023-9.249-0.124c0-0.013,3.782-0.638,4.145-0.734
					c1.41-0.376,2.804-0.882,4.077-1.6c0.989-0.557,2.046-1.294,2.55-2.349c0.314-0.659,0.312-1.386,0-2.044
					c-0.105-0.226-1.204-1.541-1.171-1.586c0.006-0.006,0.019-0.011,0.033-0.011c0.202,0,1.135,0.613,1.329,0.673
					c0.27,0.086,0.547,0.125,0.825,0.125c0.302,0,0.605-0.047,0.902-0.135c1.294-0.387,2.358-1.34,3.462-2.08
					c0.537-0.364,1.097-0.703,1.7-0.947c0.727-0.294,0.583-1.03,0.454-1.756c-0.06-0.36-1.202-3.297-1.019-3.367
					c0.004-0.001,0.007-0.001,0.007-0.001c0.258,0,1.975,3.451,2.176,3.808c0.246,0.431,0.238,0.654,0.525,0.654
					c0.087,0,0.206-0.02,0.366-0.064c0.492-0.133,0.99-0.244,1.493-0.338c0.836-0.156,1.682-0.272,2.531-0.366
					c0.64-0.073,0.95,0.147,1.027-0.575c0.052-0.5,0.092-1.003,0.125-1.503c0.066-1.059,0.1-2.118,0.137-3.177
					C179.087,62.028,179.118,57.888,179.431,57.888 M180.055,70.219c-0.001-0.036-0.001-0.052-0.001-0.052s0,0.077,0.005,0.188
					c0.006,1.473-0.121,3.925,1.57,4.503c0.02,0.007,0.041,0.011,0.062,0.011c0.539,0,1.388-2.127,1.712-2.676
					c0.517-0.867,1.031-1.739,1.402-2.681c-1.521-0.26-3.014-0.662-4.564-0.662c-0.072,0-0.148,0.001-0.222,0.003
					C180.043,69.308,180.048,69.763,180.055,70.219 M174.246,69.527c0.161-0.04,0.41-0.102,0.41-0.102s-0.107,0.026-0.419,0.104
					c-0.042,0.01-0.084,0.02-0.126,0.032l0,0l0,0l0,0l0,0l0,0c-0.212,0.499,1.047,2.328,1.409,2.979
					c0.368,0.657,0.907,2.265,1.672,2.265c0.125,0,0.256-0.044,0.392-0.14c1.555-1.1,1.045-4.115,1.246-5.722
					c-0.249-0.024-0.497-0.035-0.745-0.035C176.789,68.905,175.5,69.213,174.246,69.527 M184.943,76.367
					c0.896,0,2.505-1.11,3.131-1.427c1.145-0.582,2.269-1.154,3.474-1.667c-1.477-1.684-3.547-2.69-5.66-3.325
					c-0.399,1.688-3.104,4.6-1.385,6.268C184.611,76.321,184.762,76.367,184.943,76.367 M169.967,74.604
					c-0.159-0.08-0.22-0.11-0.22-0.11c-0.001,0,0.646,0.325,0.647,0.325c0,0-0.033-0.017-0.121-0.06
					c0.733,0.366,1.47,0.73,2.217,1.069c0.514,0.232,0.985,0.561,1.392,0.561c0.28,0,0.527-0.155,0.737-0.607
					c0.65-1.407-0.374-3.089-1.013-4.304c-0.315-0.603-0.408-1.402-0.965-1.402c-0.082,0-0.173,0.018-0.275,0.055
					c-0.774,0.278-1.535,0.596-2.269,0.977c-1.071,0.56-2.08,1.262-2.888,2.171C168.143,73.688,169.053,74.146,169.967,74.604
					 M179.089,75.36c-0.053-0.044-0.113-0.089-0.114-0.089c-0.002,0,0.046,0.045,0.2,0.173c0.034,0.001,0.063,0.004,0.093,0.004
					c1.236,0,0.386-1.455,0.13-2.106C179.265,73.957,178.564,74.791,179.089,75.36 M189.715,78.664c1.263,0,2.526-0.035,3.785-0.035
					c0.396,0,3.429,0.002,3.826,0.01c-1.132-0.586-3.259-2.435-3.979-3.46c-0.321-0.465-0.706-0.884-1.142-1.245
					c-0.334,0.32-0.707,0.594-1.092,0.847c-1.628,1.063-3.728,1.813-4.483,3.776C187.658,78.64,188.686,78.664,189.715,78.664
					 M162.079,78.643c2.691,0,7.361,0,10.053,0c-0.829-2.463-5.122-4.196-5.75-4.702C165.282,75.355,163.757,78.347,162.079,78.643
					 M176.322,75.999c-0.006,0-0.112,0-0.112,0S176.236,75.999,176.322,75.999C176.323,75.999,176.323,75.999,176.322,75.999
					C176.323,75.999,176.323,75.999,176.322,75.999c0.257,0,0.076-0.75-0.308-0.75C175.535,75.247,175.858,75.999,176.322,75.999
					 M182.89,76.195c0.063,0,0.139-0.013,0.229-0.04c0.02-0.027,0.027-0.034,0.027-0.034s-0.026,0.034-0.027,0.034
					c0.306-0.411-0.02-0.831-0.271-0.831c-0.089,0-0.167,0.054-0.205,0.179C182.534,75.876,182.565,76.195,182.89,76.195
					 M185.103,78.038c0.187,0,0.38-0.078,0.418-0.222c0,0.002,0,0.002,0,0.002l0.016-0.059c0,0-0.004,0.014-0.015,0.055
					c0.065-0.268-0.107-0.509-0.326-0.509c-0.106,0-0.223,0.057-0.326,0.192C184.575,77.87,184.83,78.038,185.103,78.038
					 M173.438,78.197c0.1,0,0.225-0.016,0.384-0.05c-0.001,0-0.032,0.007-0.032,0.007l0,0l0,0c0,0,0.007-0.002,0.032-0.007
					c0.136-0.479,0.037-0.641-0.122-0.641C173.37,77.506,172.775,78.197,173.438,78.197 M174.246,69.527
					c-0.065,0.016-0.116,0.029-0.131,0.033c0.047-0.009,0.087-0.02,0.123-0.03C174.241,69.528,174.243,69.528,174.246,69.527
					 M174.115,69.559L174.115,69.559L174.115,69.559 M174.115,69.559C174.114,69.559,174.114,69.559,174.115,69.559
					C174.114,69.559,174.114,69.559,174.115,69.559 M174.114,69.56L174.114,69.56L174.114,69.56 M174.114,69.56L174.114,69.56
					L174.114,69.56 M174.114,69.56L174.114,69.56L174.114,69.56 M174.114,69.56L174.114,69.56L174.114,69.56 M174.114,69.56
					C174.114,69.56,174.114,69.56,174.114,69.56L174.114,69.56 M174.112,69.56L174.112,69.56L174.112,69.56 M174.112,69.56
					C174.111,69.56,174.111,69.56,174.112,69.56L174.112,69.56L174.112,69.56L174.112,69.56L174.112,69.56L174.112,69.56
					C174.111,69.56,174.111,69.56,174.112,69.56 M180.055,70.219c0.01,0.683,0.014,0.913,0.014,0.913
					c-0.001,0-0.007-0.498-0.01-0.777C180.056,70.308,180.056,70.263,180.055,70.219 M169.967,74.604
					c0.141,0.07,0.239,0.12,0.307,0.154C170.172,74.706,170.069,74.654,169.967,74.604 M179.089,75.36
					c0.048,0.042,0.096,0.084,0.086,0.084l0,0C179.143,75.417,179.114,75.388,179.089,75.36 M183.119,76.155L183.119,76.155
					 M185.52,77.814c0,0-0.001,0.001-0.001,0.001S185.519,77.815,185.52,77.814 M173.822,78.146L173.822,78.146L173.822,78.146
					 M193.609,78.629c0,0-0.048,0-0.109,0C193.579,78.629,193.609,78.629,193.609,78.629 M193.5,78.629c-0.149,0-0.202,0-0.202,0
					S193.41,78.629,193.5,78.629 M179.431,57.689c-0.259,0-0.468,0-0.551,4.421c-0.003,0.158-0.005,0.271-0.007,0.323l-0.002,0.061
					c-0.033,1.021-0.071,2.076-0.135,3.11c-0.033,0.542-0.075,1.031-0.124,1.494c-0.039,0.378-0.068,0.378-0.435,0.379
					c-0.12,0.001-0.257,0.001-0.417,0.02c-0.99,0.113-1.798,0.229-2.545,0.37c-0.549,0.104-1.042,0.215-1.508,0.342
					c-0.145,0.039-0.249,0.058-0.315,0.058c-0.074,0-0.08,0-0.188-0.228c-0.042-0.088-0.093-0.198-0.166-0.327
					c-0.039-0.069-0.147-0.278-0.286-0.543c-1.657-3.207-1.855-3.362-2.062-3.363l0,0c-0.021,0-0.052,0.006-0.073,0.013
					c-0.263,0.098-0.249,0.275,0.525,2.491c0.167,0.484,0.341,0.983,0.362,1.097l0.007,0.038c0.14,0.789,0.197,1.282-0.339,1.499
					c-0.672,0.272-1.282,0.658-1.737,0.966c-0.275,0.182-0.551,0.384-0.819,0.577c-0.809,0.588-1.646,1.195-2.588,1.476
					c-0.285,0.086-0.568,0.128-0.847,0.128c-0.264,0-0.521-0.039-0.765-0.115c-0.058-0.018-0.275-0.144-0.451-0.245
					c-0.519-0.298-0.779-0.438-0.937-0.438l0,0c-0.1,0-0.156,0.048-0.182,0.079c-0.118,0.154-0.118,0.154,0.518,0.965
					c0.232,0.295,0.58,0.74,0.623,0.833c0.287,0.606,0.287,1.271,0.001,1.875c-0.512,1.069-1.654,1.803-2.468,2.262
					c-1.149,0.646-2.468,1.163-4.033,1.581c-0.22,0.059-1.866,0.338-2.953,0.524c-0.332,0.057-0.627,0.107-0.836,0.144
					c-0.456,0.078-0.502,0.086-0.502,0.256c0,0.255,0,0.264,3.039,0.299c1.521,0.017,3.679,0.024,6.407,0.024
					c3.345,0,6.832-0.012,8.916-0.02c0.915-0.004,1.573-0.006,1.85-0.006h0.787c0.181,0,0.217-0.102,0.488-0.902
					c0.089-0.259,0.21-0.615,0.25-0.682c0.337-0.538,0.875-1.002,1.555-1.339c0.838-0.415,1.941-0.653,3.03-0.653
					c2.134,0,3.806,0.853,4.473,2.284c0.043,0.094,0.075,0.263,0.108,0.428c0.063,0.326,0.13,0.66,0.333,0.822
					c0.032,0.027,0.078,0.042,0.122,0.042c0.001,0,0.001,0,0.002,0c0.971-0.009,2.015-0.013,3.285-0.013
					c1.567,0,3.163,0.006,4.706,0.014c0.771,0.004,1.541,0.007,2.312,0.01c0.772,0.003,1.544,0.005,2.316,0.005
					c1.376,0,2.603-0.006,3.751-0.02c0.924-0.01,1.849-0.025,2.751-0.046c0.214-0.006,0.693-0.057,1.045-0.101
					c0.802-0.102,0.917-0.129,0.918-0.33c0.002-0.091-0.045-0.207-0.271-0.216c-4.404-0.16-6.144-1.083-8.483-2.586
					c-0.73-0.466-1.752-1.208-2.182-2.233c-0.211-0.509-0.217-1.056-0.016-1.541c0.079-0.193,0.944-1.142,1.269-1.501
					c0.339-0.37,0.339-0.37,0.288-0.492c-0.043-0.095-0.131-0.146-0.238-0.146c-0.218,0-0.635,0.215-1.534,0.707
					c-0.524,0.286-1.312,0.717-1.483,0.717c-0.905,0-1.861-0.89-2.63-1.605c-0.2-0.188-0.391-0.365-0.567-0.514
					c-0.556-0.468-1.062-0.883-1.626-1.217c-0.231-0.137-0.428-0.22-0.584-0.286c-0.411-0.172-0.484-0.205-0.403-0.923
					c0.019-0.151,0.205-0.742,0.385-1.312c0.706-2.245,0.763-2.57,0.47-2.667c-0.02-0.007-0.048-0.011-0.069-0.011
					c-0.226,0-0.403,0.211-1.644,2.719c-0.249,0.502-0.464,0.937-0.538,1.053c-0.307,0.472-0.51,0.567-0.737,0.567
					c-0.156,0-0.342-0.046-0.575-0.104c-0.169-0.042-0.36-0.089-0.582-0.129c-0.719-0.13-1.453-0.233-2.163-0.333
					c-0.298-0.042-0.596-0.083-0.894-0.126c-0.77-0.114-0.771-0.185-0.782-0.869c-0.002-0.128-0.004-0.272-0.014-0.436
					c-0.045-0.943-0.086-1.89-0.126-2.835c-0.006-0.102-0.009-0.357-0.017-0.706c-0.095-4.897-0.192-4.902-0.453-4.914
					C179.438,57.689,179.435,57.689,179.431,57.689L179.431,57.689z M180.226,69.049c0.007,0,0.011,0,0.015,0
					c1.123,0,2.244,0.22,3.328,0.432c0.313,0.062,0.638,0.125,0.961,0.184c-0.369,0.871-0.858,1.693-1.294,2.425
					c-0.087,0.146-0.205,0.388-0.34,0.668c-0.252,0.522-0.923,1.91-1.202,1.91c-1.294-0.442-1.422-2.125-1.436-3.533
					c0.008-0.119,0.007-0.366-0.004-0.918c0,0,0-0.001,0-0.003l-0.003-0.192C180.245,69.704,180.239,69.375,180.226,69.049
					L180.226,69.049z M174.292,69.72C174.292,69.719,174.293,69.719,174.292,69.72c1.351-0.339,2.568-0.618,3.794-0.618
					c0.178,0,0.354,0.007,0.526,0.021c-0.033,0.38-0.035,0.821-0.04,1.282c-0.013,1.487-0.031,3.338-1.1,4.096
					c-0.1,0.071-0.19,0.104-0.28,0.104c-0.472,0-0.925-0.97-1.226-1.611c-0.099-0.207-0.19-0.403-0.272-0.553
					c-0.078-0.14-0.195-0.33-0.33-0.55c-0.331-0.54-1.074-1.751-1.083-2.168l0.007-0.003c0,0,0.001,0,0.002,0h0.003L174.292,69.72
					L174.292,69.72z M184.943,76.167c-0.139,0-0.236-0.031-0.303-0.094c-1.086-1.055-0.189-2.732,0.604-4.213
					c0.32-0.597,0.625-1.167,0.78-1.663c2.259,0.703,3.961,1.688,5.19,3.003c-1.11,0.483-2.135,1.005-3.221,1.557
					c-0.164,0.083-0.368,0.204-0.606,0.342C186.667,75.526,185.575,76.167,184.943,76.167L184.943,76.167z M167.542,73.207
					c0.695-0.729,1.562-1.36,2.648-1.924c0.665-0.346,1.399-0.661,2.243-0.968c0.076-0.028,0.148-0.042,0.208-0.042
					c0.254,0,0.378,0.284,0.555,0.748c0.07,0.183,0.143,0.37,0.235,0.548c0.053,0.1,0.108,0.206,0.166,0.312
					c0.622,1.166,1.397,2.615,0.843,3.816c-0.204,0.437-0.405,0.493-0.559,0.493c-0.244,0-0.55-0.159-0.872-0.326
					c-0.141-0.073-0.286-0.148-0.437-0.217c-0.708-0.319-1.395-0.658-2.208-1.066c-0.001,0-0.001,0-0.001-0.001l-0.307-0.153h-0.001
					l-0.078-0.039C169.185,73.991,168.368,73.581,167.542,73.207L167.542,73.207z M179.226,75.218
					c-0.249-0.284-0.11-0.659,0.128-1.201c0.02-0.046,0.041-0.09,0.06-0.137c0.181,0.416,0.41,0.99,0.259,1.229
					c-0.06,0.091-0.195,0.139-0.406,0.139c-0.002,0-0.004,0-0.007,0C179.251,75.238,179.238,75.228,179.226,75.218L179.226,75.218z
					 M186.924,78.38c0.61-1.295,1.887-2.024,3.123-2.73c0.393-0.225,0.801-0.458,1.176-0.702c0.392-0.257,0.711-0.498,0.989-0.749
					c0.365,0.321,0.693,0.688,0.977,1.094c0.615,0.877,2.232,2.34,3.42,3.142c-0.944-0.004-2.49-0.005-2.995-0.005
					c-0.002,0-0.002,0-0.005,0h-0.109h-0.202c-0.004,0-0.007,0-0.011,0c-0.562,0.001-1.13,0.008-1.68,0.017
					c-0.62,0.007-1.263,0.018-1.894,0.018C188.633,78.465,187.736,78.438,186.924,78.38L186.924,78.38z M163.026,78.443
					c0.99-0.667,1.891-2.011,2.646-3.141c0.266-0.398,0.519-0.777,0.751-1.09c0.178,0.11,0.432,0.248,0.753,0.421
					c1.38,0.742,3.891,2.098,4.663,3.812L163.026,78.443L163.026,78.443z M175.979,75.448c0.006,0,0.018-0.002,0.035-0.002
					c0.06,0,0.109,0.059,0.135,0.096c0.059,0.08,0.086,0.178,0.093,0.245c-0.085-0.028-0.155-0.097-0.202-0.161
					c-0.059-0.085-0.067-0.155-0.063-0.178C175.976,75.448,175.977,75.448,175.979,75.448L175.979,75.448z M182.89,75.996
					c-0.042,0-0.068-0.008-0.08-0.023c-0.026-0.035-0.051-0.162,0.021-0.412c0.008-0.032,0.02-0.04,0.02-0.04
					c0.027,0.001,0.108,0.046,0.158,0.143c0.037,0.073,0.06,0.185-0.015,0.317C182.956,75.992,182.92,75.996,182.89,75.996
					L182.89,75.996z M185.103,77.84c-0.1,0-0.16-0.034-0.166-0.047c-0.005-0.01,0.003-0.068,0.086-0.174
					c0.061-0.075,0.119-0.116,0.172-0.116c0.048,0,0.082,0.034,0.098,0.054c0.044,0.055,0.058,0.132,0.037,0.208l0,0
					c0,0,0,0.001-0.001,0.001C185.319,77.79,185.231,77.84,185.103,77.84L185.103,77.84z M173.344,77.991
					c0.041-0.099,0.228-0.267,0.34-0.284c0.006,0.032,0.013,0.109-0.022,0.27c-0.086,0.016-0.161,0.022-0.222,0.022
					C173.393,77.999,173.364,77.995,173.344,77.991L173.344,77.991z"/>
			</g>
		</g>
		<g>
			<g>
				<g>
					<g>
						<path fill="#0A9995" d="M156.883,77.476c-2.599,0-5.223-0.947-7.385-2.665c-6.37-5.068-9.041-13.665-10.971-22.217
							c-1.361,0.477-2.792,0.766-4.176,1.045c-1.305,0.264-2.651,0.536-3.935,0.965c-0.839,0.281-4.997,1.81-4.484,4.338
							c0.221,1.104,1.368,1.682,2.386,1.681c0.331,0,0.655-0.06,0.937-0.173c0.567-0.229,0.841-0.641,0.747-1.129
							c-0.087-0.452-0.515-0.917-1.081-0.917c-0.275,0-0.554,0.117-0.803,0.34c-0.02,0.017-0.043,0.025-0.066,0.025
							c-0.018,0-0.033-0.004-0.05-0.013c-0.035-0.021-0.056-0.064-0.046-0.106c0.154-0.756,0.772-1.228,1.609-1.228
							c0.947,0,1.99,0.617,2.095,1.649c0.071,0.683-0.104,1.265-0.523,1.729c-0.592,0.658-1.685,1.05-2.928,1.05
							c-0.188,0-0.376-0.01-0.557-0.029c-1.795-0.189-3.829-1.264-3.657-3.673c0.129-1.763,1.584-3.298,4.327-4.562
							c1.582-0.729,3.304-1.177,4.972-1.61c1.124-0.292,2.288-0.593,3.393-0.978c3.066-1.069,6.203-2.43,9.32-4.046
							c0.445-0.231,0.93-0.463,1.44-0.709c1.877-0.903,4.002-1.927,5.235-3.345c0.519-0.596,0.671-1.216,0.432-1.743
							c-0.231-0.506-0.812-0.873-1.383-0.873c-0.564,0-0.942,0.346-1.038,0.947c-0.007,0.048-0.048,0.084-0.098,0.084
							c-0.003,0-0.006,0-0.007,0c-0.051-0.004-0.091-0.047-0.091-0.099c0-0.595,0.153-1.11,0.443-1.489
							c0.293-0.383,0.71-0.593,1.177-0.593c0.365,0,0.747,0.124,1.137,0.367c1.485,0.93,1.973,2.855,1.104,4.382
							c-1.01,1.772-3.102,2.767-4.946,3.644c-0.472,0.223-0.915,0.436-1.333,0.653c-0.625,0.327-1.336,0.609-2.026,0.882
							c-1.291,0.512-2.625,1.041-3.577,1.917c-1.34,1.231-0.459,4.268,0.015,5.899l0.106,0.366c0.709,2.514,1.527,4.844,2.43,6.928
							c2.154,4.985,4.361,9.277,9.571,11.282c0.642,0.246,1.375,0.377,2.12,0.377c1.413,0,2.639-0.475,3.368-1.306
							c0.407-1.139-0.12-1.724-0.729-2.401c-0.294-0.327-0.599-0.667-0.816-1.09c-0.019-0.034-0.014-0.078,0.012-0.11
							c0.021-0.021,0.047-0.035,0.076-0.035c0.008,0,0.02,0.002,0.029,0.006c1.8,0.554,3.54,2.026,3.103,3.952
							c-0.407,1.781-2.182,2.33-3.202,2.499C158.01,77.43,157.446,77.476,156.883,77.476z"/>
					</g>
					<path fill="#0A9995" d="M152.116,39.229c0.33,0,0.697,0.109,1.085,0.352c1.446,0.906,1.912,2.768,1.07,4.25
						c-1.244,2.18-4.139,3.161-6.239,4.258c-1.772,0.928-4.141,1.447-5.624,2.813c-1.489,1.371-0.362,4.761,0.093,6.366
						c0.663,2.353,1.462,4.697,2.434,6.94c1.924,4.451,4.165,9.233,9.626,11.334c0.642,0.247,1.394,0.384,2.155,0.384
						c1.305,0,2.633-0.404,3.455-1.353c0.645-1.775-0.883-2.3-1.546-3.589c1.627,0.501,3.475,1.907,3.035,3.835
						c-0.339,1.492-1.726,2.193-3.12,2.422c-0.552,0.092-1.105,0.135-1.658,0.135c-2.648,0-5.263-1.005-7.323-2.645
						c-6.613-5.26-9.186-14.369-10.962-22.271c-2.664,0.956-5.53,1.149-8.211,2.046c-1.751,0.587-5.021,2.136-4.551,4.453
						c0.227,1.128,1.376,1.76,2.481,1.76c0.339,0,0.672-0.059,0.975-0.181c1.487-0.6,0.722-2.237-0.37-2.237
						c-0.278,0-0.578,0.106-0.869,0.366c0.162-0.799,0.813-1.148,1.513-1.148c0.909,0,1.897,0.592,1.997,1.559
						c0.2,1.949-1.723,2.669-3.352,2.669c-0.188,0-0.37-0.009-0.546-0.028c-1.95-0.205-3.726-1.383-3.569-3.567
						c0.163-2.209,2.471-3.65,4.271-4.479c2.64-1.217,5.612-1.628,8.353-2.584c3.206-1.117,6.321-2.49,9.335-4.051
						c2.092-1.084,5.122-2.257,6.704-4.078c1.323-1.523,0.058-2.781-1.027-2.781c-0.533,0-1.019,0.305-1.136,1.032
						C150.594,40.047,151.216,39.229,152.116,39.229 M152.116,39.03c-0.498,0-0.944,0.224-1.256,0.632
						c-0.304,0.397-0.465,0.933-0.463,1.549c0,0.104,0.079,0.189,0.182,0.198c0.005,0,0.011,0,0.016,0
						c0.097,0,0.182-0.07,0.196-0.167c0.086-0.549,0.429-0.864,0.938-0.864c0.536,0,1.08,0.343,1.295,0.815
						c0.155,0.347,0.213,0.913-0.418,1.637c-1.219,1.403-3.336,2.422-5.202,3.321c-0.512,0.247-0.996,0.479-1.443,0.71
						c-3.113,1.613-6.245,2.973-9.307,4.04c-1.101,0.384-2.264,0.685-3.385,0.977c-1.671,0.433-3.398,0.882-4.989,1.615
						c-2.778,1.28-4.252,2.842-4.383,4.645c-0.166,2.322,1.761,3.571,3.745,3.779c0.184,0.02,0.376,0.029,0.566,0.029
						c1.27,0,2.391-0.405,3.001-1.083c0.437-0.485,0.62-1.092,0.548-1.805c-0.111-1.087-1.203-1.737-2.194-1.737l0,0
						c-0.889,0-1.542,0.5-1.708,1.306c-0.017,0.084,0.021,0.169,0.098,0.212c0.031,0.018,0.063,0.026,0.099,0.026
						c0.048,0,0.095-0.017,0.132-0.05c0.234-0.209,0.482-0.315,0.736-0.315c0.515,0,0.905,0.425,0.983,0.837
						c0.086,0.437-0.166,0.808-0.686,1.018c-0.271,0.109-0.58,0.167-0.898,0.167c-0.977,0-2.077-0.551-2.288-1.601
						c-0.495-2.447,3.594-3.949,4.419-4.225c1.273-0.427,2.62-0.698,3.923-0.961c1.35-0.273,2.747-0.555,4.082-1.012
						c1.932,8.535,4.616,17.1,10.983,22.165c2.179,1.733,4.823,2.688,7.446,2.688c0.57,0,1.139-0.047,1.691-0.138
						c1.044-0.171,2.862-0.737,3.283-2.572c0.449-1.987-1.328-3.501-3.171-4.07c-0.02-0.007-0.039-0.008-0.06-0.008
						c-0.059,0-0.112,0.026-0.152,0.072c-0.051,0.061-0.06,0.147-0.023,0.22c0.225,0.434,0.532,0.777,0.831,1.109
						c0.609,0.677,1.091,1.214,0.716,2.284c-0.711,0.8-1.905,1.257-3.281,1.257c-0.735,0-1.455-0.128-2.083-0.371
						c-5.174-1.99-7.371-6.264-9.517-11.228c-0.9-2.079-1.717-4.406-2.425-6.916c-0.032-0.114-0.067-0.236-0.105-0.367
						c-0.467-1.61-1.337-4.608-0.044-5.798c0.937-0.863,2.265-1.389,3.548-1.898c0.69-0.273,1.404-0.556,2.034-0.886
						c0.417-0.217,0.859-0.428,1.328-0.651c1.858-0.884,3.965-1.886,4.99-3.685c0.894-1.573,0.393-3.557-1.139-4.516
						C152.9,39.159,152.5,39.03,152.116,39.03L152.116,39.03z"/>
				</g>
			</g>
			<g>
				<g>
					<path fill="#0A9995" d="M202.292,77.365c-0.782,0-1.545-0.091-2.268-0.275c-0.904-0.228-2.49-0.861-2.95-2.54
						c-0.219-0.799-0.046-1.636,0.491-2.357c0.631-0.846,1.65-1.385,2.664-1.406c0.001,0,0.002,0,0.002,0
						c0.044,0,0.082,0.03,0.094,0.071c0.014,0.042-0.003,0.088-0.041,0.113c-0.815,0.514-1.451,1.355-1.62,2.142
						c-0.114,0.531-0.024,1.022,0.266,1.462c0.613,0.928,1.763,1.123,2.62,1.123c0.74,0,1.581-0.148,2.306-0.406
						c3.437-1.229,6.513-4.551,9.135-9.868c1.424-2.889,1.882-5.235,1.484-7.607c-0.359-2.161-1.25-4.176-2.648-5.988
						c-1.188-1.541-2.646-2.884-4.058-4.185l-0.474-0.438c-0.232-0.215-0.483-0.435-0.737-0.66c-1.41-1.237-3.008-2.64-3.04-4.459
						c-0.012-0.705,0.271-1.387,0.795-1.923c0.538-0.549,1.262-0.877,1.938-0.877c1.044,0,1.689,0.755,1.724,2.02
						c0.002,0.053-0.039,0.098-0.093,0.101c-0.002,0-0.005,0-0.008,0c-0.05,0-0.093-0.038-0.098-0.089
						c-0.061-0.601-0.418-0.945-0.977-0.945c-0.739,0-1.596,0.609-1.633,1.424c-0.062,1.377,1.603,2.417,2.704,3.104l0.205,0.128
						c0.302,0.191,0.606,0.375,0.91,0.558c1.285,0.778,2.5,1.514,3.492,2.667c0.741,0.866,1.337,1.854,1.915,2.81
						c0.586,0.972,1.189,1.975,1.946,2.84c0.267-1.092,0.753-3.939-0.98-5.343c-0.041-0.033-0.047-0.092-0.018-0.135
						c0.021-0.027,0.05-0.042,0.081-0.042c0.02,0,0.035,0.005,0.052,0.016c2.377,1.512,5.22,2.229,7.97,2.923
						c0.976,0.246,1.983,0.5,2.941,0.784c3.306,0.98,6.909,2.321,7.822,5.861c0.265,1.02,0.124,1.921-0.406,2.608
						c-0.645,0.835-1.863,1.334-3.259,1.334c-0.723,0-1.435-0.134-2.055-0.388c-0.775-0.316-1.412-0.915-1.663-1.563
						c-0.182-0.473-0.164-0.97,0.059-1.438c0.271-0.575,0.821-0.892,1.548-0.892c0.712,0,1.537,0.309,2.055,0.769
						c0.026,0.023,0.039,0.06,0.031,0.094c-0.007,0.034-0.032,0.063-0.063,0.075c-0.124,0.041-0.312,0.078-0.532,0.121
						c-0.561,0.109-1.406,0.274-1.563,0.649c-0.055,0.131-0.021,0.286,0.102,0.473c0.379,0.569,0.979,0.895,1.651,0.895
						c0.2,0,0.401-0.029,0.6-0.087c0.83-0.241,1.401-0.787,1.614-1.534c0.236-0.843-0.028-1.823-0.695-2.558
						c-1.741-1.919-4.534-2.359-7.234-2.787c-1.536-0.243-2.99-0.472-4.266-0.954c-0.3,0.997-0.588,2.01-0.893,3.083
						c-2,7.03-4.265,14.998-10.318,19.319C206.979,76.574,204.565,77.365,202.292,77.365z"/>
				</g>
				<path fill="#0A9995" d="M206.25,39.385c0.852,0,1.588,0.559,1.626,1.923c-0.073-0.733-0.542-1.034-1.075-1.034
					c-0.777,0-1.691,0.64-1.731,1.52c-0.069,1.526,1.864,2.633,2.955,3.321c1.558,0.981,3.16,1.788,4.378,3.206
					c1.533,1.787,2.405,4.052,3.986,5.79c0.472-1.763,0.615-4.342-0.967-5.624c3.248,2.065,7.306,2.643,10.938,3.718
					c3.129,0.927,6.836,2.232,7.754,5.79c0.673,2.597-1.42,3.818-3.568,3.818c-0.697,0-1.402-0.128-2.02-0.38
					c-1.096-0.449-2.148-1.603-1.551-2.867c0.283-0.604,0.846-0.835,1.458-0.835c0.727,0,1.521,0.328,1.989,0.744
					c-0.572,0.193-2.767,0.303-2.043,1.392c0.405,0.608,1.046,0.938,1.734,0.938c0.206,0,0.418-0.029,0.626-0.09
					c2.026-0.589,2.266-2.82,0.967-4.253c-2.762-3.043-8.071-2.409-11.639-3.805c-2.318,7.686-4.247,17.484-11.206,22.453
					c-1.865,1.331-4.231,2.159-6.568,2.159c-0.758,0-1.512-0.087-2.244-0.272c-1.302-0.329-2.505-1.11-2.879-2.47
					c-0.508-1.844,1.245-3.599,3.062-3.637c-1.176,0.742-2.285,2.377-1.384,3.743c0.574,0.869,1.628,1.167,2.702,1.167
					c0.838,0,1.69-0.181,2.341-0.414c4.278-1.531,7.266-6.015,9.19-9.917c1.209-2.456,1.953-4.923,1.494-7.667
					c-0.369-2.217-1.298-4.258-2.666-6.032c-1.325-1.718-2.957-3.167-4.543-4.634c-1.504-1.39-3.709-2.947-3.746-5.048
					C203.591,40.524,205.035,39.385,206.25,39.385 M206.25,39.187c-0.7,0-1.451,0.338-2.008,0.907
					c-0.543,0.554-0.835,1.262-0.822,1.994c0.033,1.863,1.648,3.281,3.074,4.533c0.26,0.228,0.505,0.444,0.737,0.657l0.472,0.438
					c1.408,1.297,2.864,2.638,4.046,4.172c1.388,1.799,2.272,3.798,2.63,5.944c0.392,2.35-0.063,4.678-1.477,7.547
					c-2.612,5.293-5.667,8.597-9.08,9.817c-0.715,0.256-1.543,0.403-2.274,0.403c-0.833,0-1.948-0.188-2.537-1.078
					c-0.275-0.416-0.36-0.883-0.252-1.386c0.165-0.762,0.783-1.578,1.576-2.079c0.075-0.047,0.11-0.141,0.085-0.224
					c-0.025-0.086-0.101-0.141-0.19-0.141c-0.001,0-0.003,0-0.004,0c-1.044,0.02-2.093,0.576-2.742,1.443
					c-0.555,0.748-0.735,1.615-0.509,2.443c0.475,1.726,2.097,2.375,3.022,2.61c0.73,0.184,1.504,0.278,2.293,0.278
					c2.292,0,4.729-0.799,6.684-2.195c6.082-4.343,8.354-12.329,10.356-19.373c0.296-1.035,0.574-2.017,0.86-2.98
					c1.261,0.46,2.685,0.685,4.187,0.923c2.684,0.424,5.459,0.862,7.18,2.755c0.643,0.709,0.897,1.653,0.67,2.463
					c-0.2,0.714-0.75,1.234-1.546,1.465c-0.189,0.056-0.381,0.083-0.571,0.083c-0.638,0-1.21-0.31-1.568-0.851
					c-0.155-0.233-0.111-0.343-0.094-0.38c0.136-0.325,0.983-0.491,1.491-0.589c0.222-0.043,0.413-0.08,0.543-0.125
					c0.067-0.022,0.116-0.08,0.131-0.148c0.015-0.07-0.01-0.142-0.062-0.188c-0.533-0.474-1.388-0.793-2.12-0.793
					c-0.767,0-1.348,0.336-1.638,0.948c-0.232,0.493-0.254,1.017-0.06,1.517c0.26,0.671,0.918,1.292,1.717,1.619
					c0.632,0.259,1.357,0.396,2.093,0.396c1.427,0,2.674-0.513,3.337-1.373c0.55-0.712,0.696-1.644,0.423-2.694
					c-0.925-3.59-4.559-4.944-7.89-5.931c-0.961-0.285-1.971-0.539-2.944-0.785c-2.742-0.692-5.578-1.407-7.94-2.91
					c-0.033-0.021-0.07-0.031-0.106-0.031c-0.06,0-0.122,0.029-0.161,0.083c-0.06,0.085-0.046,0.204,0.036,0.271
					c1.332,1.08,1.396,3.252,0.99,5.053c-0.694-0.824-1.26-1.766-1.812-2.679c-0.579-0.959-1.177-1.952-1.924-2.823
					c-1.002-1.166-2.279-1.939-3.516-2.688c-0.301-0.182-0.605-0.366-0.908-0.557l-0.205-0.128
					c-1.083-0.676-2.717-1.697-2.658-3.016c0.034-0.761,0.839-1.33,1.534-1.33c0.297,0,0.805,0.112,0.878,0.857
					c0.01,0.102,0.097,0.178,0.197,0.178c0.005,0,0.008,0,0.013,0c0.106-0.007,0.188-0.097,0.186-0.204
					C208.037,39.978,207.355,39.187,206.25,39.187L206.25,39.187z"/>
			</g>
			<g>
				<g>
					<g>
						<path fill="#0A9995" d="M163.876,69.86c-1.19,0-2.179-1.613-2.452-2.107c-0.75-1.353-1.179-2.863-1.594-4.324
							c-0.419-1.477-0.853-3.004-1.619-4.355c-0.029-0.052-0.127-0.081-0.266-0.081c-0.675,0-2.146,0.648-2.726,1.313
							c-0.172,0.196-0.249,0.372-0.228,0.522l0.079,0.585c0.188,1.354,0.383,2.753,0.238,4.133
							c-0.182,1.755-1.087,2.801-2.424,2.801h-0.051c-1.277-0.025-2.939-0.868-3.398-2.18c-0.016-0.046,0.002-0.094,0.043-0.119
							c0.016-0.008,0.032-0.013,0.05-0.013c0.027,0,0.055,0.012,0.073,0.033c0.422,0.466,0.973,0.713,1.592,0.713
							c1.301,0,2.598-1.066,2.829-2.329c0.317-1.727-0.52-3.333-1.329-4.886c-0.34-0.65-0.689-1.323-0.939-1.982
							c-0.737-1.945-0.385-4.542,1.719-5.743c0.645-0.369,1.295-0.573,1.832-0.573c0.621,0,1.098,0.256,1.415,0.76
							c0.416,0.663,0.701,1.398,0.978,2.11c0.187,0.482,0.378,0.979,0.611,1.449c0.695-2.579-0.37-6.089-3.111-7.205
							c-0.034-0.015-0.061-0.049-0.061-0.088c-0.002-0.039,0.019-0.074,0.053-0.093c0.522-0.276,1.057-0.415,1.585-0.415
							c1.96,0,3.613,1.849,5.211,3.638c0.982,1.098,1.912,2.139,2.85,2.673c-0.24-0.68-0.546-1.364-0.844-2.028
							c-0.71-1.595-1.446-3.244-1.395-5.015c0.101-3.466,4.778-3.944,6.21-4.008c0.169-0.008,0.34-0.011,0.512-0.011
							c3.59,0,7.028,1.597,8.762,4.07c1.318,1.883,1.562,4.13,0.709,6.5c-0.887,2.46-2.86,3.872-5.417,3.873
							c-0.877,0-1.779-0.17-2.683-0.506c-2.753-1.023-4.778-3.872-5.042-7.09c-0.12-1.458,0.519-2.486,1.074-3.092
							c0.883-0.961,2.228-1.558,3.512-1.558c1.722,0,2.986,1.025,3.389,2.742c0.01,0.044-0.01,0.089-0.049,0.11
							c-0.015,0.008-0.031,0.012-0.047,0.012c-0.026,0-0.052-0.01-0.071-0.031c-0.963-0.999-1.898-1.505-2.788-1.505
							c-0.589,0-1.168,0.223-1.725,0.665c-0.262,0.207-0.499,0.485-0.656,0.677c-1.021,1.245-1.027,3.012-0.013,4.499
							c0.843,1.238,2.28,1.977,3.848,1.977c1.182,0,2.302-0.423,3.155-1.191c1.56-1.406,1.277-3.938,0.353-5.698
							c-1.011-1.93-3.268-3.129-5.89-3.129c-1.563,0-3.029,0.45-4.127,1.266c-1.586,1.181-1.886,3.244-0.893,6.133
							c0.816,2.373,2.359,4.705,4.716,7.128c0.029,0.032,0.036,0.079,0.016,0.117c-0.019,0.033-0.051,0.052-0.086,0.052
							c-0.007,0-0.014,0-0.021-0.002c-2.93-0.58-4.864-2.66-6.735-4.671c-0.904-0.972-1.835-1.974-2.874-2.803
							c1.241,2.199,2.104,4.601,2.888,6.884c0.325,0.944,0.636,1.893,0.948,2.841l0.39,1.181c0.216,0.657,0.436,1.313,0.662,1.966
							c0.007,0.024,0.007,0.051-0.005,0.073c-0.319,0.695-0.512,1.434-0.573,2.198c-0.004,0.046-0.037,0.083-0.083,0.091
							c-0.005,0-0.01,0-0.015,0c-0.041,0-0.076-0.023-0.092-0.06c-0.72-1.71-1.294-3.508-1.848-5.246
							c-0.663-2.078-1.348-4.221-2.286-6.229c-0.714,3.267,0.795,6.59,2.277,9.46c0.251,0.488,0.509,0.974,0.765,1.457l0.399,0.755
							c0.108,0.208,0.174,0.445,0.234,0.672c0.09,0.332,0.177,0.647,0.39,0.885c0.131,0.146,0.25,0.222,0.345,0.222
							c0.067,0,0.129-0.041,0.191-0.122c0.356-0.477,0.393-1.958,0.303-2.255c-0.013-0.046,0.007-0.094,0.05-0.115
							c0.015-0.007,0.029-0.012,0.045-0.012c0.03,0,0.06,0.013,0.078,0.036c0.473,0.585,0.706,1.426,0.592,2.143
							c-0.084,0.525-0.347,0.947-0.763,1.216C164.39,69.781,164.136,69.86,163.876,69.86L163.876,69.86z M155.409,53.291
							c-0.636,0-1.521,1.074-2.088,1.995c-0.438,0.71-0.32,1.024-0.039,1.783l0.041,0.111c0.158,0.43,0.393,0.973,0.804,1.364
							c0.039,0.037,0.105,0.056,0.2,0.056c0.751,0,2.598-1.129,2.936-1.34c-0.141-1.094-0.444-2.646-1.419-3.755
							C155.716,53.361,155.574,53.291,155.409,53.291z"/>
					</g>
					<path fill="#0A9995" d="M169.319,43.137c5.639,0,11.654,4.12,9.377,10.438c-0.918,2.548-2.973,3.807-5.324,3.807
						c-0.856,0-1.752-0.167-2.648-0.5c-2.854-1.061-4.733-4.026-4.977-7.005c-0.222-2.71,2.249-4.543,4.487-4.543
						c1.478,0,2.854,0.797,3.291,2.666c-1.097-1.142-2.053-1.536-2.858-1.536c-0.716,0-1.312,0.311-1.787,0.686
						c-0.252,0.2-0.485,0.464-0.671,0.692c-1.111,1.355-0.98,3.205-0.02,4.618c0.905,1.329,2.411,2.02,3.93,2.02
						c1.153,0,2.312-0.398,3.223-1.216c1.622-1.462,1.294-4.066,0.374-5.817c-1.102-2.104-3.554-3.183-5.977-3.183
						c-1.521,0-3.027,0.424-4.187,1.286c-2.015,1.5-1.656,4.125-0.926,6.245c0.938,2.728,2.746,5.118,4.736,7.166
						c-4.478-0.887-6.541-5.246-9.965-7.759c1.355,2.276,2.275,4.8,3.129,7.298c0.459,1.336,0.893,2.68,1.336,4.021
						c0.216,0.658,0.435,1.313,0.662,1.967c-0.325,0.704-0.52,1.458-0.581,2.231c-1.615-3.837-2.447-7.975-4.258-11.733
						c-0.87,3.391,0.697,6.85,2.221,9.803c0.382,0.742,0.776,1.475,1.164,2.212c0.257,0.493,0.256,1.151,0.639,1.579
						c0.16,0.179,0.299,0.256,0.419,0.256c0.623,0,0.706-2.104,0.591-2.504c0.705,0.871,0.938,2.508-0.146,3.209
						c-0.233,0.153-0.47,0.22-0.698,0.22c-1.016,0-1.934-1.274-2.368-2.054c-1.505-2.717-1.681-5.986-3.211-8.681
						c-0.052-0.091-0.18-0.131-0.353-0.131c-0.914,0-3.163,1.114-3.051,1.948c0.206,1.548,0.48,3.129,0.317,4.696
						c-0.14,1.358-0.791,2.712-2.321,2.712c-0.02,0-0.034,0-0.052,0c-1.259-0.025-2.868-0.864-3.307-2.114
						c0.472,0.525,1.064,0.748,1.666,0.748c1.319,0,2.681-1.076,2.927-2.411c0.46-2.502-1.441-4.719-2.274-6.921
						c-0.762-2.012-0.296-4.497,1.674-5.621c0.543-0.31,1.192-0.56,1.785-0.56c0.524,0,1.004,0.194,1.332,0.713
						c0.735,1.174,1.049,2.553,1.697,3.772c0.877-2.745-0.285-6.418-3.1-7.563c0.534-0.28,1.045-0.404,1.539-0.404
						c3.204,0,5.68,5.182,8.233,6.416c-0.779-2.364-2.388-4.667-2.312-7.244c0.087-2.99,3.695-3.803,6.114-3.911
						C168.98,43.141,169.15,43.137,169.319,43.137 M154.326,58.699c0.862,0,3.042-1.389,3.042-1.389
						c-0.168-1.363-0.521-2.813-1.453-3.87c-0.153-0.174-0.325-0.248-0.507-0.248c-0.819,0-1.84,1.502-2.172,2.042
						c-0.484,0.787-0.32,1.127-0.007,1.98c0.187,0.509,0.43,1.022,0.829,1.402C154.118,58.674,154.211,58.699,154.326,58.699
						 M169.319,42.939c-0.172,0-0.346,0.004-0.517,0.011c-1.452,0.065-6.197,0.553-6.303,4.104
						c-0.053,1.794,0.688,3.454,1.404,5.058c0.256,0.575,0.52,1.166,0.739,1.754c-0.844-0.559-1.692-1.509-2.583-2.506
						c-1.613-1.805-3.281-3.671-5.285-3.671c-0.545,0-1.094,0.144-1.631,0.426c-0.068,0.036-0.11,0.109-0.104,0.186
						c0.005,0.078,0.051,0.146,0.124,0.175c2.598,1.059,3.661,4.312,3.115,6.819c-0.179-0.391-0.336-0.796-0.487-1.19
						c-0.277-0.716-0.565-1.456-0.986-2.127c-0.333-0.527-0.852-0.806-1.499-0.806c-0.709,0-1.415,0.319-1.882,0.586
						c-2.149,1.228-2.514,3.879-1.762,5.864c0.252,0.664,0.605,1.34,0.944,1.993c0.804,1.539,1.632,3.129,1.322,4.822
						c-0.225,1.219-1.476,2.248-2.732,2.248c-0.59,0-1.115-0.236-1.518-0.682c-0.039-0.042-0.093-0.065-0.147-0.065
						c-0.034,0-0.069,0.009-0.101,0.028c-0.081,0.047-0.115,0.147-0.086,0.237c0.473,1.354,2.181,2.219,3.487,2.245l0.057,0.001
						c1.39,0,2.331-1.082,2.519-2.891c0.145-1.393-0.05-2.797-0.238-4.158c-0.026-0.195-0.054-0.39-0.079-0.584
						c-0.017-0.12,0.054-0.273,0.205-0.444c0.564-0.647,1.995-1.28,2.65-1.28c0.144,0,0.18,0.033,0.181,0.033
						c0.76,1.338,1.189,2.86,1.608,4.332c0.416,1.464,0.844,2.98,1.601,4.345c0.283,0.505,1.296,2.155,2.541,2.155
						c0.279,0,0.551-0.083,0.806-0.25c0.438-0.285,0.718-0.728,0.806-1.282c0.117-0.744-0.124-1.615-0.614-2.222
						c-0.038-0.046-0.096-0.073-0.153-0.073c-0.032,0-0.062,0.007-0.092,0.022c-0.084,0.045-0.125,0.14-0.099,0.232
						c0.082,0.279,0.047,1.721-0.287,2.168c-0.041,0.054-0.078,0.083-0.112,0.083c-0.024,0-0.113-0.015-0.272-0.19
						c-0.196-0.22-0.279-0.525-0.367-0.846c-0.062-0.233-0.128-0.474-0.243-0.691c-0.133-0.254-0.267-0.506-0.398-0.757
						c-0.258-0.484-0.513-0.967-0.765-1.455c-1.428-2.767-2.882-5.958-2.327-9.096c0.871,1.922,1.521,3.962,2.154,5.94
						c0.554,1.74,1.129,3.541,1.851,5.255c0.031,0.075,0.104,0.122,0.183,0.122c0.01,0,0.02,0,0.031-0.003
						c0.09-0.014,0.159-0.087,0.167-0.18c0.06-0.75,0.247-1.48,0.563-2.162c0.021-0.047,0.023-0.101,0.008-0.149
						c-0.212-0.606-0.428-1.249-0.662-1.963c-0.131-0.394-0.261-0.788-0.391-1.182c-0.308-0.933-0.622-1.897-0.949-2.843
						c-0.729-2.129-1.529-4.363-2.643-6.442c0.876,0.753,1.681,1.619,2.464,2.461c1.881,2.023,3.828,4.115,6.789,4.702
						c0.013,0.002,0.025,0.004,0.037,0.004c0.073,0,0.14-0.039,0.176-0.104c0.041-0.076,0.027-0.17-0.033-0.233
						c-2.345-2.414-3.881-4.733-4.692-7.092c-0.978-2.843-0.689-4.869,0.857-6.021c1.08-0.804,2.525-1.247,4.068-1.247
						c2.583,0,4.806,1.179,5.8,3.077c0.906,1.726,1.189,4.207-0.332,5.578c-0.831,0.751-1.931,1.166-3.088,1.166
						c-1.535,0-2.943-0.723-3.767-1.934c-0.988-1.45-0.985-3.169,0.008-4.379c0.152-0.188,0.387-0.461,0.64-0.662
						c0.539-0.427,1.099-0.644,1.663-0.644c0.861,0,1.776,0.497,2.718,1.476c0.038,0.04,0.089,0.061,0.142,0.061
						c0.033,0,0.063-0.008,0.094-0.024c0.079-0.043,0.119-0.132,0.101-0.219c-0.415-1.766-1.718-2.819-3.486-2.819
						c-1.31,0-2.684,0.61-3.585,1.591c-0.817,0.889-1.197,1.984-1.101,3.167c0.267,3.255,2.319,6.138,5.108,7.174
						c0.913,0.34,1.828,0.513,2.717,0.513c2.6,0,4.609-1.436,5.511-3.938c0.865-2.401,0.616-4.681-0.724-6.591
						C176.411,44.553,172.941,42.939,169.319,42.939L169.319,42.939z M154.326,58.5c-0.075,0-0.117-0.015-0.131-0.027
						c-0.396-0.377-0.626-0.908-0.779-1.327l-0.041-0.112c-0.284-0.769-0.379-1.027,0.033-1.696c0.594-0.97,1.444-1.948,2.002-1.948
						c0.135,0,0.251,0.06,0.357,0.181c0.94,1.068,1.246,2.561,1.389,3.639C156.488,57.625,154.95,58.5,154.326,58.5L154.326,58.5z"
						/>
				</g>
			</g>
			<g>
				<g>
					<g>
						<path fill="#0A9995" d="M193.128,69.937c-0.085,0-0.173-0.006-0.264-0.018c-0.564-0.074-0.989-0.485-1.197-1.162
							c-0.283-0.913-0.077-2.013,0.467-2.503c0.021-0.018,0.044-0.024,0.066-0.024c0.019,0,0.034,0.006,0.05,0.013
							c0.037,0.02,0.057,0.064,0.047,0.107c-0.058,0.263-0.025,1.827,0.279,2.206c0.052,0.065,0.091,0.065,0.104,0.065l0,0
							c0.041,0,0.13-0.029,0.278-0.225c0.621-0.826,1.083-2.076,1.49-3.179c0.115-0.316,0.229-0.62,0.339-0.898
							c1.164-2.949,1.926-6.091,2.265-9.356c-0.717,2.182-1.407,4.397-2.079,6.546c-0.586,1.879-1.192,3.82-1.81,5.722
							c-0.014,0.039-0.05,0.068-0.093,0.069c0,0-0.001,0-0.003,0c-0.039,0-0.077-0.024-0.091-0.062
							c-0.136-0.353-0.18-0.729-0.22-1.09c-0.031-0.283-0.062-0.574-0.14-0.846c-0.22-0.775-0.248-0.873,0.033-1.76l0.41-1.295
							c0.331-1.048,0.664-2.097,0.996-3.145c0.807-2.537,1.761-5.511,2.77-8.46c-0.272,0.258-0.512,0.553-0.744,0.841
							c-0.417,0.514-0.846,1.044-1.469,1.382c-0.217,0.119-0.399,0.177-0.555,0.177c-0.163,0-0.295-0.066-0.384-0.192
							c-0.381-0.541,0.131-2.054,0.192-2.224c0.077-0.221,0.165-0.449,0.254-0.682c0.591-1.545,1.26-3.296-0.458-4.304
							c-1.073-0.631-2.412-0.963-3.869-0.963c-2.706,0-5.215,1.176-6.385,2.996c-0.945,1.467-1.641,3.752-0.488,5.363
							c0.748,1.047,2.031,1.647,3.521,1.647c1.076,0,2.155-0.331,2.962-0.907c1.153-0.825,2.012-2.335,2.09-3.673
							c0.053-0.901-0.253-1.68-0.884-2.25c-0.466-0.422-1.123-0.646-1.904-0.646c-1.111,0-2.443,0.467-3.311,1.163
							c-0.019,0.014-0.041,0.022-0.063,0.022c-0.012,0-0.024-0.003-0.035-0.007c-0.033-0.013-0.059-0.045-0.061-0.081
							c-0.079-0.69,0.089-1.275,0.5-1.737c0.587-0.66,1.661-1.038,2.949-1.038c0.797,0,1.58,0.152,2.146,0.417
							c1.421,0.662,2.238,2.123,2.185,3.908c-0.119,3.969-3.065,7.402-6.708,7.818c-0.28,0.032-0.562,0.048-0.835,0.048l0,0
							c-2.012,0-3.804-0.878-4.914-2.41c-1.148-1.586-1.431-3.66-0.774-5.689c1.276-3.927,4.445-6.071,9.414-6.373
							c0.176-0.01,0.352-0.016,0.528-0.016c2.544,0,4.792,1.029,5.73,2.622c0.632,1.075,0.652,2.361,0.064,3.751
							c1.057-1.192,2.091-2.227,3.407-2.949c0.015-0.008,0.031-0.012,0.047-0.012s0.033,0.004,0.047,0.012
							c0.029,0.017,0.048,0.046,0.051,0.08c0.069,1.07-0.275,2.076-0.609,3.048c-0.398,1.163-0.777,2.265-0.518,3.48
							c0.495-0.925,0.775-1.967,1.045-2.979l0.067-0.248c0.046-0.168,0.084-0.352,0.125-0.54c0.174-0.819,0.373-1.747,1.205-1.999
							c0.362-0.11,0.734-0.166,1.106-0.166c0.93,0,1.844,0.359,2.571,1.009c1.972,1.755,2.692,5.032,1.642,7.459
							c-0.3,0.691-0.755,1.286-1.312,1.723l-0.093,0.073c-0.56,0.435-0.56,0.435-0.521,1.231c0.019,0.366,0.032,0.732,0.046,1.099
							c0.038,1.035,0.078,2.104,0.219,3.146c0.178,1.329,0.761,3.556,2.667,3.556c0.56,0,1.195-0.194,1.892-0.578
							c0.015-0.008,0.031-0.013,0.047-0.013c0.021,0,0.045,0.007,0.062,0.022c0.032,0.024,0.045,0.067,0.032,0.106
							c-0.43,1.36-1.917,2.07-3.164,2.07c-0.419,0-0.81-0.075-1.162-0.226c-1.534-0.655-1.77-2.491-1.797-4.2
							c-0.007-0.49,0.02-1.006,0.051-1.55c0.072-1.356,0.15-2.758-0.319-3.9c-0.346-0.844-1.129-1.079-1.959-1.328
							c-0.552-0.166-1.122-0.337-1.562-0.702c-0.343,1.267-0.776,2.522-1.195,3.737c-0.329,0.957-0.671,1.947-0.965,2.932
							c-0.19,0.639-0.335,1.303-0.476,1.945c-0.166,0.766-0.339,1.561-0.591,2.322C195.01,69.063,194.199,69.937,193.128,69.937z
							 M201.678,49.637c-1.186,0-1.569,1.81-1.776,2.783l-0.012,0.053c-0.122,0.575-0.215,1.167-0.304,1.741l-0.041,0.255
							c-0.112,0.71,0.679,0.927,1.442,1.134c0.196,0.054,0.387,0.105,0.552,0.165c0.188,0.066,0.352,0.134,0.501,0.196
							c0.278,0.117,0.5,0.208,0.691,0.208l0,0c0.269,0,0.507-0.187,0.82-0.643c0.674-0.979,1.265-2.012,1.032-2.945
							c-0.289-1.154-1.423-2.818-2.799-2.94C201.75,49.639,201.714,49.637,201.678,49.637z"/>
					</g>
					<path fill="#0A9995" d="M189.723,43.33c3.813,0,7.815,2.474,5.379,6.901c1.139-1.319,2.323-2.642,3.87-3.491
						c0.153,2.364-1.744,4.375-1.065,6.788c0.624-1.062,0.926-2.288,1.245-3.468c0.24-0.888,0.302-2.178,1.263-2.468
						c0.358-0.109,0.72-0.161,1.077-0.161c0.913,0,1.793,0.346,2.505,0.983c1.927,1.717,2.642,4.979,1.618,7.347
						c-0.285,0.656-0.72,1.242-1.282,1.683c-0.688,0.539-0.696,0.497-0.651,1.387c0.069,1.418,0.073,2.843,0.262,4.253
						c0.28,2.097,1.149,3.642,2.767,3.642c0.556,0,1.2-0.183,1.937-0.589c-0.388,1.231-1.77,2.001-3.068,2.001
						c-0.392,0-0.776-0.07-1.123-0.22c-1.554-0.664-1.714-2.653-1.736-4.111c-0.026-1.709,0.392-3.861-0.276-5.486
						c-0.627-1.532-2.625-1.16-3.664-2.174c-0.614,2.314-1.52,4.532-2.201,6.823c-0.419,1.405-0.604,2.87-1.069,4.265
						c-0.369,1.119-1.043,2.604-2.383,2.604c-0.082,0-0.164-0.007-0.251-0.018c-1.427-0.189-1.57-2.69-0.677-3.491
						c-0.065,0.306-0.034,2.392,0.48,2.392c0.101,0,0.22-0.078,0.356-0.263c0.812-1.075,1.348-2.846,1.843-4.102
						c1.29-3.27,2.065-6.744,2.349-10.247c-1.445,4.345-2.746,8.737-4.159,13.093c-0.235-0.614-0.18-1.295-0.356-1.927
						c-0.216-0.764-0.237-0.85,0.031-1.704c0.471-1.479,0.938-2.96,1.407-4.439c0.937-2.943,1.884-5.883,2.886-8.805
						c-0.925,0.719-1.407,1.872-2.472,2.449c-0.207,0.115-0.377,0.165-0.507,0.165c-0.75,0-0.325-1.639-0.1-2.284
						c0.604-1.721,1.803-3.9-0.248-5.105c-1.118-0.656-2.505-0.977-3.917-0.977c-2.55,0-5.184,1.045-6.469,3.042
						c-0.99,1.538-1.649,3.846-0.485,5.474c0.828,1.157,2.208,1.688,3.601,1.688c1.082,0,2.176-0.323,3.02-0.924
						c1.727-1.235,3.136-4.339,1.215-6.079c-0.525-0.476-1.229-0.67-1.971-0.67c-1.225,0-2.555,0.529-3.373,1.184
						c-0.221-1.929,1.61-2.665,3.353-2.665c0.786,0,1.553,0.15,2.105,0.407c1.501,0.699,2.174,2.212,2.124,3.815
						c-0.11,3.716-2.891,7.297-6.619,7.722c-0.28,0.032-0.556,0.047-0.823,0.047c-4.232,0-6.929-3.85-5.593-7.969
						c1.279-3.939,4.448-6.009,9.325-6.304C189.375,43.335,189.549,43.33,189.723,43.33 M202.734,56.27
						c0.287,0,0.55-0.172,0.901-0.685c0.609-0.886,1.302-2.002,1.047-3.026c-0.302-1.202-1.45-2.888-2.888-3.015
						c-0.039-0.004-0.079-0.006-0.116-0.006c-1.289,0-1.682,1.953-1.885,2.914c-0.141,0.663-0.24,1.332-0.346,2.001
						c-0.158,1.001,1.245,1.12,2.06,1.408C202.059,56.055,202.413,56.27,202.734,56.27 M189.723,43.131
						c-0.178,0-0.358,0.005-0.534,0.017c-5.016,0.304-8.213,2.471-9.503,6.441c-0.668,2.06-0.38,4.166,0.789,5.778
						c1.127,1.557,2.947,2.451,4.993,2.451c0.276,0,0.562-0.017,0.844-0.048c3.692-0.421,6.677-3.897,6.796-7.914
						c0.056-1.826-0.782-3.322-2.239-4c-0.579-0.271-1.38-0.426-2.19-0.426c-1.316,0-2.418,0.391-3.022,1.071
						c-0.432,0.485-0.607,1.096-0.524,1.815c0.007,0.072,0.056,0.133,0.122,0.161c0.022,0.01,0.048,0.015,0.073,0.015
						c0.046,0,0.088-0.015,0.125-0.044c0.854-0.682,2.159-1.141,3.249-1.141c0.754,0,1.389,0.214,1.838,0.619
						c0.607,0.55,0.902,1.301,0.854,2.171c-0.074,1.289-0.938,2.802-2.053,3.599c-0.789,0.564-1.848,0.887-2.902,0.887
						c-1.455,0-2.709-0.585-3.438-1.605c-1.123-1.57-0.438-3.81,0.491-5.25c1.152-1.792,3.627-2.95,6.302-2.95
						c1.419,0,2.775,0.336,3.82,0.949c1.643,0.965,1.018,2.601,0.415,4.184c-0.089,0.233-0.177,0.463-0.256,0.684
						c-0.1,0.287-0.58,1.746-0.179,2.314c0.108,0.154,0.271,0.235,0.464,0.235c0.173,0,0.37-0.062,0.604-0.189
						c0.641-0.347,1.076-0.885,1.497-1.406c0.144-0.179,0.286-0.352,0.432-0.516c-0.954,2.812-1.857,5.625-2.626,8.043
						c-0.334,1.048-0.667,2.098-0.998,3.147l-0.409,1.292c-0.279,0.884-0.264,1.004-0.033,1.818c0.073,0.264,0.105,0.539,0.14,0.831
						c0.041,0.368,0.085,0.75,0.223,1.113c0.03,0.077,0.104,0.127,0.185,0.127c0.002,0,0.005,0,0.006,0
						c0.086-0.003,0.157-0.058,0.183-0.137c0.618-1.906,1.225-3.846,1.811-5.724c0.574-1.84,1.163-3.727,1.771-5.6
						c-0.379,2.902-1.097,5.701-2.142,8.344c-0.11,0.281-0.221,0.582-0.339,0.901c-0.405,1.097-0.862,2.341-1.478,3.154
						c-0.132,0.177-0.199,0.186-0.199,0.186c-0.246-0.1-0.369-1.761-0.286-2.153c0.02-0.085-0.02-0.169-0.095-0.212
						c-0.03-0.021-0.064-0.028-0.1-0.028c-0.048,0-0.097,0.019-0.131,0.051c-0.573,0.511-0.791,1.655-0.499,2.605
						c0.219,0.703,0.685,1.152,1.281,1.229c0.092,0.012,0.185,0.02,0.275,0.02c1.665,0,2.347-2.062,2.57-2.739
						c0.254-0.768,0.428-1.563,0.597-2.333c0.14-0.642,0.284-1.302,0.472-1.938c0.294-0.983,0.634-1.972,0.964-2.927
						c0.403-1.172,0.82-2.38,1.158-3.601c0.435,0.314,0.963,0.473,1.476,0.627c0.807,0.242,1.567,0.47,1.896,1.271
						c0.458,1.123,0.384,2.513,0.311,3.857c-0.029,0.547-0.059,1.064-0.051,1.558c0.028,1.74,0.271,3.611,1.857,4.29
						c0.363,0.155,0.768,0.234,1.2,0.234c1.284,0,2.814-0.737,3.259-2.14c0.024-0.076,0-0.163-0.062-0.213
						c-0.036-0.031-0.08-0.047-0.126-0.047c-0.033,0-0.065,0.007-0.097,0.025c-0.681,0.375-1.301,0.564-1.842,0.564
						c-1.832,0-2.397-2.172-2.569-3.469c-0.14-1.037-0.18-2.104-0.218-3.136c-0.014-0.367-0.027-0.734-0.045-1.1
						c-0.037-0.744-0.037-0.744,0.481-1.148l0.095-0.073c0.57-0.446,1.035-1.055,1.342-1.76c1.066-2.465,0.332-5.792-1.667-7.575
						c-0.747-0.667-1.683-1.034-2.638-1.034c-0.382,0-0.764,0.057-1.137,0.17c-0.887,0.268-1.092,1.227-1.271,2.072
						c-0.04,0.19-0.078,0.37-0.125,0.534l-0.067,0.249c-0.243,0.91-0.494,1.846-0.903,2.693c-0.142-1.077,0.204-2.081,0.564-3.136
						c0.337-0.981,0.685-1.996,0.615-3.086c-0.005-0.068-0.043-0.128-0.103-0.161c-0.03-0.017-0.061-0.025-0.096-0.025
						c-0.032,0-0.065,0.008-0.095,0.024c-1.183,0.649-2.137,1.545-3.079,2.579c0.492-1.512,0.164-2.626-0.259-3.342
						C194.583,44.179,192.302,43.131,189.723,43.131L189.723,43.131z M202.734,56.071c-0.174,0-0.386-0.087-0.654-0.2
						c-0.148-0.061-0.315-0.13-0.506-0.198c-0.171-0.06-0.359-0.112-0.56-0.167c-0.888-0.241-1.462-0.442-1.37-1.022l0.039-0.255
						c0.089-0.572,0.182-1.163,0.304-1.736l0.011-0.052c0.202-0.945,0.575-2.704,1.681-2.704c0.032,0,0.066,0.002,0.099,0.005
						c1.33,0.118,2.431,1.74,2.713,2.866c0.222,0.894-0.355,1.905-1.017,2.865C203.11,55.998,202.903,56.071,202.734,56.071
						L202.734,56.071z"/>
				</g>
			</g>
		</g>
	</g>
</g>
</svg>
