<?xml version="1.0" encoding="utf-8"?>
<!-- Generator: Adobe Illustrator 15.0.0, SVG Export Plug-In . SVG Version: 6.00 Build 0)  -->
<!DOCTYPE svg PUBLIC "-//W3C//DTD SVG 1.1//EN" "http://www.w3.org/Graphics/SVG/1.1/DTD/svg11.dtd">
<svg version="1.1" id="Etsy" xmlns="http://www.w3.org/2000/svg" xmlns:xlink="http://www.w3.org/1999/xlink" x="0px" y="0px"
	 width="382.5px" height="182.5px" viewBox="0 0 382.5 182.5" enable-background="new 0 0 382.5 182.5" xml:space="preserve">
<g>
	<path fill="#C42000" d="M-442.583-137.66c-0.022-0.52,0.173-0.942,0.867-0.942c0.693,0,7.732,0.223,12.466,0.223
		c9.814,0,12.169-0.793,13.854-0.793c0.941,0.025,1.14,0.744,1.14,1.165s-0.445,1.313-0.445,2.478c0,1.165,0.272,2.404,0.272,3.42
		c0,1.017-0.868,1.363-1.339,1.363s-0.768-0.174-0.793-1.041c-0.05-1.66,1.165-4.064-10.756-4.064c-6.072,0-6.222,0.694-6.222,2.627
		s0.051,8.327,0.051,9.318s0.297,1.289,1.09,1.289s7.014,0,8.699,0s3.396-0.917,3.594-3.296c0.074-1.264,0.421-1.313,1.041-1.313
		c0.619,0,1.189,0.496,1.09,1.685c-0.099,1.19-0.347,2.454-0.347,4.164c0,1.71,0.347,3.396,0.347,4.635s-1.636,1.536-1.957,0.198
		c-0.322-1.338-0.794-3.594-4.61-3.594s-6.89,0-7.732,0s-1.265,0.471-1.265,1.859c0,1.388,0,8.178,0,9.889
		c0,1.709,0.521,3.543,3.991,3.543s9.765,0.372,12.64-1.884c1.238-1.016,1.61-2.428,2.032-4.733
		c0.198-1.065,2.503-1.041,2.403,1.413c-0.074,1.141-1.167,3.588-1.167,5.159c0,1.314,0.301,3.072-0.914,3.072
		c-1.027,0-0.595-0.523-5.106-0.523c-4.51,0-20.074,0.1-22.676,0.1c-0.967,0-1.165-0.273-1.165-0.868s0.347-1.041,1.165-1.041
		c0.817,0,4.287,0.049,4.287-4.362c0-4.412,0-20.545,0-22.925s-0.521-4.758-3.445-5.056
		C-442.633-136.595-442.559-137.09-442.583-137.66z"/>
	<path fill="#C42000" d="M-410.762-123.79c0-0.744,0.397-1.058,1.289-1.355c1.686-0.644,3.618-2.528,5.254-6.989
		c0.521-1.413,2.305-1.041,2.082,0.396s-0.545,4.089-0.545,5.601c0.768,0,6.468,0,7.187,0c0.72,0,0.843,0.868,0.843,1.562
		s-0.198,1.264-0.817,1.264c-0.669,0-7.212,0-7.212,0s0,7.955,0,12.441s1.536,5.527,3.594,5.527c1.189,0,2.155-0.471,3.048-1.09
		c0.595-0.446,1.934,0.619,1.265,1.486c-0.67,0.868-3.024,3.42-6.395,3.42c-3.371,0-5.8-2.503-5.75-6.691s0.224-11.177,0.224-12.144
		c0-0.966-1.265-2.33-2.677-2.33C-410.538-122.716-410.762-123.327-410.762-123.79z"/>
	<path fill="#C42000" d="M-381.591-126.855c2.329,0,4.139,0.818,4.907,0.818c0.768,0,1.065-0.966,1.908-0.966
		s1.04,0.966,0.817,1.784s-0.371,2.751-0.272,4.907c0.025,0.744-0.57,1.189-1.165,1.189s-0.818-0.248-1.065-1.388
		c-0.248-1.14-1.264-3.891-5.279-3.891c-2.899,0-4.015,1.933-4.015,3.197c0,1.264,0.679,2.473,3.767,3.817
		c3.247,1.413,9.245,2.925,9.245,8.674c-0.198,5.403-5.552,7.113-8.699,7.113c-2.652,0-5.13-0.793-6.221-0.793
		s-1.512,0.917-2.206,0.917c-0.693,0-1.189-0.793-0.917-1.611c0.272-0.818,0.619-1.437,0.619-2.255s-0.47-2.727-0.197-4.312
		s2.403-1.809,2.379-0.272c-0.024,1.537,0.67,5.923,6.221,5.923c4.486,0,5.006-3.123,5.006-4.015c0-1.09-0.223-2.652-5.601-4.783
		s-7.46-4.114-7.46-7.509S-386.796-126.855-381.591-126.855z"/>
	<path fill="#C42000" d="M-371.182-125.417c0-0.521,0.024-0.768,0.619-0.768s3.742,0.099,5.402,0.099s4.71-0.099,5.329-0.099
		c0.446,0,0.322,0.545,0.322,0.917c0,0.372,0.049,0.991-0.744,0.991s-2.279,0.273-2.279,1.586c0,1.313,0.35,1.68,0.867,3.098
		c0.57,1.562,4.684,11.004,4.684,11.004s3.222-6.618,4.188-8.476s1.562-4.188,1.562-5.229c0-1.041-1.065-1.735-1.958-1.909
		s-1.338-0.124-1.338-1.189c0-0.545,0.099-0.843,0.545-0.843s3.122,0.173,5.104,0.173c1.983,0,4.289-0.124,4.933-0.124
		c0.595,0,0.422,0.496,0.422,0.917c0,0.421-0.05,0.842-0.57,0.917c-0.521,0.074-2.825-0.025-5.229,5.081
		c-2.403,5.105-7.162,15.39-10.606,22.082c-1.785,3.519-5.155,7.361-8.675,7.361c-1.834,0.024-2.553-1.562-2.553-2.355
		c0-0.793,0.446-2.082,2.527-2.082c1.388,0,1.76,0.669,2.429,0.669c1.389,0,4.908-3.371,5.898-9.417
		c0.149-1.388-1.278-4.787-1.833-6.32c-0.826-2.28-3.338-8.889-5.155-12.813c-0.621-1.341-2.255-2.032-3.296-2.156
		C-371.083-124.401-371.182-124.575-371.182-125.417z"/>
</g>
<path d="M-149.107,40.31V28.551h-3.879V24.5h3.879v-4.398c0-2.636,2.389-4.411,4.32-4.411h4.34v3.687h-2.004
	c-0.986,0-2.301,0.802-2.301,1.787V24.5h3.91v4.051h-3.91V40.31H-149.107z"/>
<path fill="#A30F1D" d="M-175.891,178.801v-11.759h-3.879v-4.051h3.879v-4.398c0-2.636,2.389-4.411,4.32-4.411h4.34v3.687h-2.004
	c-0.986,0-2.301,0.802-2.301,1.787v3.336h3.91v4.051h-3.91v11.759H-175.891z"/>
<path d="M-420.368,158.344c-0.967,0.43-2.004,0.723-3.096,0.851c1.111-0.666,1.967-1.725,2.368-2.98
	c-1.04,0.614-2.194,1.064-3.422,1.306c-0.981-1.047-2.382-1.701-3.932-1.701c-2.978,0-5.387,2.411-5.387,5.393
	c0,0.421,0.049,0.828,0.138,1.223c-4.477-0.224-8.449-2.366-11.104-5.631c-0.466,0.796-0.731,1.726-0.731,2.711
	c0,1.868,0.953,3.52,2.398,4.484c-0.882-0.027-1.717-0.269-2.438-0.672c-0.002,0.023-0.002,0.044-0.002,0.067
	c0,2.611,1.857,4.79,4.32,5.283c-0.453,0.126-0.93,0.188-1.42,0.188c-0.344,0-0.683-0.035-1.014-0.097
	c0.688,2.141,2.677,3.699,5.035,3.742c-1.847,1.446-4.168,2.309-6.691,2.309c-0.436,0-0.865-0.029-1.287-0.076
	c2.384,1.529,5.216,2.422,8.26,2.422c9.908,0,15.328-8.211,15.328-15.336c0-0.23-0.003-0.465-0.014-0.693
	C-422.006,160.375-421.092,159.427-420.368,158.344z"/>
<path fill="#A30F1D" d="M-420.368,288.344c-0.967,0.43-2.004,0.723-3.096,0.852c1.111-0.666,1.967-1.725,2.368-2.98
	c-1.04,0.613-2.194,1.064-3.422,1.305c-0.981-1.047-2.382-1.701-3.932-1.701c-2.978,0-5.387,2.412-5.387,5.393
	c0,0.422,0.049,0.828,0.138,1.223c-4.477-0.223-8.449-2.365-11.104-5.631c-0.466,0.797-0.731,1.727-0.731,2.711
	c0,1.869,0.953,3.52,2.398,4.484c-0.882-0.027-1.717-0.268-2.438-0.672c-0.002,0.023-0.002,0.045-0.002,0.068
	c0,2.611,1.857,4.789,4.32,5.283c-0.453,0.125-0.93,0.188-1.42,0.188c-0.344,0-0.683-0.035-1.014-0.096
	c0.688,2.141,2.677,3.699,5.035,3.742c-1.847,1.445-4.168,2.309-6.691,2.309c-0.436,0-0.865-0.029-1.287-0.076
	c2.384,1.529,5.216,2.422,8.26,2.422c9.908,0,15.328-8.211,15.328-15.336c0-0.23-0.003-0.465-0.014-0.693
	C-422.006,290.375-421.092,289.428-420.368,288.344z"/>
<g>
	<path d="M-309.879,178.379c0,0-0.007-2.454,0.279-3.669c0.307-1.296,2.058-8.711,2.058-8.711s-0.515-1.019-0.515-2.528
		c0-2.37,1.377-4.139,3.088-4.139c1.452,0,2.154,1.091,2.154,2.398c0,1.464-0.931,3.651-1.41,5.674
		c-0.401,1.697,0.847,3.08,2.522,3.08c3.029,0,5.068-3.891,5.068-8.499c0-3.505-2.357-6.126-6.653-6.126
		c-4.847,0-7.87,3.618-7.87,7.654c0,1.396,0.411,2.377,1.055,3.137c0.297,0.35,0.341,0.491,0.231,0.894
		c-0.077,0.292-0.254,0.999-0.327,1.281c-0.105,0.404-0.432,0.55-0.801,0.399c-2.234-0.911-3.275-3.357-3.275-6.106
		c0-4.542,3.831-9.987,11.428-9.987c6.105,0,10.121,4.416,10.121,9.158c0,6.271-3.488,10.955-8.626,10.955
		c-1.727,0-3.35-0.932-3.907-1.99c0,0-0.928,3.684-1.124,4.392c-0.337,1.232-1.607,3.425-1.607,3.425s-0.463,0.544-1.246,0.777
		C-309.607,179.958-309.879,178.379-309.879,178.379z"/>
</g>
<g display="none">
	<path display="inline" fill="#A30F1D" d="M-309.879,308.38c0,0-0.007-2.454,0.279-3.669c0.307-1.296,2.058-8.711,2.058-8.711
		s-0.515-1.019-0.515-2.528c0-2.37,1.377-4.139,3.088-4.139c1.452,0,2.154,1.091,2.154,2.398c0,1.464-0.931,3.651-1.41,5.674
		c-0.401,1.697,0.847,3.08,2.522,3.08c3.029,0,5.068-3.891,5.068-8.499c0-3.505-2.357-6.127-6.653-6.127
		c-4.847,0-7.87,3.618-7.87,7.654c0,1.396,0.411,2.377,1.055,3.137c0.297,0.35,0.341,0.491,0.231,0.894
		c-0.077,0.292-0.254,0.999-0.327,1.281c-0.105,0.404-0.432,0.55-0.801,0.399c-2.234-0.911-3.275-3.357-3.275-6.106
		c0-4.542,3.831-9.987,11.428-9.987c6.105,0,10.121,4.416,10.121,9.158c0,6.271-3.488,10.955-8.626,10.955
		c-1.727,0-3.35-0.932-3.907-1.99c0,0-0.928,3.684-1.124,4.392c-0.337,1.232-1.607,3.425-1.607,3.425s-0.463,0.544-1.246,0.777
		C-309.607,309.958-309.879,308.38-309.879,308.38z"/>
</g>
<rect x="-567.818" y="231.071" fill="#FFFFFF" width="64" height="64"/>
<path d="M-539.855,283.849V264h-6.544v-6.836h6.544v-7.425c0-4.449,4.034-7.445,7.293-7.445h7.325v6.224h-3.382
	c-1.663,0-3.882,1.354-3.882,3.015v5.632h6.597V264h-6.597v19.849H-539.855z"/>
<g>
	<rect x="-222.881" y="-142" fill="#C42000" width="26.465" height="36.303"/>
	
		<rect x="-232.491" y="-140.84" transform="matrix(0.7071 0.7071 -0.7071 0.7071 -158.0256 121.9846)" fill="#C42000" width="12.459" height="22.158"/>
	
		<rect x="-199.216" y="-140.84" transform="matrix(0.707 -0.7072 0.7072 0.707 35.2254 -174.4945)" fill="#C42000" width="12.457" height="22.158"/>
</g>
<g>
	<rect x="-77.747" y="-138.996" fill="#FFFFFF" width="36.053" height="25.772"/>
	<path fill="#C42000" d="M-44.698-135.991v19.763h-30.045v-19.763H-44.698 M-38.689-142h-42.062v31.781h42.062V-142L-38.689-142z"/>
</g>
<g>
	<rect x="-448.5" y="13" fill="#C42000" width="42.062" height="31.781"/>
</g>
<g>
	<g>
		<rect x="-304.94" y="14.361" fill="#FFFFFF" width="27.953" height="20.867"/>
		<path fill="#C42000" d="M-277.505,14.879V34.71h-26.918V14.879H-277.505 M-276.47,13.844h-28.988v21.902h28.988V13.844
			L-276.47,13.844z"/>
	</g>
	<g>
		<rect x="-297.897" y="21.765" fill="#FFFFFF" width="27.952" height="20.867"/>
		<path fill="#C42000" d="M-270.463,22.283v19.832h-26.917V22.283H-270.463 M-269.428,21.248h-28.987v21.902h28.987V21.248
			L-269.428,21.248z"/>
	</g>
	<g>
		<rect x="-291.168" y="29.264" fill="#FFFFFF" width="27.953" height="20.867"/>
		<path fill="#C42000" d="M-263.732,29.781v19.832h-26.918V29.781H-263.732 M-262.697,28.746h-28.988v21.902h28.988V28.746
			L-262.697,28.746z"/>
	</g>
</g>
<g>
	<polyline fill="none" stroke="#0A9995" stroke-width="7" stroke-miterlimit="10" points="-42.034,426.104 -53.297,409.336 
		-42.034,392.566 	"/>
</g>
<g>
	<polyline fill="none" stroke="#0A9995" stroke-width="7" stroke-miterlimit="10" points="-23.94,392.898 -12.678,409.666 
		-23.94,426.436 	"/>
</g>
<g>
	<polyline fill="none" stroke="#0A9995" stroke-width="7" stroke-miterlimit="10" points="-97.946,312.005 -81.178,300.742 
		-64.408,312.005 	"/>
</g>
<g>
	<polyline fill="none" stroke="#FFFFFF" stroke-width="7" stroke-miterlimit="10" points="-151.731,285.798 -168.501,300.224 
		-185.269,285.798 	"/>
</g>
<g>
	<polyline fill="none" stroke="#0A9995" stroke-width="7" stroke-miterlimit="10" points="-161.731,415.798 -178.501,430.224 
		-195.269,415.798 	"/>
</g>
<g>
	<polyline fill="none" stroke="#0A9995" stroke-width="7" stroke-miterlimit="10" points="-427.805,448.261 -442.23,431.491 
		-427.805,414.724 	"/>
</g>
<g>
	<g>
		<polyline fill="none" stroke="#FFFFFF" stroke-width="7" stroke-miterlimit="10" points="-426.805,589.261 -441.23,572.491 
			-426.805,555.724 		"/>
	</g>
	<g>
		<g>
			<polyline fill="none" stroke="#ECECE8" stroke-width="7" stroke-miterlimit="10" points="-427.805,588.261 -442.23,571.491 
				-427.805,554.724 			"/>
		</g>
	</g>
</g>
<g>
	<polyline fill="none" stroke="#0A9995" stroke-width="7" stroke-miterlimit="10" points="-319.195,414.724 -304.77,431.493 
		-319.195,448.261 	"/>
</g>
<g>
	<g>
		<polyline fill="none" stroke="#FFFFFF" stroke-width="7" stroke-miterlimit="10" points="-318.195,555.724 -303.77,572.493 
			-318.195,589.261 		"/>
	</g>
	<g>
		<g>
			<polyline fill="none" stroke="#ECECE8" stroke-width="7" stroke-miterlimit="10" points="-319.195,554.724 -304.77,571.493 
				-319.195,588.261 			"/>
		</g>
	</g>
</g>
<g>
	<g>
		<g>
			<path fill="#ECECE8" d="M167.197,180.073c-5.49,0-10.951-2.49-14.758-6.696c-1.524,2.867-4.904,5.96-12.393,5.96
				c-3.65,0-7.432-0.699-9.091-1.112c-1.531-0.381-2.898-1.172-3.98-2.299c-3.122,2.391-7.114,3.702-11.298,3.702
				c-1.693,0-3.36-0.223-4.955-0.663c-0.715,0.135-1.449,0.203-2.188,0.203c-0.715,0-1.446-0.064-2.172-0.19
				c-3.135-0.544-5.715-2.878-6.571-5.947c-0.331-1.191-1.897-7.397-0.224-12.618c0.044-0.135,0.09-0.267,0.14-0.398
				c-0.405-1.481-0.53-3.043-0.372-4.653c-4.453,0.008-8.755,0.018-12.949,0.031c-3.923,0-7.159-2.939-7.53-6.836
				c-0.383-3.87,2.229-7.37,6.075-8.137c1.752-0.34,3.534-0.59,5.107-0.81l0.161-0.023c2.605-0.363,5.298-0.738,7.161-1.381
				c0.224-0.082,0.458-0.153,0.698-0.212c-0.655-0.332-1.269-0.671-1.833-1.015c-12.274-7.482-22.127-19.186-30.121-35.779
				c-5.025-10.429-9.117-22.245-12.862-37.151c-2.044,0.469-4.105,0.892-6.103,1.302c-1.972,0.404-3.944,0.809-5.852,1.248
				c0.085,0.094,0.168,0.19,0.25,0.287c2.677,3.17,3.732,7.377,2.972,11.845c-1.387,8.171-8.73,13.451-18.708,13.451
				c-6.547,0-15.559-2.522-19.412-9.63c-3.113-5.739-3.41-11.749-0.856-17.378c6.12-13.501,26.084-18.381,28.341-18.893
				c17.055-3.867,37.424-12.249,55.884-22.997c0.617-0.359,1.271-0.716,1.956-1.085c-1.079-1.435-1.668-3.176-1.668-4.967
				c0-4.129,1.081-7.562,3.213-10.204c2.359-2.922,5.908-4.599,9.734-4.599c5.648,0,11.361,3.553,14.554,9.051
				c3.292,5.67,3.273,12.532-0.05,18.357c-0.168,0.293-0.351,0.59-0.555,0.903c0.401-0.028,0.801-0.042,1.193-0.042
				c3.872,0,7.605,1.205,11.389,3.679c0.676-6.629,4.27-11.738,10.435-14.811c5.751-2.866,12.458-4.38,19.396-4.38
				c8.284,0,16.638,2.142,23.522,6.03c3.966,2.24,7.318,4.983,9.974,8.161c4.448-5.293,13.812-13.6,28.752-13.6
				c0.973,0,1.959,0.038,2.934,0.111c13.18,1,22.432,5.22,26.805,12.216c0.125-0.07,0.25-0.14,0.375-0.209
				c1.218-0.665,2.593-1.016,3.977-1.016c1.386,0,2.766,0.354,3.992,1.023c0.667,0.366,1.275,0.817,1.813,1.342
				c0.838-0.105,1.684-0.159,2.517-0.159c0.231,0,0.462,0.005,0.689,0.014c-1.2-2.316-1.895-4.762-2.114-7.448
				c-0.044-0.485-0.07-0.973-0.078-1.444c-0.012-0.648,0.021-1.332,0.103-2.09c0.413-3.837,2.093-7.354,4.856-10.168
				c2.225-2.266,5.098-3.936,8.09-4.702c0.102-0.03,0.448-0.116,0.448-0.116c0.267-0.06,0.532-0.105,0.799-0.146
				c0.339-0.062,0.599-0.105,0.822-0.13c0.274-0.032,0.548-0.049,0.821-0.06l0.139,0.493l-0.037-0.499
				c0.258-0.02,0.518-0.033,0.772-0.033c5.495,0,11.728,3.512,13.265,11.358c0.2,1.013,0.316,2.091,0.347,3.204
				c0.063,2.329-0.826,4.528-2.458,6.134c0.955,0.592,1.847,1.128,2.554,1.553c3.72,2.234,7.196,4.323,9.681,6.749
				c0.68,0.664,1.357,1.367,2.019,2.095c1.337-0.856,2.871-1.306,4.465-1.306c1.577,0,3.113,0.446,4.441,1.291
				c5.759,3.655,14.918,6.089,23.775,8.443c9.778,2.598,19.889,5.284,27.709,10.044c5.317,3.238,11.541,10.583,13.146,18.354
				c1.064,5.142,0.061,10.218-2.825,14.292c-3.346,4.723-9.468,7.432-16.795,7.432c-9.133,0-19.463-4.635-20.562-14.811
				c-0.061-0.569-0.091-1.142-0.091-1.702c-0.004-4.339,1.785-7.243,3.286-8.914c0.044-0.049,0.088-0.097,0.132-0.145
				c-1.562-0.317-3.122-0.61-4.617-0.892c-2.413-0.454-4.678-0.88-6.881-1.364c-8.312,28.157-17.775,59.99-43.677,73.329
				c-0.566,0.292-1.176,0.579-1.854,0.873c0.013,0.028,0.025,0.056,0.038,0.084c4.208,0.33,8.188,0.721,11.833,1.164
				c3.895,0.471,6.813,3.912,6.645,7.832l-0.006,0.104c-0.238,3.971-3.532,7.1-7.499,7.122c-4.865,0.052-9.721,0.097-14.688,0.137
				c0.012,0.997-0.014,2.203-0.191,3.44c1.653,3.04,1.905,6.665,0.728,10.495c-1.341,4.376-4.608,7.601-9.2,9.081
				c-3.148,1.014-6.23,1.014-7.886,1.014c-1.213,0-2.386-0.043-3.521-0.084l-0.086-0.503l-0.019,0.5
				c-0.959-0.035-1.865-0.068-2.668-0.068c-0.222,0-0.912,0.013-0.912,0.013c-2.462,0-4.735-1.055-6.311-2.909
				c-3.532,2.337-7.773,3.62-11.996,3.62c-3.876,0-7.533-1.047-10.604-3.031c-1.16,0.997-2.556,1.65-4.058,1.897
				c-1.972,0.321-4.514,0.498-7.157,0.498c-2.646,0-5.189-0.177-7.163-0.499c-1.902-0.312-3.628-1.279-4.902-2.74
				c-4.263,2.425-9.504,3.756-14.813,3.756c-3.543,0-6.936-0.577-10.084-1.716c-0.898-0.324-1.723-0.793-2.456-1.398
				C174.631,178.867,171.11,180.073,167.197,180.073z M102.939,113.025c3.641,3.751,7.427,6.397,11.271,7.873
				c1.117,0.429,2.423,0.655,3.775,0.655c0.704,0,1.389-0.06,2.047-0.179c-1.006-1.004-2.128-2.143-2.939-3.723
				c-1.537-2.975-1.144-6.555,1.003-9.119c1.58-1.891,3.898-2.975,6.362-2.975c0.437,0,0.874,0.036,1.31,0.106
				c-1.612-3.238-2.889-6.852-4.026-10.446c-0.321,6.091-2.069,10.635-5.307,13.83c-2.752,2.716-6.525,4.212-10.625,4.212
				C104.871,113.259,103.91,113.18,102.939,113.025z M263.506,121.065c0.271,0.021,0.559,0.031,0.861,0.031
				c0.474,0,0.992-0.027,1.541-0.08c5.044-0.489,10.257-4.606,14.059-8.391c-0.985,0.151-1.954,0.227-2.893,0.227
				c-3.223,0-6.235-0.802-8.712-2.32c-0.427-0.261-0.833-0.533-1.219-0.816c0.054,0.103,0.113,0.222,0.174,0.355
				c0.103,0.224,0.179,0.418,0.229,0.552c0.037,0.095,0.092,0.24,0.146,0.413c0.072,0.222,0.132,0.45,0.181,0.687
				c0.032,0.146,0.062,0.295,0.087,0.446c0.045,0.266,0.07,0.5,0.084,0.693c0.019,0.158,0.036,0.396,0.036,0.67l-0.003,0.752
				l-0.073,0.303c-0.029,0.266-0.088,0.587-0.166,0.906l-0.025,0.106c-0.057,0.206-0.09,0.316-0.125,0.426
				c-0.182,0.58-0.409,1.107-0.695,1.609l-0.124,0.215l-0.089,0.134c-0.253,0.397-0.558,0.792-0.897,1.16l-0.251,0.265
				c-0.492,0.479-0.927,0.822-1.433,1.146l-0.34,0.229l-0.148,0.116l-0.429-0.302l0.331,0.375L263.506,121.065z M259.634,79.019
				c-0.636,1.903-1.314,3.896-2.03,6c0,0-1.212,3.558-1.606,4.727c-0.405,1.204-0.84,3.17-1.3,5.252
				c-0.834,3.779-1.849,8.383-3.573,12.393c0.052-0.029,0.101-0.055,0.147-0.079c0.269-0.143,0.557-0.277,0.849-0.407
				c0.229-0.112,0.428-0.204,0.652-0.297c0.252-0.103,0.513-0.195,0.774-0.284l0.098-0.032c0.247-0.094,0.458-0.168,0.67-0.233
				c0.246-0.075,0.505-0.141,0.766-0.202l0.184-0.046c0.245-0.065,0.493-0.127,0.754-0.18c0.212-0.042,0.434-0.077,0.656-0.108
				l0.15-0.024c0.313-0.053,0.626-0.103,0.954-0.138c0.181-0.02,0.374-0.033,0.605-0.045c0.396-0.032,0.759-0.061,1.185-0.071
				l0.919-0.002l0.265,0.06c0.137,0.012,0.327,0.041,0.516,0.075c0.207,0.037,0.418,0.086,0.612,0.139
				c0.229,0.062,0.504,0.14,0.823,0.26c0.262,0.102,0.453,0.184,0.639,0.272c0.09,0.043,0.181,0.088,0.271,0.136
				c-4.282-5.891-4.115-14.015-3.976-20.835C259.684,83.191,259.729,80.982,259.634,79.019z M151.689,94.824
				c1.953,2.927,2.943,6.347,2.836,9.751c1.227-0.845,2.535-1.707,3.931-2.507c-0.262-0.814-0.621-1.722-1.053-2.794
				c-0.638-1.57-1.433-3.526-1.956-5.643c-1.089-4.252,1.188-8.635,5.297-10.191l0.26-0.093c0.907-0.309,1.847-0.465,2.793-0.465
				c3.213,0,6.148,1.789,7.66,4.668c0.993,1.925,2.733,5.122,4.798,8.81c1.874-0.371,3.852-0.696,6.021-0.99
				c0.185-3.082,0.296-6.363,0.403-9.542c0.104-3.081,0.219-6.456,0.41-9.571c-2.902,1.194-6.145,1.798-9.649,1.798
				c-1.954,0-4.037-0.188-6.197-0.561c-0.15,0.441-0.339,0.871-0.563,1.284c-1.452,2.674-4.244,4.335-7.286,4.335
				c-0.547,0-1.088-0.053-1.609-0.157c-3.474-0.687-6.705-1.836-9.837-3.503l0.338,1.028c0.994,3.016,2.12,6.436,3.207,9.568
				C152.029,91.604,152.097,93.25,151.689,94.824z M201.63,95.345c2.063,0.29,4.088,0.584,6.106,0.944
				c0.641-1.196,1.266-2.478,1.872-3.721c0.611-1.264,1.617-3.345,2.684-5.268c1.521-2.726,4.404-4.418,7.524-4.418
				c0.815,0,1.629,0.117,2.42,0.347l0.275,0.086c2.181,0.718,3.929,2.214,4.951,4.196l1.865-5.875
				c1.165-3.669,2.344-7.387,3.539-11.125c-4.066,3.97-8.783,6.586-13.462,7.436c-3.303,0.597-5.718,0.852-8.075,0.852
				c-3.667,0-7.001-0.649-10.428-2.037C201.125,83.589,201.363,89.68,201.63,95.345z M287.166,89.82
				c1.915,0,3.785,0.669,5.266,1.885c0.481,0.396,0.92,0.853,1.308,1.363c3.594-7.1,5.271-12.72,4.983-16.711
				c-0.787-10.979-5.401-18.1-12.173-25.087c1.37,7.774,0.144,17.733-7.191,24.239l0.071,1.84c0.168,4.53,0.358,9.646,1.305,13.169
				c0.147,0.544,0.289,0.958,0.41,1.263c0.473-0.166,1.143-0.45,2.034-0.939C284.397,90.174,285.776,89.82,287.166,89.82z
				 M94.875,89.82c2.121,0,4.192,0.832,5.722,2.289c0.336-0.063,0.717-0.239,0.928-0.386c0.881-2.759-1.399-7.223-3.605-11.542
				c-1.933-3.785-3.93-7.695-4.617-11.887c-1.165-7.105,0.552-13.793,4.834-18.833c2.148-2.529,4.77-4.463,7.797-5.754
				c-0.4-0.857-0.653-1.781-0.742-2.716c-2.555,1.483-5.188,2.8-7.74,4.076c-2.088,1.043-4.044,2.022-5.717,2.973
				c-1.809,1.027-4.091,1.956-6.507,2.939c-1.381,0.561-5.484,2.226-7.3,3.345c-0.662,5.101,3.413,17.267,4.765,21.303l0.543,1.625
				c0.944,2.856,2.952,8.503,5.957,14.832c0.444-0.422,0.928-0.79,1.443-1.098C91.917,90.224,93.383,89.82,94.875,89.82z
				 M209.572,48.31c-0.015,0.147-0.025,0.294-0.033,0.439c-0.104,2.192,0.713,2.588,1.31,2.878c1.667,0.81,3.104,1.291,4.269,1.429
				c0.162,0.019,0.326,0.029,0.488,0.029c2.329,0,5.116-1.648,6.626-3.918c0.979-1.471,1.247-2.941,0.801-4.375
				c-0.145-0.018-0.34-0.032-0.593-0.032c-2.278,0-4.963,1.137-5.948,1.923c-1.463,1.169-3.3,1.812-5.173,1.812
				C210.728,48.494,210.143,48.432,209.572,48.31z M163.758,43.938c-1.446,0-2.288,0.487-2.469,0.723
				c-0.137,0.178-0.215,0.913,0.133,2.208c0.847,3.166,3.613,5.212,7.049,5.212c0.173,0,0.35-0.005,0.531-0.015
				c0.549-0.031,1.983-0.7,3.031-1.189l0.552-0.257c0.478-0.221,1.363-0.631,1.6-2.604c0.021-0.185,0.037-0.375,0.046-0.57
				c-0.433,0.069-0.869,0.104-1.305,0.104c-2.243,0-4.418-0.924-5.967-2.535C166.459,44.497,165.243,43.938,163.758,43.938z"/>
			<path fill="#0A9995" d="M102.996,2.927c5.473,0,11.015,3.455,14.119,8.802c3.201,5.514,3.183,12.189-0.052,17.858
				c-0.348,0.608-0.735,1.188-1.142,1.755c0.733-0.096,1.473-0.146,2.215-0.146c4.448,0,8.326,1.645,11.817,4.071
				c0.428-6.801,3.967-12.135,10.229-15.255c5.683-2.832,12.312-4.328,19.173-4.328c8.2,0,16.466,2.119,23.276,5.966
				c4.12,2.327,7.577,5.224,10.218,8.512c6.122-7.522,15.804-13.887,28.754-13.887c0.961,0,1.936,0.037,2.896,0.11
				c13.291,1.008,22.491,5.288,26.668,12.394c0.263-0.153,0.526-0.302,0.791-0.447c1.144-0.624,2.435-0.954,3.735-0.954
				c1.302,0,2.595,0.33,3.753,0.962c0.705,0.387,1.334,0.872,1.873,1.432c0.899-0.125,1.799-0.187,2.696-0.187
				c0.53,0,1.049,0.027,1.562,0.068c-1.277-2.215-2.227-4.842-2.489-8.042c-0.043-0.477-0.068-0.953-0.076-1.412
				c-0.012-0.633,0.021-1.295,0.1-2.028c0.401-3.724,2.031-7.137,4.716-9.872c2.165-2.205,4.951-3.823,7.857-4.567
				c0.11-0.032,0.222-0.062,0.334-0.09l0.05-0.012l0.049-0.011c0.256-0.057,0.511-0.101,0.767-0.14l0.047-0.007l0.051-0.009
				c0.245-0.047,0.491-0.088,0.703-0.111c0.265-0.031,0.525-0.047,0.786-0.057l0.062-0.002l0.058-0.004
				c0.246-0.019,0.493-0.032,0.735-0.032h0.002c5.289,0,11.29,3.388,12.772,10.955c0.194,0.987,0.308,2.038,0.337,3.121
				c0.067,2.481-1.018,4.72-2.784,6.194c1.184,0.743,2.309,1.418,3.159,1.93c3.656,2.196,7.109,4.271,9.552,6.656
				c0.809,0.789,1.569,1.59,2.288,2.395c1.309-0.939,2.897-1.464,4.545-1.464c1.482,0,2.927,0.42,4.173,1.213
				c5.824,3.697,15.012,6.138,23.916,8.504c9.744,2.589,19.819,5.266,27.577,9.988c5.226,3.182,11.34,10.397,12.916,18.028
				c1.035,5.004,0.062,9.941-2.744,13.902c-3.251,4.589-9.224,7.221-16.387,7.221c-8.917,0-18.998-4.491-20.064-14.364
				c-0.059-0.553-0.088-1.109-0.088-1.648c-0.004-4.182,1.716-6.974,3.158-8.58c0.245-0.273,0.502-0.533,0.769-0.781
				c-1.867-0.391-3.746-0.744-5.533-1.08c-2.524-0.475-4.973-0.936-7.32-1.461c-0.02,0.065-0.039,0.131-0.059,0.196
				c-8.303,28.122-17.713,59.997-43.5,73.277c-0.731,0.376-1.506,0.729-2.305,1.063c0.134,0.266,0.268,0.532,0.372,0.813
				c4.315,0.334,8.372,0.731,12.118,1.186c3.637,0.44,6.363,3.652,6.205,7.314l-0.002,0.047l-0.003,0.047
				c-0.223,3.717-3.295,6.632-7.003,6.653c-5.032,0.054-10.051,0.1-15.195,0.141c0.03,1.251,0.017,2.625-0.201,4.03
				c1.651,2.935,1.935,6.464,0.77,10.254c-1.292,4.216-4.444,7.324-8.876,8.751c-3.073,0.99-6.104,0.99-7.732,0.99
				c-1.208,0-2.377-0.043-3.507-0.084l-0.057-0.002c-0.981-0.036-1.909-0.07-2.729-0.07c-0.227,0-0.447,0.003-0.665,0.009
				c-0.083,0.003-0.165,0.004-0.247,0.004c-2.503,0-4.771-1.183-6.209-3.082c-3.488,2.421-7.765,3.793-12.098,3.793
				c-3.963,0-7.604-1.098-10.65-3.161c-1.114,1.052-2.532,1.778-4.092,2.034c-1.944,0.317-4.458,0.492-7.076,0.492
				c-2.62,0-5.134-0.175-7.083-0.493c-1.957-0.321-3.683-1.384-4.867-2.891c-4.165,2.464-9.404,3.901-14.929,3.901
				c-3.484,0-6.82-0.567-9.914-1.686c-0.985-0.355-1.872-0.899-2.622-1.587c-2.679,2.34-6.212,3.653-10.216,3.653
				c-5.618,0-11.178-2.683-14.878-7.094c-1.319,2.999-4.527,6.359-12.272,6.359c-3.604,0-7.337-0.691-8.97-1.098
				c-1.623-0.403-3.018-1.295-4.045-2.495c-3.015,2.447-7.052,3.884-11.354,3.884c-1.693,0-3.346-0.227-4.935-0.676
				c-0.649,0.129-1.387,0.216-2.208,0.216c-0.688,0-1.391-0.062-2.086-0.183c-2.947-0.511-5.37-2.703-6.176-5.589
				c-0.324-1.167-1.86-7.243-0.229-12.331c0.058-0.178,0.12-0.353,0.189-0.525c-0.405-1.404-0.618-3.14-0.336-5.18
				c-4.654,0.008-9.142,0.018-13.514,0.032c-3.668,0-6.684-2.741-7.03-6.384c-0.358-3.619,2.06-6.878,5.675-7.6
				c1.732-0.336,3.515-0.586,5.079-0.805l0.162-0.023c2.629-0.366,5.347-0.745,7.254-1.403c0.716-0.262,1.501-0.396,2.291-0.407
				c-1.203-0.534-2.324-1.108-3.329-1.721c-12.188-7.43-21.979-19.064-29.931-35.569c-5.028-10.436-9.187-22.47-12.947-37.532
				c-2.219,0.518-4.449,0.975-6.643,1.425c-2.227,0.457-4.479,0.919-6.643,1.435c0.291,0.286,0.569,0.584,0.834,0.897
				c2.58,3.056,3.596,7.119,2.86,11.438c-1.344,7.918-8.494,13.035-18.215,13.035c-6.409,0-15.224-2.454-18.973-9.368
				c-3.036-5.597-3.326-11.453-0.841-16.934c6.021-13.283,25.765-18.105,27.996-18.612c17.103-3.878,37.523-12.28,56.025-23.052
				c0.77-0.448,1.597-0.893,2.474-1.363c-1.207-1.378-1.938-3.177-1.938-5.121c0-4.012,1.043-7.339,3.102-9.89
				c2.265-2.804,5.671-4.413,9.346-4.413H102.996 M102.997,10.718c0.001,0,0.002,0,0.002,0c0.001,0,0.001,0,0.001,0
				c0.02,0,0.038,0.001,0.057,0.002c0.005,0,0.01,0,0.015,0.001c-0.016,0-0.03,0-0.046,0s-0.032,0-0.049,0
				c-0.168,0-0.334,0.007-0.498,0.024c0.108-0.011,0.218-0.013,0.327-0.018c0.058-0.001,0.113-0.007,0.172-0.007
				c0.016,0,0.032,0,0.048,0c0.018,0,0.036,0,0.054,0.001c0.006,0,0.011,0,0.017,0c-0.006,0-0.011,0-0.017,0
				c-0.003,0-0.005,0-0.008,0c0.002,0,0.005,0,0.008,0c-0.008,0-0.015,0-0.022-0.001c-0.019-0.001-0.037-0.002-0.057-0.002
				c0,0,0,0-0.001,0C102.999,10.718,102.998,10.718,102.997,10.718s-0.002,0-0.003,0C102.995,10.718,102.996,10.718,102.997,10.718
				 M89.052,92.95c0.521-0.591,1.134-1.114,1.839-1.534c1.205-0.717,2.583-1.096,3.984-1.096c2.086,0,4.087,0.84,5.54,2.312
				c0.553-0.019,1.248-0.351,1.535-0.607c1.072-2.952-1.295-7.586-3.586-12.071c-1.914-3.749-3.894-7.625-4.569-11.74
				c-1.141-6.958,0.536-13.502,4.722-18.428c2.221-2.614,4.983-4.582,8.107-5.822c-0.565-1.022-0.904-2.173-0.961-3.376
				c-0.008-0.155,0.009-0.307,0.011-0.46c-2.773,1.657-5.688,3.114-8.462,4.501c-2.078,1.039-4.041,2.021-5.726,2.978
				c-1.78,1.011-4.036,1.929-6.448,2.91c-1.525,0.619-5.831,2.367-7.572,3.509c-0.834,5.085,3.328,17.511,4.752,21.761l0.03,0.088
				l0.512,1.536C83.807,80.575,85.918,86.451,89.052,92.95 M168.471,52.581c0.182,0,0.368-0.005,0.56-0.016
				c0.644-0.036,2.003-0.67,3.214-1.235l0.552-0.256c0.525-0.243,1.616-0.749,1.885-2.999c0.048-0.399,0.065-0.814,0.055-1.24
				c-0.592,0.142-1.199,0.214-1.81,0.214c-2.108,0-4.154-0.871-5.606-2.381c-0.591-0.612-1.921-1.23-3.562-1.23
				c-1.585,0-2.581,0.548-2.865,0.919c-0.308,0.4-0.29,1.387,0.046,2.641C161.846,50.39,164.803,52.581,168.471,52.581
				 M211.318,47.994c-0.741,0-1.47-0.104-2.169-0.307c-0.056,0.352-0.093,0.698-0.109,1.037c-0.12,2.521,0.952,3.042,1.59,3.352
				c1.719,0.834,3.213,1.331,4.429,1.476c0.182,0.021,0.365,0.032,0.547,0.032c2.484,0,5.446-1.742,7.042-4.142
				c1.135-1.705,1.391-3.415,0.762-5.093c-0.173-0.042-0.48-0.09-0.97-0.09c-2.424,0-5.192,1.18-6.26,2.032
				C214.805,47.389,213.078,47.994,211.318,47.994 M280.864,92.395c0.511-0.142,1.342-0.449,2.555-1.114
				c1.146-0.628,2.441-0.961,3.747-0.961c1.8,0,3.557,0.629,4.948,1.771c0.685,0.563,1.242,1.229,1.688,1.952
				c2.674-5.167,5.806-12.352,5.42-17.722c-0.856-11.936-6.16-19.292-13.498-26.601c1.836,7.881,0.943,18.789-6.874,25.57
				c0.026,0.64,0.051,1.293,0.076,1.961l0.004,0.115c0.169,4.547,0.359,9.7,1.322,13.282
				C280.477,91.483,280.695,92.04,280.864,92.395 M234,68.613c-4.294,4.749-9.464,7.895-14.684,8.842
				c-3.272,0.592-5.661,0.844-7.986,0.844c-3.854,0-7.336-0.731-10.952-2.299c0.234,7.303,0.486,13.763,0.772,19.783
				c2.263,0.317,4.567,0.646,6.854,1.063c0.71-1.302,1.394-2.705,2.064-4.081c0.644-1.331,1.618-3.341,2.661-5.222
				c1.433-2.567,4.148-4.161,7.087-4.161c0.767,0,1.533,0.109,2.28,0.327c0.093,0.027,0.187,0.057,0.257,0.081
				c2.524,0.831,4.392,2.772,5.174,5.17c0.707-2.226,1.414-4.452,2.121-6.68l0.042-0.132C231.104,77.691,232.541,73.163,234,68.613
				 M30.396,70.169c0.001,0,0.001,0,0.002,0h0.001c0.001,0,0.001,0,0.001,0c0.001,0,0.001,0,0.002,0c0,0,0,0,0.001,0h0.001
				c0.001,0,0.001,0,0.002,0c0,0,0,0,0.001,0l0.001,0h0.001c0.001,0,0.001,0,0.001,0c0.001,0,0.002,0,0.002,0l0,0
				c0.016,0,0.03,0.002,0.045,0.003c0.004,0,0.008,0,0.012,0c-0.016,0-0.032,0-0.049,0c-0.053,0-0.106,0-0.159,0.001
				c-0.037,0.001-0.075,0.002-0.112,0.003c0.037-0.001,0.075-0.002,0.112-0.003c0.053-0.001,0.105-0.001,0.159-0.001
				c0.017,0,0.034,0,0.052,0c-0.001,0-0.002,0-0.003,0c0.001,0,0.002,0,0.003,0c0.002,0,0.003,0,0.005,0c-0.002,0-0.003,0-0.005,0
				c-0.005,0-0.01,0-0.015,0c-0.015-0.001-0.029-0.002-0.045-0.003l0,0c0,0-0.001,0-0.002,0c0,0,0,0-0.001,0h-0.001l-0.001,0
				c-0.001,0-0.001,0-0.001,0c-0.001,0-0.001,0-0.002,0h-0.001c-0.001,0-0.001,0-0.001,0c-0.001,0-0.001,0-0.002,0c0,0,0,0-0.001,0
				h-0.001C30.397,70.169,30.397,70.169,30.396,70.169c0,0-0.001,0-0.002,0C30.396,70.169,30.396,70.169,30.396,70.169
				 M173.439,77.555c-2.061,0-4.253-0.211-6.543-0.63c-0.155,0.552-0.374,1.093-0.657,1.615c-1.364,2.513-3.988,4.074-6.847,4.074
				c-0.513,0-1.025-0.05-1.511-0.147c-4.094-0.809-7.647-2.247-10.811-4.07c0.207,0.627,0.413,1.253,0.619,1.877l0.119,0.363
				c1.049,3.185,2.134,6.477,3.209,9.577c0.532,1.537,0.57,3.172,0.128,4.701c2.2,3.203,3.173,7.01,2.813,10.664
				c1.58-1.107,3.266-2.25,5.093-3.272c-0.271-0.92-0.676-1.951-1.186-3.218c-0.633-1.558-1.42-3.497-1.935-5.576
				c-1.027-4.013,1.117-8.137,4.988-9.604c0.077-0.029,0.158-0.058,0.245-0.088c0.854-0.291,1.739-0.438,2.631-0.438
				c3.026,0,5.784,1.671,7.218,4.4c1.124,2.181,3.095,5.772,4.981,9.139c2.318-0.469,4.608-0.827,6.753-1.111
				c0.201-3.21,0.316-6.625,0.43-9.978l0.003-0.076c0.122-3.603,0.243-7.068,0.458-10.284
				C180.625,76.849,177.201,77.555,173.439,77.555 M250.925,108.089c0.025-0.014,0.049-0.03,0.073-0.044l0.028-0.016
				c0.168-0.104,0.337-0.202,0.475-0.273c0.264-0.14,0.541-0.269,0.822-0.394l0.054-0.025c0.185-0.091,0.372-0.179,0.586-0.267
				c0.241-0.098,0.492-0.187,0.745-0.273l0.096-0.032l0.057-0.021c0.198-0.075,0.398-0.146,0.601-0.208
				c0.235-0.072,0.483-0.135,0.733-0.193l0.094-0.022l0.103-0.027c0.237-0.063,0.476-0.123,0.726-0.173
				c0.202-0.041,0.413-0.074,0.626-0.103l0.037-0.005l0.129-0.022c0.303-0.051,0.605-0.1,0.923-0.133
				c0.174-0.019,0.357-0.031,0.578-0.042l0.098-0.008c0.292-0.023,0.651-0.053,1.073-0.062c0.069-0.002,0.14-0.003,0.211-0.003
				l0.64,0.001l0.211,0.048c0.18,0.02,0.358,0.046,0.535,0.079c0.195,0.035,0.392,0.081,0.572,0.13l0.025,0.007l0.025,0.006
				c0.168,0.045,0.427,0.119,0.728,0.232l0.032,0.012l0.032,0.012c0.181,0.07,0.36,0.147,0.534,0.23
				c0.223,0.105,0.446,0.226,0.666,0.357l0.015,0.008l0.036,0.022c0.162,0.098,0.321,0.201,0.473,0.31
				c0.266,0.189,0.464,0.361,0.574,0.457c0.118,0.099,0.285,0.245,0.447,0.412c0.315,0.319,0.605,0.671,0.849,1.024
				c0.099,0.143,0.19,0.288,0.279,0.439l0.011,0.018l0.053,0.091c0.065,0.113,0.196,0.34,0.334,0.642
				c0.097,0.21,0.168,0.393,0.215,0.519c0.038,0.096,0.088,0.23,0.139,0.39c0.067,0.208,0.122,0.418,0.167,0.636
				c0.032,0.144,0.061,0.285,0.084,0.427c0.042,0.25,0.065,0.469,0.079,0.649c0.018,0.161,0.034,0.38,0.034,0.632l-0.003,0.691
				l-0.06,0.246c-0.037,0.303-0.092,0.605-0.165,0.905l-0.022,0.092l-0.025,0.092c-0.029,0.106-0.061,0.21-0.094,0.314
				c-0.172,0.549-0.386,1.044-0.653,1.515l-0.022,0.038l-0.004,0.008l-0.006,0.009l-0.091,0.159l-0.068,0.1
				c-0.247,0.388-0.533,0.757-0.852,1.102c-0.056,0.062-0.111,0.12-0.168,0.179l-0.064,0.067l-0.066,0.064
				c-0.396,0.386-0.805,0.71-1.287,1.019c-0.055,0.035-0.107,0.072-0.16,0.108l-0.086,0.059l-0.001,0l-0.104,0.071
				c-0.039,0.029-0.077,0.06-0.115,0.089l-0.06,0.046l-0.024,0.019l-0.024,0.019l-0.072,0.054l-0.047,0.042l-0.091,0.079
				l-0.133,0.114l-0.01,0.01l-0.12,0.118l-0.095,0.092l-0.007,0.007l-0.096,0.107l-0.1,0.109l-0.003,0.003l-0.065,0.083
				l-0.055,0.067c0.456,0.093,1.084,0.168,1.906,0.168c0.49,0,1.026-0.028,1.589-0.082c5.133-0.498,10.706-4.661,15.483-9.679
				c-1.483,0.34-2.962,0.518-4.365,0.518c-3.13,0-6.054-0.777-8.451-2.246c-8.882-5.435-8.662-16.137-8.485-24.748
				c0.065-3.109,0.133-6.312-0.224-8.78c-0.845,2.582-1.776,5.319-2.784,8.279l-0.024,0.072l-0.085,0.247
				c-0.486,1.43-0.988,2.899-1.497,4.409c-0.414,1.228-0.852,3.208-1.314,5.304l-0.012,0.052c-0.909,4.123-1.942,8.751-3.766,12.78
				C250.603,107.835,250.763,107.963,250.925,108.089 M105.811,112.759c-1.434,0-2.883-0.188-4.308-0.532
				c3.677,4.04,7.854,7.343,12.529,9.138c1.173,0.45,2.541,0.688,3.954,0.688c1.158,0,2.183-0.159,3.034-0.389
				c-0.163-0.17-0.348-0.358-0.555-0.565c-0.998-0.996-2.13-2.124-2.928-3.676c-1.444-2.797-1.072-6.163,0.942-8.57
				c1.484-1.777,3.663-2.796,5.979-2.796c0.758,0,1.509,0.113,2.246,0.333c-2.301-4.323-3.907-9.353-5.421-14.356
				c0.145,6.166-0.862,12.376-5.2,16.657C113.427,111.314,109.778,112.759,105.811,112.759 M102.996,1.927h-0.002
				c-3.979,0-7.668,1.744-10.124,4.784c-2.205,2.733-3.323,6.272-3.323,10.519c0,1.707,0.504,3.371,1.437,4.794
				c-0.508,0.276-0.999,0.548-1.476,0.826C71.09,33.573,50.772,41.935,33.764,45.791c-2.281,0.518-22.465,5.453-28.686,19.174
				c-2.62,5.778-2.318,11.941,0.873,17.823c3.958,7.301,13.168,9.892,19.852,9.892c10.234,0,17.771-5.443,19.201-13.868
				c0.759-4.458-0.236-8.668-2.804-11.91c1.647-0.368,3.328-0.713,4.967-1.049l0.073-0.015c1.846-0.378,3.745-0.769,5.637-1.195
				c3.722,14.717,7.791,26.422,12.777,36.772c8.038,16.683,17.952,28.455,30.312,35.989c0.258,0.157,0.525,0.313,0.803,0.468
				c-1.781,0.542-4.246,0.886-6.636,1.219l-0.164,0.023c-1.578,0.221-3.367,0.472-5.13,0.814c-4.105,0.819-6.889,4.55-6.479,8.68
				c0.396,4.151,3.846,7.285,8.025,7.285c4.027-0.013,8.15-0.022,12.41-0.03c-0.085,1.421,0.045,2.805,0.389,4.128
				c-0.031,0.088-0.062,0.177-0.09,0.267c-1.719,5.359-0.121,11.691,0.216,12.906c0.909,3.255,3.645,5.73,6.969,6.307
				c0.753,0.131,1.513,0.198,2.257,0.198c0.729,0,1.457-0.064,2.166-0.19c1.604,0.432,3.277,0.65,4.977,0.65
				c4.139,0,8.097-1.253,11.252-3.544c1.094,1.03,2.428,1.759,3.906,2.126c1.681,0.418,5.513,1.127,9.211,1.127
				c7.22,0,10.758-2.814,12.49-5.625c3.873,4.005,9.252,6.36,14.66,6.36c3.885,0,7.397-1.157,10.215-3.355
				c0.695,0.521,1.46,0.933,2.283,1.23c3.203,1.158,6.653,1.746,10.254,1.746c5.251,0,10.439-1.283,14.712-3.626
				c1.319,1.38,3.038,2.294,4.922,2.603c2.001,0.326,4.573,0.506,7.245,0.506c2.67,0,5.24-0.179,7.237-0.505
				c1.472-0.241,2.846-0.851,4.017-1.774c3.086,1.909,6.721,2.915,10.564,2.915c4.176,0,8.369-1.226,11.908-3.468
				c1.652,1.763,3.938,2.757,6.398,2.757c0.094,0,0.188-0.001,0.282-0.004c0.201-0.005,0.412-0.008,0.63-0.008
				c0.79,0,1.693,0.033,2.65,0.067l0.102,0.004c1.14,0.042,2.316,0.085,3.541,0.085c1.684,0,4.816,0,8.039-1.038
				c4.752-1.531,8.135-4.873,9.525-9.41c1.199-3.9,0.96-7.604-0.688-10.733c0.136-1.01,0.174-1.991,0.176-2.853
				c4.796-0.039,9.489-0.083,14.194-0.133c4.225-0.023,7.736-3.358,7.99-7.593l0.001-0.009l0.003-0.056
				c0.183-4.225-2.929-7.893-7.082-8.395c-3.156-0.383-6.562-0.728-10.148-1.028c0.102-0.05,0.202-0.101,0.301-0.152
				c25.953-13.366,35.485-45.044,43.795-73.186c2.066,0.445,4.186,0.844,6.412,1.263c1.2,0.226,2.495,0.469,3.799,0.727
				c-1.45,1.792-2.982,4.653-2.979,8.738c0,0.577,0.031,1.167,0.094,1.753c1.132,10.484,11.71,15.259,21.059,15.259
				c7.491,0,13.762-2.786,17.203-7.643c2.967-4.189,3.999-9.403,2.907-14.683c-1.635-7.911-7.966-15.385-13.375-18.679
				c-7.883-4.798-18.029-7.494-27.841-10.101c-8.821-2.344-17.943-4.768-23.637-8.382c-1.408-0.895-3.036-1.369-4.709-1.369
				c-1.548,0-3.044,0.4-4.373,1.166c-0.579-0.627-1.17-1.234-1.762-1.812c-2.525-2.466-6.026-4.569-9.734-6.796
				c-0.588-0.354-1.301-0.782-2.063-1.25c1.453-1.651,2.233-3.791,2.173-6.044c-0.031-1.14-0.15-2.246-0.355-3.287
				c-1.592-8.124-8.055-11.761-13.754-11.761c-0.269,0-0.541,0.014-0.812,0.035l-0.059,0.004l-0.025,0
				c-0.285,0.011-0.571,0.029-0.861,0.063c-0.23,0.025-0.504,0.07-0.775,0.122l-0.043,0.008c-0.298,0.045-0.574,0.093-0.852,0.155
				l-0.056,0.013l-0.054,0.013c-0.135,0.033-0.261,0.067-0.386,0.104c-3.047,0.78-6.003,2.497-8.291,4.827
				c-2.843,2.896-4.57,6.515-4.996,10.465c-0.083,0.78-0.118,1.484-0.105,2.154c0.009,0.486,0.035,0.986,0.08,1.483
				c0.202,2.461,0.794,4.73,1.802,6.885c-0.736,0.004-1.48,0.049-2.221,0.134c-0.526-0.486-1.112-0.907-1.746-1.255
				c-1.302-0.711-2.766-1.086-4.234-1.086c-1.456,0-2.902,0.366-4.185,1.06c-4.558-6.896-13.841-11.056-26.935-12.049
				c-0.986-0.075-1.986-0.113-2.971-0.113c-14.725,0-24.103,7.959-28.752,13.329c-2.63-3.033-5.897-5.662-9.729-7.825
				c-6.957-3.931-15.398-6.095-23.768-6.095c-7.015,0-13.799,1.533-19.619,4.433c-6.078,3.029-9.721,7.989-10.612,14.411
				c-3.638-2.24-7.246-3.332-10.987-3.332c-0.09,0-0.181,0.001-0.271,0.002c0.022-0.038,0.045-0.076,0.066-0.115
				c3.413-5.981,3.431-13.03,0.049-18.856C114.7,5.577,108.818,1.927,102.996,1.927L102.996,1.927z M78.396,54.626
				c1.864-1.091,5.697-2.647,7.019-3.183c2.433-0.99,4.729-1.924,6.566-2.967c1.661-0.944,3.612-1.92,5.678-2.953
				c2.359-1.18,4.775-2.388,7.141-3.729c0.104,0.564,0.265,1.121,0.479,1.657c-2.906,1.318-5.434,3.228-7.523,5.688
				c-4.378,5.153-6.135,11.985-4.945,19.237c0.7,4.269,2.715,8.215,4.664,12.031c2.016,3.947,4.29,8.399,3.625,10.993
				c-0.104,0.055-0.232,0.113-0.363,0.158c-1.599-1.427-3.705-2.236-5.859-2.236c-1.582,0-3.137,0.428-4.496,1.237
				c-0.354,0.211-0.695,0.45-1.019,0.713c-2.837-6.06-4.74-11.42-5.651-14.173l-0.512-1.538l-0.033-0.096
				C81.843,71.52,77.896,59.738,78.396,54.626L78.396,54.626z M161.706,44.948c0.146-0.124,0.824-0.51,2.052-0.51
				c1.431,0,2.483,0.553,2.842,0.924c1.642,1.707,3.947,2.687,6.326,2.687c0.252,0,0.503-0.011,0.754-0.033
				c-0.211,1.644-0.894,1.96-1.304,2.149l-0.554,0.257c-0.896,0.418-2.396,1.118-2.848,1.143c-0.173,0.01-0.34,0.014-0.504,0.014
				c-3.202,0-5.779-1.9-6.566-4.841C161.621,45.681,161.66,45.11,161.706,44.948L161.706,44.948z M211.318,48.994
				c1.985,0,3.934-0.683,5.485-1.922c0.929-0.741,3.47-1.813,5.636-1.813c0.073,0,0.142,0.001,0.203,0.003
				c0.274,1.19,0.001,2.382-0.827,3.626c-1.401,2.107-4.071,3.696-6.21,3.696c-0.143,0-0.287-0.008-0.43-0.025
				c-1.109-0.132-2.492-0.597-4.109-1.382c-0.511-0.248-1.088-0.529-1.033-2.276C210.457,48.963,210.887,48.994,211.318,48.994
				L211.318,48.994z M279.868,75.725c6.847-6.206,8.368-15.379,7.413-22.959c6.098,6.552,10.209,13.397,10.943,23.628
				c0.271,3.773-1.272,9.073-4.59,15.768c-0.277-0.303-0.572-0.584-0.885-0.842c-1.571-1.289-3.554-1.999-5.584-1.999
				c-1.473,0-2.936,0.375-4.229,1.084c-0.604,0.332-1.1,0.565-1.497,0.729c-0.071-0.212-0.146-0.459-0.223-0.745
				c-0.933-3.468-1.121-8.554-1.288-13.042l-0.005-0.129l-0.012-0.327C279.897,76.497,279.883,76.108,279.868,75.725L279.868,75.725
				z M211.33,79.299c2.389,0,4.83-0.257,8.164-0.86c4.247-0.771,8.518-2.961,12.321-6.276c-0.999,3.13-1.986,6.243-2.964,9.322
				l-0.114,0.36l-0.042,0.131l-1.373,4.326c-1.108-1.611-2.721-2.826-4.656-3.462c-0.076-0.025-0.182-0.059-0.286-0.09
				c-0.84-0.245-1.701-0.368-2.563-0.368c-3.301,0-6.352,1.791-7.96,4.674c-1.074,1.938-2.085,4.026-2.688,5.274
				c-0.559,1.145-1.125,2.308-1.703,3.404c-1.772-0.309-3.55-0.571-5.354-0.826c-0.249-5.334-0.474-11.05-0.683-17.404
				C204.667,78.725,207.852,79.299,211.33,79.299L211.33,79.299z M173.439,78.555c3.278,0,6.333-0.52,9.104-1.548
				c-0.164,2.897-0.268,5.961-0.361,8.716l-0.002,0.072c-0.104,3.05-0.209,6.18-0.38,9.136c-1.884,0.262-3.626,0.548-5.285,0.87
				c-1.96-3.507-3.666-6.642-4.611-8.476c-1.589-3.026-4.656-4.911-8.022-4.942c1.339-0.795,2.466-1.946,3.237-3.366
				c0.169-0.312,0.319-0.633,0.45-0.961C169.61,78.387,171.581,78.555,173.439,78.555L173.439,78.555z M152.227,94.731
				c0.372-1.604,0.283-3.27-0.263-4.846c-1.07-3.085-2.18-6.45-3.162-9.434c2.836,1.393,5.764,2.378,8.886,2.995
				c0.497,0.1,1.013,0.155,1.534,0.165c-3.484,2.016-5.285,6.135-4.258,10.148c0.53,2.144,1.333,4.118,1.977,5.705
				c0.36,0.895,0.67,1.675,0.913,2.376c-0.986,0.578-1.928,1.184-2.826,1.788C154.942,100.514,153.978,97.427,152.227,94.731
				L152.227,94.731z M252.081,106.369c1.445-3.741,2.348-7.833,3.093-11.211l0.011-0.046c0.458-2.074,0.89-4.027,1.286-5.205
				c0.395-1.169,0.783-2.313,1.165-3.434l0.331-0.973l0.084-0.244l0.025-0.075c0.38-1.115,0.752-2.207,1.113-3.274
				c-0.003,1.128-0.027,2.287-0.052,3.432c-0.131,6.399-0.285,13.93,3.169,19.779c-0.094-0.028-0.177-0.051-0.246-0.07l-0.051-0.013
				c-0.207-0.056-0.432-0.108-0.656-0.149c-0.177-0.033-0.359-0.06-0.544-0.082l-0.157-0.036l-0.109-0.025h-0.11l-0.64-0.001
				c-0.083,0-0.162,0.001-0.241,0.003c-0.432,0.01-0.805,0.04-1.109,0.064l-0.112,0.009c-0.215,0.011-0.417,0.024-0.607,0.045
				c-0.336,0.036-0.658,0.087-0.981,0.142l-0.13,0.022c-0.239,0.032-0.47,0.069-0.691,0.113c-0.271,0.055-0.53,0.119-0.787,0.188
				l-0.098,0.026l-0.074,0.017c-0.267,0.062-0.536,0.131-0.792,0.209c-0.224,0.069-0.443,0.146-0.661,0.228l-0.052,0.02
				l-0.067,0.022c-0.274,0.093-0.543,0.189-0.803,0.294C252.403,106.219,252.239,106.293,252.081,106.369L252.081,106.369z
				 M118.547,107.342c1.836-2.562,2.989-5.756,3.479-9.643c0.853,2.533,1.796,5.034,2.9,7.37c-0.156-0.008-0.312-0.013-0.467-0.013
				C122.252,105.057,120.154,105.877,118.547,107.342L118.547,107.342z M105.811,113.759c4.232,0,8.131-1.547,10.977-4.357
				c0.074-0.074,0.148-0.148,0.222-0.224c-1.64,2.607-1.804,5.907-0.359,8.704c0.657,1.278,1.499,2.269,2.324,3.129
				c-0.324,0.028-0.653,0.042-0.987,0.042c-1.292,0-2.535-0.215-3.596-0.622c-3.42-1.312-6.798-3.573-10.071-6.734
				C104.821,113.738,105.318,113.759,105.811,113.759L105.811,113.759z M268.503,114.65l0.046-0.191l0.027-0.114l0.001-0.117
				l0.003-0.691c0-0.253-0.014-0.502-0.04-0.746c-0.016-0.213-0.046-0.462-0.087-0.707c-0.026-0.157-0.059-0.316-0.095-0.479
				c-0.039-0.193-0.088-0.387-0.146-0.578c2.534,1.521,5.595,2.325,8.861,2.325c0.488,0,0.984-0.02,1.486-0.06
				c-3.615,3.41-8.246,6.793-12.701,7.226c-0.282,0.027-0.556,0.047-0.818,0.06c0.305-0.229,0.59-0.474,0.872-0.748l0.065-0.064
				l0.088-0.09c0.063-0.065,0.127-0.132,0.189-0.202c0.354-0.382,0.676-0.8,0.953-1.235l0.052-0.074l0.022-0.033l0.02-0.035
				l0.091-0.159l0.004-0.008l0.003-0.005l0.026-0.044c0.304-0.534,0.545-1.093,0.738-1.71c0.035-0.11,0.071-0.228,0.104-0.347
				l0.025-0.092l0.03-0.122C268.4,115.298,268.461,114.975,268.503,114.65L268.503,114.65z"/>
		</g>
	</g>
	<g>
		
			<path fill-rule="evenodd" clip-rule="evenodd" fill="#0A9995" stroke="#FFFFFF" stroke-linecap="round" stroke-linejoin="round" stroke-miterlimit="10" d="
			M284.643,17.365c-0.574-5.681-8.893-3.647-9.129,1.575c-0.334,7.412,16.104,13.395,21.402,18.568
			c7.471,7.294,10.131,15.604,15.42,21.399c1.828-6.818,1.314-14.646-3.146-18.253c13.502,8.568,37.838,10.185,51.613,18.568
			c4.889,2.976,13.203,13.243,7.869,20.772c-4.514,6.367-21.449,4.858-22.346-3.463c-0.73-6.784,7.326-7.294,11.645-3.463
			c-2.164,0.733-6.23,0.29-7.24,3.463c4.277,8.733,16.709,2.052,13.848-5.98c-4.461-12.53-28.006-11.573-40.283-16.365
			c-8.496,28.104-16.816,63.268-41.857,76.163c-9.92,5.107-33.574,6.872-33.043-9.128c2.195-3.888,4.42-7.747,10.385-7.867
			c-8.758,5.514-7.641,17.149,6.922,15.735c12.936-1.255,25.5-16.518,31.16-26.437c3.648-6.395,9.799-17.682,9.125-27.066
			c-1.49-20.766-11.533-33.434-27.066-42.172c-2.98-4.657-9.006-6.716-9.125-13.532C270.635,10.983,284.342,6.221,284.643,17.365z"
			/>
		<g>
			
				<path fill-rule="evenodd" clip-rule="evenodd" fill="#0A9995" stroke="#FFFFFF" stroke-linecap="round" stroke-linejoin="round" stroke-miterlimit="10" d="
				M186.764,116.188c-0.93-1.575-1.854-3.962,0-5.035c-2.357,0.682-1.939-1.416-2.83-2.202c0,0.732,0,1.467,0,2.202
				c-0.645,0.51-2.064,0.246-2.52,0.945c0.936,0.115,1.555,0.545,1.891,1.258c0.42,1.383-0.943,2.602,0,3.462
				C183.834,113.002,185.693,115.583,186.764,116.188z"/>
			
				<path fill-rule="evenodd" clip-rule="evenodd" fill="#0A9995" stroke="#FFFFFF" stroke-linecap="round" stroke-linejoin="round" stroke-miterlimit="10" d="
				M200.928,116.817c-0.873-1.964-0.762-4.226,0.945-5.035c-2.291,0.505-1.873-1.695-2.518-2.832
				c-0.217,1.56-0.396,3.027-2.205,2.202c1.885,1.457-0.217,3.775,0.314,5.351c0.242-1.017,0.873-1.646,1.891-1.888
				C199.754,115.278,200.471,117.253,200.928,116.817z"/>
			
				<path fill-rule="evenodd" clip-rule="evenodd" fill="#0A9995" stroke="#FFFFFF" stroke-linecap="round" stroke-linejoin="round" stroke-miterlimit="10" d="
				M170.086,120.908c-1.734-1.187-2.262-2.895-1.889-4.721c-0.273,0.461-0.471,0.997-1.258,0.945
				c-0.367-0.579-0.824-1.065-1.262-1.575c-0.246,1.296,0.484,1.616,0.314,2.833c-0.973,0.074-1.221,0.876-1.887,1.26
				c0.994-0.052,1.9-0.013,2.203,0.628c0.074,1.29,0.152,2.573,0.631,3.462c0.186-1.28,0.141-2.794,0.943-3.462
				C168.287,120.634,169.926,121.349,170.086,120.908z"/>
			
				<path fill-rule="evenodd" clip-rule="evenodd" fill="#0A9995" stroke="#FFFFFF" stroke-linecap="round" stroke-linejoin="round" stroke-miterlimit="10" d="
				M215.09,116.817c1.617,1.752-0.773,3.184-1.574,4.405c1.074-0.079,1.512-0.796,2.834-0.63c0.105,3.583,0.959,3.187,0.941-0.314
				c0.547-0.505,1.947-0.151,2.203-0.943c-2.117,0.142-1.299-2.938-1.572-3.777C217.535,117.389,215.965,116.831,215.09,116.817z"/>
			
				<path fill-rule="evenodd" clip-rule="evenodd" fill="#0A9995" stroke="#FFFFFF" stroke-linecap="round" stroke-linejoin="round" stroke-miterlimit="10" d="
				M150.258,130.663c-0.555,0.812-1.248,1.48-1.887,2.205c0.992,0.154,1.109-0.568,2.201-0.314c0.998,3.476,1.006,4.219,1.891,0.314
				c1.098-0.442,2.012,0.881,2.518,0c-1.379-0.406-1.98-1.587-2.834-2.518c0.275-0.286,0.902-1.776,0.316-1.89
				c-0.287,0.556-0.705,0.976-1.262,1.26c-0.391-0.658-0.914-1.183-1.572-1.575C149.797,129.029,150.092,129.782,150.258,130.663z"
				/>
			
				<path fill-rule="evenodd" clip-rule="evenodd" fill="#0A9995" stroke="#FFFFFF" stroke-linecap="round" stroke-linejoin="round" stroke-miterlimit="10" d="
				M231.453,130.979c-1.268,0.308-1.771,1.375-2.516,2.205c1.217,0.166,1.535-0.563,2.832-0.315c0,0.943,0,1.888,0,2.833
				c1.271-0.302,0.416-2.73,1.574-3.147c0.805-0.343,1.498,0.955,1.889,0c-0.764-0.497-1.395-1.127-1.889-1.891
				c0.271-0.387,1.002-1.893,0.312-2.202c-0.404,0.54-0.65,1.236-1.572,1.26c-0.285-0.556-0.705-0.976-1.258-1.26
				C230.992,129.345,231.287,130.098,231.453,130.979z"/>
		</g>
		<path fill="#0A9995" stroke="#FFFFFF" stroke-linecap="round" stroke-linejoin="round" stroke-miterlimit="10" d="
			M295.381,147.019c-18.391-2.23-39.596-2.518-56.014-2.518v0.328l-0.002-0.328c-8.16,0-16.527,0.08-24.619,0.156
			c-7.99,0.077-16.254,0.156-24.205,0.156H99.904c-0.037,0-0.074,0.005-0.107,0.019c-2.541,0.891-5.625,1.321-8.605,1.736
			c-1.625,0.228-3.303,0.461-4.883,0.768c-0.166,0.033-0.281,0.186-0.264,0.354c0.016,0.17,0.156,0.298,0.324,0.298c0,0,0,0,0.004,0
			c10.064-0.031,20.799-0.046,32.809-0.046c15.602,0,31.229,0.025,46.857,0.048c15.631,0.025,31.264,0.051,46.867,0.051
			c33.115,0,58.541-0.114,82.439-0.368c0.174,0,0.314-0.136,0.326-0.31C295.678,147.19,295.553,147.04,295.381,147.019z
			 M245.742,144.85"/>
		<g>
			
				<path fill-rule="evenodd" clip-rule="evenodd" fill="#0A9995" stroke="#FFFFFF" stroke-linecap="round" stroke-linejoin="round" stroke-miterlimit="10" d="
				M112.49,154.896c4.268-5.847,6.426,3.13,10.387,3.464c0.516-1.847,0.516-5.707,0-7.553c-1.186-0.956-2.311,0.25-3.459,0.314
				c-4.705-2.277-10.174-0.228-11.332,2.833c-3.617,9.568,12.25,6.379,11.332,12.272c-1.148,7.349-10.217-3.509-10.074-3.462
				c-0.73-0.233-0.99,0.201-1.887,0c-0.723,2.253-0.242,5.859,0.316,7.867c1.52,0.264,2.223-0.292,3.146-0.63
				c7.029,3.749,17.053-2.241,12.273-8.811C120.779,157.876,114.221,159.436,112.49,154.896z"/>
			
				<path fill-rule="evenodd" clip-rule="evenodd" fill="#0A9995" stroke="#FFFFFF" stroke-linecap="round" stroke-linejoin="round" stroke-miterlimit="10" d="
				M237.119,150.492c-7.539,1.285-12.826,9.42-7.238,16.681c6.684,8.682,22.451,2.771,21.086-8.184
				C250.178,152.666,244.135,149.296,237.119,150.492z M242.785,167.485c-9.049,5.322-13.471-12.324-4.721-14.16
				C245.91,151.678,247.943,164.453,242.785,167.485z"/>
			
				<path fill-rule="evenodd" clip-rule="evenodd" fill="#0A9995" stroke="#FFFFFF" stroke-linecap="round" stroke-linejoin="round" stroke-miterlimit="10" d="
				M261.668,154.896c4.291-5.844,6.574,2.956,10.385,3.464c0.695-1.93,0.135-5.113,0.314-7.553
				c-5.773-0.634-15.133-1.565-15.42,5.035c-0.35,8.052,10.586,3.854,11.645,11.015c-5.738,4.789-7.484-3.608-11.959-4.092
				c-0.025,1.8-0.223,5.67,0.314,7.867c5.934-0.177,14.604,1.654,16.363-4.091C275.801,158.43,264.545,159.917,261.668,154.896z"/>
			
				<path fill-rule="evenodd" clip-rule="evenodd" fill="#0A9995" stroke="#FFFFFF" stroke-linecap="round" stroke-linejoin="round" stroke-miterlimit="10" d="
				M149.314,150.808c-6.684,0.419-25.908-4.178-20.143,6.607c3.656-0.121,2.375-5.176,7.24-4.09c0,4.72,0,9.44,0,14.16
				c-0.83,0.747-3.363-0.215-3.463,1.26c0,0.42,0,0.84,0,1.258c2.604,0.647,11.148,1.97,12.273-0.943
				c-0.182-1.705-3.012-0.763-3.775-1.887c0.395-4.434-0.807-10.458,0.627-13.848c4.283-0.718,3.07,4.063,6.609,4.09
				C149.988,156.306,149.012,152.92,149.314,150.808z"/>
			
				<path fill-rule="evenodd" clip-rule="evenodd" fill="#0A9995" stroke="#FFFFFF" stroke-linecap="round" stroke-linejoin="round" stroke-miterlimit="10" d="
				M167.254,152.379c0.281,1.609,3.346,0.431,3.775,1.888c1.207,6.839,1.139,16.589-7.869,13.219
				c-2.779-2.358-1.129-9.148-1.572-13.846c1.117-0.562,3.416,0.059,3.148-1.891c-1.164-1.637-11.318-2.912-11.018,0.945
				c0.26,1.209,2.844,0.095,2.834,1.572c-5.721,15.841,14.76,23.117,17.938,11.961c1.127-3.957-0.238-8.631,0.314-12.272
				c0.84-1.053,3.832,0.053,3.465-2.206C177.127,149.911,167.443,149.201,167.254,152.379z"/>
			
				<path fill-rule="evenodd" clip-rule="evenodd" fill="#0A9995" stroke="#FFFFFF" stroke-linecap="round" stroke-linejoin="round" stroke-miterlimit="10" d="
				M183.934,150.492c-0.373,0.153-0.715,0.335-0.945,0.63c-0.1,0.425-0.447,0.6-0.314,1.257c0.145,1.537,3.004,0.354,3.148,1.888
				c0,4.408,0,8.813,0,13.219c-1.119,0.771-3.805-0.025-3.148,2.518c12.369,4.472,29.686-3.947,21.4-15.106
				C200.578,150.189,192.809,150.361,183.934,150.492z M190.855,167.485c0-4.72,0-9.44,0-14.16
				C202.996,150.641,203.264,171.362,190.855,167.485z"/>
			
				<path fill-rule="evenodd" clip-rule="evenodd" fill="#0A9995" stroke="#FFFFFF" stroke-linecap="round" stroke-linejoin="round" stroke-miterlimit="10" d="
				M219.18,166.857c0.199-4.312-0.406-9.428,0.314-13.218c0.574-0.687,2.574,0.057,3.148-0.63c0.752-3.947-12.41-4.017-11.645,0
				c0.771,0.592,2.645,0.082,3.146,0.945c0,4.614,0,9.23,0,13.846c-2.08-0.192-3.635,0.14-3.146,2.517
				c3.176,0.521,8.469,0.521,11.645,0C223.609,167.042,219.746,168.6,219.18,166.857z"/>
		</g>
		<path fill="#0A9995" stroke="#FFFFFF" stroke-linecap="round" stroke-linejoin="round" stroke-miterlimit="10" d="
			M276.469,141.666c-13.953-0.505-32.918-8.137-35.539-16.853c-1.072-3.575,0.674-7.022,5.191-10.247
			c0.129-0.092,0.174-0.261,0.107-0.404c-0.053-0.118-0.172-0.189-0.297-0.189c-0.027,0-0.053,0.002-0.078,0.01
			c-1.648,0.412-3.125,1.435-4.557,2.426c-1.711,1.183-3.328,2.3-5.064,2.3c-0.113,0-0.229-0.006-0.342-0.016
			c-2.494-0.215-5.881-3.104-9.16-5.898c-3.504-2.986-7.123-6.072-10.082-6.356c-0.338-3.968,0.867-7.054,1.932-9.786
			c0.701-1.801,1.365-3.504,1.557-5.292c0.016-0.156-0.078-0.299-0.227-0.349c-0.033-0.009-0.066-0.015-0.102-0.015
			c-0.115,0-0.227,0.064-0.285,0.169c-0.867,1.562-1.674,3.217-2.451,4.82c-1.613,3.312-3.281,6.738-5.559,9.442
			c-3.717-1.024-7.928-1.613-12.002-2.184c-1.926-0.27-3.912-0.549-5.826-0.869c-0.494-9.122-0.889-18.947-1.242-30.888
			c-0.004-0.171-0.143-0.31-0.314-0.317c-0.006,0-0.012,0-0.014,0c-0.166,0-0.307,0.123-0.326,0.289
			c-0.482,4.178-0.652,9.185-0.832,14.483c-0.193,5.742-0.396,11.68-1.023,16.725c-5.674,0.549-12.18,1.345-17.807,3.059
			c-2.518-4.372-6.26-11.09-8.045-14.551c-0.059-0.111-0.172-0.179-0.291-0.179c-0.039,0-0.076,0.008-0.115,0.021
			c-0.156,0.059-0.244,0.226-0.203,0.387c0.389,1.567,1.006,3.1,1.605,4.579c1.338,3.319,2.721,6.749,1.891,11.136
			c-3.434,1.046-6.58,3.271-9.625,5.422c-3.9,2.762-7.586,5.369-11.561,5.369c-2.264,0-4.441-0.854-6.652-2.607
			c-0.059-0.049-0.129-0.072-0.201-0.072c-0.096,0-0.188,0.042-0.254,0.118c-0.113,0.139-0.098,0.341,0.037,0.456
			c3.992,3.506,5.375,7.045,4.104,10.528c-3.293,9.036-23.279,15.403-35.051,15.648c-0.18,0.006-0.324,0.152-0.32,0.334
			c0,0.179,0.145,0.322,0.328,0.322h67.348c0.168,0,0.311-0.128,0.324-0.297c0.705-7.742,9.107-11.27,16.619-11.27
			c7.443,0,15.752,3.524,16.404,11.267c0.012,0.169,0.156,0.3,0.324,0.3c0.004,0,0.004,0,0.004,0
			c3.266-0.03,6.762-0.044,10.688-0.044c5.055,0,10.135,0.023,15.215,0.05c5.08,0.022,10.162,0.048,15.217,0.048
			c10.77,0,18.957-0.115,26.553-0.368c0.178-0.006,0.318-0.151,0.318-0.328S276.646,141.674,276.469,141.666z M194.156,111.184
			c-0.023-1.471-0.047-2.984-0.121-4.431c0.217-0.006,0.436-0.006,0.648-0.006c4.139,0,7.645,0.71,11.037,1.398
			c1.26,0.256,2.559,0.521,3.881,0.746c-1.246,3.163-2.924,5.975-4.549,8.697c-1.662,2.784-3.381,5.663-4.65,8.933
			C194.365,125.479,194.264,118.531,194.156,111.184z M182.016,129.941c-0.852,0-1.473-0.306-1.695-0.833
			c-0.205-0.476-0.051-1.072,0.396-1.58c0.104-0.018,0.203-0.025,0.297-0.025c0.742,0,1.084,0.481,1.219,0.771
			c0.254,0.538,0.203,1.188-0.119,1.665C182.08,129.938,182.049,129.941,182.016,129.941z M174.822,109.047
			c3.984-0.993,8.504-2.123,12.998-2.123c0.809,0,1.598,0.038,2.354,0.113c-0.225,1.798-0.312,3.749-0.396,5.642
			c-0.289,6.462-0.562,12.57-5.695,13.838c-3.605-5.553-6.789-11.602-9.74-17.35L174.822,109.047z M191.297,128.141
			c-1.52-1.268-0.916-2.648-0.156-4.39c0.326-0.753,0.686-1.57,0.869-2.437c0.383,0.958,0.74,1.947,1.09,2.913
			c0.287,0.794,0.574,1.587,0.875,2.366c-0.291,1.045-1.08,1.552-2.408,1.552C191.479,128.146,191.389,128.146,191.297,128.141z
			 M173.879,136.912c-0.232,0.052-0.449,0.077-0.641,0.077c-0.773,0-1.127-0.402-1.537-0.865c-0.1-0.115-0.199-0.229-0.305-0.336
			c0.088-0.515,0.473-0.848,1.811-0.848c0.219,0,0.443,0.008,0.672,0.021V136.912z M149.682,123.262
			c2.047,1.642,4.521,3.058,6.92,4.428c4.953,2.836,10.07,5.764,11.779,10.829h-26.246
			C143.064,131.867,146.402,127.475,149.682,123.262z M161.336,125.41c-2.898-1.449-5.891-2.948-8.963-4.308
			c3.984-4.475,9.867-7.917,18.453-10.796c0.531,1.479,1.422,3.172,2.359,4.954c2.949,5.611,6.289,11.966,1.551,16.286
			C170.02,129.757,165.605,127.549,161.336,125.41z M204.127,130.445h-1.551c-0.432-0.501-0.281-1.17-0.008-2.11
			c0.047-0.153,0.09-0.302,0.129-0.451h1.43c0.189,0.259,0.309,0.749,0.309,1.281S204.316,130.189,204.127,130.445z
			 M237.891,138.475c-2.033,0-4.094,0.023-6.152,0.049c-2.057,0.023-4.115,0.049-6.146,0.049c-4.127,0-7.25-0.103-10.047-0.33
			c1.896-4.918,6.164-7.351,10.678-9.922c2.609-1.491,5.309-3.027,7.453-5.084c4.225,3.509,6.945,8.646,8.09,15.274
			C240.582,138.485,239.309,138.475,237.891,138.475z M231.541,121.098c-3.92,1.662-7.672,3.564-11.307,5.409
			c-3.373,1.711-6.861,3.48-10.465,5.045c-5.244-3.435-2.285-9.204,0.578-14.788c1.191-2.322,2.324-4.525,2.783-6.457
			C221.277,112.748,227.307,116.279,231.541,121.098z M211.934,135.832c-0.025,0.107-0.059,0.238-0.094,0.399
			c-0.219,0.171-0.658,0.284-1.141,0.284c-0.48,0-0.92-0.113-1.139-0.284c-0.123-0.568-0.037-1.062,0.248-1.43
			c0.264-0.34,0.678-0.535,1.133-0.535c0.318,0,0.629,0.098,0.902,0.281c0.035,0.152,0.064,0.277,0.09,0.38
			C212.047,135.378,212.047,135.378,211.934,135.832z"/>
		<g>
			
				<path fill-rule="evenodd" clip-rule="evenodd" fill="#0A9995" stroke="#FFFFFF" stroke-linecap="round" stroke-linejoin="round" stroke-miterlimit="10" d="
				M111.234,128.461c-17.764-6.818-29.578-29.748-35.879-48.78c-2.424-7.327-7.66-21.843-5.035-29.269
				c1.488-4.217,12.936-7.271,17.311-9.757c7.57-4.302,18.791-8.33,22.658-15.107c6.662-11.674-11.963-22.265-11.959-8.496
				c0.76-4.814,7.803-4.619,8.812,0c1.398,6.406-8.604,10.53-13.219,13.218c-17.6,10.246-39.16,19.596-58.223,23.918
				C24.525,56.722,6.742,65.642,13.67,78.421c3.576,6.595,21.098,7.935,22.66-1.258c1.449-8.523-10.162-9.148-11.328-3.463
				c2.531-2.259,6.912-0.763,6.924,2.203c0.02,6.833-15.736,5.993-14.164-4.091c0.52-3.324,5.225-6.873,8.498-8.812
				c8.76-5.189,22.557-5.688,33.045-9.441c6.729,29.847,17.561,61.735,41.229,76.162c7.943,4.841,29.309,8.188,33.361-2.202
				c2.785-7.153-3.93-12.155-9.441-13.849c0.986,1.916,7.303,5.401,5.033,11.646C125.885,129.457,117.682,130.938,111.234,128.461z"
				/>
		</g>
		
			<path fill-rule="evenodd" clip-rule="evenodd" fill="#0A9995" stroke="#FFFFFF" stroke-linecap="round" stroke-linejoin="round" stroke-miterlimit="10" d="
			M270.795,19.884c0.119,6.816,5.104,9.734,9.125,13.532c12.957,12.237,25.576,21.406,27.066,42.172
			c0.674,9.385-5.477,20.672-9.125,27.066c-5.66,9.919-18.225,25.182-31.16,26.437c-14.562,1.414-15.68-10.222-6.922-15.735
			c-5.965,0.12-8.189,3.979-10.385,7.867c-0.531,16,23.123,14.235,33.043,9.128c25.041-12.896,33.361-48.06,41.857-76.163
			c12.277,4.792,35.822,3.835,40.283,16.365c2.861,8.032-9.57,14.714-13.848,5.98c1.01-3.173,5.076-2.729,7.24-3.463
			c-4.318-3.831-12.375-3.321-11.645,3.463c0.896,8.321,17.832,9.83,22.346,3.463c5.334-7.529-2.98-17.797-7.869-20.772
			c-13.775-8.384-38.111-10-51.613-18.568c4.461,3.607,4.975,11.435,3.146,18.253c-5.289-5.796-7.949-14.105-15.42-21.399
			c-5.299-5.174-21.736-11.156-21.402-18.568c0.236-5.223,8.555-7.256,9.129-1.575C284.342,6.221,270.635,10.983,270.795,19.884z"/>
		<g>
			
				<path fill-rule="evenodd" clip-rule="evenodd" fill="#0A9995" stroke="#FFFFFF" stroke-linecap="round" stroke-linejoin="round" stroke-miterlimit="10" d="
				M120.359,69.295c-2.623,2.306-6.754,3.107-9.756,5.035c-2.941-1.885-3.857-5.793-5.035-9.442
				c2.109-3.767,4.951-8.475,9.125-9.125C118.025,58.83,119.65,63.604,120.359,69.295z M172.918,39.081
				c-6.746-6.994-23.162-3.871-19.514,9.756c1.832,6.837,8.084,11.775,16.053,11.33c2.342-0.131,4.463-1.209,6.609-2.202
				c10.266-4.76,6.943-20.415-0.631-26.437c-9.764-7.76-33.338-5.422-33.361,9.127c-0.02,13.64,9.887,26.373,17.311,33.99
				c-15.012-2.966-21.436-17.142-32.416-25.179c6.979,11.696,11.602,28.475,16.68,43.117c-0.959,2.083-1.666,4.416-1.887,7.238
				c-5.143-12.168-8.217-26.403-13.848-38.081c-3.436,13.34,4.984,27.526,11.008,38.997c1.041,1.985,1.037,4.864,2.84,5.694
				c2.449,1.127,3.469-4.603,2.518-7.868c5.045,6.203-0.494,15.354-7.24,8.81c-7.238-7.018-8.975-25.288-14.162-33.358
				c-3.75,1.706-8.482,2.428-10.701,5.665c0.863,6.907,3.154,18.625-1.572,23.289c-4.57,4.51-14.027-0.192-15.734-5.036
				c4.092,4.523,12.189,1.785,14.162-2.832c4.178-9.789-6.217-20.169-7.555-28.325c-1.646-10.058,5.305-17.474,14.793-16.68
				c3.523,3.714,4.729,9.748,7.238,14.476c3.291-10.28-2.219-21.354-10.07-24.546c12.342-6.483,22.051,14.818,31.785,19.511
				c-3.107-9.394-14.328-26.374-1.574-32.729c17.275-8.608,42.104-0.477,46.58,14.476c3.201,10.706-1.359,22.74-9.441,26.752
				c-4.127,2.046-9.297,1.863-14.479,0.629c-9.84-2.348-16.984-11.321-18.568-22.346C145.166,28.419,169.637,25.118,172.918,39.081z
				"/>
		</g>
		<g>
			
				<path fill-rule="evenodd" clip-rule="evenodd" fill="#0A9995" stroke="#FFFFFF" stroke-linecap="round" stroke-linejoin="round" stroke-miterlimit="10" d="
				M274.258,53.873c-2.564-3.099-5.615-10.438-10.387-9.756c-4.961,0.709-5.99,12.495-6.924,17.624
				c3.17,2.073,7.881,2.608,11.016,4.722C271.891,64.098,273.199,59.111,274.258,53.873z M223.902,23.976
				c-27.928-2.119-43.424,34.709-20.457,44.689c4.92,2.139,8.965,1.944,14.477,0.945c15.621-2.833,28.711-36.083,5.35-38.396
				c-5.887-0.583-12.619,3.123-11.961,8.812c4.5-3.596,16.047-6.588,19.201,0.942c4.516,10.788-6.764,21.281-16.367,20.145
				c-2.385-0.284-4.688-1.12-6.924-2.205c-11.83-5.748-4.209-24.727,6.295-28.639c8.568-3.19,28.469-2.946,28.953,6.609
				c0.301,5.913-6.189,13.505-3.463,18.568c5.133-1.058,7.486-6.57,10.389-8.812c-5.258,15.304-10.139,30.984-15.107,46.579
				c1.756,1.703,1.236,5.686,2.201,8.184c4.582-14.095,8.857-28.493,13.533-42.489c-1.303,16.067-5.809,31.112-12.244,43.247
				c-0.721,1.357-0.828,3.447-2.23,3.962c-2.301,0.84-2.475-4.838-1.891-7.553c-3.369,3.017-1.695,10.818,2.205,11.327
				c8.867,1.166,9.883-15.889,12.273-22.973c2.809-8.323,5.34-15.438,6.922-21.401c3.238,3.156,10.941,2.087,12.275,8.183
				c2.15,9.825-2.48,24.793,5.35,29.584c4.262,2.607,12.637,0.481,14.479-5.351c-17.844,9.787-15.277-15.656-16.365-26.751
				c16.129-7.983,5.594-40.749-12.275-32.731c-2.307,5.981-3.229,13.345-6.295,18.568c-2.33-8.268,3.943-14.608,3.463-22.029
				c-5.15,2.822-8.891,7.057-12.588,11.329C251.662,30.812,238.137,25.056,223.902,23.976z"/>
		</g>
	</g>
</g>
</svg>
