<?xml version="1.0" encoding="utf-8"?>
<!-- Generator: Adobe Illustrator 15.0.0, SVG Export Plug-In . SVG Version: 6.00 Build 0)  -->
<!DOCTYPE svg PUBLIC "-//W3C//DTD SVG 1.1//EN" "http://www.w3.org/Graphics/SVG/1.1/DTD/svg11.dtd">
<svg version="1.1" id="Etsy" xmlns="http://www.w3.org/2000/svg" xmlns:xlink="http://www.w3.org/1999/xlink" x="0px" y="0px"
	 width="22px" height="14px" viewBox="0 0 22 14" enable-background="new 0 0 22 14" xml:space="preserve">
<g display="none">
	<path display="inline" fill="#A30F1D" d="M-732.629,275.63c0,0-0.007-2.454,0.279-3.669c0.307-1.296,2.058-8.711,2.058-8.711
		s-0.515-1.02-0.515-2.527c0-2.371,1.377-4.14,3.088-4.14c1.452,0,2.154,1.091,2.154,2.397c0,1.465-0.931,3.65-1.41,5.674
		c-0.401,1.697,0.847,3.08,2.522,3.08c3.029,0,5.068-3.892,5.068-8.498c0-3.506-2.357-6.127-6.653-6.127
		c-4.847,0-7.87,3.617-7.87,7.654c0,1.396,0.411,2.377,1.055,3.137c0.297,0.35,0.341,0.49,0.231,0.894
		c-0.077,0.292-0.254,0.999-0.327,1.281c-0.105,0.403-0.432,0.55-0.801,0.399c-2.234-0.912-3.275-3.357-3.275-6.106
		c0-4.542,3.831-9.987,11.428-9.987c6.105,0,10.121,4.416,10.121,9.158c0,6.271-3.488,10.955-8.626,10.955
		c-1.727,0-3.35-0.932-3.907-1.99c0,0-0.928,3.684-1.124,4.393c-0.337,1.231-1.607,3.424-1.607,3.424s-0.463,0.546-1.246,0.777
		C-732.357,277.208-732.629,275.63-732.629,275.63z"/>
</g>
<g>
	<polyline fill="none" stroke="#FFFFFF" stroke-width="3.3453" stroke-miterlimit="10" points="-660.986,269.584 -669.001,276.479 
		-677.014,269.584 	"/>
</g>
<g>
	<polyline fill="none" stroke="#FFFFFF" stroke-width="3.6473" stroke-miterlimit="10" points="19.737,2.729 10.999,10.246 
		2.263,2.729 	"/>
</g>
</svg>
