<?xml version="1.0" encoding="utf-8"?>
<!-- Generator: Adobe Illustrator 15.0.0, SVG Export Plug-In . SVG Version: 6.00 Build 0)  -->
<!DOCTYPE svg PUBLIC "-//W3C//DTD SVG 1.1//EN" "http://www.w3.org/Graphics/SVG/1.1/DTD/svg11.dtd">
<svg version="1.1" id="Etsy" xmlns="http://www.w3.org/2000/svg" xmlns:xlink="http://www.w3.org/1999/xlink" x="0px" y="0px"
	 width="12.539px" height="24.621px" viewBox="0 0 12.539 24.621" enable-background="new 0 0 12.539 24.621" xml:space="preserve">
<g display="none">
	<path display="inline" fill="#A30F1D" d="M-732.629,275.63c0,0-0.007-2.455,0.279-3.67c0.307-1.295,2.058-8.711,2.058-8.711
		s-0.515-1.021-0.515-2.526c0-2.371,1.377-4.14,3.088-4.14c1.452,0,2.154,1.09,2.154,2.396c0,1.465-0.931,3.65-1.41,5.674
		c-0.401,1.697,0.847,3.08,2.522,3.08c3.029,0,5.068-3.891,5.068-8.498c0-3.506-2.357-6.127-6.653-6.127
		c-4.847,0-7.87,3.617-7.87,7.654c0,1.396,0.411,2.377,1.055,3.137c0.297,0.351,0.341,0.49,0.231,0.896
		c-0.077,0.291-0.254,0.998-0.327,1.281c-0.105,0.401-0.432,0.549-0.801,0.397c-2.234-0.912-3.275-3.356-3.275-6.104
		c0-4.543,3.831-9.988,11.428-9.988c6.105,0,10.121,4.416,10.121,9.158c0,6.271-3.488,10.955-8.626,10.955
		c-1.727,0-3.35-0.933-3.907-1.99c0,0-0.928,3.685-1.124,4.394c-0.337,1.231-1.607,3.424-1.607,3.424s-0.463,0.547-1.246,0.777
		C-732.357,277.208-732.629,275.63-732.629,275.63z"/>
</g>
<path fill="#FFFFFF" d="M4.327,22.309v-9.553h-3.15V9.467h3.15V5.893c0-2.141,1.941-3.582,3.51-3.582h3.525v2.994H9.734
	c-0.802,0-1.87,0.652-1.87,1.451v2.711h3.177v3.291H7.864v9.553H4.327V22.309z"/>
</svg>
