<?xml version="1.0" encoding="utf-8"?>
<!-- Generator: Adobe Illustrator 15.0.0, SVG Export Plug-In . SVG Version: 6.00 Build 0)  -->
<!DOCTYPE svg PUBLIC "-//W3C//DTD SVG 1.1//EN" "http://www.w3.org/Graphics/SVG/1.1/DTD/svg11.dtd">
<svg version="1.1" id="Etsy" xmlns="http://www.w3.org/2000/svg" xmlns:xlink="http://www.w3.org/1999/xlink" x="0px" y="0px"
	 width="20px" height="22px" viewBox="0 0 20 22" enable-background="new 0 0 20 22" xml:space="preserve">
<g display="none">
	<path display="inline" fill="#A30F1D" d="M-732.629,275.63c0,0-0.007-2.454,0.279-3.669c0.307-1.296,2.058-8.711,2.058-8.711
		s-0.515-1.02-0.515-2.527c0-2.371,1.377-4.14,3.088-4.14c1.452,0,2.154,1.091,2.154,2.397c0,1.465-0.931,3.65-1.41,5.674
		c-0.401,1.697,0.847,3.08,2.522,3.08c3.029,0,5.068-3.892,5.068-8.498c0-3.506-2.357-6.127-6.653-6.127
		c-4.847,0-7.87,3.617-7.87,7.654c0,1.396,0.411,2.377,1.055,3.137c0.297,0.35,0.341,0.49,0.231,0.894
		c-0.077,0.292-0.254,0.999-0.327,1.281c-0.105,0.403-0.432,0.55-0.801,0.399c-2.234-0.912-3.275-3.357-3.275-6.106
		c0-4.542,3.831-9.987,11.428-9.987c6.105,0,10.121,4.416,10.121,9.158c0,6.271-3.488,10.955-8.626,10.955
		c-1.727,0-3.35-0.932-3.907-1.99c0,0-0.928,3.684-1.124,4.393c-0.337,1.231-1.607,3.424-1.607,3.424s-0.463,0.546-1.246,0.777
		C-732.357,277.208-732.629,275.63-732.629,275.63z"/>
</g>
<g>
	<g>
		<polyline fill="none" stroke="#FFFFFF" stroke-width="7" stroke-miterlimit="10" points="-849.555,556.511 -863.98,539.741 
			-849.555,522.974 		"/>
	</g>
	<g>
		<g>
			<polyline fill="none" stroke="#ECECE8" stroke-width="7" stroke-miterlimit="10" points="-850.555,555.511 -864.98,538.741 
				-850.555,521.974 			"/>
		</g>
	</g>
</g>
<g>
	<g>
		<polyline fill="none" stroke="#FFFFFF" stroke-width="7" stroke-miterlimit="10" points="-740.945,522.974 -726.52,539.743 
			-740.945,556.511 		"/>
	</g>
	<g>
		<g>
			<polyline fill="none" stroke="#ECECE8" stroke-width="7" stroke-miterlimit="10" points="-741.945,521.974 -727.52,538.743 
				-741.945,555.511 			"/>
		</g>
	</g>
</g>
<g>
	<path d="M5.227,19.896c0,0-0.006-1.837,0.209-2.746c0.229-0.97,1.54-6.52,1.54-6.52S6.59,9.869,6.59,8.738
		c0-1.773,1.03-3.097,2.311-3.097c1.087,0,1.613,0.815,1.613,1.795c0,1.095-0.697,2.731-1.056,4.246
		c-0.3,1.271,0.634,2.306,1.888,2.306c2.267,0,3.793-2.913,3.793-6.362c0-2.622-1.765-4.584-4.979-4.584
		c-3.628,0-5.891,2.707-5.891,5.729c0,1.044,0.308,1.778,0.79,2.347c0.223,0.262,0.255,0.367,0.173,0.669
		c-0.058,0.219-0.19,0.748-0.245,0.959c-0.078,0.303-0.322,0.411-0.599,0.299c-1.673-0.683-2.452-2.513-2.452-4.57
		C1.936,5.075,4.804,1,10.489,1c4.569,0,7.575,3.305,7.575,6.854c0,4.694-2.611,8.2-6.456,8.2c-1.293,0-2.508-0.697-2.925-1.49
		c0,0-0.694,2.757-0.841,3.288c-0.252,0.922-1.203,2.562-1.203,2.562s-0.347,0.407-0.933,0.582
		C5.43,21.078,5.227,19.896,5.227,19.896z"/>
</g>
</svg>
