<?xml version="1.0" encoding="utf-8"?>
<!-- Generator: Adobe Illustrator 15.0.0, SVG Export Plug-In . SVG Version: 6.00 Build 0)  -->
<!DOCTYPE svg PUBLIC "-//W3C//DTD SVG 1.1//EN" "http://www.w3.org/Graphics/SVG/1.1/DTD/svg11.dtd">
<svg version="1.1" id="Layer_1" xmlns="http://www.w3.org/2000/svg" xmlns:xlink="http://www.w3.org/1999/xlink" x="0px" y="0px"
	 width="40px" height="20px" viewBox="0 0 40 20" enable-background="new 0 0 40 20" xml:space="preserve">
<g>
	<path fill="#C42000" d="M2.821,1.894c-0.007-0.182,0.061-0.33,0.304-0.33c0.242,0,2.706,0.079,4.363,0.079
		c3.435,0,4.259-0.278,4.849-0.278c0.33,0.009,0.399,0.26,0.399,0.408c0,0.147-0.156,0.459-0.156,0.868
		c0,0.407,0.096,0.841,0.096,1.197s-0.304,0.476-0.47,0.476c-0.164,0-0.268-0.061-0.277-0.364c-0.018-0.581,0.408-1.422-3.765-1.422
		c-2.125,0-2.177,0.244-2.177,0.92s0.018,2.915,0.018,3.261c0,0.347,0.104,0.451,0.381,0.451s2.455,0,3.046,0
		c0.589,0,1.188-0.321,1.257-1.153c0.026-0.442,0.147-0.46,0.365-0.46c0.216,0,0.416,0.173,0.381,0.59
		c-0.034,0.416-0.121,0.858-0.121,1.457s0.121,1.189,0.121,1.623c0,0.433-0.572,0.538-0.685,0.069
		c-0.112-0.468-0.278-1.258-1.614-1.258s-2.41,0-2.706,0c-0.294,0-0.442,0.165-0.442,0.651c0,0.485,0,2.861,0,3.461
		s0.183,1.24,1.396,1.24c1.215,0,3.418,0.131,4.425-0.658c0.433-0.355,0.563-0.85,0.711-1.658c0.069-0.372,0.876-0.363,0.842,0.496
		c-0.026,0.398-0.409,1.254-0.409,1.805c0,0.459,0.105,1.076-0.32,1.076c-0.359,0-0.208-0.184-1.786-0.184
		c-1.579,0-7.026,0.035-7.938,0.035c-0.338,0-0.408-0.096-0.408-0.305c0-0.207,0.122-0.363,0.408-0.363s1.501,0.016,1.501-1.527
		c0-1.544,0-7.191,0-8.024s-0.183-1.666-1.206-1.77C2.804,2.267,2.83,2.093,2.821,1.894z"/>
	<path fill="#C42000" d="M13.959,6.749c0-0.26,0.139-0.37,0.451-0.474C15,6.049,15.677,5.39,16.249,3.828
		c0.183-0.494,0.808-0.364,0.729,0.139c-0.078,0.502-0.19,1.431-0.19,1.959c0.27,0,2.264,0,2.515,0c0.252,0,0.295,0.305,0.295,0.546
		c0,0.244-0.068,0.443-0.285,0.443c-0.235,0-2.524,0-2.524,0s0,2.784,0,4.355c0,1.57,0.537,1.934,1.258,1.934
		c0.416,0,0.754-0.164,1.067-0.381c0.208-0.156,0.676,0.217,0.441,0.52c-0.233,0.305-1.058,1.197-2.237,1.197
		s-2.03-0.877-2.013-2.342s0.079-3.912,0.079-4.25c0-0.338-0.443-0.815-0.938-0.815C14.037,7.124,13.959,6.911,13.959,6.749z"/>
	<path fill="#C42000" d="M24.168,5.677c0.816,0,1.449,0.286,1.719,0.286c0.269,0,0.373-0.338,0.668-0.338
		c0.294,0,0.363,0.338,0.285,0.625c-0.077,0.287-0.13,0.962-0.095,1.717c0.009,0.261-0.199,0.416-0.408,0.416
		c-0.207,0-0.286-0.086-0.372-0.485c-0.087-0.4-0.442-1.363-1.848-1.363c-1.014,0-1.406,0.677-1.406,1.119s0.238,0.866,1.319,1.335
		c1.137,0.496,3.234,1.024,3.234,3.037c-0.067,1.891-1.941,2.488-3.044,2.488c-0.928,0-1.796-0.275-2.177-0.275
		c-0.383,0-0.528,0.32-0.771,0.32s-0.417-0.279-0.323-0.564c0.097-0.285,0.218-0.502,0.218-0.789c0-0.285-0.164-0.955-0.067-1.508
		c0.095-0.556,0.84-0.635,0.831-0.096c-0.008,0.537,0.235,2.072,2.178,2.072c1.57,0,1.752-1.094,1.752-1.404
		c0-0.383-0.077-0.929-1.961-1.675c-1.881-0.747-2.609-1.44-2.609-2.628C21.29,6.778,22.347,5.677,24.168,5.677z"/>
	<path fill="#C42000" d="M27.812,6.179c0-0.182,0.007-0.268,0.217-0.268c0.208,0,1.31,0.035,1.891,0.035
		c0.58,0,1.647-0.035,1.865-0.035c0.155,0,0.112,0.19,0.112,0.321c0,0.13,0.018,0.347-0.26,0.347c-0.278,0-0.799,0.096-0.799,0.556
		c0,0.459,0.122,0.587,0.304,1.084c0.199,0.546,1.64,3.852,1.64,3.852s1.129-2.317,1.466-2.968c0.338-0.65,0.547-1.465,0.547-1.831
		c0-0.363-0.374-0.607-0.686-0.668c-0.312-0.061-0.467-0.044-0.467-0.417c0-0.191,0.033-0.294,0.189-0.294
		c0.155,0,1.092,0.06,1.787,0.06c0.692,0,1.5-0.043,1.726-0.043c0.208,0,0.147,0.173,0.147,0.321c0,0.147-0.017,0.294-0.198,0.321
		c-0.184,0.026-0.989-0.009-1.832,1.778c-0.84,1.787-2.506,5.387-3.711,7.729c-0.625,1.232-1.805,2.576-3.036,2.576
		c-0.643,0.01-0.895-0.547-0.895-0.824s0.156-0.729,0.886-0.729c0.486,0,0.615,0.234,0.85,0.234c0.485,0,1.718-1.178,2.064-3.295
		c0.053-0.486-0.448-1.676-0.643-2.211c-0.288-0.799-1.168-3.113-1.804-4.487c-0.218-0.469-0.789-0.71-1.152-0.754
		C27.847,6.535,27.812,6.473,27.812,6.179z"/>
</g>
</svg>
