<?xml version="1.0" encoding="utf-8"?>
<!-- Generator: Adobe Illustrator 15.0.0, SVG Export Plug-In . SVG Version: 6.00 Build 0)  -->
<!DOCTYPE svg PUBLIC "-//W3C//DTD SVG 1.1//EN" "http://www.w3.org/Graphics/SVG/1.1/DTD/svg11.dtd">
<svg version="1.1" id="Etsy" xmlns="http://www.w3.org/2000/svg" xmlns:xlink="http://www.w3.org/1999/xlink" x="0px" y="0px"
	 width="22px" height="20px" viewBox="0 0 22 20" enable-background="new 0 0 22 20" xml:space="preserve">
<g display="none">
	<path display="inline" fill="#A30F1D" d="M-732.629,275.63c0,0-0.007-2.454,0.279-3.669c0.307-1.296,2.058-8.711,2.058-8.711
		s-0.515-1.02-0.515-2.527c0-2.371,1.377-4.14,3.088-4.14c1.452,0,2.154,1.091,2.154,2.397c0,1.465-0.931,3.649-1.41,5.674
		c-0.401,1.697,0.847,3.08,2.522,3.08c3.029,0,5.068-3.893,5.068-8.498c0-3.506-2.357-6.127-6.653-6.127
		c-4.847,0-7.87,3.617-7.87,7.654c0,1.396,0.411,2.377,1.055,3.137c0.297,0.35,0.341,0.49,0.231,0.894
		c-0.077,0.292-0.254,0.999-0.327,1.281c-0.105,0.403-0.432,0.55-0.801,0.399c-2.234-0.912-3.275-3.357-3.275-6.106
		c0-4.542,3.831-9.987,11.428-9.987c6.105,0,10.121,4.416,10.121,9.158c0,6.271-3.488,10.955-8.626,10.955
		c-1.727,0-3.35-0.932-3.907-1.99c0,0-0.928,3.684-1.124,4.393c-0.337,1.231-1.607,3.424-1.607,3.424s-0.463,0.547-1.246,0.777
		C-732.357,277.208-732.629,275.63-732.629,275.63z"/>
</g>
<path fill="#FFFFFF" d="M21,3.794c-0.736,0.327-1.526,0.55-2.357,0.648c0.846-0.508,1.497-1.313,1.803-2.27
	c-0.792,0.468-1.671,0.811-2.605,0.995c-0.748-0.798-1.814-1.296-2.994-1.296c-2.268,0-4.103,1.837-4.103,4.106
	c0,0.321,0.037,0.631,0.105,0.931C7.439,6.74,4.415,5.108,2.393,2.622C2.038,3.229,1.836,3.938,1.836,4.686
	c0,1.424,0.727,2.682,1.826,3.415C2.991,8.08,2.355,7.897,1.806,7.589C1.805,7.607,1.805,7.623,1.805,7.642
	c0,1.987,1.414,3.646,3.289,4.022c-0.345,0.096-0.708,0.143-1.081,0.143c-0.262,0-0.52-0.026-0.772-0.072
	c0.524,1.63,2.039,2.815,3.834,2.85c-1.406,1.1-3.174,1.758-5.095,1.758c-0.332,0-0.658-0.022-0.979-0.058
	c1.815,1.164,3.972,1.844,6.289,1.844c7.545,0,11.672-6.253,11.672-11.678c0-0.176-0.002-0.354-0.011-0.528
	C19.752,5.341,20.448,4.619,21,3.794z"/>
</svg>
