<?xml version="1.0" encoding="utf-8"?>
<!-- Generator: Adobe Illustrator 15.0.0, SVG Export Plug-In . SVG Version: 6.00 Build 0)  -->
<!DOCTYPE svg PUBLIC "-//W3C//DTD SVG 1.1//EN" "http://www.w3.org/Graphics/SVG/1.1/DTD/svg11.dtd">
<svg version="1.1" id="Etsy" xmlns="http://www.w3.org/2000/svg" xmlns:xlink="http://www.w3.org/1999/xlink" x="0px" y="0px"
	 width="166px" height="81.334px" viewBox="27.667 5.5 166 81.334" enable-background="new 27.667 5.5 166 81.334"
	 xml:space="preserve">
<g display="none">
	<path display="inline" fill="#A30F1D" d="M-732.629,275.63c0,0-0.007-2.454,0.279-3.669c0.307-1.296,2.058-8.711,2.058-8.711
		s-0.515-1.02-0.515-2.527c0-2.371,1.377-4.14,3.088-4.14c1.452,0,2.154,1.091,2.154,2.397c0,1.465-0.931,3.651-1.41,5.674
		c-0.401,1.697,0.847,3.08,2.522,3.08c3.029,0,5.068-3.891,5.068-8.498c0-3.506-2.357-6.127-6.653-6.127
		c-4.847,0-7.87,3.617-7.87,7.654c0,1.396,0.411,2.377,1.055,3.137c0.297,0.35,0.341,0.49,0.231,0.894
		c-0.077,0.292-0.254,0.999-0.327,1.281c-0.105,0.403-0.432,0.55-0.801,0.399c-2.234-0.912-3.275-3.357-3.275-6.106
		c0-4.542,3.831-9.987,11.428-9.987c6.105,0,10.121,4.416,10.121,9.158c0,6.271-3.488,10.955-8.626,10.955
		c-1.727,0-3.35-0.932-3.907-1.99c0,0-0.928,3.684-1.124,4.393c-0.337,1.231-1.607,3.424-1.607,3.424s-0.463,0.545-1.246,0.777
		C-732.357,277.208-732.629,275.63-732.629,275.63z"/>
</g>
<g>
	<g>
		<g>
			<path fill="#0A9995" d="M72.79,9.101c2.321,0,4.673,1.451,5.989,3.693c1.359,2.314,1.352,5.115-0.022,7.495
				c-0.146,0.255-0.311,0.498-0.483,0.737c0.313-0.04,0.625-0.062,0.939-0.062c1.888,0,3.533,0.689,5.015,1.708
				c0.181-2.854,1.68-5.092,4.338-6.402c2.411-1.188,5.223-1.816,8.134-1.816c3.48,0,6.984,0.889,9.875,2.505
				c1.75,0.977,3.215,2.191,4.338,3.571c2.596-3.156,6.703-5.827,12.197-5.827c0.406,0,0.82,0.016,1.229,0.046
				c5.639,0.424,9.545,2.22,11.312,5.201c0.113-0.063,0.225-0.127,0.336-0.188c0.486-0.262,1.035-0.4,1.588-0.4
				c0.549,0,1.098,0.138,1.592,0.403c0.297,0.163,0.564,0.366,0.793,0.601c0.381-0.051,0.764-0.077,1.145-0.077
				c0.225,0,0.447,0.012,0.662,0.028c-0.541-0.93-0.943-2.031-1.055-3.374c-0.02-0.201-0.029-0.401-0.033-0.593
				c-0.004-0.266,0.01-0.544,0.045-0.851c0.166-1.562,0.861-2.995,2-4.143c0.918-0.926,2.1-1.604,3.334-1.917
				c0.047-0.013,0.094-0.025,0.145-0.038l0.018-0.004l0.02-0.004c0.109-0.024,0.219-0.043,0.326-0.059l0.02-0.004l0.021-0.003
				c0.104-0.021,0.207-0.038,0.297-0.047c0.113-0.012,0.227-0.019,0.336-0.024h0.023l0.025-0.002
				c0.104-0.008,0.209-0.013,0.311-0.013h0.002c2.244,0,4.791,1.421,5.418,4.597c0.082,0.414,0.129,0.855,0.145,1.31
				c0.027,1.041-0.434,1.981-1.182,2.6c0.502,0.312,0.98,0.596,1.34,0.81c1.551,0.923,3.018,1.792,4.051,2.794
				c0.344,0.332,0.668,0.667,0.973,1.005c0.555-0.394,1.229-0.614,1.928-0.614c0.627,0,1.24,0.176,1.771,0.508
				c2.469,1.551,6.369,2.576,10.146,3.569c4.133,1.087,8.408,2.21,11.699,4.191c2.217,1.335,4.812,4.363,5.48,7.565
				c0.438,2.101,0.025,4.171-1.166,5.834c-1.377,1.925-3.912,3.03-6.951,3.03c-3.783,0-8.062-1.885-8.51-6.028
				c-0.027-0.23-0.041-0.465-0.041-0.69c0-1.756,0.729-2.927,1.342-3.601c0.104-0.114,0.213-0.224,0.324-0.329
				c-0.791-0.163-1.588-0.312-2.346-0.452c-1.072-0.2-2.109-0.393-3.105-0.614c-0.01,0.028-0.018,0.055-0.023,0.083
				c-3.523,11.801-7.514,25.178-18.455,30.75c-0.312,0.158-0.641,0.307-0.979,0.447c0.057,0.11,0.115,0.221,0.158,0.341
				c1.828,0.14,3.553,0.306,5.143,0.497c1.543,0.185,2.697,1.532,2.631,3.069v0.021l-0.002,0.019
				c-0.092,1.561-1.398,2.784-2.971,2.792c-2.137,0.021-4.264,0.041-6.447,0.06c0.014,0.524,0.01,1.101-0.086,1.689
				c0.703,1.233,0.822,2.713,0.328,4.305c-0.549,1.769-1.887,3.073-3.764,3.673c-1.307,0.415-2.594,0.415-3.283,0.415
				c-0.514,0-1.008-0.018-1.488-0.036h-0.021c-0.42-0.016-0.812-0.028-1.16-0.028c-0.096,0-0.188,0-0.281,0.002
				c-0.035,0.001-0.07,0.001-0.104,0.001c-1.064,0-2.025-0.495-2.637-1.292c-1.48,1.017-3.293,1.592-5.131,1.592
				c-1.682,0-3.229-0.461-4.521-1.326c-0.469,0.441-1.072,0.745-1.734,0.853c-0.824,0.134-1.889,0.206-3.002,0.206
				c-1.111,0-2.18-0.073-3.006-0.207c-0.832-0.134-1.561-0.58-2.062-1.212c-1.768,1.033-3.992,1.636-6.336,1.636
				c-1.479,0-2.893-0.237-4.205-0.708c-0.418-0.149-0.793-0.377-1.113-0.665c-1.135,0.982-2.633,1.533-4.334,1.533
				c-2.383,0-4.741-1.126-6.312-2.977c-0.561,1.257-1.919,2.667-5.208,2.667c-1.528,0-3.112-0.289-3.805-0.46
				c-0.687-0.17-1.278-0.544-1.716-1.047c-1.277,1.026-2.992,1.629-4.818,1.629c-0.715,0-1.419-0.094-2.091-0.283
				c-0.276,0.053-0.589,0.091-0.938,0.091c-0.293,0-0.591-0.026-0.885-0.076c-1.251-0.216-2.279-1.136-2.621-2.347
				c-0.137-0.489-0.789-3.039-0.095-5.175c0.024-0.073,0.052-0.148,0.079-0.221c-0.17-0.59-0.26-1.318-0.142-2.174
				c-1.975,0.003-3.878,0.007-5.736,0.013c-1.553,0-2.833-1.149-2.98-2.679c-0.153-1.52,0.874-2.887,2.408-3.189
				c0.735-0.141,1.491-0.245,2.156-0.338l0.066-0.009c1.119-0.154,2.27-0.312,3.079-0.591c0.304-0.109,0.637-0.165,0.973-0.17
				c-0.51-0.224-0.987-0.464-1.413-0.721c-5.171-3.118-9.324-8.002-12.699-14.928c-2.134-4.379-3.897-9.43-5.492-15.749
				c-0.943,0.217-1.888,0.409-2.819,0.597c-0.945,0.192-1.899,0.387-2.817,0.603c0.123,0.12,0.242,0.245,0.352,0.376
				c1.097,1.283,1.526,2.988,1.214,4.801c-0.571,3.323-3.603,5.471-7.727,5.471c-2.718,0-6.459-1.03-8.05-3.933
				c-1.287-2.347-1.413-4.806-0.356-7.105c2.555-5.575,10.93-7.6,11.877-7.811c7.255-1.627,15.918-5.153,23.769-9.675
				c0.327-0.188,0.677-0.374,1.049-0.572c-0.512-0.578-0.822-1.332-0.822-2.148c0-1.685,0.443-3.081,1.315-4.151
				C69.785,9.776,71.23,9.101,72.79,9.101 M72.815,12.372c-0.011,0-0.023,0-0.034,0c-0.003,0-0.005,0-0.008,0
				c-0.068,0-0.136,0.003-0.203,0.01c0.046-0.004,0.092-0.004,0.137-0.007c0.022,0,0.043-0.002,0.065-0.003c0.002,0,0.005,0,0.008,0
				c0.015,0,0.029,0,0.044,0c0.002,0,0.004,0,0.006,0c-0.001,0-0.004,0-0.006,0C72.822,12.372,72.818,12.372,72.815,12.372
				c0.003,0,0.007,0,0.009,0c-0.011,0-0.022-0.001-0.035-0.001C72.799,12.371,72.808,12.371,72.815,12.372 M66.875,46.88
				c0.219-0.248,0.481-0.468,0.779-0.644c0.512-0.301,1.095-0.461,1.69-0.461c0.884,0,1.734,0.354,2.35,0.969
				c0.236-0.007,0.529-0.145,0.651-0.253c0.456-1.238-0.549-3.184-1.522-5.066c-0.812-1.572-1.65-3.198-1.938-4.926
				c-0.483-2.92,0.228-5.667,2.003-7.733c0.941-1.097,2.115-1.923,3.439-2.442c-0.24-0.43-0.384-0.912-0.408-1.418
				c-0.002-0.064,0.004-0.128,0.006-0.192c-1.178,0.696-2.412,1.308-3.591,1.889c-0.881,0.437-1.714,0.849-2.43,1.25
				c-0.754,0.425-1.711,0.81-2.735,1.222c-0.646,0.26-2.473,0.993-3.21,1.473c-0.355,2.135,1.412,7.348,2.015,9.132l0.012,0.037
				l0.219,0.645C64.648,41.687,65.544,44.152,66.875,46.88 M100.569,29.938c0.074,0,0.154-0.001,0.234-0.006
				c0.275-0.015,0.852-0.281,1.363-0.519l0.236-0.107c0.223-0.103,0.686-0.313,0.799-1.259c0.02-0.167,0.027-0.342,0.023-0.52
				c-0.25,0.06-0.512,0.089-0.77,0.089c-0.893,0-1.76-0.366-2.377-0.998c-0.252-0.258-0.816-0.517-1.512-0.517
				c-0.672,0-1.096,0.229-1.215,0.386c-0.129,0.168-0.123,0.583,0.02,1.108C97.755,29.02,99.011,29.938,100.569,29.938
				 M118.745,28.015c-0.314,0-0.625-0.045-0.92-0.129c-0.023,0.146-0.041,0.293-0.045,0.435c-0.055,1.058,0.402,1.276,0.672,1.406
				c0.729,0.35,1.365,0.559,1.879,0.62c0.078,0.008,0.156,0.014,0.23,0.014c1.057,0,2.312-0.731,2.988-1.738
				c0.482-0.715,0.592-1.433,0.324-2.138c-0.072-0.017-0.203-0.037-0.41-0.037c-1.027,0-2.203,0.494-2.656,0.852
				C120.226,27.76,119.491,28.015,118.745,28.015 M148.249,46.646c0.219-0.06,0.57-0.188,1.086-0.468
				c0.486-0.264,1.035-0.403,1.588-0.403c0.764,0,1.51,0.265,2.098,0.742c0.293,0.237,0.529,0.516,0.721,0.819
				c1.133-2.167,2.459-5.184,2.297-7.437c-0.361-5.009-2.611-8.096-5.727-11.164c0.777,3.308,0.402,7.886-2.918,10.73
				c0.014,0.27,0.023,0.544,0.033,0.823l0.004,0.049c0.07,1.908,0.15,4.071,0.559,5.573
				C148.087,46.264,148.177,46.498,148.249,46.646 M128.368,36.666c-1.82,1.994-4.014,3.313-6.229,3.712
				c-1.389,0.248-2.402,0.353-3.387,0.353c-1.639,0-3.113-0.306-4.648-0.963c0.098,3.064,0.207,5.775,0.328,8.301
				c0.959,0.134,1.938,0.271,2.908,0.446c0.299-0.547,0.59-1.135,0.873-1.713c0.275-0.559,0.688-1.402,1.129-2.192
				c0.609-1.076,1.762-1.745,3.01-1.745c0.322,0,0.648,0.046,0.965,0.137c0.039,0.013,0.08,0.024,0.111,0.033
				c1.068,0.35,1.863,1.163,2.193,2.169c0.301-0.934,0.6-1.867,0.9-2.802l0.018-0.056C127.14,40.478,127.749,38.577,128.368,36.666
				 M41.989,37.32L41.989,37.32L41.989,37.32c0.002,0,0.002,0,0.002,0h0l0,0c0.01,0,0.019,0.001,0.028,0.002h0.001
				c-0.007,0-0.014,0-0.021,0c-0.017,0-0.034,0-0.051,0c-0.021,0-0.042,0-0.062,0.001c0.02,0,0.042-0.001,0.062-0.001
				c0.018,0,0.035,0,0.051,0c0.009,0,0.016,0,0.022,0c0,0,0,0-0.001,0c0.001,0,0.001,0,0.002,0c0,0,0,0,0.001,0
				c-0.001,0-0.001,0-0.001,0c-0.001,0-0.002,0-0.003,0c-0.009,0-0.019-0.001-0.028-0.002l0,0h0
				C41.991,37.32,41.991,37.32,41.989,37.32L41.989,37.32L41.989,37.32L41.989,37.32L41.989,37.32 M102.677,40.419
				c-0.877,0-1.805-0.089-2.775-0.265c-0.066,0.231-0.16,0.459-0.279,0.679c-0.58,1.055-1.693,1.71-2.906,1.71
				c-0.217,0-0.436-0.021-0.641-0.062c-1.737-0.339-3.245-0.941-4.587-1.708c0.09,0.264,0.177,0.526,0.265,0.787l0.049,0.152
				c0.446,1.338,0.905,2.719,1.36,4.02c0.229,0.645,0.244,1.331,0.057,1.972c0.934,1.346,1.346,2.942,1.195,4.477
				c0.67-0.463,1.384-0.944,2.159-1.373c-0.115-0.387-0.287-0.819-0.502-1.351c-0.27-0.653-0.604-1.467-0.823-2.341
				c-0.436-1.685,0.475-3.415,2.116-4.029c0.031-0.013,0.068-0.024,0.105-0.036c0.361-0.124,0.736-0.186,1.115-0.186
				c1.285,0,2.455,0.703,3.062,1.847c0.477,0.916,1.312,2.423,2.113,3.835c0.984-0.196,1.955-0.347,2.865-0.465
				c0.084-1.349,0.135-2.78,0.184-4.188v-0.033c0.053-1.512,0.102-2.965,0.195-4.314C105.724,40.123,104.271,40.419,102.677,40.419
				 M135.548,53.232c0.01-0.005,0.021-0.013,0.031-0.018l0.014-0.007c0.07-0.045,0.141-0.086,0.201-0.115
				c0.111-0.06,0.23-0.112,0.348-0.165l0.021-0.011c0.08-0.038,0.158-0.074,0.252-0.111c0.1-0.042,0.207-0.078,0.312-0.114
				l0.041-0.015l0.023-0.008c0.086-0.032,0.17-0.061,0.256-0.088c0.1-0.03,0.205-0.057,0.311-0.082l0.041-0.009l0.043-0.012
				c0.1-0.026,0.203-0.051,0.309-0.073c0.084-0.018,0.176-0.031,0.266-0.043l0.016-0.002l0.055-0.009
				c0.129-0.021,0.258-0.041,0.393-0.055c0.074-0.008,0.152-0.013,0.244-0.02l0.041-0.002c0.123-0.01,0.275-0.022,0.457-0.026
				c0.029,0,0.059-0.001,0.09-0.001h0.27l0.092,0.02c0.076,0.008,0.152,0.02,0.229,0.033c0.082,0.015,0.166,0.034,0.24,0.055
				l0.014,0.002l0.01,0.003c0.07,0.019,0.18,0.05,0.311,0.097l0.014,0.006l0.014,0.005c0.078,0.029,0.152,0.062,0.225,0.097
				c0.096,0.044,0.189,0.095,0.283,0.15l0.006,0.002l0.018,0.011c0.068,0.041,0.135,0.085,0.201,0.129
				c0.111,0.08,0.195,0.153,0.242,0.192c0.049,0.04,0.121,0.103,0.189,0.172c0.133,0.133,0.256,0.283,0.361,0.429
				c0.041,0.062,0.08,0.123,0.119,0.187l0.002,0.007l0.021,0.038c0.029,0.047,0.084,0.142,0.141,0.269
				c0.043,0.089,0.072,0.165,0.094,0.218c0.016,0.04,0.035,0.097,0.059,0.163c0.029,0.088,0.053,0.175,0.072,0.268
				c0.014,0.06,0.023,0.119,0.035,0.18c0.018,0.104,0.025,0.197,0.033,0.272c0.008,0.068,0.014,0.16,0.014,0.266v0.291l-0.027,0.103
				c-0.014,0.127-0.039,0.254-0.068,0.38l-0.01,0.039l-0.012,0.038c-0.012,0.044-0.025,0.089-0.039,0.132
				c-0.072,0.23-0.164,0.438-0.277,0.636l-0.01,0.016l-0.002,0.003l-0.002,0.004l-0.037,0.065l-0.029,0.043
				c-0.107,0.162-0.229,0.318-0.363,0.463c-0.021,0.025-0.047,0.05-0.07,0.074l-0.025,0.027l-0.027,0.028
				c-0.17,0.161-0.344,0.297-0.547,0.426c-0.023,0.015-0.047,0.03-0.068,0.046l-0.037,0.024h-0.002l-0.043,0.029
				c-0.018,0.013-0.033,0.026-0.051,0.038l-0.023,0.02l-0.01,0.007l-0.01,0.009l-0.031,0.022l-0.021,0.017l-0.037,0.033
				l-0.055,0.049l-0.006,0.004l-0.049,0.05l-0.043,0.038l-0.002,0.003l-0.039,0.044l-0.043,0.046l-0.004,0.002l-0.027,0.035
				l-0.021,0.029c0.193,0.038,0.461,0.07,0.807,0.07c0.209,0,0.436-0.012,0.676-0.035c2.178-0.209,4.541-1.956,6.568-4.062
				c-0.627,0.145-1.256,0.218-1.852,0.218c-1.328,0-2.568-0.326-3.586-0.943c-3.768-2.28-3.672-6.771-3.602-10.385
				c0.031-1.306,0.057-2.649-0.092-3.684c-0.357,1.083-0.754,2.232-1.184,3.474l-0.01,0.029l-0.035,0.104
				c-0.205,0.601-0.418,1.216-0.635,1.85c-0.176,0.516-0.361,1.348-0.557,2.227l-0.006,0.021c-0.385,1.73-0.824,3.672-1.6,5.363
				C135.411,53.127,135.479,53.18,135.548,53.232 M73.985,55.193c-0.608,0-1.225-0.079-1.828-0.223
				c1.559,1.693,3.332,3.081,5.314,3.835c0.498,0.188,1.08,0.289,1.679,0.289c0.491,0,0.926-0.066,1.287-0.164
				c-0.069-0.071-0.148-0.149-0.236-0.238c-0.424-0.417-0.905-0.89-1.241-1.542c-0.614-1.173-0.457-2.585,0.397-3.597
				c0.629-0.745,1.555-1.173,2.537-1.173c0.321,0,0.64,0.047,0.954,0.14c-0.976-1.814-1.66-3.925-2.301-6.024
				c0.061,2.588-0.366,5.193-2.206,6.99C77.216,54.586,75.667,55.193,73.985,55.193 M72.79,8.571c-1.717,0-3.313,0.745-4.376,2.046
				c-0.953,1.169-1.436,2.678-1.436,4.486c0,0.698,0.197,1.379,0.562,1.971c-0.18,0.098-0.354,0.193-0.523,0.291
				c-7.807,4.495-16.416,8.001-23.62,9.616c-0.973,0.218-9.58,2.294-12.243,8.106c-1.127,2.456-0.999,5.078,0.374,7.583
				c1.701,3.104,5.651,4.206,8.515,4.206c4.395,0,7.632-2.32,8.25-5.911c0.316-1.84-0.074-3.581-1.102-4.945
				c0.626-0.137,1.263-0.267,1.885-0.394l0.051-0.01c0.852-0.173,1.589-0.323,2.326-0.486c1.574,6.139,3.295,11.027,5.403,15.352
				c3.421,7.021,7.642,11.978,12.903,15.148c0.035,0.021,0.071,0.043,0.107,0.064c-0.715,0.186-1.637,0.312-2.533,0.437
				l-0.082,0.012c-0.592,0.081-1.406,0.193-2.18,0.341c-1.798,0.354-3.016,1.973-2.836,3.763c0.174,1.799,1.682,3.157,3.509,3.157
				c1.676-0.006,3.388-0.01,5.156-0.014c-0.022,0.556,0.033,1.099,0.166,1.619c-0.01,0.027-0.019,0.053-0.027,0.079
				c-0.742,2.282-0.056,4.968,0.089,5.483c0.397,1.405,1.59,2.475,3.042,2.725c0.322,0.058,0.65,0.085,0.972,0.085
				c0.304,0,0.61-0.025,0.914-0.077c0.679,0.181,1.389,0.271,2.115,0.271c1.749,0,3.422-0.515,4.767-1.458
				c0.465,0.413,1.023,0.708,1.639,0.859c0.719,0.177,2.355,0.477,3.933,0.477c3.013,0,4.541-1.134,5.316-2.3
				c1.656,1.645,3.925,2.609,6.202,2.609c1.643,0,3.133-0.478,4.336-1.385c0.287,0.204,0.6,0.367,0.932,0.485
				c1.369,0.489,2.844,0.738,4.385,0.738c2.217,0,4.41-0.529,6.223-1.497c0.568,0.564,1.295,0.938,2.09,1.066
				c0.854,0.138,1.949,0.214,3.092,0.214c1.139,0,2.232-0.075,3.084-0.212c0.621-0.103,1.199-0.35,1.695-0.723
				c1.312,0.787,2.852,1.202,4.477,1.202c1.762,0,3.531-0.506,5.035-1.428c0.715,0.722,1.686,1.127,2.732,1.127l0.115-0.001
				c0.092-0.002,0.18-0.002,0.27-0.002c0.342,0,0.729,0.013,1.141,0.027c0.51,0.02,1.01,0.037,1.529,0.037
				c0.719,0,2.059,0,3.443-0.44c2.049-0.653,3.51-2.081,4.109-4.021c0.514-1.652,0.418-3.226-0.281-4.56
				c0.049-0.376,0.066-0.739,0.068-1.066c2-0.017,3.955-0.034,5.92-0.055c1.848-0.009,3.383-1.454,3.494-3.29l0.002-0.016
				l0.002-0.037c0.076-1.809-1.285-3.396-3.1-3.615c-1.23-0.146-2.545-0.28-3.926-0.398c10.857-5.679,14.887-18.843,18.389-30.57
				c0.842,0.178,1.705,0.338,2.609,0.507l0.07,0.014c0.449,0.084,0.914,0.17,1.383,0.261c-0.592,0.773-1.176,1.953-1.176,3.593
				c0,0.259,0.016,0.512,0.045,0.754c0.482,4.461,5.023,6.494,9.037,6.494c3.211,0,5.902-1.184,7.381-3.25
				c1.277-1.784,1.723-4.005,1.254-6.252c-0.699-3.353-3.41-6.517-5.725-7.911c-3.354-2.02-7.664-3.152-11.834-4.248
				c-3.752-0.987-7.607-2.001-10.004-3.507c-0.615-0.387-1.326-0.59-2.051-0.59c-0.648,0-1.275,0.159-1.838,0.463
				c-0.229-0.243-0.463-0.48-0.695-0.705c-1.076-1.041-2.561-1.924-4.133-2.858l-0.082-0.05c-0.203-0.121-0.439-0.263-0.695-0.416
				c0.578-0.698,0.887-1.583,0.861-2.513c-0.014-0.485-0.064-0.955-0.152-1.397c-0.686-3.471-3.479-5.023-5.939-5.023
				c-0.117,0-0.234,0.005-0.352,0.014c-0.154,0.007-0.277,0.015-0.398,0.027c-0.107,0.013-0.227,0.031-0.346,0.056
				c-0.139,0.02-0.262,0.041-0.383,0.068l-0.004,0.001l-0.043,0.01c-0.057,0.015-0.109,0.028-0.162,0.044
				c-1.312,0.332-2.584,1.062-3.566,2.054c-1.229,1.236-1.973,2.777-2.152,4.459c-0.035,0.316-0.051,0.617-0.047,0.916
				c0.006,0.207,0.016,0.419,0.035,0.632c0.082,0.985,0.312,1.899,0.703,2.771c-0.244,0.007-0.492,0.022-0.742,0.05
				c-0.219-0.195-0.461-0.367-0.723-0.51c-0.572-0.308-1.209-0.469-1.846-0.469c-0.605,0-1.205,0.143-1.744,0.414
				c-1.969-2.875-5.912-4.609-11.453-5.026c-0.426-0.031-0.852-0.047-1.268-0.047c-6.205,0-10.186,3.274-12.197,5.541
				c-1.113-1.245-2.482-2.327-4.078-3.218c-2.967-1.659-6.566-2.572-10.135-2.572c-2.989,0-5.883,0.647-8.367,1.872
				c-2.563,1.263-4.117,3.315-4.538,5.972c-1.492-0.882-2.976-1.319-4.511-1.332c1.403-2.517,1.388-5.465-0.048-7.908
				C77.828,10.124,75.297,8.571,72.79,8.571L72.79,8.571z M62.454,30.866c0.792-0.447,2.352-1.075,2.897-1.295
				c1.052-0.423,2.028-0.816,2.814-1.258c0.701-0.393,1.523-0.8,2.393-1.23c0.919-0.453,1.927-0.951,2.923-1.505
				c0.037,0.16,0.084,0.317,0.14,0.47c-1.209,0.559-2.262,1.355-3.134,2.373c-1.879,2.186-2.634,5.086-2.123,8.164
				c0.3,1.81,1.16,3.474,1.99,5.083c0.834,1.616,1.773,3.433,1.541,4.483c-0.014,0.006-0.028,0.012-0.042,0.018
				c-0.692-0.59-1.589-0.923-2.508-0.923c-0.688,0-1.365,0.184-1.959,0.533c-0.119,0.07-0.232,0.145-0.341,0.227
				c-1.183-2.513-1.962-4.691-2.336-5.815l-0.22-0.647l-0.517,0.124l0.501-0.17C63.92,37.862,62.276,33.008,62.454,30.866
				L62.454,30.866z M97.794,26.797c0.078-0.046,0.338-0.165,0.773-0.165c0.574,0,0.992,0.214,1.133,0.357
				c0.717,0.735,1.721,1.158,2.756,1.158c0.064,0,0.129-0.002,0.195-0.004c-0.098,0.512-0.318,0.612-0.469,0.681l-0.236,0.108
				c-0.348,0.16-0.988,0.457-1.172,0.472c-0.068,0.003-0.141,0.004-0.205,0.004c-1.312,0-2.367-0.766-2.684-1.949
				C97.788,27.1,97.784,26.883,97.794,26.797L97.794,26.797z M118.745,28.544c0.867,0,1.717-0.295,2.393-0.829
				c0.334-0.265,1.398-0.738,2.326-0.738l0,0c0.076,0.441-0.041,0.885-0.354,1.349c-0.574,0.858-1.67,1.505-2.549,1.505
				c-0.057,0-0.119-0.004-0.176-0.011c-0.447-0.054-1.039-0.251-1.703-0.57c-0.184-0.088-0.373-0.179-0.377-0.729
				C118.45,28.536,118.599,28.544,118.745,28.544L118.745,28.544z M147.935,39.699c2.805-2.542,3.504-6.239,3.18-9.372
				c2.451,2.663,4.096,5.474,4.395,9.613c0.113,1.542-0.516,3.699-1.867,6.425c-0.092-0.092-0.186-0.178-0.285-0.258
				c-0.684-0.556-1.547-0.861-2.434-0.861c-0.641,0-1.277,0.161-1.842,0.468c-0.201,0.11-0.377,0.194-0.521,0.258
				c-0.018-0.061-0.037-0.125-0.059-0.198c-0.391-1.443-0.471-3.573-0.541-5.453l-0.002-0.057
				C147.95,40.076,147.942,39.887,147.935,39.699L147.935,39.699z M118.751,41.261c1.021,0,2.064-0.108,3.482-0.36
				c1.717-0.309,3.438-1.15,4.992-2.42c-0.4,1.243-0.799,2.48-1.189,3.704l-0.018,0.047l-0.521,1.627
				c-0.477-0.612-1.131-1.073-1.904-1.328l-0.006-0.001l-0.047-0.014l-0.078-0.023c-0.361-0.105-0.734-0.158-1.111-0.158
				c-1.438,0-2.766,0.772-3.471,2.015c-0.424,0.759-0.811,1.545-1.094,2.119l-0.049,0.101c-0.227,0.46-0.455,0.922-0.684,1.358
				c-0.689-0.119-1.379-0.22-2.113-0.322c-0.104-2.209-0.197-4.525-0.281-7.049C115.995,41.035,117.313,41.261,118.751,41.261
				L118.751,41.261z M102.677,40.949c1.342,0,2.6-0.203,3.746-0.603c-0.061,1.071-0.1,2.193-0.141,3.366l-0.004,0.13v0.01v0.042
				c-0.045,1.33-0.09,2.554-0.156,3.719c-0.74,0.104-1.43,0.216-2.088,0.341c-0.803-1.421-1.508-2.706-1.916-3.486
				c-0.639-1.203-1.824-1.989-3.154-2.115c0.457-0.326,0.844-0.756,1.123-1.264c0.059-0.108,0.115-0.222,0.164-0.337
				C101.091,40.883,101.905,40.949,102.677,40.949L102.677,40.949z M93.789,47.605c0.15-0.679,0.107-1.382-0.127-2.05
				c-0.424-1.207-0.848-2.475-1.26-3.712c1.141,0.531,2.318,0.912,3.571,1.157c0.104,0.021,0.213,0.037,0.322,0.049
				c-1.325,0.919-1.981,2.578-1.563,4.198c0.227,0.906,0.57,1.739,0.846,2.409c0.145,0.359,0.261,0.649,0.353,0.904
				c-0.335,0.196-0.657,0.399-0.97,0.604C94.895,49.917,94.49,48.688,93.789,47.605L93.789,47.605z M136.229,52.309
				c0.566-1.515,0.926-3.131,1.225-4.478c0.205-0.926,0.385-1.713,0.547-2.191l0.443-1.295l0.191-0.554l0.035-0.105
				c0.092-0.267,0.182-0.528,0.271-0.786c-0.004,0.265-0.012,0.527-0.016,0.782c-0.055,2.624-0.115,5.69,1.229,8.131
				c-0.049-0.011-0.104-0.023-0.158-0.032c-0.082-0.015-0.16-0.027-0.24-0.036l-0.059-0.014l-0.057-0.012h-0.059h-0.271h-0.098
				c-0.197,0.005-0.359,0.018-0.49,0.028c-0.137,0.008-0.221,0.013-0.299,0.022c-0.145,0.015-0.283,0.036-0.424,0.06l-0.057,0.009
				c-0.1,0.014-0.199,0.029-0.293,0.048c-0.121,0.024-0.234,0.053-0.344,0.08l-0.043,0.012c-0.145,0.033-0.26,0.062-0.369,0.096
				c-0.094,0.028-0.188,0.061-0.285,0.097h-0.002l-0.053,0.019C136.425,52.234,136.323,52.269,136.229,52.309L136.229,52.309z
				 M79.823,52.45c0.526-0.886,0.885-1.925,1.083-3.131c0.304,0.866,0.638,1.718,1.016,2.529c-0.009,0-0.017,0-0.025,0
				C81.151,51.85,80.434,52.062,79.823,52.45L79.823,52.45z M73.985,55.723c1.65,0,3.182-0.54,4.367-1.531
				c-0.427,1.018-0.393,2.188,0.139,3.204c0.238,0.46,0.54,0.841,0.839,1.164c-0.059,0.003-0.119,0.004-0.18,0.004
				c-0.536,0-1.052-0.089-1.491-0.254c-1.359-0.517-2.705-1.387-4.012-2.594C73.76,55.721,73.874,55.723,73.985,55.723
				L73.985,55.723z M143.108,56.011l0.02-0.068l0.018-0.066v-0.068v-0.29c0-0.132-0.01-0.248-0.02-0.333
				c-0.004-0.062-0.018-0.169-0.035-0.287c-0.014-0.076-0.025-0.144-0.041-0.211c1.043,0.567,2.279,0.866,3.594,0.866
				c0.109,0,0.217-0.002,0.328-0.006c-1.484,1.345-3.326,2.622-5.096,2.793c0.033-0.03,0.068-0.062,0.102-0.094l0.008-0.006
				l0.033-0.034l0.006-0.006l0.031-0.032l0.08-0.086c0.143-0.152,0.283-0.332,0.408-0.522l0.027-0.038l0.057-0.098l0.002-0.006
				l0.012-0.018c0.133-0.234,0.238-0.477,0.322-0.738l0.016-0.051l0.029-0.103l0.004-0.009l0.021-0.086
				C143.065,56.278,143.091,56.145,143.108,56.011L143.108,56.011z"/>
		</g>
	</g>
	
		<path fill="#0A9995" stroke="#FFFFFF" stroke-width="0.422" stroke-linecap="round" stroke-linejoin="round" stroke-miterlimit="10" d="
		M149.853,15.16c-0.244-2.384-3.771-1.531-3.873,0.661c-0.139,3.11,6.834,5.621,9.08,7.792c3.17,3.061,4.297,6.548,6.543,8.98
		c0.775-2.862,0.559-6.147-1.334-7.66c5.729,3.596,16.051,4.273,21.896,7.792c2.072,1.249,5.602,5.558,3.336,8.718
		c-1.912,2.673-9.098,2.038-9.479-1.454c-0.311-2.846,3.109-3.061,4.939-1.452c-0.916,0.307-2.641,0.122-3.07,1.452
		c1.816,3.666,7.09,0.862,5.875-2.51c-1.891-5.258-11.881-4.856-17.092-6.867c-3.604,11.794-7.135,26.551-17.756,31.962
		c-4.211,2.143-14.244,2.884-14.02-3.831c0.932-1.631,1.875-3.25,4.406-3.302c-3.715,2.315-3.24,7.198,2.936,6.604
		c5.488-0.526,10.818-6.932,13.221-11.094c1.547-2.685,4.158-7.421,3.873-11.359c-0.635-8.714-4.895-14.03-11.484-17.697
		c-1.266-1.955-3.82-2.818-3.871-5.679C143.909,12.482,149.726,10.483,149.853,15.16z"/>
	<g>
		<path fill="#0A9995" d="M108.39,55.177c0.019-0.068,0.055-0.148,0.188-0.224c0.22-0.126,0.311-0.396,0.213-0.629
			c-0.099-0.231-0.355-0.36-0.598-0.286c-0.107,0.03-0.174,0.036-0.237,0.04c-0.031-0.029-0.081-0.155-0.114-0.238
			c-0.077-0.194-0.174-0.438-0.387-0.623c-0.147-0.128-0.357-0.158-0.535-0.077c-0.179,0.081-0.293,0.259-0.293,0.455v0.574
			c-0.027,0.005-0.054,0.01-0.077,0.014c-0.287,0.047-0.681,0.112-0.908,0.457c-0.096,0.145-0.109,0.328-0.037,0.485
			c0.073,0.157,0.223,0.266,0.395,0.286c0.274,0.033,0.361,0.144,0.384,0.178c0.037,0.118-0.01,0.272-0.063,0.45
			c-0.093,0.307-0.247,0.819,0.208,1.228c0.094,0.084,0.213,0.128,0.334,0.128c0.058,0,0.115-0.01,0.171-0.03
			c0.174-0.063,0.298-0.217,0.324-0.399c0.026-0.185,0.057-0.302,0.082-0.374c0.089,0.059,0.2,0.148,0.271,0.205
			c0.135,0.109,0.265,0.21,0.376,0.272c0.076,0.043,0.16,0.063,0.244,0.063c0.008,0,0.015,0,0.02,0c0.276,0,0.5-0.224,0.5-0.5
			c0-0.139-0.056-0.265-0.147-0.354C108.443,55.818,108.328,55.413,108.39,55.177z"/>
		<path fill="#0A9995" d="M114.631,54.295c-0.06,0.013-0.11,0.02-0.194,0.02c-0.044-0.044-0.093-0.244-0.122-0.364
			c-0.047-0.191-0.1-0.408-0.212-0.604c-0.106-0.187-0.324-0.267-0.53-0.23c-0.21,0.041-0.372,0.223-0.401,0.434
			c-0.028,0.199-0.075,0.531-0.055,0.569c-0.003,0-0.055-0.001-0.175-0.056c-0.231-0.103-0.504-0.02-0.636,0.199
			c-0.13,0.219-0.076,0.5,0.126,0.654c0.181,0.139,0.188,0.278,0.036,0.833c-0.099,0.361-0.211,0.771-0.073,1.176
			c0.072,0.211,0.279,0.372,0.497,0.338c0.223-0.01,0.411-0.166,0.463-0.383c0.022-0.093,0.054-0.167,0.098-0.228
			c0.207,0.414,0.427,0.769,0.825,0.769h0.001c0.126,0,0.309-0.074,0.401-0.16c0.157-0.146,0.203-0.376,0.115-0.571
			c-0.256-0.566-0.284-1.248,0.154-1.453c0.23-0.108,0.344-0.372,0.262-0.613S114.886,54.24,114.631,54.295z"/>
		<path fill="#0A9995" d="M101.532,58.198c-0.52-0.352-0.719-0.845-0.592-1.467c0.049-0.24-0.104-0.448-0.334-0.535
			c-0.199-0.076-0.427,0.008-0.565,0.166c-0.059-0.069-0.119-0.138-0.179-0.206l-0.103-0.117c-0.126-0.144-0.322-0.205-0.508-0.154
			c-0.186,0.05-0.325,0.201-0.361,0.389c-0.078,0.411,0.013,0.682,0.078,0.879c0.007,0.02,0.013,0.037,0.018,0.054
			c-0.162,0.094-0.278,0.214-0.368,0.308c-0.059,0.061-0.109,0.113-0.15,0.138c-0.201,0.114-0.297,0.353-0.231,0.575
			c0.065,0.222,0.275,0.384,0.506,0.357c0.183-0.011,0.356-0.001,0.423,0.003c0.032,0.519,0.087,1.038,0.312,1.453
			c0.089,0.162,0.259,0.261,0.439,0.261c0.028,0,0.058-0.003,0.087-0.008c0.212-0.037,0.376-0.206,0.407-0.418
			c0.019-0.124,0.032-0.252,0.046-0.38c0.015-0.141,0.033-0.318,0.063-0.469c0.203,0.083,0.425,0.145,0.605,0.145
			c0.335,0,0.527-0.199,0.596-0.386C101.802,58.569,101.724,58.327,101.532,58.198z"/>
		<path fill="#0A9995" d="M122.136,57.466c-0.071-0.09-0.066-0.482-0.063-0.65c0.003-0.23,0.006-0.43-0.051-0.603
			c-0.07-0.216-0.267-0.358-0.502-0.344c-0.226,0.012-0.415,0.174-0.463,0.395c-0.036,0.17-0.058,0.17-0.198,0.17
			c-0.084,0-0.169-0.011-0.247-0.019c-0.093-0.011-0.179-0.019-0.256-0.021c-0.195,0.017-0.384,0.113-0.465,0.296
			c-0.082,0.184-0.047,0.397,0.09,0.545c0.141,0.15,0.198,0.213-0.329,0.771c-0.151,0.16-0.293,0.316-0.391,0.464
			c-0.104,0.159-0.109,0.364-0.013,0.528s0.279,0.263,0.468,0.245c0.272-0.021,0.474-0.106,0.635-0.175
			c0.021-0.009,0.042-0.018,0.062-0.025c0.058,0.551,0.211,0.988,0.673,0.988c0.134,0,0.298-0.07,0.392-0.165
			c0.082-0.083,0.265-0.267,0.297-1.162c0.004,0,0.007-0.001,0.01-0.001c0.261-0.039,0.746-0.111,0.905-0.593
			c0.053-0.158,0-0.326-0.102-0.458C122.484,57.521,122.3,57.464,122.136,57.466z"/>
		<path fill="#0A9995" d="M94.985,63.151c-0.279-0.081-0.448-0.277-0.701-0.591c-0.013-0.015-0.024-0.03-0.036-0.045
			c0.104-0.244,0.176-0.547,0.097-0.798c-0.071-0.224-0.248-0.383-0.476-0.427c-0.213-0.039-0.435,0.064-0.537,0.26
			c-0.007,0.014-0.015,0.027-0.022,0.041c-0.142-0.143-0.302-0.267-0.479-0.372c-0.168-0.103-0.38-0.094-0.543,0.019
			c-0.161,0.112-0.242,0.31-0.205,0.503c0.038,0.202,0.091,0.39,0.144,0.577c0.026,0.09,0.052,0.181,0.075,0.273
			c-0.128,0.161-0.269,0.31-0.408,0.46l-0.227,0.246c-0.123,0.137-0.161,0.33-0.099,0.503s0.214,0.298,0.396,0.325
			c0.069,0.011,0.131,0.015,0.189,0.015c0.198,0,0.348-0.051,0.457-0.097c0.232,0.816,0.344,1.189,0.805,1.189
			c0.435,0,0.575-0.344,0.754-1.087c0.009,0.003,0.019,0.007,0.027,0.01c0.329,0.127,0.848,0.128,1.082-0.273
			c0.077-0.133,0.089-0.294,0.031-0.437C95.253,63.303,95.133,63.194,94.985,63.151z"/>
		<path fill="#0A9995" d="M129.161,63.077c-0.183-0.118-0.344-0.258-0.481-0.417c0.11-0.243,0.215-0.58,0.135-0.875
			c-0.057-0.211-0.195-0.375-0.391-0.461c-0.211-0.095-0.46-0.03-0.601,0.155c-0.039,0.051-0.075,0.105-0.111,0.159
			c-0.005,0.008-0.01,0.016-0.015,0.022c-0.129-0.131-0.28-0.24-0.452-0.326c-0.168-0.087-0.373-0.067-0.525,0.047
			s-0.226,0.306-0.19,0.492c0.039,0.205,0.093,0.396,0.146,0.585c0.009,0.029,0.017,0.059,0.025,0.088
			c-0.296,0.183-0.494,0.435-0.664,0.651c-0.062,0.078-0.122,0.157-0.188,0.23c-0.124,0.138-0.162,0.332-0.099,0.507
			c0.063,0.174,0.218,0.298,0.401,0.323c0.079,0.011,0.152,0.016,0.22,0.016c0,0,0,0,0.001,0c0.234,0,0.409-0.054,0.551-0.101v0.646
			c0,0.152,0.069,0.297,0.189,0.392c0.089,0.071,0.199,0.108,0.311,0.108c0.038,0,0.076-0.004,0.114-0.014
			c0.613-0.144,0.692-0.758,0.734-1.088c0.008-0.057,0.017-0.13,0.028-0.192c0.106,0.055,0.248,0.122,0.422,0.122
			c0.133,0,0.458-0.044,0.63-0.459C129.444,63.465,129.363,63.208,129.161,63.077z"/>
	</g>
	
		<path fill="#0A9995" stroke="#FFFFFF" stroke-width="0.5301" stroke-linecap="round" stroke-linejoin="round" stroke-miterlimit="10" d="
		M154.407,69.57c-7.801-0.937-16.799-1.057-23.762-1.057v0.138l-0.002-0.138c-3.463,0-7.01,0.033-10.443,0.065
		c-3.391,0.033-6.896,0.066-10.27,0.066H71.479c-0.017,0-0.031,0.003-0.046,0.008c-1.079,0.373-2.385,0.554-3.649,0.729
		c-0.691,0.095-1.401,0.193-2.074,0.321c-0.068,0.016-0.119,0.078-0.11,0.148c0.007,0.071,0.066,0.125,0.137,0.125l0,0
		c4.27-0.014,8.826-0.02,13.92-0.02c6.62,0,13.249,0.011,19.88,0.021c6.633,0.011,13.264,0.021,19.885,0.021
		c14.047,0,24.834-0.049,34.973-0.154c0.074,0,0.133-0.057,0.139-0.13C154.534,69.643,154.483,69.578,154.407,69.57z"/>
	<g>
		<g>
			<path fill="#0A9995" d="M76.818,72.877c1.809-2.454,2.725,1.312,4.406,1.454c0.219-0.775,0.219-2.396,0-3.171
				c-0.501-0.4-0.98,0.105-1.466,0.132c-1.997-0.955-4.318-0.095-4.809,1.188c-1.535,4.017,5.197,2.678,4.809,5.15
				c-0.487,3.084-4.335-1.473-4.276-1.453c-0.308-0.098-0.418,0.084-0.798,0c-0.307,0.944-0.102,2.459,0.135,3.302
				c0.644,0.11,0.943-0.123,1.334-0.264c2.98,1.573,7.235-0.94,5.207-3.698C80.335,74.127,77.551,74.781,76.818,72.877z"/>
		</g>
		<g>
			<path fill="#0A9995" d="M129.692,71.027c-3.197,0.54-5.443,3.952-3.07,7c2.834,3.643,9.523,1.163,8.945-3.435
				C135.231,71.939,132.667,70.526,129.692,71.027z M132.095,78.159c-3.84,2.233-5.713-5.171-2.004-5.943
				C133.421,71.525,134.282,76.886,132.095,78.159z"/>
		</g>
		<g>
			<path fill="#0A9995" d="M140.106,72.877c1.818-2.454,2.787,1.24,4.404,1.454c0.297-0.812,0.059-2.146,0.135-3.171
				c-2.451-0.266-6.42-0.656-6.543,2.113c-0.148,3.379,4.492,1.616,4.941,4.622c-2.436,2.01-3.176-1.514-5.074-1.718
				c-0.012,0.756-0.094,2.381,0.131,3.302c2.52-0.073,6.195,0.694,6.943-1.717C146.101,74.358,141.329,74.983,140.106,72.877z"/>
		</g>
		<g>
			<path fill="#0A9995" d="M92.441,71.16c-2.836,0.177-10.993-1.753-8.547,2.772c1.55-0.05,1.008-2.172,3.072-1.717
				c0,1.98,0,3.962,0,5.943c-0.352,0.313-1.427-0.091-1.469,0.528c0,0.176,0,0.353,0,0.528c1.104,0.272,4.731,0.826,5.208-0.396
				c-0.077-0.716-1.276-0.32-1.602-0.792c0.166-1.861-0.344-4.39,0.265-5.811c1.817-0.301,1.303,1.704,2.805,1.716
				C92.727,73.467,92.312,72.046,92.441,71.16z"/>
		</g>
		<g>
			<path fill="#0A9995" d="M100.052,71.819c0.119,0.675,1.418,0.181,1.602,0.792c0.512,2.871,0.48,6.963-3.34,5.548
				c-1.178-0.989-0.479-3.841-0.666-5.811c0.475-0.235,1.449,0.024,1.336-0.794c-0.496-0.686-4.802-1.222-4.673,0.396
				c0.109,0.509,1.207,0.04,1.201,0.66c-2.426,6.648,6.263,9.701,7.61,5.02c0.479-1.661-0.104-3.622,0.131-5.15
				c0.357-0.441,1.627,0.022,1.471-0.926C104.237,70.784,100.132,70.485,100.052,71.819z"/>
		</g>
		<g>
			<path fill="#0A9995" d="M107.126,71.027c-0.156,0.065-0.305,0.141-0.398,0.265c-0.045,0.178-0.193,0.251-0.133,0.526
				c0.059,0.646,1.273,0.148,1.336,0.792c0,1.851,0,3.698,0,5.547c-0.477,0.323-1.615-0.01-1.336,1.058
				c5.246,1.877,12.592-1.657,9.078-6.34C114.19,70.9,110.892,70.973,107.126,71.027z M110.063,78.159c0-1.981,0-3.962,0-5.943
				C115.214,71.09,115.329,79.786,110.063,78.159z"/>
		</g>
		<g>
			<path fill="#0A9995" d="M122.081,77.896c0.086-1.81-0.172-3.957,0.133-5.547c0.242-0.288,1.092,0.024,1.336-0.265
				c0.318-1.656-5.266-1.686-4.941,0c0.328,0.249,1.123,0.035,1.336,0.396c0,1.938,0,3.875,0,5.811
				c-0.881-0.08-1.541,0.059-1.336,1.055c1.348,0.221,3.594,0.221,4.941,0C123.96,77.972,122.321,78.626,122.081,77.896z"/>
		</g>
	</g>
	<path fill="#0A9995" d="M146.384,67.324c-5.918-0.212-13.963-3.415-15.076-7.072c-0.457-1.5,0.283-2.947,2.201-4.302
		c0.055-0.038,0.074-0.109,0.047-0.168c-0.023-0.051-0.072-0.08-0.127-0.08c-0.012,0-0.021,0.002-0.031,0.004
		c-0.699,0.173-1.326,0.602-1.936,1.019c-0.725,0.495-1.41,0.965-2.148,0.965c-0.047,0-0.098-0.003-0.143-0.008
		c-1.059-0.09-2.496-1.303-3.887-2.475c-1.486-1.254-3.023-2.548-4.279-2.667c-0.141-1.664,0.369-2.961,0.82-4.106
		c0.299-0.756,0.578-1.471,0.66-2.222c0.006-0.066-0.033-0.125-0.098-0.146c-0.012-0.004-0.025-0.006-0.041-0.006
		c-0.049,0-0.096,0.026-0.121,0.07c-0.369,0.657-0.707,1.351-1.041,2.023c-0.684,1.39-1.391,2.828-2.359,3.963
		c-1.574-0.429-3.359-0.678-5.09-0.917c-0.816-0.113-1.658-0.23-2.471-0.365c-0.211-3.828-0.377-7.951-0.531-12.961
		c0-0.072-0.057-0.13-0.131-0.134h-0.004c-0.07,0-0.131,0.052-0.141,0.121c-0.203,1.754-0.275,3.855-0.35,6.079
		c-0.082,2.409-0.17,4.901-0.436,7.019c-2.406,0.229-5.166,0.563-7.555,1.283c-1.068-1.836-2.656-4.653-3.412-6.107
		c-0.025-0.047-0.072-0.074-0.125-0.074c-0.018,0-0.033,0.002-0.049,0.009c-0.066,0.023-0.105,0.094-0.086,0.16
		c0.164,0.66,0.424,1.303,0.68,1.923c0.57,1.392,1.156,2.831,0.803,4.673c-1.457,0.438-2.793,1.372-4.084,2.275
		c-1.653,1.16-3.218,2.252-4.904,2.252c-0.959,0-1.885-0.357-2.821-1.094c-0.024-0.02-0.056-0.031-0.088-0.031
		c-0.04,0-0.08,0.019-0.105,0.05c-0.048,0.058-0.042,0.143,0.016,0.19c1.693,1.472,2.281,2.957,1.743,4.419
		c-1.398,3.793-9.877,6.464-14.874,6.565c-0.073,0.004-0.135,0.065-0.135,0.143c0,0.074,0.062,0.134,0.142,0.134h28.572
		c0.07,0,0.129-0.055,0.137-0.125c0.297-3.249,3.863-4.729,7.049-4.729c3.158,0,6.684,1.479,6.959,4.729
		c0.006,0.07,0.066,0.125,0.141,0.125l0,0c1.385-0.013,2.869-0.019,4.533-0.019c2.145,0,4.301,0.011,6.453,0.021
		c2.156,0.01,4.314,0.019,6.457,0.019c4.57,0,8.041-0.047,11.264-0.154c0.078-0.001,0.135-0.063,0.135-0.137
		C146.519,67.387,146.462,67.327,146.384,67.324z M111.462,54.532c-0.008-0.618-0.018-1.253-0.049-1.86
		c0.092-0.002,0.186-0.002,0.275-0.002c1.756,0,3.242,0.297,4.682,0.588c0.535,0.106,1.088,0.218,1.646,0.312
		c-0.529,1.327-1.24,2.508-1.928,3.651c-0.707,1.167-1.438,2.376-1.975,3.747C111.554,60.531,111.509,57.615,111.462,54.532z
		 M103.263,53.634c1.689-0.416,3.607-0.89,5.514-0.89c0.344,0,0.678,0.016,0.998,0.047c-0.096,0.756-0.131,1.573-0.168,2.368
		c-0.123,2.712-0.238,5.274-2.414,5.807c-1.531-2.33-2.883-4.87-4.133-7.281L103.263,53.634z M92.598,59.601
		c0.867,0.689,1.918,1.283,2.936,1.857c2.099,1.191,4.271,2.42,4.995,4.545H89.394C89.789,63.212,91.206,61.368,92.598,59.601z
		 M97.538,60.501c-1.227-0.607-2.497-1.235-3.8-1.807c1.689-1.879,4.187-3.322,7.827-4.532c0.229,0.621,0.604,1.332,1.002,2.08
		c1.252,2.354,2.668,5.022,0.66,6.834C101.224,62.325,99.351,61.399,97.538,60.501z M130.019,65.984
		c-0.861,0-1.736,0.01-2.609,0.021c-0.873,0.009-1.746,0.02-2.609,0.02c-1.75,0-3.074-0.042-4.262-0.139
		c0.807-2.064,2.613-3.084,4.529-4.163c1.107-0.626,2.254-1.271,3.162-2.134c1.793,1.474,2.949,3.629,3.434,6.41
		C131.159,65.989,130.618,65.984,130.019,65.984z M127.325,58.692c-1.664,0.698-3.256,1.496-4.797,2.271
		c-1.43,0.717-2.91,1.459-4.439,2.117c-2.225-1.441-0.973-3.863,0.244-6.206c0.504-0.977,0.986-1.9,1.182-2.71
		C122.97,55.188,125.528,56.67,127.325,58.692z"/>
	<g>
		<g>
			<g>
				<path fill="#0A9995" d="M79.764,63.748c-3.062,0-6.222-0.939-7.76-1.867c-10.328-6.228-14.65-20.182-17.262-31.643
					c-0.031-0.139-0.121-0.258-0.246-0.327c-0.075-0.041-0.158-0.062-0.241-0.062c-0.056,0-0.113,0.009-0.167,0.029
					c-1.778,0.629-3.836,1.046-5.826,1.45c-2.952,0.599-6.005,1.218-8.28,2.552c-1.062,0.622-3.563,2.263-3.846,4.051
					c-0.17,1.082,0.076,2.047,0.712,2.792c0.73,0.854,1.94,1.364,3.237,1.364c1.002,0,1.891-0.316,2.44-0.867
					c0.402-0.404,0.614-0.92,0.612-1.495c-0.002-0.968-0.815-1.745-1.898-1.865c0.24-0.077,0.498-0.114,0.747-0.114
					c0.676,0,1.299,0.261,1.667,0.698c0.363,0.431,0.484,1.011,0.361,1.726c-0.295,1.721-2.248,2.334-3.976,2.334
					c-2.104,0-4.084-0.825-4.707-1.962c-0.701-1.28-0.783-2.535-0.244-3.728c1.256-2.779,5.682-4.91,9.262-5.713
					c7.613-1.707,16.667-5.385,24.84-10.092c0.284-0.163,0.617-0.339,0.976-0.53c2.174-1.152,5.459-2.894,4.872-5.558
					c-0.286-1.297-1.423-1.878-2.423-1.878c-0.25,0-0.506,0.038-0.753,0.114c0.236-0.24,0.547-0.362,0.925-0.362
					c0.957,0,2.098,0.775,2.715,1.843c0.39,0.675,0.902,2.054-0.05,3.705c-1.16,2.012-4.165,3.499-6.816,4.81
					c-0.929,0.459-1.806,0.893-2.608,1.344c-0.541,0.304-1.39,0.645-2.288,1.006c-2.236,0.898-4.77,1.917-5.283,3.356
					c-1.091,3.06,0.781,8.603,1.899,11.915l0.233,0.693c2.131,6.37,6.982,17.539,15.52,20.781c0.927,0.352,1.979,0.538,3.04,0.538
					c2.16,0,4.174-0.765,5.257-1.996c0.041-0.047,0.073-0.1,0.094-0.158c0.537-1.467,0.088-2.616-0.543-3.49
					c0.599,0.438,1.118,0.979,1.429,1.622c0.369,0.764,0.386,1.583,0.05,2.438C84.56,63.417,81.506,63.748,79.764,63.748z"/>
				<path fill="#0A9995" d="M75.497,16.408c0.004,0.504-0.125,1.072-0.479,1.688c-1.084,1.88-4.017,3.331-6.604,4.611
					c-0.935,0.462-1.817,0.899-2.631,1.356c-0.513,0.288-1.347,0.624-2.23,0.978c-2.448,0.984-4.979,2.001-5.567,3.652
					c-1.15,3.223,0.757,8.87,1.896,12.243l0.233,0.692c2.16,6.453,7.086,17.774,15.816,21.089c0.219,0.084,0.445,0.158,0.676,0.224
					c-1.803-0.341-3.396-0.917-4.344-1.488C61.98,55.254,57.617,40.605,55.229,30.126c-0.063-0.278-0.243-0.516-0.493-0.654
					c-0.149-0.082-0.315-0.124-0.482-0.124c-0.112,0-0.225,0.019-0.333,0.057c-1.745,0.618-3.786,1.031-5.759,1.432
					c-2.992,0.607-6.086,1.234-8.433,2.61c-1.124,0.659-3.771,2.406-4.088,4.406c-0.19,1.21,0.083,2.298,0.791,3.151
					c-0.295-0.212-0.522-0.449-0.662-0.703c-0.63-1.151-0.705-2.225-0.227-3.282c1.133-2.506,5.343-4.629,8.916-5.431
					c7.66-1.718,16.765-5.416,24.98-10.146c0.279-0.161,0.607-0.334,0.96-0.521C72.272,19.928,74.922,18.524,75.497,16.408
					 M85.174,60.051c-0.005,0.312-0.074,0.634-0.206,0.968c-0.718,1.819-3.247,2.188-4.891,2.226
					c1.955-0.185,3.67-0.949,4.702-2.122c0.082-0.093,0.146-0.2,0.188-0.316C85.062,60.545,85.13,60.294,85.174,60.051
					 M72.786,12.296c-1.081,0-1.977,0.787-1.976,2.733c0.159-1,0.972-1.485,1.804-1.485c0.849,0,1.719,0.506,1.935,1.485
					c0.593,2.688-3.65,4.419-5.609,5.547c-7.466,4.299-16.613,8.224-24.7,10.037c-4.741,1.063-12.284,4.807-9.347,10.169
					c0.761,1.388,3.009,2.222,5.146,2.222c2.125,0,4.139-0.825,4.469-2.749c0.353-2.048-1.112-3.009-2.521-3.009
					c-1.052,0-2.074,0.536-2.286,1.555c0.359-0.317,0.807-0.458,1.244-0.458c0.867,0,1.691,0.555,1.693,1.382
					c0.003,1.223-1.211,1.86-2.553,1.86c-1.804,0-3.837-1.151-3.456-3.577c0.221-1.396,2.217-2.885,3.605-3.698
					c3.716-2.179,9.571-2.388,14.02-3.962c2.854,12.524,7.448,25.905,17.491,31.96c1.747,1.054,5.026,1.939,8.019,1.939
					c2.777,0,5.307-0.763,6.135-2.862c1.18-3.002-1.671-5.101-4.006-5.811c0.417,0.804,3.095,2.266,2.136,4.887
					c-1.022,1.163-2.919,1.826-4.881,1.826c-0.971,0-1.957-0.162-2.862-0.506c-7.536-2.861-12.55-12.483-15.223-20.472
					c-1.026-3.075-3.247-9.166-2.135-12.282c0.631-1.77,5.488-3.051,7.345-4.094c3.212-1.806,7.973-3.497,9.612-6.34
					C77.758,15.346,74.913,12.297,72.786,12.296L72.786,12.296z"/>
			</g>
		</g>
		<g>
			<path fill="#0A9995" d="M141.971,63.588c-2.467,0-4.42-0.616-5.502-1.735c-0.729-0.753-1.089-1.751-1.072-2.969
				c0.56-0.979,1.114-1.911,2.043-2.455c-0.856,1.085-1.196,2.36-0.865,3.52c0.475,1.658,2.222,2.648,4.673,2.648
				c0.328,0,0.676-0.017,1.042-0.052c5.896-0.567,11.327-7.396,13.605-11.343c1.271-2.208,4.248-7.378,3.938-11.645
				c-0.576-7.933-5.058-12.016-9.803-16.338c-0.606-0.552-1.221-1.112-1.837-1.688c-0.303-0.282-0.617-0.553-0.932-0.823
				c-1.411-1.214-2.744-2.361-2.783-4.5c-0.016-0.832,0.317-1.638,0.938-2.27c0.608-0.62,1.443-1.005,2.179-1.005
				c0.401,0,0.739,0.107,1.009,0.313c-0.097-0.012-0.196-0.018-0.299-0.018c-1.308,0-2.754,1.033-2.823,2.57
				c-0.107,2.356,3.071,4.245,5.876,5.912c1.355,0.806,2.637,1.567,3.355,2.262c1.75,1.689,2.852,3.497,3.916,5.244
				c0.823,1.35,1.6,2.625,2.607,3.716c0.096,0.104,0.229,0.161,0.367,0.161c0.04,0,0.08-0.005,0.119-0.015
				c0.177-0.043,0.316-0.179,0.363-0.355c0.519-1.918,0.68-4.407-0.13-6.318c2.713,1.26,6.025,2.131,9.25,2.979
				c3.873,1.018,7.878,2.071,10.7,3.77c1.233,0.743,3.272,2.884,3.734,5.123c0.225,1.09,0.041,2.058-0.545,2.875
				c-0.638,0.89-2.111,1.442-3.848,1.442c-2.205,0-4.537-0.913-4.728-2.658c-0.064-0.583,0.051-1.043,0.341-1.367
				c0.31-0.345,0.824-0.536,1.448-0.536c0.435,0,0.881,0.091,1.297,0.257c-0.857,0.156-1.84,0.458-2.189,1.547
				c-0.04,0.124-0.03,0.258,0.027,0.375c0.631,1.274,1.745,2.005,3.056,2.005c1.258,0,2.553-0.686,3.299-1.748
				c0.672-0.956,0.828-2.078,0.439-3.159c-1.393-3.869-6.541-4.827-11.519-5.753c-2.192-0.408-4.264-0.793-5.864-1.411
				c-0.058-0.022-0.119-0.034-0.18-0.034c-0.075,0-0.15,0.017-0.219,0.05c-0.125,0.061-0.219,0.171-0.26,0.304
				c-0.318,1.042-0.636,2.107-0.958,3.187c-3.307,11.081-7.054,23.639-16.548,28.477C146.951,63.016,144.313,63.588,141.971,63.588z
				"/>
			<path fill="#0A9995" d="M144.979,16.038c0.099,2.525,3.293,4.423,6.121,6.104c1.33,0.791,2.587,1.538,3.265,2.192
				c1.703,1.645,2.787,3.424,3.836,5.145c0.836,1.372,1.626,2.667,2.667,3.795c0.191,0.208,0.459,0.322,0.734,0.322
				c0.079,0,0.159-0.009,0.238-0.029c0.354-0.087,0.632-0.359,0.728-0.71c0.448-1.66,0.635-3.73,0.199-5.548
				c2.535,1.043,5.456,1.811,8.311,2.561c3.839,1.009,7.809,2.053,10.569,3.714c0.308,0.186,0.669,0.464,1.042,0.811
				c-2.432-1.942-6.328-2.667-9.88-3.328c-2.169-0.403-4.218-0.785-5.774-1.386c-0.116-0.044-0.238-0.067-0.36-0.067
				c-0.15,0-0.3,0.034-0.438,0.101c-0.25,0.121-0.438,0.341-0.519,0.607c-0.319,1.042-0.637,2.109-0.959,3.189
				c-3.278,10.984-6.993,23.435-16.297,28.174c-1.674,0.853-4.222,1.403-6.492,1.403c-0.082,0-0.164-0.001-0.244-0.002
				c0.199-0.01,0.404-0.023,0.61-0.044c6.099-0.586,11.664-7.561,13.991-11.591c1.294-2.248,4.324-7.511,4.002-11.93
				c-0.59-8.132-5.144-12.28-9.964-16.672c-0.605-0.551-1.218-1.109-1.833-1.684c-0.308-0.287-0.627-0.562-0.946-0.836
				c-1.381-1.188-2.574-2.215-2.609-4.13C144.977,16.146,144.978,16.091,144.979,16.038 M184.623,36.922
				c0.239,0.47,0.425,0.96,0.526,1.456c0.198,0.962,0.048,1.774-0.461,2.484c-0.296,0.413-0.839,0.745-1.525,0.96
				c0.399-0.294,0.755-0.652,1.044-1.064c0.769-1.093,0.946-2.377,0.5-3.616C184.681,37.067,184.652,36.994,184.623,36.922
				 M177.548,38.681c-0.219,0.215-0.405,0.482-0.54,0.816c0.02-0.249,0.095-0.448,0.225-0.593
				C177.312,38.814,177.42,38.739,177.548,38.681 M135.951,58.923c-0.013,0.392,0.034,0.782,0.143,1.163
				c0.217,0.758,0.658,1.394,1.283,1.882c-0.204-0.142-0.388-0.296-0.549-0.463c-0.617-0.638-0.923-1.453-0.933-2.486
				C135.914,58.986,135.933,58.954,135.951,58.923 M147.594,12.434c-1.673,0-3.656,1.593-3.616,3.784
				c0.053,2.86,2.166,4.085,3.873,5.679c5.494,5.136,10.85,8.983,11.482,17.697c0.287,3.938-2.326,8.675-3.871,11.358
				c-2.404,4.163-7.734,10.567-13.221,11.095c-0.35,0.033-0.681,0.05-0.994,0.05c-5.225,0-5.448-4.47-1.943-6.654
				c-2.529,0.051-3.473,1.672-4.404,3.303c-0.133,3.982,3.343,5.343,7.071,5.343c2.558,0,5.233-0.64,6.946-1.512
				c10.623-5.412,14.154-20.169,17.758-31.963c5.211,2.011,15.199,1.609,17.092,6.867c0.808,2.244-1.261,4.238-3.268,4.238
				c-1.009,0-2.001-0.502-2.607-1.727c0.428-1.331,2.152-1.145,3.068-1.453c-0.741-0.651-1.742-1.003-2.651-1.003
				c-1.336,0-2.472,0.762-2.286,2.457c0.223,2.039,2.767,3.104,5.225,3.104c1.751,0,3.458-0.539,4.254-1.65
				c2.266-3.159-1.264-7.469-3.338-8.718c-5.844-3.519-16.168-4.196-21.895-7.792c1.891,1.514,2.107,4.798,1.334,7.66
				c-2.246-2.433-3.373-5.92-6.543-8.98c-2.246-2.172-9.221-4.682-9.08-7.792c0.058-1.271,1.27-2.093,2.324-2.093
				c0.764,0,1.445,0.431,1.547,1.432C149.799,13.227,148.773,12.434,147.594,12.434L147.594,12.434z"/>
		</g>
		<g>
			<path fill="#0A9995" d="M89.176,53.381c-0.494,0-1.046-0.279-1.597-0.808c-1.679-1.61-2.647-4.792-3.583-7.87
				c-0.711-2.339-1.384-4.549-2.353-6.041c-0.095-0.146-0.255-0.228-0.419-0.228c-0.069,0-0.139,0.014-0.205,0.044
				c-0.435,0.196-0.902,0.359-1.369,0.523c-1.282,0.45-2.607,0.915-3.377,2.025c-0.071,0.102-0.101,0.226-0.085,0.348
				c0.042,0.324,0.09,0.673,0.141,1.041c0.375,2.688,0.941,6.748-0.66,8.312c-0.423,0.412-0.991,0.622-1.688,0.622
				c-0.9,0-1.926-0.378-2.745-0.93c0.142,0.015,0.288,0.021,0.436,0.021c1.753,0,3.531-1.057,4.137-2.459
				c1.233-2.859-0.271-5.774-1.599-8.346c-0.71-1.376-1.381-2.677-1.571-3.82c-0.297-1.796,0.103-3.45,1.126-4.657
				c0.977-1.152,2.423-1.787,4.072-1.787c0.116,0,0.233,0.003,0.351,0.01C79,30.299,79.496,31.55,80.02,32.87
				c0.312,0.786,0.634,1.599,1.031,2.339c0.087,0.164,0.257,0.264,0.44,0.264c0.015,0,0.03,0,0.045-0.002
				c0.199-0.018,0.369-0.153,0.431-0.344c1.374-4.241-0.652-8.547-3.522-10.38c0.253-0.057,0.508-0.084,0.766-0.084
				c2.354,0,4.576,2.381,6.725,4.684c1.551,1.662,3.016,3.232,4.554,3.966c0.069,0.033,0.142,0.049,0.215,0.049
				c0.12,0,0.238-0.043,0.332-0.125c0.1-0.088,0.158-0.21,0.167-0.338c1.125,1.989,2.529,3.8,3.918,5.343
				c-3.03-1.104-5.146-3.378-7.369-5.764c-1.39-1.493-2.827-3.037-4.5-4.248c-0.088-0.064-0.191-0.095-0.293-0.095
				c-0.122,0-0.243,0.044-0.338,0.132c-0.175,0.161-0.212,0.423-0.09,0.626c2.274,3.77,3.969,8.866,5.608,13.794
				c0.452,1.359,0.901,2.708,1.357,4.018c-0.182,0.415-0.332,0.833-0.45,1.259c-0.694-1.808-1.312-3.706-1.914-5.555
				c-0.977-3-1.987-6.103-3.323-8.842c-0.084-0.173-0.259-0.281-0.449-0.281c-0.016,0-0.033,0.001-0.05,0.002
				c-0.208,0.021-0.381,0.169-0.434,0.372c-1.396,5.354,1.653,11.029,4.103,15.589l0.608,1.136c0.134,0.251,0.229,0.569,0.32,0.878
				c0.197,0.662,0.419,1.413,1.121,1.733c0.154,0.07,0.31,0.105,0.465,0.105c0.212,0,0.509-0.066,0.785-0.36
				C90.009,53.15,89.618,53.381,89.176,53.381z M77.677,30.78c-1.942,0.299-3.202,2.262-4.231,4.078
				c-0.069,0.123-0.084,0.268-0.041,0.402l0.166,0.518c0.452,1.432,0.919,2.912,2.178,3.711c0.082,0.052,0.175,0.078,0.268,0.078
				s0.186-0.026,0.268-0.078c0.508-0.323,1.103-0.566,1.732-0.825c0.869-0.356,1.768-0.726,2.467-1.333
				c0.126-0.109,0.189-0.274,0.168-0.44c-0.349-2.776-1.188-4.734-2.563-5.986c-0.093-0.084-0.213-0.13-0.336-0.13
				C77.728,30.774,77.702,30.776,77.677,30.78z M102.671,36.578c-0.878,0-1.855-0.125-2.907-0.373
				c-3.899-0.921-6.842-4.439-7.498-8.963c-0.248-1.707,0.127-3.194,1.084-4.301c0.975-1.126,2.523-1.799,4.143-1.799
				c1.328,0,2.836,0.47,3.758,1.691c-0.806-0.373-1.727-0.575-2.687-0.575c-1.76,0-3.348,0.702-4.248,1.878
				c-0.608,0.794-1.21,2.195-0.625,4.361c0.832,3.072,3.595,5.136,6.875,5.136c0.148,0,0.298-0.004,0.448-0.013
				c1.01-0.057,1.904-0.47,2.769-0.87l0.216-0.099c1.688-0.774,2.747-2.28,2.98-4.24c0.33-2.768-0.995-6.007-3.149-7.703
				c-1.565-1.23-3.937-1.936-6.507-1.936c-4.067,0-8.448,1.927-8.456,6.16c-0.001,1.03,0.126,2.047,0.357,3.042
				c-1.538-3.855-2.064-6.876,1.032-8.403c1.887-0.93,4.114-1.422,6.439-1.422c5.956,0,11.382,3.093,12.623,7.194
				c1.256,4.151-0.46,9.02-3.748,10.633C104.76,36.375,103.784,36.578,102.671,36.578z"/>
			<path fill="#0A9995" d="M92.357,19.281c-1.879,0.85-3.357,2.25-3.83,4.252c-0.093-1.55,0.423-2.759,1.951-3.511
				C91.072,19.729,91.701,19.481,92.357,19.281 M104.493,20.616c2.164,1.222,3.759,2.929,4.348,4.874
				c1.189,3.931-0.409,8.528-3.489,10.039c-0.743,0.364-1.645,0.549-2.681,0.549c-0.839,0-1.778-0.121-2.792-0.359
				c-3.698-0.874-6.492-4.229-7.118-8.548c-0.227-1.559,0.108-2.908,0.967-3.902c0.881-1.018,2.288-1.626,3.765-1.626
				c0.354,0,0.721,0.037,1.084,0.117c-0.004,0-0.008,0-0.013,0c0,0,0,0-0.001,0c-1.913,0-3.649,0.775-4.645,2.074
				c-0.677,0.884-1.349,2.433-0.71,4.797c0.892,3.292,3.849,5.505,7.357,5.505c0.157,0,0.315-0.004,0.477-0.013
				c1.104-0.062,2.043-0.496,2.95-0.916l0.213-0.098c1.854-0.849,3.016-2.496,3.271-4.635
				C107.807,25.698,106.565,22.475,104.493,20.616 M79.866,25.231c1.576,0.329,3.153,1.775,4.699,3.388
				c-0.33-0.277-0.669-0.543-1.019-0.797c-0.176-0.127-0.381-0.19-0.586-0.19c-0.244,0-0.487,0.089-0.677,0.264
				c-0.12,0.111-0.208,0.245-0.262,0.391C81.486,27.1,80.739,26.053,79.866,25.231 M77.837,29.873c0.038,0,0.075,0,0.112,0.001
				c0.156,0.193,0.3,0.403,0.435,0.625c-0.179-0.146-0.402-0.224-0.631-0.224c-0.05,0-0.102,0.004-0.152,0.012
				c-2.141,0.329-3.476,2.364-4.556,4.265c0.025-1.18,0.402-2.243,1.102-3.068C75.027,30.445,76.338,29.873,77.837,29.873
				 M82.631,30.067c0.527,0.959,1.023,1.991,1.496,3.074c-0.188-0.225-0.468-0.357-0.766-0.357c-0.033,0-0.066,0.001-0.1,0.005
				c-0.133,0.013-0.259,0.053-0.373,0.113C82.945,31.928,82.85,30.974,82.631,30.067 M88.676,32.733
				c0.524,0.418,1.054,0.771,1.598,1.03c0.137,0.065,0.285,0.097,0.431,0.097c0.147,0,0.293-0.033,0.428-0.096
				c0.635,1.051,1.34,2.047,2.071,2.976C91.521,35.691,90.104,34.255,88.676,32.733 M82.042,35.807
				c-0.05,0.928,0.006,1.858,0.145,2.783c-0.041-0.067-0.083-0.134-0.125-0.199c-0.189-0.292-0.509-0.455-0.839-0.455
				c-0.138,0-0.277,0.028-0.41,0.088c-0.345,0.155-0.718,0.292-1.11,0.43c0.393-0.209,0.769-0.45,1.109-0.746
				c0.252-0.219,0.378-0.549,0.336-0.88c-0.043-0.34-0.093-0.668-0.15-0.985c0.148,0.084,0.317,0.13,0.492,0.13
				c0.03,0,0.06-0.001,0.09-0.004C81.749,35.954,81.907,35.896,82.042,35.807 M74.359,38.834c0.298,0.416,0.663,0.785,1.122,1.076
				c0.164,0.104,0.35,0.156,0.536,0.156s0.372-0.052,0.536-0.156c0.118-0.075,0.243-0.146,0.373-0.214
				c-0.405,0.281-0.77,0.621-1.064,1.046c-0.141,0.203-0.202,0.451-0.17,0.696c0.004,0.033,0.009,0.066,0.013,0.099
				c-0.327-0.729-0.694-1.441-1.049-2.129C74.555,39.215,74.456,39.024,74.359,38.834 M85.261,47.065
				c0.427,0.833,0.861,1.642,1.278,2.418c0.207,0.384,0.41,0.763,0.608,1.136c0.11,0.205,0.193,0.486,0.281,0.783
				c0.04,0.134,0.081,0.273,0.127,0.414C86.603,50.686,85.891,48.952,85.261,47.065 M76.14,48.447
				c-0.125,0.809-0.377,1.489-0.822,1.923c-0.326,0.318-0.776,0.48-1.338,0.48c-0.284,0-0.575-0.04-0.864-0.112
				C74.422,50.368,75.564,49.523,76.14,48.447 M96.696,17.651c-2.298,0-4.606,0.461-6.661,1.474
				c-5.41,2.667-0.65,9.793,0.669,13.735c-3.591-1.712-7.176-8.698-11.494-8.698c-0.646,0-1.309,0.157-1.991,0.511
				c3.331,1.339,5.669,5.985,4.271,10.3c-1.065-1.984-1.575-4.516-3.07-6.075c-0.198-0.016-0.392-0.024-0.584-0.024
				c-3.721,0-6.356,3.012-5.691,7.025c0.566,3.422,4.975,7.778,3.204,11.887c-0.536,1.24-2.139,2.157-3.678,2.157
				c-0.863,0-1.706-0.288-2.33-0.97c0.519,1.454,2.718,2.878,4.639,2.878c0.764,0,1.485-0.226,2.037-0.765
				c2.005-1.958,1.035-6.874,0.666-9.773c0.943-1.359,2.95-1.661,4.541-2.377c2.2,3.386,2.937,11.052,6.01,13.998
				c0.698,0.67,1.365,0.947,1.943,0.947c1.796,0,2.744-2.676,1.128-4.645c0.366,1.251,0.038,3.363-0.811,3.363
				c-0.081,0-0.167-0.02-0.257-0.061c-0.765-0.349-0.762-1.558-1.207-2.391c-2.554-4.812-6.128-10.767-4.669-16.364
				c2.39,4.9,3.691,10.874,5.875,15.98c0.093-1.184,0.393-2.163,0.799-3.038c-2.152-6.144-4.115-13.185-7.076-18.094
				c4.659,3.373,7.384,9.321,13.752,10.565c-3.149-3.196-7.353-8.539-7.344-14.263c0.007-3.848,3.98-5.661,7.956-5.661
				c2.332,0,4.666,0.625,6.197,1.829c3.215,2.529,4.627,9.099,0.27,11.095c-0.91,0.418-1.811,0.869-2.803,0.925
				c-0.142,0.008-0.281,0.012-0.421,0.012c-3.179,0-5.647-2.018-6.393-4.767c-1.015-3.755,1.639-5.61,4.391-5.609
				c1.439,0,2.905,0.507,3.888,1.515c-0.581-2.448-2.731-3.632-4.959-3.631c-3.104,0-6.357,2.297-5.722,6.671
				c0.67,4.626,3.703,8.392,7.878,9.378c1.023,0.241,2.045,0.386,3.021,0.386c1.122,0,2.185-0.192,3.121-0.651
				c3.432-1.684,5.365-6.733,4.006-11.227C108.432,20.685,102.594,17.651,96.696,17.651L96.696,17.651z M76.017,39.066
				c-1.247-0.791-1.637-2.431-2.136-3.962c0.896-1.581,2.101-3.558,3.872-3.83c1.413,1.286,2.103,3.291,2.403,5.679
				C79.042,37.921,77.292,38.258,76.017,39.066L76.017,39.066z"/>
		</g>
		<g>
			<path fill="#0A9995" d="M129.52,53.512c-0.096,0-0.194-0.006-0.296-0.02c-0.325-0.042-0.633-0.292-0.865-0.687
				c0.174,0.105,0.347,0.134,0.479,0.134c0.117,0,0.237-0.021,0.356-0.064c0.633-0.229,0.842-0.857,1.011-1.363
				c0.062-0.187,0.121-0.374,0.207-0.532c2.896-5.406,4.713-11.75,5.251-18.344c0.021-0.251-0.149-0.479-0.397-0.53
				c-0.033-0.007-0.067-0.01-0.101-0.01c-0.211,0-0.404,0.134-0.474,0.34c-1.127,3.337-2.216,6.784-3.27,10.117
				c-0.617,1.95-1.233,3.9-1.86,5.84c-0.084-0.557-0.211-1.094-0.51-1.511l1.098-3.417c1.678-5.232,3.412-10.642,5.223-15.855
				c0.072-0.208-0.001-0.44-0.18-0.569c-0.088-0.063-0.19-0.095-0.293-0.095c-0.107,0-0.214,0.034-0.304,0.103
				c-0.456,0.349-0.86,0.84-1.289,1.359c-0.719,0.872-1.46,1.771-2.522,2.138c-0.277-0.976,0.227-2.246,0.757-3.583
				c0.481-1.214,0.979-2.469,0.918-3.638c-0.128-2.516-2.991-4.018-7.657-4.018c-1.954,0-3.934,0.3-5.296,0.802
				c-2.891,1.064-5.371,4.637-5.53,7.963c-0.109,2.282,0.891,4.049,2.814,4.975c1.125,0.539,2.138,0.856,3.096,0.971
				c0.224,0.026,0.448,0.039,0.675,0.039c2.327,0,4.812-1.391,6.183-3.46c1.191-1.798,1.406-3.831,0.605-5.725
				c-0.619-1.463-1.999-2.269-3.887-2.269c-1.52,0-3.045,0.502-4.138,1.097c0.099-0.307,0.27-0.597,0.512-0.869
				c0.749-0.841,2.106-1.385,3.459-1.385c0.159,0,0.317,0.008,0.474,0.023c3.938,0.386,4.856,2.819,4.936,4.791
				c0.173,4.359-3.552,9.67-7.246,10.333c-1.151,0.207-1.962,0.295-2.711,0.295c-1.115,0-2.085-0.203-3.145-0.658
				c-3.421-1.47-4.997-4.611-4.218-8.4c0.941-4.572,5.369-9.432,11.722-9.432c0.31,0,0.621,0.011,0.939,0.035
				c2.538,0.19,7.004,0.897,8.397,3.488c0.724,1.345,0.505,3.076-0.65,5.146c-0.125,0.224-0.061,0.505,0.148,0.652
				c0.087,0.062,0.188,0.091,0.288,0.091c0.14,0,0.278-0.059,0.376-0.171c1.252-1.431,2.651-3.03,4.448-4.194
				c-0.098,0.946-0.43,1.876-0.776,2.848c-0.619,1.734-1.26,3.528-0.655,5.645c0.055,0.192,0.219,0.333,0.416,0.359
				c0.021,0.002,0.043,0.004,0.064,0.004c0.175,0,0.34-0.092,0.431-0.245c0.821-1.388,1.292-3.108,1.747-4.773
				c0.267-0.977,0.542-1.984,0.884-2.897c0.658-0.268,1.309-0.403,1.938-0.403c2.916,0,4.869,2.798,5.512,5.572
				c0.609,2.628,0.228,6.233-2.854,7.741c-0.188,0.092-0.299,0.291-0.277,0.499c0.073,0.738,0.107,1.649,0.144,2.614
				c0.158,4.213,0.375,9.983,4.347,9.983c0.502,0,1.038-0.094,1.617-0.285c-0.792,0.706-1.934,1.07-2.95,1.07
				c-0.627,0-1.181-0.135-1.601-0.389c-1.904-1.152-1.843-4.038-1.778-7.093c0.036-1.716,0.074-3.49-0.26-5.003
				c-0.415-1.869-2.076-2.384-3.411-2.798c-0.772-0.24-1.502-0.466-1.938-0.888c-0.095-0.091-0.22-0.14-0.348-0.14
				c-0.045,0-0.09,0.006-0.134,0.018c-0.17,0.047-0.303,0.181-0.349,0.352c-0.533,1.985-1.32,4.269-2.231,6.913l-0.699,2.037
				c-0.242,0.713-0.45,1.648-0.671,2.638C132.557,49.804,131.73,53.512,129.52,53.512z M141.303,25.868
				c-0.109,0-0.22,0.007-0.333,0.023c-2.174,0.308-2.759,4.033-3.187,6.753c-0.062,0.391-0.117,0.748-0.173,1.05
				c-0.036,0.199,0.051,0.4,0.221,0.51c0.718,0.464,1.586,0.75,2.425,1.027c0.836,0.276,1.626,0.537,2.243,0.948
				c0.084,0.056,0.181,0.084,0.277,0.084c0.088,0,0.177-0.023,0.256-0.07c1.846-1.098,2.446-3.375,2.904-5.612
				c0.03-0.149-0.009-0.304-0.106-0.421c-0.249-0.298-0.524-0.717-0.814-1.161C144.103,27.604,142.966,25.868,141.303,25.868z"/>
			<path fill="#0A9995" d="M122.861,18.9c-1.327,0.129-2.571,0.386-3.528,0.738c-3.062,1.128-5.689,4.9-5.856,8.409
				c-0.12,2.496,0.98,4.431,3.098,5.45c1.175,0.563,2.238,0.896,3.254,1.016c0.239,0.028,0.486,0.042,0.732,0.042
				c2.443,0,4.946-1.353,6.45-3.465c-1.299,2.526-3.476,4.622-5.642,5.01c-1.12,0.202-1.904,0.288-2.622,0.288
				c-1.044,0-1.953-0.19-2.947-0.618c-3.186-1.369-4.653-4.3-3.925-7.839C112.764,23.611,116.904,19.023,122.861,18.9
				 M123.295,21.946c0.143,0,0.284,0.007,0.425,0.021c2.674,0.263,4.166,1.538,4.443,3.793c-0.085-0.364-0.203-0.726-0.354-1.083
				c-0.701-1.66-2.245-2.574-4.347-2.574c-0.71,0-1.479,0.112-2.229,0.312C121.84,22.118,122.566,21.946,123.295,21.946
				 M141.102,24.483c2.627,0,4.446,2.688,5.025,5.185c0.007,0.03,0.014,0.06,0.02,0.09c-0.214-0.271-0.457-0.642-0.713-1.033
				c-0.979-1.496-2.197-3.357-4.131-3.357c-0.132,0-0.266,0.009-0.402,0.028c-0.845,0.12-1.477,0.634-1.961,1.374
				c0.193-0.697,0.389-1.366,0.615-2C140.083,24.58,140.602,24.483,141.102,24.483 M136.313,24.598
				c-0.141,0.5-0.321,1.007-0.507,1.527c-0.07,0.197-0.142,0.397-0.212,0.6c-0.034-0.032-0.07-0.063-0.109-0.091
				c-0.175-0.127-0.381-0.19-0.586-0.19c-0.214,0-0.429,0.069-0.607,0.206c-0.502,0.384-0.924,0.896-1.371,1.438
				c-0.523,0.635-1.059,1.284-1.711,1.695c0.03-0.492,0.2-1.063,0.422-1.671c0.007,0.005,0.015,0.011,0.021,0.016
				c0.175,0.123,0.376,0.183,0.575,0.183c0.28,0,0.558-0.117,0.754-0.342C133.963,26.848,135.036,25.621,136.313,24.598
				 M134.89,30.556c0.017,0.342,0.06,0.691,0.135,1.048c-0.227,0.032-0.436,0.142-0.591,0.309
				C134.585,31.46,134.737,31.008,134.89,30.556 M146.339,31.101c0.146,2.188-0.503,4.622-2.799,5.747
				c-0.249,0.122-0.43,0.337-0.512,0.59c-0.184-0.293-0.402-0.541-0.645-0.753c0.125,0.053,0.259,0.08,0.393,0.08
				c0.177,0,0.354-0.047,0.512-0.141C145.188,35.492,145.865,33.309,146.339,31.101 M137.503,31.259
				c-0.078,0.449-0.147,0.89-0.214,1.308c-0.061,0.387-0.115,0.739-0.17,1.037c-0.05,0.272,0.016,0.546,0.17,0.762
				c-0.084,0.001-0.169,0.013-0.253,0.036c-0.341,0.095-0.606,0.363-0.698,0.705c-0.255,0.949-0.569,1.97-0.929,3.069
				c0.341-1.764,0.59-3.56,0.742-5.376c0.332-0.017,0.639-0.197,0.812-0.489C137.161,31.975,137.34,31.623,137.503,31.259
				 M143.776,46.716c0.468,1.883,1.307,3.414,2.858,3.961c-0.526-0.001-1.001-0.113-1.337-0.316
				C144.239,49.72,143.881,48.367,143.776,46.716 M132.482,47.815c-0.509,2.176-1.207,4.568-2.448,5.092
				c0.358-0.378,0.522-0.871,0.646-1.237c0.057-0.171,0.115-0.347,0.174-0.455C131.44,50.118,131.984,48.983,132.482,47.815
				 M123.106,17.898c-11.222,0.001-17.174,14.72-7.701,18.792c1.173,0.503,2.228,0.699,3.342,0.699c0.869,0,1.774-0.119,2.799-0.303
				c6.627-1.188,12.182-15.141,2.271-16.113c-0.173-0.017-0.347-0.025-0.522-0.025c-2.355,0-4.812,1.501-4.552,3.725
				c1.04-0.822,2.964-1.568,4.719-1.568c1.468,0,2.817,0.523,3.426,1.963c1.82,4.301-2.407,8.49-6.327,8.49
				c-0.207,0-0.412-0.012-0.616-0.036c-1.01-0.12-1.988-0.47-2.938-0.925c-5.018-2.414-1.785-10.377,2.672-12.019
				c1.295-0.477,3.198-0.771,5.123-0.771c3.479,0,7.026,0.962,7.158,3.544c0.129,2.481-2.627,5.667-1.469,7.792
				c2.18-0.443,3.178-2.757,4.408-3.697c-2.23,6.422-4.301,13.003-6.408,19.548c0.744,0.715,0.525,2.386,0.934,3.434
				c1.943-5.916,3.758-11.958,5.74-17.831c-0.551,6.742-2.465,13.056-5.193,18.147c-0.307,0.569-0.352,1.447-0.947,1.662
				c-0.066,0.023-0.128,0.035-0.187,0.035c-0.799,0-0.846-2.142-0.614-3.204c-1.432,1.265-0.719,4.539,0.936,4.753
				c0.124,0.016,0.243,0.023,0.36,0.023c3.432,0,3.866-6.788,4.845-9.664c1.191-3.493,2.268-6.479,2.939-8.981
				c1.373,1.325,4.641,0.875,5.209,3.434c0.91,4.125-1.055,10.405,2.268,12.416c0.514,0.311,1.167,0.461,1.859,0.461
				c1.743,0,3.724-0.955,4.283-2.707c-1.182,0.641-2.151,0.922-2.95,0.922c-4.317,0-3.603-8.218-3.993-12.146
				c6.107-2.99,3.206-14.262-2.878-14.262c-0.733,0-1.514,0.164-2.329,0.526c-0.98,2.51-1.371,5.6-2.67,7.792
				c-0.99-3.47,1.672-6.131,1.469-9.244c-2.186,1.184-3.773,2.961-5.342,4.754c3.631-6.507-2.107-8.923-8.146-9.376
				C123.753,17.91,123.428,17.897,123.106,17.898L123.106,17.898z M142.776,35.764c-1.33-0.887-3.328-1.11-4.674-1.979
				c0.395-2.154,0.832-7.1,2.938-7.397c0.089-0.013,0.177-0.019,0.263-0.019c1.876,0,3.104,2.87,4.144,4.113
				C144.997,32.68,144.442,34.772,142.776,35.764L142.776,35.764z M150.923,48.97h0.005H150.923z M128.224,49.235h0.005H128.224z"/>
		</g>
	</g>
</g>
</svg>
