<?xml version="1.0" encoding="utf-8"?>
<!-- Generator: Adobe Illustrator 15.0.0, SVG Export Plug-In . SVG Version: 6.00 Build 0)  -->
<!DOCTYPE svg PUBLIC "-//W3C//DTD SVG 1.1//EN" "http://www.w3.org/Graphics/SVG/1.1/DTD/svg11.dtd">
<svg version="1.1" id="Etsy" xmlns="http://www.w3.org/2000/svg" xmlns:xlink="http://www.w3.org/1999/xlink" x="0px" y="0px"
	 width="290px" height="145px" viewBox="0 0 290 145" enable-background="new 0 0 290 145" xml:space="preserve">
<g>
	<path fill="#C42000" d="M-481.333-152.174c-0.022-0.52,0.173-0.942,0.867-0.942c0.693,0,7.732,0.223,12.466,0.223
		c9.814,0,12.169-0.793,13.854-0.793c0.941,0.025,1.14,0.744,1.14,1.165s-0.445,1.313-0.445,2.478c0,1.165,0.272,2.404,0.272,3.42
		c0,1.017-0.868,1.363-1.339,1.363s-0.768-0.174-0.793-1.041c-0.05-1.66,1.165-4.064-10.756-4.064c-6.072,0-6.222,0.694-6.222,2.627
		s0.051,8.327,0.051,9.318s0.297,1.289,1.09,1.289s7.014,0,8.699,0s3.396-0.917,3.594-3.296c0.074-1.264,0.421-1.313,1.041-1.313
		c0.619,0,1.189,0.496,1.09,1.685c-0.099,1.19-0.347,2.454-0.347,4.164c0,1.71,0.347,3.396,0.347,4.635s-1.636,1.536-1.957,0.198
		c-0.322-1.338-0.794-3.594-4.61-3.594s-6.89,0-7.732,0s-1.265,0.471-1.265,1.859c0,1.388,0,8.178,0,9.889
		c0,1.709,0.521,3.543,3.991,3.543s9.765,0.372,12.64-1.884c1.238-1.016,1.61-2.428,2.032-4.733
		c0.198-1.065,2.503-1.041,2.403,1.413c-0.074,1.141-1.167,3.588-1.167,5.159c0,1.314,0.301,3.072-0.914,3.072
		c-1.027,0-0.595-0.523-5.106-0.523c-4.51,0-20.074,0.1-22.676,0.1c-0.967,0-1.165-0.273-1.165-0.868s0.347-1.041,1.165-1.041
		c0.817,0,4.287,0.049,4.287-4.362c0-4.412,0-20.545,0-22.925s-0.521-4.758-3.445-5.056
		C-481.383-151.108-481.309-151.604-481.333-152.174z"/>
	<path fill="#C42000" d="M-449.512-138.304c0-0.744,0.397-1.058,1.289-1.355c1.686-0.644,3.618-2.528,5.254-6.989
		c0.521-1.413,2.305-1.041,2.082,0.396s-0.545,4.089-0.545,5.601c0.768,0,6.468,0,7.187,0c0.72,0,0.843,0.868,0.843,1.562
		s-0.198,1.264-0.817,1.264c-0.669,0-7.212,0-7.212,0s0,7.955,0,12.441s1.536,5.527,3.594,5.527c1.189,0,2.155-0.471,3.048-1.09
		c0.595-0.446,1.934,0.619,1.265,1.486c-0.67,0.868-3.024,3.42-6.395,3.42c-3.371,0-5.8-2.503-5.75-6.691s0.224-11.177,0.224-12.144
		c0-0.966-1.265-2.33-2.677-2.33C-449.288-137.23-449.512-137.841-449.512-138.304z"/>
	<path fill="#C42000" d="M-420.341-141.369c2.329,0,4.139,0.818,4.907,0.818c0.768,0,1.065-0.966,1.908-0.966
		s1.04,0.966,0.817,1.784s-0.371,2.751-0.272,4.907c0.025,0.744-0.57,1.189-1.165,1.189s-0.818-0.248-1.065-1.388
		c-0.248-1.14-1.264-3.891-5.279-3.891c-2.899,0-4.015,1.933-4.015,3.197c0,1.264,0.679,2.473,3.767,3.817
		c3.247,1.413,9.245,2.925,9.245,8.674c-0.198,5.403-5.552,7.113-8.699,7.113c-2.652,0-5.13-0.793-6.221-0.793
		s-1.512,0.917-2.206,0.917c-0.693,0-1.189-0.793-0.917-1.611c0.272-0.818,0.619-1.437,0.619-2.255s-0.47-2.727-0.197-4.312
		s2.403-1.809,2.379-0.272c-0.024,1.537,0.67,5.923,6.221,5.923c4.486,0,5.006-3.123,5.006-4.015c0-1.09-0.223-2.652-5.601-4.783
		s-7.46-4.114-7.46-7.509S-425.546-141.369-420.341-141.369z"/>
	<path fill="#C42000" d="M-409.932-139.931c0-0.521,0.024-0.768,0.619-0.768s3.742,0.099,5.402,0.099s4.71-0.099,5.329-0.099
		c0.446,0,0.322,0.545,0.322,0.917c0,0.372,0.049,0.991-0.744,0.991s-2.279,0.273-2.279,1.586c0,1.313,0.35,1.68,0.867,3.098
		c0.57,1.562,4.684,11.004,4.684,11.004s3.222-6.618,4.188-8.476s1.562-4.188,1.562-5.229c0-1.041-1.065-1.735-1.958-1.909
		s-1.338-0.124-1.338-1.189c0-0.545,0.099-0.843,0.545-0.843s3.122,0.173,5.104,0.173c1.983,0,4.289-0.124,4.933-0.124
		c0.595,0,0.422,0.496,0.422,0.917c0,0.421-0.05,0.842-0.57,0.917c-0.521,0.074-2.825-0.025-5.229,5.081
		c-2.403,5.105-7.162,15.39-10.606,22.082c-1.785,3.519-5.155,7.361-8.675,7.361c-1.834,0.024-2.553-1.562-2.553-2.355
		c0-0.793,0.446-2.082,2.527-2.082c1.388,0,1.76,0.669,2.429,0.669c1.389,0,4.908-3.371,5.898-9.417
		c0.149-1.388-1.278-4.787-1.833-6.32c-0.826-2.28-3.338-8.889-5.155-12.813c-0.621-1.341-2.255-2.032-3.296-2.156
		C-409.833-138.915-409.932-139.088-409.932-139.931z"/>
</g>
<path d="M-187.857,25.796V14.037h-3.879V9.986h3.879V5.588c0-2.636,2.389-4.411,4.32-4.411h4.34v3.687h-2.004
	c-0.986,0-2.301,0.802-2.301,1.787v3.336h3.91v4.051h-3.91v11.759H-187.857z"/>
<path fill="#A30F1D" d="M-214.641,164.288v-11.759h-3.879v-4.051h3.879v-4.398c0-2.636,2.389-4.411,4.32-4.411h4.34v3.687h-2.004
	c-0.986,0-2.301,0.802-2.301,1.787v3.336h3.91v4.051h-3.91v11.759H-214.641z"/>
<path d="M-459.118,143.83c-0.967,0.43-2.004,0.723-3.096,0.851c1.111-0.666,1.967-1.725,2.368-2.98
	c-1.04,0.614-2.194,1.064-3.422,1.306c-0.981-1.047-2.382-1.701-3.932-1.701c-2.978,0-5.387,2.411-5.387,5.393
	c0,0.421,0.049,0.828,0.138,1.223c-4.477-0.224-8.449-2.366-11.104-5.631c-0.466,0.796-0.731,1.726-0.731,2.711
	c0,1.868,0.953,3.52,2.398,4.484c-0.882-0.027-1.717-0.269-2.438-0.672c-0.002,0.023-0.002,0.044-0.002,0.067
	c0,2.611,1.857,4.79,4.32,5.283c-0.453,0.126-0.93,0.188-1.42,0.188c-0.344,0-0.683-0.035-1.014-0.097
	c0.688,2.141,2.677,3.699,5.035,3.742c-1.847,1.446-4.168,2.309-6.691,2.309c-0.436,0-0.865-0.029-1.287-0.076
	c2.384,1.529,5.216,2.422,8.26,2.422c9.908,0,15.328-8.211,15.328-15.336c0-0.23-0.003-0.465-0.014-0.693
	C-460.756,145.861-459.842,144.913-459.118,143.83z"/>
<path fill="#A30F1D" d="M-459.118,273.83c-0.967,0.43-2.004,0.723-3.096,0.852c1.111-0.666,1.967-1.725,2.368-2.98
	c-1.04,0.613-2.194,1.064-3.422,1.305c-0.981-1.047-2.382-1.701-3.932-1.701c-2.978,0-5.387,2.412-5.387,5.393
	c0,0.422,0.049,0.828,0.138,1.223c-4.477-0.223-8.449-2.365-11.104-5.631c-0.466,0.797-0.731,1.727-0.731,2.711
	c0,1.869,0.953,3.52,2.398,4.484c-0.882-0.027-1.717-0.268-2.438-0.672c-0.002,0.023-0.002,0.045-0.002,0.068
	c0,2.611,1.857,4.789,4.32,5.283c-0.453,0.125-0.93,0.188-1.42,0.188c-0.344,0-0.683-0.035-1.014-0.096
	c0.688,2.141,2.677,3.699,5.035,3.742c-1.847,1.445-4.168,2.309-6.691,2.309c-0.436,0-0.865-0.029-1.287-0.076
	c2.384,1.529,5.216,2.422,8.26,2.422c9.908,0,15.328-8.211,15.328-15.336c0-0.23-0.003-0.465-0.014-0.693
	C-460.756,275.861-459.842,274.914-459.118,273.83z"/>
<g>
	<path d="M-348.629,163.866c0,0-0.007-2.454,0.279-3.669c0.307-1.296,2.058-8.711,2.058-8.711s-0.515-1.019-0.515-2.528
		c0-2.37,1.377-4.139,3.088-4.139c1.452,0,2.154,1.091,2.154,2.398c0,1.464-0.931,3.651-1.41,5.674
		c-0.401,1.697,0.847,3.08,2.522,3.08c3.029,0,5.068-3.891,5.068-8.499c0-3.505-2.357-6.126-6.653-6.126
		c-4.847,0-7.87,3.618-7.87,7.654c0,1.396,0.411,2.377,1.055,3.137c0.297,0.35,0.341,0.491,0.231,0.894
		c-0.077,0.292-0.254,0.999-0.327,1.281c-0.105,0.404-0.432,0.55-0.801,0.399c-2.234-0.911-3.275-3.357-3.275-6.106
		c0-4.542,3.831-9.987,11.428-9.987c6.105,0,10.121,4.416,10.121,9.158c0,6.271-3.488,10.955-8.626,10.955
		c-1.727,0-3.35-0.932-3.907-1.99c0,0-0.928,3.684-1.124,4.392c-0.337,1.232-1.607,3.425-1.607,3.425s-0.463,0.544-1.246,0.777
		C-348.357,165.444-348.629,163.866-348.629,163.866z"/>
</g>
<g display="none">
	<path display="inline" fill="#A30F1D" d="M-348.629,293.866c0,0-0.007-2.454,0.279-3.669c0.307-1.296,2.058-8.711,2.058-8.711
		s-0.515-1.019-0.515-2.528c0-2.37,1.377-4.139,3.088-4.139c1.452,0,2.154,1.091,2.154,2.398c0,1.464-0.931,3.651-1.41,5.674
		c-0.401,1.697,0.847,3.08,2.522,3.08c3.029,0,5.068-3.891,5.068-8.499c0-3.505-2.357-6.127-6.653-6.127
		c-4.847,0-7.87,3.618-7.87,7.654c0,1.396,0.411,2.377,1.055,3.137c0.297,0.35,0.341,0.491,0.231,0.894
		c-0.077,0.292-0.254,0.999-0.327,1.281c-0.105,0.404-0.432,0.55-0.801,0.399c-2.234-0.911-3.275-3.357-3.275-6.106
		c0-4.542,3.831-9.987,11.428-9.987c6.105,0,10.121,4.416,10.121,9.158c0,6.271-3.488,10.955-8.626,10.955
		c-1.727,0-3.35-0.932-3.907-1.99c0,0-0.928,3.684-1.124,4.392c-0.337,1.232-1.607,3.425-1.607,3.425s-0.463,0.544-1.246,0.777
		C-348.357,295.444-348.629,293.866-348.629,293.866z"/>
</g>
<rect x="-606.568" y="216.558" fill="#FFFFFF" width="64" height="64"/>
<path d="M-578.605,269.335v-19.849h-6.544v-6.836h6.544v-7.425c0-4.449,4.034-7.445,7.293-7.445h7.325v6.224h-3.382
	c-1.663,0-3.882,1.354-3.882,3.015v5.632h6.597v6.836h-6.597v19.849H-578.605z"/>
<g>
	<rect x="-261.631" y="-156.514" fill="#C42000" width="26.465" height="36.303"/>
	
		<rect x="-271.241" y="-155.354" transform="matrix(0.7071 0.7071 -0.7071 0.7071 -179.6379 145.134)" fill="#C42000" width="12.459" height="22.158"/>
	
		<rect x="-237.966" y="-155.354" transform="matrix(0.707 -0.7072 0.7072 0.707 34.1367 -206.1501)" fill="#C42000" width="12.457" height="22.158"/>
</g>
<g>
	<rect x="-116.497" y="-153.509" fill="#FFFFFF" width="36.053" height="25.772"/>
	<path fill="#C42000" d="M-83.448-150.505v19.763h-30.045v-19.763H-83.448 M-77.439-156.514h-42.062v31.781h42.062V-156.514
		L-77.439-156.514z"/>
</g>
<g>
	<rect x="-487.25" y="-1.514" fill="#C42000" width="42.062" height="31.781"/>
</g>
<g>
	<g>
		<rect x="-343.69" y="-0.152" fill="#FFFFFF" width="27.953" height="20.867"/>
		<path fill="#C42000" d="M-316.255,0.365v19.832h-26.918V0.365H-316.255 M-315.22-0.67h-28.988v21.902h28.988V-0.67L-315.22-0.67z"
			/>
	</g>
	<g>
		<rect x="-336.647" y="7.251" fill="#FFFFFF" width="27.952" height="20.867"/>
		<path fill="#C42000" d="M-309.213,7.769v19.832h-26.917V7.769H-309.213 M-308.178,6.734h-28.987v21.902h28.987V6.734
			L-308.178,6.734z"/>
	</g>
	<g>
		<rect x="-329.918" y="14.75" fill="#FFFFFF" width="27.953" height="20.867"/>
		<path fill="#C42000" d="M-302.482,15.268v19.832H-329.4V15.268H-302.482 M-301.447,14.232h-28.988v21.902h28.988V14.232
			L-301.447,14.232z"/>
	</g>
</g>
<g>
	<polyline fill="none" stroke="#0A9995" stroke-width="7" stroke-miterlimit="10" points="-80.784,411.591 -92.047,394.822 
		-80.784,378.053 	"/>
</g>
<g>
	<polyline fill="none" stroke="#0A9995" stroke-width="7" stroke-miterlimit="10" points="-62.69,378.385 -51.428,395.152 
		-62.69,411.922 	"/>
</g>
<g>
	<polyline fill="none" stroke="#0A9995" stroke-width="7" stroke-miterlimit="10" points="-136.696,297.491 -119.928,286.229 
		-103.158,297.491 	"/>
</g>
<g>
	<polyline fill="none" stroke="#FFFFFF" stroke-width="7" stroke-miterlimit="10" points="-190.481,271.284 -207.251,285.71 
		-224.019,271.284 	"/>
</g>
<g>
	<polyline fill="none" stroke="#0A9995" stroke-width="7" stroke-miterlimit="10" points="-200.481,401.284 -217.251,415.71 
		-234.019,401.284 	"/>
</g>
<g>
	<polyline fill="none" stroke="#0A9995" stroke-width="7" stroke-miterlimit="10" points="-466.555,433.747 -480.98,416.978 
		-466.555,400.21 	"/>
</g>
<g>
	<g>
		<polyline fill="none" stroke="#FFFFFF" stroke-width="7" stroke-miterlimit="10" points="-465.555,574.747 -479.98,557.978 
			-465.555,541.21 		"/>
	</g>
	<g>
		<g>
			<polyline fill="none" stroke="#ECECE8" stroke-width="7" stroke-miterlimit="10" points="-466.555,573.747 -480.98,556.978 
				-466.555,540.21 			"/>
		</g>
	</g>
</g>
<g>
	<polyline fill="none" stroke="#0A9995" stroke-width="7" stroke-miterlimit="10" points="-357.945,400.21 -343.52,416.979 
		-357.945,433.747 	"/>
</g>
<g>
	<g>
		<polyline fill="none" stroke="#FFFFFF" stroke-width="7" stroke-miterlimit="10" points="-356.945,541.21 -342.52,557.979 
			-356.945,574.747 		"/>
	</g>
	<g>
		<g>
			<polyline fill="none" stroke="#ECECE8" stroke-width="7" stroke-miterlimit="10" points="-357.945,540.21 -343.52,556.979 
				-357.945,573.747 			"/>
		</g>
	</g>
</g>
<g>
	<g>
		<g>
			<path fill="#0A9995" d="M78.17,5.798c4.145,0,8.342,2.61,10.691,6.646c2.426,4.164,2.412,9.207-0.039,13.487
				c-0.262,0.459-0.557,0.897-0.863,1.325c0.555-0.072,1.115-0.11,1.676-0.11c3.369,0,6.307,1.242,8.951,3.075
				c0.324-5.137,3.002-9.164,7.744-11.521c4.305-2.138,9.324-3.269,14.52-3.269c6.209,0,12.469,1.6,17.627,4.506
				c3.119,1.757,5.736,3.944,7.738,6.428c4.635-5.68,11.967-10.487,21.773-10.487c0.727,0,1.465,0.028,2.193,0.083
				c10.064,0.762,17.031,3.994,20.193,9.36c0.199-0.116,0.4-0.229,0.6-0.338c0.865-0.472,1.844-0.721,2.828-0.721
				c0.986,0,1.965,0.249,2.842,0.727c0.535,0.293,1.01,0.658,1.418,1.081c0.682-0.093,1.363-0.141,2.043-0.141
				c0.4,0,0.795,0.021,1.184,0.051c-0.969-1.673-1.688-3.655-1.885-6.072c-0.033-0.361-0.053-0.721-0.059-1.067
				c-0.008-0.478,0.016-0.978,0.076-1.531c0.303-2.812,1.537-5.39,3.57-7.454c1.641-1.666,3.75-2.888,5.951-3.45
				c0.084-0.024,0.168-0.047,0.254-0.068l0.035-0.008l0.037-0.009c0.193-0.043,0.389-0.076,0.582-0.105l0.035-0.006l0.037-0.007
				c0.186-0.036,0.371-0.066,0.533-0.084c0.199-0.022,0.398-0.035,0.596-0.044l0.047-0.001l0.043-0.003
				c0.188-0.014,0.373-0.024,0.557-0.024h0.002c4.006,0,8.549,2.559,9.672,8.272c0.146,0.745,0.232,1.539,0.256,2.357
				c0.051,1.874-0.771,3.564-2.109,4.678c0.896,0.562,1.75,1.071,2.393,1.457c2.77,1.66,5.385,3.226,7.232,5.027
				c0.613,0.596,1.189,1.201,1.734,1.809c0.99-0.709,2.193-1.106,3.441-1.106c1.121,0,2.217,0.317,3.16,0.916
				c4.41,2.792,11.367,4.636,18.109,6.423c7.379,1.955,15.01,3.977,20.885,7.543c3.957,2.403,8.586,7.852,9.781,13.614
				c0.783,3.779,0.045,7.508-2.078,10.5c-2.463,3.465-6.986,5.452-12.41,5.452c-6.752,0-14.387-3.392-15.193-10.848
				c-0.045-0.417-0.066-0.838-0.066-1.245c-0.004-3.158,1.299-5.266,2.391-6.479c0.186-0.207,0.381-0.403,0.582-0.591
				c-1.414-0.295-2.838-0.562-4.189-0.815c-1.912-0.359-3.766-0.707-5.543-1.104c-0.016,0.051-0.031,0.1-0.045,0.148
				c-6.287,21.238-13.414,45.31-32.941,55.339c-0.555,0.284-1.141,0.551-1.746,0.803c0.104,0.2,0.203,0.401,0.283,0.614
				c3.268,0.253,6.34,0.552,9.176,0.896c2.754,0.332,4.818,2.758,4.699,5.523l-0.002,0.035l-0.002,0.035
				c-0.168,2.808-2.496,5.009-5.303,5.024c-3.812,0.04-7.611,0.075-11.508,0.106c0.023,0.945,0.014,1.982-0.152,3.043
				c1.252,2.218,1.465,4.882,0.584,7.745c-0.979,3.184-3.365,5.53-6.721,6.608c-2.33,0.748-4.625,0.748-5.857,0.748
				c-0.914,0-1.799-0.032-2.656-0.063l-0.041-0.002c-0.744-0.027-1.447-0.052-2.068-0.052c-0.172,0-0.338,0.002-0.504,0.006
				c-0.062,0.002-0.123,0.003-0.186,0.003c-1.896,0-3.613-0.894-4.703-2.328c-2.641,1.829-5.879,2.865-9.16,2.865
				c-3.002,0-5.76-0.83-8.066-2.388c-0.842,0.794-1.918,1.343-3.098,1.536c-1.473,0.239-3.375,0.371-5.359,0.371
				c-1.982,0-3.887-0.132-5.363-0.372c-1.482-0.242-2.789-1.045-3.686-2.183c-3.154,1.86-7.121,2.945-11.305,2.945
				c-2.639,0-5.164-0.428-7.508-1.273c-0.746-0.268-1.418-0.679-1.986-1.198c-2.027,1.768-4.703,2.76-7.736,2.76
				c-4.254,0-8.463-2.027-11.266-5.358c-1,2.265-3.428,4.802-9.295,4.802c-2.727,0-5.555-0.521-6.791-0.828
				c-1.23-0.305-2.285-0.979-3.062-1.885c-2.283,1.849-5.342,2.933-8.6,2.933c-1.281,0-2.533-0.17-3.736-0.51
				c-0.492,0.097-1.051,0.163-1.672,0.163c-0.521,0-1.053-0.047-1.58-0.138c-2.232-0.388-4.066-2.042-4.678-4.222
				c-0.244-0.881-1.408-5.47-0.172-9.312c0.045-0.135,0.092-0.268,0.143-0.397c-0.305-1.06-0.467-2.371-0.254-3.911
				c-3.523,0.005-6.922,0.013-10.234,0.023c-2.775,0-5.061-2.07-5.322-4.821c-0.271-2.732,1.559-5.194,4.297-5.739
				c1.312-0.253,2.662-0.442,3.848-0.607l0.121-0.018c1.992-0.277,4.049-0.562,5.494-1.061c0.543-0.197,1.137-0.299,1.734-0.307
				c-0.91-0.403-1.76-0.837-2.521-1.299c-9.229-5.611-16.643-14.398-22.666-26.862c-3.807-7.881-6.955-16.97-9.803-28.344
				C39.09,51.896,37.4,52.24,35.74,52.58c-1.686,0.346-3.391,0.694-5.029,1.084c0.221,0.215,0.432,0.441,0.631,0.677
				c1.955,2.309,2.723,5.377,2.166,8.639c-1.018,5.98-6.432,9.845-13.793,9.845c-4.854,0-11.529-1.854-14.367-7.075
				c-2.299-4.227-2.52-8.648-0.637-12.788C9.271,42.93,24.221,39.287,25.91,38.905c12.951-2.929,28.416-9.273,42.428-17.409
				c0.582-0.338,1.209-0.674,1.873-1.029c-0.914-1.041-1.467-2.398-1.467-3.867c0-3.03,0.789-5.543,2.348-7.47
				C72.807,7.013,75.387,5.798,78.17,5.798 M78.172,11.683C78.172,11.683,78.172,11.683,78.172,11.683
				c0.016,0,0.03,0.001,0.045,0.002c-0.021,0-0.041,0-0.061,0c-0.004,0-0.008,0-0.012,0c-0.124,0-0.246,0.005-0.365,0.018
				c0.082-0.008,0.164-0.009,0.246-0.013c0.041-0.002,0.08-0.004,0.119-0.005c0.002,0,0.005,0,0.007,0c0.027,0,0.055,0,0.082,0.001
				c0.004,0,0.009,0,0.013,0c-0.004,0-0.009,0-0.013,0c-0.006,0-0.011,0-0.017-0.001c0.006,0,0.012,0,0.018,0
				C78.214,11.685,78.193,11.683,78.172,11.683C78.172,11.683,78.172,11.683,78.172,11.683s-0.001,0-0.002,0
				C78.171,11.683,78.172,11.683,78.172,11.683 M67.611,73.783c0.395-0.446,0.859-0.84,1.393-1.157
				c0.912-0.542,1.955-0.828,3.016-0.828c1.58,0,3.096,0.635,4.197,1.745c0.418-0.014,0.943-0.264,1.162-0.458
				c0.812-2.229-0.98-5.729-2.715-9.116c-1.451-2.831-2.949-5.758-3.461-8.866c-0.863-5.254,0.406-10.196,3.574-13.916
				c1.682-1.975,3.775-3.461,6.141-4.397c-0.428-0.771-0.686-1.641-0.729-2.55c-0.004-0.117,0.008-0.23,0.01-0.348
				c-2.102,1.252-4.309,2.353-6.41,3.399c-1.572,0.784-3.059,1.526-4.336,2.249c-1.346,0.764-3.055,1.457-4.883,2.198
				c-1.154,0.468-4.414,1.787-5.732,2.649c-0.633,3.841,2.52,13.224,3.598,16.434l0.023,0.066l0.389,1.16
				C63.639,64.438,65.236,68.876,67.611,73.783 M127.752,43.297c0.137,0,0.279-0.004,0.424-0.012
				c0.488-0.027,1.518-0.506,2.434-0.933l0.418-0.194c0.398-0.183,1.225-0.564,1.428-2.264c0.035-0.302,0.049-0.615,0.041-0.937
				c-0.447,0.106-0.908,0.161-1.371,0.161c-1.596,0-3.145-0.657-4.244-1.798c-0.447-0.462-1.455-0.929-2.697-0.929
				c-1.201,0-1.955,0.413-2.17,0.694c-0.232,0.302-0.219,1.047,0.035,1.994C122.734,41.642,124.975,43.297,127.752,43.297
				 M160.199,39.833c-0.561,0-1.113-0.079-1.643-0.231c-0.041,0.265-0.07,0.527-0.082,0.783c-0.092,1.903,0.721,2.297,1.203,2.531
				c1.303,0.63,2.434,1.005,3.354,1.114c0.139,0.016,0.277,0.024,0.414,0.024c1.883,0,4.125-1.315,5.332-3.129
				c0.861-1.286,1.055-2.578,0.578-3.846c-0.131-0.031-0.365-0.067-0.734-0.067c-1.836,0-3.932,0.891-4.74,1.534
				C162.84,39.376,161.531,39.833,160.199,39.833 M212.863,73.364c0.389-0.106,1.018-0.339,1.936-0.841
				c0.867-0.475,1.85-0.726,2.838-0.726c1.363,0,2.693,0.475,3.746,1.337c0.52,0.426,0.941,0.928,1.279,1.475
				c2.025-3.901,4.395-9.328,4.104-13.384c-0.648-9.014-4.664-14.569-10.223-20.089c1.391,5.952,0.715,14.19-5.205,19.311
				c0.021,0.483,0.039,0.978,0.059,1.48l0.002,0.088c0.129,3.434,0.273,7.325,1.002,10.03
				C212.57,72.676,212.736,73.096,212.863,73.364 M177.375,55.404c-3.25,3.586-7.166,5.962-11.119,6.678
				c-2.477,0.447-4.287,0.637-6.047,0.637c-2.92,0-5.555-0.552-8.295-1.735c0.178,5.514,0.369,10.393,0.586,14.939
				c1.713,0.239,3.459,0.488,5.189,0.803c0.537-0.983,1.055-2.043,1.562-3.082c0.488-1.005,1.227-2.522,2.016-3.944
				c1.086-1.938,3.143-3.142,5.367-3.142c0.58,0,1.16,0.083,1.727,0.247c0.07,0.021,0.141,0.043,0.195,0.061
				c1.91,0.628,3.326,2.093,3.916,3.904c0.537-1.681,1.072-3.361,1.607-5.045l0.031-0.1
				C175.182,62.261,176.271,58.84,177.375,55.404 M23.249,56.583L23.249,56.583c-0.013,0-0.026,0-0.04,0
				c-0.035,0-0.07,0-0.105,0.001c-0.032,0-0.065,0.001-0.098,0.002c0.032-0.001,0.065-0.001,0.098-0.002
				c0.036-0.001,0.071-0.001,0.107-0.001C23.225,56.583,23.236,56.583,23.249,56.583L23.249,56.583L23.249,56.583
				c0.002,0,0.004,0,0.005,0C23.253,56.583,23.251,56.583,23.249,56.583L23.249,56.583c-0.018-0.001-0.038-0.003-0.058-0.003
				C23.211,56.58,23.23,56.583,23.249,56.583 M131.516,62.156c-1.561,0-3.221-0.159-4.955-0.476
				c-0.117,0.417-0.283,0.826-0.498,1.221c-1.033,1.897-3.02,3.075-5.186,3.075c-0.387,0-0.775-0.037-1.143-0.111
				c-3.102-0.61-5.791-1.695-8.188-3.073c0.156,0.475,0.312,0.946,0.469,1.418l0.09,0.274c0.795,2.405,1.617,4.892,2.43,7.232
				c0.404,1.16,0.434,2.396,0.098,3.55c1.666,2.419,2.404,5.294,2.131,8.054c1.197-0.836,2.473-1.699,3.857-2.471
				c-0.205-0.696-0.512-1.475-0.898-2.431c-0.479-1.177-1.076-2.642-1.465-4.211c-0.777-3.031,0.846-6.146,3.777-7.253
				c0.057-0.021,0.119-0.044,0.186-0.065c0.646-0.221,1.316-0.332,1.992-0.332c2.291,0,4.381,1.263,5.467,3.323
				c0.85,1.647,2.342,4.359,3.771,6.901c1.756-0.354,3.49-0.624,5.113-0.838c0.152-2.426,0.24-5.003,0.326-7.536l0.002-0.058
				c0.092-2.721,0.184-5.338,0.346-7.766C136.957,61.624,134.363,62.156,131.516,62.156 M190.191,85.216
				c0.02-0.01,0.037-0.022,0.057-0.032l0.021-0.012c0.127-0.079,0.254-0.153,0.359-0.208c0.199-0.105,0.41-0.202,0.623-0.297
				l0.039-0.02c0.141-0.068,0.281-0.134,0.445-0.201c0.182-0.074,0.373-0.141,0.562-0.206l0.072-0.023l0.043-0.017
				c0.15-0.057,0.303-0.109,0.455-0.156c0.18-0.055,0.367-0.102,0.555-0.146l0.072-0.017l0.078-0.021
				c0.18-0.048,0.361-0.093,0.549-0.131c0.154-0.031,0.312-0.056,0.475-0.078l0.027-0.004l0.098-0.017
				c0.23-0.038,0.459-0.075,0.699-0.1c0.133-0.015,0.271-0.023,0.438-0.033l0.074-0.005c0.221-0.018,0.492-0.04,0.812-0.048
				c0.053-0.001,0.107-0.002,0.16-0.002l0.484,0.001l0.16,0.036c0.137,0.015,0.271,0.034,0.406,0.06
				c0.146,0.027,0.295,0.062,0.432,0.099l0.02,0.004l0.02,0.005c0.127,0.034,0.322,0.09,0.551,0.176l0.025,0.009l0.023,0.01
				c0.137,0.053,0.273,0.111,0.404,0.174c0.168,0.079,0.338,0.17,0.504,0.27l0.012,0.006l0.027,0.018
				c0.123,0.074,0.242,0.152,0.357,0.233c0.203,0.143,0.352,0.273,0.436,0.346c0.09,0.074,0.215,0.185,0.338,0.311
				c0.238,0.24,0.459,0.507,0.643,0.772c0.076,0.108,0.145,0.219,0.211,0.333l0.01,0.014l0.039,0.069
				c0.049,0.085,0.148,0.256,0.252,0.483c0.074,0.159,0.129,0.298,0.164,0.392c0.029,0.072,0.066,0.174,0.105,0.294
				c0.051,0.157,0.092,0.315,0.125,0.481c0.025,0.108,0.047,0.215,0.064,0.322c0.031,0.188,0.049,0.354,0.061,0.49
				c0.014,0.121,0.025,0.287,0.025,0.477l-0.002,0.523l-0.045,0.186c-0.029,0.229-0.07,0.457-0.125,0.684l-0.018,0.069l-0.02,0.069
				c-0.021,0.081-0.047,0.159-0.07,0.238c-0.131,0.413-0.293,0.789-0.494,1.143l-0.018,0.029l-0.004,0.006l-0.002,0.007l-0.07,0.12
				l-0.053,0.076c-0.188,0.292-0.402,0.571-0.645,0.832c-0.041,0.046-0.084,0.09-0.127,0.135l-0.049,0.051l-0.049,0.048
				c-0.303,0.292-0.611,0.537-0.977,0.77c-0.041,0.026-0.082,0.054-0.121,0.082l-0.064,0.044h-0.002l-0.078,0.053
				c-0.029,0.022-0.059,0.046-0.088,0.068l-0.045,0.035l-0.018,0.014l-0.02,0.015l-0.055,0.04l-0.035,0.031l-0.068,0.06l-0.1,0.087
				l-0.008,0.007l-0.092,0.09l-0.07,0.069l-0.006,0.004l-0.072,0.081l-0.076,0.083l-0.002,0.003l-0.049,0.062l-0.043,0.052
				c0.346,0.07,0.82,0.127,1.443,0.127c0.371,0,0.777-0.021,1.203-0.062c3.887-0.376,8.107-3.52,11.725-7.31
				c-1.121,0.258-2.242,0.392-3.305,0.392c-2.371,0-4.586-0.587-6.398-1.697c-6.727-4.103-6.561-12.186-6.428-18.689
				c0.051-2.348,0.102-4.766-0.17-6.63c-0.639,1.949-1.344,4.018-2.107,6.253l-0.018,0.054l-0.064,0.187
				c-0.369,1.08-0.75,2.189-1.135,3.33c-0.312,0.927-0.645,2.423-0.994,4.006l-0.01,0.039c-0.688,3.113-1.471,6.608-2.852,9.651
				C189.947,85.025,190.07,85.121,190.191,85.216 M80.303,88.743c-1.086,0-2.184-0.143-3.262-0.401
				c2.783,3.05,5.945,5.545,9.486,6.9c0.889,0.34,1.924,0.52,2.994,0.52c0.879,0,1.654-0.119,2.299-0.294
				c-0.123-0.129-0.264-0.27-0.422-0.427c-0.754-0.752-1.611-1.604-2.215-2.776c-1.096-2.112-0.812-4.653,0.713-6.472
				c1.123-1.342,2.773-2.111,4.527-2.111c0.574,0,1.143,0.085,1.701,0.252c-1.742-3.265-2.959-7.063-4.105-10.842
				c0.109,4.656-0.654,9.346-3.938,12.579C86.07,87.651,83.307,88.743,80.303,88.743 M78.17,4.848c-3.071,0-5.92,1.343-7.816,3.684
				c-1.698,2.1-2.56,4.814-2.56,8.068c0,1.256,0.352,2.482,1.006,3.548c-0.32,0.175-0.637,0.351-0.938,0.526
				C53.932,28.763,38.564,35.069,25.7,37.979c-1.736,0.393-17.102,4.136-21.854,14.589c-2.011,4.421-1.779,9.136,0.667,13.635
				c3.037,5.588,10.088,7.571,15.202,7.571c7.849,0,13.631-4.175,14.729-10.636c0.565-3.311-0.134-6.445-1.972-8.902
				c1.116-0.246,2.253-0.479,3.364-0.707l0.095-0.02l0.113-0.023c1.32-0.27,2.677-0.548,4.032-0.85
				c2.809,11.041,5.881,19.839,9.642,27.625c6.105,12.635,13.639,21.552,23.027,27.261c0.068,0.042,0.138,0.083,0.208,0.124
				c-1.278,0.334-2.926,0.563-4.528,0.786l-0.15,0.021c-1.121,0.156-2.524,0.352-3.891,0.615c-3.209,0.639-5.383,3.547-5.062,6.766
				c0.308,3.235,3.002,5.678,6.268,5.678c2.988-0.01,6.043-0.017,9.196-0.022c-0.04,1,0.059,1.976,0.296,2.916
				c-0.016,0.047-0.032,0.094-0.048,0.141c-1.317,4.095-0.1,8.937,0.157,9.866c0.71,2.53,2.842,4.454,5.432,4.904
				c0.584,0.101,1.17,0.152,1.742,0.152c0.544,0,1.092-0.047,1.63-0.14c1.217,0.323,2.486,0.486,3.778,0.486
				c3.12,0,6.106-0.926,8.507-2.622c0.829,0.745,1.827,1.273,2.927,1.546c1.281,0.318,4.203,0.856,7.02,0.856
				c5.379,0,8.108-2.036,9.492-4.133c2.956,2.957,7.002,4.69,11.068,4.69c2.934,0,5.591-0.857,7.738-2.487
				c0.511,0.365,1.067,0.656,1.664,0.87c2.443,0.882,5.078,1.329,7.828,1.329c3.955,0,7.865-0.952,11.104-2.692
				c1.013,1.013,2.312,1.685,3.732,1.917c1.524,0.248,3.483,0.385,5.517,0.385s3.99-0.136,5.512-0.383
				c1.104-0.181,2.137-0.625,3.023-1.297c2.344,1.416,5.09,2.161,7.988,2.161c3.146,0,6.306-0.907,8.987-2.566
				c1.279,1.299,3.013,2.029,4.876,2.029c0.072,0,0.143-0.001,0.215-0.003c0.151-0.003,0.311-0.005,0.475-0.005
				c0.594,0,1.272,0.023,2.033,0.051c0.907,0.033,1.801,0.066,2.732,0.066c1.285,0,3.676,0,6.147-0.793
				c3.66-1.176,6.267-3.745,7.339-7.234c0.915-2.976,0.739-5.803-0.507-8.201c0.087-0.676,0.119-1.333,0.125-1.924
				c3.566-0.029,7.058-0.062,10.56-0.099c3.301-0.019,6.044-2.618,6.241-5.918l0.001-0.008l0.004-0.078
				c0.141-3.258-2.291-6.117-5.535-6.508c-2.183-0.265-4.535-0.506-7.016-0.72c19.391-10.215,26.584-33.91,32.835-55.021
				c1.501,0.319,3.039,0.608,4.651,0.912l0.057,0.01l0.12,0.022c0.794,0.149,1.605,0.302,2.422,0.461
				c-1.056,1.389-2.104,3.514-2.1,6.468c0,0.45,0.024,0.903,0.072,1.346c0.869,8.036,8.975,11.696,16.138,11.696
				c5.735,0,10.541-2.133,13.185-5.852c2.278-3.21,3.071-7.203,2.234-11.243c-1.251-6.03-6.088-11.724-10.219-14.233
				c-5.991-3.637-13.688-5.676-21.131-7.648c-6.671-1.768-13.562-3.595-17.849-6.308c-1.096-0.695-2.364-1.063-3.668-1.063
				c-1.155,0-2.271,0.286-3.274,0.832c-0.412-0.441-0.827-0.865-1.239-1.266c-1.92-1.872-4.572-3.462-7.38-5.145l-0.2-0.121
				c-0.352-0.211-0.757-0.454-1.191-0.719c1.036-1.257,1.589-2.849,1.544-4.522c-0.025-0.874-0.117-1.719-0.273-2.515
				c-1.228-6.245-6.211-9.04-10.604-9.04c-0.208,0-0.417,0.012-0.628,0.027l-0.011,0l-0.052,0.002
				c-0.219,0.01-0.439,0.024-0.66,0.049c-0.183,0.02-0.396,0.054-0.608,0.096c-0.248,0.039-0.464,0.076-0.679,0.123l-0.007,0.002
				l-0.044,0.01c-0.144,0.035-0.239,0.06-0.335,0.088c-2.335,0.596-4.605,1.912-6.362,3.696c-2.185,2.218-3.513,4.991-3.838,8.019
				c-0.063,0.58-0.091,1.12-0.082,1.648c0.007,0.373,0.027,0.756,0.062,1.139c0.146,1.776,0.559,3.423,1.256,4.989
				c-0.436,0.011-0.876,0.041-1.318,0.088c-0.394-0.354-0.827-0.661-1.295-0.917c-1.014-0.552-2.153-0.843-3.298-0.843
				c-1.077,0-2.146,0.256-3.105,0.743c-3.519-5.174-10.559-8.294-20.444-9.042c-0.757-0.057-1.52-0.086-2.265-0.086
				c-11.074,0-18.181,5.889-21.772,9.967c-1.983-2.238-4.425-4.181-7.272-5.785c-5.298-2.985-11.723-4.628-18.094-4.628
				c-5.339,0-10.506,1.165-14.942,3.368c-4.501,2.238-7.331,6.016-8.095,10.744c-2.661-1.586-5.309-2.373-8.049-2.396
				c2.505-4.532,2.479-9.835-0.081-14.231C87.165,7.642,82.646,4.848,78.17,4.848L78.17,4.848z M59.725,44.96
				c1.419-0.808,4.211-1.94,5.186-2.334c1.864-0.756,3.609-1.463,5.012-2.26c1.268-0.717,2.736-1.449,4.291-2.225
				c1.628-0.811,3.431-1.708,5.188-2.692c0.065,0.289,0.149,0.573,0.252,0.851c-2.157,1.004-4.037,2.438-5.599,4.271
				c-3.353,3.937-4.697,9.152-3.788,14.687c0.537,3.261,2.07,6.252,3.553,9.146c1.489,2.909,3.165,6.182,2.749,8.076
				c-0.022,0.01-0.046,0.021-0.069,0.03c-1.235-1.061-2.84-1.661-4.479-1.661c-1.231,0-2.442,0.333-3.501,0.961
				c-0.208,0.124-0.408,0.258-0.602,0.404c-2.091-4.481-3.492-8.423-4.167-10.464l-0.391-1.163l-0.027-0.081
				C62.345,57.567,59.407,48.821,59.725,44.96L59.725,44.96z M122.806,37.64c0.139-0.084,0.599-0.297,1.378-0.297
				c1.023,0,1.766,0.382,2.015,0.64c1.278,1.326,3.074,2.087,4.927,2.087c0.115,0,0.229-0.003,0.345-0.009
				c-0.173,0.929-0.568,1.11-0.838,1.234l-0.423,0.197c-0.615,0.287-1.76,0.82-2.088,0.845c-0.124,0.007-0.249,0.01-0.369,0.01
				c-2.336,0-4.214-1.378-4.785-3.511C122.791,38.181,122.786,37.795,122.806,37.64L122.806,37.64z M160.199,40.783
				c1.547,0,3.064-0.53,4.273-1.493c0.598-0.476,2.494-1.326,4.145-1.327c0.14,0.796-0.068,1.597-0.629,2.434
				c-1.028,1.544-2.98,2.708-4.543,2.708c-0.102,0-0.205-0.007-0.308-0.019c-0.812-0.097-1.839-0.442-3.046-1.025
				c-0.327-0.159-0.665-0.323-0.675-1.322C159.676,40.769,159.938,40.783,160.199,40.783L160.199,40.783z M212.307,60.858
				c5.005-4.574,6.251-11.225,5.675-16.856c4.369,4.788,7.301,9.846,7.837,17.292c0.198,2.772-0.922,6.657-3.334,11.561
				c-0.159-0.161-0.325-0.312-0.499-0.455c-1.223-1.001-2.767-1.552-4.349-1.552c-1.148,0-2.287,0.292-3.294,0.842
				c-0.359,0.197-0.666,0.346-0.924,0.46c-0.033-0.107-0.067-0.224-0.102-0.352c-0.698-2.594-0.842-6.418-0.969-9.792l-0.002-0.1
				l-0.017-0.428C212.322,61.27,212.314,61.063,212.307,60.858L212.307,60.858z M160.209,63.669c1.827,0,3.686-0.195,6.216-0.652
				c3.06-0.554,6.133-2.066,8.906-4.348c-0.716,2.239-1.425,4.466-2.125,6.668l-0.032,0.104c-0.308,0.967-0.615,1.934-0.924,2.901
				c-0.849-1.096-2.017-1.925-3.396-2.379c-0.067-0.021-0.147-0.047-0.227-0.07c-0.653-0.189-1.323-0.285-1.992-0.285
				c-2.568,0-4.942,1.39-6.196,3.627c-0.81,1.459-1.551,2.984-2.041,3.994c-0.4,0.818-0.808,1.651-1.222,2.441
				c-1.246-0.214-2.496-0.399-3.764-0.579c-0.183-3.913-0.348-8.085-0.501-12.69C155.295,63.263,157.647,63.669,160.209,63.669
				L160.209,63.669z M131.516,63.106c2.398,0,4.64-0.363,6.684-1.081c-0.104,1.914-0.177,3.944-0.256,6.293l-0.002,0.058
				c-0.076,2.233-0.154,4.535-0.279,6.732c-1.32,0.185-2.549,0.386-3.719,0.609c-1.455-2.597-2.717-4.911-3.419-6.272
				c-1.144-2.168-3.264-3.582-5.643-3.807c0.821-0.589,1.515-1.364,2.015-2.283c0.107-0.198,0.205-0.399,0.293-0.605
				C128.69,62.987,130.143,63.106,131.516,63.106L131.516,63.106z M115.657,75.092c0.27-1.222,0.193-2.488-0.225-3.688
				c-0.759-2.185-1.542-4.548-2.249-6.688c2.034,0.956,4.135,1.642,6.367,2.081c0.191,0.039,0.388,0.069,0.588,0.09
				c-2.371,1.654-3.549,4.641-2.801,7.556c0.399,1.616,1.006,3.107,1.493,4.306c0.246,0.608,0.468,1.161,0.646,1.662
				c-0.596,0.352-1.17,0.717-1.726,1.085C117.629,79.254,116.91,77.042,115.657,75.092L115.657,75.092z M191.412,83.553
				c1.007-2.722,1.649-5.634,2.186-8.06c0.337-1.521,0.676-3.054,0.977-3.946c0.309-0.914,0.614-1.808,0.913-2.682l0.221-0.645
				l0.063-0.183l0.022-0.069c0.155-0.455,0.306-0.896,0.452-1.324c-0.008,0.461-0.018,0.924-0.028,1.385
				c-0.096,4.718-0.209,10.241,2.193,14.635c-0.087-0.02-0.184-0.041-0.28-0.059c-0.139-0.026-0.28-0.047-0.423-0.064l-0.108-0.024
				l-0.103-0.023l-0.104,0l-0.484-0.001l-0.179,0.002c-0.334,0.008-0.613,0.03-0.843,0.049l-0.09,0.006
				c-0.178,0.011-0.332,0.021-0.479,0.037c-0.253,0.025-0.501,0.065-0.751,0.106l-0.102,0.018c-0.181,0.024-0.358,0.052-0.531,0.087
				c-0.207,0.042-0.407,0.091-0.604,0.144l-0.075,0.02l-0.044,0.01c-0.215,0.051-0.421,0.103-0.618,0.163
				c-0.174,0.054-0.345,0.113-0.514,0.176l-0.004,0.001l-0.021,0.008l-0.048,0.016C191.796,83.409,191.6,83.478,191.412,83.553
				L191.412,83.553z M90.726,83.811c0.938-1.591,1.58-3.458,1.933-5.623c0.543,1.557,1.137,3.089,1.81,4.543
				c-0.015,0-0.029,0-0.044,0C93.094,82.731,91.815,83.113,90.726,83.811L90.726,83.811z M80.303,89.693
				c2.942,0,5.676-0.971,7.793-2.751c-0.765,1.829-0.703,3.933,0.244,5.76c0.428,0.832,0.971,1.518,1.506,2.104
				c-0.107,0.004-0.215,0.006-0.324,0.006c-0.955,0-1.873-0.158-2.654-0.457c-2.43-0.93-4.834-2.498-7.171-4.675
				C79.899,89.689,80.102,89.693,80.303,89.693L80.303,89.693z M203.693,90.209l0.033-0.136l0.025-0.108l0.001-0.112l0.002-0.523
				c0-0.235-0.015-0.438-0.031-0.587c-0.011-0.131-0.031-0.324-0.067-0.54c-0.021-0.123-0.045-0.248-0.075-0.375
				c1.864,1.021,4.069,1.558,6.413,1.558c0.196,0,0.395-0.004,0.594-0.013c-2.648,2.422-5.942,4.729-9.105,5.035
				c-0.001,0-0.003,0-0.004,0c0.065-0.059,0.131-0.12,0.197-0.184l0.054-0.053l0.068-0.071c0.068-0.071,0.11-0.115,0.151-0.16
				c0.263-0.283,0.514-0.607,0.735-0.952l0.034-0.049l0.021-0.03l0.019-0.031l0.07-0.12l0.062-0.105l0.002-0.009
				c0.218-0.393,0.395-0.807,0.54-1.263l0.025-0.085c0.02-0.065,0.039-0.13,0.057-0.196l0.016-0.055l0.024-0.094
				C203.613,90.707,203.659,90.46,203.693,90.209L203.693,90.209z"/>
		</g>
	</g>
	<g>
		
			<path fill-rule="evenodd" clip-rule="evenodd" fill="#0A9995" stroke="#FFFFFF" stroke-width="0.7562" stroke-linecap="round" stroke-linejoin="round" stroke-miterlimit="10" d="
			M215.725,16.702c-0.434-4.29-6.732-2.755-6.912,1.189c-0.252,5.598,12.195,10.116,16.207,14.022
			c5.658,5.508,7.672,11.784,11.678,16.161c1.383-5.149,0.996-11.061-2.383-13.784c10.225,6.471,28.652,7.691,39.084,14.022
			c3.701,2.247,10,10.002,5.959,15.688c-3.418,4.809-16.242,3.669-16.922-2.615c-0.553-5.123,5.549-5.509,8.818-2.615
			c-1.639,0.554-4.717,0.22-5.482,2.615c3.24,6.596,12.654,1.549,10.486-4.517c-3.377-9.463-21.207-8.74-30.506-12.359
			c-6.434,21.224-12.734,47.78-31.697,57.519c-7.512,3.857-25.424,5.189-25.021-6.894c1.662-2.936,3.348-5.851,7.863-5.94
			c-6.631,4.163-5.785,12.951,5.242,11.883c9.795-0.948,19.311-12.475,23.598-19.965c2.762-4.83,7.42-13.354,6.91-20.44
			c-1.129-15.682-8.734-25.249-20.496-31.849c-2.26-3.518-6.82-5.071-6.912-10.22C205.117,11.883,215.498,8.286,215.725,16.702z"/>
		<g>
			
				<path fill-rule="evenodd" clip-rule="evenodd" fill="#0A9995" stroke="#FFFFFF" stroke-width="0.7562" stroke-linecap="round" stroke-linejoin="round" stroke-miterlimit="10" d="
				M141.605,91.332c-0.705-1.188-1.404-2.991,0-3.802c-1.785,0.514-1.469-1.07-2.145-1.664c0,0.554,0,1.108,0,1.664
				c-0.486,0.385-1.562,0.186-1.906,0.713c0.709,0.088,1.176,0.412,1.432,0.951c0.316,1.043-0.715,1.964,0,2.613
				C139.387,88.927,140.795,90.876,141.605,91.332z"/>
			
				<path fill-rule="evenodd" clip-rule="evenodd" fill="#0A9995" stroke="#FFFFFF" stroke-width="0.7562" stroke-linecap="round" stroke-linejoin="round" stroke-miterlimit="10" d="
				M152.332,91.808c-0.662-1.482-0.578-3.19,0.715-3.803c-1.734,0.382-1.418-1.279-1.906-2.139c-0.164,1.179-0.301,2.286-1.67,1.664
				c1.428,1.1-0.164,2.851,0.238,4.04c0.184-0.768,0.66-1.243,1.432-1.426C151.441,90.646,151.984,92.138,152.332,91.808z"/>
			
				<path fill-rule="evenodd" clip-rule="evenodd" fill="#0A9995" stroke="#FFFFFF" stroke-width="0.7562" stroke-linecap="round" stroke-linejoin="round" stroke-miterlimit="10" d="
				M128.975,94.897c-1.312-0.896-1.711-2.186-1.43-3.565c-0.207,0.349-0.355,0.754-0.953,0.715c-0.277-0.438-0.623-0.805-0.955-1.19
				c-0.186,0.979,0.367,1.221,0.238,2.14c-0.736,0.056-0.924,0.661-1.428,0.952c0.752-0.039,1.439-0.011,1.668,0.474
				c0.057,0.975,0.115,1.943,0.477,2.614c0.141-0.967,0.107-2.11,0.715-2.614C127.613,94.69,128.854,95.23,128.975,94.897z"/>
			
				<path fill-rule="evenodd" clip-rule="evenodd" fill="#0A9995" stroke="#FFFFFF" stroke-width="0.7562" stroke-linecap="round" stroke-linejoin="round" stroke-miterlimit="10" d="
				M163.055,91.808c1.225,1.323-0.584,2.404-1.191,3.327c0.814-0.06,1.145-0.601,2.146-0.475c0.08,2.705,0.727,2.406,0.713-0.238
				c0.414-0.381,1.475-0.114,1.668-0.712c-1.604,0.106-0.984-2.22-1.191-2.854C164.908,92.239,163.719,91.818,163.055,91.808z"/>
			
				<path fill-rule="evenodd" clip-rule="evenodd" fill="#0A9995" stroke="#FFFFFF" stroke-width="0.7562" stroke-linecap="round" stroke-linejoin="round" stroke-miterlimit="10" d="
				M113.959,102.264c-0.418,0.615-0.943,1.119-1.428,1.666c0.752,0.116,0.84-0.43,1.668-0.238c0.756,2.626,0.762,3.187,1.43,0.238
				c0.832-0.334,1.525,0.665,1.908,0c-1.045-0.307-1.5-1.199-2.146-1.901c0.209-0.216,0.684-1.342,0.238-1.428
				c-0.217,0.42-0.531,0.737-0.955,0.951c-0.295-0.496-0.691-0.892-1.189-1.189C113.611,101.031,113.834,101.599,113.959,102.264z"
				/>
			
				<path fill-rule="evenodd" clip-rule="evenodd" fill="#0A9995" stroke="#FFFFFF" stroke-width="0.7562" stroke-linecap="round" stroke-linejoin="round" stroke-miterlimit="10" d="
				M175.447,102.502c-0.961,0.232-1.342,1.039-1.906,1.666c0.924,0.126,1.162-0.426,2.146-0.238c0,0.713,0,1.426,0,2.14
				c0.961-0.228,0.312-2.062,1.191-2.378c0.609-0.258,1.133,0.722,1.43,0c-0.578-0.375-1.057-0.85-1.43-1.428
				c0.205-0.291,0.758-1.429,0.236-1.663c-0.307,0.409-0.492,0.935-1.189,0.951c-0.217-0.419-0.535-0.736-0.953-0.951
				C175.098,101.269,175.32,101.837,175.447,102.502z"/>
		</g>
		
			<path fill="#0A9995" stroke="#FFFFFF" stroke-width="0.9501" stroke-linecap="round" stroke-linejoin="round" stroke-miterlimit="10" d="
			M223.857,114.616c-13.926-1.685-29.986-1.901-42.418-1.901v0.247l-0.002-0.247c-6.18,0-12.514,0.06-18.643,0.117
			c-6.051,0.059-12.309,0.119-18.33,0.119H75.828c-0.027,0-0.055,0.004-0.08,0.015c-1.924,0.671-4.26,0.996-6.516,1.311
			c-1.232,0.172-2.502,0.348-3.699,0.579c-0.125,0.025-0.213,0.14-0.199,0.267c0.012,0.129,0.119,0.226,0.246,0.226c0,0,0,0,0.002,0
			c7.621-0.024,15.75-0.035,24.846-0.035c11.814,0,23.648,0.02,35.484,0.036c11.836,0.02,23.674,0.038,35.49,0.038
			c25.076,0,44.332-0.086,62.428-0.277c0.133,0,0.238-0.103,0.248-0.233C224.082,114.746,223.988,114.633,223.857,114.616z
			 M186.268,112.979"/>
		<g>
			
				<path fill-rule="evenodd" clip-rule="evenodd" fill="#0A9995" stroke="#FFFFFF" stroke-width="0.9501" stroke-linecap="round" stroke-linejoin="round" stroke-miterlimit="10" d="
				M85.361,120.565c3.23-4.415,4.865,2.364,7.863,2.616c0.391-1.395,0.391-4.311,0-5.704c-0.896-0.722-1.75,0.188-2.617,0.237
				c-3.564-1.72-7.705-0.172-8.582,2.139c-2.74,7.228,9.275,4.818,8.582,9.269c-0.871,5.55-7.738-2.649-7.631-2.613
				c-0.553-0.177-0.748,0.15-1.43,0c-0.545,1.7-0.182,4.424,0.242,5.94c1.15,0.199,1.682-0.221,2.383-0.476
				c5.322,2.831,12.912-1.692,9.293-6.654C91.637,122.815,86.67,123.993,85.361,120.565z"/>
			
				<path fill-rule="evenodd" clip-rule="evenodd" fill="#0A9995" stroke="#FFFFFF" stroke-width="0.9501" stroke-linecap="round" stroke-linejoin="round" stroke-miterlimit="10" d="
				M179.738,117.239c-5.709,0.971-9.713,7.113-5.482,12.598c5.062,6.556,17.002,2.093,15.969-6.181
				C189.627,118.881,185.051,116.337,179.738,117.239z M184.027,130.072c-6.852,4.019-10.199-9.307-3.574-10.693
				C186.395,118.135,187.934,127.782,184.027,130.072z"/>
			
				<path fill-rule="evenodd" clip-rule="evenodd" fill="#0A9995" stroke="#FFFFFF" stroke-width="0.9501" stroke-linecap="round" stroke-linejoin="round" stroke-miterlimit="10" d="
				M198.328,120.565c3.248-4.413,4.979,2.232,7.863,2.616c0.527-1.458,0.102-3.862,0.238-5.704
				c-4.373-0.479-11.461-1.182-11.678,3.803c-0.264,6.081,8.018,2.91,8.818,8.318c-4.346,3.616-5.668-2.726-9.057-3.09
				c-0.02,1.358-0.168,4.281,0.238,5.94c4.494-0.133,11.059,1.25,12.393-3.09C209.029,123.233,200.506,124.356,198.328,120.565z"/>
			
				<path fill-rule="evenodd" clip-rule="evenodd" fill="#0A9995" stroke="#FFFFFF" stroke-width="0.9501" stroke-linecap="round" stroke-linejoin="round" stroke-miterlimit="10" d="
				M113.246,117.478c-5.061,0.316-19.619-3.155-15.254,4.99c2.77-0.092,1.799-3.909,5.482-3.089c0,3.564,0,7.13,0,10.693
				c-0.627,0.564-2.547-0.162-2.621,0.951c0,0.317,0,0.635,0,0.95c1.971,0.489,8.441,1.488,9.295-0.713
				c-0.139-1.287-2.281-0.576-2.859-1.424c0.297-3.349-0.611-7.898,0.475-10.458c3.242-0.542,2.324,3.068,5.004,3.089
				C113.756,121.629,113.016,119.073,113.246,117.478z"/>
			
				<path fill-rule="evenodd" clip-rule="evenodd" fill="#0A9995" stroke="#FFFFFF" stroke-width="0.9501" stroke-linecap="round" stroke-linejoin="round" stroke-miterlimit="10" d="
				M126.83,118.664c0.213,1.215,2.533,0.325,2.859,1.426c0.914,5.165,0.861,12.528-5.959,9.982
				c-2.104-1.78-0.854-6.909-1.191-10.456c0.848-0.424,2.588,0.044,2.385-1.428c-0.881-1.236-8.57-2.199-8.342,0.714
				c0.195,0.913,2.152,0.071,2.145,1.188c-4.332,11.963,11.178,17.458,13.584,9.032c0.854-2.988-0.182-6.518,0.238-9.269
				c0.637-0.794,2.902,0.04,2.623-1.665C134.307,116.801,126.975,116.264,126.83,118.664z"/>
			
				<path fill-rule="evenodd" clip-rule="evenodd" fill="#0A9995" stroke="#FFFFFF" stroke-width="0.9501" stroke-linecap="round" stroke-linejoin="round" stroke-miterlimit="10" d="
				M139.461,117.239c-0.281,0.116-0.541,0.253-0.715,0.476c-0.076,0.32-0.34,0.453-0.238,0.949c0.109,1.161,2.275,0.267,2.385,1.426
				c0,3.329,0,6.656,0,9.982c-0.85,0.582-2.881-0.019-2.385,1.901c9.367,3.377,22.479-2.981,16.205-11.408
				C152.066,117.011,146.184,117.141,139.461,117.239z M144.703,130.072c0-3.563,0-7.129,0-10.693
				C153.898,117.352,154.102,133,144.703,130.072z"/>
			
				<path fill-rule="evenodd" clip-rule="evenodd" fill="#0A9995" stroke="#FFFFFF" stroke-width="0.9501" stroke-linecap="round" stroke-linejoin="round" stroke-miterlimit="10" d="
				M166.152,129.599c0.15-3.257-0.307-7.12,0.238-9.982c0.436-0.519,1.949,0.043,2.385-0.476c0.568-2.98-9.398-3.033-8.818,0
				c0.584,0.447,2.002,0.062,2.383,0.713c0,3.486,0,6.973,0,10.457c-1.574-0.146-2.752,0.105-2.383,1.9
				c2.404,0.394,6.412,0.394,8.818,0C169.508,129.737,166.58,130.914,166.152,129.599z"/>
		</g>
		
			<path fill="#0A9995" stroke="#FFFFFF" stroke-width="0.9501" stroke-linecap="round" stroke-linejoin="round" stroke-miterlimit="10" d="
			M209.535,110.574c-10.564-0.382-24.926-6.146-26.912-12.728c-0.812-2.7,0.51-5.304,3.932-7.739
			c0.098-0.069,0.131-0.196,0.08-0.305c-0.039-0.089-0.129-0.143-0.225-0.143c-0.02,0-0.039,0.002-0.059,0.007
			c-1.248,0.312-2.365,1.083-3.451,1.832c-1.295,0.894-2.52,1.737-3.834,1.737c-0.086,0-0.174-0.005-0.258-0.013
			c-1.891-0.162-4.455-2.344-6.938-4.454c-2.654-2.256-5.395-4.586-7.635-4.801c-0.256-2.996,0.656-5.326,1.463-7.39
			c0.529-1.359,1.033-2.646,1.178-3.997c0.012-0.118-0.059-0.226-0.172-0.263c-0.025-0.007-0.049-0.011-0.076-0.011
			c-0.088,0-0.172,0.048-0.217,0.127c-0.656,1.181-1.266,2.429-1.855,3.641c-1.223,2.5-2.484,5.089-4.211,7.131
			c-2.812-0.773-6.002-1.219-9.088-1.649c-1.457-0.204-2.961-0.414-4.41-0.656c-0.375-6.89-0.674-14.31-0.941-23.326
			c-0.002-0.13-0.107-0.233-0.238-0.24c-0.004,0-0.01,0-0.01,0c-0.125,0-0.232,0.093-0.248,0.218
			c-0.365,3.155-0.494,6.937-0.629,10.939c-0.146,4.336-0.301,8.819-0.775,12.63c-4.297,0.415-9.223,1.015-13.484,2.31
			c-1.906-3.302-4.74-8.375-6.092-10.988c-0.045-0.085-0.131-0.135-0.221-0.135c-0.031,0-0.059,0.005-0.088,0.015
			c-0.119,0.044-0.186,0.171-0.154,0.292c0.295,1.185,0.762,2.342,1.217,3.459c1.014,2.506,2.059,5.096,1.432,8.409
			c-2.602,0.79-4.984,2.471-7.289,4.095c-2.955,2.086-5.744,4.055-8.756,4.055c-1.713,0-3.361-0.645-5.035-1.969
			c-0.045-0.037-0.098-0.055-0.154-0.055c-0.072,0-0.141,0.031-0.191,0.089c-0.086,0.104-0.074,0.257,0.027,0.344
			c3.023,2.647,4.07,5.321,3.109,7.952c-2.494,6.824-17.629,11.632-26.545,11.817c-0.135,0.004-0.244,0.115-0.242,0.252
			c0,0.135,0.111,0.243,0.25,0.243h51c0.127,0,0.234-0.097,0.244-0.225c0.535-5.847,6.898-8.51,12.586-8.51
			c5.637,0,11.928,2.661,12.422,8.508c0.01,0.128,0.119,0.227,0.246,0.227c0.004,0,0.004,0,0.004,0
			c2.473-0.022,5.119-0.033,8.092-0.033c3.828,0,7.676,0.018,11.521,0.038c3.848,0.017,7.697,0.036,11.523,0.036
			c8.156,0,14.355-0.087,20.107-0.278c0.135-0.005,0.242-0.114,0.242-0.248S209.67,110.579,209.535,110.574z M147.203,87.554
			c-0.018-1.111-0.035-2.254-0.092-3.347c0.164-0.004,0.33-0.004,0.49-0.004c3.135,0,5.789,0.536,8.359,1.057
			c0.953,0.192,1.938,0.393,2.938,0.562c-0.943,2.389-2.213,4.512-3.443,6.568c-1.26,2.103-2.561,4.277-3.521,6.746
			C147.361,98.351,147.285,93.103,147.203,87.554z M138.01,101.72c-0.645,0-1.115-0.231-1.285-0.63
			c-0.154-0.358-0.037-0.81,0.301-1.193c0.078-0.013,0.154-0.02,0.225-0.02c0.562,0,0.822,0.364,0.924,0.583
			c0.191,0.405,0.154,0.897-0.09,1.258C138.059,101.718,138.033,101.72,138.01,101.72z M132.562,85.939
			c3.018-0.75,6.439-1.604,9.844-1.604c0.611,0,1.209,0.029,1.781,0.086c-0.17,1.358-0.236,2.832-0.301,4.261
			c-0.219,4.88-0.426,9.493-4.312,10.45c-2.73-4.193-5.143-8.762-7.375-13.103L132.562,85.939z M145.037,100.359
			c-1.15-0.957-0.693-2-0.117-3.315c0.246-0.568,0.52-1.186,0.658-1.84c0.289,0.725,0.559,1.471,0.824,2.2
			c0.219,0.6,0.436,1.198,0.662,1.787c-0.219,0.789-0.818,1.171-1.822,1.171C145.176,100.362,145.107,100.362,145.037,100.359z
			 M131.848,106.983c-0.176,0.039-0.34,0.059-0.484,0.059c-0.586,0-0.854-0.305-1.166-0.653c-0.074-0.087-0.148-0.173-0.229-0.254
			c0.066-0.389,0.357-0.641,1.369-0.641c0.168,0,0.336,0.007,0.51,0.016V106.983z M113.523,96.675c1.551,1.24,3.424,2.31,5.24,3.344
			c3.752,2.142,7.625,4.353,8.92,8.178h-19.875C108.514,103.174,111.041,99.856,113.523,96.675z M122.35,98.297
			c-2.195-1.094-4.461-2.226-6.787-3.252c3.018-3.38,7.473-5.979,13.973-8.154c0.404,1.117,1.078,2.396,1.787,3.742
			c2.234,4.237,4.764,9.037,1.176,12.3C128.926,101.58,125.582,99.912,122.35,98.297z M154.754,102.1h-1.176
			c-0.326-0.378-0.211-0.883-0.004-1.594c0.033-0.115,0.066-0.228,0.096-0.341h1.084c0.143,0.195,0.232,0.566,0.232,0.968
			C154.986,101.535,154.896,101.907,154.754,102.1z M180.322,108.164c-1.541,0-3.1,0.018-4.66,0.036
			c-1.557,0.018-3.115,0.037-4.654,0.037c-3.125,0-5.49-0.077-7.607-0.249c1.436-3.715,4.668-5.552,8.086-7.493
			c1.977-1.126,4.02-2.286,5.645-3.84c3.197,2.65,5.26,6.53,6.125,11.535C182.359,108.171,181.395,108.164,180.322,108.164z
			 M175.514,95.041c-2.969,1.255-5.811,2.69-8.562,4.085c-2.555,1.291-5.195,2.628-7.924,3.81
			c-3.973-2.594-1.732-6.951,0.438-11.168c0.902-1.754,1.76-3.418,2.107-4.877C167.74,88.734,172.307,91.401,175.514,95.041z
			 M160.666,106.168c-0.02,0.081-0.045,0.18-0.072,0.302c-0.166,0.129-0.498,0.214-0.863,0.214c-0.363,0-0.697-0.085-0.863-0.214
			c-0.092-0.429-0.027-0.803,0.188-1.079c0.201-0.258,0.516-0.405,0.859-0.405c0.24,0,0.477,0.075,0.684,0.213
			c0.025,0.115,0.049,0.21,0.068,0.287C160.752,105.824,160.752,105.824,160.666,106.168z"/>
		<g>
			
				<path fill-rule="evenodd" clip-rule="evenodd" fill="#0A9995" stroke="#FFFFFF" stroke-width="0.7562" stroke-linecap="round" stroke-linejoin="round" stroke-miterlimit="10" d="
				M84.41,100.601c-13.453-5.148-22.4-22.465-27.172-36.838c-1.834-5.534-5.799-16.496-3.812-22.104
				c1.127-3.185,9.797-5.491,13.109-7.368c5.732-3.249,14.23-6.291,17.158-11.409c5.045-8.816-9.061-16.814-9.057-6.417
				c0.576-3.636,5.91-3.488,6.674,0c1.059,4.838-6.516,7.952-10.01,9.983c-13.328,7.736-29.654,14.798-44.09,18.062
				c-8.463,1.914-21.93,8.65-16.684,18.301c2.707,4.98,15.977,5.993,17.16-0.949c1.098-6.438-7.695-6.909-8.58-2.616
				c1.918-1.705,5.236-0.574,5.244,1.664c0.014,5.16-11.916,4.527-10.727-3.089c0.395-2.51,3.957-5.189,6.436-6.655
				c6.633-3.919,17.082-4.295,25.023-7.13c5.096,22.54,13.299,46.622,31.223,57.517c6.014,3.656,22.193,6.186,25.264-1.662
				c2.107-5.402-2.979-9.18-7.15-10.458c0.746,1.446,5.529,4.078,3.812,8.794C95.504,101.354,89.293,102.472,84.41,100.601z"/>
		</g>
		
			<path fill-rule="evenodd" clip-rule="evenodd" fill="#0A9995" stroke="#FFFFFF" stroke-width="0.7562" stroke-linecap="round" stroke-linejoin="round" stroke-miterlimit="10" d="
			M205.238,18.604c0.092,5.148,3.865,7.353,6.912,10.22c9.811,9.242,19.367,16.167,20.496,31.849c0.51,7.087-4.148,15.61-6.91,20.44
			c-4.287,7.49-13.803,19.017-23.598,19.965c-11.027,1.068-11.873-7.72-5.242-11.883c-4.516,0.09-6.201,3.005-7.863,5.94
			c-0.402,12.083,17.51,10.751,25.021,6.894c18.963-9.738,25.264-36.295,31.697-57.519c9.299,3.619,27.129,2.896,30.506,12.359
			c2.168,6.065-7.246,11.112-10.486,4.517c0.766-2.396,3.844-2.062,5.482-2.615c-3.27-2.894-9.371-2.508-8.818,2.615
			c0.68,6.284,13.504,7.424,16.922,2.615c4.041-5.686-2.258-13.44-5.959-15.688c-10.432-6.331-28.859-7.552-39.084-14.022
			c3.379,2.724,3.766,8.635,2.383,13.784c-4.006-4.377-6.02-10.653-11.678-16.161c-4.012-3.906-16.459-8.425-16.207-14.022
			c0.18-3.944,6.479-5.479,6.912-1.189C215.498,8.286,205.117,11.883,205.238,18.604z"/>
		<g>
			
				<path fill-rule="evenodd" clip-rule="evenodd" fill="#0A9995" stroke="#FFFFFF" stroke-width="0.9501" stroke-linecap="round" stroke-linejoin="round" stroke-miterlimit="10" d="
				M91.318,55.919c-1.986,1.741-5.113,2.347-7.387,3.803c-2.229-1.424-2.922-4.374-3.812-7.131c1.598-2.845,3.748-6.4,6.91-6.892
				C89.551,48.016,90.783,51.622,91.318,55.919z M131.119,33.102c-5.107-5.281-17.539-2.924-14.777,7.368
				c1.389,5.163,6.123,8.893,12.158,8.557c1.771-0.1,3.379-0.913,5.004-1.664c7.775-3.594,5.258-15.416-0.479-19.965
				c-7.393-5.859-25.244-4.094-25.262,6.894c-0.016,10.301,7.486,19.917,13.107,25.669c-11.367-2.239-16.232-12.945-24.547-19.015
				c5.285,8.833,8.785,21.504,12.631,32.562c-0.727,1.573-1.262,3.336-1.43,5.467c-3.895-9.189-6.221-19.939-10.484-28.759
				c-2.604,10.074,3.775,20.788,8.334,29.45c0.791,1.5,0.787,3.674,2.15,4.301c1.855,0.852,2.627-3.476,1.908-5.942
				c3.818,4.685-0.375,11.595-5.482,6.653c-5.482-5.301-6.797-19.098-10.727-25.192c-2.84,1.289-6.422,1.833-8.104,4.278
				c0.654,5.217,2.389,14.064-1.189,17.588c-3.461,3.406-10.623-0.146-11.916-3.803c3.1,3.415,9.23,1.347,10.725-2.14
				c3.164-7.393-4.707-15.231-5.721-21.391c-1.246-7.596,4.018-13.196,11.203-12.597c2.668,2.805,3.58,7.361,5.48,10.933
				c2.492-7.765-1.68-16.127-7.625-18.538c9.346-4.896,16.699,11.191,24.07,14.735c-2.355-7.095-10.852-19.918-1.193-24.717
				c13.082-6.502,31.885-0.36,35.273,10.932c2.424,8.085-1.029,17.174-7.15,20.203c-3.125,1.545-7.039,1.407-10.963,0.476
				c-7.451-1.773-12.863-8.551-14.061-16.876C110.104,25.05,128.635,22.557,131.119,33.102z"/>
		</g>
		<g>
			
				<path fill-rule="evenodd" clip-rule="evenodd" fill="#0A9995" stroke="#FFFFFF" stroke-width="0.9501" stroke-linecap="round" stroke-linejoin="round" stroke-miterlimit="10" d="
				M207.861,44.272c-1.941-2.341-4.252-7.883-7.865-7.367c-3.758,0.535-4.537,9.437-5.244,13.31c2.4,1.565,5.969,1.97,8.342,3.565
				C206.07,51.994,207.061,48.229,207.861,44.272z M169.729,21.693c-21.148-1.6-32.885,26.213-15.49,33.751
				c3.725,1.614,6.789,1.468,10.961,0.713c11.83-2.14,21.742-27.249,4.053-28.997c-4.459-0.439-9.557,2.358-9.059,6.655
				c3.408-2.715,12.152-4.975,14.541,0.712c3.42,8.147-5.123,16.071-12.395,15.214c-1.805-0.216-3.549-0.847-5.244-1.666
				c-8.957-4.341-3.186-18.673,4.768-21.627c6.488-2.411,21.559-2.226,21.926,4.99c0.227,4.466-4.688,10.199-2.623,14.022
				c3.889-0.798,5.67-4.961,7.867-6.655c-3.98,11.558-7.678,23.4-11.439,35.178c1.328,1.286,0.936,4.293,1.666,6.18
				c3.469-10.645,6.707-21.518,10.248-32.088c-0.986,12.134-4.398,23.496-9.273,32.659c-0.545,1.026-0.625,2.604-1.688,2.993
				c-1.742,0.634-1.873-3.653-1.432-5.704c-2.551,2.278-1.283,8.17,1.67,8.555c6.715,0.881,7.484-11.999,9.293-17.35
				c2.127-6.285,4.045-11.659,5.242-16.162c2.453,2.384,8.285,1.576,9.297,6.179c1.629,7.422-1.879,18.725,4.051,22.343
				c3.227,1.969,9.568,0.363,10.965-4.04c-13.514,7.391-11.57-11.824-12.395-20.203c12.215-6.029,4.236-30.773-9.295-24.719
				c-1.748,4.518-2.445,10.078-4.768,14.022c-1.764-6.243,2.986-11.032,2.623-16.636c-3.9,2.131-6.732,5.329-9.533,8.556
				C190.75,26.857,180.508,22.51,169.729,21.693z"/>
		</g>
	</g>
</g>
</svg>
