<?xml version="1.0" encoding="utf-8"?>
<!-- Generator: Adobe Illustrator 15.0.0, SVG Export Plug-In . SVG Version: 6.00 Build 0)  -->
<!DOCTYPE svg PUBLIC "-//W3C//DTD SVG 1.1//EN" "http://www.w3.org/Graphics/SVG/1.1/DTD/svg11.dtd">
<svg version="1.1" id="Etsy" xmlns="http://www.w3.org/2000/svg" xmlns:xlink="http://www.w3.org/1999/xlink" x="0px" y="0px"
	 width="116.667px" height="57.333px" viewBox="0 0 116.667 57.333" enable-background="new 0 0 116.667 57.333"
	 xml:space="preserve">
<g display="none">
	<path display="inline" fill="#A30F1D" d="M-732.629,275.629c0,0-0.007-2.453,0.279-3.668c0.307-1.297,2.058-8.711,2.058-8.711
		s-0.515-1.021-0.515-2.527c0-2.371,1.377-4.141,3.088-4.141c1.452,0,2.154,1.092,2.154,2.397c0,1.465-0.931,3.651-1.41,5.674
		c-0.401,1.697,0.847,3.08,2.522,3.08c3.029,0,5.068-3.892,5.068-8.498c0-3.506-2.357-6.127-6.653-6.127
		c-4.847,0-7.87,3.617-7.87,7.654c0,1.396,0.411,2.377,1.055,3.137c0.297,0.351,0.341,0.49,0.231,0.894
		c-0.077,0.293-0.254,1-0.327,1.281c-0.105,0.403-0.432,0.551-0.801,0.399c-2.234-0.912-3.275-3.356-3.275-6.106
		c0-4.541,3.831-9.986,11.428-9.986c6.105,0,10.121,4.416,10.121,9.158c0,6.271-3.488,10.955-8.626,10.955
		c-1.727,0-3.35-0.933-3.907-1.99c0,0-0.928,3.684-1.124,4.393c-0.337,1.23-1.607,3.424-1.607,3.424s-0.463,0.545-1.246,0.777
		C-732.357,277.208-732.629,275.629-732.629,275.629z"/>
</g>
<g>
	<g>
		<g>
			<path fill="#0A9995" d="M31.906,2.502c1.639,0,3.299,1.024,4.227,2.607c0.962,1.633,0.953,3.61-0.016,5.29
				c-0.102,0.18-0.219,0.352-0.34,0.521c0.221-0.028,0.441-0.043,0.662-0.043c1.334,0,2.494,0.487,3.539,1.206
				c0.129-2.013,1.188-3.593,3.062-4.52c1.703-0.838,3.688-1.282,5.742-1.282c2.454,0,4.93,0.627,6.969,1.768
				c1.235,0.689,2.27,1.547,3.062,2.521c1.832-2.229,4.729-4.113,8.608-4.113c0.287,0,0.578,0.011,0.867,0.032
				c3.979,0.299,6.736,1.567,7.984,3.671c0.08-0.045,0.158-0.089,0.236-0.132c0.344-0.185,0.73-0.283,1.121-0.283
				c0.389,0,0.775,0.098,1.123,0.285c0.211,0.115,0.397,0.258,0.561,0.424c0.27-0.036,0.539-0.055,0.809-0.055
				c0.158,0,0.314,0.008,0.467,0.021c-0.381-0.657-0.666-1.434-0.743-2.382c-0.015-0.142-0.021-0.283-0.022-0.418
				c-0.005-0.187,0.006-0.384,0.03-0.601c0.117-1.103,0.606-2.113,1.412-2.923c0.647-0.653,1.481-1.132,2.354-1.353
				c0.032-0.009,0.063-0.018,0.102-0.027l0.012-0.002l0.014-0.003c0.078-0.017,0.156-0.03,0.23-0.041l0.016-0.002l0.014-0.003
				c0.072-0.014,0.146-0.026,0.212-0.033c0.077-0.008,0.157-0.013,0.233-0.017h0.019l0.019-0.001
				c0.073-0.005,0.147-0.009,0.219-0.009h0.002c1.584,0,3.383,1.003,3.826,3.245c0.057,0.292,0.09,0.604,0.1,0.924
				c0.02,0.735-0.305,1.398-0.834,1.835c0.355,0.22,0.693,0.42,0.947,0.571c1.094,0.651,2.129,1.265,2.858,1.972
				c0.242,0.234,0.472,0.472,0.687,0.71c0.391-0.279,0.867-0.435,1.361-0.435c0.44,0,0.875,0.125,1.25,0.358
				c1.741,1.096,4.495,1.818,7.159,2.521c2.918,0.767,5.937,1.56,8.259,2.958c1.565,0.941,3.397,3.08,3.868,5.34
				c0.31,1.482,0.019,2.943-0.821,4.118c-0.974,1.358-2.763,2.14-4.908,2.14c-2.67,0-5.689-1.332-6.006-4.256
				c-0.021-0.163-0.027-0.328-0.027-0.488c0-1.238,0.514-2.065,0.945-2.541c0.074-0.08,0.151-0.158,0.229-0.231
				c-0.56-0.116-1.121-0.22-1.655-0.319c-0.759-0.143-1.488-0.277-2.191-0.434c-0.008,0.02-0.014,0.039-0.018,0.058
				c-2.486,8.331-5.304,17.772-13.025,21.704c-0.221,0.111-0.453,0.217-0.691,0.316c0.041,0.078,0.082,0.156,0.113,0.24
				c1.289,0.1,2.506,0.217,3.629,0.352c1.088,0.129,1.904,1.082,1.857,2.166v0.014l-0.002,0.014
				c-0.064,1.104-0.986,1.965-2.097,1.973c-1.51,0.016-3.01,0.027-4.551,0.041c0.01,0.369,0.006,0.775-0.062,1.191
				c0.494,0.871,0.58,1.916,0.23,3.039c-0.387,1.248-1.332,2.168-2.658,2.592c-0.92,0.293-1.83,0.293-2.316,0.293
				c-0.36,0-0.711-0.012-1.051-0.023h-0.016c-0.295-0.014-0.572-0.021-0.818-0.021c-0.066,0-0.131,0-0.197,0.002
				c-0.024,0-0.051,0-0.073,0c-0.75,0-1.431-0.35-1.859-0.912c-1.045,0.719-2.325,1.123-3.622,1.123
				c-1.188,0-2.277-0.324-3.191-0.936c-0.33,0.311-0.756,0.525-1.223,0.602c-0.582,0.096-1.334,0.146-2.119,0.146
				s-1.539-0.053-2.123-0.146c-0.586-0.096-1.103-0.41-1.455-0.854c-1.248,0.729-2.816,1.154-4.473,1.154
				c-1.043,0-2.041-0.17-2.968-0.5c-0.295-0.105-0.562-0.268-0.787-0.471c-0.799,0.693-1.856,1.082-3.059,1.082
				c-1.683,0-3.349-0.795-4.453-2.102c-0.396,0.887-1.354,1.883-3.679,1.883c-1.077,0-2.194-0.205-2.686-0.324
				c-0.484-0.121-0.902-0.385-1.211-0.74c-0.9,0.727-2.111,1.15-3.4,1.15c-0.506,0-1.002-0.066-1.477-0.201
				c-0.195,0.039-0.416,0.064-0.66,0.064c-0.209,0-0.418-0.018-0.627-0.053c-0.883-0.152-1.607-0.803-1.85-1.656
				c-0.096-0.346-0.557-2.146-0.066-3.652c0.018-0.053,0.037-0.104,0.057-0.156c-0.121-0.416-0.186-0.93-0.1-1.533
				c-1.395,0.002-2.738,0.006-4.049,0.01c-1.098,0-2-0.812-2.105-1.893c-0.106-1.07,0.617-2.037,1.701-2.252
				c0.52-0.098,1.053-0.172,1.521-0.236l0.047-0.008c0.789-0.107,1.602-0.221,2.174-0.416c0.215-0.076,0.449-0.115,0.686-0.119
				c-0.358-0.158-0.694-0.328-0.996-0.51c-3.649-2.199-6.582-5.646-8.965-10.535c-1.506-3.091-2.75-6.657-3.875-11.118
				c-0.666,0.153-1.332,0.289-1.99,0.421c-0.666,0.137-1.34,0.273-1.987,0.426c0.086,0.084,0.17,0.174,0.248,0.266
				c0.772,0.904,1.075,2.109,0.856,3.389c-0.401,2.346-2.543,3.861-5.455,3.861c-1.918,0-4.559-0.727-5.682-2.775
				c-0.908-1.656-0.996-3.393-0.25-5.016c1.803-3.936,7.713-5.364,8.383-5.514c5.121-1.147,11.234-3.637,16.775-6.828
				c0.23-0.133,0.479-0.264,0.742-0.404c-0.363-0.408-0.582-0.94-0.582-1.517c0-1.189,0.314-2.175,0.93-2.93
				C29.785,2.979,30.805,2.502,31.906,2.502 M31.923,4.812c-0.008,0-0.016,0-0.022,0c-0.002,0-0.004,0-0.006,0
				c-0.049,0-0.097,0.002-0.144,0.007c0.031-0.003,0.064-0.003,0.097-0.005c0.017,0,0.03-0.001,0.047-0.002h0.004
				c0.013,0,0.021,0,0.031,0c0.002,0,0.004,0,0.006,0c-0.002,0-0.004,0-0.006,0C31.93,4.812,31.925,4.812,31.923,4.812
				c0.003,0,0.007,0,0.007,0c-0.007,0-0.017,0-0.022,0C31.912,4.811,31.917,4.811,31.923,4.812 M27.73,29.168
				c0.154-0.175,0.34-0.33,0.551-0.455c0.361-0.211,0.773-0.324,1.193-0.324c0.623,0,1.223,0.248,1.658,0.684
				c0.166-0.006,0.373-0.104,0.459-0.18c0.322-0.873-0.387-2.247-1.074-3.576c-0.572-1.109-1.164-2.257-1.369-3.477
				c-0.34-2.061,0.162-4,1.416-5.459c0.664-0.773,1.492-1.356,2.426-1.723c-0.168-0.304-0.27-0.645-0.287-1.002
				c-0.002-0.045,0.004-0.09,0.004-0.135c-0.832,0.491-1.703,0.922-2.533,1.333c-0.622,0.308-1.211,0.599-1.717,0.882
				c-0.531,0.299-1.207,0.571-1.93,0.862c-0.457,0.183-1.746,0.7-2.268,1.04c-0.25,1.507,0.998,5.186,1.424,6.445l0.008,0.025
				l0.154,0.454C26.158,25.501,26.791,27.243,27.73,29.168 M51.514,17.21c0.053,0,0.108,0,0.166-0.004
				c0.192-0.01,0.603-0.199,0.963-0.367l0.166-0.075c0.155-0.072,0.481-0.222,0.563-0.888c0.015-0.119,0.021-0.242,0.017-0.367
				c-0.177,0.041-0.361,0.062-0.543,0.062c-0.632,0-1.242-0.258-1.679-0.705c-0.178-0.182-0.576-0.365-1.065-0.365
				c-0.476,0-0.772,0.162-0.858,0.273c-0.091,0.118-0.086,0.411,0.014,0.782C49.527,16.562,50.414,17.21,51.514,17.21
				 M64.341,15.853c-0.221,0-0.438-0.031-0.647-0.091c-0.016,0.104-0.028,0.207-0.032,0.307c-0.037,0.747,0.285,0.901,0.477,0.993
				c0.514,0.247,0.963,0.395,1.324,0.438c0.055,0.006,0.111,0.01,0.164,0.01c0.746,0,1.633-0.516,2.108-1.227
				c0.341-0.504,0.416-1.011,0.229-1.509c-0.051-0.012-0.146-0.026-0.291-0.026c-0.725,0-1.555,0.35-1.873,0.602
				C65.387,15.673,64.869,15.853,64.341,15.853 M85.167,29.005c0.152-0.043,0.402-0.135,0.767-0.332
				c0.342-0.186,0.729-0.283,1.121-0.283c0.539,0,1.063,0.186,1.479,0.523c0.207,0.168,0.373,0.363,0.508,0.578
				c0.802-1.529,1.736-3.66,1.623-5.25c-0.256-3.535-1.844-5.715-4.043-7.879c0.549,2.334,0.283,5.565-2.059,7.573
				c0.008,0.19,0.016,0.383,0.023,0.581l0.002,0.033c0.049,1.348,0.104,2.875,0.395,3.935
				C85.053,28.732,85.117,28.898,85.167,29.005 M71.135,21.958c-1.285,1.408-2.835,2.34-4.396,2.621
				c-0.98,0.174-1.695,0.248-2.392,0.248c-1.156,0-2.197-0.215-3.281-0.68c0.07,2.163,0.146,4.078,0.231,5.859
				c0.679,0.096,1.367,0.191,2.054,0.316c0.211-0.387,0.416-0.801,0.614-1.208c0.195-0.396,0.486-0.99,0.798-1.548
				c0.43-0.762,1.243-1.231,2.125-1.231c0.229,0,0.457,0.031,0.683,0.096c0.026,0.009,0.057,0.018,0.077,0.023
				c0.754,0.246,1.313,0.82,1.55,1.53c0.211-0.659,0.424-1.319,0.635-1.979l0.014-0.039C70.268,24.648,70.697,23.308,71.135,21.958
				 M10.166,22.421L10.166,22.421L10.166,22.421L10.166,22.421h0.002l0,0c0.006,0,0.015,0,0.021,0l0,0c-0.004,0-0.01,0-0.015,0
				c-0.014,0-0.024,0-0.036,0c-0.015,0-0.029,0-0.046,0c0.017,0,0.031,0,0.046,0c0.012,0,0.022,0,0.036,0c0.007,0,0.011,0,0.017,0
				c0,0,0,0-0.002,0c0.002,0,0.002,0,0.002,0l0,0l0,0h-0.002c-0.006,0-0.015,0-0.021,0l0,0H10.166L10.166,22.421L10.166,22.421
				L10.166,22.421L10.166,22.421L10.166,22.421 M53,24.607c-0.617,0-1.271-0.063-1.959-0.187c-0.047,0.164-0.11,0.324-0.194,0.479
				c-0.41,0.745-1.195,1.207-2.054,1.207c-0.151,0-0.307-0.016-0.451-0.044c-1.227-0.239-2.291-0.665-3.237-1.206
				c0.063,0.188,0.125,0.372,0.188,0.557l0.035,0.107c0.313,0.943,0.639,1.919,0.959,2.837c0.162,0.455,0.174,0.938,0.039,1.391
				c0.659,0.951,0.95,2.078,0.846,3.16c0.473-0.326,0.977-0.666,1.522-0.969c-0.082-0.273-0.202-0.578-0.354-0.953
				c-0.189-0.461-0.426-1.035-0.58-1.652c-0.309-1.189,0.334-2.412,1.494-2.843c0.021-0.01,0.047-0.019,0.072-0.027
				c0.258-0.086,0.521-0.129,0.789-0.129c0.905,0,1.731,0.496,2.161,1.303c0.336,0.646,0.927,1.71,1.492,2.708
				c0.692-0.141,1.379-0.244,2.021-0.328c0.06-0.952,0.094-1.963,0.129-2.958v-0.022c0.037-1.067,0.07-2.094,0.14-3.045
				C55.15,24.398,54.125,24.607,53,24.607 M76.203,33.653c0.006-0.004,0.014-0.01,0.021-0.014l0.01-0.006
				c0.049-0.029,0.1-0.061,0.141-0.08c0.078-0.041,0.164-0.08,0.246-0.117l0.017-0.006c0.057-0.027,0.11-0.055,0.178-0.08
				c0.07-0.029,0.146-0.057,0.222-0.08l0.028-0.012l0.017-0.006c0.062-0.021,0.119-0.043,0.182-0.061
				c0.07-0.021,0.145-0.039,0.219-0.059l0.029-0.008l0.029-0.008c0.069-0.018,0.145-0.035,0.219-0.051
				c0.059-0.014,0.123-0.023,0.188-0.031l0.01-0.002l0.039-0.006c0.092-0.014,0.183-0.029,0.277-0.039
				c0.053-0.004,0.107-0.008,0.172-0.014h0.029c0.088-0.008,0.195-0.016,0.322-0.02c0.021,0,0.041,0,0.063,0h0.188l0.064,0.014
				c0.055,0.006,0.107,0.014,0.162,0.023c0.057,0.01,0.117,0.023,0.168,0.039h0.01l0.008,0.002c0.051,0.014,0.127,0.035,0.22,0.07
				l0.01,0.002l0.013,0.004c0.053,0.02,0.104,0.045,0.157,0.068c0.065,0.029,0.134,0.064,0.199,0.105h0.004l0.013,0.008
				c0.049,0.029,0.096,0.062,0.143,0.092c0.078,0.059,0.137,0.107,0.17,0.137c0.035,0.027,0.086,0.07,0.135,0.121
				c0.094,0.094,0.182,0.199,0.254,0.303c0.029,0.045,0.059,0.088,0.084,0.133l0.004,0.004l0.014,0.027
				c0.021,0.033,0.062,0.1,0.101,0.188c0.028,0.062,0.051,0.117,0.065,0.154c0.011,0.027,0.025,0.068,0.041,0.115
				c0.021,0.061,0.037,0.123,0.052,0.188c0.01,0.043,0.018,0.086,0.024,0.127c0.012,0.074,0.019,0.141,0.021,0.193
				c0.008,0.047,0.012,0.111,0.012,0.189v0.203l-0.02,0.072c-0.01,0.09-0.027,0.182-0.049,0.27l-0.008,0.025l-0.007,0.027
				c-0.01,0.031-0.021,0.062-0.028,0.094c-0.051,0.162-0.115,0.311-0.195,0.447l-0.008,0.012v0.002l-0.002,0.002l-0.027,0.047
				l-0.02,0.031c-0.074,0.113-0.16,0.227-0.256,0.326c-0.017,0.018-0.033,0.035-0.052,0.053l-0.019,0.021l-0.02,0.02
				c-0.119,0.113-0.242,0.209-0.387,0.301c-0.016,0.01-0.031,0.021-0.047,0.031l-0.025,0.018h-0.002l-0.029,0.021
				c-0.014,0.008-0.024,0.018-0.037,0.027l-0.016,0.012l-0.008,0.006l-0.008,0.006l-0.021,0.016l-0.016,0.012l-0.025,0.023
				l-0.039,0.035l-0.004,0.002l-0.035,0.035l-0.029,0.027l-0.002,0.002l-0.026,0.031l-0.03,0.033h-0.003l-0.019,0.023l-0.016,0.021
				c0.135,0.025,0.324,0.049,0.568,0.049c0.148,0,0.309-0.008,0.477-0.025c1.537-0.145,3.205-1.381,4.637-2.865
				c-0.442,0.104-0.887,0.152-1.307,0.152c-0.938,0-1.812-0.229-2.531-0.664c-2.657-1.607-2.592-4.779-2.541-7.332
				c0.021-0.92,0.039-1.869-0.065-2.6c-0.252,0.766-0.53,1.576-0.834,2.453l-0.008,0.021l-0.025,0.072
				c-0.146,0.424-0.295,0.86-0.446,1.305c-0.125,0.365-0.256,0.951-0.394,1.572l-0.004,0.016c-0.272,1.223-0.584,2.594-1.129,3.785
				C76.105,33.579,76.154,33.616,76.203,33.653 M32.75,35.036c-0.43,0-0.864-0.055-1.291-0.156c1.103,1.195,2.353,2.174,3.752,2.705
				c0.353,0.135,0.763,0.205,1.187,0.205c0.347,0,0.654-0.047,0.908-0.115c-0.05-0.051-0.104-0.105-0.166-0.168
				c-0.302-0.295-0.64-0.629-0.877-1.088c-0.435-0.828-0.322-1.826,0.28-2.539c0.443-0.527,1.099-0.828,1.791-0.828
				c0.228,0,0.451,0.033,0.674,0.098c-0.688-1.279-1.172-2.77-1.625-4.251c0.044,1.826-0.26,3.666-1.559,4.933
				C35.031,34.608,33.937,35.036,32.75,35.036 M31.906,2.128c-1.211,0-2.338,0.526-3.09,1.444c-0.672,0.825-1.012,1.89-1.012,3.167
				c0,0.493,0.139,0.973,0.395,1.391c-0.125,0.069-0.248,0.137-0.367,0.206c-5.512,3.172-11.588,5.647-16.672,6.788
				c-0.688,0.153-6.762,1.619-8.643,5.723c-0.795,1.734-0.705,3.585,0.266,5.354c1.199,2.191,3.988,2.968,6.008,2.968
				c3.104,0,5.39-1.638,5.824-4.173c0.223-1.297-0.053-2.527-0.777-3.49c0.441-0.096,0.892-0.188,1.33-0.278l0.035-0.007
				c0.603-0.122,1.123-0.229,1.644-0.344c1.11,4.334,2.325,7.785,3.812,10.835c2.416,4.955,5.396,8.453,9.107,10.691
				c0.025,0.016,0.051,0.031,0.076,0.047c-0.504,0.129-1.156,0.219-1.787,0.307l-0.059,0.01c-0.418,0.059-0.992,0.137-1.539,0.238
				c-1.271,0.252-2.127,1.395-2.002,2.656c0.123,1.271,1.188,2.23,2.477,2.23c1.184-0.004,2.393-0.006,3.639-0.012
				c-0.014,0.395,0.023,0.775,0.117,1.146c-0.006,0.018-0.012,0.037-0.018,0.055c-0.523,1.611-0.039,3.506,0.062,3.871
				c0.278,0.99,1.123,1.746,2.146,1.922c0.228,0.041,0.459,0.061,0.687,0.061c0.215,0,0.433-0.018,0.646-0.055
				c0.479,0.127,0.979,0.191,1.492,0.191c1.234,0,2.414-0.363,3.363-1.029c0.328,0.291,0.723,0.5,1.158,0.607
				c0.508,0.123,1.662,0.336,2.775,0.336c2.127,0,3.205-0.801,3.752-1.625c1.17,1.162,2.77,1.844,4.379,1.844
				c1.158,0,2.211-0.338,3.061-0.979c0.201,0.145,0.424,0.26,0.658,0.342c0.965,0.346,2.006,0.52,3.094,0.52
				c1.564,0,3.111-0.373,4.393-1.057c0.4,0.398,0.914,0.662,1.476,0.754c0.603,0.096,1.377,0.15,2.183,0.15
				c0.805,0,1.575-0.053,2.178-0.15c0.438-0.072,0.846-0.246,1.195-0.51c0.928,0.557,2.014,0.85,3.159,0.85
				c1.244,0,2.494-0.355,3.556-1.008c0.504,0.508,1.188,0.795,1.928,0.795h0.082c0.063-0.002,0.127-0.002,0.188-0.002
				c0.242,0,0.517,0.01,0.808,0.021c0.358,0.014,0.711,0.023,1.078,0.023c0.508,0,1.453,0,2.432-0.311
				c1.445-0.461,2.477-1.469,2.9-2.838c0.362-1.166,0.295-2.277-0.199-3.219c0.035-0.266,0.047-0.521,0.049-0.752
				c1.412-0.012,2.791-0.025,4.178-0.039c1.305-0.006,2.389-1.027,2.467-2.322v-0.012l0.002-0.025
				c0.055-1.277-0.906-2.398-2.188-2.553c-0.867-0.104-1.797-0.197-2.771-0.281c7.664-4.008,10.508-13.299,12.979-21.577
				c0.596,0.125,1.205,0.239,1.844,0.358l0.05,0.009c0.317,0.06,0.645,0.12,0.977,0.185c-0.418,0.545-0.83,1.377-0.83,2.537
				c0,0.182,0.01,0.36,0.031,0.531c0.342,3.148,3.545,4.583,6.379,4.583c2.268,0,4.166-0.835,5.209-2.292
				c0.902-1.26,1.217-2.828,0.887-4.414c-0.494-2.365-2.408-4.6-4.041-5.584c-2.367-1.425-5.41-2.227-8.354-2.999
				c-2.648-0.696-5.369-1.413-7.062-2.476c-0.437-0.272-0.937-0.417-1.448-0.417c-0.457,0-0.898,0.112-1.296,0.327
				c-0.161-0.171-0.325-0.338-0.491-0.498c-0.761-0.734-1.808-1.358-2.916-2.018l-0.06-0.035c-0.146-0.085-0.312-0.185-0.489-0.294
				c0.405-0.493,0.625-1.117,0.606-1.773c-0.011-0.343-0.046-0.674-0.106-0.986c-0.484-2.45-2.455-3.546-4.191-3.546
				c-0.084,0-0.166,0.003-0.25,0.01c-0.107,0.005-0.195,0.01-0.281,0.02c-0.074,0.009-0.158,0.022-0.242,0.039
				c-0.1,0.015-0.186,0.029-0.271,0.049h-0.002l-0.03,0.007c-0.039,0.01-0.076,0.02-0.113,0.031c-0.928,0.235-1.823,0.75-2.519,1.45
				c-0.866,0.873-1.393,1.96-1.52,3.147c-0.025,0.223-0.037,0.436-0.033,0.646c0.004,0.146,0.012,0.296,0.025,0.446
				c0.057,0.696,0.221,1.341,0.496,1.956c-0.172,0.004-0.348,0.016-0.523,0.035c-0.156-0.138-0.326-0.259-0.51-0.359
				c-0.404-0.217-0.854-0.331-1.305-0.331c-0.426,0-0.85,0.101-1.229,0.292c-1.392-2.03-4.177-3.254-8.084-3.548
				c-0.304-0.022-0.605-0.034-0.896-0.034c-4.379,0-7.189,2.312-8.609,3.912c-0.785-0.879-1.752-1.643-2.879-2.271
				c-2.094-1.171-4.633-1.815-7.152-1.815c-2.109,0-4.152,0.457-5.906,1.321c-1.809,0.891-2.905,2.34-3.203,4.215
				c-1.053-0.622-2.1-0.931-3.184-0.94c0.99-1.776,0.98-3.857-0.033-5.582C35.462,3.225,33.675,2.128,31.906,2.128L31.906,2.128z
				 M24.611,17.864c0.559-0.316,1.66-0.759,2.045-0.914c0.742-0.298,1.432-0.576,1.986-0.888c0.494-0.276,1.074-0.563,1.688-0.868
				c0.648-0.32,1.361-0.671,2.064-1.062c0.025,0.113,0.059,0.225,0.098,0.332c-0.854,0.395-1.596,0.957-2.211,1.675
				c-1.326,1.543-1.859,3.59-1.5,5.763c0.213,1.277,0.82,2.452,1.406,3.588c0.588,1.141,1.25,2.424,1.088,3.164
				c-0.01,0.006-0.021,0.01-0.031,0.014c-0.488-0.416-1.121-0.651-1.77-0.651c-0.486,0-0.965,0.131-1.383,0.377
				c-0.084,0.051-0.164,0.104-0.24,0.16c-0.836-1.774-1.385-3.312-1.648-4.104l-0.156-0.457l-0.364,0.088l0.354-0.121
				C25.646,22.804,24.486,19.376,24.611,17.864L24.611,17.864z M49.555,14.993c0.055-0.033,0.237-0.117,0.547-0.117
				c0.403,0,0.698,0.151,0.799,0.252c0.507,0.52,1.216,0.818,1.945,0.818c0.045,0,0.092-0.002,0.137-0.004
				c-0.067,0.361-0.226,0.434-0.33,0.48l-0.168,0.076c-0.243,0.113-0.694,0.324-0.825,0.334c-0.05,0.002-0.101,0.002-0.146,0.002
				c-0.927,0-1.67-0.539-1.896-1.375C49.55,15.206,49.546,15.054,49.555,14.993L49.555,14.993z M64.341,16.227
				c0.613,0,1.214-0.208,1.689-0.585c0.234-0.188,0.986-0.521,1.641-0.521l0,0c0.056,0.312-0.026,0.625-0.248,0.953
				c-0.405,0.605-1.18,1.061-1.799,1.061c-0.041,0-0.084-0.002-0.125-0.008c-0.313-0.037-0.731-0.176-1.201-0.401
				c-0.129-0.062-0.264-0.126-0.266-0.515C64.135,16.221,64.238,16.227,64.341,16.227L64.341,16.227z M84.945,24.1
				c1.98-1.794,2.473-4.403,2.244-6.615c1.73,1.88,2.891,3.864,3.102,6.785c0.08,1.088-0.362,2.61-1.317,4.536
				c-0.063-0.064-0.132-0.125-0.201-0.182c-0.481-0.394-1.092-0.609-1.717-0.609c-0.453,0-0.902,0.115-1.302,0.332
				c-0.143,0.076-0.266,0.137-0.366,0.182c-0.015-0.043-0.027-0.09-0.041-0.141c-0.274-1.02-0.332-2.521-0.384-3.85v-0.039
				C84.955,24.366,84.951,24.232,84.945,24.1L84.945,24.1z M64.348,25.202c0.721,0,1.455-0.078,2.457-0.254
				c1.211-0.219,2.426-0.812,3.522-1.709c-0.283,0.877-0.562,1.752-0.84,2.615l-0.012,0.033l-0.369,1.148
				c-0.336-0.433-0.797-0.758-1.344-0.938l-0.004-0.001l-0.033-0.011l-0.055-0.016c-0.254-0.074-0.518-0.111-0.785-0.111
				c-1.014,0-1.951,0.545-2.449,1.42c-0.299,0.537-0.572,1.091-0.771,1.498l-0.035,0.07c-0.159,0.326-0.319,0.652-0.481,0.958
				c-0.485-0.084-0.973-0.154-1.491-0.227c-0.072-1.562-0.14-3.196-0.197-4.976C62.402,25.042,63.332,25.202,64.348,25.202
				L64.348,25.202z M53,24.981c0.949,0,1.836-0.143,2.646-0.425c-0.041,0.756-0.069,1.548-0.099,2.376l-0.004,0.091v0.009v0.028
				c-0.03,0.94-0.063,1.804-0.108,2.625c-0.522,0.07-1.011,0.15-1.476,0.238c-0.565-1.001-1.063-1.909-1.354-2.46
				c-0.449-0.848-1.287-1.402-2.225-1.492c0.322-0.23,0.594-0.533,0.791-0.893c0.043-0.076,0.082-0.156,0.117-0.238
				C51.88,24.936,52.455,24.981,53,24.981L53,24.981z M46.728,29.68c0.105-0.479,0.076-0.974-0.09-1.447
				c-0.299-0.852-0.598-1.746-0.889-2.619c0.803,0.375,1.635,0.643,2.52,0.815c0.074,0.015,0.15,0.026,0.227,0.034
				c-0.934,0.65-1.397,1.822-1.104,2.964c0.162,0.639,0.402,1.229,0.598,1.701c0.104,0.252,0.186,0.457,0.248,0.637
				c-0.234,0.139-0.463,0.283-0.684,0.428C47.507,31.311,47.223,30.444,46.728,29.68L46.728,29.68z M76.684,33
				c0.399-1.07,0.653-2.211,0.864-3.16c0.146-0.654,0.271-1.208,0.386-1.546l0.313-0.916l0.133-0.391l0.027-0.074
				c0.064-0.188,0.127-0.373,0.189-0.556c-0.002,0.187-0.008,0.372-0.012,0.552c-0.037,1.853-0.08,4.019,0.867,5.742
				c-0.033-0.01-0.07-0.02-0.109-0.023c-0.059-0.012-0.115-0.02-0.17-0.025l-0.043-0.01l-0.039-0.01H79.05h-0.191h-0.068
				c-0.141,0.004-0.254,0.014-0.348,0.021c-0.096,0.006-0.154,0.008-0.211,0.016c-0.102,0.01-0.199,0.025-0.299,0.041l-0.039,0.008
				c-0.07,0.01-0.141,0.02-0.207,0.033c-0.086,0.018-0.166,0.037-0.242,0.057l-0.031,0.008c-0.102,0.023-0.184,0.045-0.26,0.068
				c-0.068,0.02-0.133,0.043-0.201,0.068h-0.002l-0.037,0.012C76.822,32.948,76.75,32.971,76.684,33L76.684,33z M36.871,33.1
				c0.371-0.625,0.623-1.359,0.765-2.209c0.215,0.609,0.448,1.211,0.717,1.785c-0.006,0-0.013,0-0.019,0
				C37.807,32.676,37.3,32.825,36.871,33.1L36.871,33.1z M32.75,35.411c1.164,0,2.246-0.383,3.082-1.082
				c-0.301,0.719-0.276,1.545,0.099,2.262c0.168,0.324,0.381,0.594,0.592,0.822c-0.041,0.002-0.084,0.002-0.127,0.002
				c-0.377,0-0.742-0.062-1.051-0.18c-0.962-0.363-1.91-0.98-2.832-1.83C32.591,35.409,32.671,35.411,32.75,35.411L32.75,35.411z
				 M81.539,35.612l0.015-0.047l0.012-0.047v-0.049v-0.205c0-0.092-0.006-0.174-0.015-0.234c-0.002-0.043-0.012-0.119-0.022-0.203
				c-0.01-0.053-0.021-0.102-0.028-0.146c0.735,0.398,1.606,0.609,2.535,0.609c0.077,0,0.153-0.002,0.231-0.004
				c-1.047,0.949-2.349,1.854-3.599,1.971c0.025-0.02,0.049-0.043,0.072-0.064l0.006-0.004l0.023-0.023l0.004-0.004l0.021-0.023
				l0.057-0.061c0.102-0.107,0.201-0.234,0.289-0.369l0.02-0.027l0.039-0.068l0.002-0.004l0.008-0.012
				c0.095-0.166,0.17-0.336,0.229-0.521l0.011-0.035l0.021-0.07l0.002-0.01l0.017-0.061C81.507,35.801,81.527,35.708,81.539,35.612
				L81.539,35.612z"/>
		</g>
	</g>
	<path fill="#0A9995" stroke="#FFFFFF" stroke-linecap="round" stroke-linejoin="round" stroke-miterlimit="10" d="M86.298,6.78
		c-0.172-1.683-2.661-1.081-2.731,0.466c-0.101,2.195,4.822,3.968,6.408,5.5c2.237,2.16,3.032,4.623,4.616,6.34
		c0.55-2.021,0.396-4.34-0.94-5.407c4.043,2.538,11.33,3.016,15.455,5.5c1.463,0.881,3.953,3.922,2.354,6.153
		c-1.35,1.885-6.422,1.438-6.688-1.026c-0.222-2.009,2.192-2.161,3.483-1.024c-0.646,0.217-1.86,0.086-2.166,1.024
		c1.281,2.588,5.005,0.608,4.146-1.772c-1.334-3.711-8.385-3.428-12.064-4.847c-2.543,8.325-5.034,18.741-12.53,22.561
		c-2.974,1.512-10.056,2.035-9.896-2.705c0.657-1.15,1.323-2.295,3.108-2.33c-2.621,1.633-2.285,5.08,2.074,4.662
		c3.873-0.373,7.635-4.893,9.329-7.832c1.093-1.895,2.937-5.237,2.734-8.017c-0.447-6.15-3.455-9.902-8.104-12.49
		c-0.896-1.38-2.697-1.99-2.734-4.009C82.103,4.89,86.208,3.478,86.298,6.78z"/>
	<g>
		<path fill="#FFFFFF" d="M64.818,45.987c-4.672,0-9.354-0.008-14.035-0.016c-4.681-0.01-9.357-0.016-14.031-0.016
			c-3.594,0-6.81,0.004-9.821,0.016c-0.306,0-0.562-0.23-0.597-0.533c-0.037-0.305,0.172-0.59,0.478-0.65
			c0.485-0.094,0.998-0.164,1.495-0.23c0.863-0.121,1.759-0.244,2.479-0.494c0.053-0.018,0.141-0.031,0.196-0.031h27.142
			c2.271,0,4.631-0.023,6.922-0.045l0.691-0.006c2.311-0.021,4.686-0.043,7.006-0.043h0.002c4.934,0,11.305,0.086,16.83,0.75
			c0.307,0.033,0.541,0.305,0.528,0.617c-0.024,0.328-0.287,0.572-0.599,0.572C82.214,45.952,74.6,45.987,64.818,45.987z"/>
		<path fill="#FFFFFF" d="M72.742,44.438c4.914,0,11.266,0.084,16.771,0.746c0.053,0.006,0.09,0.051,0.088,0.102
			c-0.004,0.051-0.045,0.092-0.098,0.092c-7.156,0.074-14.771,0.109-24.687,0.109c-4.672,0-9.354-0.008-14.034-0.016
			c-4.681-0.01-9.357-0.016-14.031-0.016c-3.596,0-6.812,0.004-9.824,0.016c-0.051,0-0.092-0.039-0.098-0.092
			c-0.006-0.049,0.028-0.094,0.078-0.104c0.475-0.092,0.977-0.16,1.465-0.227c0.891-0.123,1.813-0.252,2.574-0.516
			c0.012-0.004,0.02-0.004,0.032-0.004h27.142c2.381,0,4.854-0.025,7.248-0.049c2.424-0.021,4.928-0.045,7.371-0.045l0.002,0.098
			V44.438 M72.742,43.438L72.742,43.438c-0.002,0-0.002,0-0.002,0c-2.322,0-4.697,0.02-7.009,0.041l-0.371,0.004l-0.321,0.002
			c-2.285,0.021-4.647,0.047-6.918,0.047H30.98c-0.107,0-0.247,0.021-0.35,0.055c-0.684,0.238-1.555,0.357-2.396,0.475
			c-0.497,0.066-1.015,0.139-1.519,0.234c-0.563,0.113-0.948,0.643-0.881,1.205c0.062,0.553,0.533,0.971,1.091,0.971
			c3.016-0.01,6.229-0.014,9.823-0.014c4.674,0,9.352,0.006,14.029,0.014c4.684,0.008,9.364,0.016,14.037,0.016
			c9.783,0,17.398-0.033,24.696-0.109c0.56,0,1.04-0.445,1.084-1.014c0.024-0.611-0.405-1.109-0.976-1.174
			C84.082,43.524,77.69,43.438,72.742,43.438L72.742,43.438z"/>
	</g>
	<g>
		<g>
			<path fill="#0A9995" d="M35.701,52.834c-0.502,0-0.994-0.104-1.438-0.297c-0.176,0.076-0.395,0.16-0.701,0.16
				c-0.094,0-0.195-0.008-0.311-0.027c-0.188-0.031-0.344-0.172-0.396-0.355c-0.151-0.537-0.364-1.775-0.09-2.621
				c0.067-0.209,0.263-0.346,0.476-0.346c0.035,0,0.07,0.004,0.106,0.012c0.034-0.004,0.065-0.008,0.095-0.012
				c-0.211-0.164-0.388-0.365-0.509-0.613c-0.228-0.467-0.218-1.029,0.03-1.676c0.324-0.854,1.389-1.447,2.584-1.447
				c0.457,0,0.914,0.092,1.332,0.266c0.037-0.014,0.078-0.027,0.113-0.043c0.153-0.061,0.344-0.137,0.569-0.137
				c0.222,0,0.427,0.072,0.606,0.217c0.082,0.064,0.142,0.154,0.17,0.256c0.179,0.633,0.179,1.877,0,2.51
				c-0.025,0.09-0.073,0.166-0.137,0.227c0.055,0.055,0.105,0.115,0.152,0.18c0.523,0.711,0.615,1.49,0.258,2.195
				C38.145,52.209,36.975,52.834,35.701,52.834z M34.488,49.877c0.467,0.498,1.303,1.252,1.703,1.252
				c0.023-0.002,0.096-0.062,0.139-0.334c0.045-0.279-0.326-0.441-1.233-0.723C34.896,50.012,34.691,49.948,34.488,49.877z
				 M35.353,47.579c0.2,0.252,0.532,0.379,0.996,0.508c-0.018-0.02-0.034-0.039-0.053-0.057c-0.229-0.252-0.541-0.598-0.707-0.598
				C35.542,47.434,35.46,47.475,35.353,47.579z"/>
			<path fill="#FFFFFF" d="M35.548,46.112c0.42,0,0.857,0.086,1.275,0.287c0.248-0.016,0.491-0.201,0.74-0.201
				c0.098,0,0.195,0.027,0.295,0.107c0.154,0.547,0.154,1.689,0,2.236c-0.896-0.074-1.484-1.609-2.27-1.609
				c-0.254,0-0.527,0.162-0.84,0.586c0.518,1.344,2.481,0.881,3.205,1.861c1.125,1.529-0.49,2.953-2.254,2.953
				c-0.48,0-0.973-0.104-1.423-0.344c-0.226,0.082-0.407,0.209-0.717,0.209c-0.067,0-0.144-0.008-0.226-0.021
				c-0.168-0.596-0.312-1.664-0.096-2.33c0.053,0.012,0.098,0.016,0.139,0.016c0.119,0,0.197-0.037,0.295-0.037
				c0.039,0,0.082,0.006,0.132,0.021l0,0c-0.022,0,1.479,1.781,2.385,1.781c0.308,0,0.546-0.205,0.634-0.756
				c0.274-1.746-4.478-0.801-3.394-3.637C33.675,46.602,34.557,46.112,35.548,46.112 M35.55,45.112L35.55,45.112
				c-1.399,0-2.654,0.727-3.053,1.768c-0.299,0.781-0.303,1.479-0.014,2.072c0.025,0.055,0.055,0.105,0.085,0.156
				c-0.125,0.113-0.223,0.26-0.278,0.43c-0.312,0.957-0.094,2.281,0.084,2.912c0.105,0.371,0.414,0.648,0.795,0.713
				c0.134,0.023,0.267,0.035,0.394,0.035c0.287,0,0.519-0.057,0.699-0.121c0.452,0.168,0.942,0.258,1.438,0.258
				c1.457,0,2.809-0.734,3.36-1.828c0.429-0.848,0.336-1.809-0.252-2.648c0.004-0.016,0.009-0.029,0.013-0.043
				c0.205-0.729,0.205-2.053,0-2.781c-0.058-0.201-0.176-0.381-0.34-0.51c-0.268-0.213-0.585-0.326-0.918-0.326
				c-0.279,0-0.514,0.078-0.684,0.145C36.457,45.19,36.003,45.112,35.55,45.112L35.55,45.112z"/>
		</g>
		<g>
			<path fill="#0A9995" d="M72.524,52.889c-1.229-0.002-2.3-0.51-3.017-1.43c-0.812-1.041-1.02-2.232-0.584-3.354
				c0.474-1.217,1.675-2.152,3.062-2.387c0.306-0.053,0.61-0.078,0.908-0.078c2.056,0,3.589,1.217,3.817,3.025
				c0.127,1.006-0.178,1.986-0.856,2.756C75.046,52.34,73.802,52.889,72.524,52.889L72.524,52.889z M72.757,47.508
				c-0.098,0-0.198,0.012-0.305,0.031c-0.858,0.18-1.082,1.041-1.006,1.787c0.086,0.83,0.582,1.713,1.336,1.713
				c0.225,0,0.471-0.076,0.73-0.227c0.521-0.305,0.746-1.227,0.511-2.1C73.947,48.432,73.63,47.508,72.757,47.508z"/>
			<path fill="#FFFFFF" d="M72.894,46.141c1.73,0,3.116,0.967,3.32,2.588c0.273,2.162-1.729,3.66-3.689,3.66
				c-0.982,0-1.953-0.377-2.622-1.236c-1.676-2.15-0.09-4.561,2.166-4.941C72.35,46.165,72.626,46.141,72.894,46.141 M72.783,51.54
				c0.301,0,0.629-0.09,0.982-0.295c1.449-0.844,1.001-4.238-1.01-4.236c-0.129,0-0.264,0.014-0.404,0.043
				C70.074,47.524,70.777,51.54,72.783,51.54 M72.894,45.141c-0.325,0-0.659,0.027-0.991,0.084
				c-1.581,0.268-2.899,1.301-3.442,2.699c-0.496,1.273-0.258,2.674,0.654,3.844c0.812,1.045,2.023,1.621,3.41,1.621
				c1.418,0,2.805-0.611,3.706-1.637c0.774-0.879,1.122-1.998,0.978-3.148C76.945,46.532,75.212,45.141,72.894,45.141L72.894,45.141
				z M72.783,50.54c-0.425,0-0.775-0.652-0.839-1.264c-0.026-0.258-0.062-1.105,0.611-1.246c0.069-0.016,0.139-0.021,0.2-0.021l0,0
				c0.506,0,0.718,0.584,0.785,0.836c0.184,0.68,0.004,1.371-0.277,1.535C73.083,50.485,72.917,50.54,72.783,50.54L72.783,50.54z"/>
		</g>
		<g>
			<path fill="#0A9995" d="M80.162,52.721c-0.328,0-0.664-0.014-0.992-0.023c-0.307-0.012-0.606-0.023-0.892-0.023
				c0,0-0.271,0.006-0.274,0.006c-0.229,0-0.432-0.158-0.484-0.383c-0.15-0.617-0.128-1.562-0.111-2.186l0.006-0.271
				c0.002-0.141,0.062-0.273,0.168-0.365c0.092-0.082,0.211-0.127,0.332-0.127c0.018,0,0.035,0.002,0.053,0.004
				c0.051,0.004,0.1,0.012,0.146,0.021c-0.38-0.33-0.641-0.818-0.605-1.6c0.062-1.395,1.146-2.102,3.223-2.102
				c0.658,0,1.323,0.066,1.948,0.135c0.269,0.029,0.465,0.266,0.444,0.533c-0.019,0.25-0.008,0.529,0.002,0.809
				c0.021,0.547,0.041,1.113-0.125,1.564c-0.033,0.094-0.094,0.172-0.168,0.229c0.552,0.441,0.887,1.096,0.554,2.17
				c-0.498,1.602-2.394,1.607-3.214,1.607C80.167,52.721,80.164,52.721,80.162,52.721z M79.093,49.893
				c0.166,0.143,0.32,0.299,0.468,0.445c0.332,0.338,0.646,0.656,0.948,0.656c0.121,0,0.26-0.049,0.414-0.141
				c-0.187-0.445-0.646-0.604-1.362-0.816C79.412,49.995,79.253,49.948,79.093,49.893z M80.076,47.532
				c0.244,0.219,0.598,0.385,0.971,0.537c-0.008-0.01-0.016-0.018-0.023-0.025c-0.236-0.262-0.562-0.617-0.743-0.617
				C80.234,47.426,80.166,47.458,80.076,47.532z"/>
			<path fill="#FFFFFF" d="M80.728,46.174c0.658,0,1.333,0.07,1.895,0.131c-0.053,0.725,0.115,1.666-0.094,2.238
				c-0.857-0.113-1.459-1.617-2.25-1.617c-0.261,0-0.542,0.162-0.859,0.592c0.863,1.486,4.23,1.045,3.486,3.447
				c-0.334,1.074-1.49,1.256-2.744,1.256c-0.635,0-1.293-0.047-1.884-0.047c-0.093,0-0.185,0-0.274,0.004
				c-0.157-0.65-0.1-1.797-0.092-2.33c1.045,0.111,1.594,1.646,2.598,1.646c0.283,0,0.604-0.123,0.982-0.436
				c-0.316-2.121-3.592-0.877-3.486-3.264C78.063,46.477,79.36,46.174,80.728,46.174 M80.728,45.174
				c-3.141,0-3.68,1.615-3.723,2.578c-0.023,0.551,0.078,0.986,0.258,1.334c-0.006,0.004-0.01,0.01-0.016,0.014
				c-0.209,0.186-0.332,0.453-0.336,0.732l-0.007,0.266c-0.016,0.65-0.04,1.635,0.126,2.316c0.109,0.449,0.512,0.764,0.973,0.764
				c0.01,0,0.02,0,0.029,0c0.079-0.004,0.161-0.004,0.244-0.004c0.278,0,0.573,0.012,0.872,0.021
				c0.336,0.012,0.677,0.023,1.011,0.023c0.846,0,3.092,0,3.7-1.957c0.343-1.105,0.087-1.857-0.388-2.391
				c0.193-0.541,0.172-1.15,0.15-1.742c-0.011-0.275-0.021-0.539-0.004-0.754c0.039-0.537-0.354-1.008-0.891-1.064
				C82.091,45.241,81.412,45.174,80.728,45.174L80.728,45.174z"/>
		</g>
		<g>
			<path fill="#0A9995" d="M42.998,52.749c-0.906,0-1.863-0.18-2.242-0.271c-0.225-0.057-0.381-0.256-0.381-0.486V51.62
				c0.049-0.738,0.787-0.764,1.037-0.771V47.52c-0.132,0.031-0.209,0.133-0.369,0.385c-0.211,0.332-0.53,0.834-1.283,0.859
				c-0.004,0-0.01,0-0.016,0c-0.184,0-0.353-0.102-0.438-0.264c-0.431-0.793-0.493-1.453-0.191-1.959
				c0.485-0.814,1.722-0.92,2.744-0.92c0.687,0,1.438,0.059,2.103,0.107c0.566,0.045,1.095,0.086,1.515,0.086
				c0.097,0,0.291-0.01,0.302-0.01c0.139,0,0.271,0.059,0.367,0.16c0.104,0.111,0.148,0.262,0.128,0.41
				c-0.024,0.174-0.011,0.426,0.006,0.668c0.035,0.576,0.076,1.23-0.368,1.604c-0.091,0.076-0.205,0.117-0.322,0.117
				c-0.002,0-0.002,0-0.004,0c-0.771-0.008-1.08-0.52-1.285-0.857c-0.145-0.24-0.211-0.332-0.321-0.363
				c-0.118,0.527-0.088,1.26-0.058,1.973c0.019,0.445,0.037,0.904,0.021,1.336c0.027,0.002,0.059,0.006,0.085,0.01
				c0.284,0.037,0.95,0.123,1.022,0.797c0.01,0.08-0.002,0.16-0.03,0.236C44.792,52.469,44.132,52.749,42.998,52.749z"/>
			<path fill="#FFFFFF" d="M41.857,46.122c1.244,0,2.688,0.191,3.616,0.191c0.106,0,0.209-0.002,0.302-0.008
				c-0.09,0.627,0.203,1.629-0.189,1.959c-0.984-0.01-0.737-1.234-1.733-1.234c-0.074,0-0.155,0.006-0.244,0.02
				c-0.43,1.006-0.069,2.789-0.188,4.104c0.23,0.334,1.076,0.055,1.132,0.559c-0.159,0.41-0.819,0.537-1.554,0.537
				c-0.812,0-1.713-0.156-2.123-0.258c0-0.123,0-0.248,0-0.371c0.029-0.438,0.789-0.152,1.037-0.375c0-1.396,0-2.795,0-4.193
				c-0.142-0.031-0.266-0.045-0.375-0.045c-1.021,0-0.806,1.225-1.793,1.256C38.787,46.491,40.13,46.122,41.857,46.122
				 M45.775,46.305h0.006 M41.857,45.122c-1.154,0-2.561,0.131-3.174,1.162c-0.398,0.67-0.338,1.494,0.182,2.453
				c0.174,0.324,0.514,0.525,0.879,0.525c0.012,0,0.021,0,0.032-0.002c0.507-0.016,0.87-0.195,1.136-0.418v1.562
				c-0.834,0.186-1.01,0.775-1.035,1.146c0,0.021-0.002,0.045-0.002,0.066v0.371c0,0.459,0.313,0.859,0.76,0.971
				c0.4,0.1,1.408,0.287,2.363,0.287c1.347,0,2.183-0.396,2.484-1.176c0.059-0.148,0.08-0.311,0.062-0.469
				c-0.065-0.607-0.437-1-1.102-1.172c-0.002-0.312-0.015-0.629-0.027-0.939c-0.01-0.217-0.02-0.443-0.023-0.666
				c0.271,0.236,0.648,0.432,1.186,0.438c0.002,0,0.006,0,0.008,0c0.235,0,0.463-0.084,0.645-0.234
				c0.639-0.537,0.585-1.393,0.546-2.018c-0.012-0.186-0.024-0.393-0.015-0.521c0.011-0.061,0.018-0.123,0.018-0.186
				c0-0.555-0.445-1-0.998-1h-0.003h-0.002c-0.004,0-0.008,0-0.012,0c-0.021,0-0.039,0-0.06,0.002
				c-0.07,0.004-0.147,0.006-0.23,0.006c-0.393,0-0.918-0.039-1.477-0.082C43.326,45.18,42.563,45.122,41.857,45.122L41.857,45.122z
				"/>
		</g>
		<g>
			<path fill="#0A9995" d="M51.128,52.965c-1.246,0-2.532-0.686-3.273-1.744c-0.721-1.029-0.896-2.32-0.509-3.672
				c-0.249-0.031-0.646-0.139-0.739-0.582c-0.033-0.359,0.059-0.629,0.256-0.842c0.312-0.34,0.867-0.512,1.646-0.512
				c0.5,0,1.88,0.121,2.287,0.672c0.277-0.428,0.931-0.666,1.877-0.666c0.18,0,1.771,0.021,2.197,0.699
				c0.035,0.055,0.059,0.117,0.068,0.184c0.045,0.271-0.003,0.502-0.143,0.688c-0.223,0.301-0.577,0.344-0.836,0.375
				c-0.025,0.002-0.057,0.006-0.086,0.01c-0.021,0.35,0.006,0.742,0.033,1.152c0.051,0.754,0.104,1.531-0.113,2.285
				C53.442,52.235,52.447,52.965,51.128,52.965L51.128,52.965z M50.19,50.809c0.271,0.094,0.513,0.141,0.718,0.141
				c0.282,0,0.486-0.088,0.644-0.273c0.407-0.484,0.504-1.635,0.265-3.092c-0.048-0.006-0.105-0.012-0.148-0.018
				c-0.238-0.023-0.688-0.07-0.903-0.42c-0.009,0.014-0.019,0.023-0.026,0.037c-0.205,0.266-0.515,0.328-0.763,0.359
				c0.008,0.355-0.009,0.729-0.024,1.09C49.914,49.485,49.871,50.446,50.19,50.809z"/>
			<path fill="#FFFFFF" d="M48.507,46.114c0.812,0,1.707,0.221,1.888,0.471c0.08,0.578-0.606,0.395-0.942,0.561
				c0.133,1.391-0.361,3.402,0.471,4.1c0.38,0.143,0.705,0.205,0.984,0.205c1.711,0,1.684-2.379,1.373-4.119
				c-0.132-0.432-1.048-0.084-1.132-0.559c0.028-0.467,0.757-0.652,1.522-0.652c0.779,0,1.603,0.191,1.773,0.465
				c0.111,0.67-0.785,0.344-1.037,0.652c-0.166,1.08,0.244,2.463-0.094,3.637c-0.316,1.1-1.203,1.594-2.186,1.594
				c-1.975,0-4.33-2.004-3.187-5.137c0.005-0.438-0.771-0.105-0.848-0.467C47.05,46.311,47.744,46.114,48.507,46.114 M48.507,45.114
				v1V45.114c-0.924,0-1.6,0.225-2.012,0.672c-0.291,0.314-0.432,0.727-0.396,1.158c0.004,0.043,0.01,0.084,0.02,0.127
				c0.061,0.285,0.225,0.617,0.631,0.816c-0.265,1.324-0.026,2.586,0.697,3.619c0.844,1.207,2.256,1.959,3.684,1.959
				c1.529,0,2.734-0.889,3.146-2.316c0.241-0.836,0.183-1.697,0.132-2.457c-0.018-0.238-0.033-0.473-0.037-0.689
				c0.271-0.062,0.592-0.195,0.828-0.514c0.153-0.205,0.318-0.557,0.233-1.068c-0.021-0.131-0.069-0.256-0.14-0.367
				c-0.543-0.865-2.144-0.934-2.621-0.934c-0.943,0-1.535,0.215-1.905,0.49C49.966,45.129,48.681,45.114,48.507,45.114
				L48.507,45.114z M50.474,47.944c0.095-0.031,0.191-0.072,0.287-0.129c0.17,0.1,0.375,0.17,0.613,0.215
				c0.16,1.24,0.022,2.051-0.207,2.324c-0.032,0.039-0.078,0.094-0.26,0.094c-0.084,0-0.213-0.012-0.396-0.061
				c-0.124-0.33-0.087-1.227-0.063-1.732C50.458,48.42,50.47,48.182,50.474,47.944L50.474,47.944z"/>
		</g>
		<g>
			<path fill="#0A9995" d="M57.942,52.852c-0.83,0-1.618-0.131-2.345-0.393c-0.156-0.055-0.273-0.184-0.314-0.344
				c-0.084-0.32-0.056-0.592,0.086-0.809c0.213-0.328,0.574-0.391,0.84-0.434v-3.324c-0.01-0.002-0.019-0.004-0.026-0.004
				c-0.233-0.025-0.854-0.098-0.914-0.73c-0.058-0.254,0.054-0.453,0.106-0.549c0.016-0.066,0.045-0.117,0.086-0.17
				c0.139-0.184,0.324-0.277,0.488-0.348c0.059-0.023,0.122-0.039,0.186-0.039c0.521-0.008,0.939-0.014,1.346-0.014
				c2.001,0,4.042,0.117,5.094,1.518c0.797,1.061,0.961,2.191,0.465,3.184C62.316,51.844,60.221,52.852,57.942,52.852L57.942,52.852
				z"/>
			<path fill="#FFFFFF" d="M57.479,46.198c2.083,0,3.827,0.164,4.694,1.318c2.016,2.686-1.031,4.836-4.232,4.836
				c-0.736,0-1.482-0.113-2.176-0.361c-0.197-0.754,0.607-0.518,0.943-0.746c0-1.305,0-2.609,0-3.916
				c-0.043-0.453-0.9-0.102-0.943-0.559c-0.041-0.193,0.062-0.246,0.094-0.371c0.066-0.088,0.172-0.143,0.283-0.189
				C56.6,46.204,57.046,46.198,57.479,46.198 M57.479,45.198c-0.407,0-0.83,0.006-1.261,0.012l-0.092,0.002
				c-0.127,0.002-0.254,0.027-0.373,0.078c-0.211,0.09-0.481,0.229-0.692,0.506c-0.06,0.078-0.106,0.166-0.142,0.258
				c-0.078,0.146-0.217,0.445-0.144,0.869c0.046,0.334,0.236,0.824,0.933,1.037v2.518c-0.262,0.084-0.553,0.238-0.762,0.559
				c-0.15,0.234-0.301,0.633-0.15,1.209c0.084,0.318,0.32,0.576,0.632,0.688c0.78,0.279,1.626,0.422,2.513,0.422
				c2.5,0,4.729-1.1,5.545-2.73c0.586-1.172,0.402-2.486-0.513-3.707C61.783,45.331,59.607,45.198,57.479,45.198L57.479,45.198z"/>
		</g>
		<g>
			<path fill="#0A9995" d="M65.99,52.7c-0.689,0-1.339-0.043-1.824-0.123c-0.205-0.033-0.367-0.188-0.41-0.393
				c-0.082-0.406-0.022-0.736,0.178-0.98c0.216-0.266,0.529-0.344,0.757-0.369v-3.27c-0.015-0.002-0.028-0.004-0.041-0.004
				c-0.216-0.018-0.483-0.039-0.704-0.205c-0.099-0.074-0.166-0.184-0.189-0.305c-0.057-0.295,0.02-0.586,0.213-0.818
				c0.492-0.596,1.568-0.66,2.01-0.66c0.35,0,1.525,0.049,2.038,0.668c0.19,0.232,0.267,0.521,0.211,0.812
				c-0.017,0.084-0.056,0.162-0.11,0.229c-0.231,0.271-0.59,0.271-0.742,0.271l-0.139-0.002c-0.068,0.59-0.054,1.293-0.037,1.975
				c0.01,0.447,0.021,0.896,0.008,1.322c0.043,0.01,0.09,0.02,0.127,0.027c0.248,0.053,0.623,0.131,0.828,0.475
				c0.142,0.236,0.158,0.523,0.055,0.877c-0.055,0.184-0.211,0.32-0.399,0.352C67.33,52.657,66.681,52.7,65.99,52.7z"/>
			<path fill="#FFFFFF" d="M65.977,46.073c0.933,0,1.871,0.297,1.758,0.885c-0.069,0.082-0.209,0.096-0.362,0.096
				c-0.072,0-0.146-0.004-0.221-0.004c-0.152,0-0.291,0.014-0.359,0.096c-0.215,1.121-0.033,2.637-0.094,3.914
				c0.17,0.516,1.325,0.055,1.036,1.025c-0.476,0.076-1.108,0.115-1.743,0.115c-0.636,0-1.27-0.039-1.744-0.115
				c-0.123-0.6,0.193-0.76,0.674-0.76c0.086,0,0.176,0.004,0.27,0.014c0-1.365,0-2.732,0-4.102c-0.15-0.254-0.711-0.105-0.943-0.279
				C64.132,46.366,65.052,46.073,65.977,46.073 M65.977,45.073v1V45.073c-0.636,0-1.79,0.109-2.396,0.842
				c-0.289,0.352-0.402,0.787-0.317,1.23c0.047,0.244,0.183,0.461,0.379,0.609c0.179,0.135,0.37,0.207,0.547,0.246v2.438
				c-0.262,0.094-0.478,0.244-0.646,0.449c-0.205,0.252-0.422,0.699-0.277,1.396c0.083,0.406,0.408,0.721,0.818,0.787
				c0.513,0.082,1.188,0.127,1.904,0.127c0.717,0,1.393-0.045,1.904-0.127c0.379-0.062,0.688-0.334,0.798-0.703
				c0.146-0.486,0.11-0.916-0.104-1.273c-0.231-0.393-0.59-0.559-0.879-0.643c0.002-0.312-0.006-0.629-0.014-0.938
				c-0.012-0.506-0.023-1.021,0-1.484c0.243-0.037,0.557-0.141,0.799-0.422c0.112-0.133,0.188-0.291,0.223-0.463
				c0.084-0.439-0.028-0.873-0.316-1.223C67.767,45.157,66.494,45.073,65.977,45.073L65.977,45.073z"/>
		</g>
		<path fill="#FFFFFF" stroke="#FFFFFF" stroke-linecap="round" stroke-linejoin="round" stroke-miterlimit="10" d="M58.738,49.571
			c-0.004-0.807-0.125-1.041-0.125-1.781c3.637-0.795,1.531,3.625,0,3.438C58.628,50.836,58.742,50.286,58.738,49.571"/>
	</g>
	<g>
		<path fill="#0A9995" d="M75.898,44.399c-1.208,0-2.423-0.006-3.639-0.01l-0.92-0.006c-1.521-0.008-3.041-0.016-4.553-0.016
			c-1.175,0-2.22,0.004-3.197,0.014c-0.314,0-0.576-0.24-0.601-0.551c-0.169-1.975-2.405-2.875-4.413-2.875
			c-2.029,0-4.297,0.902-4.479,2.883c-0.023,0.303-0.284,0.543-0.595,0.543H33.335c-0.332,0-0.602-0.268-0.602-0.596
			c0-0.322,0.253-0.586,0.576-0.6c3.438-0.07,9.165-1.91,10.049-4.309c0.307-0.826-0.051-1.666-1.088-2.564
			c-0.248-0.213-0.277-0.592-0.062-0.84c0.096-0.111,0.309-0.209,0.453-0.209c0.133,0,0.266,0.045,0.369,0.127
			c0.57,0.447,1.12,0.666,1.684,0.666c1.041,0,2.078-0.729,3.177-1.498c0.854-0.6,1.735-1.215,2.721-1.574
			c0.117-1.021-0.223-1.855-0.579-2.732c-0.195-0.471-0.383-0.936-0.504-1.423c-0.08-0.272,0.076-0.59,0.361-0.701
			c0.059-0.022,0.156-0.041,0.22-0.041c0.222,0,0.425,0.123,0.527,0.318c0.495,0.951,1.479,2.703,2.204,3.957
			c1.504-0.41,3.158-0.625,4.646-0.773c0.154-1.43,0.209-3.061,0.258-4.513c0.053-1.576,0.104-3.062,0.25-4.332
			c0.037-0.302,0.293-0.527,0.596-0.527c0.344,0.014,0.596,0.275,0.596,0.594c0.105,3.42,0.219,6.209,0.354,8.718
			c0.418,0.064,0.844,0.125,1.26,0.182c1.134,0.156,2.334,0.322,3.412,0.588c0.55-0.717,0.982-1.598,1.404-2.451
			c0.264-0.535,0.495-1.007,0.746-1.453c0.088-0.156,0.342-0.307,0.521-0.307c0.074,0,0.146,0.015,0.215,0.043
			c0.229,0.066,0.404,0.328,0.381,0.607c-0.064,0.603-0.281,1.156-0.49,1.691c-0.271,0.682-0.564,1.426-0.568,2.324
			c0.922,0.273,1.904,1.104,2.857,1.908c0.883,0.744,1.877,1.582,2.465,1.633c0.002,0,0.004,0,0.006,0
			c0.424,0,0.844-0.287,1.285-0.592c0.447-0.305,0.949-0.646,1.527-0.793c0.039-0.01,0.08-0.014,0.121-0.014
			c0.002,0,0.004,0,0.006,0c0.248,0,0.453,0.127,0.555,0.33c0.131,0.271,0.047,0.584-0.192,0.752
			c-1.744,1.23-1.458,2.172-1.363,2.48c0.709,2.326,6.19,4.494,10.183,4.639c0.322,0.012,0.576,0.271,0.576,0.596
			c0,0.322-0.255,0.584-0.578,0.596C81.603,44.364,79.145,44.399,75.898,44.399z M66.399,42.133c0.63,0.031,1.343,0.047,2.216,0.047
			c0.486,0,0.975-0.006,1.465-0.01l0.373-0.004c0.617-0.008,1.236-0.014,1.846-0.014c0.19,0,0.373,0,0.548,0.002
			c-0.333-1.395-0.938-2.518-1.812-3.35c-0.603,0.492-1.285,0.879-1.951,1.256C67.962,40.692,66.99,41.241,66.399,42.133z
			 M50.682,42.167c-0.636-0.953-1.817-1.623-2.97-2.273c-0.555-0.312-1.17-0.658-1.732-1.055c-0.73,0.943-1.436,1.953-1.754,3.328
			H50.682z M65.214,34.934c-0.178,0.473-0.434,0.969-0.7,1.484c-0.907,1.746-1.403,2.881-0.568,3.609
			c0.949-0.418,1.875-0.883,2.773-1.332c1.014-0.51,1.909-0.957,2.817-1.363C68.457,36.317,67.033,35.526,65.214,34.934z
			 M47.553,37.346c0.676,0.312,1.338,0.639,1.983,0.959c1.164,0.576,2.414,1.197,3.721,1.709c0.754-0.939,0.148-2.268-0.774-4.002
			c-0.19-0.359-0.387-0.727-0.547-1.078C50.007,35.614,48.589,36.393,47.553,37.346z M59.703,34.561
			c0.032,2.129,0.129,3.518,1.082,3.945c0.367-0.832,0.817-1.576,1.254-2.299c0.373-0.619,0.758-1.256,1.08-1.939
			c-0.104-0.021-0.549-0.107-0.549-0.107c-0.9-0.182-1.826-0.369-2.883-0.402C59.695,34.026,59.699,34.295,59.703,34.561z
			 M54.009,34.305c0.705,1.35,1.507,2.828,2.381,4.197c0.8-0.43,0.918-1.648,1.003-3.502c0.019-0.408,0.036-0.807,0.067-1.191
			c-0.051,0-0.103-0.002-0.153-0.002C56.191,33.807,55.052,34.053,54.009,34.305z"/>
		<path fill="#FFFFFF" d="M58.594,22.716c0.055,0.003,0.094,0.043,0.094,0.095c0.108,3.536,0.228,6.446,0.375,9.149
			c0.571,0.096,1.168,0.178,1.744,0.258c1.221,0.168,2.481,0.344,3.592,0.646c0.685-0.801,1.185-1.816,1.666-2.797
			c0.233-0.477,0.476-0.965,0.733-1.428c0.021-0.031,0.052-0.052,0.086-0.052c0.013,0,0.021,0.002,0.029,0.007
			c0.045,0.014,0.072,0.057,0.068,0.103c-0.057,0.531-0.256,1.035-0.465,1.568c-0.32,0.809-0.68,1.725-0.58,2.898
			c0.887,0.082,1.971,0.996,3.02,1.881c0.982,0.828,1.996,1.686,2.744,1.748c0.033,0.002,0.066,0.004,0.102,0.004
			c0.521,0,1.005-0.33,1.517-0.682c0.431-0.293,0.873-0.596,1.365-0.719c0.008,0,0.017-0.002,0.021-0.002
			c0.039,0,0.074,0.021,0.092,0.057c0.021,0.041,0.006,0.092-0.032,0.119c-1.354,0.955-1.878,1.977-1.556,3.035
			c0.787,2.582,6.465,4.842,10.644,4.992c0.056,0.002,0.094,0.045,0.094,0.096s-0.041,0.094-0.096,0.096
			c-2.272,0.076-4.726,0.109-7.951,0.109c-1.512,0-3.035-0.008-4.558-0.014c-1.52-0.008-3.041-0.016-4.555-0.016
			c-1.176,0-2.223,0.004-3.201,0.014c-0.051,0-0.094-0.039-0.098-0.09c-0.195-2.291-2.684-3.336-4.912-3.336
			c-2.248,0-4.766,1.045-4.977,3.336c-0.004,0.051-0.045,0.09-0.096,0.09H33.337c-0.057,0-0.103-0.043-0.103-0.096
			c0-0.055,0.046-0.098,0.097-0.1c3.526-0.072,9.512-1.957,10.498-4.637c0.381-1.029-0.033-2.078-1.229-3.115
			c-0.041-0.035-0.047-0.098-0.013-0.139c0.019-0.02,0.048-0.031,0.074-0.031c0.023,0,0.045,0.008,0.062,0.02
			c0.66,0.521,1.314,0.771,1.99,0.771c1.191,0,2.295-0.77,3.463-1.59c0.91-0.637,1.854-1.295,2.881-1.605
			c0.25-1.299-0.164-2.316-0.564-3.299c-0.182-0.438-0.365-0.891-0.479-1.355c-0.015-0.047,0.015-0.098,0.06-0.115
			c0.014-0.004,0.022-0.006,0.036-0.006c0.037,0,0.068,0.021,0.087,0.054c0.534,1.026,1.653,3.016,2.409,4.311
			c1.687-0.508,3.634-0.742,5.332-0.904c0.188-1.496,0.25-3.253,0.308-4.957c0.053-1.568,0.104-3.051,0.248-4.289
			c0.006-0.049,0.049-0.086,0.098-0.086h0.003 M61.074,39.112c0.379-0.967,0.896-1.82,1.393-2.646
			c0.486-0.807,0.988-1.641,1.361-2.574c-0.395-0.066-0.783-0.146-1.162-0.223c-1.016-0.205-2.063-0.416-3.305-0.416
			c-0.064,0-0.129,0-0.193,0.002c0.021,0.432,0.029,0.877,0.035,1.312C59.236,36.745,59.266,38.803,61.074,39.112 M56.187,39.11
			c1.537-0.375,1.617-2.186,1.705-4.098c0.025-0.562,0.051-1.141,0.119-1.674c-0.227-0.02-0.463-0.031-0.705-0.031
			c-1.346,0-2.699,0.334-3.893,0.629l-0.144,0.035C54.154,35.672,55.107,37.465,56.187,39.11 M63.878,40.602
			c1.08-0.463,2.125-0.988,3.136-1.494c1.086-0.547,2.211-1.109,3.385-1.604c-1.271-1.426-3.073-2.473-5.512-3.195
			c-0.14,0.572-0.479,1.225-0.834,1.912C63.193,37.875,62.309,39.584,63.878,40.602 M53.389,40.6
			c1.418-1.279,0.42-3.162-0.466-4.824c-0.28-0.527-0.547-1.029-0.707-1.467c-2.569,0.854-4.331,1.871-5.524,3.197
			c0.921,0.404,1.815,0.848,2.685,1.275C50.652,39.417,51.977,40.071,53.389,40.6 M68.615,42.68c0.611,0,1.227-0.008,1.842-0.014
			c0.617-0.008,1.234-0.014,1.842-0.014c0.425,0,0.808,0.004,1.162,0.01c-0.344-1.963-1.157-3.484-2.424-4.523
			c-0.643,0.609-1.449,1.062-2.231,1.506c-1.353,0.762-2.63,1.48-3.197,2.938C66.445,42.651,67.38,42.68,68.615,42.68
			 M43.625,42.667h7.859c-0.512-1.5-2.043-2.369-3.525-3.209c-0.719-0.404-1.459-0.824-2.071-1.311
			C44.904,39.395,43.904,40.696,43.625,42.667 M58.594,21.716h-0.003c-0.557,0-1.024,0.416-1.09,0.968
			c-0.15,1.292-0.201,2.79-0.254,4.375c-0.045,1.312-0.094,2.764-0.215,4.075c-1.275,0.137-2.652,0.328-3.945,0.65
			c-0.696-1.211-1.555-2.744-2.004-3.604c-0.193-0.366-0.564-0.591-0.973-0.591c-0.093,0-0.223,0.019-0.312,0.043
			c-0.029,0.01-0.059,0.02-0.088,0.031c-0.524,0.205-0.812,0.787-0.654,1.326c0.119,0.482,0.312,0.966,0.518,1.458
			c0.305,0.75,0.578,1.42,0.562,2.189c-0.93,0.393-1.771,0.98-2.529,1.512c-1.031,0.727-2.007,1.41-2.891,1.41
			c-0.445,0-0.896-0.184-1.371-0.559c-0.196-0.152-0.438-0.234-0.682-0.234c-0.33,0-0.641,0.145-0.849,0.398
			c-0.378,0.441-0.323,1.135,0.136,1.529c1.275,1.105,1.023,1.787,0.94,2.012c-0.724,1.965-6.011,3.908-9.58,3.98
			c-0.61,0.023-1.075,0.506-1.075,1.1c0,0.605,0.494,1.096,1.102,1.096h20.166c0.569,0,1.049-0.443,1.094-1.012
			c0.152-1.654,2.17-2.414,3.979-2.414c1.786,0,3.773,0.758,3.916,2.422c0.043,0.561,0.523,1.004,1.094,1.004
			c0.985-0.01,2.029-0.014,3.201-0.014c1.512,0,3.031,0.008,4.551,0.016l0.914,0.006c1.219,0.004,2.437,0.01,3.646,0.01
			c3.253,0,5.716-0.035,7.984-0.111c0.597-0.02,1.062-0.502,1.062-1.094c0-0.594-0.465-1.074-1.06-1.096
			c-4.135-0.148-9.131-2.352-9.721-4.285c-0.068-0.223-0.274-0.902,1.174-1.926c0.438-0.307,0.592-0.883,0.359-1.365
			c-0.195-0.395-0.574-0.627-0.994-0.627c-0.031,0-0.068,0.002-0.104,0.004c-0.055,0.006-0.107,0.014-0.16,0.027
			c-0.665,0.166-1.206,0.535-1.684,0.859c-0.352,0.242-0.742,0.51-0.955,0.51c-0.446-0.037-1.543-0.961-2.196-1.512
			c-0.876-0.738-1.771-1.494-2.668-1.875c0.063-0.652,0.289-1.223,0.509-1.777c0.23-0.588,0.459-1.172,0.529-1.83
			c0.047-0.533-0.278-1.016-0.771-1.165l0,0c-0.104-0.031-0.221-0.05-0.32-0.05c-0.381,0-0.729,0.195-0.934,0.521
			c-0.283,0.502-0.519,0.979-0.746,1.439l-0.037,0.076c-0.358,0.73-0.729,1.48-1.164,2.111c-1.012-0.229-2.088-0.377-3.061-0.51
			l-0.074-0.012c-0.281-0.039-0.566-0.078-0.852-0.119c-0.124-2.4-0.23-5.07-0.33-8.316c0-0.556-0.461-1.035-1.049-1.062
			C58.623,21.716,58.608,21.716,58.594,21.716L58.594,21.716z M60.615,37.698c-0.326-0.529-0.388-1.549-0.412-3.137
			c0-0.09-0.002-0.182-0.004-0.271c0.771,0.062,1.483,0.201,2.176,0.342c-0.242,0.453-0.506,0.891-0.765,1.318
			C61.273,36.508,60.928,37.081,60.615,37.698L60.615,37.698z M54.753,34.643c0.709-0.158,1.447-0.291,2.172-0.326
			c-0.012,0.207-0.021,0.416-0.03,0.621c-0.06,1.303-0.129,2.246-0.414,2.766C55.862,36.698,55.283,35.645,54.753,34.643
			L54.753,34.643z M48.476,37.229c0.834-0.629,1.886-1.176,3.206-1.672c0.118,0.234,0.241,0.469,0.358,0.688
			c0.826,1.551,1.217,2.494,0.998,3.143c-1.143-0.471-2.234-1.014-3.219-1.502l-0.062-0.029
			C49.337,37.647,48.91,37.438,48.476,37.229L48.476,37.229z M64.089,39.415c-0.215-0.441,0.037-1.164,0.852-2.732
			c0.202-0.391,0.395-0.764,0.557-1.123c1.242,0.443,2.275,0.988,3.121,1.646c-0.67,0.314-1.343,0.65-2.055,1.008l-0.068,0.035
			C65.712,38.641,64.908,39.043,64.089,39.415L64.089,39.415z M67.496,41.67c0.5-0.422,1.123-0.771,1.797-1.152
			c0.58-0.328,1.156-0.654,1.692-1.043c0.522,0.592,0.925,1.318,1.201,2.178c-0.575,0.002-1.159,0.008-1.742,0.014l-0.368,0.004
			c-0.488,0.006-0.976,0.012-1.461,0.012C68.208,41.68,67.839,41.678,67.496,41.67L67.496,41.67z M44.892,41.667
			c0.287-0.82,0.727-1.508,1.201-2.148c0.462,0.297,0.938,0.564,1.376,0.811c0.765,0.436,1.507,0.855,2.081,1.338H44.892
			L44.892,41.667z"/>
	</g>
	<g>
		<g>
			<path fill="#0A9995" d="M36.828,41.928c-2.078,0-4.512-0.594-5.918-1.439c-7.398-4.463-10.556-14.189-12.451-22.34
				c-1.174,0.367-2.453,0.627-3.697,0.879c-2.016,0.409-4.098,0.832-5.58,1.7c-1.068,0.626-2.193,1.566-2.305,2.258
				c-0.082,0.516,0.022,0.948,0.31,1.283c0.351,0.41,0.978,0.664,1.636,0.664c0.475,0,0.893-0.135,1.118-0.361
				c0.124-0.125,0.185-0.271,0.185-0.451c-0.002-0.285-0.359-0.477-0.694-0.477c-0.147,0-0.361,0.034-0.548,0.197
				c-0.094,0.084-0.211,0.125-0.33,0.125c-0.086,0-0.174-0.021-0.251-0.067c-0.187-0.108-0.282-0.323-0.238-0.534
				c0.187-0.895,1.03-1.496,2.103-1.496c0.735,0,1.401,0.289,1.828,0.795c0.293,0.348,0.607,0.961,0.444,1.914
				c-0.249,1.453-1.646,2.355-3.646,2.355c-1.479,0-3.383-0.572-4.07-1.828c-0.631-1.15-0.699-2.292-0.202-3.393
				c1.157-2.561,5.024-4.041,7.127-4.514c5.293-1.187,11.597-3.75,17.294-7.03c0.208-0.12,0.452-0.25,0.717-0.389
				c1.305-0.692,3.279-1.739,3.004-2.985c-0.101-0.453-0.513-0.656-0.877-0.656c-0.158,0-0.687,0.045-0.777,0.626
				c-0.039,0.244-0.25,0.421-0.494,0.421c-0.014,0-0.025,0-0.039-0.001c-0.26-0.021-0.461-0.237-0.461-0.498
				c-0.001-0.766,0.175-1.37,0.521-1.796c0.334-0.408,0.82-0.633,1.371-0.633c0.991,0,2.059,0.694,2.654,1.727
				c0.625,1.082,0.611,2.346-0.034,3.468c-0.948,1.644-3.096,2.707-5.172,3.733c-0.634,0.313-1.251,0.618-1.802,0.929
				c-0.432,0.24-1.055,0.491-1.715,0.756c-1.198,0.482-3.01,1.211-3.243,1.864c-0.671,1.882,0.642,5.767,1.347,7.853l0.165,0.49
				c1.173,3.504,4.537,11.896,10.447,14.14c0.56,0.213,1.196,0.324,1.843,0.324c1.242,0,2.382-0.398,3.005-1.049
				c0.304-0.957-0.257-1.617-0.965-2.314c-0.244-0.242-0.437-0.434-0.546-0.645c-0.092-0.18-0.068-0.396,0.061-0.551
				c0.098-0.115,0.238-0.18,0.385-0.18c0.049,0,0.098,0.008,0.146,0.021c1.103,0.336,2.492,1.133,3.086,2.361
				c0.362,0.75,0.384,1.58,0.06,2.4C41.028,41.098,39.326,41.928,36.828,41.928z"/>
			<path fill="#FFFFFF" d="M31.903,4.757c1.501,0,3.509,2.152,2.187,4.445c-1.157,2.007-4.518,3.2-6.784,4.475
				c-1.312,0.735-4.738,1.641-5.185,2.89c-0.785,2.199,0.783,6.499,1.508,8.67c1.888,5.638,5.427,12.429,10.744,14.449
				c0.64,0.242,1.336,0.355,2.021,0.355c1.385,0,2.723-0.469,3.443-1.289c0.679-1.85-1.213-2.881-1.506-3.447
				c1.646,0.502,3.66,1.98,2.826,4.102c-0.584,1.482-2.369,2.021-4.33,2.021c-2.111,0-4.427-0.625-5.66-1.369
				c-7.088-4.273-10.33-13.718-12.346-22.56c-3.139,1.111-7.271,1.26-9.895,2.797c-0.98,0.574-2.389,1.625-2.545,2.609
				c-0.271,1.713,1.166,2.525,2.438,2.525c0.947,0,1.805-0.45,1.803-1.312c-0.002-0.584-0.582-0.977-1.194-0.977
				c-0.31,0-0.624,0.1-0.878,0.322c0.148-0.719,0.869-1.098,1.613-1.098c0.994,0,2.026,0.68,1.778,2.125
				c-0.231,1.357-1.653,1.939-3.153,1.939c-1.508,0-3.095-0.59-3.631-1.568c-2.074-3.785,3.25-6.427,6.596-7.177
				c5.709-1.28,12.164-4.05,17.434-7.084c1.383-0.796,4.379-2.018,3.959-3.916c-0.152-0.691-0.766-1.048-1.363-1.048
				c-0.588,0-1.16,0.342-1.273,1.048C30.509,5.312,31.141,4.757,31.903,4.757 M31.903,3.757L31.903,3.757
				c-0.627,0-1.182,0.224-1.604,0.647c-0.523,0.525-0.789,1.293-0.788,2.283c0,0.521,0.401,0.955,0.922,0.996
				c0.026,0.002,0.053,0.003,0.079,0.003c0.486,0,0.908-0.354,0.986-0.843c0.01-0.066,0.033-0.205,0.285-0.205
				c0.055,0,0.332,0.013,0.387,0.263c0.193,0.876-1.648,1.853-2.75,2.437c-0.27,0.143-0.519,0.275-0.73,0.397
				c-5.654,3.258-11.908,5.799-17.152,6.977c-2.193,0.492-6.235,2.055-7.475,4.795c-0.557,1.232-0.48,2.56,0.221,3.838
				c0.789,1.441,2.834,2.088,4.508,2.088c2.261,0,3.847-1.062,4.14-2.771c0.196-1.141-0.192-1.891-0.554-2.318
				c-0.522-0.619-1.328-0.975-2.211-0.975c-1.315,0-2.357,0.762-2.594,1.896c-0.068,0.336,0.039,0.678,0.274,0.913
				c-0.11-0.067-0.206-0.146-0.28-0.233c-0.189-0.222-0.253-0.509-0.193-0.88c0.06-0.376,0.848-1.191,2.062-1.902
				c1.411-0.828,3.36-1.224,5.427-1.643c1.078-0.219,2.184-0.443,3.232-0.738c1.934,8.137,5.156,17.675,12.559,22.136
				c1.479,0.891,4.018,1.514,6.176,1.514c2.719,0,4.586-0.943,5.262-2.654c0.375-0.955,0.351-1.924-0.074-2.803
				c-0.835-1.73-2.807-2.443-3.391-2.623c-0.096-0.029-0.193-0.043-0.291-0.043c-0.293,0-0.574,0.129-0.769,0.359
				c-0.258,0.309-0.306,0.74-0.121,1.1c0.146,0.281,0.374,0.508,0.64,0.77c0.692,0.688,1.004,1.121,0.871,1.697
				c-0.545,0.498-1.521,0.812-2.561,0.812c-0.587,0-1.162-0.102-1.665-0.293c-5.711-2.168-9.002-10.395-10.151-13.832l-0.164-0.49
				c-0.687-2.029-1.963-5.807-1.351-7.523c0.212-0.465,2.067-1.211,2.96-1.57c0.676-0.271,1.312-0.527,1.771-0.784
				c0.535-0.302,1.14-0.601,1.779-0.917c2.043-1.01,4.357-2.156,5.383-3.931c0.737-1.281,0.75-2.728,0.035-3.968
				C34.308,4.553,33.067,3.757,31.903,3.757L31.903,3.757L31.903,3.757z M8.811,24.432c0.146-0.039,0.283-0.11,0.401-0.216
				c0.068-0.061,0.154-0.073,0.216-0.073c0.079,0,0.144,0.021,0.184,0.041c-0.006,0.013-0.015,0.021-0.026,0.034
				c-0.105,0.105-0.383,0.214-0.765,0.214C8.818,24.432,8.814,24.432,8.811,24.432L8.811,24.432z"/>
		</g>
	</g>
	<g>
		<path fill="#0A9995" d="M80.735,41.813c-1.396,0-3.312-0.258-4.497-1.484c-0.697-0.721-1.031-1.664-0.994-2.803
			c0.004-0.08,0.025-0.16,0.065-0.23c0.647-1.133,1.453-2.543,3.534-2.584c0.003,0,0.007,0,0.01,0c0.221,0,0.416,0.146,0.479,0.357
			c0.063,0.215-0.023,0.447-0.215,0.564c-1.045,0.652-1.609,1.689-1.371,2.523c0.229,0.795,1.133,1.25,2.479,1.25
			c0.206,0,0.424-0.01,0.651-0.033c3.83-0.367,7.527-5.121,8.947-7.584c0.857-1.486,2.868-4.971,2.666-7.728
			c-0.382-5.262-3.283-7.904-6.646-10.966c-0.431-0.392-0.865-0.789-1.304-1.197c-0.203-0.19-0.416-0.374-0.629-0.556
			c-1.043-0.898-2.227-1.916-2.262-3.808c-0.015-0.818,0.307-1.604,0.905-2.215c0.593-0.604,1.396-0.965,2.147-0.965
			c0.979,0,2.045,0.633,2.094,2.411c0.007,0.269-0.199,0.495-0.469,0.513c-0.011,0-0.021,0.001-0.031,0.001
			c-0.256,0-0.473-0.192-0.498-0.449c-0.014-0.139-0.057-0.561-0.594-0.561c-0.52,0-1.115,0.41-1.143,0.999
			c-0.053,1.154,2.046,2.4,3.73,3.402c1.002,0.595,1.947,1.157,2.525,1.716c1.312,1.269,2.156,2.651,2.898,3.872
			c0.363,0.595,0.713,1.168,1.093,1.691c0.209-1.511-0.007-3.106-0.976-3.882c-0.207-0.166-0.25-0.464-0.096-0.68
			c0.098-0.138,0.252-0.21,0.407-0.21c0.093,0,0.185,0.025,0.267,0.076c1.982,1.246,4.873,2.006,7.67,2.74
			c2.791,0.733,5.68,1.492,7.774,2.756c1.029,0.619,2.649,2.322,3.031,4.172c0.207,0.998,0.024,1.932-0.524,2.699
			c-0.617,0.86-1.892,1.375-3.41,1.375c-1.877,0-3.986-0.826-4.186-2.637c-0.09-0.824,0.197-1.34,0.454-1.626
			c0.383-0.427,0.973-0.661,1.657-0.661c0.785,0,1.609,0.311,2.201,0.832c0.135,0.118,0.195,0.299,0.16,0.475
			c-0.035,0.175-0.16,0.318-0.33,0.375c-0.195,0.066-0.436,0.105-0.689,0.146c-0.53,0.083-0.895,0.157-1.072,0.39
			c0.381,0.603,0.895,0.735,1.277,0.735c0.619,0,1.259-0.342,1.631-0.872c0.22-0.312,0.434-0.816,0.204-1.449
			c-0.817-2.271-4.207-2.902-7.484-3.513c-1.372-0.255-2.678-0.498-3.782-0.858c-0.174,0.572-0.348,1.154-0.522,1.742
			c-2.382,7.986-5.082,17.037-12.11,20.617C84.507,41.383,82.541,41.813,80.735,41.813z"/>
		<path fill="#FFFFFF" d="M84.705,4.854c0.832,0,1.558,0.559,1.594,1.925c-0.071-0.707-0.553-1.01-1.092-1.01
			c-0.744,0-1.6,0.58-1.641,1.477c-0.102,2.196,4.822,3.967,6.408,5.5c2.236,2.16,3.033,4.621,4.617,6.338
			c0.547-2.02,0.395-4.338-0.941-5.406c4.043,2.537,11.33,3.016,15.453,5.5c1.465,0.881,3.955,3.923,2.357,6.152
			c-0.562,0.785-1.769,1.166-3.004,1.166c-1.734,0-3.531-0.752-3.688-2.19c-0.13-1.196,0.672-1.733,1.615-1.733
			c0.642,0,1.349,0.248,1.871,0.707c-0.646,0.219-1.863,0.086-2.166,1.026c0.428,0.864,1.129,1.219,1.841,1.219
			c1.417,0,2.877-1.407,2.306-2.991c-1.336-3.711-8.387-3.428-12.064-4.847c-2.543,8.324-5.034,18.741-12.532,22.559
			c-1.209,0.615-3.099,1.066-4.903,1.066c-2.632,0-5.085-0.959-4.99-3.77c0.657-1.152,1.323-2.297,3.108-2.332
			c-2.474,1.543-2.315,4.697,1.372,4.697c0.221,0,0.454-0.012,0.7-0.035c3.872-0.373,7.637-4.893,9.331-7.832
			c1.093-1.893,2.937-5.237,2.732-8.016c-0.447-6.149-4.227-8.866-8.104-12.491c-1.205-1.125-2.695-1.99-2.732-4.009
			C82.125,5.979,83.523,4.854,84.705,4.854 M84.705,3.854c-0.883,0-1.818,0.417-2.504,1.115c-0.693,0.707-1.066,1.621-1.049,2.574
			c0.039,2.116,1.368,3.259,2.436,4.178c0.207,0.178,0.416,0.355,0.615,0.542c0.438,0.409,0.875,0.808,1.307,1.2
			c3.281,2.99,6.115,5.572,6.484,10.634c0.189,2.604-1.768,5.997-2.603,7.442c-1.915,3.322-5.411,7.033-8.562,7.338
			c-0.209,0.02-0.414,0.029-0.604,0.029c-1.091,0-1.838-0.332-1.997-0.889c-0.15-0.521,0.197-1.363,1.154-1.959
			c0.382-0.238,0.558-0.703,0.43-1.135c-0.127-0.426-0.518-0.715-0.959-0.715c-0.007,0-0.014,0-0.02,0
			c-2.365,0.047-3.287,1.658-3.959,2.836c-0.08,0.143-0.125,0.301-0.131,0.463c-0.043,1.277,0.34,2.344,1.135,3.166
			c1.309,1.354,3.363,1.637,4.855,1.637c1.88,0,3.934-0.449,5.355-1.174c7.22-3.68,9.953-12.839,12.363-20.921
			c0.127-0.424,0.252-0.844,0.377-1.26c1.021,0.291,2.164,0.504,3.357,0.726c3.141,0.584,6.386,1.188,7.105,3.188
			c0.125,0.348,0.076,0.682-0.144,0.994c-0.276,0.393-0.769,0.658-1.222,0.658c-0.148,0-0.283-0.027-0.405-0.084
			c0.104-0.02,0.204-0.036,0.276-0.047c0.257-0.04,0.521-0.082,0.772-0.167c0.339-0.114,0.591-0.399,0.661-0.751
			c0.07-0.35-0.052-0.712-0.32-0.948c-0.682-0.599-1.627-0.957-2.529-0.957c-0.832,0-1.553,0.294-2.031,0.828
			c-0.324,0.362-0.688,1.006-0.579,2.015c0.231,2.119,2.59,3.082,4.683,3.082c1.68,0,3.105-0.592,3.815-1.582
			c0.634-0.885,0.845-1.955,0.608-3.093c-0.389-1.881-1.971-3.723-3.264-4.5c-2.156-1.299-5.08-2.067-7.906-2.812
			c-2.76-0.725-5.611-1.475-7.53-2.68c-0.164-0.103-0.349-0.152-0.53-0.152c-0.312,0-0.622,0.146-0.816,0.421
			c-0.307,0.432-0.224,1.028,0.19,1.36c0.459,0.367,0.743,1.045,0.833,1.881c-0.068-0.112-0.141-0.228-0.21-0.342
			c-0.759-1.246-1.619-2.658-2.979-3.973c-0.619-0.6-1.59-1.176-2.615-1.786c-1.404-0.834-3.527-2.096-3.487-2.949
			c0.015-0.315,0.396-0.523,0.642-0.523c0.047,0,0.076,0.008,0.086,0.012h-0.002c-0.006,0,0.008,0.036,0.014,0.1
			c0.053,0.513,0.484,0.898,0.994,0.898c0.021,0,0.043,0,0.064-0.002c0.537-0.035,0.95-0.488,0.936-1.025
			C87.24,4.614,85.865,3.854,84.705,3.854L84.705,3.854z"/>
	</g>
	<g>
		<path fill="#0A9995" d="M43.473,34.608c-0.399,0-1.022-0.139-1.72-0.809C40.408,32.51,39.692,30.157,39,27.88
			c-0.428-1.406-0.834-2.744-1.35-3.692c-0.203,0.078-0.41,0.151-0.617,0.224c-0.74,0.26-1.443,0.506-1.854,0.969l0.071,0.522
			c0.305,2.188,0.723,5.186-0.717,6.59c-0.457,0.447-1.074,0.682-1.787,0.682c-1.545,0.002-3.295-1.104-3.744-2.361
			c-0.08-0.227,0.01-0.475,0.213-0.598c0.08-0.049,0.17-0.07,0.259-0.07c0.137,0,0.271,0.055,0.368,0.162
			c0.396,0.432,0.912,0.521,1.275,0.521c0.902,0,1.842-0.537,2.137-1.221c0.711-1.648-0.211-3.435-1.104-5.164
			c-0.533-1.033-1.037-2.008-1.191-2.947c-0.252-1.521,0.1-2.933,0.985-3.979c0.854-1.007,2.106-1.562,3.524-1.562
			c0.148,0,0.3,0.006,0.453,0.02c0.121,0.01,0.234,0.064,0.32,0.152c0.74,0.772,1.155,1.818,1.557,2.83
			c0.015,0.035,0.029,0.072,0.043,0.107c0.074-2.335-1.318-4.436-2.995-5.109c-0.183-0.074-0.304-0.246-0.312-0.439
			c-0.011-0.195,0.094-0.378,0.269-0.469c0.532-0.275,1.083-0.416,1.636-0.416c2.032,0,3.729,1.818,5.369,3.576
			c0.564,0.605,1.111,1.192,1.646,1.674c-0.043-0.098-0.088-0.197-0.131-0.299c-1.246-2.842-2.951-6.736,0.534-8.455
			c1.449-0.714,3.151-1.092,4.923-1.092c4.564,0,8.745,2.443,9.727,5.684c1.017,3.362-0.367,7.185-3.086,8.519
			c-0.691,0.338-1.508,0.51-2.424,0.51c-0.686,0-1.44-0.096-2.246-0.285c-3.097-0.731-5.428-3.492-5.94-7.034
			c-0.269-1.841,0.377-3.037,0.965-3.716c0.69-0.799,1.706-1.336,2.81-1.506c-2.315,0.167-4.473,1.26-4.477,3.473
			c-0.006,3.797,2.737,7.379,5.04,9.715c0.153,0.156,0.188,0.395,0.084,0.588c-0.088,0.164-0.259,0.264-0.44,0.264
			c-0.03,0-0.062-0.004-0.096-0.01c-3.076-0.601-4.996-2.66-6.851-4.654c-0.36-0.387-0.714-0.767-1.071-1.131
			c1.049,2.295,1.922,4.92,2.773,7.48c0.334,1.002,0.664,1.998,1.002,2.961c0.043,0.122,0.037,0.257-0.018,0.375
			c-0.166,0.359-0.291,0.713-0.38,1.078c0.038-0.012,0.077-0.016,0.115-0.016c0.146,0,0.288,0.064,0.386,0.184
			c0.723,0.879,0.904,2.051,0.463,2.984C44.789,34.194,44.173,34.608,43.473,34.608z M43.276,31.643
			c0.046,0.129,0.083,0.256,0.118,0.375c0.079,0.268,0.161,0.543,0.273,0.65c0.111-0.174,0.215-0.641,0.203-1.115
			c-0.072,0.072-0.168,0.125-0.276,0.143c-0.027,0.006-0.056,0.008-0.081,0.008C43.43,31.704,43.349,31.682,43.276,31.643z
			 M39.626,21.743c-0.041,2.914,1.552,5.908,3.002,8.609c-0.516-1.33-0.969-2.72-1.408-4.076
			C40.726,24.759,40.219,23.202,39.626,21.743z M33.272,21.083c0.248,0.783,0.483,1.527,0.95,1.969
			c0.339-0.182,0.697-0.328,1.049-0.473c0.479-0.195,0.936-0.383,1.301-0.636c-0.218-1.468-0.65-2.532-1.316-3.241
			c-0.826,0.269-1.48,1.25-2.036,2.211L33.272,21.083z M50.1,12.643c-0.979,0-1.849,0.371-2.322,0.991
			c-0.448,0.586-0.55,1.394-0.295,2.338c0.485,1.791,2.104,2.994,4.028,2.994c0.089,0,0.179-0.002,0.271-0.006
			c0.547-0.03,1.079-0.276,1.644-0.537l0.153-0.071c1.168-0.535,1.521-1.556,1.611-2.317c0.196-1.652-0.622-3.658-1.902-4.666
			c-0.705-0.554-1.731-0.94-2.875-1.102c1.473,0.337,2.571,1.374,2.918,2.83c0.051,0.219-0.049,0.445-0.246,0.554
			c-0.075,0.042-0.158,0.062-0.24,0.062c-0.133,0-0.262-0.051-0.357-0.15C51.925,12.985,51.033,12.643,50.1,12.643z"/>
		<path fill="#FFFFFF" d="M48.781,8.538c4.162,0,8.282,2.141,9.246,5.329c0.959,3.17-0.406,6.735-2.828,7.924
			c-0.66,0.324-1.41,0.459-2.201,0.459c-0.689,0-1.41-0.104-2.133-0.273c-2.947-0.695-5.088-3.354-5.561-6.619
			c-0.449-3.087,1.847-4.709,4.037-4.709c1.572,0,3.092,0.835,3.502,2.562c-0.693-0.711-1.729-1.068-2.744-1.068
			c-1.943,0-3.816,1.309-3.1,3.959c0.524,1.939,2.267,3.363,4.511,3.363c0.098,0,0.196-0.002,0.298-0.008
			c0.699-0.039,1.336-0.356,1.979-0.651c3.074-1.409,2.078-6.046-0.19-7.831c-1.081-0.85-2.728-1.291-4.374-1.291
			c-2.805,0-5.609,1.28-5.614,3.995c-0.006,4.041,2.961,7.812,5.185,10.067c-4.494-0.879-6.418-5.078-9.707-7.459
			c2.09,3.465,3.475,8.436,4.994,12.771c-0.287,0.619-0.498,1.31-0.564,2.144c-1.541-3.603-2.459-7.82-4.146-11.279
			c-1.029,3.951,1.492,8.154,3.295,11.552c0.314,0.588,0.312,1.439,0.853,1.688c0.063,0.029,0.125,0.043,0.183,0.043
			c0.6,0,0.83-1.492,0.571-2.373c1.142,1.389,0.474,3.275-0.795,3.275c-0.409,0-0.88-0.195-1.373-0.668
			c-2.168-2.078-2.688-7.49-4.24-9.879c-1.122,0.505-2.54,0.72-3.204,1.679c0.26,2.047,0.944,5.515-0.472,6.898
			c-0.39,0.381-0.897,0.539-1.438,0.539c-1.354,0-2.906-1.004-3.272-2.031c0.438,0.48,1.035,0.686,1.644,0.686
			c1.088,0,2.219-0.646,2.598-1.521c1.25-2.902-1.861-5.976-2.262-8.392c-0.469-2.832,1.391-4.957,4.018-4.957
			c0.136,0,0.271,0.004,0.412,0.017c1.055,1.101,1.414,2.888,2.168,4.288c0.984-3.046-0.666-6.325-3.016-7.271
			c0.48-0.25,0.948-0.359,1.404-0.359c3.049,0,5.577,4.931,8.112,6.14c-0.933-2.782-4.291-7.812-0.474-9.694
			C45.529,8.863,47.158,8.538,48.781,8.538 M34.184,23.652c0.899-0.569,2.135-0.808,2.922-1.491
			c-0.211-1.686-0.698-3.101-1.694-4.009c-1.252,0.193-2.103,1.587-2.734,2.704C33.029,21.938,33.303,23.095,34.184,23.652
			 M48.781,7.538c-1.849,0-3.628,0.396-5.146,1.144c-3.034,1.495-2.58,4.425-1.64,6.997c-1.592-1.701-3.391-3.545-5.559-3.545
			c-0.634,0-1.262,0.158-1.866,0.473c-0.347,0.18-0.557,0.545-0.538,0.936c0.021,0.391,0.264,0.733,0.627,0.879
			c0.525,0.211,1.019,0.588,1.436,1.078c-0.045-0.01-0.088-0.016-0.133-0.02c-0.168-0.014-0.332-0.021-0.494-0.021
			c-1.567,0-2.955,0.617-3.905,1.738c-0.983,1.16-1.374,2.717-1.099,4.383c0.168,1.019,0.688,2.027,1.24,3.096
			c0.838,1.625,1.705,3.306,1.09,4.736c-0.191,0.443-0.912,0.918-1.68,0.918c-0.383,0-0.688-0.121-0.904-0.357
			c-0.195-0.215-0.465-0.326-0.738-0.326c-0.178,0-0.355,0.047-0.516,0.143c-0.408,0.246-0.586,0.746-0.428,1.193
			c0.521,1.461,2.452,2.695,4.217,2.695c0.844,0,1.584-0.283,2.135-0.822c1.621-1.582,1.183-4.726,0.863-7.019
			c-0.014-0.092-0.025-0.182-0.037-0.27c0.352-0.283,0.908-0.479,1.49-0.682c0.067-0.024,0.137-0.049,0.205-0.073
			c0.405,0.872,0.754,2.019,1.118,3.215c0.711,2.338,1.446,4.756,2.886,6.135c0.816,0.783,1.574,0.947,2.065,0.947
			c0.899,0,1.683-0.521,2.095-1.396c0.523-1.107,0.316-2.488-0.527-3.516c-0.074-0.09-0.16-0.164-0.256-0.223
			c0.057-0.164,0.125-0.328,0.201-0.494c0.109-0.236,0.123-0.506,0.036-0.752c-0.336-0.961-0.667-1.953-0.999-2.953
			c-0.559-1.674-1.123-3.375-1.742-4.998c1.68,1.757,3.531,3.406,6.319,3.95c0.063,0.014,0.128,0.02,0.19,0.02
			c0.363,0,0.705-0.199,0.881-0.527c0.209-0.387,0.141-0.863-0.168-1.176c-0.244-0.246-0.508-0.525-0.785-0.832
			c0.599,0.328,1.24,0.578,1.918,0.738c0.843,0.199,1.638,0.301,2.361,0.301c0.992,0,1.881-0.189,2.643-0.562
			c2.929-1.438,4.43-5.525,3.345-9.111C57.925,10.078,53.635,7.538,48.781,7.538L48.781,7.538z M52.844,14.212
			c0.165,0,0.329-0.041,0.481-0.125c0.395-0.217,0.596-0.668,0.49-1.106c-0.041-0.175-0.093-0.345-0.152-0.509
			c0.736,0.977,1.166,2.355,1.03,3.501c-0.11,0.924-0.556,1.571-1.323,1.923l-0.156,0.072c-0.519,0.24-1.008,0.466-1.461,0.49
			c-0.082,0.004-0.162,0.008-0.242,0.008c-1.723,0-3.113-1.031-3.547-2.627c-0.215-0.797-0.146-1.438,0.209-1.901
			c0.383-0.498,1.103-0.796,1.927-0.796c0.802,0,1.56,0.287,2.028,0.768C52.322,14.107,52.582,14.212,52.844,14.212L52.844,14.212z
			 M33.763,20.973c0.343-0.583,0.822-1.315,1.357-1.654c0.424,0.569,0.721,1.354,0.902,2.375c-0.275,0.151-0.604,0.285-0.941,0.425
			c-0.24,0.098-0.485,0.198-0.729,0.312C34.109,22.06,33.938,21.527,33.763,20.973L33.763,20.973z"/>
	</g>
	<g>
		<path fill="#0A9995" d="M71.947,34.702c-0.104,0-0.209-0.006-0.318-0.02c-0.676-0.09-1.235-0.65-1.496-1.504
			c-0.268-0.869-0.193-2.049,0.57-2.725c0.094-0.082,0.211-0.125,0.33-0.125c0.032,0,0.064,0.004,0.096,0.01
			c-0.049-0.312-0.118-0.602-0.254-0.732c-0.139-0.133-0.188-0.332-0.129-0.513l0.857-2.674c0.938-2.922,1.898-5.922,2.895-8.873
			c-0.465,0.455-1.029,0.853-1.766,1.002c-0.033,0.006-0.066,0.01-0.1,0.01c-0.182,0-0.352-0.098-0.439-0.262
			c-0.578-1.064-0.088-2.305,0.389-3.504c0.306-0.771,0.621-1.569,0.59-2.209c-0.072-1.403-2.213-1.958-4.172-2.021
			c1.982,0.52,3.143,1.94,3.226,4.017c0.126,3.184-2.533,7.578-5.817,8.166c-0.865,0.154-1.481,0.221-2.062,0.221
			c-0.896,0-1.708-0.17-2.555-0.533c-2.773-1.191-4.105-3.831-3.478-6.887c0.731-3.557,4.173-7.336,9.108-7.336
			c0.24,0,0.48,0.009,0.728,0.027c1.966,0.146,5.438,0.722,6.614,2.909c0.34,0.631,0.462,1.335,0.367,2.107
			c0.656-0.631,1.396-1.226,2.263-1.694c0.074-0.041,0.155-0.062,0.237-0.062c0.084,0,0.168,0.021,0.242,0.062
			c0.148,0.083,0.246,0.234,0.258,0.404c0.016,0.242,0.01,0.479-0.014,0.713c0.045-0.047,0.1-0.084,0.158-0.111
			c0.62-0.275,1.241-0.414,1.848-0.414c2.526,0,4.191,2.307,4.722,4.594c0.479,2.072,0.181,4.897-2.163,6.258
			c0.035,0.467,0.055,0.998,0.076,1.561c0.099,2.628,0.232,6.226,2.216,6.226c0.502,0,1.122-0.197,1.844-0.59
			c0.074-0.041,0.156-0.061,0.238-0.061c0.114,0,0.228,0.039,0.319,0.115c0.156,0.129,0.219,0.344,0.156,0.537
			c-0.475,1.482-2.119,2.258-3.5,2.258c-0.598,0-1.142-0.137-1.57-0.396c-1.767-1.068-1.717-3.451-1.668-5.754
			c0.024-1.161,0.051-2.36-0.164-3.329c-0.172-0.777-0.805-1.027-1.826-1.344c-0.361-0.111-0.73-0.227-1.064-0.391
			c-0.367,1.254-0.849,2.654-1.394,4.236l-0.503,1.467c-0.156,0.459-0.299,1.096-0.448,1.769
			C74.858,31.713,74.193,34.702,71.947,34.702L71.947,34.702z M71.453,31.93c0.012,0.209,0.035,0.395,0.069,0.527
			c0.036-0.1,0.113-0.33,0.119-0.348C71.564,32.067,71.5,32.004,71.453,31.93z M78.558,19.665c0.363,0.184,0.79,0.324,1.234,0.472
			c0.508,0.168,1.029,0.34,1.494,0.592c0.775-0.621,1.103-1.765,1.365-3.009c-0.152-0.206-0.312-0.448-0.48-0.704
			c-0.531-0.813-1.194-1.825-1.905-1.825c-0.038,0-0.076,0.003-0.115,0.008c-0.911,0.129-1.327,2.785-1.528,4.062
			C78.6,19.401,78.578,19.536,78.558,19.665z M65.05,11.121c-1.668,0.691-3.129,2.858-3.223,4.812
			c-0.041,0.882,0.186,2.066,1.504,2.701c0.707,0.34,1.334,0.539,1.918,0.607c0.123,0.016,0.248,0.021,0.375,0.021
			c1.367,0,2.836-0.828,3.651-2.059c0.679-1.023,0.804-2.174,0.353-3.238c-0.303-0.717-0.961-1.082-1.957-1.082
			c-1.152,0-2.393,0.504-3.02,1c-0.09,0.07-0.199,0.107-0.311,0.107c-0.064,0-0.131-0.013-0.191-0.037
			c-0.167-0.07-0.283-0.225-0.306-0.404c-0.082-0.703,0.137-1.368,0.632-1.924C64.642,11.439,64.835,11.271,65.05,11.121z"/>
		<path fill="#FFFFFF" d="M67.421,8.711c0.228,0,0.457,0.008,0.689,0.026c4.262,0.32,8.312,2.025,5.748,6.618
			c1.107-1.267,2.229-2.521,3.771-3.356c0.143,2.199-1.736,4.076-1.037,6.525c0.918-1.547,1.193-3.729,1.885-5.5
			c0.576-0.255,1.126-0.371,1.645-0.371c4.295,0,6.342,7.956,2.031,10.066c0.275,2.773-0.229,8.574,2.818,8.574
			c0.562,0,1.248-0.197,2.082-0.65c-0.396,1.236-1.793,1.912-3.023,1.912c-0.488,0-0.949-0.107-1.312-0.326
			c-2.346-1.42-0.959-5.853-1.602-8.765c-0.4-1.805-2.707-1.487-3.676-2.422c-0.475,1.766-1.234,3.873-2.074,6.338
			c-0.688,2.029-0.996,6.822-3.42,6.822c-0.082,0-0.166-0.004-0.254-0.016c-1.168-0.152-1.67-2.463-0.66-3.355
			c-0.164,0.75-0.131,2.262,0.434,2.262c0.041,0,0.084-0.01,0.132-0.025c0.42-0.15,0.452-0.771,0.67-1.172
			c1.926-3.595,3.274-8.05,3.664-12.81c-1.397,4.146-2.681,8.41-4.052,12.585c-0.289-0.738-0.135-1.918-0.659-2.424
			c1.487-4.619,2.948-9.264,4.522-13.796c-0.869,0.664-1.572,2.297-3.111,2.609c-0.815-1.5,1.128-3.748,1.037-5.5
			c-0.092-1.822-2.596-2.501-5.053-2.501c-1.357,0-2.701,0.208-3.615,0.544c-3.146,1.159-5.428,6.779-1.887,8.482
			c0.67,0.322,1.361,0.568,2.074,0.654c0.145,0.016,0.289,0.024,0.436,0.024c2.767,0,5.75-2.957,4.465-5.992
			c-0.43-1.017-1.381-1.386-2.418-1.386c-1.237,0-2.596,0.527-3.33,1.107c-0.184-1.57,1.549-2.629,3.212-2.629
			c0.122,0,0.247,0.006,0.368,0.018c6.996,0.686,3.076,10.536-1.604,11.374c-0.723,0.13-1.361,0.214-1.975,0.214
			c-0.786,0-1.53-0.138-2.357-0.493C55.298,19.102,59.5,8.712,67.421,8.711 M81.305,21.321c1.176-0.699,1.565-2.177,1.885-3.729
			c-0.733-0.877-1.603-2.903-2.924-2.903c-0.062,0-0.123,0.004-0.187,0.013c-1.485,0.211-1.797,3.701-2.074,5.221
			C78.955,20.538,80.365,20.696,81.305,21.321 M87.055,30.643h0.005 M71.033,30.831h0.006 M67.423,7.711h-0.002
			c-5.2,0-8.827,3.987-9.6,7.737c-0.679,3.301,0.766,6.154,3.77,7.445c0.912,0.393,1.787,0.574,2.753,0.574
			c0.612,0,1.256-0.069,2.151-0.229c2.272-0.408,4.203-2.39,5.289-4.65c0.186,0.295,0.508,0.47,0.848,0.47
			c0.066,0,0.134-0.006,0.199-0.021c0.256-0.051,0.494-0.129,0.717-0.228c-0.828,2.489-1.633,5-2.42,7.455l-0.859,2.673
			c-0.117,0.363-0.018,0.761,0.259,1.027l0,0c-0.057,0.033-0.11,0.072-0.159,0.117c-0.928,0.822-1.027,2.221-0.715,3.24
			c0.32,1.045,1.034,1.738,1.911,1.852c0.132,0.02,0.259,0.025,0.384,0.025c2.646,0,3.391-3.342,3.934-5.783
			c0.146-0.66,0.285-1.283,0.434-1.716l0.502-1.466c0.473-1.368,0.896-2.601,1.24-3.725c0.201,0.071,0.402,0.135,0.597,0.194
			c0.972,0.301,1.376,0.474,1.487,0.976c0.201,0.909,0.176,2.079,0.152,3.21c-0.049,2.333-0.105,4.974,1.908,6.193
			c0.508,0.309,1.141,0.471,1.83,0.471c1.491,0,3.35-0.793,3.95-2.531c0.048-0.117,0.075-0.244,0.075-0.379c0-0.555-0.445-1-0.998-1
			h-0.002c-0.001,0-0.002,0-0.003,0c-0.013,0-0.024,0-0.037,0c-0.165,0.006-0.319,0.053-0.455,0.129
			c-0.632,0.342-1.183,0.52-1.59,0.52c-1.501,0-1.632-3.457-1.716-5.746c-0.018-0.446-0.033-0.877-0.059-1.277
			c2.188-1.469,2.67-4.312,2.133-6.635c-0.574-2.479-2.408-4.98-5.209-4.98c-0.494,0-0.996,0.082-1.496,0.245
			c-0.033-0.325-0.225-0.615-0.513-0.774C77.964,11.042,77.798,11,77.63,11c-0.164,0-0.326,0.04-0.477,0.121
			c-0.562,0.304-1.068,0.656-1.535,1.035c-0.066-0.437-0.205-0.852-0.416-1.244c-1.224-2.276-4.49-2.98-7.017-3.17
			C67.928,7.721,67.673,7.711,67.423,7.711L67.423,7.711z M72.556,13.389c-0.188-0.724-0.521-1.353-0.984-1.871
			c0.643,0.253,1.075,0.614,1.1,1.093C72.683,12.837,72.636,13.103,72.556,13.389L72.556,13.389z M65.625,18.764
			c-0.106,0-0.213-0.007-0.318-0.019c-0.525-0.062-1.102-0.246-1.758-0.562c-0.86-0.414-1.271-1.163-1.221-2.228
			c0.043-0.912,0.43-1.894,1-2.711c0,0.119,0.006,0.24,0.021,0.363c0.042,0.36,0.275,0.669,0.609,0.809
			c0.123,0.051,0.254,0.076,0.383,0.076c0.223,0,0.441-0.074,0.621-0.216c0.547-0.432,1.682-0.892,2.709-0.892
			c1.17,0,1.416,0.584,1.498,0.775c0.49,1.16,0.103,2.146-0.311,2.768C68.144,18.009,66.813,18.764,65.625,18.764L65.625,18.764z
			 M79.111,19.366c0.002-0.01,0.004-0.02,0.004-0.029c0.446-2.84,0.85-3.549,1.108-3.645c0.001,0,0.001,0,0.002,0
			c0.481,0,1.137,0.999,1.528,1.596c0.123,0.188,0.242,0.373,0.363,0.543c-0.205,0.926-0.457,1.768-0.923,2.293
			c-0.405-0.187-0.829-0.326-1.245-0.463C79.656,19.563,79.369,19.47,79.111,19.366L79.111,19.366z"/>
	</g>
	<g>
		<path fill="#FFFFFF" stroke="#0A9995" stroke-linecap="round" stroke-linejoin="round" stroke-miterlimit="10" d="M56.99,36.051
			c-0.279-0.467-0.557-1.174,0-1.492c-0.705,0.203-0.582-0.418-0.848-0.652c0,0.219,0,0.438,0,0.652
			c-0.193,0.152-0.619,0.074-0.756,0.281c0.281,0.033,0.467,0.16,0.568,0.371c0.123,0.41-0.283,0.771,0,1.025
			C56.113,35.108,56.669,35.872,56.99,36.051z"/>
		<path fill="#FFFFFF" stroke="#0A9995" stroke-linecap="round" stroke-linejoin="round" stroke-miterlimit="10" d="M61.232,36.237
			c-0.262-0.582-0.229-1.25,0.281-1.49c-0.686,0.148-0.561-0.502-0.754-0.84c-0.064,0.463-0.119,0.896-0.66,0.652
			c0.564,0.432-0.064,1.119,0.094,1.586c0.072-0.301,0.262-0.488,0.566-0.561C60.878,35.782,61.094,36.366,61.232,36.237z"/>
		<path fill="#FFFFFF" stroke="#0A9995" stroke-linecap="round" stroke-linejoin="round" stroke-miterlimit="10" d="M51.996,37.45
			c-0.52-0.352-0.678-0.857-0.565-1.398c-0.082,0.137-0.142,0.295-0.377,0.279c-0.109-0.17-0.248-0.314-0.378-0.467
			c-0.073,0.385,0.146,0.479,0.095,0.84c-0.291,0.021-0.365,0.258-0.563,0.373c0.297-0.016,0.567-0.004,0.66,0.186
			c0.021,0.381,0.045,0.762,0.188,1.025c0.057-0.379,0.043-0.828,0.285-1.025C51.457,37.368,51.947,37.581,51.996,37.45z"/>
		<path fill="#FFFFFF" stroke="#0A9995" stroke-linecap="round" stroke-linejoin="round" stroke-miterlimit="10" d="M65.473,36.237
			c0.483,0.52-0.231,0.943-0.472,1.307c0.32-0.025,0.453-0.236,0.849-0.188c0.03,1.061,0.287,0.943,0.28-0.092
			c0.164-0.15,0.582-0.049,0.66-0.279c-0.635,0.041-0.391-0.871-0.473-1.119C66.205,36.407,65.734,36.241,65.473,36.237z"/>
		<path fill="#FFFFFF" stroke="#0A9995" stroke-linecap="round" stroke-linejoin="round" stroke-miterlimit="10" d="M46.059,40.338
			c-0.168,0.242-0.373,0.439-0.563,0.654c0.297,0.045,0.33-0.17,0.657-0.094c0.3,1.029,0.302,1.25,0.566,0.094
			c0.327-0.133,0.604,0.26,0.754,0c-0.414-0.121-0.595-0.471-0.849-0.746c0.082-0.086,0.271-0.525,0.095-0.561
			c-0.087,0.164-0.212,0.289-0.38,0.373c-0.114-0.195-0.272-0.352-0.471-0.469C45.919,39.854,46.007,40.079,46.059,40.338z"/>
		<path fill="#FFFFFF" stroke="#0A9995" stroke-linecap="round" stroke-linejoin="round" stroke-miterlimit="10" d="M70.371,40.432
			c-0.377,0.092-0.531,0.406-0.754,0.652c0.367,0.051,0.461-0.166,0.85-0.094c0,0.281,0,0.561,0,0.84
			c0.382-0.09,0.123-0.809,0.472-0.934c0.24-0.102,0.449,0.283,0.565,0c-0.229-0.146-0.418-0.334-0.565-0.562
			c0.082-0.111,0.3-0.561,0.095-0.648c-0.121,0.16-0.195,0.363-0.472,0.373c-0.086-0.166-0.211-0.289-0.377-0.373
			C70.232,39.948,70.322,40.17,70.371,40.432z"/>
	</g>
</g>
</svg>
