<?xml version="1.0" encoding="utf-8"?>
<!-- Generator: Adobe Illustrator 15.0.0, SVG Export Plug-In . SVG Version: 6.00 Build 0)  -->
<!DOCTYPE svg PUBLIC "-//W3C//DTD SVG 1.1//EN" "http://www.w3.org/Graphics/SVG/1.1/DTD/svg11.dtd">
<svg version="1.1" id="Etsy" xmlns="http://www.w3.org/2000/svg" xmlns:xlink="http://www.w3.org/1999/xlink" x="0px" y="0px"
	 width="290px" height="145px" viewBox="0 0 290 145" enable-background="new 0 0 290 145" xml:space="preserve">
<g display="none">
	<path display="inline" fill="#A30F1D" d="M-348.629,293.866c0,0-0.007-2.454,0.279-3.669c0.307-1.297,2.058-8.711,2.058-8.711
		s-0.515-1.021-0.515-2.528c0-2.37,1.377-4.14,3.088-4.14c1.452,0,2.154,1.092,2.154,2.396c0,1.468-0.931,3.651-1.41,5.677
		c-0.401,1.694,0.847,3.077,2.522,3.077c3.029,0,5.068-3.891,5.068-8.495c0-3.509-2.357-6.131-6.653-6.131
		c-4.847,0-7.87,3.618-7.87,7.654c0,1.396,0.411,2.377,1.055,3.137c0.297,0.354,0.341,0.491,0.231,0.896
		c-0.077,0.293-0.254,1-0.327,1.281c-0.105,0.401-0.432,0.551-0.801,0.396c-2.234-0.911-3.275-3.354-3.275-6.104
		c0-4.541,3.831-9.986,11.428-9.986c6.105,0,10.121,4.416,10.121,9.158c0,6.271-3.488,10.955-8.626,10.955
		c-1.727,0-3.35-0.936-3.907-1.99c0,0-0.928,3.684-1.124,4.392c-0.337,1.231-1.607,3.425-1.607,3.425s-0.463,0.545-1.246,0.777
		C-348.357,295.443-348.629,293.866-348.629,293.866z"/>
</g>
<g>
	<g>
		<g>
			<path fill="#0A9995" d="M78.172,6.342c4.143,0,8.341,2.589,10.689,6.592c2.427,4.13,2.412,9.13-0.039,13.377
				c-0.26,0.456-0.556,0.89-0.862,1.316c0.559-0.071,1.115-0.109,1.677-0.109c3.37,0,6.306,1.23,8.95,3.049
				c0.324-5.094,2.999-9.089,7.744-11.429c4.303-2.119,9.322-3.242,14.518-3.242c6.211,0,12.468,1.586,17.626,4.471
				c3.123,1.743,5.738,3.912,7.741,6.375c4.636-5.634,11.966-10.401,21.772-10.401c0.725,0,1.464,0.028,2.191,0.082
				c10.062,0.756,17.034,3.962,20.191,9.284c0.199-0.114,0.4-0.227,0.6-0.335c0.866-0.466,1.848-0.715,2.834-0.715
				c0.98,0,1.961,0.247,2.842,0.721c0.529,0.291,1.006,0.653,1.416,1.072c0.682-0.091,1.362-0.139,2.043-0.139
				c0.4,0,0.797,0.021,1.183,0.051c-0.966-1.66-1.687-3.625-1.884-6.023c-0.033-0.359-0.051-0.715-0.059-1.058
				c-0.011-0.474,0.016-0.97,0.077-1.519c0.3-2.789,1.538-5.345,3.571-7.393c1.639-1.652,3.748-2.863,5.949-3.422
				c0.084-0.023,0.166-0.046,0.258-0.068l0.031-0.006l0.035-0.008c0.192-0.044,0.393-0.076,0.58-0.104l0.037-0.006l0.036-0.007
				c0.185-0.037,0.37-0.066,0.532-0.083c0.201-0.021,0.4-0.033,0.597-0.042h0.046l0.043-0.004c0.188-0.014,0.371-0.023,0.555-0.023
				h0.004c4.006,0,8.552,2.537,9.673,8.206c0.146,0.738,0.229,1.526,0.257,2.337c0.048,1.858-0.771,3.536-2.109,4.64
				c0.896,0.557,1.75,1.063,2.394,1.445c2.771,1.646,5.384,3.198,7.231,4.985c0.611,0.593,1.188,1.191,1.734,1.795
				c0.988-0.704,2.191-1.098,3.439-1.098c1.117,0,2.215,0.314,3.16,0.908c4.408,2.768,11.369,4.598,18.108,6.371
				c7.376,1.939,15.009,3.945,20.884,7.481c3.959,2.383,8.59,7.787,9.782,13.503c0.781,3.75,0.043,7.446-2.082,10.415
				c-2.459,3.435-6.981,5.407-12.407,5.407c-6.752,0-14.39-3.364-15.188-10.76c-0.05-0.412-0.07-0.83-0.07-1.233
				c0-3.133,1.302-5.224,2.396-6.426c0.186-0.204,0.381-0.4,0.578-0.587c-1.412-0.292-2.836-0.557-4.188-0.808
				c-1.915-0.357-3.768-0.701-5.542-1.097c-0.021,0.051-0.032,0.098-0.043,0.147c-6.289,21.064-13.412,44.94-32.94,54.888
				c-0.557,0.281-1.144,0.547-1.744,0.797c0.103,0.197,0.203,0.396,0.282,0.607c3.263,0.25,6.339,0.547,9.177,0.889
				c2.754,0.328,4.814,2.734,4.696,5.479v0.035l-0.004,0.034c-0.165,2.785-2.494,4.969-5.302,4.981
				c-3.812,0.039-7.608,0.074-11.51,0.106c0.025,0.937,0.018,1.964-0.151,3.017c1.253,2.201,1.469,4.842,0.584,7.684
				c-0.979,3.156-3.365,5.486-6.72,6.557c-2.329,0.741-4.629,0.741-5.858,0.741c-0.914,0-1.796-0.032-2.653-0.065h-0.041
				c-0.746-0.025-1.447-0.051-2.068-0.051c-0.17,0-0.334,0-0.502,0.006c-0.062,0.002-0.125,0.002-0.186,0.002
				c-1.898,0-3.615-0.887-4.705-2.309c-2.644,1.814-5.879,2.842-9.158,2.842c-3.004,0-5.765-0.822-8.07-2.367
				c-0.837,0.787-1.915,1.332-3.096,1.522c-1.471,0.237-3.373,0.367-5.357,0.367s-3.891-0.132-5.365-0.369
				c-1.484-0.239-2.787-1.036-3.684-2.164c-3.153,1.845-7.123,2.919-11.307,2.919c-2.639,0-5.162-0.423-7.505-1.264
				c-0.748-0.266-1.417-0.672-1.989-1.188c-2.023,1.753-4.7,2.737-7.735,2.737c-4.252,0-8.464-2.013-11.264-5.312
				c-1.002,2.24-3.428,4.76-9.296,4.76c-2.728,0-5.554-0.518-6.793-0.821c-1.225-0.304-2.279-0.97-3.062-1.869
				c-2.279,1.832-5.341,2.908-8.6,2.908c-1.277,0-2.534-0.168-3.732-0.507c-0.492,0.095-1.052,0.162-1.674,0.162
				c-0.523,0-1.055-0.047-1.58-0.135c-2.232-0.387-4.067-2.027-4.678-4.189c-0.245-0.872-1.409-5.424-0.17-9.235
				c0.044-0.132,0.094-0.265,0.141-0.396c-0.303-1.051-0.465-2.353-0.252-3.879c-3.525,0.004-6.923,0.013-10.238,0.021
				c-2.771,0-5.056-2.053-5.319-4.779c-0.272-2.713,1.559-5.152,4.298-5.693c1.313-0.25,2.662-0.438,3.849-0.604l0.118-0.017
				c1.996-0.273,4.05-0.559,5.496-1.055c0.543-0.195,1.137-0.295,1.736-0.305c-0.911-0.396-1.762-0.828-2.521-1.287
				c-9.229-5.562-16.643-14.281-22.666-26.644c-3.809-7.815-6.956-16.832-9.803-28.111c-1.683,0.388-3.37,0.73-5.031,1.065
				c-1.688,0.344-3.39,0.69-5.029,1.076c0.22,0.214,0.433,0.438,0.628,0.67c1.958,2.291,2.725,5.335,2.167,8.57
				c-1.019,5.931-6.43,9.764-13.791,9.764c-4.853,0-11.53-1.838-14.368-7.018c-2.297-4.191-2.521-8.579-0.636-12.684
				c4.56-9.951,19.508-13.563,21.198-13.941c12.95-2.903,28.413-9.198,42.425-17.267c0.583-0.336,1.207-0.668,1.873-1.022
				c-0.913-1.032-1.467-2.378-1.467-3.835c0-3.006,0.79-5.499,2.347-7.41C72.809,7.547,75.388,6.342,78.172,6.342 M78.218,12.181
				c-0.021,0-0.041,0-0.062,0c-0.004,0-0.009,0-0.014,0c-0.12,0-0.241,0.005-0.362,0.018c0.082-0.008,0.165-0.008,0.245-0.012
				c0.04,0,0.078-0.004,0.116-0.005c0.004,0,0.009,0,0.014,0c0.027,0,0.053,0,0.079,0c0.004,0,0.008,0,0.011,0
				c-0.003,0-0.007,0-0.011,0S78.222,12.181,78.218,12.181c0.004,0,0.012,0,0.016,0c-0.019,0-0.04-0.001-0.062-0.001
				C78.188,12.179,78.204,12.179,78.218,12.181 M67.613,73.771c0.391-0.441,0.858-0.833,1.391-1.146
				c0.913-0.538,1.954-0.822,3.018-0.822c1.578,0,3.095,0.629,4.193,1.729c0.421-0.013,0.944-0.261,1.163-0.452
				c0.814-2.21-0.98-5.682-2.718-9.042c-1.448-2.807-2.945-5.709-3.46-8.793c-0.862-5.211,0.407-10.114,3.576-13.802
				c1.68-1.958,3.774-3.432,6.14-4.36c-0.429-0.767-0.686-1.627-0.729-2.531c-0.003-0.115,0.008-0.228,0.011-0.343
				c-2.104,1.242-4.306,2.333-6.409,3.372c-1.572,0.778-3.059,1.514-4.337,2.23c-1.346,0.758-3.055,1.446-4.882,2.181
				c-1.153,0.463-4.415,1.773-5.73,2.628c-0.634,3.811,2.52,13.114,3.597,16.299l0.022,0.066l0.391,1.149
				C63.639,64.502,65.239,68.905,67.613,73.771 M127.753,43.534c0.133,0,0.278-0.001,0.42-0.009
				c0.491-0.027,1.521-0.502,2.435-0.926l0.42-0.192c0.398-0.182,1.223-0.56,1.427-2.247c0.036-0.299,0.05-0.61,0.04-0.928
				c-0.444,0.106-0.911,0.16-1.371,0.16c-1.594,0-3.142-0.653-4.244-1.783c-0.449-0.46-1.457-0.922-2.697-0.922
				c-1.199,0-1.955,0.41-2.17,0.689c-0.229,0.299-0.219,1.04,0.036,1.977C122.731,41.894,124.973,43.534,127.753,43.534
				 M160.195,40.1c-0.562,0-1.114-0.079-1.645-0.23c-0.039,0.262-0.068,0.523-0.078,0.776c-0.098,1.888,0.719,2.279,1.2,2.51
				c1.302,0.625,2.435,0.997,3.353,1.107c0.14,0.015,0.281,0.024,0.414,0.024c1.885,0,4.127-1.305,5.334-3.103
				c0.859-1.275,1.055-2.556,0.578-3.814c-0.129-0.03-0.365-0.066-0.734-0.066c-1.832,0-3.934,0.882-4.738,1.52
				C162.838,39.646,161.525,40.1,160.195,40.1 M212.859,73.357c0.387-0.105,1.018-0.338,1.935-0.835
				c0.868-0.472,1.851-0.72,2.836-0.72c1.363,0,2.692,0.471,3.745,1.325c0.521,0.423,0.943,0.919,1.284,1.46
				c2.022-3.867,4.391-9.25,4.102-13.273c-0.646-8.94-4.663-14.45-10.222-19.925c1.388,5.904,0.717,14.074-5.208,19.152
				c0.022,0.481,0.04,0.971,0.06,1.47l0.006,0.086c0.127,3.406,0.271,7.266,0.998,9.948
				C212.566,72.674,212.729,73.092,212.859,73.357 M177.371,55.542c-3.248,3.559-7.163,5.914-11.117,6.625
				c-2.479,0.443-4.287,0.63-6.045,0.63c-2.922,0-5.559-0.546-8.297-1.72c0.176,5.469,0.37,10.309,0.587,14.817
				c1.713,0.236,3.459,0.481,5.188,0.797c0.535-0.979,1.054-2.026,1.561-3.061c0.49-0.996,1.227-2.501,2.014-3.912
				c1.088-1.922,3.146-3.116,5.372-3.116c0.578,0,1.158,0.083,1.724,0.245c0.072,0.021,0.145,0.043,0.199,0.059
				c1.907,0.624,3.324,2.075,3.916,3.872c0.534-1.666,1.069-3.333,1.605-5.002l0.031-0.1
				C175.18,62.345,176.27,58.952,177.371,55.542 M23.195,56.71L23.195,56.71L23.195,56.71c0.003,0,0.003,0,0.003,0H23.2l0,0
				c0.018,0,0.033,0.001,0.049,0.003h0.002c-0.013,0-0.025,0-0.038,0c-0.03,0-0.061,0-0.092,0c-0.036,0-0.074,0-0.112,0.001
				c0.036,0,0.076-0.001,0.112-0.001c0.031,0,0.062,0,0.092,0c0.016,0,0.027,0,0.039,0c0,0,0,0-0.001,0c0.001,0,0.001,0,0.003,0
				c0.001,0,0.001,0,0.003,0c-0.002,0-0.002,0-0.003,0c-0.002,0-0.003,0-0.005,0c-0.016,0-0.033-0.001-0.049-0.003l0,0h-0.002
				C23.198,56.71,23.198,56.71,23.195,56.71L23.195,56.71L23.195,56.71L23.195,56.71L23.195,56.71 M131.516,62.241
				c-1.563,0-3.219-0.158-4.955-0.472c-0.117,0.414-0.282,0.819-0.497,1.212c-1.033,1.882-3.021,3.051-5.188,3.051
				c-0.386,0-0.775-0.039-1.141-0.111c-3.102-0.605-5.792-1.681-8.189-3.049c0.161,0.471,0.315,0.939,0.473,1.405l0.088,0.273
				c0.796,2.386,1.617,4.852,2.43,7.173c0.406,1.151,0.436,2.375,0.099,3.519c1.668,2.402,2.403,5.252,2.135,7.99
				c1.195-0.826,2.47-1.688,3.855-2.451c-0.209-0.69-0.514-1.461-0.899-2.409c-0.48-1.167-1.078-2.62-1.469-4.181
				c-0.777-3.004,0.848-6.093,3.779-7.191c0.056-0.022,0.12-0.044,0.186-0.064c0.647-0.22,1.315-0.329,1.992-0.329
				c2.292,0,4.384,1.252,5.468,3.296c0.85,1.634,2.34,4.324,3.771,6.844c1.755-0.351,3.487-0.619,5.112-0.831
				c0.151-2.406,0.241-4.961,0.327-7.474v-0.059c0.095-2.7,0.181-5.293,0.35-7.702C136.953,61.712,134.36,62.241,131.516,62.241
				 M190.188,85.111c0.021-0.008,0.037-0.022,0.058-0.031l0.022-0.012c0.125-0.08,0.25-0.154,0.358-0.207
				c0.197-0.104,0.411-0.2,0.622-0.295l0.039-0.02c0.143-0.066,0.281-0.133,0.445-0.197c0.18-0.074,0.373-0.142,0.562-0.205
				l0.071-0.023l0.043-0.016c0.154-0.06,0.302-0.108,0.457-0.156c0.178-0.055,0.365-0.102,0.555-0.146l0.071-0.016l0.077-0.02
				c0.178-0.051,0.363-0.094,0.551-0.134c0.15-0.03,0.312-0.056,0.477-0.075l0.026-0.004l0.097-0.017
				c0.231-0.038,0.461-0.074,0.703-0.101c0.13-0.014,0.271-0.021,0.434-0.032l0.074-0.005c0.221-0.02,0.491-0.041,0.814-0.049
				c0.052,0,0.104,0,0.162,0h0.48l0.16,0.035c0.141,0.014,0.271,0.033,0.41,0.061c0.145,0.023,0.294,0.062,0.427,0.097l0.024,0.003
				l0.019,0.008c0.128,0.031,0.321,0.088,0.554,0.174l0.024,0.01l0.024,0.009c0.139,0.052,0.271,0.11,0.4,0.173
				c0.17,0.077,0.338,0.168,0.506,0.27l0.012,0.002l0.029,0.021c0.121,0.074,0.24,0.149,0.357,0.229
				c0.2,0.145,0.35,0.272,0.434,0.346c0.088,0.068,0.215,0.182,0.34,0.305c0.236,0.238,0.457,0.508,0.644,0.768
				c0.073,0.111,0.146,0.221,0.213,0.332l0.006,0.014l0.037,0.068c0.052,0.082,0.151,0.252,0.252,0.479
				c0.074,0.158,0.132,0.295,0.165,0.389c0.029,0.071,0.064,0.174,0.105,0.293c0.054,0.155,0.096,0.312,0.127,0.479
				c0.025,0.105,0.046,0.213,0.062,0.318c0.03,0.187,0.047,0.354,0.059,0.486c0.018,0.121,0.027,0.285,0.027,0.475v0.52
				l-0.049,0.186c-0.025,0.228-0.07,0.455-0.124,0.678l-0.019,0.07l-0.021,0.066c-0.021,0.078-0.046,0.158-0.069,0.234
				c-0.129,0.41-0.293,0.781-0.494,1.135l-0.021,0.027l-0.003,0.007l-0.003,0.007l-0.065,0.115l-0.052,0.078
				c-0.19,0.287-0.407,0.566-0.647,0.824c-0.038,0.047-0.084,0.09-0.127,0.133l-0.045,0.05l-0.049,0.051
				c-0.306,0.288-0.613,0.53-0.979,0.761c-0.04,0.026-0.081,0.057-0.12,0.082l-0.062,0.044h-0.004l-0.078,0.054
				c-0.031,0.021-0.062,0.047-0.09,0.066l-0.043,0.034l-0.02,0.012l-0.02,0.017l-0.057,0.041l-0.037,0.027l-0.062,0.062
				l-0.102,0.086l-0.009,0.008l-0.089,0.089l-0.076,0.067l-0.003,0.007l-0.071,0.077l-0.076,0.082l-0.006,0.004l-0.047,0.062
				l-0.039,0.053c0.344,0.067,0.82,0.127,1.439,0.127c0.371,0,0.775-0.021,1.203-0.062c3.888-0.374,8.104-3.492,11.724-7.25
				c-1.118,0.258-2.239,0.391-3.302,0.391c-2.372,0-4.586-0.582-6.4-1.685c-6.725-4.067-6.557-12.086-6.428-18.537
				c0.053-2.33,0.1-4.728-0.166-6.575c-0.639,1.933-1.346,3.984-2.111,6.201l-0.019,0.052l-0.062,0.186
				c-0.367,1.072-0.746,2.171-1.134,3.302c-0.313,0.921-0.646,2.405-0.994,3.976l-0.011,0.039c-0.688,3.088-1.473,6.553-2.854,9.57
				C189.941,84.924,190.064,85.018,190.188,85.111 M80.306,88.611c-1.087,0-2.187-0.144-3.263-0.398
				c2.783,3.025,5.946,5.501,9.485,6.846c0.889,0.338,1.927,0.518,2.997,0.518c0.877,0,1.653-0.117,2.297-0.292
				c-0.124-0.13-0.265-0.269-0.421-0.427c-0.756-0.744-1.615-1.588-2.214-2.752c-1.096-2.094-0.815-4.613,0.709-6.42
				c1.122-1.33,2.775-2.094,4.529-2.094c0.572,0,1.142,0.084,1.702,0.249c-1.743-3.239-2.962-7.005-4.108-10.753
				c0.108,4.619-0.653,9.27-3.938,12.477C86.072,87.527,83.308,88.611,80.306,88.611 M78.172,5.396
				c-3.065,0-5.914,1.331-7.812,3.652c-1.7,2.086-2.562,4.779-2.562,8.007c0,1.246,0.351,2.461,1.002,3.518
				c-0.32,0.174-0.633,0.346-0.933,0.519c-13.936,8.024-29.3,14.281-42.159,17.165c-1.737,0.388-17.1,4.094-21.854,14.469
				c-2.01,4.384-1.781,9.064,0.669,13.533c3.037,5.542,10.086,7.509,15.197,7.509c7.845,0,13.623-4.141,14.725-10.551
				c0.564-3.284-0.132-6.393-1.966-8.828c1.118-0.243,2.255-0.476,3.365-0.702l0.09-0.018c1.521-0.308,2.838-0.577,4.151-0.868
				c2.81,10.956,5.882,19.683,9.644,27.402c6.106,12.533,13.64,21.38,23.03,27.038c0.062,0.038,0.128,0.077,0.192,0.116
				c-1.277,0.33-2.922,0.558-4.521,0.776l-0.146,0.021c-1.057,0.146-2.51,0.347-3.891,0.607c-3.209,0.633-5.383,3.521-5.062,6.717
				c0.311,3.211,3.003,5.637,6.263,5.637c2.992-0.014,6.047-0.02,9.203-0.023c-0.04,0.991,0.059,1.96,0.295,2.891
				c-0.017,0.049-0.033,0.095-0.047,0.142c-1.325,4.074-0.1,8.867,0.158,9.787c0.708,2.509,2.839,4.417,5.43,4.862
				c0.574,0.104,1.159,0.15,1.733,0.15c0.543,0,1.09-0.046,1.631-0.137c1.212,0.32,2.479,0.48,3.774,0.48
				c3.122,0,6.108-0.92,8.508-2.604c0.831,0.738,1.829,1.266,2.927,1.535c1.284,0.314,4.204,0.85,7.02,0.85
				c5.378,0,8.105-2.023,9.489-4.104c2.956,2.937,7.005,4.656,11.071,4.656c2.932,0,5.591-0.853,7.738-2.471
				c0.513,0.364,1.071,0.654,1.664,0.865c2.443,0.874,5.075,1.318,7.825,1.318c3.958,0,7.87-0.945,11.107-2.672
				c1.014,1.006,2.312,1.674,3.729,1.901c1.521,0.245,3.479,0.381,5.518,0.381c2.031,0,3.986-0.134,5.506-0.378
				c1.109-0.183,2.141-0.624,3.023-1.29c2.344,1.405,5.092,2.146,7.992,2.146c3.145,0,6.305-0.901,8.985-2.549
				c1.276,1.287,3.01,2.014,4.876,2.014l0.208-0.001c0.163-0.005,0.317-0.005,0.479-0.005c0.607,0,1.301,0.021,2.035,0.049
				c0.909,0.035,1.801,0.064,2.729,0.064c1.284,0,3.675,0,6.147-0.785c3.654-1.166,6.262-3.715,7.334-7.178
				c0.918-2.949,0.743-5.758-0.504-8.14c0.088-0.67,0.116-1.319,0.125-1.901c3.567-0.029,7.057-0.062,10.562-0.099
				c3.299-0.017,6.037-2.597,6.234-5.872l0.004-0.029l0.002-0.063c0.142-3.229-2.289-6.062-5.53-6.452
				c-2.193-0.264-4.541-0.501-7.007-0.712c19.382-10.138,26.57-33.632,32.82-54.566c1.504,0.318,3.045,0.604,4.66,0.906l0.125,0.024
				c0.803,0.149,1.631,0.303,2.467,0.465c-1.056,1.381-2.097,3.486-2.097,6.414c0,0.461,0.024,0.914,0.078,1.346
				c0.862,7.961,8.966,11.591,16.129,11.591c5.733,0,10.537-2.113,13.175-5.802c2.281-3.185,3.077-7.148,2.239-11.159
				c-1.248-5.983-6.087-11.631-10.218-14.121c-5.986-3.604-13.68-5.627-21.121-7.582c-6.698-1.762-13.579-3.572-17.859-6.26
				c-1.097-0.689-2.363-1.053-3.66-1.053c-1.156,0-2.273,0.285-3.275,0.827c-0.411-0.435-0.826-0.857-1.242-1.259
				c-1.921-1.857-4.57-3.434-7.376-5.103l-0.147-0.088c-0.362-0.216-0.783-0.468-1.24-0.743c1.031-1.247,1.584-2.825,1.539-4.483
				c-0.026-0.868-0.115-1.706-0.273-2.495c-1.223-6.195-6.207-8.967-10.6-8.967c-0.211,0-0.42,0.009-0.629,0.025
				c-0.274,0.013-0.494,0.026-0.713,0.049c-0.19,0.022-0.401,0.056-0.615,0.098c-0.247,0.036-0.467,0.074-0.684,0.124l-0.009,0.001
				l-0.073,0.017c-0.104,0.025-0.195,0.051-0.291,0.078c-2.345,0.593-4.611,1.896-6.365,3.666c-2.19,2.207-3.521,4.958-3.84,7.959
				c-0.065,0.563-0.095,1.102-0.086,1.635c0.012,0.37,0.028,0.748,0.062,1.127c0.146,1.759,0.561,3.391,1.254,4.946
				c-0.438,0.011-0.879,0.039-1.324,0.088c-0.392-0.349-0.822-0.655-1.288-0.909c-1.021-0.549-2.157-0.837-3.297-0.837
				c-1.08,0-2.149,0.255-3.11,0.739c-3.516-5.132-10.556-8.228-20.441-8.971c-0.764-0.057-1.521-0.085-2.264-0.085
				c-11.074,0-18.183,5.845-21.771,9.891c-1.986-2.223-4.43-4.153-7.279-5.744c-5.296-2.961-11.718-4.59-18.088-4.59
				c-5.334,0-10.5,1.154-14.935,3.341c-4.575,2.253-7.349,5.917-8.1,10.659c-2.662-1.574-5.31-2.354-8.052-2.377
				c2.504-4.493,2.477-9.755-0.085-14.117C87.163,8.167,82.646,5.396,78.172,5.396L78.172,5.396z M59.723,45.189
				c1.414-0.798,4.199-1.918,5.172-2.311c1.878-0.754,3.62-1.457,5.022-2.246c1.252-0.701,2.72-1.426,4.271-2.196
				c1.641-0.809,3.44-1.698,5.218-2.687c0.066,0.286,0.15,0.566,0.25,0.839c-2.159,0.997-4.038,2.419-5.594,4.234
				c-3.354,3.901-4.701,9.078-3.79,14.572c0.536,3.231,2.071,6.201,3.553,9.073c1.488,2.885,3.165,6.127,2.75,8.001
				c-0.024,0.012-0.05,0.022-0.076,0.033c-1.234-1.053-2.837-1.648-4.476-1.648c-1.227,0-2.438,0.329-3.497,0.952
				c-0.211,0.125-0.414,0.26-0.608,0.405c-2.111-4.485-3.502-8.374-4.169-10.38l-0.393-1.156l-0.922,0.222l0.896-0.304
				C62.34,57.677,59.406,49.012,59.723,45.189L59.723,45.189z M122.802,37.927c0.139-0.083,0.602-0.294,1.38-0.294
				c1.026,0,1.771,0.381,2.021,0.637c1.28,1.313,3.073,2.067,4.921,2.067c0.114,0,0.23-0.003,0.346-0.008
				c-0.173,0.914-0.566,1.094-0.835,1.216l-0.422,0.193c-0.619,0.287-1.763,0.816-2.092,0.842c-0.123,0.006-0.25,0.008-0.367,0.008
				c-2.34,0-4.223-1.366-4.788-3.479C122.789,38.468,122.783,38.08,122.802,37.927L122.802,37.927z M160.195,41.045
				c1.549,0,3.063-0.526,4.271-1.48c0.597-0.472,2.495-1.317,4.151-1.317l0,0c0.139,0.788-0.071,1.579-0.629,2.406
				c-1.027,1.532-2.982,2.687-4.549,2.687c-0.104,0-0.213-0.008-0.316-0.02c-0.795-0.096-1.852-0.449-3.038-1.018
				c-0.327-0.157-0.665-0.318-0.673-1.302C159.671,41.032,159.934,41.045,160.195,41.045L160.195,41.045z M212.297,60.957
				c5.006-4.538,6.252-11.138,5.676-16.729c4.377,4.752,7.311,9.771,7.844,17.159c0.201,2.751-0.92,6.604-3.334,11.468
				c-0.162-0.163-0.332-0.317-0.51-0.46c-1.22-0.99-2.762-1.538-4.341-1.538c-1.146,0-2.28,0.288-3.289,0.835
				c-0.36,0.196-0.672,0.346-0.931,0.46c-0.032-0.108-0.068-0.225-0.104-0.354c-0.699-2.577-0.843-6.379-0.968-9.733l-0.004-0.101
				C212.323,61.628,212.311,61.292,212.297,60.957L212.297,60.957z M160.207,63.743c1.824,0,3.684-0.193,6.214-0.644
				c3.063-0.55,6.138-2.053,8.911-4.319c-0.713,2.22-1.424,4.428-2.123,6.612l-0.029,0.083l-0.934,2.904
				c-0.85-1.091-2.018-1.915-3.398-2.368l-0.01-0.003l-0.085-0.026l-0.14-0.041c-0.643-0.187-1.309-0.282-1.982-0.282
				c-2.562,0-4.938,1.378-6.193,3.596c-0.756,1.354-1.443,2.758-1.951,3.782l-0.088,0.18c-0.404,0.821-0.812,1.646-1.219,2.424
				c-1.231-0.213-2.463-0.392-3.775-0.574c-0.184-3.941-0.352-8.076-0.5-12.581C155.288,63.341,157.643,63.743,160.207,63.743
				L160.207,63.743z M131.516,63.186c2.396,0,4.64-0.361,6.688-1.074c-0.108,1.912-0.178,3.915-0.25,6.008l-0.008,0.231
				l-0.002,0.018v0.074c-0.08,2.377-0.16,4.559-0.278,6.639c-1.321,0.184-2.551,0.385-3.727,0.609
				c-1.432-2.537-2.692-4.832-3.421-6.227c-1.139-2.147-3.254-3.549-5.63-3.774c0.817-0.583,1.506-1.349,2.005-2.256
				c0.106-0.195,0.205-0.396,0.295-0.601C128.686,63.069,130.138,63.186,131.516,63.186L131.516,63.186z M115.653,75.068
				c0.269-1.213,0.191-2.467-0.227-3.658c-0.756-2.155-1.513-4.419-2.249-6.626c2.034,0.949,4.138,1.628,6.372,2.065
				c0.188,0.037,0.382,0.066,0.576,0.089c-2.363,1.64-3.537,4.603-2.791,7.494c0.406,1.615,1.019,3.104,1.51,4.299
				c0.261,0.643,0.468,1.16,0.63,1.613c-0.597,0.352-1.173,0.715-1.729,1.08C117.624,79.193,116.904,77,115.653,75.068
				L115.653,75.068z M191.404,83.463c1.01-2.703,1.652-5.588,2.188-7.99c0.364-1.654,0.684-3.059,0.975-3.914l0.793-2.312
				l0.341-0.989l0.063-0.186c0.164-0.477,0.323-0.944,0.481-1.403c-0.007,0.473-0.019,0.941-0.028,1.395
				c-0.096,4.685-0.205,10.159,2.193,14.515c-0.085-0.021-0.184-0.042-0.281-0.06c-0.148-0.026-0.287-0.05-0.429-0.063l-0.104-0.022
				l-0.103-0.021h-0.104h-0.481h-0.177c-0.354,0.009-0.641,0.031-0.875,0.052c-0.242,0.015-0.395,0.021-0.535,0.039
				c-0.256,0.027-0.504,0.063-0.754,0.106l-0.102,0.017c-0.178,0.022-0.357,0.052-0.525,0.084c-0.215,0.045-0.416,0.097-0.609,0.146
				l-0.079,0.021c-0.255,0.06-0.462,0.11-0.655,0.17c-0.171,0.052-0.338,0.106-0.511,0.172h-0.003l-0.096,0.033
				C191.754,83.33,191.573,83.393,191.404,83.463L191.404,83.463z M90.725,83.716c0.939-1.581,1.579-3.437,1.932-5.588
				c0.544,1.544,1.139,3.065,1.813,4.515c-0.016,0-0.029,0-0.044,0C93.095,82.645,91.814,83.021,90.725,83.716L90.725,83.716z
				 M80.306,89.557c2.944,0,5.679-0.965,7.794-2.731c-0.763,1.815-0.701,3.903,0.248,5.72c0.426,0.82,0.963,1.499,1.497,2.077
				c-0.105,0.005-0.213,0.008-0.32,0.008c-0.956,0-1.878-0.157-2.661-0.454c-2.427-0.922-4.828-2.477-7.162-4.629
				C79.903,89.553,80.106,89.557,80.306,89.557L80.306,89.557z M203.684,90.07l0.032-0.123l0.032-0.117v-0.121v-0.52
				c0-0.234-0.016-0.441-0.034-0.595c-0.008-0.11-0.03-0.303-0.063-0.513c-0.021-0.139-0.045-0.257-0.072-0.377
				c1.863,1.014,4.068,1.546,6.415,1.546c0.192,0,0.389-0.003,0.587-0.011c-2.648,2.398-5.938,4.682-9.098,4.984
				c0.062-0.055,0.121-0.108,0.184-0.168l0.014-0.011l0.062-0.062l0.009-0.01l0.057-0.061l0.145-0.15
				c0.255-0.271,0.507-0.594,0.729-0.936l0.047-0.067l0.104-0.175l0.003-0.009l0.021-0.032c0.237-0.418,0.426-0.85,0.574-1.316
				l0.027-0.093l0.055-0.183l0.004-0.016l0.041-0.154C203.605,90.549,203.652,90.311,203.684,90.07L203.684,90.07z"/>
		</g>
	</g>
	
		<path fill="#0A9995" stroke="#FFFFFF" stroke-width="0.7531" stroke-linecap="round" stroke-linejoin="round" stroke-miterlimit="10" d="
		M215.721,17.156c-0.436-4.254-6.732-2.733-6.912,1.18c-0.25,5.552,12.197,10.034,16.205,13.908
		c5.659,5.463,7.67,11.688,11.68,16.03c1.385-5.108,0.996-10.973-2.383-13.673c10.227,6.417,28.65,7.627,39.082,13.908
		c3.7,2.229,10,9.919,5.957,15.559c-3.414,4.771-16.24,3.639-16.918-2.594c-0.556-5.08,5.547-5.464,8.813-2.593
		c-1.636,0.548-4.711,0.218-5.479,2.593c3.241,6.543,12.655,1.538,10.488-4.48c-3.378-9.384-21.207-8.668-30.508-12.257
		c-6.432,21.051-12.736,47.39-31.693,57.049c-7.514,3.823-25.424,5.146-25.021-6.839c1.663-2.91,3.348-5.801,7.862-5.893
		c-6.629,4.131-5.78,12.848,5.242,11.786c9.795-0.938,19.307-12.373,23.596-19.802c2.762-4.791,7.42-13.247,6.912-20.274
		c-1.131-15.553-8.732-25.042-20.498-31.589c-2.26-3.489-6.818-5.03-6.91-10.136C205.109,12.377,215.494,8.809,215.721,17.156z"/>
	<g>
		
			<path fill="#0A9995" stroke="#0A9995" stroke-width="2" stroke-linecap="round" stroke-linejoin="round" stroke-miterlimit="10" d="
			M141.604,91.18c-0.704-1.181-1.408-2.969,0-3.771c-1.785,0.51-1.472-1.062-2.145-1.649c0,0.551,0,1.102,0,1.649
			c-0.49,0.382-1.562,0.186-1.908,0.708c0.711,0.086,1.179,0.406,1.434,0.939c0.315,1.037-0.715,1.949,0,2.592
			C139.388,88.793,140.791,90.725,141.604,91.18z"/>
		
			<path fill="#0A9995" stroke="#0A9995" stroke-width="2" stroke-linecap="round" stroke-linejoin="round" stroke-miterlimit="10" d="
			M152.332,91.648c-0.664-1.473-0.578-3.164,0.712-3.771c-1.733,0.377-1.419-1.271-1.907-2.122c-0.164,1.169-0.3,2.27-1.668,1.649
			c1.428,1.091-0.164,2.827,0.237,4.008c0.181-0.763,0.661-1.231,1.429-1.413C151.438,90.498,151.979,91.977,152.332,91.648z"/>
		
			<path fill="#0A9995" stroke="#0A9995" stroke-width="2" stroke-linecap="round" stroke-linejoin="round" stroke-miterlimit="10" d="
			M128.975,94.714c-1.314-0.888-1.713-2.168-1.434-3.534c-0.205,0.346-0.354,0.746-0.953,0.707
			c-0.274-0.434-0.623-0.797-0.954-1.181c-0.186,0.972,0.368,1.211,0.238,2.122c-0.735,0.056-0.921,0.654-1.426,0.943
			c0.752-0.039,1.438-0.012,1.67,0.47c0.055,0.966,0.112,1.928,0.476,2.594c0.141-0.958,0.107-2.095,0.717-2.594
			C127.61,94.511,128.853,95.045,128.975,94.714z"/>
		
			<path fill="#0A9995" stroke="#0A9995" stroke-width="2" stroke-linecap="round" stroke-linejoin="round" stroke-miterlimit="10" d="
			M163.055,91.648c1.223,1.314-0.588,2.387-1.193,3.302c0.814-0.06,1.146-0.597,2.146-0.47c0.081,2.682,0.729,2.387,0.712-0.235
			c0.416-0.379,1.477-0.114,1.672-0.706c-1.604,0.104-0.986-2.203-1.193-2.83C164.904,92.078,163.715,91.66,163.055,91.648z"/>
		
			<path fill="#0A9995" stroke="#0A9995" stroke-width="2" stroke-linecap="round" stroke-linejoin="round" stroke-miterlimit="10" d="
			M113.959,102.021c-0.422,0.607-0.943,1.108-1.429,1.65c0.754,0.114,0.837-0.427,1.668-0.236c0.757,2.604,0.76,3.162,1.431,0.236
			c0.831-0.332,1.525,0.659,1.909,0c-1.048-0.306-1.502-1.188-2.147-1.884c0.209-0.218,0.685-1.332,0.238-1.418
			c-0.217,0.413-0.533,0.729-0.956,0.94c-0.295-0.492-0.693-0.883-1.189-1.181C113.608,100.798,113.832,101.361,113.959,102.021z"/>
		
			<path fill="#0A9995" stroke="#0A9995" stroke-width="2" stroke-linecap="round" stroke-linejoin="round" stroke-miterlimit="10" d="
			M175.443,102.256c-0.957,0.23-1.344,1.03-1.907,1.652c0.925,0.127,1.163-0.424,2.147-0.236c0,0.708,0,1.414,0,2.121
			c0.961-0.227,0.312-2.045,1.188-2.359c0.606-0.254,1.134,0.717,1.43,0c-0.575-0.371-1.056-0.844-1.43-1.414
			c0.208-0.291,0.757-1.418,0.235-1.647c-0.309,0.403-0.49,0.925-1.188,0.94c-0.216-0.416-0.536-0.729-0.954-0.94
			C175.092,101.034,175.316,101.598,175.443,102.256z"/>
	</g>
	
		<path fill="#0A9995" stroke="#FFFFFF" stroke-width="0.9462" stroke-linecap="round" stroke-linejoin="round" stroke-miterlimit="10" d="
		M223.848,114.273c-13.923-1.674-29.979-1.888-42.41-1.888v0.246l-0.004-0.246c-6.18,0-12.513,0.06-18.64,0.116
		c-6.054,0.061-12.312,0.119-18.331,0.119H75.831c-0.03,0-0.056,0.004-0.082,0.014c-1.925,0.665-4.258,0.988-6.515,1.301
		c-1.232,0.17-2.5,0.346-3.701,0.572c-0.121,0.028-0.211,0.141-0.196,0.268c0.012,0.127,0.118,0.223,0.244,0.223l0,0
		c7.621-0.023,15.753-0.034,24.845-0.034c11.817,0,23.649,0.019,35.483,0.036c11.84,0.02,23.677,0.038,35.491,0.038
		c25.074,0,44.326-0.086,62.425-0.274c0.133,0,0.237-0.103,0.248-0.23C224.076,114.402,223.982,114.287,223.848,114.273z"/>
	<g>
		
			<path fill="#0A9995" stroke="#FFFFFF" stroke-width="0.9462" stroke-linecap="round" stroke-linejoin="round" stroke-miterlimit="10" d="
			M85.361,120.175c3.229-4.38,4.864,2.345,7.863,2.595c0.393-1.384,0.393-4.272,0-5.658c-0.895-0.715-1.748,0.188-2.615,0.234
			c-3.563-1.705-7.707-0.168-8.583,2.122c-2.739,7.171,9.276,4.778,8.583,9.192c-0.87,5.505-7.737-2.628-7.633-2.594
			c-0.551-0.174-0.746,0.147-1.425,0c-0.547,1.686-0.182,4.389,0.24,5.894c1.148,0.197,1.683-0.22,2.382-0.472
			c5.32,2.809,12.913-1.68,9.293-6.6C91.639,122.404,86.67,123.573,85.361,120.175z"/>
		
			<path fill="#0A9995" stroke="#FFFFFF" stroke-width="0.9462" stroke-linecap="round" stroke-linejoin="round" stroke-miterlimit="10" d="
			M179.734,116.873c-5.705,0.964-9.715,7.057-5.479,12.495c5.06,6.502,17,2.075,15.968-6.13
			C189.624,118.503,185.044,115.979,179.734,116.873z M184.023,129.604c-6.854,3.985-10.195-9.229-3.575-10.606
			C186.391,117.764,187.93,127.331,184.023,129.604z"/>
		
			<path fill="#0A9995" stroke="#FFFFFF" stroke-width="0.9462" stroke-linecap="round" stroke-linejoin="round" stroke-miterlimit="10" d="
			M198.325,120.175c3.245-4.38,4.975,2.214,7.86,2.595c0.526-1.445,0.104-3.83,0.238-5.658c-4.374-0.475-11.46-1.172-11.679,3.771
			c-0.267,6.031,8.021,2.885,8.817,8.25c-4.346,3.588-5.668-2.701-9.058-3.064c-0.021,1.35-0.167,4.248,0.236,5.894
			c4.495-0.13,11.057,1.24,12.393-3.063C209.023,122.818,200.505,123.936,198.325,120.175z"/>
		
			<path fill="#0A9995" stroke="#FFFFFF" stroke-width="0.9462" stroke-linecap="round" stroke-linejoin="round" stroke-miterlimit="10" d="
			M113.245,117.111c-5.061,0.312-19.619-3.131-15.254,4.947c2.768-0.091,1.799-3.877,5.482-3.063c0,3.534,0,7.071,0,10.606
			c-0.627,0.561-2.547-0.162-2.621,0.943c0,0.312,0,0.628,0,0.939c1.97,0.486,8.444,1.478,9.295-0.705
			c-0.138-1.275-2.278-0.57-2.858-1.412c0.296-3.322-0.615-7.835,0.473-10.371c3.243-0.537,2.325,3.043,5.005,3.062
			C113.755,121.229,113.016,118.691,113.245,117.111z"/>
		
			<path fill="#0A9995" stroke="#FFFFFF" stroke-width="0.9462" stroke-linecap="round" stroke-linejoin="round" stroke-miterlimit="10" d="
			M126.829,118.288c0.213,1.204,2.533,0.321,2.86,1.413c0.915,5.124,0.859,12.427-5.962,9.9c-2.104-1.767-0.853-6.854-1.188-10.371
			c0.848-0.42,2.588,0.045,2.385-1.416c-0.884-1.226-8.572-2.182-8.339,0.707c0.192,0.908,2.151,0.07,2.142,1.18
			c-4.33,11.865,11.178,17.314,13.583,8.959c0.855-2.965-0.183-6.465,0.236-9.192c0.638-0.788,2.903,0.04,2.624-1.651
			C134.302,116.439,126.975,115.906,126.829,118.288z"/>
		
			<path fill="#0A9995" stroke="#FFFFFF" stroke-width="0.9462" stroke-linecap="round" stroke-linejoin="round" stroke-miterlimit="10" d="
			M139.459,116.873c-0.28,0.117-0.546,0.252-0.714,0.473c-0.079,0.318-0.343,0.448-0.236,0.94c0.104,1.153,2.273,0.265,2.385,1.413
			c0,3.303,0,6.602,0,9.9c-0.852,0.576-2.884-0.019-2.385,1.887c9.366,3.351,22.476-2.957,16.205-11.314
			C152.066,116.646,146.182,116.775,139.459,116.873z M144.702,129.604c0-3.535,0-7.069,0-10.606
			C153.895,116.984,154.1,132.507,144.702,129.604z"/>
		
			<path fill="#0A9995" stroke="#FFFFFF" stroke-width="0.9462" stroke-linecap="round" stroke-linejoin="round" stroke-miterlimit="10" d="
			M166.148,129.133c0.153-3.23-0.308-7.062,0.238-9.9c0.434-0.516,1.947,0.043,2.387-0.472c0.564-2.956-9.398-3.009-8.822,0
			c0.587,0.443,2.006,0.062,2.386,0.707c0,3.458,0,6.916,0,10.371c-1.571-0.144-2.752,0.104-2.386,1.884
			c2.406,0.394,6.417,0.394,8.822,0C169.505,129.27,166.578,130.438,166.148,129.133z"/>
	</g>
	
		<path fill="#0A9995" stroke="#FFFFFF" stroke-width="0.9462" stroke-linecap="round" stroke-linejoin="round" stroke-miterlimit="10" d="
		M209.529,110.266c-10.564-0.38-24.922-6.098-26.911-12.625c-0.813-2.678,0.508-5.26,3.931-7.678
		c0.098-0.066,0.133-0.195,0.083-0.301c-0.042-0.09-0.13-0.143-0.229-0.143c-0.019,0-0.033,0.004-0.055,0.006
		c-1.248,0.311-2.367,1.076-3.453,1.816c-1.295,0.887-2.519,1.725-3.834,1.725c-0.086,0-0.174-0.006-0.256-0.015
		c-1.892-0.159-4.455-2.323-6.938-4.417c-2.653-2.236-5.396-4.549-7.637-4.76c-0.254-2.975,0.658-5.285,1.465-7.33
		c0.531-1.352,1.031-2.626,1.178-3.967c0.012-0.117-0.061-0.222-0.173-0.261c-0.023-0.006-0.048-0.011-0.076-0.011
		c-0.085,0-0.168,0.048-0.215,0.127c-0.658,1.17-1.265,2.409-1.859,3.611c-1.219,2.479-2.479,5.048-4.209,7.073
		c-2.812-0.768-5.997-1.209-9.086-1.639c-1.456-0.201-2.961-0.41-4.411-0.649c-0.373-6.833-0.672-14.192-0.943-23.134
		c0-0.13-0.104-0.232-0.236-0.239h-0.006c-0.124,0-0.233,0.091-0.25,0.216c-0.363,3.13-0.493,6.88-0.626,10.849
		c-0.146,4.301-0.301,8.75-0.776,12.528c-4.296,0.411-9.22,1.005-13.482,2.29c-1.909-3.274-4.741-8.306-6.093-10.9
		c-0.045-0.083-0.127-0.133-0.221-0.133c-0.031,0-0.059,0.005-0.09,0.015c-0.117,0.044-0.186,0.169-0.153,0.289
		c0.296,1.176,0.759,2.326,1.216,3.431c1.017,2.482,2.063,5.054,1.431,8.34c-2.602,0.783-4.982,2.449-7.287,4.062
		c-2.953,2.07-5.744,4.021-8.754,4.021c-1.712,0-3.364-0.638-5.035-1.952c-0.043-0.035-0.099-0.056-0.157-0.056
		c-0.071,0-0.143,0.032-0.188,0.088c-0.087,0.104-0.074,0.255,0.027,0.341c3.022,2.626,4.071,5.278,3.11,7.887
		c-2.495,6.771-17.628,11.537-26.547,11.722c-0.13,0.006-0.242,0.114-0.242,0.253c0,0.133,0.112,0.238,0.254,0.238h50.997
		c0.127,0,0.231-0.098,0.244-0.225c0.531-5.798,6.896-8.438,12.581-8.438c5.638,0,11.93,2.641,12.423,8.438
		c0.011,0.127,0.118,0.225,0.248,0.225l0,0c2.476-0.021,5.122-0.031,8.094-0.031c3.827,0,7.677,0.02,11.519,0.037
		c3.851,0.019,7.699,0.033,11.523,0.033c8.156,0,14.354-0.084,20.105-0.273c0.138-0.004,0.24-0.115,0.24-0.244
		C209.77,110.375,209.666,110.27,209.529,110.266z M147.198,87.432c-0.017-1.103-0.032-2.236-0.091-3.32
		c0.164-0.002,0.332-0.002,0.492-0.002c3.135,0,5.789,0.529,8.356,1.049c0.955,0.189,1.938,0.391,2.938,0.559
		c-0.944,2.369-2.215,4.477-3.44,6.52c-1.265,2.082-2.563,4.24-3.524,6.688C147.357,98.139,147.281,92.936,147.198,87.432z
		 M138.009,101.48c-0.643,0-1.115-0.229-1.285-0.625c-0.156-0.355-0.036-0.806,0.301-1.184c0.077-0.014,0.156-0.021,0.224-0.021
		c0.564,0,0.823,0.363,0.924,0.578c0.191,0.4,0.154,0.892-0.09,1.248C138.055,101.48,138.033,101.48,138.009,101.48z
		 M132.562,85.828c3.017-0.742,6.438-1.588,9.842-1.588c0.611,0,1.209,0.029,1.782,0.084c-0.172,1.349-0.235,2.809-0.302,4.227
		c-0.219,4.84-0.425,9.415-4.311,10.364c-2.732-4.159-5.143-8.692-7.376-12.997L132.562,85.828z M145.036,100.134
		c-1.154-0.95-0.695-1.985-0.119-3.29c0.245-0.562,0.521-1.177,0.661-1.822c0.285,0.719,0.558,1.457,0.822,2.183
		c0.217,0.594,0.437,1.188,0.658,1.771c-0.218,0.782-0.816,1.162-1.821,1.162C145.172,100.134,145.106,100.134,145.036,100.134z
		 M131.846,106.701c-0.175,0.04-0.34,0.059-0.484,0.059c-0.587,0-0.852-0.303-1.165-0.646c-0.077-0.086-0.146-0.172-0.229-0.254
		c0.066-0.385,0.358-0.635,1.365-0.635c0.167,0,0.34,0.006,0.51,0.018v1.461L131.846,106.701L131.846,106.701z M113.525,96.479
		c1.549,1.23,3.422,2.291,5.238,3.315c3.749,2.125,7.624,4.317,8.918,8.11h-19.874C108.512,102.923,111.042,99.634,113.525,96.479z
		 M122.346,98.086c-2.191-1.084-4.459-2.206-6.785-3.225c3.019-3.355,7.473-5.932,13.972-8.09c0.407,1.106,1.078,2.377,1.788,3.713
		c2.236,4.199,4.764,8.964,1.178,12.197C128.924,101.342,125.578,99.689,122.346,98.086z M154.752,101.857h-1.177
		c-0.324-0.375-0.214-0.877-0.005-1.582c0.033-0.113,0.068-0.229,0.1-0.34h1.084c0.143,0.193,0.23,0.562,0.23,0.961
		C154.982,101.297,154.895,101.666,154.752,101.857z M180.318,107.873c-1.539,0-3.101,0.018-4.658,0.036
		c-1.557,0.015-3.115,0.034-4.658,0.034c-3.122,0-5.486-0.074-7.605-0.248c1.438-3.685,4.666-5.504,8.086-7.43
		c1.979-1.117,4.021-2.27,5.644-3.81c3.2,2.629,5.265,6.478,6.129,11.438C182.355,107.881,181.389,107.873,180.318,107.873z
		 M175.51,94.855c-2.97,1.246-5.812,2.67-8.561,4.054c-2.553,1.28-5.196,2.604-7.924,3.778c-3.974-2.572-1.735-6.896,0.436-11.076
		c0.9-1.742,1.76-3.394,2.109-4.838C167.736,88.604,172.302,91.247,175.51,94.855z M160.663,105.895
		c-0.021,0.08-0.043,0.179-0.074,0.295c-0.165,0.131-0.496,0.215-0.862,0.215c-0.363,0-0.694-0.084-0.863-0.215
		c-0.09-0.424-0.027-0.795,0.188-1.066c0.2-0.257,0.517-0.4,0.858-0.4c0.24,0,0.476,0.073,0.683,0.211
		c0.028,0.113,0.052,0.207,0.071,0.283C160.749,105.552,160.749,105.552,160.663,105.895z"/>
	<g>
		
			<path fill="#0A9995" stroke="#FFFFFF" stroke-width="0.7531" stroke-linecap="round" stroke-linejoin="round" stroke-miterlimit="10" d="
			M84.409,100.372C70.958,95.266,62.01,78.091,57.238,63.833c-1.831-5.49-5.796-16.362-3.812-21.923
			c1.126-3.158,9.795-5.446,13.109-7.307c5.733-3.223,14.231-6.241,17.156-11.316c5.046-8.744-9.061-16.677-9.055-6.364
			c0.573-3.606,5.91-3.46,6.674,0c1.058,4.798-6.515,7.888-10.012,9.901C57.972,34.498,41.646,41.502,27.212,44.74
			c-8.462,1.897-21.927,8.578-16.684,18.149c2.707,4.94,15.979,5.947,17.16-0.941c1.099-6.385-7.696-6.854-8.58-2.595
			c1.916-1.69,5.236-0.569,5.242,1.651c0.015,5.118-11.913,4.488-10.724-3.065c0.394-2.49,3.957-5.148,6.435-6.601
			c6.634-3.888,17.083-4.261,25.024-7.072c5.094,22.356,13.294,46.24,31.219,57.046c6.014,3.627,22.19,6.137,25.263-1.647
			c2.106-5.356-2.982-9.104-7.149-10.371c0.741,1.437,5.523,4.044,3.812,8.722C95.503,101.118,89.293,102.227,84.409,100.372z"/>
	</g>
	
		<path fill="#0A9995" stroke="#FFFFFF" stroke-width="0.7531" stroke-linecap="round" stroke-linejoin="round" stroke-miterlimit="10" d="
		M205.232,19.043c0.094,5.107,3.865,7.292,6.912,10.136c9.81,9.167,19.367,16.036,20.498,31.589
		c0.51,7.028-4.152,15.484-6.912,20.273c-4.289,7.432-13.805,18.861-23.599,19.805c-11.024,1.059-11.871-7.656-5.241-11.789
		c-4.515,0.09-6.197,2.984-7.861,5.896c-0.402,11.983,17.508,10.663,25.021,6.84c18.959-9.661,25.263-36.001,31.693-57.051
		c9.301,3.588,27.129,2.872,30.509,12.257c2.165,6.018-7.247,11.023-10.486,4.481c0.764-2.376,3.842-2.043,5.479-2.594
		c-3.269-2.871-9.371-2.488-8.813,2.594c0.68,6.232,13.504,7.363,16.918,2.593c4.045-5.638-2.256-13.33-5.959-15.559
		c-10.431-6.281-28.855-7.49-39.078-13.908c3.377,2.702,3.762,8.564,2.383,13.673c-4.01-4.342-6.021-10.567-11.68-16.03
		c-4.012-3.875-16.459-8.356-16.205-13.908c0.178-3.913,6.478-5.435,6.908-1.18C215.494,8.809,205.109,12.377,205.232,19.043z"/>
	
		<path fill="#0A9995" stroke="#FFFFFF" stroke-width="0.7531" stroke-linecap="round" stroke-linejoin="round" stroke-miterlimit="10" d="
		M131.117,33.423c-5.108-5.238-17.536-2.899-14.776,7.309c1.387,5.121,6.124,8.82,12.159,8.486c1.771-0.098,3.378-0.904,5.002-1.649
		c7.777-3.563,5.257-15.289-0.48-19.803c-7.391-5.812-25.241-4.06-25.26,6.839c-0.016,10.217,7.487,19.753,13.109,25.458
		c-11.367-2.22-16.232-12.838-24.548-18.858c5.285,8.762,8.788,21.329,12.629,32.295c-0.725,1.562-1.259,3.311-1.426,5.423
		c-3.898-9.114-6.221-19.776-10.487-28.524c-2.604,9.992,3.775,20.619,8.334,29.21c0.794,1.484,0.788,3.644,2.153,4.266
		c1.851,0.844,2.623-3.448,1.906-5.895c3.816,4.646-0.374,11.502-5.481,6.6c-5.484-5.258-6.801-18.942-10.727-24.985
		c-2.841,1.278-6.422,1.817-8.104,4.243c0.657,5.175,2.389,13.949-1.189,17.444c-3.461,3.378-10.621-0.144-11.914-3.771
		c3.1,3.388,9.231,1.335,10.724-2.12c3.162-7.333-4.707-15.107-5.718-21.217c-1.248-7.533,4.017-13.088,11.2-12.495
		c2.668,2.783,3.579,7.301,5.48,10.844c2.493-7.703-1.681-15.995-7.625-18.386c9.346-4.856,16.7,11.1,24.069,14.615
		c-2.355-7.038-10.85-19.756-1.193-24.516c13.081-6.45,31.882-0.357,35.272,10.843c2.424,8.019-1.025,17.034-7.151,20.039
		c-3.126,1.533-7.038,1.397-10.963,0.472c-7.45-1.759-12.863-8.481-14.061-16.738C110.103,25.438,128.633,22.964,131.117,33.423z
		 M87.03,45.918c-3.161,0.487-5.312,4.014-6.911,6.836c0.892,2.734,1.587,5.66,3.813,7.072c2.273-1.443,5.398-2.045,7.387-3.772
		C90.783,51.793,89.553,48.215,87.03,45.918z"/>
	
		<path fill="#0A9995" stroke="#FFFFFF" stroke-width="0.9462" stroke-linecap="round" stroke-linejoin="round" stroke-miterlimit="10" d="
		M184.266,38.844c2.799-3.201,5.633-6.373,9.533-8.486c0.361,5.558-4.389,10.307-2.623,16.5c2.321-3.913,3.018-9.428,4.768-13.908
		c13.531-6.006,21.509,18.537,9.296,24.517c0.823,8.31-1.119,27.367,12.393,20.037c-1.396,4.367-7.737,5.959-10.963,4.008
		c-5.933-3.588-2.425-14.799-4.05-22.161c-1.014-4.566-6.846-3.764-9.299-6.129c-1.195,4.466-3.117,9.796-5.244,16.031
		c-1.805,5.308-2.573,18.081-9.288,17.208c-2.955-0.382-4.228-6.227-1.671-8.484c-0.445,2.034-0.314,6.287,1.428,5.658
		c1.062-0.385,1.146-1.951,1.689-2.968c4.873-9.089,8.285-20.358,9.271-32.392c-3.54,10.482-6.777,21.267-10.248,31.827
		c-0.729-1.871-0.338-4.854-1.666-6.129c3.762-11.683,7.458-23.429,11.438-34.892c-2.194,1.68-3.977,5.809-7.866,6.6
		c-2.065-3.792,2.853-9.479,2.623-13.908c-0.366-7.157-15.435-7.34-21.925-4.949c-7.952,2.931-13.725,17.144-4.77,21.452
		c1.694,0.812,3.441,1.436,5.244,1.651c7.271,0.851,15.812-7.009,12.393-15.089c-2.385-5.642-11.127-3.4-14.535-0.707
		c-0.498-4.263,4.599-7.039,9.058-6.602c17.688,1.735,7.774,26.64-4.056,28.761c-4.17,0.748-7.233,0.894-10.959-0.707
		c-17.395-7.476-5.655-35.062,15.488-33.476C180.503,22.918,190.745,27.229,184.266,38.844z M207.855,44.503
		c-1.942-2.321-4.25-7.819-7.863-7.309c-3.76,0.532-4.541,9.36-5.245,13.203c2.403,1.551,5.968,1.952,8.343,3.535
		C206.064,52.163,207.053,48.427,207.855,44.503z"/>
</g>
</svg>
