<?xml version="1.0" encoding="utf-8"?>
<!-- Generator: Adobe Illustrator 15.0.0, SVG Export Plug-In . SVG Version: 6.00 Build 0)  -->
<!DOCTYPE svg PUBLIC "-//W3C//DTD SVG 1.1//EN" "http://www.w3.org/Graphics/SVG/1.1/DTD/svg11.dtd">
<svg version="1.1" id="Etsy" xmlns="http://www.w3.org/2000/svg" xmlns:xlink="http://www.w3.org/1999/xlink" x="0px" y="0px"
	 width="166px" height="81.334px" viewBox="0 0 166 81.334" enable-background="new 0 0 166 81.334" xml:space="preserve">
<g display="none">
	<path display="inline" fill="#A30F1D" d="M-732.629,275.63c0,0-0.007-2.454,0.279-3.669c0.307-1.296,2.058-8.711,2.058-8.711
		s-0.515-1.021-0.515-2.526c0-2.371,1.377-4.141,3.088-4.141c1.452,0,2.154,1.091,2.154,2.396c0,1.465-0.931,3.648-1.41,5.674
		c-0.401,1.697,0.847,3.08,2.522,3.08c3.029,0,5.068-3.894,5.068-8.498c0-3.506-2.357-6.127-6.653-6.127
		c-4.847,0-7.87,3.617-7.87,7.654c0,1.396,0.411,2.377,1.055,3.137c0.297,0.351,0.341,0.49,0.231,0.895
		c-0.077,0.292-0.254,0.999-0.327,1.281c-0.105,0.402-0.432,0.55-0.801,0.398c-2.234-0.912-3.275-3.356-3.275-6.105
		c0-4.542,3.831-9.987,11.428-9.987c6.105,0,10.121,4.416,10.121,9.158c0,6.271-3.488,10.955-8.626,10.955
		c-1.727,0-3.35-0.933-3.907-1.99c0,0-0.928,3.685-1.124,4.394c-0.337,1.23-1.607,3.427-1.607,3.427s-0.463,0.545-1.246,0.774
		C-732.357,277.208-732.629,275.63-732.629,275.63z"/>
</g>
<g>
	<g>
		<g>
			<path fill="#0A9995" d="M45.148,3.194c2.347,0,4.725,1.466,6.055,3.733c1.374,2.339,1.366,5.172-0.022,7.577
				c-0.146,0.258-0.314,0.504-0.488,0.745c0.316-0.041,0.632-0.062,0.949-0.062c1.909,0,3.572,0.697,5.07,1.727
				c0.184-2.885,1.698-5.148,4.386-6.473c2.438-1.2,5.28-1.836,8.224-1.836c3.518,0,7.062,0.898,9.983,2.533
				c1.769,0.987,3.25,2.216,4.384,3.61c2.625-3.19,6.776-5.891,12.334-5.891c0.408,0,0.828,0.016,1.24,0.046
				c5.699,0.428,9.648,2.244,11.438,5.259c0.113-0.064,0.229-0.128,0.34-0.19c0.49-0.264,1.047-0.405,1.604-0.405
				c0.559,0,1.111,0.14,1.609,0.408c0.303,0.165,0.57,0.37,0.803,0.607c0.387-0.052,0.772-0.079,1.157-0.079
				c0.228,0,0.451,0.011,0.67,0.029c-0.548-0.94-0.954-2.053-1.067-3.412c-0.019-0.203-0.027-0.405-0.032-0.599
				c-0.005-0.269,0.01-0.549,0.046-0.86c0.168-1.579,0.871-3.027,2.021-4.187c0.928-0.936,2.123-1.622,3.369-1.938
				c0.049-0.013,0.096-0.026,0.146-0.039l0.02-0.003l0.021-0.004c0.107-0.025,0.221-0.043,0.328-0.059l0.021-0.003l0.021-0.004
				c0.104-0.021,0.211-0.038,0.303-0.047c0.113-0.012,0.227-0.019,0.337-0.024h0.026l0.022-0.002
				c0.105-0.008,0.212-0.013,0.312-0.013h0.004c2.27,0,4.844,1.437,5.479,4.648c0.082,0.417,0.131,0.864,0.146,1.324
				c0.025,1.052-0.438,2.003-1.196,2.628c0.511,0.315,0.991,0.602,1.354,0.818c1.567,0.933,3.051,1.812,4.097,2.824
				c0.349,0.336,0.674,0.675,0.981,1.017c0.562-0.398,1.242-0.622,1.949-0.622c0.633,0,1.254,0.178,1.79,0.515
				c2.496,1.567,6.439,2.604,10.259,3.608c4.178,1.099,8.5,2.234,11.826,4.238c2.243,1.35,4.866,4.41,5.543,7.648
				c0.441,2.124,0.022,4.217-1.181,5.898c-1.394,1.946-3.954,3.062-7.026,3.062c-3.824,0-8.15-1.905-8.604-6.094
				c-0.027-0.233-0.04-0.47-0.04-0.698c0-1.774,0.735-2.959,1.354-3.64c0.104-0.116,0.217-0.227,0.328-0.333
				c-0.801-0.166-1.604-0.315-2.371-0.458c-1.086-0.203-2.133-0.397-3.14-0.621c-0.011,0.029-0.019,0.056-0.022,0.083
				c-3.562,11.931-7.599,25.455-18.66,31.089c-0.312,0.16-0.646,0.31-0.987,0.451c0.062,0.11,0.114,0.225,0.161,0.344
				c1.848,0.143,3.59,0.312,5.195,0.504c1.562,0.187,2.729,1.549,2.662,3.104v0.02l-0.002,0.021
				c-0.095,1.577-1.414,2.812-3.004,2.822c-2.16,0.021-4.311,0.042-6.519,0.062c0.015,0.528,0.009,1.11-0.087,1.709
				c0.709,1.244,0.832,2.74,0.33,4.352c-0.553,1.787-1.905,3.107-3.805,3.713c-1.32,0.42-2.623,0.42-3.318,0.42
				c-0.521,0-1.019-0.02-1.506-0.037h-0.021c-0.424-0.015-0.818-0.027-1.173-0.027c-0.097,0-0.188,0-0.285,0.002
				c-0.035,0.002-0.069,0.002-0.104,0.002c-1.074,0-2.049-0.502-2.664-1.308c-1.498,1.027-3.332,1.609-5.188,1.609
				c-1.699,0-3.264-0.468-4.57-1.343c-0.475,0.445-1.084,0.756-1.752,0.863c-0.834,0.135-1.91,0.206-3.035,0.206
				c-1.123,0-2.203-0.071-3.039-0.209c-0.842-0.136-1.578-0.587-2.086-1.226c-1.787,1.045-4.035,1.652-6.403,1.652
				c-1.495,0-2.925-0.238-4.252-0.717c-0.423-0.15-0.802-0.38-1.126-0.671c-1.146,0.993-2.663,1.552-4.382,1.552
				c-2.409,0-4.794-1.142-6.38-3.012c-0.567,1.271-1.941,2.697-5.266,2.697c-1.545,0-3.146-0.293-3.848-0.467
				c-0.693-0.172-1.291-0.549-1.734-1.061c-1.291,1.039-3.024,1.647-4.871,1.647c-0.723,0-1.435-0.097-2.113-0.286
				c-0.279,0.054-0.596,0.092-0.948,0.092c-0.297,0-0.598-0.025-0.896-0.077c-1.264-0.218-2.304-1.146-2.649-2.37
				c-0.139-0.496-0.798-3.074-0.096-5.232c0.024-0.073,0.053-0.149,0.079-0.223c-0.171-0.598-0.263-1.332-0.143-2.197
				c-1.997,0.002-3.921,0.007-5.799,0.013c-1.569,0-2.864-1.162-3.013-2.707c-0.155-1.537,0.883-2.92,2.434-3.228
				c0.744-0.142,1.508-0.246,2.181-0.34l0.066-0.011c1.131-0.155,2.294-0.315,3.113-0.597c0.308-0.111,0.644-0.168,0.983-0.172
				c-0.516-0.229-0.998-0.471-1.428-0.729c-5.228-3.151-9.427-8.089-12.839-15.091c-2.157-4.428-3.939-9.534-5.553-15.923
				c-0.953,0.22-1.908,0.414-2.85,0.604c-0.955,0.194-1.92,0.391-2.849,0.609c0.124,0.121,0.245,0.248,0.356,0.379
				c1.108,1.298,1.543,3.022,1.227,4.854c-0.577,3.36-3.642,5.531-7.812,5.531c-2.748,0-6.53-1.042-8.138-3.975
				c-1.302-2.374-1.429-4.859-0.36-7.185c2.583-5.636,11.05-7.683,12.007-7.897c7.335-1.644,16.094-5.209,24.03-9.78
				c0.33-0.19,0.684-0.378,1.061-0.579c-0.517-0.584-0.831-1.347-0.831-2.172c0-1.703,0.448-3.115,1.33-4.197
				C42.11,3.877,43.571,3.194,45.148,3.194 M45.174,6.501c-0.012,0-0.022,0-0.035,0c-0.002,0-0.005,0-0.008,0
				c-0.068,0-0.137,0.003-0.205,0.01c0.047-0.004,0.094-0.004,0.139-0.007c0.022,0,0.045-0.002,0.066-0.003c0.002,0,0.005,0,0.007,0
				c0.016,0,0.03,0,0.045,0c0.003,0,0.005,0,0.007,0c-0.002,0-0.004,0-0.007,0C45.181,6.501,45.177,6.501,45.174,6.501
				c0.003,0,0.007,0,0.009,0c-0.01,0-0.022-0.001-0.034-0.001C45.157,6.5,45.167,6.5,45.174,6.501 M39.168,41.388
				c0.221-0.25,0.486-0.472,0.787-0.65c0.518-0.305,1.107-0.466,1.71-0.466c0.894,0,1.752,0.357,2.375,0.979
				c0.238-0.006,0.535-0.146,0.658-0.256c0.462-1.252-0.555-3.218-1.539-5.122c-0.82-1.59-1.668-3.234-1.96-4.981
				c-0.488-2.952,0.23-5.729,2.025-7.817c0.951-1.109,2.139-1.944,3.478-2.47c-0.242-0.434-0.388-0.921-0.413-1.433
				c-0.002-0.065,0.005-0.129,0.007-0.194c-1.192,0.704-2.439,1.322-3.631,1.91c-0.891,0.441-1.732,0.857-2.456,1.263
				c-0.763,0.429-1.73,0.819-2.766,1.235c-0.653,0.262-2.501,1.004-3.245,1.489c-0.359,2.158,1.427,7.428,2.036,9.232l0.014,0.038
				l0.221,0.651C36.917,36.137,37.822,38.631,39.168,41.388 M73.232,24.26c0.074,0,0.156,0,0.236-0.005
				c0.279-0.015,0.862-0.284,1.379-0.524l0.239-0.108c0.225-0.104,0.692-0.318,0.808-1.273c0.021-0.169,0.028-0.346,0.022-0.526
				c-0.252,0.061-0.516,0.091-0.777,0.091c-0.902,0-1.779-0.37-2.402-1.01c-0.255-0.26-0.826-0.522-1.528-0.522
				c-0.68,0-1.107,0.233-1.229,0.391c-0.13,0.169-0.124,0.589,0.021,1.12C70.388,23.331,71.656,24.26,73.232,24.26 M91.607,22.315
				c-0.316,0-0.631-0.045-0.932-0.131c-0.021,0.149-0.039,0.297-0.046,0.44c-0.054,1.069,0.408,1.291,0.683,1.421
				c0.734,0.354,1.379,0.565,1.896,0.627c0.079,0.008,0.159,0.013,0.232,0.013c1.068,0,2.338-0.739,3.021-1.757
				c0.488-0.722,0.6-1.448,0.329-2.161c-0.074-0.017-0.208-0.038-0.416-0.038c-1.039,0-2.229,0.5-2.687,0.861
				C93.104,22.058,92.361,22.315,91.607,22.315 M121.438,41.153c0.222-0.06,0.576-0.19,1.098-0.473
				c0.49-0.268,1.049-0.408,1.604-0.408c0.772,0,1.526,0.266,2.123,0.751c0.295,0.24,0.534,0.52,0.729,0.826
				c1.146-2.188,2.484-5.238,2.322-7.517c-0.364-5.064-2.643-8.185-5.791-11.286c0.787,3.344,0.406,7.972-2.947,10.848
				c0.013,0.273,0.021,0.55,0.031,0.833l0.004,0.049c0.07,1.929,0.152,4.116,0.563,5.635
				C121.271,40.766,121.363,41.002,121.438,41.153 M101.336,31.062c-1.839,2.015-4.057,3.35-6.297,3.752
				c-1.402,0.251-2.428,0.357-3.424,0.357c-1.654,0-3.147-0.309-4.699-0.974c0.1,3.098,0.21,5.839,0.332,8.394
				c0.971,0.135,1.959,0.273,2.939,0.45c0.303-0.554,0.596-1.147,0.883-1.731c0.279-0.562,0.695-1.417,1.142-2.216
				c0.616-1.089,1.781-1.765,3.043-1.765c0.327,0,0.655,0.046,0.976,0.138c0.041,0.012,0.082,0.024,0.112,0.034
				c1.081,0.353,1.884,1.175,2.218,2.193c0.306-0.943,0.607-1.888,0.91-2.833l0.021-0.057
				C100.096,34.915,100.713,32.994,101.336,31.062 M14.009,31.724L14.009,31.724L14.009,31.724c0.002,0,0.002,0,0.002,0h0.001l0,0
				c0.01,0,0.019,0.001,0.027,0.001h0.001c-0.007,0-0.014,0-0.021,0c-0.017,0-0.034,0-0.052,0c-0.021,0-0.042,0-0.063,0
				c0.021,0,0.043,0,0.063,0c0.018,0,0.035,0,0.052,0c0.009,0,0.016,0,0.022,0c0,0,0,0-0.001,0c0.001,0,0.001,0,0.002,0
				s0.001,0,0.001,0s0,0-0.001,0s-0.002,0-0.003,0c-0.009,0-0.019,0-0.027-0.001l0,0h-0.001
				C14.011,31.724,14.011,31.724,14.009,31.724L14.009,31.724L14.009,31.724L14.009,31.724L14.009,31.724 M75.362,34.856
				c-0.885,0-1.822-0.089-2.806-0.267c-0.067,0.234-0.16,0.464-0.282,0.686c-0.585,1.066-1.711,1.729-2.938,1.729
				c-0.219,0-0.439-0.022-0.646-0.063c-1.757-0.343-3.28-0.953-4.638-1.727c0.091,0.267,0.178,0.532,0.268,0.796l0.049,0.155
				c0.451,1.352,0.916,2.749,1.377,4.062c0.23,0.653,0.246,1.347,0.056,1.993c0.945,1.361,1.361,2.975,1.209,4.526
				c0.678-0.47,1.399-0.955,2.184-1.39c-0.118-0.392-0.291-0.826-0.509-1.363c-0.272-0.661-0.611-1.484-0.832-2.367
				c-0.44-1.703,0.479-3.452,2.141-4.074c0.031-0.012,0.068-0.025,0.104-0.036c0.367-0.125,0.746-0.187,1.129-0.187
				c1.299,0,2.483,0.709,3.098,1.867c0.48,0.926,1.325,2.448,2.136,3.877c0.994-0.199,1.976-0.352,2.896-0.471
				c0.087-1.363,0.137-2.812,0.186-4.234v-0.033c0.054-1.529,0.103-2.999,0.198-4.363C78.442,34.557,76.975,34.856,75.362,34.856
				 M108.596,47.812c0.012-0.006,0.021-0.015,0.031-0.019l0.014-0.007c0.071-0.046,0.144-0.087,0.203-0.117
				c0.112-0.059,0.233-0.113,0.354-0.168l0.021-0.01c0.081-0.038,0.16-0.074,0.254-0.112c0.103-0.041,0.211-0.079,0.317-0.114
				l0.04-0.016l0.023-0.009c0.088-0.033,0.17-0.062,0.258-0.089c0.103-0.03,0.207-0.058,0.314-0.082l0.04-0.01l0.046-0.013
				c0.1-0.024,0.203-0.052,0.312-0.073c0.085-0.02,0.176-0.031,0.27-0.043l0.016-0.004l0.056-0.008
				c0.131-0.021,0.261-0.043,0.397-0.059c0.074-0.008,0.152-0.012,0.246-0.02l0.043-0.001c0.123-0.011,0.275-0.022,0.461-0.028
				c0.027,0,0.059,0,0.092,0h0.271l0.093,0.021c0.078,0.009,0.152,0.021,0.231,0.034c0.081,0.014,0.166,0.032,0.241,0.055
				l0.014,0.001l0.012,0.004c0.071,0.021,0.184,0.053,0.312,0.1l0.014,0.007l0.016,0.005c0.078,0.027,0.152,0.062,0.229,0.098
				c0.096,0.043,0.191,0.096,0.286,0.152l0.007,0.001l0.016,0.011c0.069,0.042,0.138,0.086,0.203,0.131
				c0.114,0.082,0.197,0.154,0.246,0.195c0.051,0.039,0.122,0.104,0.192,0.173c0.133,0.136,0.258,0.286,0.362,0.435
				c0.043,0.062,0.082,0.123,0.121,0.188l0.004,0.007l0.021,0.039c0.028,0.047,0.086,0.145,0.144,0.271
				c0.041,0.09,0.074,0.168,0.095,0.221c0.017,0.04,0.036,0.1,0.062,0.164c0.028,0.09,0.055,0.178,0.071,0.271
				c0.017,0.062,0.024,0.121,0.035,0.183c0.019,0.104,0.024,0.198,0.032,0.274c0.01,0.067,0.017,0.162,0.017,0.269v0.294
				l-0.026,0.104c-0.016,0.129-0.041,0.258-0.07,0.385l-0.01,0.039l-0.013,0.039c-0.012,0.045-0.024,0.091-0.04,0.135
				c-0.07,0.232-0.166,0.441-0.277,0.642l-0.013,0.019l-0.002,0.004l-0.002,0.002l-0.038,0.066l-0.027,0.045
				c-0.106,0.162-0.229,0.319-0.367,0.467c-0.021,0.023-0.047,0.051-0.071,0.076l-0.024,0.025l-0.026,0.026
				c-0.173,0.163-0.349,0.302-0.556,0.433c-0.021,0.018-0.045,0.031-0.066,0.046l-0.036,0.023h-0.002l-0.044,0.03
				c-0.02,0.013-0.035,0.026-0.053,0.039l-0.022,0.021l-0.012,0.006l-0.011,0.009l-0.03,0.023l-0.021,0.016l-0.035,0.035
				l-0.059,0.049l-0.004,0.004l-0.053,0.053l-0.043,0.037l-0.002,0.004l-0.041,0.045l-0.043,0.047h-0.002l-0.026,0.035l-0.021,0.029
				c0.193,0.038,0.465,0.071,0.814,0.071c0.211,0,0.438-0.012,0.684-0.035c2.2-0.213,4.59-1.979,6.641-4.106
				c-0.635,0.146-1.27,0.222-1.871,0.222c-1.344,0-2.598-0.33-3.625-0.953c-3.809-2.306-3.715-6.847-3.641-10.5
				c0.027-1.32,0.055-2.678-0.097-3.724c-0.358,1.095-0.761,2.257-1.194,3.513l-0.012,0.029l-0.033,0.104
				c-0.209,0.607-0.424,1.23-0.644,1.87c-0.179,0.522-0.365,1.363-0.562,2.25l-0.006,0.022c-0.392,1.748-0.834,3.711-1.617,5.422
				C108.456,47.704,108.527,47.758,108.596,47.812 M46.356,49.793c-0.615,0-1.238-0.08-1.848-0.226
				c1.576,1.714,3.368,3.115,5.372,3.877c0.504,0.189,1.092,0.291,1.698,0.291c0.497,0,0.937-0.065,1.301-0.164
				c-0.07-0.072-0.15-0.15-0.238-0.24c-0.429-0.422-0.915-0.9-1.254-1.559c-0.621-1.188-0.462-2.614,0.401-3.639
				c0.636-0.754,1.572-1.187,2.565-1.187c0.324,0,0.646,0.048,0.964,0.142c-0.987-1.835-1.678-3.968-2.326-6.091
				c0.062,2.617-0.37,5.251-2.23,7.067C49.623,49.181,48.058,49.793,46.356,49.793 M45.148,2.658c-1.736,0-3.35,0.753-4.425,2.069
				c-0.963,1.182-1.451,2.707-1.451,4.535c0,0.706,0.199,1.394,0.567,1.993c-0.181,0.098-0.357,0.196-0.528,0.294
				c-7.893,4.545-16.596,8.089-23.879,9.722c-0.984,0.22-9.686,2.319-12.379,8.196c-1.139,2.483-1.009,5.134,0.379,7.666
				c1.721,3.139,5.713,4.253,8.608,4.253c4.442,0,7.716-2.346,8.34-5.977c0.319-1.86-0.074-3.621-1.113-5
				c0.633-0.138,1.277-0.27,1.906-0.398l0.051-0.01c0.861-0.174,1.607-0.326,2.352-0.492c1.591,6.206,3.331,11.149,5.462,15.521
				c3.459,7.099,7.726,12.109,13.045,15.312c0.035,0.023,0.072,0.044,0.108,0.065c-0.724,0.188-1.655,0.315-2.561,0.44l-0.083,0.012
				c-0.599,0.08-1.422,0.195-2.204,0.346c-1.817,0.357-3.049,1.994-2.867,3.805c0.176,1.818,1.701,3.191,3.547,3.191
				c1.695-0.008,3.425-0.012,5.213-0.014c-0.022,0.562,0.033,1.108,0.167,1.637c-0.009,0.025-0.019,0.054-0.026,0.08
				c-0.751,2.308-0.057,5.021,0.09,5.544c0.4,1.42,1.608,2.501,3.075,2.754c0.325,0.059,0.656,0.086,0.982,0.086
				c0.307,0,0.617-0.024,0.923-0.077c0.687,0.184,1.405,0.271,2.139,0.271c1.769,0,3.46-0.521,4.818-1.476
				c0.471,0.419,1.036,0.718,1.658,0.87c0.728,0.18,2.381,0.48,3.976,0.48c3.046,0,4.591-1.146,5.375-2.324
				c1.674,1.662,3.968,2.638,6.271,2.638c1.661,0,3.167-0.481,4.384-1.399c0.29,0.207,0.606,0.371,0.942,0.49
				c1.384,0.495,2.875,0.748,4.432,0.748c2.244,0,4.458-0.535,6.292-1.514c0.574,0.568,1.31,0.947,2.113,1.077
				c0.859,0.139,1.971,0.216,3.123,0.216c1.151,0,2.258-0.076,3.117-0.214c0.629-0.104,1.215-0.354,1.715-0.731
				c1.326,0.797,2.885,1.217,4.525,1.217c1.779,0,3.57-0.512,5.091-1.442c0.726,0.729,1.705,1.14,2.763,1.14l0.117-0.001
				c0.094-0.003,0.182-0.003,0.271-0.003c0.346,0,0.738,0.016,1.154,0.028c0.516,0.021,1.021,0.038,1.545,0.038
				c0.728,0,2.082,0,3.48-0.445c2.07-0.661,3.548-2.104,4.154-4.064c0.521-1.67,0.422-3.262-0.285-4.609
				c0.05-0.38,0.066-0.747,0.068-1.078c2.021-0.018,3.998-0.035,5.984-0.055c1.869-0.01,3.42-1.471,3.532-3.327l0.002-0.017
				l0.002-0.037c0.078-1.828-1.298-3.436-3.135-3.653c-1.242-0.149-2.572-0.284-3.968-0.404
				c10.978-5.739,15.051-19.049,18.59-30.906c0.853,0.18,1.726,0.342,2.64,0.513l0.069,0.014c0.455,0.084,0.926,0.172,1.398,0.264
				c-0.6,0.782-1.188,1.974-1.188,3.632c0,0.261,0.015,0.518,0.044,0.762c0.486,4.51,5.078,6.565,9.136,6.565
				c3.248,0,5.97-1.198,7.463-3.287c1.293-1.804,1.742-4.05,1.269-6.321c-0.707-3.389-3.446-6.588-5.786-7.998
				c-3.392-2.041-7.749-3.188-11.964-4.294c-3.793-0.999-7.69-2.023-10.115-3.546c-0.621-0.391-1.34-0.597-2.073-0.597
				c-0.655,0-1.289,0.161-1.856,0.469c-0.23-0.247-0.467-0.486-0.703-0.713c-1.088-1.052-2.59-1.944-4.178-2.89l-0.084-0.05
				c-0.205-0.123-0.442-0.265-0.703-0.421c0.584-0.706,0.896-1.6,0.871-2.54c-0.015-0.491-0.063-0.966-0.154-1.413
				c-0.69-3.509-3.516-5.079-6.004-5.079c-0.117,0-0.236,0.005-0.354,0.015c-0.154,0.007-0.279,0.015-0.402,0.027
				c-0.108,0.013-0.229,0.032-0.351,0.056c-0.142,0.021-0.265,0.042-0.388,0.07h-0.006l-0.041,0.01
				c-0.059,0.015-0.109,0.029-0.164,0.044c-1.327,0.335-2.612,1.075-3.604,2.076c-1.239,1.25-1.993,2.808-2.176,4.508
				c-0.037,0.32-0.054,0.625-0.048,0.926c0.006,0.21,0.017,0.424,0.033,0.639c0.082,0.996,0.318,1.92,0.713,2.801
				c-0.247,0.006-0.498,0.022-0.75,0.05c-0.225-0.198-0.469-0.371-0.73-0.515c-0.578-0.311-1.223-0.474-1.865-0.474
				c-0.611,0-1.22,0.144-1.764,0.418c-1.99-2.907-5.979-4.66-11.58-5.082c-0.431-0.032-0.859-0.048-1.279-0.048
				c-6.272,0-10.299,3.311-12.332,5.602c-1.125-1.259-2.509-2.352-4.125-3.253c-2.999-1.677-6.637-2.601-10.245-2.601
				c-3.021,0-5.947,0.654-8.459,1.893c-2.592,1.276-4.162,3.352-4.588,6.038c-1.508-0.891-3.008-1.334-4.561-1.346
				c1.418-2.545,1.402-5.525-0.049-7.996C50.241,4.229,47.683,2.658,45.148,2.658L45.148,2.658z M34.698,25.198
				c0.801-0.453,2.379-1.087,2.93-1.309c1.063-0.428,2.051-0.825,2.845-1.272c0.709-0.397,1.541-0.808,2.419-1.244
				c0.93-0.458,1.948-0.962,2.955-1.522c0.038,0.162,0.085,0.32,0.142,0.475c-1.223,0.565-2.287,1.371-3.168,2.398
				c-1.899,2.21-2.663,5.142-2.147,8.254c0.304,1.83,1.174,3.512,2.013,5.139c0.843,1.634,1.793,3.47,1.558,4.531
				c-0.014,0.007-0.028,0.013-0.043,0.02c-0.699-0.597-1.607-0.934-2.535-0.934c-0.694,0-1.381,0.187-1.98,0.539
				c-0.12,0.07-0.234,0.147-0.345,0.229c-1.196-2.54-1.983-4.743-2.361-5.879l-0.223-0.655l-0.522,0.125l0.508-0.172
				C36.181,32.271,34.519,27.363,34.698,25.198L34.698,25.198z M70.427,21.085c0.079-0.047,0.341-0.167,0.782-0.167
				c0.581,0,1.003,0.216,1.145,0.361c0.726,0.744,1.741,1.171,2.786,1.171c0.066,0,0.131-0.001,0.196-0.004
				c-0.098,0.518-0.32,0.62-0.472,0.689l-0.24,0.109c-0.35,0.163-0.998,0.462-1.185,0.477c-0.07,0.003-0.142,0.004-0.207,0.004
				c-1.325,0-2.393-0.774-2.713-1.971C70.42,21.391,70.417,21.171,70.427,21.085L70.427,21.085z M91.607,22.851
				c0.877,0,1.734-0.298,2.418-0.839c0.338-0.268,1.414-0.746,2.354-0.746l0,0c0.078,0.447-0.041,0.894-0.355,1.363
				c-0.584,0.867-1.689,1.521-2.578,1.521c-0.057,0-0.119-0.004-0.178-0.011c-0.451-0.054-1.05-0.254-1.723-0.576
				c-0.186-0.089-0.377-0.18-0.38-0.737C91.311,22.843,91.46,22.851,91.607,22.851L91.607,22.851z M121.119,34.129
				c2.835-2.57,3.541-6.309,3.214-9.475c2.479,2.691,4.14,5.534,4.442,9.719c0.113,1.559-0.521,3.741-1.89,6.495
				c-0.092-0.092-0.188-0.18-0.288-0.26c-0.688-0.562-1.562-0.872-2.457-0.872c-0.649,0-1.293,0.163-1.863,0.473
				c-0.205,0.111-0.381,0.196-0.527,0.261c-0.018-0.062-0.038-0.127-0.059-0.201c-0.396-1.46-0.479-3.613-0.547-5.513l-0.002-0.057
				C121.134,34.51,121.127,34.318,121.119,34.129L121.119,34.129z M91.613,35.707c1.033,0,2.088-0.109,3.521-0.365
				c1.736-0.312,3.478-1.163,5.048-2.446c-0.404,1.258-0.807,2.508-1.201,3.745l-0.019,0.047l-0.528,1.645
				c-0.479-0.618-1.143-1.084-1.925-1.341l-0.006-0.002l-0.048-0.015l-0.078-0.023c-0.363-0.105-0.743-0.16-1.124-0.16
				c-1.452,0-2.797,0.781-3.508,2.037c-0.429,0.767-0.819,1.562-1.104,2.142l-0.052,0.102c-0.229,0.465-0.459,0.933-0.688,1.374
				c-0.696-0.121-1.396-0.224-2.139-0.325c-0.104-2.233-0.199-4.576-0.283-7.126C88.828,35.479,90.162,35.707,91.613,35.707
				L91.613,35.707z M75.362,35.392c1.357,0,2.629-0.204,3.789-0.608c-0.062,1.083-0.102,2.217-0.143,3.403l-0.003,0.131l-0.002,0.01
				v0.042c-0.046,1.346-0.091,2.582-0.158,3.76c-0.748,0.104-1.444,0.219-2.11,0.346c-0.812-1.438-1.525-2.735-1.938-3.525
				c-0.645-1.216-1.844-2.01-3.189-2.137c0.463-0.331,0.854-0.764,1.136-1.278c0.061-0.11,0.116-0.224,0.167-0.34
				C73.76,35.325,74.582,35.392,75.362,35.392L75.362,35.392z M66.378,42.122c0.152-0.688,0.108-1.397-0.128-2.072
				c-0.428-1.221-0.856-2.503-1.274-3.753c1.152,0.538,2.344,0.922,3.609,1.169c0.106,0.021,0.217,0.038,0.327,0.051
				c-1.339,0.929-2.004,2.606-1.581,4.244c0.229,0.915,0.577,1.76,0.854,2.438c0.148,0.361,0.266,0.656,0.357,0.912
				c-0.339,0.199-0.664,0.406-0.979,0.611C67.495,44.459,67.087,43.216,66.378,42.122L66.378,42.122z M109.285,46.876
				c0.57-1.529,0.936-3.164,1.238-4.525c0.207-0.937,0.388-1.73,0.553-2.216l0.447-1.31l0.191-0.56l0.037-0.105
				c0.094-0.27,0.186-0.535,0.271-0.795c-0.004,0.268-0.01,0.533-0.017,0.79c-0.054,2.654-0.116,5.754,1.242,8.222
				c-0.048-0.012-0.104-0.024-0.159-0.034c-0.084-0.015-0.162-0.025-0.242-0.035l-0.061-0.014l-0.059-0.014h-0.06h-0.272H112.3
				c-0.2,0.006-0.362,0.019-0.495,0.029c-0.139,0.008-0.224,0.014-0.304,0.021c-0.146,0.017-0.286,0.037-0.428,0.062l-0.058,0.01
				c-0.103,0.015-0.203,0.029-0.299,0.048c-0.121,0.024-0.234,0.054-0.347,0.082l-0.045,0.013c-0.146,0.033-0.263,0.062-0.372,0.098
				c-0.098,0.027-0.189,0.062-0.288,0.096h-0.002l-0.056,0.021C109.482,46.802,109.38,46.837,109.285,46.876L109.285,46.876z
				 M52.259,47.021c0.531-0.896,0.894-1.945,1.094-3.164c0.308,0.873,0.645,1.735,1.027,2.558c-0.01,0-0.017,0-0.025,0
				C53.601,46.413,52.876,46.627,52.259,47.021L52.259,47.021z M46.356,50.328c1.668,0,3.217-0.547,4.415-1.548
				c-0.432,1.027-0.397,2.212,0.141,3.238c0.241,0.465,0.545,0.85,0.848,1.178c-0.06,0.003-0.12,0.004-0.182,0.004
				c-0.541,0-1.063-0.09-1.507-0.258c-1.375-0.521-2.734-1.401-4.057-2.621C46.129,50.326,46.244,50.328,46.356,50.328
				L46.356,50.328z M116.24,50.618l0.019-0.069l0.019-0.065v-0.066V50.12c0-0.133-0.01-0.25-0.021-0.335
				c-0.005-0.063-0.017-0.173-0.034-0.29c-0.014-0.079-0.027-0.146-0.043-0.214c1.055,0.573,2.305,0.875,3.635,0.875
				c0.108,0,0.221-0.003,0.332-0.007c-1.502,1.357-3.363,2.651-5.151,2.824c0.032-0.031,0.067-0.062,0.104-0.097l0.008-0.005
				l0.033-0.036l0.006-0.004l0.029-0.034l0.082-0.086c0.146-0.152,0.287-0.335,0.413-0.527l0.024-0.037l0.061-0.103l0.001-0.005
				l0.013-0.02c0.137-0.235,0.242-0.479,0.326-0.746l0.016-0.053l0.031-0.103l0.002-0.009l0.021-0.088
				C116.195,50.892,116.223,50.755,116.24,50.618L116.24,50.618z"/>
		</g>
	</g>
	
		<path fill="#0A9995" stroke="#FFFFFF" stroke-width="0.4266" stroke-linecap="round" stroke-linejoin="round" stroke-miterlimit="10" d="
		M123.059,9.32c-0.246-2.41-3.812-1.548-3.916,0.668c-0.142,3.145,6.909,5.684,9.181,7.878c3.204,3.094,4.344,6.62,6.614,9.08
		c0.783-2.894,0.563-6.215-1.35-7.745c5.791,3.635,16.229,4.32,22.137,7.878c2.096,1.262,5.664,5.619,3.375,8.813
		c-1.936,2.702-9.199,2.061-9.584-1.469c-0.312-2.878,3.144-3.095,4.992-1.469c-0.927,0.311-2.669,0.123-3.104,1.469
		c1.836,3.706,7.168,0.871,5.938-2.538c-1.911-5.315-12.012-4.91-17.278-6.942c-3.645,11.923-7.215,26.841-17.951,32.314
		c-4.256,2.166-14.4,2.914-14.174-3.874c0.941-1.647,1.896-3.286,4.455-3.338c-3.756,2.34-3.275,7.277,2.969,6.679
		c5.548-0.533,10.937-7.01,13.365-11.218c1.562-2.713,4.203-7.503,3.914-11.484c-0.641-8.81-4.947-14.184-11.609-17.892
		c-1.28-1.977-3.862-2.849-3.914-5.741C117.049,6.613,122.93,4.592,123.059,9.32z"/>
	<g>
		<path fill="#0A9995" d="M92.29,65.028c-6.692,0-13.397-0.01-20.103-0.021l-1.68-0.002c-6.143-0.009-12.284-0.02-18.418-0.02
			c-5.149,0-9.755,0.006-14.071,0.021c-0.212,0-0.387-0.157-0.406-0.368c-0.022-0.201,0.114-0.392,0.318-0.438
			c0.695-0.132,1.417-0.231,2.12-0.329c1.263-0.174,2.569-0.354,3.639-0.723c0.028-0.012,0.104-0.022,0.134-0.022h38.874
			c3.409,0,6.952-0.034,10.381-0.067c3.471-0.031,7.059-0.063,10.561-0.063h0.002c7.055,0,16.164,0.121,24.055,1.067
			c0.207,0.021,0.369,0.205,0.363,0.42c-0.019,0.229-0.192,0.393-0.408,0.393C117.311,64.979,106.402,65.028,92.29,65.028z"/>
		<path fill="#FFFFFF" d="M103.639,63.261c7.041,0,16.137,0.12,24.023,1.067c0.076,0.008,0.129,0.073,0.127,0.146
			c-0.006,0.073-0.064,0.131-0.141,0.131c-10.252,0.106-21.155,0.155-35.358,0.155c-6.692,0-13.396-0.01-20.103-0.021
			c-6.703-0.01-13.405-0.021-20.099-0.021c-5.149,0-9.756,0.006-14.072,0.02c-0.071,0-0.132-0.055-0.139-0.127
			c-0.008-0.069,0.043-0.135,0.111-0.148c0.681-0.129,1.398-0.229,2.097-0.325c1.278-0.176,2.6-0.356,3.689-0.733
			c0.016-0.006,0.03-0.008,0.047-0.008h38.874c3.411,0,6.954-0.035,10.384-0.067C96.55,63.294,100.137,63.261,103.639,63.261v0.139
			V63.261 M103.639,62.726L103.639,62.726L103.639,62.726c-3.517,0-7.099,0.032-10.562,0.064c-3.42,0.033-6.956,0.066-10.379,0.066
			H43.822c-0.064,0-0.175,0.021-0.235,0.043c-1.031,0.354-2.324,0.533-3.574,0.705c-0.701,0.099-1.425,0.196-2.123,0.33
			c-0.356,0.082-0.582,0.396-0.544,0.734c0.032,0.341,0.321,0.604,0.671,0.604c4.318-0.016,8.923-0.021,14.072-0.021
			c6.135,0,12.276,0.009,18.42,0.019l1.678,0.002c6.707,0.013,13.411,0.021,20.104,0.021c14.113,0,25.021-0.048,35.363-0.154
			c0.352,0,0.642-0.27,0.67-0.625c0.011-0.382-0.256-0.687-0.606-0.723C119.82,62.847,110.701,62.726,103.639,62.726L103.639,62.726
			z"/>
	</g>
	<g>
		<g>
			<path fill="#0A9995" d="M50.584,75.069c-0.722,0-1.428-0.151-2.057-0.442c-0.009,0.003-0.017,0.007-0.025,0.011
				c-0.246,0.105-0.551,0.238-0.982,0.238c-0.123,0-0.257-0.011-0.406-0.036c-0.19-0.032-0.345-0.173-0.397-0.358
				c-0.209-0.748-0.505-2.47-0.13-3.627c0.068-0.211,0.263-0.347,0.475-0.347c0.036,0,0.072,0.004,0.108,0.013
				c0.045,0.004,0.08,0.004,0.108,0.004c0.062,0,0.089-0.006,0.117-0.012c0.095-0.02,0.187-0.035,0.29-0.035
				c0.112,0,0.222,0.02,0.335,0.056c0.115,0.034,0.212,0.11,0.275,0.214c0.367,0.484,2.128,2.312,2.99,2.312
				c0.084,0,0.309,0,0.414-0.66c0.092-0.588-0.545-0.851-1.919-1.271c-1.15-0.354-2.454-0.756-2.967-1.809
				c-0.297-0.609-0.281-1.358,0.05-2.228c0.429-1.12,1.903-1.936,3.504-1.936c0.663,0,1.3,0.133,1.897,0.394
				c0.076-0.021,0.165-0.056,0.251-0.09c0.213-0.084,0.455-0.18,0.735-0.18c0.269,0,0.516,0.089,0.736,0.265
				c0.082,0.065,0.141,0.154,0.169,0.255c0.248,0.877,0.248,2.6,0,3.477c-0.048,0.174-0.182,0.301-0.345,0.348
				c0.148,0.12,0.284,0.26,0.404,0.422c0.698,0.95,0.823,1.987,0.351,2.922C53.938,74.205,52.301,75.069,50.584,75.069
				L50.584,75.069z M49.808,67.737c0.38,0.627,1.146,0.828,2.017,1.057c0.128,0.033,0.257,0.066,0.385,0.104
				c-0.216-0.203-0.418-0.424-0.611-0.638c-0.414-0.454-0.841-0.927-1.174-0.927C50.221,67.333,49.997,67.521,49.808,67.737z"/>
			<path fill="#FFFFFF" d="M50.368,65.656c0.6,0,1.227,0.125,1.826,0.411c0.352-0.021,0.701-0.287,1.058-0.287
				c0.14,0,0.281,0.041,0.424,0.154c0.222,0.783,0.222,2.422,0,3.205c-1.284-0.106-2.126-2.309-3.25-2.309
				c-0.364,0-0.757,0.23-1.205,0.838c0.741,1.925,3.555,1.264,4.591,2.67c1.612,2.189-0.7,4.229-3.227,4.229
				c-0.688,0-1.392-0.149-2.037-0.49c-0.325,0.115-0.586,0.297-1.028,0.297c-0.098,0-0.204-0.009-0.322-0.027
				c-0.238-0.854-0.445-2.386-0.136-3.341c0.077,0.019,0.142,0.022,0.201,0.022c0.17,0,0.28-0.055,0.422-0.055
				c0.055,0,0.115,0.008,0.185,0.03l0,0c-0.032,0,2.119,2.552,3.416,2.552c0.441,0,0.783-0.293,0.908-1.082
				c0.393-2.5-6.413-1.146-4.862-5.207C47.68,66.358,48.945,65.656,50.368,65.656 M50.368,64.656L50.368,64.656
				c-1.83,0-3.462,0.929-3.971,2.257c-0.382,1.002-0.394,1.885-0.033,2.625c0.095,0.193,0.21,0.37,0.34,0.527
				c-0.274,0.102-0.495,0.328-0.593,0.634c-0.412,1.27-0.116,3.06,0.124,3.917c0.104,0.371,0.413,0.65,0.794,0.716
				c0.167,0.028,0.333,0.044,0.49,0.044c0.427,0,0.752-0.104,1.004-0.205c0.641,0.264,1.344,0.398,2.06,0.398
				c1.928,0,3.707-0.955,4.426-2.379c0.554-1.097,0.41-2.352-0.394-3.442c-0.026-0.035-0.052-0.069-0.079-0.103
				c0.042-0.071,0.076-0.149,0.099-0.232c0.272-0.964,0.272-2.786,0-3.75c-0.057-0.2-0.175-0.378-0.338-0.51
				c-0.306-0.244-0.669-0.373-1.048-0.373c-0.376,0-0.69,0.123-0.919,0.215c-0.016,0.006-0.034,0.014-0.052,0.021
				C51.676,64.78,51.021,64.656,50.368,64.656L50.368,64.656L50.368,64.656z M51.157,72.537c-0.297-0.089-0.773-0.438-1.241-0.847
				c0.513,0.162,1.184,0.395,1.295,0.58c-0.001,0-0.001,0.019-0.006,0.051C51.19,72.417,51.173,72.487,51.157,72.537L51.157,72.537z
				"/>
		</g>
		<g>
			<path fill="#0A9995" d="M103.327,75.147c-1.692,0-3.167-0.697-4.151-1.963c-1.113-1.432-1.398-3.062-0.803-4.595
				c0.65-1.672,2.307-2.961,4.22-3.282c0.425-0.072,0.851-0.107,1.265-0.107c2.83,0,4.94,1.665,5.254,4.144
				c0.179,1.4-0.229,2.708-1.176,3.78C106.816,74.392,105.096,75.147,103.327,75.147L103.327,75.147z M103.659,67.44
				c-0.152,0-0.313,0.018-0.478,0.052c-1.373,0.286-1.729,1.684-1.613,2.794c0.134,1.283,0.924,2.648,2.129,2.648
				c0.361,0,0.751-0.119,1.156-0.355c0.924-0.537,1.146-2.074,0.83-3.251C105.564,68.886,105.064,67.44,103.659,67.44z"/>
			<path fill="#FFFFFF" d="M103.857,65.7c2.479,0,4.465,1.384,4.758,3.706c0.39,3.096-2.48,5.241-5.288,5.241
				c-1.407,0-2.8-0.541-3.757-1.771c-2.398-3.081-0.127-6.529,3.104-7.077C103.079,65.731,103.475,65.7,103.857,65.7
				 M103.697,73.435c0.43,0,0.902-0.129,1.406-0.422c2.08-1.211,1.435-6.072-1.444-6.07c-0.185,0-0.377,0.021-0.579,0.062
				C99.818,67.683,100.824,73.435,103.697,73.435 M103.857,64.7c-0.441,0-0.896,0.037-1.35,0.113
				c-2.113,0.356-3.879,1.734-4.604,3.597c-0.661,1.702-0.352,3.507,0.873,5.082c1.082,1.39,2.697,2.155,4.548,2.155
				c1.907,0,3.771-0.82,4.981-2.193c1.028-1.166,1.489-2.646,1.297-4.173C109.262,66.541,106.95,64.7,103.857,64.7L103.857,64.7z
				 M103.697,72.435c-0.879,0-1.521-1.117-1.631-2.199c-0.033-0.325-0.133-1.973,1.218-2.252c0.13-0.026,0.257-0.041,0.375-0.041
				c1.022,0,1.419,1.062,1.542,1.518c0.301,1.116,0.031,2.322-0.6,2.688C104.273,72.338,103.971,72.435,103.697,72.435
				L103.697,72.435z"/>
		</g>
		<g>
			<path fill="#0A9995" d="M114.268,74.907c-0.471,0-0.947-0.018-1.418-0.034c-0.44-0.017-0.875-0.031-1.285-0.031
				c-0.127,0-0.381,0.005-0.387,0.005c-0.229,0-0.431-0.156-0.484-0.38c-0.213-0.862-0.18-2.202-0.156-3.091L110.543,71
				c0.002-0.142,0.062-0.272,0.169-0.366c0.093-0.082,0.21-0.126,0.331-0.126c0.018,0,0.035,0.001,0.055,0.003
				c0.91,0.098,1.569,0.766,2.151,1.355c0.51,0.516,0.991,1.003,1.515,1.003c0.254,0,0.539-0.111,0.854-0.33
				c-0.25-0.856-1.002-1.122-2.151-1.462c-1.283-0.381-2.883-0.854-2.787-3.028c0.082-1.858,1.562-2.802,4.396-2.802
				c1.009,0,2.068,0.115,2.771,0.191c0.269,0.027,0.465,0.266,0.443,0.533c-0.025,0.355-0.014,0.758,0.002,1.184
				c0.025,0.762,0.057,1.55-0.167,2.156c-0.071,0.198-0.263,0.328-0.47,0.328c-0.014,0-0.025,0-0.038,0
				c0.931,0.594,1.562,1.488,1.055,3.117C118.086,74.651,116.116,74.907,114.268,74.907L114.268,74.907z M113.836,67.69
				c0.471,0.523,1.303,0.851,2.111,1.168c0.154,0.06,0.312,0.121,0.47,0.186c-0.272-0.234-0.522-0.508-0.759-0.768
				c-0.428-0.469-0.871-0.953-1.223-0.953C114.234,67.323,114.021,67.49,113.836,67.69z"/>
			<path fill="#FFFFFF" d="M115.076,65.747c0.943,0,1.91,0.102,2.717,0.188c-0.077,1.035,0.163,2.388-0.136,3.205
				c-1.23-0.162-2.089-2.315-3.222-2.315c-0.373,0-0.775,0.231-1.23,0.848c1.234,2.13,6.061,1.498,4.99,4.938
				c-0.479,1.539-2.133,1.798-3.93,1.798c-0.91,0-1.854-0.065-2.703-0.065c-0.131,0-0.261,0.001-0.387,0.006
				c-0.229-0.932-0.146-2.574-0.135-3.34c1.496,0.161,2.279,2.361,3.723,2.361c0.405,0,0.865-0.178,1.407-0.624
				c-0.453-3.039-5.146-1.257-4.994-4.674C111.262,66.183,113.117,65.747,115.076,65.747 M115.076,64.747
				c-3.928,0-4.831,1.784-4.896,3.279c-0.039,0.896,0.176,1.552,0.525,2.039c-0.118,0.043-0.229,0.106-0.324,0.191
				c-0.211,0.188-0.333,0.452-0.338,0.733l-0.008,0.37c-0.021,0.914-0.057,2.297,0.172,3.224c0.109,0.448,0.512,0.763,0.971,0.763
				c0.01,0,0.02,0,0.029,0c0.115-0.006,0.234-0.007,0.355-0.007c0.403,0,0.832,0.017,1.269,0.031
				c0.476,0.019,0.96,0.034,1.437,0.034c1.229,0,4.107,0,4.885-2.5c0.475-1.523,0.056-2.521-0.666-3.207
				c0.047-0.066,0.082-0.141,0.111-0.219c0.254-0.697,0.225-1.535,0.196-2.346c-0.015-0.41-0.028-0.799-0.004-1.128
				c0.04-0.538-0.354-1.011-0.89-1.067C117.188,64.864,116.111,64.747,115.076,64.747L115.076,64.747z M114.764,72.369
				c-0.269,0-0.621-0.317-0.977-0.671c0.593,0.189,0.961,0.361,1.174,0.632C114.889,72.354,114.822,72.369,114.764,72.369
				L114.764,72.369z"/>
		</g>
		<g>
			<path fill="#0A9995" d="M61.037,74.947c-1.274,0-2.625-0.25-3.161-0.384c-0.224-0.056-0.38-0.256-0.38-0.484v-0.533
				c0.056-0.855,0.917-0.88,1.284-0.89c0.057-0.003,0.131-0.005,0.2-0.009v-5.209c-0.012,0-0.024,0-0.036,0
				c-0.447,0-0.605,0.217-0.892,0.668c-0.295,0.465-0.699,1.101-1.661,1.131c-0.005,0-0.011,0-0.016,0
				c-0.183,0-0.353-0.102-0.44-0.262c-0.576-1.064-0.669-1.938-0.278-2.595c0.499-0.838,1.653-1.211,3.743-1.211
				c0.976,0,2.05,0.082,2.997,0.154c0.817,0.062,1.589,0.12,2.187,0.12c0.143,0,0.277-0.004,0.4-0.012c0.011,0,0.021,0,0.031,0
				c0.139,0,0.273,0.06,0.368,0.16c0.102,0.111,0.149,0.262,0.127,0.411c-0.04,0.271-0.017,0.644,0.005,1.004
				c0.05,0.81,0.101,1.646-0.449,2.109c-0.09,0.075-0.205,0.118-0.322,0.118c-0.001,0-0.002,0-0.003,0
				c-0.983-0.008-1.374-0.652-1.659-1.125c-0.267-0.439-0.404-0.637-0.809-0.642c-0.231,0.798-0.183,1.947-0.136,3.065
				c0.029,0.699,0.06,1.423,0.024,2.086c0.094,0.02,0.225,0.035,0.316,0.047c0.417,0.057,1.195,0.155,1.281,0.953
				c0.009,0.08-0.002,0.161-0.031,0.234C63.44,74.593,62.561,74.947,61.037,74.947z"/>
			<path fill="#FFFFFF" d="M59.399,65.672c1.783,0,3.854,0.275,5.184,0.275c0.154,0,0.299-0.005,0.432-0.013
				c-0.131,0.896,0.288,2.332-0.271,2.805c-1.412-0.01-1.061-1.766-2.483-1.766c-0.107,0-0.224,0.01-0.352,0.029
				c-0.616,1.438-0.1,3.992-0.268,5.874c0.328,0.478,1.541,0.077,1.619,0.801c-0.229,0.587-1.174,0.77-2.223,0.77
				c-1.164,0-2.455-0.224-3.042-0.368c0-0.178,0-0.355,0-0.533c0.042-0.627,1.129-0.219,1.484-0.533c0-2.005,0-4.008,0-6.01
				c-0.202-0.045-0.379-0.064-0.536-0.064c-1.464,0-1.154,1.754-2.569,1.802C55.003,66.202,56.925,65.672,59.399,65.672
				 M65.015,65.937h0.005 M59.399,64.672v1V64.672c-1.539,0-3.404,0.165-4.173,1.454c-0.488,0.818-0.397,1.855,0.268,3.088
				c0.175,0.323,0.513,0.523,0.88,0.523c0.011,0,0.021,0,0.032,0c1.227-0.039,1.752-0.867,2.067-1.361
				c0.002-0.004,0.004-0.007,0.006-0.011v3.81c-0.932,0.096-1.431,0.532-1.482,1.305c-0.001,0.021-0.002,0.045-0.002,0.066v0.533
				c0,0.46,0.313,0.859,0.76,0.971c0.557,0.139,1.959,0.397,3.281,0.397c0.645,0,2.606,0,3.155-1.404
				c0.058-0.149,0.08-0.312,0.062-0.471c-0.117-1.082-1.08-1.304-1.58-1.378c0.008-0.549-0.016-1.118-0.039-1.676
				c-0.032-0.766-0.065-1.543-0.008-2.188c0.008,0.013,0.017,0.025,0.026,0.042c0.287,0.476,0.821,1.354,2.083,1.362
				c0.002,0,0.004,0,0.007,0c0.236,0,0.464-0.082,0.645-0.233c0.743-0.626,0.681-1.634,0.626-2.522
				c-0.019-0.311-0.039-0.629-0.016-0.85c0.013-0.062,0.02-0.129,0.02-0.195c0-0.554-0.445-1-0.998-1h-0.004c0,0,0,0-0.001,0
				s-0.002,0-0.003,0l0,0c0,0,0,0-0.001,0c-0.001,0-0.001,0-0.001,0l0,0c-0.022,0-0.043,0.002-0.064,0.004
				c-0.111,0.006-0.232,0.009-0.361,0.009c-0.579,0-1.341-0.058-2.148-0.12C61.479,64.755,60.395,64.672,59.399,64.672
				L59.399,64.672z"/>
		</g>
		<g>
			<path fill="#0A9995" d="M72.682,75.259c-1.718,0-3.489-0.943-4.512-2.406c-1.038-1.482-1.254-3.362-0.622-5.324
				c-0.028-0.002-0.055-0.004-0.08-0.006c-0.299-0.023-0.922-0.073-1.051-0.684c-0.039-0.425,0.073-0.754,0.313-1.015
				c0.506-0.55,1.475-0.664,2.199-0.664c0.955,0,2.642,0.239,3.105,0.882c0.047,0.064,0.078,0.143,0.089,0.223
				c0.044,0.315-0.015,0.584-0.176,0.795c-0.268,0.351-0.704,0.403-1.054,0.447c-0.029,0.004-0.06,0.008-0.09,0.012
				c0.022,0.562-0.004,1.158-0.029,1.742c-0.059,1.354-0.119,2.754,0.439,3.314c0.431,0.15,0.817,0.229,1.147,0.229
				c0.468,0,0.824-0.154,1.089-0.471c0.636-0.76,0.784-2.53,0.401-4.747c-0.086-0.028-0.265-0.047-0.379-0.06
				c-0.395-0.039-1.13-0.114-1.258-0.836c-0.007-0.039-0.009-0.08-0.007-0.118c0.054-0.892,1.032-1.402,2.682-1.402
				c0.891,0,2.518,0.188,2.965,0.897c0.036,0.056,0.06,0.119,0.07,0.186c0.054,0.326-0.001,0.604-0.163,0.819
				c-0.265,0.354-0.701,0.407-1.051,0.45c-0.085,0.011-0.209,0.024-0.298,0.047c-0.055,0.558-0.012,1.188,0.033,1.849
				c0.072,1.062,0.146,2.157-0.153,3.197C75.816,74.271,74.467,75.259,72.682,75.259L72.682,75.259z"/>
			<path fill="#FFFFFF" d="M68.929,65.66c1.163,0,2.442,0.315,2.7,0.674c0.116,0.827-0.871,0.563-1.351,0.804
				c0.19,1.99-0.519,4.873,0.674,5.875c0.543,0.2,1.01,0.291,1.41,0.291c2.451,0,2.412-3.406,1.966-5.9
				c-0.185-0.616-1.499-0.117-1.62-0.801c0.041-0.67,1.083-0.933,2.183-0.933c1.117,0,2.294,0.271,2.542,0.664
				c0.158,0.959-1.125,0.49-1.485,0.937c-0.238,1.545,0.35,3.527-0.135,5.207c-0.453,1.572-1.724,2.281-3.131,2.281
				c-2.828,0-6.201-2.867-4.562-7.355c0.005-0.627-1.104-0.151-1.213-0.668C66.842,65.94,67.833,65.66,68.929,65.66 M68.929,64.66
				L68.929,64.66c-1.198,0-2.062,0.276-2.566,0.825c-0.333,0.358-0.494,0.832-0.453,1.33c0.003,0.043,0.009,0.084,0.018,0.125
				c0.133,0.634,0.591,0.889,0.983,0.996c-0.472,1.91-0.181,3.729,0.849,5.201c1.113,1.592,3.045,2.619,4.922,2.619
				c1.99,0,3.559-1.15,4.092-3.006c0.324-1.124,0.243-2.314,0.172-3.368c-0.033-0.485-0.065-0.956-0.056-1.38
				c0.391-0.053,0.918-0.156,1.274-0.634c0.17-0.228,0.352-0.619,0.256-1.2c-0.022-0.132-0.07-0.258-0.141-0.371
				c-0.68-1.074-2.941-1.13-3.388-1.13c-1.482,0-2.279,0.375-2.706,0.812C71.207,64.67,69.03,64.66,68.929,64.66L68.929,64.66
				L68.929,64.66z M71.313,67.949c0.274-0.054,0.58-0.154,0.837-0.38c0.41,0.365,0.988,0.426,1.267,0.455
				c0.282,1.879,0.155,3.387-0.349,3.988c-0.12,0.144-0.298,0.289-0.706,0.289c-0.243,0-0.531-0.053-0.856-0.156
				c-0.333-0.485-0.274-1.85-0.23-2.863C71.294,68.84,71.314,68.39,71.313,67.949L71.313,67.949z"/>
		</g>
		<g>
			<path fill="#0A9995" d="M82.441,75.097c-1.164,0-2.269-0.185-3.286-0.548c-0.155-0.056-0.273-0.185-0.315-0.344
				c-0.104-0.396-0.073-0.729,0.094-0.985c0.254-0.393,0.702-0.467,1.061-0.525c0.055-0.01,0.118-0.021,0.179-0.03v-5.13
				c-0.068-0.016-0.163-0.024-0.232-0.033c-0.341-0.039-1.05-0.12-1.116-0.854c-0.07-0.309,0.057-0.539,0.125-0.662
				c0.017-0.066,0.069-0.168,0.111-0.223c0.171-0.223,0.404-0.339,0.609-0.424c0.058-0.023,0.121-0.037,0.184-0.038l0.13-0.002
				c0.61-0.009,1.208-0.018,1.788-0.018c2.814,0,5.683,0.161,7.129,2.087c1.396,1.859,1.121,3.383,0.645,4.334
				C88.548,73.701,85.626,75.097,82.441,75.097L82.441,75.097z M83.54,72.776c1.472-0.154,2.735-1.866,2.735-3.229
				c0-0.591-0.221-1.065-0.657-1.418c-0.464-0.372-1.177-0.596-2.078-0.653V72.776z"/>
			<path fill="#FFFFFF" d="M81.773,65.781c2.986,0,5.489,0.233,6.731,1.888c2.887,3.848-1.479,6.928-6.062,6.928
				c-1.056,0-2.124-0.162-3.117-0.519c-0.283-1.078,0.868-0.742,1.351-1.068c0-1.868,0-3.737,0-5.608
				c-0.062-0.648-1.292-0.146-1.351-0.799c-0.061-0.278,0.089-0.354,0.134-0.535c0.096-0.123,0.246-0.199,0.404-0.267
				C80.516,65.791,81.154,65.781,81.773,65.781 M83.326,73.288c3.216,0,5.928-6.329-0.286-6.329v6.312
				C83.136,73.283,83.23,73.288,83.326,73.288 M81.773,64.781c-0.582,0-1.182,0.009-1.794,0.018l-0.131,0.002
				c-0.126,0.002-0.251,0.027-0.368,0.076c-0.25,0.104-0.569,0.263-0.813,0.579c-0.068,0.089-0.121,0.188-0.157,0.293
				c-0.097,0.178-0.263,0.513-0.175,1.003c0.083,0.663,0.533,1.07,1.34,1.214v4.277c-0.375,0.076-0.855,0.234-1.159,0.704
				c-0.247,0.381-0.3,0.847-0.159,1.385c0.084,0.319,0.32,0.576,0.63,0.688c1.071,0.383,2.233,0.576,3.454,0.576
				c3.366,0,6.473-1.51,7.553-3.672c0.762-1.521,0.518-3.248-0.689-4.855C87.718,64.958,84.714,64.781,81.773,64.781L81.773,64.781z
				 M84.04,72.13v-4.098c0.542,0.087,0.972,0.252,1.265,0.486c0.317,0.256,0.471,0.592,0.471,1.027
				C85.775,70.515,85.002,71.705,84.04,72.13L84.04,72.13z"/>
		</g>
		<g>
			<path fill="#0A9995" d="M93.969,74.878c-0.979,0-1.895-0.062-2.58-0.174c-0.203-0.033-0.365-0.189-0.408-0.393
				c-0.104-0.514-0.037-0.926,0.207-1.224c0.236-0.292,0.608-0.442,1.136-0.463v-5.093c-0.071-0.001-0.185-0.012-0.261-0.018
				c-0.295-0.021-0.629-0.05-0.894-0.248c-0.101-0.076-0.167-0.185-0.19-0.307c-0.067-0.361,0.021-0.705,0.26-0.993
				c0.664-0.805,2.242-0.868,2.712-0.868c0.476,0,2.077,0.063,2.752,0.879c0.235,0.287,0.323,0.627,0.257,0.982
				c-0.018,0.085-0.057,0.165-0.109,0.23c-0.267,0.312-0.688,0.312-0.894,0.312c0,0-0.375-0.005-0.396-0.004
				c-0.131,0.897-0.104,1.99-0.08,3.05c0.017,0.684,0.031,1.389,0.006,2.055c0.076,0.028,0.248,0.064,0.357,0.088
				c0.338,0.07,0.803,0.168,1.047,0.576c0.17,0.285,0.188,0.642,0.055,1.084c-0.055,0.185-0.209,0.319-0.396,0.352
				C95.861,74.815,94.945,74.878,93.969,74.878z"/>
			<path fill="#FFFFFF" d="M93.948,65.603c1.336,0.002,2.679,0.429,2.518,1.27c-0.1,0.115-0.296,0.136-0.512,0.136
				c-0.108,0-0.222-0.005-0.33-0.005c-0.216,0-0.412,0.021-0.511,0.137c-0.307,1.606-0.047,3.777-0.133,5.607
				c0.242,0.736,1.898,0.077,1.483,1.466c-0.681,0.111-1.589,0.167-2.497,0.167c-0.906,0-1.816-0.056-2.499-0.167
				c-0.177-0.854,0.28-1.086,0.97-1.086c0.121,0,0.25,0.008,0.383,0.021c0-1.955,0-3.916,0-5.873c-0.215-0.365-1.02-0.149-1.353-0.4
				C91.309,66.021,92.624,65.603,93.948,65.603 M93.948,64.603v1V64.603c-0.671,0-2.313,0.104-3.097,1.049
				c-0.332,0.401-0.461,0.901-0.365,1.406c0.048,0.244,0.184,0.463,0.382,0.611c0.308,0.23,0.657,0.299,0.952,0.33v4.186
				c-0.434,0.092-0.776,0.289-1.021,0.59c-0.343,0.42-0.445,0.974-0.309,1.641c0.084,0.404,0.408,0.718,0.818,0.785
				c0.711,0.113,1.653,0.18,2.658,0.18c1.006,0,1.948-0.062,2.658-0.18c0.378-0.062,0.688-0.334,0.797-0.701
				c0.174-0.577,0.139-1.076-0.104-1.48c-0.34-0.572-0.938-0.721-1.321-0.802c0.008-0.554-0.005-1.12-0.019-1.675
				c-0.021-0.87-0.041-1.766,0.025-2.534c0.266-0.002,0.833-0.03,1.223-0.485c0.11-0.133,0.188-0.291,0.222-0.461
				c0.096-0.5-0.033-0.996-0.363-1.396C96.295,64.706,94.629,64.603,93.948,64.603L93.948,64.603z"/>
		</g>
	</g>
	<g>
		<path fill="#0A9995" d="M108.161,62.987c-2.167,0-4.351-0.01-6.53-0.021c-2.176-0.011-4.354-0.021-6.521-0.021
			c-1.682,0-3.18,0.007-4.58,0.02c-0.336,0-0.615-0.258-0.643-0.587c-0.255-2.967-3.566-4.317-6.539-4.317
			c-3.002,0-6.357,1.354-6.629,4.323c-0.036,0.335-0.309,0.581-0.636,0.581H47.198c-0.355,0-0.644-0.283-0.644-0.636
			c0-0.349,0.271-0.628,0.617-0.644c4.98-0.103,13.292-2.797,14.588-6.312c0.465-1.263-0.081-2.58-1.621-3.917
			c-0.123-0.104-0.203-0.256-0.218-0.426c-0.015-0.172,0.038-0.338,0.15-0.471c0.107-0.136,0.293-0.226,0.487-0.226
			c0.118,0,0.32,0.073,0.411,0.149c0.842,0.662,1.674,0.988,2.531,0.988c1.553,0,3.067-1.062,4.671-2.188
			c1.259-0.88,2.545-1.778,3.972-2.271c0.22-1.593-0.313-2.894-0.83-4.153c-0.275-0.664-0.538-1.32-0.71-2.01
			c-0.085-0.308,0.083-0.637,0.395-0.753c0.056-0.021,0.167-0.041,0.227-0.041c0.238,0,0.455,0.131,0.567,0.342
			c0.713,1.371,2.163,3.949,3.246,5.819c2.24-0.63,4.734-0.946,6.952-1.167c0.234-2.078,0.316-4.501,0.389-6.653
			c0.072-2.147,0.146-4.367,0.357-6.187c0.04-0.324,0.314-0.565,0.637-0.565c0.369,0.016,0.638,0.294,0.638,0.635
			c0.151,4.938,0.315,8.983,0.514,12.675c0.629,0.099,1.271,0.188,1.898,0.276l0.191,0.024c1.646,0.229,3.345,0.463,4.896,0.854
			c0.839-1.06,1.486-2.377,2.114-3.653l0.104-0.209c0.312-0.625,0.625-1.261,0.965-1.866c0.129-0.209,0.338-0.328,0.56-0.328
			c0.039,0,0.117,0.01,0.153,0.021c0.337,0.109,0.517,0.386,0.484,0.687c-0.092,0.832-0.4,1.617-0.699,2.379
			c-0.42,1.064-0.854,2.161-0.816,3.547c1.312,0.328,2.76,1.547,4.163,2.729c1.304,1.1,2.75,2.312,3.657,2.395l0.103,0.004
			c0.591,0,1.22-0.431,1.886-0.887c0.654-0.445,1.326-0.904,2.123-1.104c0.038-0.012,0.109-0.021,0.15-0.021
			c0.25,0,0.475,0.141,0.58,0.364c0.135,0.282,0.041,0.626-0.219,0.801c-1.732,1.226-2.42,2.503-2.026,3.79
			c1.039,3.411,8.997,6.59,14.78,6.797c0.168,0.004,0.326,0.074,0.443,0.197c0.092,0.098,0.176,0.318,0.174,0.451
			c0,0.335-0.272,0.615-0.623,0.624C116.312,62.938,112.796,62.987,108.161,62.987z M94.184,60.155
			c0.993,0.061,2.121,0.088,3.545,0.088c0.653,0,1.312-0.008,1.972-0.014l0.663-0.006c0.885-0.013,1.771-0.021,2.645-0.021
			c0.372,0,0.723,0.002,1.055,0.006c-0.485-2.234-1.444-4.016-2.855-5.305c-0.887,0.754-1.917,1.338-2.918,1.904
			C96.607,57.752,95.043,58.632,94.184,60.155z M72.425,60.222c-0.871-1.584-2.724-2.635-4.521-3.654
			c-0.859-0.483-1.81-1.021-2.641-1.623c-1.113,1.428-2.281,3.049-2.735,5.277H72.425z M92.723,49.378
			c-0.25,0.729-0.652,1.505-1.074,2.319c-1.336,2.571-2.104,4.36-0.645,5.499c1.448-0.635,2.85-1.338,4.204-2.02
			c1.218-0.611,2.696-1.354,4.22-2.023C97.796,51.526,95.592,50.287,92.723,49.378z M67.178,53.166
			c1.079,0.49,2.13,1.01,3.152,1.517c1.696,0.84,3.545,1.758,5.466,2.5c1.319-1.447,0.419-3.455-0.986-6.094
			c-0.305-0.572-0.617-1.16-0.858-1.713C70.917,50.428,68.737,51.646,67.178,53.166z M83.331,54.845
			c-0.246,0.581-0.272,0.788-0.11,0.975c0.25-0.01,0.358-0.079,0.411-0.157C83.529,55.392,83.43,55.117,83.331,54.845z
			 M84.717,47.744c0.018,0.448,0.021,0.905,0.029,1.353c0.048,3.299,0.207,5.399,1.881,5.947c0.55-1.286,1.246-2.436,1.868-3.46
			c0.594-0.987,1.188-1.979,1.672-3.05c-0.272-0.053-1.058-0.208-1.058-0.208C87.754,48.053,86.355,47.771,84.717,47.744z
			 M76.486,48.603c1.071,2.054,2.299,4.336,3.653,6.438c1.412-0.578,1.602-2.43,1.73-5.305l0.007-0.143
			c0.027-0.585,0.056-1.185,0.11-1.766c-0.15-0.006-0.302-0.01-0.456-0.01C79.813,47.817,78.064,48.215,76.486,48.603z"/>
		<path fill="#FFFFFF" d="M83.375,32.147c0.077,0.003,0.134,0.062,0.134,0.135c0.155,5.065,0.324,9.234,0.536,13.104
			c0.821,0.137,1.674,0.254,2.498,0.369c1.75,0.242,3.555,0.493,5.146,0.928c0.979-1.146,1.691-2.603,2.384-4.007
			c0.338-0.681,0.681-1.382,1.053-2.045c0.026-0.044,0.074-0.073,0.122-0.073c0.018,0,0.029,0.003,0.044,0.007
			c0.063,0.021,0.104,0.082,0.099,0.148c-0.084,0.759-0.367,1.481-0.668,2.246c-0.457,1.159-0.974,2.469-0.828,4.151
			c1.271,0.119,2.82,1.43,4.324,2.697c1.407,1.185,2.858,2.408,3.93,2.502c0.047,0.004,0.098,0.006,0.146,0.006
			c0.746,0,1.438-0.476,2.173-0.978c0.614-0.42,1.248-0.854,1.955-1.026c0.013-0.002,0.021-0.006,0.031-0.006
			c0.058,0,0.104,0.029,0.13,0.08c0.027,0.062,0.007,0.135-0.048,0.172c-1.938,1.368-2.688,2.832-2.228,4.35
			c1.127,3.697,9.26,6.936,15.244,7.15c0.076,0.002,0.135,0.062,0.133,0.135c0,0.074-0.059,0.137-0.136,0.139
			c-3.258,0.107-6.771,0.156-11.389,0.156c-2.166,0-4.349-0.01-6.527-0.021c-2.177-0.011-4.356-0.021-6.522-0.021
			c-1.684,0-3.184,0.007-4.586,0.02c-0.071,0-0.135-0.055-0.141-0.127c-0.279-3.284-3.844-4.777-7.036-4.777
			c-3.221,0-6.826,1.493-7.127,4.777c-0.008,0.072-0.066,0.127-0.138,0.127H47.198c-0.08,0-0.144-0.062-0.144-0.136
			c0-0.077,0.063-0.142,0.137-0.144c5.052-0.104,13.623-2.805,15.037-6.64c0.544-1.478-0.05-2.979-1.763-4.468
			c-0.058-0.049-0.064-0.135-0.015-0.192c0.025-0.032,0.066-0.05,0.106-0.05c0.033,0,0.064,0.012,0.089,0.032
			c0.946,0.743,1.883,1.104,2.853,1.104c1.704,0,3.285-1.104,4.958-2.277c1.306-0.912,2.653-1.855,4.128-2.299
			c0.357-1.862-0.234-3.318-0.811-4.727c-0.26-0.627-0.521-1.275-0.688-1.943c-0.019-0.067,0.02-0.139,0.086-0.164
			c0.018-0.005,0.033-0.009,0.051-0.009c0.054,0,0.1,0.028,0.125,0.076c0.766,1.472,2.371,4.318,3.452,6.174
			c2.413-0.729,5.203-1.063,7.637-1.298c0.269-2.141,0.357-4.66,0.439-7.096c0.075-2.249,0.148-4.373,0.354-6.146
			c0.009-0.071,0.071-0.123,0.141-0.123h0.005 M86.927,55.631c0.544-1.385,1.28-2.606,1.996-3.787
			c0.694-1.155,1.413-2.349,1.95-3.69c-0.566-0.096-1.124-0.209-1.666-0.315c-1.455-0.294-2.958-0.594-4.732-0.594
			c-0.092,0-0.187,0-0.279,0.002c0.033,0.612,0.043,1.257,0.053,1.88C84.292,52.242,84.337,55.188,86.927,55.631 M79.928,55.63
			c2.2-0.538,2.318-3.13,2.441-5.872c0.038-0.803,0.073-1.63,0.171-2.394c-0.324-0.03-0.663-0.047-1.01-0.047
			c-1.928,0-3.866,0.479-5.574,0.897l-0.207,0.052C77.015,50.706,78.38,53.272,79.928,55.63 M75.919,57.765
			c2.032-1.834,0.6-4.531-0.667-6.91c-0.402-0.756-0.782-1.476-1.013-2.104c-3.681,1.223-6.204,2.682-7.914,4.582
			c1.318,0.577,2.603,1.213,3.844,1.826C72,56.067,73.895,57.004,75.919,57.765 M90.945,57.767c1.545-0.664,3.043-1.416,4.486-2.141
			c1.559-0.784,3.168-1.59,4.851-2.296c-1.817-2.044-4.403-3.542-7.896-4.578c-0.199,0.819-0.687,1.754-1.195,2.739
			C89.962,53.86,88.695,56.31,90.945,57.767 M83.137,56.319c0.568,0,0.908-0.215,1.03-0.657c-0.126-0.33-0.25-0.667-0.372-1.004
			c-0.15-0.409-0.305-0.829-0.466-1.235c-0.08,0.366-0.236,0.715-0.375,1.033c-0.327,0.738-0.587,1.325,0.067,1.861
			C83.062,56.317,83.098,56.317,83.137,56.319 M97.729,60.743c0.875,0,1.758-0.012,2.641-0.02c0.883-0.013,1.768-0.021,2.639-0.021
			c0.605,0,1.153,0.006,1.662,0.015c-0.488-2.812-1.658-4.989-3.471-6.479c-0.922,0.873-2.077,1.523-3.196,2.158
			c-1.938,1.09-3.767,2.121-4.581,4.207C94.621,60.701,95.96,60.743,97.729,60.743 M61.935,60.722h11.257
			c-0.733-2.146-2.928-3.391-5.052-4.596c-1.028-0.58-2.09-1.182-2.967-1.877C63.767,56.035,62.333,57.897,61.935,60.722
			 M79.041,57.082c0.014,0,0.026,0,0.041,0c0.139-0.203,0.159-0.479,0.052-0.706c-0.057-0.123-0.204-0.329-0.523-0.329
			c-0.038,0-0.084,0.005-0.127,0.013c-0.19,0.213-0.259,0.469-0.171,0.67C78.409,56.953,78.677,57.082,79.041,57.082 M87.857,57.296
			h0.666c0.082-0.107,0.131-0.318,0.133-0.544c0-0.228-0.051-0.435-0.131-0.545h-0.613c-0.018,0.063-0.037,0.128-0.057,0.192
			C87.736,56.8,87.674,57.083,87.857,57.296 M91.343,59.871c0.207,0,0.394-0.049,0.488-0.121c0.019-0.067,0.028-0.123,0.042-0.168
			c0.049-0.194,0.049-0.194,0-0.385c-0.014-0.044-0.023-0.097-0.04-0.161c-0.118-0.077-0.251-0.119-0.388-0.119
			c-0.193,0-0.372,0.082-0.485,0.227c-0.123,0.155-0.158,0.365-0.106,0.606C90.947,59.822,91.137,59.871,91.343,59.871
			 M75.275,60.072c0.082,0,0.176-0.011,0.274-0.033h-0.002v-0.827c-0.096-0.006-0.194-0.009-0.288-0.009
			c-0.57,0-0.736,0.142-0.773,0.358c0.046,0.047,0.085,0.096,0.129,0.144C74.793,59.901,74.943,60.072,75.275,60.072 M83.375,31.147
			h-0.004c-0.575,0-1.062,0.43-1.133,1c-0.215,1.848-0.29,4.078-0.362,6.235c-0.067,2.005-0.143,4.247-0.343,6.215
			c-2.011,0.206-4.22,0.502-6.258,1.039c-1.054-1.828-2.375-4.183-3.042-5.463c-0.202-0.381-0.588-0.614-1.012-0.614
			c-0.115,0-0.227,0.017-0.343,0.052c-0.02,0.006-0.04,0.013-0.059,0.02c-0.556,0.208-0.856,0.795-0.699,1.366
			c0.175,0.701,0.445,1.376,0.729,2.061c0.477,1.164,0.931,2.272,0.828,3.599c-1.369,0.528-2.592,1.385-3.781,2.216
			c-1.551,1.088-3.002,2.105-4.398,2.105c-0.741,0-1.472-0.293-2.234-0.893c-0.18-0.15-0.439-0.246-0.707-0.246
			c-0.346,0-0.679,0.161-0.892,0.432c-0.172,0.201-0.27,0.506-0.244,0.808c0.026,0.305,0.17,0.579,0.405,0.772
			c2.044,1.775,1.607,2.963,1.463,3.354c-1.12,3.036-8.828,5.876-14.119,5.983c-0.634,0.024-1.116,0.526-1.116,1.144
			c0,0.626,0.513,1.136,1.144,1.136h28.886c0.583,0,1.069-0.438,1.132-1.02c0.245-2.678,3.351-3.889,6.133-3.889
			c2.75,0,5.813,1.209,6.04,3.864c0.047,0.582,0.547,1.042,1.137,1.042c1.408-0.013,2.904-0.019,4.586-0.019
			c2.164,0,4.345,0.011,6.52,0.021c2.184,0.012,4.364,0.02,6.532,0.02c4.642,0,8.163-0.049,11.422-0.155
			c0.615-0.017,1.104-0.517,1.104-1.138c0.008-0.274-0.104-0.562-0.312-0.78c-0.209-0.222-0.492-0.349-0.798-0.354
			c-6.062-0.219-13.427-3.528-14.312-6.44c-0.119-0.396-0.484-1.597,1.846-3.242c0.445-0.301,0.613-0.915,0.375-1.416
			c-0.194-0.401-0.59-0.649-1.033-0.649c-0.066,0-0.154,0.01-0.221,0.021c-0.016,0.002-0.039,0.008-0.053,0.011
			c-0.884,0.222-1.623,0.728-2.277,1.175c-0.606,0.414-1.174,0.803-1.608,0.803c-0.021,0-0.041-0.002-0.06-0.004
			c-0.75-0.063-2.191-1.277-3.352-2.252c-1.341-1.131-2.697-2.275-4.011-2.741c0.044-1.126,0.417-2.072,0.778-2.992
			c0.312-0.793,0.635-1.61,0.73-2.505c0.057-0.542-0.263-1.035-0.775-1.206c-0.027-0.01-0.06-0.018-0.09-0.025
			c-0.074-0.017-0.192-0.033-0.271-0.033c-0.394,0-0.767,0.21-0.974,0.549c-0.369,0.655-0.688,1.299-0.998,1.923l-0.101,0.2
			c-0.569,1.16-1.151,2.347-1.868,3.322c-1.486-0.354-3.08-0.574-4.63-0.789l-0.188-0.026c-0.492-0.068-0.993-0.14-1.489-0.214
			c-0.188-3.578-0.347-7.505-0.491-12.272c0-0.578-0.479-1.077-1.09-1.104C83.404,31.147,83.39,31.147,83.375,31.147L83.375,31.147z
			 M86.381,54.37c-0.947-0.648-1.092-2.323-1.135-5.262c-0.004-0.282-0.008-0.565-0.016-0.849c1.377,0.069,2.595,0.315,3.776,0.556
			l0.255,0.051c0.059,0.012,0.116,0.023,0.176,0.035c-0.414,0.832-0.89,1.621-1.354,2.394C87.52,52.231,86.902,53.245,86.381,54.37
			L86.381,54.37z M77.227,48.938c1.356-0.32,2.807-0.608,4.219-0.621c-0.029,0.418-0.049,0.84-0.068,1.252L81.37,49.71
			c-0.106,2.364-0.246,3.975-1.07,4.65C79.181,52.584,78.149,50.692,77.227,48.938L77.227,48.938z M68.072,53.028
			c1.379-1.174,3.207-2.157,5.616-3.028c0.209,0.438,0.447,0.885,0.681,1.323c1.25,2.347,2.038,4.049,1.261,5.256
			c-1.775-0.708-3.487-1.559-5.017-2.314l-0.062-0.031C69.743,53.833,68.917,53.425,68.072,53.028L68.072,53.028z M91.1,56.606
			c-0.822-0.885-0.271-2.241,0.979-4.654c0.353-0.682,0.688-1.328,0.942-1.95c2.271,0.769,4.095,1.759,5.515,3.003
			c-1.287,0.587-2.515,1.205-3.554,1.729C93.727,55.362,92.432,56.013,91.1,56.606L91.1,56.606z M95.104,59.7
			c0.826-0.993,2.041-1.676,3.39-2.434c0.925-0.524,1.85-1.05,2.684-1.695c1.042,1.062,1.796,2.447,2.247,4.132
			c-0.136-0.001-0.273-0.001-0.416-0.001c-0.876,0-1.764,0.011-2.648,0.021l-0.662,0.006c-0.657,0.006-1.313,0.014-1.965,0.014
			C96.723,59.743,95.867,59.729,95.104,59.7L95.104,59.7z M63.16,59.722c0.45-1.64,1.302-2.91,2.207-4.095
			c0.747,0.504,1.55,0.957,2.282,1.37c1.494,0.848,2.923,1.658,3.827,2.725H63.16L63.16,59.722z"/>
	</g>
	<g>
		<g>
			<path fill="#0A9995" d="M52.198,59.447c-2.941,0-6.38-0.837-8.364-2.033c-10.602-6.392-15.09-20.41-17.788-32.088
				c-1.73,0.561-3.642,0.948-5.496,1.325c-2.904,0.589-5.906,1.198-8.061,2.461c-1.458,0.856-3.226,2.256-3.405,3.386
				c-0.126,0.805,0.039,1.482,0.492,2.012c0.542,0.633,1.503,1.027,2.508,1.027c0.736,0,1.392-0.217,1.754-0.581
				c0.22-0.221,0.327-0.482,0.326-0.799c-0.001-0.556-0.63-0.899-1.212-0.899c-0.248,0-0.61,0.059-0.927,0.337
				c-0.093,0.083-0.211,0.125-0.331,0.125c-0.086,0-0.173-0.021-0.251-0.068c-0.186-0.108-0.282-0.323-0.238-0.534
				c0.245-1.179,1.371-1.971,2.801-1.971c0.99,0,1.885,0.388,2.455,1.063c0.39,0.462,0.808,1.283,0.587,2.564
				c-0.338,1.97-2.258,3.194-5.011,3.194c-2.055,0-4.697-0.784-5.64-2.506c-0.869-1.586-0.964-3.157-0.281-4.667
				c1.623-3.59,7.087-5.675,10.061-6.342c7.602-1.706,16.653-5.384,24.831-10.093c0.295-0.17,0.642-0.354,1.015-0.552
				c2.045-1.084,4.846-2.568,4.417-4.516c-0.169-0.766-0.859-1.108-1.468-1.108c-0.56,0-1.203,0.284-1.33,1.08
				c-0.039,0.244-0.25,0.421-0.493,0.421c-0.013,0-0.026,0-0.04-0.001c-0.26-0.021-0.461-0.237-0.461-0.498
				c0-1.045,0.235-1.865,0.701-2.436c0.441-0.541,1.062-0.827,1.796-0.827c1.325,0,2.812,0.973,3.616,2.366
				c0.868,1.502,0.85,3.19-0.051,4.751c-1.324,2.297-4.369,3.804-7.313,5.26c-0.928,0.459-1.804,0.892-2.592,1.336
				c-0.604,0.339-1.491,0.695-2.43,1.073c-1.858,0.747-4.403,1.77-4.77,2.798c-0.986,2.763,0.835,8.16,1.924,11.384l0.238,0.708
				c1.69,5.048,6.543,17.14,15.093,20.386c0.825,0.312,1.764,0.479,2.716,0.479c1.861,0,3.572-0.613,4.499-1.607
				c0.546-1.637-0.544-2.715-1.423-3.582c-0.335-0.332-0.601-0.594-0.742-0.866c-0.092-0.181-0.068-0.396,0.06-0.552
				c0.097-0.113,0.238-0.18,0.384-0.18c0.048,0,0.098,0.008,0.146,0.021c1.535,0.467,3.467,1.57,4.287,3.267
				c0.5,1.034,0.528,2.136,0.082,3.271C58.049,58.308,55.681,59.447,52.198,59.447z"/>
			<path fill="#FFFFFF" d="M45.143,6.424c2.151,0,5.027,3.083,3.132,6.367c-1.657,2.875-6.471,4.584-9.718,6.41
				c-1.878,1.054-6.788,2.35-7.426,4.139c-1.124,3.15,1.122,9.308,2.159,12.418c2.703,8.076,7.771,17.804,15.39,20.696
				c0.915,0.348,1.912,0.512,2.893,0.512c1.985,0,3.902-0.671,4.937-1.847c0.969-2.649-1.739-4.127-2.159-4.94
				c2.36,0.719,5.242,2.84,4.049,5.875c-0.837,2.122-3.395,2.896-6.203,2.896c-3.024,0-6.34-0.896-8.106-1.962
				c-10.153-6.119-14.798-19.648-17.683-32.312c-4.498,1.592-10.417,1.803-14.174,4.005c-1.403,0.823-3.422,2.329-3.646,3.739
				c-0.386,2.453,1.671,3.617,3.494,3.617c1.356,0,2.584-0.644,2.58-1.881c-0.002-0.836-0.835-1.397-1.712-1.397
				c-0.441,0-0.894,0.142-1.257,0.462c0.214-1.031,1.247-1.572,2.311-1.572c1.425,0,2.905,0.972,2.549,3.042
				c-0.333,1.945-2.37,2.779-4.518,2.779c-2.16,0-4.433-0.843-5.202-2.246c-2.97-5.421,4.656-9.206,9.45-10.28
				c8.175-1.834,17.422-5.801,24.971-10.148c1.98-1.14,6.27-2.89,5.671-5.608c-0.219-0.99-1.098-1.501-1.957-1.501
				c-0.841,0-1.663,0.49-1.824,1.501C43.145,7.219,44.051,6.424,45.143,6.424 M45.143,5.424c-0.876,0-1.651,0.359-2.183,1.011
				c-0.541,0.663-0.814,1.588-0.813,2.752c0,0.522,0.401,0.956,0.921,0.997c0.027,0.002,0.053,0.003,0.08,0.003
				c0.487,0,0.909-0.354,0.986-0.843c0.095-0.594,0.617-0.658,0.836-0.658c0.379,0,0.863,0.188,0.98,0.716
				c0.347,1.576-2.367,3.014-4.163,3.966c-0.379,0.201-0.73,0.388-1.03,0.56c-8.137,4.685-17.136,8.344-24.691,10.039
				c-3.063,0.687-8.703,2.854-10.407,6.624c-0.74,1.637-0.637,3.405,0.298,5.113c1.046,1.91,3.807,2.766,6.079,2.766
				c3.013,0,5.122-1.383,5.504-3.61c0.252-1.47-0.24-2.426-0.698-2.97c-0.665-0.789-1.699-1.242-2.837-1.242
				c-1.673,0-2.996,0.952-3.29,2.369c-0.087,0.422,0.104,0.852,0.477,1.068c0.156,0.091,0.33,0.135,0.502,0.135
				c0.238,0,0.474-0.085,0.661-0.25c0.2-0.176,0.435-0.212,0.596-0.212c0.366,0,0.712,0.194,0.712,0.4
				c0,0.183-0.055,0.32-0.18,0.445c-0.267,0.268-0.803,0.434-1.4,0.434c-0.863,0-1.679-0.327-2.128-0.852
				c-0.354-0.414-0.481-0.955-0.378-1.61c0.121-0.763,1.422-2.01,3.164-3.031c2.083-1.221,5.044-1.822,7.907-2.403
				c1.686-0.342,3.419-0.693,5.032-1.177c2.733,11.667,7.292,25.489,17.895,31.879c2.054,1.239,5.6,2.104,8.622,2.104
				c3.703,0,6.236-1.253,7.133-3.526c0.493-1.254,0.459-2.523-0.096-3.672c-0.891-1.842-2.956-3.029-4.592-3.527
				c-0.096-0.029-0.194-0.043-0.291-0.043c-0.292,0-0.575,0.129-0.768,0.359c-0.257,0.311-0.305,0.742-0.121,1.1
				c0.178,0.344,0.482,0.646,0.834,0.993c0.961,0.949,1.673,1.779,1.333,2.966c-0.844,0.836-2.408,1.369-4.057,1.369
				c-0.892,0-1.77-0.154-2.538-0.445c-8.35-3.172-13.129-15.099-14.796-20.08L34,34.732c-0.998-2.955-2.855-8.456-1.927-11.056
				c0.291-0.816,2.917-1.872,4.485-2.502c0.954-0.383,1.856-0.746,2.488-1.101c0.778-0.438,1.648-0.868,2.57-1.324
				c3.011-1.49,6.125-3.03,7.525-5.459c0.979-1.697,0.998-3.61,0.051-5.25C48.289,6.476,46.662,5.425,45.143,5.424L45.143,5.424
				L45.143,5.424L45.143,5.424z"/>
		</g>
	</g>
	<g>
		<path fill="#0A9995" d="M115.09,59.285c-1.958,0-4.64-0.357-6.287-2.062c-0.957-0.99-1.416-2.287-1.363-3.857
			c0.004-0.082,0.025-0.161,0.066-0.231c0.948-1.655,2.021-3.532,4.877-3.59c0.004,0,0.008,0,0.01,0
			c0.221,0,0.416,0.146,0.479,0.356c0.063,0.217-0.024,0.449-0.215,0.565c-1.604,1-2.431,2.552-2.058,3.854
			c0.354,1.238,1.726,1.947,3.76,1.947c0.302,0,0.619-0.016,0.955-0.047c5.565-0.537,10.925-7.41,12.979-10.971
			c1.238-2.148,4.143-7.185,3.85-11.197c-0.554-7.62-4.738-11.432-9.584-15.847c-0.615-0.562-1.24-1.131-1.867-1.716
			c-0.295-0.275-0.604-0.539-0.908-0.803c-1.532-1.318-3.117-2.681-3.165-5.294c-0.021-1.113,0.418-2.185,1.235-3.017
			c0.81-0.825,1.899-1.317,2.92-1.317c1.304,0,2.719,0.852,2.781,3.244c0.008,0.269-0.199,0.495-0.469,0.512
			c-0.011,0-0.021,0.001-0.031,0.001c-0.256,0-0.473-0.193-0.496-0.45c-0.084-0.824-0.627-0.997-1.066-0.997
			c-0.84,0-1.807,0.673-1.852,1.638c-0.08,1.781,2.856,3.527,5.449,5.068c1.424,0.845,2.768,1.644,3.577,2.427
			c1.86,1.797,3.062,3.766,4.119,5.502c0.616,1.015,1.21,1.986,1.882,2.848c0.432-2.368,0.169-5.015-1.396-6.265
			c-0.207-0.166-0.248-0.464-0.094-0.68c0.096-0.137,0.25-0.21,0.406-0.21c0.092,0,0.184,0.025,0.266,0.077
			c2.869,1.801,7.025,2.894,11.047,3.95c3.983,1.047,8.104,2.13,11.08,3.922c1.44,0.867,3.709,3.252,4.242,5.837
			c0.285,1.389,0.045,2.632-0.72,3.696c-0.841,1.176-2.601,1.878-4.706,1.878c-2.596,0-5.511-1.122-5.779-3.584
			c-0.121-1.103,0.258-1.785,0.596-2.162c0.509-0.565,1.293-0.876,2.216-0.876c1.071,0,2.196,0.426,3.011,1.139
			c0.135,0.118,0.195,0.298,0.16,0.474c-0.035,0.176-0.161,0.319-0.331,0.375c-0.286,0.097-0.608,0.147-0.952,0.201
			c-0.876,0.137-1.49,0.271-1.759,0.768c0.601,1.046,1.455,1.273,2.084,1.273c0.955,0,1.94-0.526,2.515-1.34
			c0.484-0.691,0.6-1.499,0.318-2.275c-1.213-3.37-6.129-4.285-10.885-5.169c-2.045-0.38-3.986-0.742-5.602-1.293
			c-0.271,0.889-0.539,1.794-0.812,2.709c-3.4,11.396-7.255,24.314-17.236,29.401C120.451,58.664,117.605,59.285,115.09,59.285z"/>
		<path fill="#FFFFFF" d="M120.773,6.563c1.191,0,2.229,0.802,2.281,2.757c-0.104-1.012-0.791-1.447-1.562-1.447
			c-1.066,0-2.291,0.83-2.35,2.116c-0.146,3.144,6.906,5.682,9.178,7.877c3.207,3.094,4.345,6.621,6.615,9.08
			c0.781-2.894,0.562-6.215-1.35-7.745c5.789,3.635,16.229,4.32,22.137,7.877c2.096,1.263,5.664,5.62,3.373,8.813
			c-0.806,1.124-2.529,1.669-4.301,1.669c-2.484,0-5.059-1.076-5.281-3.138c-0.188-1.714,0.961-2.484,2.312-2.484
			c0.919,0,1.932,0.356,2.681,1.015c-0.927,0.312-2.671,0.123-3.104,1.47c0.613,1.238,1.617,1.746,2.637,1.746
			c2.029,0,4.12-2.015,3.304-4.284c-1.913-5.316-12.012-4.91-17.28-6.943c-3.643,11.923-7.213,26.842-17.951,32.315
			c-1.729,0.881-4.437,1.527-7.021,1.527c-3.771,0-7.284-1.375-7.149-5.402c0.942-1.646,1.896-3.287,4.453-3.338
			c-3.543,2.209-3.316,6.729,1.967,6.729c0.316,0,0.65-0.017,1.004-0.051c5.547-0.533,10.936-7.009,13.365-11.218
			c1.562-2.713,4.203-7.502,3.914-11.483c-0.641-8.81-6.056-12.7-11.608-17.892c-1.728-1.611-3.862-2.849-3.915-5.741
			C117.077,8.174,119.083,6.563,120.773,6.563 M120.773,5.563c-1.149,0-2.375,0.549-3.276,1.467
			c-0.912,0.929-1.401,2.127-1.379,3.376c0.052,2.837,1.798,4.339,3.339,5.664c0.302,0.259,0.604,0.519,0.895,0.79
			c0.627,0.586,1.254,1.157,1.871,1.72c4.769,4.342,8.885,8.093,9.424,15.513c0.279,3.859-2.567,8.801-3.785,10.912
			c-2.01,3.48-7.229,10.205-12.594,10.723c-0.312,0.028-0.619,0.045-0.908,0.045c-1.795,0-2.988-0.578-3.276-1.588
			c-0.308-1.069,0.45-2.425,1.841-3.291c0.383-0.237,0.559-0.703,0.432-1.134c-0.127-0.426-0.52-0.716-0.959-0.716
			c-0.008,0-0.015,0-0.021,0c-3.139,0.062-4.338,2.157-5.302,3.841c-0.081,0.142-0.128,0.302-0.132,0.464
			c-0.059,1.711,0.447,3.131,1.502,4.224c1.771,1.829,4.594,2.214,6.646,2.214c2.629,0,5.493-0.627,7.477-1.637
			c10.175-5.187,14.062-18.21,17.488-29.705c0.223-0.748,0.444-1.489,0.664-2.22c1.54,0.475,3.317,0.806,5.18,1.152
			c4.615,0.859,9.391,1.747,10.506,4.847c0.285,0.792,0.018,1.426-0.26,1.818c-0.475,0.674-1.317,1.127-2.104,1.127
			c-0.586,0-1.081-0.25-1.453-0.729c0.223-0.142,0.604-0.225,1.205-0.319c0.35-0.054,0.708-0.111,1.035-0.221
			c0.339-0.114,0.591-0.4,0.66-0.751c0.07-0.351-0.051-0.712-0.319-0.948c-0.901-0.791-2.149-1.263-3.341-1.263
			c-1.064,0-1.982,0.371-2.586,1.043c-0.407,0.453-0.861,1.264-0.721,2.55c0.302,2.768,3.465,4.029,6.274,4.029
			c2.269,0,4.179-0.78,5.113-2.087c0.835-1.165,1.11-2.578,0.802-4.087c-0.529-2.574-2.699-5.097-4.475-6.165
			c-3.037-1.83-7.192-2.922-11.213-3.978c-3.982-1.047-8.104-2.129-10.904-3.89c-0.165-0.104-0.352-0.153-0.531-0.153
			c-0.312,0-0.622,0.147-0.814,0.421c-0.309,0.432-0.226,1.029,0.188,1.36c1.146,0.917,1.502,2.717,1.373,4.551
			c-0.379-0.567-0.745-1.168-1.121-1.785c-1.071-1.762-2.29-3.759-4.198-5.602c-0.853-0.823-2.221-1.636-3.668-2.497
			c-2.227-1.322-5.272-3.134-5.205-4.615c0.03-0.719,0.809-1.161,1.351-1.161c0.426,0,0.534,0.219,0.567,0.547
			c0.053,0.514,0.484,0.899,0.994,0.899c0.021,0,0.043,0,0.063-0.002c0.536-0.034,0.948-0.487,0.938-1.024
			C123.982,6.541,122.242,5.563,120.773,5.563L120.773,5.563z"/>
	</g>
	<g>
		<path fill="#0A9995" d="M61.715,48.967c-0.764,0-1.563-0.38-2.311-1.098c-1.887-1.81-2.904-5.154-3.889-8.39
			c-0.641-2.107-1.25-4.107-2.043-5.495c-0.349,0.14-0.706,0.265-1.056,0.388c-1.126,0.395-2.194,0.77-2.811,1.525
			c0.035,0.266,0.074,0.547,0.115,0.84c0.43,3.091,1.02,7.325-0.962,9.259c-0.613,0.601-1.446,0.916-2.409,0.916
			c-2.096,0-4.556-1.545-5.16-3.241c-0.08-0.225,0.01-0.474,0.213-0.597c0.08-0.048,0.169-0.071,0.258-0.071
			c0.136,0,0.271,0.057,0.369,0.162c0.619,0.677,1.422,0.818,1.986,0.818c1.373,0,2.804-0.825,3.259-1.879
			c1.058-2.456-0.287-5.062-1.586-7.581c-0.755-1.464-1.469-2.847-1.686-4.16c-0.35-2.111,0.134-4.073,1.363-5.522
			c1.182-1.394,2.917-2.162,4.885-2.162c0.208,0,0.417,0.008,0.631,0.026c0.122,0.01,0.235,0.064,0.32,0.153
			c1.034,1.079,1.621,2.559,2.189,3.991c0.128,0.324,0.259,0.653,0.395,0.978c0.543-3.786-1.655-7.348-4.346-8.431
			c-0.181-0.073-0.303-0.245-0.313-0.44c-0.009-0.195,0.096-0.377,0.269-0.468c0.731-0.38,1.486-0.573,2.243-0.573
			c2.817,0,5.215,2.57,7.534,5.056c1.061,1.137,2.08,2.229,3.075,3.005c-0.171-0.408-0.358-0.834-0.55-1.272
			c-1.749-3.992-4.143-9.459,0.665-11.829c2.046-1.008,4.451-1.542,6.955-1.542c6.445,0,12.345,3.434,13.723,7.987
			c1.403,4.641-0.569,10.11-4.309,11.943c-0.959,0.471-2.095,0.71-3.375,0.71c-0.965,0-2.032-0.136-3.169-0.404
			c-4.346-1.026-7.622-4.911-8.345-9.896c-0.294-2.023,0.167-3.804,1.331-5.15c1.174-1.357,3.023-2.167,4.948-2.167
			c2.757,0,4.917,1.592,5.501,4.056c0.052,0.219-0.048,0.445-0.245,0.554c-0.076,0.042-0.159,0.062-0.241,0.062
			c-0.131,0-0.261-0.052-0.358-0.151c-0.843-0.864-2.18-1.38-3.574-1.38c-1.468,0-2.775,0.562-3.497,1.505
			c-0.684,0.894-0.843,2.116-0.459,3.536c0.721,2.661,3.123,4.449,5.978,4.449c0.132,0,0.265-0.003,0.399-0.011
			c0.827-0.046,1.606-0.406,2.431-0.787l0.223-0.103c1.765-0.808,2.298-2.344,2.435-3.491c0.29-2.434-0.917-5.391-2.808-6.878
			c-1.387-1.091-3.613-1.742-5.956-1.742c-3.75,0-7.536,1.615-7.542,5.224c-0.008,5.512,3.955,10.692,7.282,14.067
			c0.154,0.156,0.188,0.395,0.084,0.587c-0.088,0.165-0.259,0.264-0.44,0.264c-0.032,0-0.064-0.003-0.096-0.009
			c-4.34-0.848-7.064-3.773-9.698-6.602c-0.78-0.837-1.574-1.69-2.41-2.485c1.737,3.526,3.133,7.725,4.493,11.81
			c0.477,1.433,0.949,2.855,1.432,4.232c0.043,0.125,0.037,0.258-0.019,0.375c-0.432,0.931-0.681,1.877-0.762,2.898
			c-0.018,0.229-0.19,0.417-0.417,0.454c-0.027,0.005-0.055,0.007-0.081,0.007c-0.198,0-0.38-0.117-0.459-0.304
			c-0.997-2.33-1.824-4.868-2.623-7.323c-0.808-2.482-1.639-5.033-2.648-7.372c-0.464,4.565,2.071,9.284,4.333,13.497l0.619,1.156
			c0.182,0.342,0.292,0.713,0.399,1.072c0.151,0.51,0.294,0.99,0.587,1.123c0.008,0.002,0.017,0.004,0.024,0.004
			c0.057,0,0.111-0.043,0.179-0.158c0.332-0.561,0.421-1.793,0.188-2.587c-0.067-0.229,0.036-0.472,0.246-0.583
			c0.074-0.039,0.154-0.059,0.234-0.059c0.146,0,0.289,0.062,0.386,0.184c0.981,1.193,1.229,2.781,0.632,4.047
			C63.439,48.419,62.632,48.967,61.715,48.967z M46.898,29.866c0.384,1.215,0.748,2.368,1.54,3.025
			c0.512-0.288,1.07-0.517,1.612-0.739c0.746-0.306,1.455-0.598,2.012-1.013c-0.322-2.284-0.995-3.92-2.052-4.985
			c-1.345,0.353-2.362,1.896-3.216,3.386L46.898,29.866z"/>
		<path fill="#FFFFFF" d="M69.318,11.838c5.962,0,11.863,3.066,13.245,7.632c1.375,4.542-0.58,9.648-4.051,11.35
			c-0.946,0.464-2.021,0.659-3.154,0.659c-0.987,0-2.021-0.147-3.055-0.391c-4.221-0.997-7.286-4.804-7.965-9.48
			c-0.643-4.422,2.646-6.745,5.785-6.745c2.252,0,4.427,1.196,5.015,3.671c-0.994-1.019-2.477-1.531-3.932-1.531
			c-2.783,0-5.465,1.875-4.438,5.671c0.752,2.778,3.247,4.818,6.46,4.818c0.141,0,0.283-0.004,0.427-0.012
			c1.003-0.056,1.913-0.512,2.834-0.934c4.405-2.018,2.977-8.66-0.272-11.217c-1.548-1.217-3.907-1.849-6.265-1.849
			c-4.019,0-8.036,1.833-8.042,5.723c-0.009,5.787,4.241,11.188,7.426,14.419c-6.438-1.258-9.194-7.272-13.904-10.681
			c2.993,4.963,4.978,12.081,7.153,18.292c-0.411,0.884-0.713,1.875-0.808,3.068c-2.208-5.162-3.523-11.201-5.94-16.156
			c-1.475,5.66,2.139,11.679,4.72,16.542c0.45,0.845,0.447,2.064,1.221,2.418c0.091,0.041,0.178,0.062,0.26,0.062
			c0.857,0,1.189-2.137,0.819-3.398c1.635,1.988,0.676,4.694-1.14,4.694c-0.585,0-1.26-0.28-1.965-0.958
			c-3.106-2.979-3.852-10.729-6.075-14.153c-1.609,0.724-3.638,1.029-4.591,2.404c0.372,2.931,1.353,7.901-0.674,9.882
			c-0.559,0.545-1.287,0.771-2.06,0.771c-1.941,0-4.165-1.438-4.688-2.909c0.63,0.688,1.483,0.979,2.355,0.979
			c1.556,0,3.177-0.928,3.718-2.182c1.791-4.155-2.666-8.559-3.238-12.018c-0.672-4.058,1.992-7.102,5.755-7.102
			c0.194,0,0.391,0.008,0.59,0.024c1.511,1.577,2.026,4.135,3.104,6.143c1.412-4.363-0.952-9.06-4.318-10.414
			c0.689-0.358,1.359-0.517,2.013-0.517c4.365,0,7.99,7.063,11.62,8.795c-1.334-3.987-6.146-11.191-0.676-13.886
			C64.662,12.304,66.995,11.838,69.318,11.838 M48.411,33.489c1.288-0.817,3.058-1.158,4.184-2.137c-0.304-2.414-1-4.44-2.429-5.741
			c-1.791,0.276-3.01,2.273-3.915,3.872C46.757,31.032,47.15,32.688,48.411,33.489 M69.318,10.838c-2.581,0-5.062,0.551-7.176,1.593
			c-4.857,2.394-2.964,7.691-1.287,11.591c-0.431-0.44-0.87-0.91-1.316-1.388c-2.392-2.563-4.865-5.214-7.899-5.214
			c-0.838,0-1.67,0.212-2.474,0.629c-0.347,0.18-0.557,0.545-0.538,0.936c0.019,0.39,0.263,0.733,0.626,0.879
			c1.829,0.736,3.399,2.765,3.92,5.166c-0.419-0.916-0.916-1.79-1.61-2.514c-0.169-0.176-0.396-0.285-0.64-0.305
			c-0.227-0.019-0.451-0.028-0.672-0.028c-2.117,0-3.988,0.83-5.266,2.338c-1.326,1.563-1.85,3.668-1.475,5.927
			c0.229,1.39,0.961,2.807,1.735,4.307c1.247,2.416,2.536,4.915,1.571,7.152c-0.375,0.869-1.631,1.576-2.799,1.576
			c-0.464,0-1.122-0.113-1.618-0.655c-0.195-0.213-0.465-0.325-0.738-0.325c-0.177,0-0.354,0.047-0.515,0.143
			c-0.408,0.246-0.586,0.744-0.427,1.192c0.677,1.904,3.309,3.574,5.63,3.574c1.096,0,2.049-0.366,2.758-1.058
			c2.163-2.111,1.553-6.49,1.108-9.688c-0.029-0.209-0.058-0.412-0.084-0.608c0.554-0.552,1.479-0.876,2.45-1.217
			c0.218-0.077,0.438-0.154,0.659-0.235c0.671,1.317,1.22,3.123,1.796,5.016c1.003,3.297,2.04,6.706,4.021,8.604
			c1.064,1.021,2.032,1.236,2.657,1.236c1.116,0,2.092-0.654,2.61-1.752c0.68-1.438,0.405-3.234-0.698-4.578
			c-0.148-0.181-0.35-0.298-0.566-0.344c0.112-0.387,0.255-0.764,0.429-1.139c0.11-0.235,0.123-0.505,0.037-0.751
			c-0.481-1.372-0.963-2.822-1.43-4.225c-1.044-3.141-2.111-6.348-3.34-9.274c0.139,0.148,0.278,0.297,0.417,0.448
			c2.688,2.887,5.468,5.873,9.968,6.751c0.064,0.013,0.128,0.019,0.192,0.019c0.363,0,0.704-0.198,0.88-0.527
			c0.208-0.386,0.139-0.863-0.168-1.175c-1.237-1.254-2.563-2.762-3.733-4.44c1.516,1.779,3.499,3.047,5.759,3.581
			c1.176,0.277,2.281,0.418,3.285,0.418c1.356,0,2.566-0.256,3.595-0.761c4.014-1.968,6.063-7.592,4.567-12.537
			C82.057,14.347,76.084,10.838,69.318,10.838L69.318,10.838z M63.827,23.889c-0.575-1.51-0.921-3.085-0.919-4.685
			c0.003-1.898,1.201-3.187,2.89-3.932c-0.368,0.275-0.705,0.586-1.002,0.929c-0.88,1.018-1.846,2.807-1.448,5.549
			C63.455,22.488,63.616,23.203,63.827,23.889L63.827,23.889z M75.138,19.533c0.165,0,0.33-0.041,0.482-0.124
			c0.394-0.217,0.594-0.67,0.491-1.107c-0.28-1.178-0.885-2.173-1.728-2.921c0.455,0.212,0.864,0.458,1.215,0.734
			c1.765,1.389,2.891,4.151,2.62,6.426c-0.122,1.019-0.592,2.383-2.146,3.095l-0.224,0.104c-0.78,0.36-1.517,0.701-2.249,0.741
			c-0.125,0.007-0.249,0.01-0.371,0.01c-2.626,0-4.834-1.639-5.495-4.08c-0.347-1.281-0.221-2.325,0.373-3.101
			c0.627-0.82,1.787-1.309,3.1-1.309c1.262,0,2.464,0.459,3.216,1.229C74.615,19.43,74.875,19.533,75.138,19.533L75.138,19.533z
			 M47.337,29.597c0.578-1,1.468-2.404,2.528-2.864c0.814,0.939,1.359,2.313,1.655,4.171c-0.472,0.297-1.054,0.536-1.661,0.785
			c-0.443,0.183-0.897,0.369-1.335,0.589c-0.531-0.602-0.833-1.56-1.15-2.563C47.362,29.676,47.35,29.636,47.337,29.597
			L47.337,29.597z M58.853,39.269c-1.05-2.184-1.93-4.439-2.241-6.674c0.571,1.557,1.093,3.161,1.606,4.737
			C58.426,37.974,58.637,38.621,58.853,39.269L58.853,39.269z"/>
	</g>
	<g>
		<path fill="#0A9995" d="M102.502,49.099c-0.139,0-0.281-0.01-0.429-0.026c-0.882-0.114-1.617-0.86-1.968-1.998
			c-0.36-1.181-0.27-2.773,0.754-3.679c0.095-0.082,0.213-0.125,0.332-0.125c0.086,0,0.175,0.021,0.254,0.068
			c0.062,0.038,0.119,0.09,0.158,0.148c-0.082-0.66-0.179-1.326-0.49-1.627c-0.137-0.131-0.188-0.332-0.129-0.514l1.17-3.645
			c1.463-4.562,2.968-9.256,4.529-13.848c-0.77,0.895-1.725,1.831-3.103,2.11c-0.033,0.007-0.065,0.01-0.101,0.01
			c-0.182,0-0.352-0.098-0.438-0.261c-0.78-1.437-0.099-3.165,0.563-4.836c0.447-1.127,0.91-2.292,0.86-3.255
			c-0.116-2.292-3.558-3.108-6.737-3.108c-1.861,0-3.733,0.28-5.008,0.749c-2.533,0.934-4.793,4.211-4.935,7.157
			c-0.063,1.329,0.28,3.114,2.276,4.075c1.035,0.496,1.955,0.786,2.812,0.889c0.187,0.022,0.375,0.033,0.563,0.033
			c2.029,0,4.203-1.225,5.412-3.048c1.012-1.527,1.196-3.247,0.522-4.84c-0.587-1.389-1.958-1.68-3.004-1.68
			c-1.701,0-3.531,0.743-4.459,1.477c-0.091,0.071-0.2,0.108-0.312,0.108c-0.063,0-0.13-0.013-0.19-0.038
			c-0.167-0.069-0.284-0.224-0.306-0.404C91,18.05,91.294,17.156,91.96,16.407c0.954-1.071,2.581-1.737,4.247-1.737
			c0.193,0,0.386,0.009,0.577,0.028c3.614,0.354,5.764,2.47,5.896,5.804c0.18,4.477-3.55,10.651-8.154,11.477
			c-1.226,0.22-2.098,0.314-2.916,0.314c-1.254,0-2.389-0.237-3.573-0.747c-3.933-1.689-5.745-5.286-4.853-9.62
			c1.032-5.012,5.879-10.338,12.834-10.338c0.338,0,0.678,0.013,1.024,0.039c2.771,0.208,7.665,1.011,9.3,4.053
			c0.559,1.037,0.688,2.224,0.387,3.547c1.051-1.069,2.24-2.093,3.674-2.869c0.074-0.04,0.156-0.06,0.238-0.06
			c0.084,0,0.168,0.021,0.242,0.062c0.148,0.083,0.246,0.235,0.258,0.405c0.096,1.47-0.392,2.831-0.861,4.147
			c-0.418,1.17-0.817,2.294-0.848,3.488c0.379-0.974,0.672-2.044,0.957-3.092c0.297-1.083,0.604-2.202,1.002-3.225
			c0.047-0.123,0.144-0.221,0.262-0.275c0.859-0.381,1.722-0.575,2.56-0.575c3.499,0,5.812,3.22,6.552,6.411
			c0.68,2.929,0.25,6.933-3.113,8.796c0.057,0.703,0.088,1.513,0.119,2.363c0.15,4.067,0.342,9.128,3.39,9.128
			c0.755,0,1.679-0.293,2.743-0.871c0.074-0.041,0.156-0.061,0.238-0.061c0.113,0,0.229,0.039,0.317,0.115
			c0.157,0.13,0.222,0.343,0.158,0.537c-0.646,2.022-2.907,3.084-4.808,3.084c-0.815,0-1.557-0.188-2.139-0.538
			c-2.422-1.466-2.352-4.813-2.283-8.052c0.035-1.676,0.071-3.409-0.24-4.82c-0.291-1.319-1.438-1.674-2.765-2.085
			c-0.594-0.184-1.2-0.373-1.723-0.667c-0.535,1.87-1.261,3.971-2.083,6.362l-0.705,2.054c-0.229,0.667-0.432,1.585-0.646,2.557
			C106.477,44.911,105.543,49.099,102.502,49.099z M101.664,43.952c-0.219,1.085-0.045,2.398,0.188,2.568
			c0.16-0.084,0.275-0.433,0.39-0.77c0.03-0.096,0.063-0.189,0.099-0.284c-0.179-0.022-0.333-0.143-0.398-0.313
			C101.795,44.786,101.721,44.37,101.664,43.952z M106.966,32.334c-0.534,1.665-1.062,3.33-1.579,4.967
			c-0.582,1.841-1.164,3.682-1.755,5.515C105.127,39.563,106.251,36.025,106.966,32.334z M111.73,27.894
			c0.563,0.309,1.234,0.53,1.938,0.763c0.763,0.252,1.547,0.511,2.226,0.901c1.273-0.926,1.771-2.7,2.172-4.62
			c-0.24-0.313-0.485-0.687-0.741-1.078c-0.791-1.207-1.774-2.709-2.91-2.709c-0.063,0-0.129,0.005-0.194,0.014
			c-1.463,0.207-2.055,3.969-2.371,5.99C111.809,27.419,111.77,27.667,111.73,27.894z"/>
		<path fill="#FFFFFF" d="M96.018,12.087c0.325,0,0.654,0.012,0.988,0.037c6.104,0.458,11.906,2.901,8.234,9.479
			c1.587-1.813,3.189-3.61,5.4-4.806c0.205,3.148-2.486,5.838-1.484,9.346c1.314-2.216,1.709-5.34,2.699-7.877
			c0.826-0.366,1.612-0.532,2.354-0.532c6.148,0,9.082,11.396,2.909,14.418c0.396,3.972-0.328,12.281,4.034,12.281
			c0.81,0,1.789-0.285,2.982-0.933c-0.564,1.771-2.566,2.735-4.33,2.735c-0.699,0-1.359-0.151-1.879-0.465
			c-3.357-2.033-1.373-8.382-2.294-12.554c-0.573-2.586-3.877-2.132-5.266-3.471c-0.679,2.529-1.767,5.548-2.972,9.08
			c-0.988,2.905-1.43,9.771-4.896,9.771c-0.118,0-0.238-0.009-0.363-0.023c-1.675-0.217-2.395-3.525-0.947-4.807
			c-0.233,1.073-0.188,3.239,0.621,3.239c0.061,0,0.121-0.011,0.188-0.034c0.603-0.219,0.647-1.104,0.959-1.682
			c2.759-5.148,4.69-11.531,5.25-18.347c-2.005,5.937-3.839,12.045-5.806,18.027c-0.412-1.06-0.19-2.75-0.942-3.473
			c2.13-6.617,4.224-13.27,6.479-19.763c-1.244,0.952-2.254,3.291-4.457,3.738c-1.17-2.148,1.615-5.369,1.484-7.878
			c-0.133-2.61-3.72-3.582-7.236-3.583c-1.945,0-3.869,0.297-5.181,0.78c-4.506,1.66-7.772,9.711-2.7,12.151
			c0.959,0.459,1.947,0.812,2.971,0.935c0.205,0.024,0.414,0.036,0.623,0.036c3.963,0,8.236-4.235,6.396-8.583
			c-0.614-1.456-1.979-1.985-3.464-1.985c-1.771,0-3.719,0.754-4.771,1.584c-0.263-2.248,2.222-3.765,4.603-3.765
			c0.177,0,0.354,0.008,0.526,0.025c10.021,0.983,4.404,15.089-2.297,16.291c-1.035,0.186-1.949,0.306-2.828,0.306
			c-1.127,0-2.191-0.197-3.377-0.706C78.655,26.969,84.672,12.088,96.018,12.087 M115.904,30.15
			c1.685-1.002,2.244-3.119,2.699-5.341c-1.054-1.256-2.295-4.158-4.188-4.158c-0.087,0-0.177,0.006-0.267,0.019
			c-2.129,0.301-2.571,5.301-2.972,7.478C112.539,29.027,114.559,29.253,115.904,30.15 M124.139,43.501h0.006 M101.191,43.771h0.004
			 M96.02,11.087L96.02,11.087c-7.222,0-12.256,5.533-13.327,10.738c-0.929,4.516,1.042,8.416,5.146,10.18
			c1.25,0.537,2.448,0.787,3.771,0.787c0.852,0,1.75-0.096,3.008-0.322c3.349-0.6,6.256-3.878,7.666-7.388
			c0.062,0.297,0.17,0.589,0.322,0.873c0.18,0.326,0.519,0.521,0.879,0.521c0.064,0,0.134-0.006,0.199-0.02
			c0.729-0.148,1.346-0.454,1.877-0.837c-1.332,3.976-2.621,8.003-3.881,11.931l-1.171,3.645c-0.116,0.363-0.017,0.764,0.259,1.027
			c0.1,0.094,0.168,0.312,0.225,0.567c-0.178,0.035-0.335,0.118-0.465,0.233c-1.188,1.052-1.307,2.862-0.896,4.193
			c0.408,1.33,1.299,2.208,2.381,2.35c0.17,0.021,0.332,0.031,0.492,0.031c3.441,0,4.464-4.592,5.21-7.941
			c0.214-0.959,0.415-1.864,0.636-2.506c0.237-0.703,0.475-1.387,0.702-2.051c0.743-2.158,1.406-4.081,1.925-5.816
			c0.408,0.172,0.84,0.305,1.262,0.437c1.361,0.422,2.207,0.731,2.425,1.716c0.299,1.353,0.263,3.055,0.229,4.702
			c-0.072,3.379-0.146,6.875,2.522,8.49c0.66,0.399,1.487,0.61,2.396,0.61c1.996,0,4.479-1.053,5.258-3.36
			c0.05-0.116,0.074-0.243,0.074-0.376c0-0.553-0.444-1-0.998-1l0,0c-0.002,0-0.004,0-0.004,0c-0.015,0-0.029,0-0.043,0.001l0,0l0,0
			c-0.164,0.007-0.314,0.054-0.449,0.129c-0.984,0.532-1.821,0.802-2.489,0.802c-2.369,0-2.72-4.09-2.892-8.646
			c-0.025-0.733-0.054-1.437-0.097-2.072c2.785-1.729,3.989-5.25,3.079-9.181c-0.784-3.384-3.266-6.798-7.038-6.798
			c-0.842,0-1.702,0.179-2.56,0.532c0.004-0.176,0-0.353-0.012-0.533c-0.022-0.34-0.218-0.646-0.517-0.81
			c-0.149-0.083-0.315-0.125-0.481-0.125c-0.164,0-0.328,0.04-0.478,0.121c-1.042,0.563-1.954,1.248-2.776,1.984
			c0.004-0.884-0.199-1.706-0.604-2.46c-1.66-3.088-6.192-4.051-9.702-4.314C96.727,11.101,96.369,11.087,96.02,11.087L96.02,11.087
			z M103.184,20.597c0-0.039-0.002-0.077-0.002-0.115c-0.097-2.406-1.156-4.225-3.002-5.284c2.002,0.314,3.721,1.062,3.791,2.452
			C104.014,18.478,103.6,19.55,103.184,20.597L103.184,20.597z M93.443,26.918c-0.172,0-0.342-0.01-0.508-0.029
			c-0.799-0.096-1.67-0.372-2.654-0.843c-1.748-0.841-2.049-2.422-1.992-3.6c0.095-1.981,1.204-4.119,2.693-5.494
			c-0.328,0.649-0.455,1.36-0.369,2.099c0.041,0.36,0.275,0.669,0.609,0.808c0.123,0.051,0.254,0.076,0.383,0.076
			c0.223,0,0.439-0.074,0.621-0.215c0.84-0.664,2.578-1.37,4.147-1.369c1.304,0,2.157,0.462,2.543,1.374
			c0.606,1.435,0.438,2.987-0.479,4.37C97.32,25.783,95.312,26.918,93.443,26.918L93.443,26.918z M112.283,27.611
			c0.02-0.122,0.039-0.248,0.06-0.378c0.232-1.482,0.853-5.418,1.946-5.573c0.043-0.006,0.085-0.009,0.126-0.009
			c0.864,0,1.806,1.435,2.492,2.483c0.213,0.326,0.418,0.639,0.622,0.921c-0.344,1.601-0.771,3.065-1.69,3.904
			c-0.64-0.324-1.334-0.553-2.011-0.777C113.275,28,112.745,27.824,112.283,27.611L112.283,27.611z"/>
	</g>
	<g>
		
			<path fill="#0A9995" stroke="#0A9995" stroke-width="2" stroke-linecap="round" stroke-linejoin="round" stroke-miterlimit="10" d="
			M81.077,51.247c-0.399-0.668-0.798-1.682,0-2.137c-1.012,0.289-0.834-0.603-1.215-0.936c0,0.312,0,0.623,0,0.936
			c-0.277,0.217-0.885,0.104-1.081,0.402c0.402,0.047,0.668,0.229,0.812,0.53c0.178,0.588-0.404,1.104,0,1.47
			C79.821,49.896,80.617,50.99,81.077,51.247z"/>
		
			<path fill="#0A9995" stroke="#0A9995" stroke-width="2" stroke-linecap="round" stroke-linejoin="round" stroke-miterlimit="10" d="
			M87.152,51.513c-0.375-0.832-0.326-1.791,0.404-2.134c-0.981,0.214-0.806-0.72-1.08-1.202c-0.095,0.662-0.17,1.284-0.944,0.934
			c0.808,0.619-0.093,1.604,0.134,2.271c0.104-0.431,0.375-0.697,0.811-0.801C86.646,50.86,86.954,51.699,87.152,51.513z"/>
		
			<path fill="#0A9995" stroke="#0A9995" stroke-width="2" stroke-linecap="round" stroke-linejoin="round" stroke-miterlimit="10" d="
			M73.923,53.25c-0.744-0.504-0.97-1.229-0.812-2.003c-0.116,0.195-0.2,0.423-0.54,0.4c-0.155-0.246-0.353-0.451-0.54-0.668
			c-0.104,0.551,0.209,0.686,0.135,1.201c-0.416,0.03-0.521,0.369-0.808,0.533c0.426-0.021,0.813-0.006,0.945,0.268
			c0.031,0.547,0.064,1.092,0.271,1.469c0.079-0.541,0.061-1.188,0.406-1.469C73.15,53.134,73.854,53.437,73.923,53.25z"/>
		
			<path fill="#0A9995" stroke="#0A9995" stroke-width="2" stroke-linecap="round" stroke-linejoin="round" stroke-miterlimit="10" d="
			M93.227,51.513c0.693,0.746-0.332,1.354-0.675,1.87c0.462-0.032,0.649-0.337,1.214-0.265c0.047,1.52,0.414,1.351,0.403-0.135
			c0.235-0.215,0.836-0.064,0.944-0.4c-0.907,0.061-0.557-1.246-0.676-1.602C94.273,51.757,93.602,51.521,93.227,51.513z"/>
		
			<path fill="#0A9995" stroke="#0A9995" stroke-width="2" stroke-linecap="round" stroke-linejoin="round" stroke-miterlimit="10" d="
			M65.419,57.39c-0.239,0.344-0.535,0.629-0.81,0.937c0.427,0.063,0.474-0.242,0.944-0.136c0.429,1.478,0.431,1.791,0.811,0.136
			c0.471-0.188,0.864,0.373,1.081,0c-0.593-0.175-0.851-0.675-1.216-1.066c0.118-0.122,0.388-0.755,0.135-0.804
			c-0.123,0.232-0.302,0.413-0.541,0.531c-0.167-0.276-0.394-0.497-0.674-0.668C65.22,56.694,65.347,57.017,65.419,57.39z"/>
		
			<path fill="#0A9995" stroke="#0A9995" stroke-width="2" stroke-linecap="round" stroke-linejoin="round" stroke-miterlimit="10" d="
			M100.244,57.521c-0.542,0.133-0.762,0.584-1.08,0.938c0.523,0.07,0.659-0.239,1.217-0.134c0,0.399,0,0.801,0,1.2
			c0.545-0.129,0.178-1.157,0.674-1.338c0.346-0.143,0.645,0.406,0.812,0c-0.328-0.209-0.6-0.478-0.812-0.801
			c0.117-0.164,0.43-0.803,0.135-0.934c-0.174,0.229-0.277,0.523-0.674,0.533c-0.123-0.234-0.305-0.413-0.541-0.533
			C100.045,56.829,100.173,57.147,100.244,57.521z"/>
	</g>
</g>
</svg>
