<?xml version="1.0" encoding="utf-8"?>
<!-- Generator: Adobe Illustrator 15.0.0, SVG Export Plug-In . SVG Version: 6.00 Build 0)  -->
<!DOCTYPE svg PUBLIC "-//W3C//DTD SVG 1.1//EN" "http://www.w3.org/Graphics/SVG/1.1/DTD/svg11.dtd">
<svg version="1.1" id="Etsy" xmlns="http://www.w3.org/2000/svg" xmlns:xlink="http://www.w3.org/1999/xlink" x="0px" y="0px"
	 width="116.667px" height="57.333px" viewBox="280.667 17.833 116.667 57.333"
	 enable-background="new 280.667 17.833 116.667 57.333" xml:space="preserve">
<g display="none">
	<path display="inline" fill="#A30F1D" d="M-732.629,275.63c0,0-0.007-2.454,0.279-3.669c0.307-1.296,2.058-8.711,2.058-8.711
		s-0.515-1.02-0.515-2.527c0-2.371,1.377-4.14,3.088-4.14c1.452,0,2.154,1.091,2.154,2.397c0,1.465-0.931,3.651-1.41,5.674
		c-0.401,1.697,0.847,3.08,2.522,3.08c3.029,0,5.068-3.891,5.068-8.498c0-3.506-2.357-6.127-6.653-6.127
		c-4.847,0-7.87,3.617-7.87,7.654c0,1.396,0.411,2.377,1.055,3.137c0.297,0.35,0.341,0.49,0.231,0.894
		c-0.077,0.292-0.254,0.999-0.327,1.281c-0.105,0.403-0.432,0.55-0.801,0.399c-2.234-0.912-3.275-3.357-3.275-6.106
		c0-4.542,3.831-9.987,11.428-9.987c6.105,0,10.121,4.416,10.121,9.158c0,6.271-3.488,10.955-8.626,10.955
		c-1.727,0-3.35-0.932-3.907-1.99c0,0-0.928,3.684-1.124,4.393c-0.337,1.231-1.607,3.424-1.607,3.424s-0.463,0.545-1.246,0.777
		C-732.357,277.208-732.629,275.63-732.629,275.63z"/>
</g>
<g>
	<g>
		<g>
			<path fill="#0A9995" d="M312.574,20.338c1.639,0,3.299,1.024,4.227,2.607c0.961,1.633,0.953,3.61-0.016,5.29
				c-0.102,0.18-0.219,0.352-0.34,0.521c0.221-0.028,0.441-0.043,0.662-0.043c1.334,0,2.494,0.486,3.539,1.206
				c0.129-2.014,1.188-3.594,3.062-4.52c1.703-0.838,3.688-1.282,5.742-1.282c2.455,0,4.93,0.627,6.969,1.768
				c1.236,0.689,2.27,1.547,3.062,2.521c1.832-2.228,4.73-4.113,8.609-4.113c0.287,0,0.578,0.011,0.867,0.032
				c3.979,0.299,6.736,1.567,7.984,3.671c0.08-0.045,0.158-0.089,0.236-0.132c0.344-0.185,0.73-0.283,1.121-0.283
				c0.389,0,0.775,0.098,1.123,0.285c0.211,0.115,0.398,0.258,0.561,0.424c0.27-0.036,0.539-0.055,0.809-0.055
				c0.158,0,0.314,0.008,0.467,0.021c-0.381-0.657-0.666-1.434-0.744-2.382c-0.014-0.142-0.02-0.283-0.023-0.418
				c-0.004-0.187,0.006-0.384,0.031-0.601c0.117-1.103,0.607-2.113,1.412-2.923c0.648-0.653,1.482-1.132,2.354-1.353
				c0.033-0.009,0.064-0.018,0.102-0.027l0.012-0.002l0.014-0.003c0.078-0.017,0.156-0.03,0.23-0.041l0.016-0.002l0.014-0.003
				c0.072-0.014,0.146-0.026,0.211-0.033c0.078-0.008,0.158-0.013,0.234-0.017h0.018l0.018-0.001
				c0.074-0.005,0.148-0.009,0.219-0.009h0.002c1.584,0,3.383,1.003,3.826,3.245c0.057,0.292,0.09,0.604,0.1,0.924
				c0.02,0.735-0.305,1.398-0.834,1.835c0.355,0.22,0.693,0.42,0.947,0.571c1.094,0.651,2.129,1.265,2.859,1.972
				c0.242,0.234,0.471,0.471,0.686,0.709c0.391-0.278,0.867-0.434,1.361-0.434c0.441,0,0.875,0.125,1.25,0.359
				c1.742,1.095,4.496,1.818,7.16,2.52c2.918,0.767,5.936,1.56,8.258,2.958c1.566,0.942,3.398,3.08,3.869,5.34
				c0.309,1.483,0.018,2.944-0.822,4.118c-0.973,1.359-2.762,2.14-4.908,2.14c-2.67,0-5.689-1.332-6.006-4.256
				c-0.02-0.163-0.027-0.328-0.027-0.488c0-1.239,0.514-2.066,0.945-2.541c0.074-0.081,0.152-0.158,0.23-0.232
				c-0.559-0.116-1.121-0.22-1.656-0.319c-0.758-0.142-1.488-0.277-2.191-0.434c-0.008,0.02-0.014,0.039-0.018,0.058
				c-2.486,8.331-5.303,17.772-13.025,21.704c-0.221,0.111-0.453,0.217-0.691,0.316c0.041,0.078,0.082,0.156,0.113,0.24
				c1.289,0.1,2.506,0.217,3.629,0.352c1.088,0.129,1.904,1.082,1.857,2.166v0.014l-0.002,0.014
				c-0.064,1.102-0.986,1.965-2.096,1.971c-1.51,0.016-3.01,0.029-4.551,0.041c0.01,0.371,0.006,0.777-0.061,1.193
				c0.494,0.871,0.58,1.916,0.23,3.039c-0.387,1.248-1.332,2.168-2.658,2.592c-0.92,0.293-1.83,0.293-2.316,0.293
				c-0.361,0-0.711-0.012-1.051-0.025h-0.016c-0.295-0.012-0.572-0.02-0.818-0.02c-0.066,0-0.131,0-0.197,0.002
				c-0.025,0-0.051,0-0.074,0c-0.75,0-1.43-0.35-1.859-0.912c-1.045,0.717-2.326,1.123-3.623,1.123
				c-1.188,0-2.277-0.326-3.191-0.936c-0.33,0.311-0.756,0.525-1.223,0.602c-0.582,0.094-1.334,0.146-2.119,0.146
				s-1.539-0.053-2.123-0.146c-0.586-0.096-1.102-0.41-1.455-0.855c-1.248,0.729-2.816,1.154-4.473,1.154
				c-1.043,0-2.041-0.168-2.967-0.5c-0.295-0.105-0.561-0.266-0.787-0.469c-0.799,0.693-1.857,1.082-3.059,1.082
				c-1.682,0-3.348-0.795-4.453-2.102c-0.396,0.887-1.355,1.883-3.678,1.883c-1.078,0-2.195-0.205-2.686-0.324
				c-0.484-0.121-0.902-0.385-1.211-0.74c-0.9,0.725-2.111,1.15-3.4,1.15c-0.506,0-1.002-0.066-1.477-0.201
				c-0.195,0.039-0.416,0.064-0.66,0.064c-0.209,0-0.418-0.018-0.627-0.053c-0.883-0.152-1.607-0.803-1.85-1.656
				c-0.096-0.346-0.557-2.146-0.066-3.652c0.018-0.053,0.037-0.105,0.057-0.156c-0.121-0.416-0.186-0.93-0.1-1.535
				c-1.395,0.002-2.738,0.006-4.049,0.01c-1.098,0-2-0.812-2.105-1.891c-0.107-1.072,0.617-2.037,1.701-2.252
				c0.52-0.098,1.053-0.172,1.521-0.238l0.047-0.006c0.789-0.109,1.602-0.221,2.174-0.416c0.215-0.078,0.449-0.117,0.686-0.121
				c-0.359-0.158-0.695-0.328-0.996-0.508c-3.65-2.201-6.582-5.648-8.965-10.537c-1.506-3.09-2.75-6.656-3.875-11.117
				c-0.666,0.153-1.332,0.289-1.99,0.421c-0.666,0.136-1.34,0.273-1.988,0.426c0.086,0.084,0.17,0.173,0.248,0.265
				c0.773,0.905,1.076,2.109,0.857,3.389c-0.402,2.346-2.543,3.862-5.455,3.862c-1.918,0-4.559-0.727-5.682-2.776
				c-0.908-1.657-0.996-3.392-0.25-5.016c1.803-3.935,7.713-5.364,8.383-5.513c5.121-1.148,11.234-3.637,16.775-6.828
				c0.23-0.133,0.479-0.264,0.742-0.404c-0.363-0.408-0.582-0.94-0.582-1.517c0-1.189,0.314-2.175,0.93-2.93
				C310.453,20.814,311.473,20.338,312.574,20.338 M312.592,22.647c-0.008,0-0.016,0-0.023,0c-0.002,0-0.004,0-0.006,0
				c-0.049,0-0.096,0.002-0.143,0.007c0.031-0.003,0.064-0.003,0.096-0.005c0.016,0,0.031-0.001,0.047-0.002h0.004
				c0.012,0,0.021,0,0.031,0c0.002,0,0.004,0,0.006,0c-0.002,0-0.004,0-0.006,0C312.598,22.647,312.594,22.647,312.592,22.647
				c0.002,0,0.006,0,0.006,0c-0.006,0-0.016,0-0.023,0C312.58,22.646,312.586,22.646,312.592,22.647 M308.398,47.004
				c0.154-0.176,0.34-0.33,0.551-0.455c0.361-0.211,0.773-0.324,1.193-0.324c0.623,0,1.223,0.248,1.658,0.684
				c0.166-0.006,0.373-0.104,0.459-0.18c0.322-0.873-0.387-2.247-1.074-3.576c-0.572-1.109-1.164-2.257-1.369-3.477
				c-0.34-2.061,0.162-4,1.416-5.458c0.664-0.774,1.492-1.357,2.426-1.724c-0.168-0.303-0.27-0.644-0.287-1.001
				c-0.002-0.045,0.004-0.09,0.004-0.135c-0.832,0.491-1.703,0.922-2.533,1.333c-0.623,0.308-1.211,0.599-1.717,0.882
				c-0.531,0.299-1.207,0.571-1.93,0.862c-0.457,0.183-1.746,0.701-2.268,1.04c-0.25,1.507,0.998,5.186,1.424,6.445l0.008,0.026
				l0.154,0.454C306.826,43.337,307.459,45.078,308.398,47.004 M332.182,35.045c0.053,0,0.109,0,0.166-0.004
				c0.193-0.01,0.602-0.198,0.963-0.366l0.166-0.076c0.156-0.072,0.482-0.221,0.564-0.888c0.014-0.118,0.02-0.241,0.016-0.367
				c-0.176,0.042-0.361,0.063-0.543,0.063c-0.631,0-1.242-0.258-1.678-0.705c-0.178-0.182-0.576-0.365-1.066-0.365
				c-0.475,0-0.773,0.162-0.859,0.273c-0.09,0.118-0.086,0.411,0.014,0.782C330.195,34.397,331.082,35.045,332.182,35.045
				 M345.01,33.688c-0.221,0-0.439-0.031-0.648-0.091c-0.016,0.104-0.029,0.207-0.033,0.307c-0.037,0.747,0.285,0.901,0.477,0.993
				c0.514,0.247,0.963,0.394,1.324,0.438c0.055,0.006,0.111,0.01,0.164,0.01c0.746,0,1.633-0.516,2.109-1.227
				c0.34-0.504,0.416-1.011,0.229-1.509c-0.051-0.012-0.145-0.026-0.291-0.026c-0.725,0-1.555,0.349-1.873,0.601
				C346.055,33.508,345.537,33.688,345.01,33.688 M365.836,46.84c0.152-0.043,0.402-0.135,0.766-0.332
				c0.342-0.186,0.73-0.283,1.121-0.283c0.539,0,1.064,0.186,1.48,0.523c0.207,0.168,0.373,0.363,0.508,0.578
				c0.801-1.529,1.736-3.659,1.623-5.25c-0.256-3.535-1.844-5.714-4.043-7.879c0.549,2.335,0.283,5.566-2.059,7.574
				c0.008,0.19,0.016,0.383,0.023,0.581l0.002,0.034c0.049,1.347,0.105,2.874,0.395,3.934
				C365.721,46.568,365.785,46.734,365.836,46.84 M351.803,39.794c-1.285,1.407-2.834,2.339-4.396,2.62
				c-0.98,0.175-1.695,0.249-2.391,0.249c-1.156,0-2.197-0.216-3.281-0.68c0.07,2.163,0.146,4.078,0.232,5.859
				c0.678,0.096,1.367,0.191,2.053,0.316c0.211-0.387,0.416-0.801,0.615-1.209c0.195-0.395,0.486-0.99,0.797-1.547
				c0.43-0.762,1.244-1.232,2.125-1.232c0.229,0,0.457,0.032,0.682,0.096c0.027,0.009,0.057,0.017,0.078,0.023
				c0.754,0.247,1.314,0.821,1.549,1.531c0.211-0.659,0.424-1.319,0.635-1.979l0.014-0.039
				C350.936,42.484,351.365,41.143,351.803,39.794 M290.834,40.256L290.834,40.256L290.834,40.256L290.834,40.256h0.002l0,0
				c0.006,0,0.014,0,0.02,0.001l0,0c-0.004,0-0.01,0-0.014,0c-0.014,0-0.025,0-0.037,0c-0.014,0-0.029,0-0.045,0
				c0.016,0,0.031,0,0.045,0c0.012,0,0.023,0,0.037,0c0.006,0,0.01,0,0.016,0c0,0,0,0-0.002,0c0.002,0,0.002,0,0.002,0l0,0l0,0
				h-0.002c-0.006,0-0.014-0.001-0.02-0.001l0,0H290.834L290.834,40.256L290.834,40.256L290.834,40.256L290.834,40.256
				L290.834,40.256 M333.668,42.443c-0.617,0-1.271-0.063-1.959-0.187c-0.047,0.164-0.111,0.324-0.195,0.479
				c-0.41,0.745-1.195,1.207-2.053,1.207c-0.152,0-0.307-0.015-0.451-0.044c-1.227-0.239-2.291-0.665-3.238-1.206
				c0.064,0.187,0.125,0.372,0.188,0.556l0.035,0.108c0.314,0.944,0.639,1.919,0.959,2.837c0.162,0.455,0.174,0.939,0.039,1.391
				c0.66,0.951,0.951,2.078,0.846,3.16c0.473-0.326,0.977-0.666,1.523-0.969c-0.082-0.273-0.203-0.578-0.355-0.953
				c-0.189-0.461-0.426-1.035-0.58-1.652c-0.309-1.189,0.334-2.411,1.494-2.844c0.021-0.009,0.047-0.018,0.072-0.026
				c0.258-0.087,0.521-0.13,0.789-0.13c0.906,0,1.732,0.496,2.162,1.303c0.336,0.647,0.926,1.711,1.492,2.708
				c0.693-0.139,1.379-0.244,2.021-0.328c0.059-0.951,0.094-1.963,0.129-2.957v-0.023c0.037-1.067,0.07-2.093,0.139-3.045
				C335.818,42.234,334.793,42.443,333.668,42.443 M356.871,51.488c0.006-0.004,0.014-0.01,0.021-0.014l0.01-0.004
				c0.049-0.031,0.1-0.061,0.141-0.082c0.078-0.041,0.164-0.08,0.246-0.117l0.016-0.006c0.057-0.027,0.111-0.053,0.178-0.08
				c0.07-0.029,0.146-0.055,0.221-0.08l0.029-0.01l0.016-0.006c0.062-0.023,0.119-0.043,0.182-0.062
				c0.07-0.021,0.145-0.039,0.219-0.057l0.029-0.008l0.029-0.008c0.07-0.018,0.145-0.035,0.219-0.051
				c0.059-0.014,0.123-0.023,0.188-0.031l0.01-0.002l0.039-0.006c0.092-0.014,0.182-0.029,0.277-0.039
				c0.053-0.004,0.107-0.008,0.172-0.014h0.029c0.088-0.008,0.195-0.016,0.322-0.02c0.021,0,0.041,0,0.064,0h0.189l0.064,0.014
				c0.055,0.006,0.107,0.014,0.162,0.023c0.057,0.01,0.117,0.023,0.168,0.039h0.01l0.008,0.002c0.051,0.014,0.127,0.035,0.219,0.07
				l0.01,0.002l0.012,0.004c0.053,0.021,0.105,0.045,0.158,0.068c0.066,0.031,0.133,0.066,0.199,0.107h0.004l0.012,0.008
				c0.049,0.029,0.096,0.061,0.143,0.092c0.078,0.057,0.137,0.107,0.17,0.135c0.035,0.029,0.086,0.072,0.135,0.121
				c0.094,0.094,0.182,0.201,0.254,0.303c0.029,0.045,0.059,0.088,0.084,0.133l0.004,0.004l0.014,0.027
				c0.02,0.033,0.061,0.1,0.1,0.189c0.029,0.062,0.051,0.117,0.066,0.154c0.01,0.027,0.025,0.068,0.041,0.115
				c0.021,0.061,0.037,0.123,0.051,0.188c0.01,0.043,0.018,0.086,0.025,0.127c0.012,0.074,0.018,0.139,0.021,0.193
				c0.008,0.047,0.012,0.111,0.012,0.188v0.205l-0.02,0.072c-0.01,0.09-0.027,0.18-0.049,0.268l-0.008,0.027l-0.006,0.027
				c-0.01,0.031-0.02,0.062-0.029,0.094c-0.051,0.162-0.115,0.309-0.195,0.447l-0.008,0.012v0.002l-0.002,0.002l-0.027,0.047
				l-0.02,0.031c-0.074,0.113-0.16,0.225-0.256,0.326c-0.016,0.018-0.033,0.035-0.051,0.053l-0.018,0.02l-0.02,0.02
				c-0.119,0.113-0.242,0.209-0.387,0.301c-0.016,0.01-0.031,0.021-0.047,0.031l-0.025,0.018h-0.002l-0.029,0.021
				c-0.014,0.008-0.025,0.018-0.037,0.027l-0.016,0.012l-0.008,0.006l-0.008,0.006l-0.021,0.016l-0.016,0.012l-0.025,0.023
				l-0.039,0.035l-0.004,0.002l-0.035,0.035l-0.029,0.027l-0.002,0.002l-0.027,0.031l-0.031,0.033h-0.002l-0.018,0.025l-0.016,0.021
				c0.135,0.025,0.324,0.049,0.568,0.049c0.148,0,0.309-0.008,0.477-0.025c1.537-0.146,3.205-1.381,4.637-2.865
				c-0.443,0.102-0.887,0.152-1.307,0.152c-0.938,0-1.812-0.229-2.531-0.664c-2.658-1.609-2.592-4.779-2.541-7.332
				c0.02-0.921,0.039-1.87-0.066-2.6c-0.252,0.765-0.531,1.576-0.834,2.453l-0.008,0.021l-0.025,0.073
				c-0.145,0.424-0.295,0.86-0.447,1.305c-0.125,0.365-0.256,0.951-0.393,1.572l-0.004,0.016c-0.273,1.221-0.584,2.592-1.129,3.785
				C356.773,51.414,356.822,51.451,356.871,51.488 M313.418,52.871c-0.43,0-0.865-0.055-1.291-0.156
				c1.102,1.195,2.352,2.174,3.752,2.705c0.352,0.135,0.762,0.205,1.186,0.205c0.346,0,0.654-0.047,0.908-0.115
				c-0.049-0.051-0.105-0.105-0.166-0.168c-0.301-0.295-0.639-0.629-0.877-1.088c-0.434-0.828-0.322-1.826,0.281-2.539
				c0.443-0.527,1.098-0.828,1.791-0.828c0.227,0,0.451,0.033,0.674,0.098c-0.689-1.279-1.172-2.77-1.625-4.252
				c0.043,1.826-0.26,3.666-1.559,4.934C315.699,52.443,314.605,52.871,313.418,52.871 M312.574,19.964
				c-1.211,0-2.338,0.526-3.09,1.444c-0.672,0.825-1.012,1.89-1.012,3.167c0,0.493,0.139,0.973,0.395,1.391
				c-0.125,0.069-0.248,0.137-0.367,0.206c-5.512,3.173-11.588,5.647-16.672,6.788c-0.688,0.153-6.762,1.619-8.643,5.722
				c-0.795,1.734-0.705,3.585,0.266,5.353c1.199,2.192,3.988,2.969,6.008,2.969c3.104,0,5.389-1.638,5.824-4.173
				c0.223-1.298-0.053-2.528-0.777-3.491c0.441-0.096,0.891-0.188,1.33-0.278l0.035-0.007c0.602-0.122,1.123-0.228,1.643-0.343
				c1.111,4.333,2.326,7.784,3.812,10.836c2.416,4.955,5.395,8.453,9.107,10.691c0.025,0.016,0.051,0.031,0.076,0.047
				c-0.504,0.129-1.156,0.219-1.787,0.307l-0.059,0.008c-0.418,0.059-0.992,0.137-1.539,0.24c-1.27,0.252-2.127,1.393-2.002,2.656
				c0.123,1.271,1.188,2.229,2.477,2.229c1.184-0.004,2.393-0.006,3.639-0.01c-0.014,0.393,0.023,0.775,0.117,1.145
				c-0.006,0.018-0.012,0.037-0.018,0.055c-0.523,1.611-0.039,3.506,0.062,3.871c0.279,0.99,1.123,1.746,2.146,1.922
				c0.227,0.041,0.459,0.061,0.686,0.061c0.215,0,0.432-0.018,0.646-0.055c0.479,0.127,0.979,0.191,1.492,0.191
				c1.234,0,2.414-0.363,3.363-1.029c0.328,0.291,0.723,0.5,1.158,0.607c0.508,0.123,1.662,0.336,2.775,0.336
				c2.127,0,3.205-0.801,3.752-1.625c1.17,1.162,2.77,1.844,4.379,1.844c1.158,0,2.211-0.338,3.061-0.979
				c0.201,0.145,0.424,0.26,0.658,0.342c0.965,0.346,2.006,0.521,3.094,0.521c1.564,0,3.111-0.373,4.393-1.057
				c0.4,0.398,0.914,0.662,1.475,0.754c0.602,0.096,1.377,0.15,2.182,0.15s1.576-0.053,2.178-0.15
				c0.438-0.072,0.846-0.246,1.195-0.51c0.928,0.557,2.014,0.85,3.16,0.85c1.244,0,2.494-0.357,3.555-1.008
				c0.504,0.508,1.189,0.795,1.928,0.795h0.082c0.064-0.002,0.127-0.002,0.189-0.002c0.242,0,0.516,0.01,0.807,0.02
				c0.359,0.014,0.711,0.025,1.078,0.025c0.508,0,1.453,0,2.432-0.311c1.445-0.461,2.477-1.469,2.9-2.838
				c0.363-1.166,0.295-2.277-0.199-3.219c0.035-0.266,0.047-0.521,0.049-0.752c1.412-0.012,2.791-0.025,4.178-0.039
				c1.305-0.006,2.389-1.027,2.467-2.322v-0.012l0.002-0.025c0.055-1.277-0.906-2.398-2.188-2.553
				c-0.867-0.104-1.797-0.197-2.771-0.281c7.664-4.008,10.508-13.299,12.979-21.577c0.596,0.125,1.205,0.239,1.844,0.358
				l0.049,0.009c0.318,0.06,0.645,0.12,0.977,0.184c-0.418,0.546-0.83,1.378-0.83,2.537c0,0.182,0.01,0.361,0.031,0.532
				c0.342,3.148,3.545,4.584,6.379,4.584c2.268,0,4.166-0.836,5.209-2.293c0.902-1.26,1.217-2.828,0.887-4.414
				c-0.494-2.366-2.408-4.6-4.041-5.584c-2.367-1.425-5.41-2.226-8.354-2.999c-2.648-0.697-5.369-1.413-7.061-2.475
				c-0.436-0.273-0.936-0.417-1.449-0.417c-0.457,0-0.898,0.112-1.295,0.327c-0.162-0.172-0.326-0.339-0.492-0.498
				c-0.76-0.734-1.807-1.358-2.916-2.018l-0.059-0.035c-0.145-0.085-0.311-0.185-0.49-0.294c0.406-0.493,0.625-1.117,0.607-1.773
				c-0.01-0.343-0.045-0.674-0.107-0.986c-0.484-2.45-2.455-3.546-4.191-3.546c-0.084,0-0.166,0.003-0.25,0.01
				c-0.107,0.005-0.195,0.01-0.281,0.02c-0.074,0.009-0.158,0.022-0.242,0.039c-0.1,0.015-0.186,0.029-0.271,0.049l-0.002,0
				l-0.031,0.007c-0.039,0.01-0.076,0.02-0.113,0.031c-0.928,0.235-1.824,0.75-2.518,1.45c-0.867,0.873-1.393,1.96-1.52,3.147
				c-0.025,0.223-0.037,0.436-0.033,0.646c0.004,0.146,0.012,0.296,0.025,0.446c0.057,0.696,0.221,1.341,0.496,1.956
				c-0.172,0.004-0.348,0.016-0.523,0.035c-0.156-0.138-0.326-0.259-0.51-0.359c-0.404-0.217-0.854-0.331-1.305-0.331
				c-0.426,0-0.85,0.101-1.229,0.292c-1.391-2.03-4.176-3.254-8.084-3.548c-0.303-0.022-0.604-0.034-0.896-0.034
				c-4.379,0-7.189,2.312-8.609,3.912c-0.785-0.879-1.752-1.643-2.879-2.271c-2.094-1.171-4.633-1.815-7.152-1.815
				c-2.109,0-4.152,0.457-5.906,1.321c-1.809,0.891-2.906,2.34-3.203,4.215c-1.053-0.622-2.1-0.931-3.184-0.94
				c0.99-1.776,0.98-3.857-0.033-5.582C316.131,21.06,314.344,19.964,312.574,19.964L312.574,19.964z M305.279,35.7
				c0.559-0.316,1.66-0.759,2.045-0.914c0.742-0.298,1.432-0.576,1.986-0.888c0.494-0.277,1.074-0.564,1.688-0.868
				c0.648-0.32,1.361-0.671,2.064-1.062c0.025,0.113,0.059,0.224,0.098,0.332c-0.854,0.394-1.596,0.957-2.211,1.674
				c-1.326,1.543-1.859,3.59-1.5,5.763c0.213,1.277,0.82,2.452,1.406,3.588c0.588,1.141,1.25,2.423,1.088,3.164
				c-0.01,0.006-0.021,0.01-0.031,0.014c-0.488-0.416-1.121-0.652-1.77-0.652c-0.486,0-0.965,0.131-1.383,0.377
				c-0.084,0.051-0.164,0.104-0.24,0.16c-0.836-1.774-1.385-3.312-1.648-4.104l-0.156-0.457l-0.365,0.087l0.355-0.121
				C306.314,40.639,305.154,37.212,305.279,35.7L305.279,35.7z M330.223,32.829c0.055-0.033,0.238-0.117,0.547-0.117
				c0.404,0,0.699,0.151,0.799,0.252c0.506,0.519,1.215,0.817,1.945,0.817c0.045,0,0.092-0.001,0.137-0.003
				c-0.068,0.361-0.225,0.433-0.33,0.481l-0.168,0.076c-0.244,0.113-0.695,0.323-0.826,0.333c-0.049,0.002-0.1,0.003-0.145,0.003
				c-0.926,0-1.67-0.54-1.895-1.376C330.219,33.042,330.215,32.889,330.223,32.829L330.223,32.829z M345.01,34.062
				c0.613,0,1.213-0.208,1.689-0.585c0.234-0.187,0.986-0.521,1.641-0.521l0,0c0.055,0.312-0.027,0.624-0.248,0.952
				c-0.406,0.606-1.18,1.062-1.799,1.062c-0.041,0-0.084-0.003-0.125-0.008c-0.314-0.038-0.732-0.177-1.201-0.402
				c-0.129-0.062-0.264-0.126-0.266-0.515C344.803,34.056,344.906,34.062,345.01,34.062L345.01,34.062z M365.613,41.935
				c1.98-1.794,2.473-4.404,2.244-6.615c1.73,1.879,2.891,3.864,3.102,6.785c0.08,1.088-0.363,2.611-1.318,4.536
				c-0.064-0.064-0.131-0.125-0.201-0.182c-0.482-0.393-1.092-0.609-1.717-0.609c-0.453,0-0.902,0.115-1.301,0.332
				c-0.143,0.076-0.266,0.137-0.367,0.182c-0.014-0.043-0.027-0.09-0.041-0.141c-0.275-1.02-0.332-2.522-0.383-3.849v-0.04
				C365.623,42.201,365.619,42.068,365.613,41.935L365.613,41.935z M345.016,43.037c0.721,0,1.455-0.077,2.457-0.254
				c1.211-0.218,2.426-0.812,3.523-1.708c-0.283,0.877-0.562,1.751-0.84,2.615l-0.012,0.033l-0.369,1.148
				c-0.336-0.432-0.797-0.757-1.344-0.937l-0.004-0.001l-0.033-0.01l-0.055-0.016c-0.254-0.075-0.518-0.112-0.785-0.112
				c-1.014,0-1.951,0.545-2.449,1.421c-0.299,0.536-0.572,1.09-0.771,1.497l-0.035,0.07c-0.16,0.326-0.32,0.652-0.482,0.959
				c-0.486-0.084-0.973-0.154-1.492-0.227c-0.072-1.561-0.139-3.195-0.197-4.976C343.07,42.878,344,43.037,345.016,43.037
				L345.016,43.037z M333.668,42.817c0.949,0,1.836-0.143,2.645-0.425c-0.041,0.756-0.07,1.548-0.098,2.376l-0.004,0.091v0.008
				v0.029c-0.031,0.94-0.064,1.803-0.109,2.625c-0.523,0.072-1.01,0.152-1.475,0.24c-0.566-1.002-1.064-1.91-1.354-2.461
				c-0.449-0.849-1.287-1.403-2.225-1.493c0.322-0.23,0.594-0.533,0.791-0.892c0.043-0.077,0.082-0.156,0.117-0.238
				C332.549,42.771,333.123,42.817,333.668,42.817L333.668,42.817z M327.396,47.516c0.105-0.479,0.076-0.975-0.09-1.447
				c-0.299-0.852-0.598-1.747-0.889-2.62c0.803,0.375,1.635,0.644,2.52,0.816c0.074,0.015,0.15,0.026,0.227,0.035
				c-0.934,0.649-1.398,1.821-1.104,2.964c0.162,0.639,0.402,1.229,0.598,1.701c0.104,0.252,0.186,0.457,0.248,0.637
				c-0.234,0.139-0.463,0.283-0.684,0.428C328.176,49.146,327.891,48.279,327.396,47.516L327.396,47.516z M357.352,50.836
				c0.4-1.07,0.654-2.211,0.865-3.16c0.145-0.654,0.27-1.209,0.385-1.547l0.314-0.915l0.133-0.392l0.027-0.073
				c0.064-0.189,0.127-0.374,0.189-0.556c-0.002,0.187-0.008,0.372-0.012,0.552c-0.037,1.852-0.08,4.018,0.867,5.741
				c-0.033-0.01-0.07-0.018-0.109-0.023c-0.059-0.012-0.115-0.02-0.17-0.025l-0.043-0.01l-0.039-0.01h-0.041h-0.191h-0.068
				c-0.141,0.004-0.254,0.014-0.348,0.021c-0.096,0.006-0.154,0.008-0.211,0.016c-0.102,0.01-0.199,0.025-0.299,0.041l-0.039,0.008
				c-0.07,0.01-0.141,0.02-0.207,0.033c-0.086,0.018-0.166,0.037-0.242,0.057l-0.031,0.008c-0.102,0.023-0.184,0.045-0.26,0.068
				c-0.068,0.02-0.133,0.043-0.201,0.068h-0.002l-0.037,0.012C357.49,50.783,357.418,50.807,357.352,50.836L357.352,50.836z
				 M317.539,50.936c0.371-0.625,0.623-1.359,0.764-2.209c0.215,0.609,0.449,1.211,0.717,1.785c-0.006,0-0.012,0-0.018,0
				C318.475,50.512,317.969,50.66,317.539,50.936L317.539,50.936z M313.418,53.246c1.164,0,2.246-0.383,3.082-1.082
				c-0.301,0.719-0.277,1.545,0.098,2.262c0.168,0.324,0.381,0.594,0.592,0.822c-0.041,0.002-0.084,0.002-0.127,0.002
				c-0.377,0-0.742-0.062-1.051-0.18c-0.961-0.363-1.91-0.979-2.832-1.83C313.26,53.244,313.34,53.246,313.418,53.246
				L313.418,53.246z M362.207,53.447l0.014-0.047l0.012-0.047v-0.049V53.1c0-0.092-0.006-0.174-0.014-0.234
				c-0.002-0.043-0.012-0.119-0.023-0.203c-0.01-0.053-0.02-0.102-0.029-0.148c0.736,0.4,1.607,0.611,2.535,0.611
				c0.078,0,0.154-0.002,0.232-0.004c-1.047,0.949-2.348,1.852-3.598,1.971c0.025-0.021,0.049-0.043,0.072-0.066l0.006-0.004
				l0.023-0.023l0.004-0.004l0.021-0.023l0.057-0.061c0.102-0.107,0.201-0.234,0.289-0.369l0.02-0.027l0.039-0.068l0.002-0.004
				l0.008-0.012c0.094-0.166,0.17-0.336,0.229-0.521l0.01-0.035l0.021-0.072l0.002-0.008l0.016-0.061
				C362.176,53.637,362.195,53.543,362.207,53.447L362.207,53.447z"/>
		</g>
	</g>
	<path fill="#0A9995" stroke="#FFFFFF" stroke-linecap="round" stroke-linejoin="round" stroke-miterlimit="10" d="M366.967,24.615
		c-0.172-1.683-2.662-1.081-2.732,0.466c-0.1,2.195,4.822,3.968,6.408,5.5c2.238,2.16,3.033,4.622,4.617,6.339
		c0.549-2.02,0.395-4.339-0.941-5.407c4.043,2.538,11.33,3.016,15.455,5.5c1.463,0.881,3.953,3.922,2.355,6.153
		c-1.35,1.886-6.422,1.439-6.689-1.026c-0.221-2.009,2.193-2.161,3.484-1.025c-0.646,0.217-1.861,0.086-2.166,1.025
		c1.281,2.588,5.004,0.608,4.146-1.772c-1.334-3.711-8.385-3.428-12.064-4.847c-2.543,8.325-5.035,18.741-12.531,22.561
		c-2.973,1.512-10.055,2.035-9.896-2.705c0.658-1.15,1.324-2.295,3.109-2.33c-2.621,1.633-2.285,5.08,2.074,4.662
		c3.873-0.373,7.635-4.893,9.33-7.832c1.092-1.895,2.936-5.237,2.734-8.017c-0.447-6.15-3.455-9.903-8.105-12.491
		c-0.895-1.38-2.697-1.989-2.734-4.008C362.771,22.725,366.877,21.313,366.967,24.615z"/>
	<g>
		<path fill="#FFFFFF" d="M345.486,63.822c-4.672,0-9.354-0.008-14.036-0.016c-4.68-0.008-9.356-0.014-14.03-0.014
			c-3.595,0-6.81,0.004-9.822,0.014c-0.306,0-0.562-0.229-0.597-0.532c-0.036-0.304,0.173-0.591,0.478-0.651
			c0.486-0.094,0.998-0.164,1.495-0.231c0.864-0.12,1.759-0.243,2.478-0.493c0.053-0.018,0.142-0.031,0.197-0.031h27.141
			c2.272,0,4.631-0.023,6.922-0.046l0.692-0.006c2.31-0.021,4.685-0.042,7.005-0.042h0.002c4.934,0,11.306,0.085,16.831,0.75
			c0.306,0.033,0.54,0.305,0.528,0.617c-0.025,0.329-0.287,0.572-0.598,0.572C362.882,63.788,355.268,63.822,345.486,63.822z"/>
		<path fill="#FFFFFF" d="M353.41,62.273c4.914,0,11.266,0.084,16.771,0.746c0.053,0.006,0.09,0.051,0.088,0.102
			c-0.004,0.051-0.045,0.092-0.098,0.092c-7.156,0.074-14.77,0.109-24.686,0.109c-4.672,0-9.354-0.008-14.035-0.016
			c-4.68-0.008-9.357-0.014-14.031-0.014c-3.596,0-6.811,0.004-9.824,0.014c-0.051,0-0.092-0.039-0.098-0.09
			c-0.006-0.049,0.029-0.094,0.078-0.104c0.475-0.092,0.977-0.16,1.465-0.227c0.891-0.123,1.814-0.252,2.574-0.516
			c0.012-0.004,0.021-0.004,0.033-0.004h27.141c2.381,0,4.855-0.025,7.248-0.049c2.424-0.021,4.928-0.045,7.371-0.045l0.002,0.098
			V62.273 M353.41,61.273L353.41,61.273c-0.002,0-0.002,0-0.002,0c-2.322,0-4.698,0.021-7.009,0.042l-0.371,0.003l-0.322,0.003
			c-2.285,0.022-4.647,0.046-6.917,0.046h-27.141c-0.107,0-0.247,0.021-0.349,0.055c-0.685,0.238-1.555,0.358-2.396,0.475
			c-0.498,0.067-1.015,0.138-1.518,0.235c-0.564,0.112-0.949,0.641-0.882,1.204c0.063,0.552,0.533,0.971,1.091,0.971
			c3.016-0.01,6.229-0.014,9.824-0.014c4.673,0,9.351,0.006,14.029,0.014c4.683,0.008,9.364,0.016,14.037,0.016
			c9.783,0,17.399-0.034,24.696-0.109c0.56,0,1.04-0.446,1.084-1.015c0.024-0.611-0.405-1.109-0.975-1.173
			C364.749,61.359,358.358,61.273,353.41,61.273L353.41,61.273z"/>
	</g>
	<g>
		<g>
			<path fill="#0A9995" d="M316.369,70.67c-0.502,0-0.994-0.103-1.438-0.296c-0.176,0.075-0.395,0.16-0.701,0.16
				c-0.094,0-0.196-0.008-0.31-0.027c-0.189-0.033-0.344-0.172-0.396-0.357c-0.151-0.537-0.365-1.775-0.09-2.62
				c0.068-0.21,0.263-0.346,0.476-0.346c0.035,0,0.07,0.004,0.106,0.012c0.035-0.005,0.066-0.009,0.095-0.013
				c-0.211-0.164-0.388-0.364-0.509-0.613c-0.228-0.466-0.217-1.029,0.03-1.676c0.325-0.852,1.389-1.446,2.584-1.446
				c0.458,0,0.915,0.091,1.332,0.266c0.037-0.014,0.079-0.029,0.113-0.044c0.154-0.061,0.345-0.136,0.57-0.136
				c0.222,0,0.426,0.072,0.606,0.216c0.082,0.065,0.142,0.155,0.17,0.256c0.179,0.633,0.179,1.877,0,2.51
				c-0.025,0.089-0.073,0.165-0.136,0.226c0.054,0.056,0.105,0.115,0.152,0.181c0.523,0.71,0.615,1.49,0.258,2.195
				C318.813,70.046,317.643,70.67,316.369,70.67z M315.156,67.713c0.467,0.498,1.302,1.252,1.703,1.252
				c0.023-0.002,0.096-0.063,0.139-0.334c0.045-0.28-0.327-0.442-1.234-0.722C315.564,67.848,315.359,67.784,315.156,67.713z
				 M316.021,65.415c0.2,0.251,0.532,0.378,0.996,0.507c-0.018-0.019-0.034-0.038-0.052-0.057c-0.229-0.252-0.542-0.597-0.707-0.597
				C316.21,65.269,316.129,65.311,316.021,65.415z"/>
			<path fill="#FFFFFF" d="M316.217,63.947c0.419,0,0.857,0.087,1.275,0.287c0.247-0.014,0.491-0.201,0.74-0.201
				c0.098,0,0.195,0.028,0.295,0.107c0.154,0.547,0.154,1.691,0,2.238c-0.896-0.075-1.484-1.61-2.269-1.61
				c-0.254,0-0.528,0.161-0.841,0.585c0.518,1.344,2.482,0.881,3.205,1.863c1.125,1.529-0.489,2.953-2.254,2.953
				c-0.48,0-0.972-0.105-1.422-0.344c-0.226,0.082-0.408,0.208-0.717,0.208c-0.068,0-0.143-0.007-0.225-0.021
				c-0.168-0.596-0.312-1.664-0.096-2.33c0.053,0.012,0.098,0.016,0.139,0.016c0.119,0,0.196-0.037,0.295-0.037
				c0.039,0,0.081,0.006,0.131,0.021l0,0c-0.022,0,1.479,1.781,2.385,1.781c0.307,0,0.546-0.205,0.633-0.756
				c0.275-1.746-4.477-0.801-3.393-3.637C314.343,64.437,315.225,63.947,316.217,63.947 M316.218,62.947L316.218,62.947
				c-1.399,0-2.654,0.727-3.052,1.768c-0.299,0.781-0.303,1.479-0.014,2.073c0.026,0.054,0.055,0.105,0.085,0.156
				c-0.125,0.113-0.223,0.259-0.278,0.43c-0.312,0.957-0.094,2.28,0.084,2.911c0.105,0.371,0.414,0.648,0.794,0.714
				c0.134,0.023,0.267,0.035,0.394,0.035c0.287,0,0.518-0.058,0.699-0.122c0.453,0.169,0.942,0.258,1.439,0.258
				c1.457,0,2.808-0.734,3.36-1.828c0.429-0.847,0.336-1.808-0.252-2.649c0.004-0.015,0.009-0.028,0.013-0.042
				c0.205-0.728,0.205-2.054,0-2.781c-0.058-0.202-0.176-0.381-0.34-0.511c-0.268-0.213-0.585-0.325-0.918-0.325
				c-0.279,0-0.514,0.078-0.684,0.144C317.124,63.026,316.671,62.947,316.218,62.947L316.218,62.947z"/>
		</g>
		<g>
			<path fill="#0A9995" d="M353.192,70.724c-1.229-0.001-2.3-0.508-3.017-1.429c-0.812-1.041-1.019-2.232-0.583-3.354
				c0.473-1.216,1.674-2.152,3.061-2.387c0.305-0.051,0.61-0.077,0.908-0.077c2.055,0,3.589,1.216,3.817,3.025
				c0.127,1.007-0.177,1.986-0.856,2.757C355.715,70.176,354.47,70.724,353.192,70.724L353.192,70.724z M353.425,65.344
				c-0.097,0-0.198,0.011-0.304,0.032c-0.859,0.179-1.083,1.04-1.006,1.787c0.085,0.83,0.582,1.713,1.335,1.713
				c0.226,0,0.472-0.077,0.731-0.228c0.521-0.304,0.746-1.226,0.511-2.099C354.615,66.267,354.299,65.344,353.425,65.344z"/>
			<path fill="#FFFFFF" d="M353.562,63.977c1.731,0,3.116,0.966,3.321,2.588c0.273,2.161-1.73,3.659-3.69,3.659
				c-0.982,0-1.954-0.377-2.622-1.235c-1.676-2.15-0.09-4.561,2.166-4.941C353.018,64,353.294,63.977,353.562,63.977 M353.45,69.376
				c0.301,0,0.63-0.091,0.983-0.296c1.45-0.843,1.001-4.237-1.009-4.236c-0.129,0-0.264,0.014-0.405,0.043
				C350.741,65.36,351.445,69.376,353.45,69.376 M353.562,62.977c-0.325,0-0.659,0.028-0.991,0.084
				c-1.581,0.268-2.9,1.301-3.443,2.699c-0.495,1.273-0.257,2.674,0.654,3.843c0.813,1.045,2.024,1.621,3.411,1.621
				c1.418,0,2.804-0.611,3.706-1.635c0.775-0.88,1.122-1.998,0.977-3.149C357.613,64.368,355.88,62.977,353.562,62.977
				L353.562,62.977z M353.45,68.376c-0.424,0-0.775-0.654-0.838-1.265c-0.026-0.257-0.061-1.105,0.611-1.245
				c0.07-0.016,0.139-0.022,0.201-0.022l0,0c0.505,0,0.717,0.584,0.784,0.836c0.184,0.68,0.005,1.372-0.277,1.536
				C353.751,68.32,353.585,68.376,353.45,68.376L353.45,68.376z"/>
		</g>
		<g>
			<path fill="#0A9995" d="M360.829,70.556c-0.328,0-0.663-0.012-0.992-0.023c-0.306-0.012-0.606-0.022-0.891-0.022
				c0,0-0.27,0.004-0.274,0.004c-0.23,0-0.432-0.157-0.485-0.382c-0.15-0.618-0.128-1.562-0.112-2.186l0.006-0.27
				c0.002-0.141,0.063-0.274,0.168-0.367c0.093-0.082,0.211-0.126,0.332-0.126c0.018,0,0.035,0.001,0.053,0.003
				c0.051,0.005,0.1,0.013,0.147,0.022c-0.38-0.329-0.641-0.819-0.606-1.599c0.062-1.394,1.146-2.101,3.223-2.101
				c0.658,0,1.323,0.066,1.948,0.134c0.268,0.029,0.465,0.265,0.445,0.533c-0.019,0.251-0.008,0.529,0.002,0.808
				c0.021,0.548,0.04,1.113-0.125,1.566c-0.034,0.093-0.094,0.171-0.168,0.228c0.551,0.441,0.886,1.095,0.553,2.17
				c-0.498,1.602-2.394,1.607-3.214,1.607C360.835,70.556,360.832,70.556,360.829,70.556z M359.761,67.729
				c0.167,0.143,0.32,0.298,0.468,0.446c0.332,0.337,0.646,0.655,0.948,0.655c0.121,0,0.26-0.048,0.414-0.141
				c-0.186-0.445-0.645-0.603-1.362-0.815C360.079,67.831,359.921,67.784,359.761,67.729z M360.744,65.368
				c0.244,0.218,0.598,0.384,0.97,0.536c-0.008-0.009-0.016-0.017-0.023-0.025c-0.237-0.261-0.563-0.617-0.743-0.617
				C360.902,65.262,360.833,65.293,360.744,65.368z"/>
			<path fill="#FFFFFF" d="M361.396,64.01c0.658,0,1.333,0.07,1.895,0.131c-0.053,0.725,0.115,1.666-0.094,2.238
				c-0.858-0.113-1.459-1.617-2.25-1.617c-0.261,0-0.542,0.163-0.859,0.592c0.863,1.486,4.23,1.045,3.486,3.447
				c-0.334,1.075-1.49,1.255-2.745,1.255c-0.634,0-1.292-0.046-1.883-0.046c-0.093,0-0.185,0.001-0.274,0.004
				c-0.158-0.65-0.1-1.797-0.092-2.33c1.044,0.111,1.593,1.647,2.597,1.647c0.284,0,0.604-0.123,0.983-0.437
				c-0.316-2.121-3.592-0.877-3.486-3.262C358.731,64.312,360.028,64.01,361.396,64.01 M361.396,63.01
				c-3.14,0-3.68,1.616-3.722,2.579c-0.024,0.55,0.077,0.985,0.257,1.334c-0.005,0.004-0.01,0.008-0.015,0.013
				c-0.21,0.186-0.333,0.452-0.337,0.733l-0.006,0.265c-0.016,0.65-0.04,1.634,0.126,2.316c0.109,0.449,0.512,0.764,0.972,0.764
				c0.01,0,0.02,0,0.029,0c0.08-0.003,0.162-0.004,0.245-0.004c0.278,0,0.573,0.011,0.872,0.021
				c0.336,0.013,0.677,0.024,1.011,0.024c0.846,0,3.092,0,3.7-1.958c0.342-1.104,0.087-1.857-0.388-2.39
				c0.193-0.541,0.172-1.151,0.15-1.741c-0.01-0.277-0.02-0.54-0.004-0.754c0.039-0.537-0.354-1.009-0.89-1.066
				C362.76,63.077,362.08,63.01,361.396,63.01L361.396,63.01z"/>
		</g>
		<g>
			<path fill="#0A9995" d="M323.666,70.584c-0.906,0-1.863-0.179-2.243-0.272c-0.224-0.056-0.38-0.256-0.38-0.485v-0.371
				c0.049-0.739,0.787-0.765,1.037-0.772v-3.329c-0.132,0.032-0.21,0.133-0.37,0.385c-0.211,0.332-0.53,0.835-1.282,0.859
				c-0.005,0-0.011,0-0.016,0c-0.184,0-0.353-0.101-0.439-0.262c-0.43-0.794-0.493-1.453-0.191-1.96
				c0.485-0.814,1.722-0.919,2.744-0.919c0.687,0,1.439,0.058,2.103,0.107c0.566,0.044,1.094,0.085,1.514,0.085
				c0.097,0,0.291-0.009,0.302-0.009c0.139,0,0.272,0.058,0.367,0.161c0.103,0.11,0.149,0.261,0.128,0.41
				c-0.025,0.174-0.01,0.425,0.006,0.668c0.035,0.576,0.076,1.229-0.369,1.603c-0.09,0.075-0.204,0.117-0.321,0.117
				c-0.002,0-0.003,0-0.005,0c-0.77-0.007-1.079-0.52-1.284-0.858c-0.145-0.239-0.211-0.332-0.322-0.362
				c-0.118,0.526-0.088,1.259-0.058,1.972c0.019,0.446,0.037,0.904,0.022,1.335c0.028,0.003,0.059,0.007,0.085,0.011
				c0.284,0.036,0.95,0.122,1.023,0.797c0.009,0.079-0.002,0.16-0.031,0.235C325.461,70.304,324.8,70.584,323.666,70.584z"/>
			<path fill="#FFFFFF" d="M322.525,63.957c1.244,0,2.688,0.192,3.616,0.192c0.107,0,0.209-0.003,0.302-0.009
				c-0.09,0.627,0.203,1.629-0.189,1.959c-0.985-0.009-0.738-1.234-1.734-1.234c-0.074,0-0.155,0.007-0.244,0.021
				c-0.43,1.004-0.07,2.789-0.188,4.102c0.23,0.334,1.076,0.055,1.131,0.559c-0.159,0.41-0.819,0.537-1.553,0.537
				c-0.812,0-1.714-0.156-2.123-0.258c0-0.123,0-0.248,0-0.371c0.029-0.438,0.789-0.152,1.037-0.375c0-1.396,0-2.795,0-4.193
				c-0.142-0.031-0.266-0.045-0.375-0.045c-1.021,0-0.806,1.225-1.793,1.256C319.455,64.327,320.798,63.957,322.525,63.957
				 M326.443,64.141h0.005 M322.525,62.957c-1.154,0-2.56,0.132-3.174,1.163c-0.398,0.669-0.338,1.494,0.181,2.453
				c0.175,0.324,0.514,0.524,0.88,0.524c0.011,0,0.021,0,0.032-0.001c0.507-0.016,0.87-0.195,1.136-0.418v1.562
				c-0.834,0.187-1.01,0.776-1.035,1.147c-0.001,0.021-0.002,0.044-0.002,0.066v0.371c0,0.46,0.313,0.86,0.759,0.971
				c0.4,0.1,1.409,0.287,2.364,0.287c1.346,0,2.182-0.396,2.484-1.175c0.059-0.149,0.08-0.311,0.062-0.47
				c-0.065-0.606-0.436-1-1.101-1.172c-0.002-0.312-0.015-0.628-0.028-0.938c-0.009-0.218-0.019-0.444-0.023-0.666
				c0.271,0.236,0.648,0.431,1.185,0.436c0.003,0,0.006,0,0.009,0c0.235,0,0.463-0.083,0.644-0.234
				c0.638-0.536,0.585-1.392,0.546-2.017c-0.012-0.186-0.024-0.393-0.015-0.522c0.011-0.061,0.018-0.122,0.018-0.186
				c0-0.553-0.445-1-0.998-1h-0.003h-0.002c-0.004,0-0.008,0-0.012,0c-0.02,0-0.039,0.001-0.059,0.002
				c-0.071,0.005-0.148,0.007-0.231,0.007c-0.392,0-0.918-0.04-1.476-0.083C323.994,63.015,323.231,62.957,322.525,62.957
				L322.525,62.957z"/>
		</g>
		<g>
			<path fill="#0A9995" d="M331.797,70.802c-1.247,0-2.533-0.686-3.274-1.746c-0.721-1.029-0.896-2.32-0.509-3.67
				c-0.249-0.033-0.645-0.139-0.739-0.583c-0.033-0.359,0.059-0.628,0.256-0.842c0.313-0.34,0.867-0.512,1.646-0.512
				c0.5,0,1.88,0.121,2.288,0.672c0.276-0.428,0.93-0.666,1.876-0.666c0.18,0,1.771,0.021,2.197,0.699
				c0.035,0.056,0.059,0.118,0.069,0.184c0.045,0.271-0.003,0.502-0.142,0.688c-0.224,0.3-0.578,0.343-0.837,0.374
				c-0.025,0.003-0.056,0.007-0.085,0.011c-0.022,0.35,0.005,0.742,0.032,1.152c0.052,0.753,0.104,1.532-0.112,2.285
				C334.11,70.071,333.114,70.802,331.797,70.802L331.797,70.802z M330.858,68.645c0.271,0.093,0.512,0.14,0.717,0.14
				c0.283,0,0.487-0.087,0.644-0.273c0.407-0.485,0.504-1.634,0.265-3.091c-0.048-0.007-0.105-0.013-0.149-0.018
				c-0.238-0.024-0.688-0.07-0.903-0.42c-0.009,0.013-0.018,0.024-0.026,0.036c-0.205,0.267-0.515,0.328-0.763,0.361
				c0.008,0.354-0.009,0.727-0.024,1.089C330.581,67.321,330.539,68.281,330.858,68.645z"/>
			<path fill="#FFFFFF" d="M329.176,63.949c0.812,0,1.707,0.222,1.887,0.471c0.08,0.578-0.607,0.395-0.943,0.561
				c0.133,1.391-0.361,3.402,0.471,4.1c0.38,0.141,0.706,0.204,0.985,0.204c1.71,0,1.683-2.378,1.372-4.118
				c-0.131-0.432-1.047-0.084-1.131-0.559c0.028-0.468,0.756-0.652,1.523-0.652c0.779,0,1.602,0.19,1.773,0.465
				c0.111,0.67-0.785,0.342-1.037,0.652c-0.166,1.08,0.244,2.463-0.094,3.637c-0.316,1.098-1.203,1.593-2.186,1.593
				c-1.974,0-4.329-2.003-3.186-5.136c0.004-0.439-0.771-0.107-0.848-0.467C327.719,64.146,328.411,63.949,329.176,63.949
				 M329.176,62.949v1V62.949c-0.924,0-1.601,0.226-2.013,0.673c-0.29,0.314-0.431,0.726-0.396,1.157
				c0.004,0.043,0.01,0.085,0.019,0.127c0.061,0.286,0.225,0.617,0.632,0.817c-0.265,1.325-0.027,2.585,0.696,3.619
				c0.845,1.208,2.257,1.959,3.684,1.959c1.529,0,2.735-0.888,3.146-2.316c0.241-0.837,0.183-1.697,0.131-2.457
				c-0.017-0.239-0.032-0.473-0.037-0.69c0.271-0.063,0.592-0.196,0.828-0.513c0.154-0.205,0.319-0.558,0.234-1.069
				c-0.021-0.131-0.069-0.255-0.139-0.367c-0.544-0.866-2.144-0.934-2.621-0.934c-0.944,0-1.536,0.215-1.906,0.491
				C330.634,62.966,329.349,62.949,329.176,62.949L329.176,62.949z M331.142,65.78c0.095-0.032,0.192-0.073,0.287-0.129
				c0.17,0.099,0.375,0.17,0.614,0.214c0.159,1.24,0.022,2.051-0.207,2.324c-0.033,0.04-0.079,0.095-0.26,0.095
				c-0.084,0-0.213-0.013-0.396-0.062c-0.124-0.33-0.086-1.226-0.063-1.731C331.127,66.256,331.138,66.018,331.142,65.78
				L331.142,65.78z"/>
		</g>
		<g>
			<path fill="#0A9995" d="M338.61,70.688c-0.83,0-1.619-0.132-2.345-0.392c-0.156-0.056-0.274-0.185-0.315-0.344
				c-0.084-0.32-0.055-0.593,0.086-0.81c0.213-0.328,0.575-0.389,0.841-0.433v-3.324c-0.01-0.002-0.019-0.003-0.027-0.004
				c-0.233-0.026-0.854-0.098-0.914-0.73c-0.057-0.254,0.054-0.454,0.106-0.55c0.016-0.065,0.046-0.116,0.086-0.17
				c0.139-0.183,0.324-0.277,0.488-0.347c0.06-0.024,0.123-0.038,0.187-0.039c0.521-0.008,0.938-0.014,1.345-0.014
				c2.001,0,4.042,0.117,5.094,1.519c0.796,1.06,0.961,2.19,0.465,3.183C342.984,69.68,340.889,70.688,338.61,70.688L338.61,70.688z
				"/>
			<path fill="#FFFFFF" d="M338.147,64.033c2.083,0,3.827,0.164,4.694,1.318c2.016,2.687-1.031,4.837-4.232,4.837
				c-0.736,0-1.482-0.114-2.176-0.362c-0.197-0.754,0.607-0.518,0.943-0.746c0-1.305,0-2.609,0-3.916
				c-0.043-0.453-0.9-0.102-0.943-0.559c-0.041-0.193,0.062-0.246,0.094-0.371c0.066-0.088,0.172-0.141,0.283-0.188
				C337.268,64.04,337.715,64.033,338.147,64.033 M338.147,63.033c-0.408,0-0.83,0.006-1.261,0.013l-0.091,0.001
				c-0.128,0.002-0.255,0.028-0.373,0.078c-0.212,0.09-0.482,0.228-0.693,0.507c-0.06,0.078-0.106,0.165-0.141,0.256
				c-0.079,0.148-0.218,0.447-0.144,0.871c0.045,0.333,0.236,0.824,0.932,1.037v2.516c-0.262,0.084-0.553,0.24-0.761,0.56
				c-0.151,0.234-0.301,0.633-0.15,1.208c0.084,0.319,0.32,0.577,0.631,0.688c0.78,0.279,1.626,0.421,2.513,0.421
				c2.5,0,4.729-1.098,5.544-2.73c0.586-1.171,0.403-2.487-0.512-3.707C342.451,63.166,340.275,63.033,338.147,63.033
				L338.147,63.033z"/>
		</g>
		<g>
			<path fill="#0A9995" d="M346.658,70.536c-0.69,0-1.339-0.044-1.824-0.123c-0.205-0.033-0.368-0.189-0.41-0.393
				c-0.083-0.406-0.023-0.736,0.177-0.981c0.216-0.265,0.529-0.344,0.757-0.368V65.4c-0.015-0.002-0.028-0.003-0.041-0.004
				c-0.216-0.017-0.483-0.038-0.704-0.205c-0.099-0.074-0.166-0.183-0.189-0.304c-0.057-0.294,0.019-0.585,0.212-0.818
				c0.492-0.596,1.569-0.66,2.01-0.66c0.349,0,1.525,0.048,2.038,0.668c0.191,0.232,0.267,0.52,0.211,0.811
				c-0.017,0.085-0.055,0.164-0.111,0.23c-0.231,0.271-0.589,0.271-0.742,0.271l-0.138-0.002c-0.069,0.59-0.054,1.292-0.038,1.975
				c0.011,0.447,0.021,0.896,0.009,1.322c0.042,0.01,0.089,0.02,0.126,0.027c0.249,0.053,0.624,0.131,0.828,0.475
				c0.142,0.237,0.159,0.524,0.055,0.877c-0.055,0.184-0.21,0.32-0.399,0.351C347.997,70.492,347.349,70.536,346.658,70.536z"/>
			<path fill="#FFFFFF" d="M346.645,63.909c0.933,0,1.871,0.297,1.758,0.884c-0.07,0.082-0.209,0.096-0.362,0.096
				c-0.072,0-0.147-0.004-0.221-0.004c-0.152,0-0.291,0.014-0.36,0.096c-0.215,1.121-0.033,2.637-0.094,3.914
				c0.17,0.516,1.326,0.055,1.037,1.025c-0.476,0.077-1.109,0.115-1.744,0.115s-1.269-0.038-1.744-0.115
				c-0.123-0.599,0.194-0.76,0.675-0.76c0.085,0,0.175,0.005,0.269,0.014c0-1.365,0-2.732,0-4.102
				c-0.15-0.254-0.711-0.104-0.943-0.279C344.801,64.201,345.72,63.909,346.645,63.909 M346.645,62.909v1V62.909
				c-0.635,0-1.79,0.109-2.396,0.842c-0.289,0.351-0.402,0.787-0.317,1.23c0.047,0.243,0.182,0.46,0.379,0.609
				c0.179,0.135,0.37,0.207,0.547,0.247v2.437c-0.262,0.094-0.477,0.243-0.645,0.448c-0.206,0.253-0.422,0.7-0.278,1.398
				c0.083,0.406,0.409,0.72,0.819,0.786c0.512,0.083,1.188,0.128,1.904,0.128s1.393-0.045,1.904-0.128
				c0.379-0.062,0.688-0.334,0.798-0.702c0.146-0.487,0.11-0.917-0.104-1.275c-0.232-0.392-0.59-0.557-0.879-0.641
				c0.001-0.313-0.007-0.63-0.014-0.939c-0.012-0.505-0.023-1.021,0-1.483c0.243-0.037,0.557-0.141,0.798-0.423
				c0.113-0.132,0.189-0.291,0.223-0.462c0.084-0.439-0.028-0.873-0.316-1.223C348.435,62.992,347.162,62.909,346.645,62.909
				L346.645,62.909z"/>
		</g>
		<path fill="#FFFFFF" stroke="#FFFFFF" stroke-linecap="round" stroke-linejoin="round" stroke-miterlimit="10" d="M339.406,67.406
			c-0.004-0.806-0.125-1.041-0.125-1.781c3.637-0.795,1.531,3.625,0,3.438C339.297,68.672,339.409,68.122,339.406,67.406"/>
	</g>
	<g>
		<path fill="#0A9995" d="M356.566,62.234c-1.208,0-2.423-0.005-3.639-0.01l-0.92-0.004c-1.52-0.008-3.04-0.016-4.553-0.016
			c-1.174,0-2.219,0.004-3.196,0.014c-0.315,0-0.577-0.242-0.601-0.552c-0.169-1.974-2.406-2.874-4.414-2.874
			c-2.029,0-4.296,0.901-4.479,2.882c-0.023,0.302-0.284,0.544-0.594,0.544h-20.166c-0.332,0-0.602-0.268-0.602-0.596
			c0-0.323,0.253-0.587,0.576-0.6c3.438-0.07,9.165-1.91,10.049-4.308c0.306-0.827-0.051-1.667-1.088-2.566
			c-0.248-0.213-0.277-0.591-0.063-0.84c0.096-0.111,0.309-0.208,0.454-0.208c0.133,0,0.265,0.045,0.369,0.127
			c0.57,0.448,1.12,0.666,1.684,0.666c1.041,0,2.078-0.729,3.176-1.499c0.855-0.599,1.736-1.215,2.721-1.574
			c0.117-1.021-0.223-1.854-0.58-2.732c-0.195-0.47-0.382-0.936-0.503-1.424c-0.08-0.272,0.076-0.589,0.361-0.701
			c0.059-0.022,0.157-0.04,0.22-0.04c0.222,0,0.424,0.122,0.527,0.318c0.495,0.95,1.479,2.703,2.205,3.957
			c1.503-0.41,3.158-0.625,4.646-0.774c0.154-1.429,0.209-3.061,0.257-4.514c0.053-1.575,0.104-3.062,0.251-4.332
			c0.036-0.301,0.292-0.527,0.595-0.527c0.344,0.014,0.596,0.275,0.596,0.594c0.106,3.42,0.219,6.209,0.353,8.719
			c0.419,0.064,0.845,0.124,1.261,0.182c1.133,0.156,2.333,0.321,3.411,0.588c0.55-0.717,0.983-1.598,1.404-2.453
			c0.264-0.535,0.496-1.006,0.747-1.452c0.088-0.157,0.341-0.306,0.521-0.306c0.075,0,0.146,0.014,0.215,0.042
			c0.229,0.067,0.405,0.329,0.381,0.608c-0.064,0.603-0.281,1.155-0.49,1.69c-0.271,0.682-0.565,1.427-0.569,2.325
			c0.922,0.274,1.904,1.104,2.858,1.909c0.882,0.743,1.876,1.581,2.465,1.632c0.001,0,0.003,0,0.005,0
			c0.425,0,0.844-0.287,1.286-0.592c0.447-0.305,0.949-0.647,1.527-0.792c0.039-0.01,0.08-0.015,0.121-0.015
			c0.002,0,0.004,0,0.006,0c0.248,0,0.453,0.127,0.555,0.331c0.13,0.271,0.046,0.584-0.193,0.752
			c-1.744,1.23-1.458,2.171-1.363,2.48c0.709,2.326,6.191,4.494,10.182,4.638c0.323,0.012,0.576,0.273,0.576,0.596
			s-0.254,0.584-0.578,0.596C362.271,62.2,359.813,62.234,356.566,62.234z M347.067,59.969c0.63,0.032,1.343,0.047,2.216,0.047
			c0.486,0,0.975-0.005,1.464-0.01l0.373-0.004c0.618-0.008,1.237-0.014,1.847-0.014c0.19,0,0.372,0.001,0.547,0.002
			c-0.333-1.394-0.939-2.517-1.811-3.35c-0.603,0.493-1.286,0.88-1.951,1.257C348.631,58.528,347.658,59.077,347.067,59.969z
			 M331.35,60.002c-0.636-0.952-1.818-1.622-2.969-2.274c-0.556-0.312-1.171-0.658-1.733-1.053
			c-0.731,0.943-1.436,1.953-1.754,3.327H331.35z M345.882,52.77c-0.177,0.473-0.434,0.968-0.7,1.484
			c-0.907,1.746-1.403,2.881-0.568,3.609c0.949-0.417,1.875-0.882,2.773-1.332c1.014-0.51,1.91-0.956,2.817-1.362
			C349.125,54.152,347.701,53.362,345.882,52.77z M328.221,55.182c0.676,0.312,1.338,0.639,1.984,0.958
			c1.164,0.578,2.413,1.199,3.72,1.71c0.754-0.939,0.149-2.268-0.774-4.003c-0.19-0.358-0.387-0.725-0.547-1.077
			C330.675,53.449,329.257,54.229,328.221,55.182z M340.371,52.397c0.032,2.128,0.129,3.518,1.081,3.946
			c0.368-0.833,0.818-1.577,1.255-2.3c0.373-0.619,0.757-1.256,1.079-1.939c-0.104-0.021-0.548-0.108-0.548-0.108
			c-0.9-0.182-1.826-0.368-2.883-0.401C340.363,51.862,340.367,52.132,340.371,52.397z M334.677,52.141
			c0.706,1.35,1.507,2.829,2.381,4.197c0.8-0.43,0.918-1.649,1.003-3.502c0.019-0.408,0.036-0.807,0.068-1.191
			c-0.051-0.001-0.103-0.002-0.154-0.002C336.859,51.643,335.72,51.888,334.677,52.141z"/>
		<path fill="#FFFFFF" d="M339.262,40.552c0.055,0.002,0.094,0.043,0.094,0.094c0.109,3.536,0.227,6.446,0.375,9.149
			c0.572,0.096,1.168,0.178,1.744,0.258c1.221,0.168,2.482,0.344,3.592,0.646c0.684-0.801,1.184-1.816,1.666-2.797
			c0.234-0.475,0.475-0.965,0.734-1.428c0.02-0.031,0.051-0.051,0.086-0.051c0.012,0,0.02,0.002,0.029,0.006
			c0.045,0.014,0.072,0.057,0.068,0.102c-0.057,0.531-0.256,1.035-0.465,1.568c-0.32,0.809-0.68,1.725-0.58,2.9
			c0.887,0.082,1.971,0.996,3.02,1.881c0.982,0.828,1.996,1.684,2.744,1.748c0.033,0.002,0.066,0.004,0.102,0.004
			c0.52,0,1.004-0.33,1.516-0.682c0.43-0.293,0.873-0.596,1.365-0.719c0.008,0,0.016-0.002,0.021-0.002
			c0.039,0,0.074,0.021,0.092,0.057c0.02,0.041,0.006,0.092-0.033,0.119c-1.354,0.955-1.877,1.977-1.555,3.035
			c0.787,2.582,6.465,4.842,10.643,4.992c0.055,0.002,0.094,0.045,0.094,0.096s-0.041,0.094-0.096,0.096
			c-2.273,0.076-4.725,0.109-7.951,0.109c-1.512,0-3.035-0.008-4.557-0.014c-1.52-0.008-3.041-0.016-4.555-0.016
			c-1.176,0-2.223,0.004-3.201,0.014c-0.051,0-0.094-0.039-0.098-0.09c-0.195-2.291-2.684-3.336-4.912-3.336
			c-2.248,0-4.766,1.045-4.977,3.336c-0.004,0.051-0.045,0.09-0.096,0.09h-20.166c-0.057,0-0.102-0.043-0.102-0.096
			c0-0.055,0.045-0.098,0.096-0.1c3.527-0.072,9.512-1.957,10.498-4.635c0.381-1.031-0.033-2.08-1.229-3.117
			c-0.041-0.035-0.047-0.096-0.012-0.137c0.018-0.021,0.047-0.033,0.074-0.033c0.023,0,0.045,0.008,0.062,0.021
			c0.66,0.52,1.314,0.771,1.99,0.771c1.191,0,2.295-0.77,3.463-1.59c0.91-0.637,1.854-1.295,2.881-1.605
			c0.25-1.299-0.164-2.316-0.564-3.299c-0.182-0.438-0.365-0.891-0.48-1.355c-0.014-0.047,0.014-0.098,0.059-0.115
			c0.014-0.004,0.023-0.006,0.037-0.006c0.037,0,0.068,0.02,0.086,0.053c0.535,1.027,1.654,3.016,2.41,4.311
			c1.686-0.508,3.633-0.742,5.332-0.904c0.188-1.496,0.25-3.254,0.307-4.956c0.053-1.569,0.104-3.052,0.248-4.29
			c0.006-0.049,0.049-0.085,0.098-0.085H339.262 M341.742,56.947c0.379-0.967,0.895-1.82,1.393-2.645
			c0.486-0.807,0.988-1.641,1.361-2.576c-0.395-0.066-0.783-0.146-1.162-0.221c-1.016-0.205-2.064-0.416-3.305-0.416
			c-0.064,0-0.129,0-0.193,0.002c0.021,0.43,0.029,0.877,0.035,1.312C339.904,54.58,339.934,56.639,341.742,56.947 M336.855,56.945
			c1.537-0.375,1.617-2.184,1.705-4.098c0.025-0.561,0.051-1.139,0.119-1.672c-0.227-0.021-0.463-0.033-0.705-0.033
			c-1.346,0-2.699,0.334-3.893,0.629l-0.143,0.035C334.822,53.508,335.775,55.301,336.855,56.945 M344.547,58.438
			c1.08-0.463,2.125-0.988,3.135-1.494c1.086-0.547,2.211-1.109,3.385-1.604c-1.27-1.426-3.074-2.473-5.512-3.195
			c-0.139,0.572-0.479,1.225-0.834,1.912C343.861,55.711,342.977,57.42,344.547,58.438 M334.057,58.436
			c1.418-1.279,0.42-3.162-0.465-4.824c-0.281-0.527-0.547-1.029-0.707-1.467c-2.57,0.854-4.332,1.871-5.525,3.197
			c0.92,0.404,1.816,0.848,2.684,1.275C331.32,57.252,332.645,57.906,334.057,58.436 M349.283,60.516
			c0.611,0,1.227-0.008,1.842-0.014c0.617-0.008,1.234-0.014,1.842-0.014c0.424,0,0.807,0.004,1.162,0.01
			c-0.344-1.963-1.158-3.484-2.424-4.523c-0.643,0.609-1.449,1.062-2.232,1.506c-1.352,0.762-2.629,1.48-3.197,2.938
			C347.113,60.486,348.049,60.516,349.283,60.516 M324.293,60.502h7.859c-0.512-1.5-2.043-2.369-3.525-3.209
			c-0.719-0.404-1.459-0.824-2.072-1.311C325.572,57.23,324.572,58.531,324.293,60.502 M339.262,39.552h-0.002
			c-0.557,0-1.025,0.416-1.091,0.967c-0.15,1.292-0.201,2.79-0.254,4.375c-0.044,1.311-0.093,2.765-0.215,4.075
			c-1.275,0.137-2.651,0.328-3.945,0.65c-0.696-1.211-1.554-2.743-2.003-3.604c-0.194-0.366-0.565-0.591-0.973-0.591
			c-0.093,0-0.223,0.019-0.312,0.044c-0.03,0.009-0.06,0.019-0.089,0.03c-0.524,0.205-0.812,0.788-0.654,1.327
			c0.119,0.482,0.312,0.967,0.517,1.459c0.306,0.75,0.579,1.42,0.563,2.188c-0.929,0.394-1.771,0.981-2.529,1.513
			c-1.032,0.726-2.007,1.409-2.89,1.409c-0.446,0-0.896-0.183-1.372-0.558c-0.196-0.153-0.437-0.235-0.681-0.235
			c-0.331,0-0.641,0.146-0.849,0.4c-0.378,0.441-0.324,1.135,0.136,1.528c1.275,1.107,1.023,1.788,0.94,2.012
			c-0.724,1.965-6.011,3.908-9.58,3.981c-0.61,0.023-1.075,0.506-1.075,1.1c0,0.604,0.494,1.096,1.102,1.096h20.166
			c0.569,0,1.049-0.445,1.093-1.013c0.152-1.653,2.17-2.413,3.979-2.413c1.786,0,3.773,0.758,3.916,2.421
			c0.043,0.56,0.523,1.005,1.094,1.005c0.985-0.01,2.029-0.014,3.201-0.014c1.512,0,3.031,0.008,4.55,0.016l0.914,0.004
			c1.219,0.005,2.437,0.01,3.647,0.01c3.253,0,5.716-0.034,7.984-0.11c0.597-0.021,1.062-0.502,1.062-1.095
			s-0.465-1.074-1.059-1.095c-4.135-0.149-9.132-2.352-9.721-4.285c-0.068-0.223-0.275-0.903,1.174-1.926
			c0.438-0.307,0.591-0.882,0.359-1.366c-0.195-0.394-0.574-0.627-0.994-0.627c-0.032,0-0.069,0.002-0.104,0.005
			c-0.054,0.005-0.107,0.014-0.16,0.027c-0.665,0.166-1.206,0.535-1.684,0.86c-0.351,0.241-0.742,0.51-0.955,0.51
			c-0.446-0.037-1.542-0.961-2.196-1.512c-0.876-0.739-1.771-1.494-2.668-1.875c0.063-0.653,0.289-1.223,0.509-1.778
			c0.23-0.587,0.459-1.172,0.529-1.83c0.047-0.533-0.278-1.015-0.771-1.165l0,0c-0.104-0.031-0.221-0.049-0.32-0.049
			c-0.381,0-0.73,0.194-0.934,0.521c-0.283,0.502-0.519,0.979-0.746,1.439l-0.037,0.076c-0.359,0.73-0.729,1.48-1.165,2.111
			c-1.011-0.228-2.088-0.376-3.06-0.509l-0.074-0.011c-0.281-0.039-0.566-0.079-0.852-0.12c-0.124-2.4-0.23-5.07-0.33-8.316
			c0-0.556-0.461-1.036-1.049-1.062C339.291,39.552,339.276,39.552,339.262,39.552L339.262,39.552z M341.283,55.534
			c-0.326-0.53-0.388-1.549-0.412-3.138c-0.001-0.09-0.003-0.181-0.004-0.271c0.771,0.062,1.483,0.202,2.176,0.343
			c-0.242,0.452-0.506,0.89-0.765,1.318C341.941,54.345,341.596,54.916,341.283,55.534L341.283,55.534z M335.421,52.479
			c0.709-0.158,1.448-0.291,2.172-0.327c-0.011,0.208-0.021,0.416-0.03,0.621c-0.06,1.303-0.129,2.247-0.414,2.766
			C336.53,54.533,335.951,53.481,335.421,52.479L335.421,52.479z M329.144,55.064c0.834-0.628,1.886-1.175,3.206-1.671
			c0.118,0.235,0.242,0.469,0.359,0.688c0.825,1.55,1.217,2.493,0.997,3.141c-1.142-0.47-2.234-1.013-3.218-1.501l-0.062-0.03
			C330.006,55.483,329.578,55.273,329.144,55.064L329.144,55.064z M344.758,57.251c-0.216-0.442,0.036-1.165,0.851-2.733
			c0.202-0.391,0.395-0.763,0.556-1.123c1.242,0.443,2.276,0.988,3.121,1.646c-0.67,0.315-1.342,0.651-2.054,1.009l-0.068,0.035
			C346.381,56.477,345.576,56.88,344.758,57.251L344.758,57.251z M348.163,59.506c0.5-0.421,1.123-0.772,1.797-1.152
			c0.581-0.328,1.157-0.655,1.693-1.043c0.522,0.591,0.924,1.319,1.201,2.178c-0.575,0.001-1.159,0.007-1.742,0.014l-0.368,0.004
			c-0.488,0.005-0.976,0.01-1.461,0.01C348.877,59.516,348.507,59.513,348.163,59.506L348.163,59.506z M325.56,59.502
			c0.287-0.82,0.726-1.508,1.201-2.149c0.462,0.298,0.937,0.565,1.376,0.812c0.765,0.434,1.507,0.854,2.082,1.338H325.56
			L325.56,59.502z"/>
	</g>
	<g>
		<g>
			<path fill="#0A9995" d="M317.495,59.763c-2.077,0-4.511-0.592-5.917-1.439c-7.399-4.462-10.556-14.189-12.452-22.34
				c-1.173,0.367-2.453,0.627-3.697,0.879c-2.015,0.409-4.098,0.832-5.58,1.7c-1.068,0.626-2.194,1.567-2.304,2.258
				c-0.082,0.516,0.022,0.948,0.309,1.283c0.35,0.41,0.977,0.664,1.636,0.664c0.475,0,0.893-0.135,1.118-0.361
				c0.124-0.125,0.185-0.272,0.184-0.451c-0.001-0.286-0.359-0.477-0.694-0.477c-0.147,0-0.361,0.034-0.547,0.198
				c-0.094,0.083-0.212,0.125-0.331,0.125c-0.086,0-0.173-0.022-0.251-0.068c-0.187-0.108-0.282-0.323-0.238-0.534
				c0.186-0.895,1.03-1.497,2.103-1.497c0.735,0,1.401,0.29,1.828,0.796c0.293,0.347,0.607,0.961,0.444,1.913
				c-0.249,1.453-1.646,2.356-3.646,2.356c-1.479,0-3.382-0.572-4.07-1.828c-0.631-1.151-0.699-2.292-0.202-3.393
				c1.157-2.56,5.024-4.041,7.127-4.513c5.293-1.187,11.596-3.75,17.294-7.03c0.208-0.12,0.452-0.25,0.716-0.389
				c1.306-0.692,3.28-1.739,3.004-2.985c-0.1-0.453-0.512-0.656-0.876-0.656c-0.159,0-0.687,0.045-0.778,0.626
				c-0.039,0.244-0.25,0.421-0.494,0.421c-0.013,0-0.025,0-0.039-0.001c-0.26-0.021-0.461-0.237-0.461-0.498
				c-0.001-0.766,0.175-1.37,0.522-1.796c0.333-0.408,0.82-0.633,1.371-0.633c0.991,0,2.058,0.694,2.654,1.727
				c0.625,1.082,0.612,2.346-0.034,3.468c-0.949,1.644-3.096,2.706-5.172,3.733c-0.634,0.313-1.251,0.618-1.802,0.928
				c-0.431,0.241-1.054,0.492-1.714,0.757c-1.199,0.482-3.011,1.21-3.244,1.864c-0.671,1.881,0.642,5.766,1.347,7.853l0.165,0.49
				c1.172,3.504,4.537,11.896,10.447,14.14c0.559,0.213,1.196,0.325,1.843,0.325c1.242,0,2.382-0.4,3.005-1.05
				c0.304-0.956-0.257-1.616-0.965-2.315c-0.244-0.241-0.437-0.432-0.546-0.644c-0.092-0.179-0.068-0.396,0.061-0.55
				c0.097-0.116,0.238-0.18,0.384-0.18c0.049,0,0.098,0.007,0.146,0.021c1.103,0.336,2.492,1.133,3.086,2.361
				c0.362,0.75,0.383,1.581,0.06,2.401C321.696,58.933,319.993,59.763,317.495,59.763z"/>
			<path fill="#FFFFFF" d="M312.571,22.593c1.501,0,3.509,2.152,2.187,4.445c-1.158,2.007-4.518,3.2-6.785,4.475
				c-1.311,0.736-4.738,1.641-5.184,2.89c-0.785,2.199,0.783,6.499,1.508,8.669c1.887,5.639,5.426,12.43,10.744,14.449
				c0.639,0.243,1.335,0.357,2.021,0.357c1.385,0,2.723-0.469,3.444-1.289c0.678-1.85-1.213-2.881-1.506-3.449
				c1.646,0.502,3.66,1.982,2.826,4.102c-0.585,1.482-2.37,2.021-4.331,2.021c-2.111,0-4.426-0.625-5.659-1.368
				c-7.088-4.273-10.33-13.719-12.346-22.56c-3.139,1.111-7.271,1.259-9.895,2.796c-0.98,0.575-2.389,1.626-2.545,2.61
				c-0.27,1.713,1.166,2.525,2.438,2.525c0.947,0,1.805-0.45,1.802-1.313c-0.001-0.584-0.582-0.976-1.194-0.976
				c-0.309,0-0.624,0.099-0.878,0.323c0.149-0.72,0.87-1.098,1.613-1.098c0.994,0,2.027,0.679,1.779,2.124
				c-0.232,1.358-1.654,1.94-3.153,1.94c-1.508,0-3.095-0.589-3.632-1.568c-2.074-3.785,3.25-6.427,6.596-7.177
				c5.709-1.28,12.164-4.05,17.434-7.084c1.383-0.796,4.379-2.018,3.959-3.916c-0.152-0.691-0.766-1.048-1.364-1.048
				c-0.587,0-1.16,0.342-1.272,1.048C311.177,23.148,311.809,22.593,312.571,22.593 M312.571,21.593L312.571,21.593
				c-0.627,0-1.182,0.224-1.604,0.647c-0.524,0.525-0.79,1.293-0.789,2.283c0,0.521,0.401,0.955,0.922,0.996
				c0.026,0.002,0.053,0.003,0.079,0.003c0.487,0,0.909-0.354,0.986-0.843c0.011-0.066,0.033-0.205,0.285-0.205
				c0.055,0,0.333,0.013,0.388,0.263c0.193,0.876-1.649,1.853-2.75,2.437c-0.27,0.143-0.519,0.275-0.731,0.397
				c-5.655,3.257-11.908,5.799-17.153,6.976c-2.193,0.492-6.235,2.055-7.474,4.795c-0.557,1.233-0.48,2.56,0.22,3.838
				c0.79,1.442,2.834,2.088,4.509,2.088c2.26,0,3.846-1.062,4.139-2.771c0.196-1.141-0.193-1.891-0.554-2.319
				c-0.522-0.619-1.328-0.974-2.211-0.974c-1.315,0-2.357,0.761-2.593,1.895c-0.069,0.336,0.039,0.678,0.274,0.913
				c-0.11-0.067-0.206-0.146-0.28-0.233c-0.189-0.222-0.253-0.509-0.194-0.88c0.06-0.376,0.848-1.191,2.062-1.903
				c1.411-0.827,3.361-1.223,5.427-1.642c1.078-0.219,2.184-0.443,3.232-0.739c1.933,8.138,5.157,17.676,12.559,22.138
				c1.478,0.89,4.017,1.512,6.176,1.512c2.718,0,4.586-0.942,5.261-2.653c0.376-0.955,0.351-1.924-0.074-2.804
				c-0.835-1.729-2.806-2.443-3.39-2.622c-0.097-0.029-0.194-0.043-0.292-0.043c-0.292,0-0.574,0.128-0.768,0.359
				c-0.258,0.309-0.306,0.741-0.121,1.099c0.146,0.283,0.374,0.509,0.639,0.771c0.693,0.686,1.004,1.12,0.871,1.696
				c-0.545,0.499-1.521,0.813-2.56,0.813c-0.587,0-1.162-0.101-1.665-0.292c-5.711-2.169-9.002-10.396-10.151-13.832l-0.165-0.491
				c-0.686-2.029-1.962-5.807-1.35-7.524c0.212-0.464,2.068-1.21,2.96-1.569c0.676-0.271,1.313-0.528,1.771-0.785
				c0.536-0.301,1.14-0.6,1.779-0.917c2.043-1.01,4.358-2.156,5.383-3.931c0.738-1.281,0.751-2.728,0.035-3.968
				C314.976,22.388,313.735,21.593,312.571,21.593L312.571,21.593L312.571,21.593z M289.479,42.267
				c0.146-0.039,0.283-0.111,0.401-0.216c0.068-0.06,0.155-0.073,0.216-0.073c0.08,0,0.144,0.021,0.184,0.041
				c-0.006,0.012-0.015,0.021-0.026,0.034c-0.106,0.106-0.384,0.214-0.765,0.214C289.486,42.267,289.482,42.267,289.479,42.267
				L289.479,42.267z"/>
		</g>
	</g>
	<g>
		<path fill="#0A9995" d="M361.403,59.648c-1.396,0-3.311-0.258-4.497-1.484c-0.697-0.721-1.032-1.664-0.994-2.802
			c0.003-0.081,0.025-0.161,0.065-0.231c0.647-1.133,1.453-2.543,3.534-2.584c0.003,0,0.007,0,0.01,0
			c0.221,0,0.416,0.146,0.479,0.357c0.063,0.216-0.024,0.448-0.215,0.566c-1.046,0.652-1.609,1.689-1.371,2.522
			c0.228,0.795,1.132,1.251,2.479,1.251c0.206,0,0.424-0.011,0.652-0.033c3.83-0.368,7.527-5.122,8.946-7.584
			c0.858-1.487,2.869-4.972,2.667-7.729c-0.382-5.261-3.284-7.905-6.646-10.966c-0.43-0.392-0.865-0.789-1.303-1.197
			c-0.204-0.19-0.417-0.374-0.629-0.556c-1.044-0.898-2.227-1.916-2.262-3.808c-0.015-0.818,0.307-1.604,0.905-2.215
			c0.593-0.604,1.396-0.965,2.147-0.965c0.98,0,2.045,0.633,2.094,2.411c0.007,0.269-0.199,0.495-0.468,0.513
			c-0.011,0-0.021,0.001-0.032,0.001c-0.255,0-0.472-0.192-0.497-0.449c-0.015-0.139-0.058-0.561-0.595-0.561
			c-0.519,0-1.114,0.41-1.142,0.999c-0.053,1.154,2.046,2.4,3.731,3.402c1.001,0.595,1.946,1.156,2.525,1.716
			c1.313,1.269,2.156,2.652,2.899,3.872c0.363,0.595,0.712,1.168,1.092,1.691c0.209-1.51-0.007-3.106-0.976-3.881
			c-0.207-0.166-0.249-0.464-0.095-0.68c0.097-0.137,0.251-0.21,0.407-0.21c0.092,0,0.184,0.025,0.266,0.077
			c1.983,1.245,4.874,2.005,7.67,2.739c2.792,0.734,5.68,1.493,7.775,2.756c1.029,0.619,2.649,2.323,3.031,4.172
			c0.207,0.999,0.025,1.932-0.525,2.7c-0.616,0.86-1.891,1.374-3.409,1.374c-1.877,0-3.987-0.825-4.186-2.636
			c-0.09-0.825,0.197-1.34,0.454-1.626c0.383-0.427,0.973-0.662,1.658-0.662c0.785,0,1.608,0.311,2.201,0.833
			c0.135,0.118,0.195,0.299,0.16,0.474c-0.035,0.175-0.161,0.318-0.331,0.375c-0.194,0.066-0.435,0.106-0.689,0.146
			c-0.53,0.083-0.895,0.157-1.072,0.39c0.38,0.602,0.895,0.735,1.277,0.735c0.619,0,1.259-0.342,1.631-0.872
			c0.22-0.312,0.433-0.817,0.204-1.45c-0.817-2.271-4.207-2.902-7.484-3.512c-1.372-0.255-2.678-0.498-3.783-0.859
			c-0.173,0.573-0.347,1.155-0.522,1.743c-2.382,7.986-5.082,17.037-12.11,20.617C365.175,59.219,363.209,59.648,361.403,59.648z"/>
		<path fill="#FFFFFF" d="M365.373,22.69c0.832,0,1.557,0.559,1.594,1.925c-0.072-0.707-0.553-1.01-1.092-1.01
			c-0.745,0-1.6,0.58-1.641,1.477c-0.102,2.196,4.822,3.967,6.408,5.5c2.236,2.16,3.033,4.622,4.617,6.339
			c0.547-2.02,0.395-4.338-0.941-5.407c4.043,2.538,11.33,3.016,15.453,5.5c1.465,0.881,3.955,3.923,2.357,6.153
			c-0.562,0.784-1.768,1.165-3.003,1.165c-1.735,0-3.531-0.751-3.688-2.19c-0.13-1.196,0.672-1.734,1.615-1.734
			c0.642,0,1.349,0.249,1.871,0.708c-0.646,0.218-1.863,0.086-2.166,1.026c0.428,0.865,1.129,1.219,1.841,1.219
			c1.417,0,2.877-1.407,2.306-2.991c-1.336-3.711-8.387-3.428-12.064-4.847c-2.543,8.324-5.035,18.74-12.533,22.56
			c-1.209,0.615-3.098,1.066-4.903,1.066c-2.632,0-5.085-0.959-4.991-3.77c0.658-1.152,1.324-2.297,3.109-2.332
			c-2.474,1.543-2.315,4.697,1.372,4.697c0.221,0,0.454-0.012,0.7-0.035c3.873-0.373,7.637-4.893,9.332-7.832
			c1.092-1.893,2.936-5.237,2.732-8.016c-0.447-6.15-4.227-8.867-8.105-12.492c-1.205-1.125-2.695-1.989-2.732-4.008
			C362.792,23.815,364.191,22.69,365.373,22.69 M365.373,21.69c-0.883,0-1.819,0.417-2.504,1.115
			c-0.694,0.707-1.066,1.621-1.049,2.574c0.039,2.116,1.368,3.259,2.436,4.178c0.207,0.178,0.415,0.356,0.614,0.542
			c0.438,0.41,0.876,0.808,1.307,1.201c3.282,2.989,6.116,5.571,6.484,10.633c0.19,2.604-1.767,5.996-2.602,7.443
			c-1.915,3.321-5.411,7.033-8.562,7.337c-0.209,0.02-0.413,0.03-0.604,0.03c-1.091,0-1.838-0.332-1.997-0.889
			c-0.15-0.522,0.198-1.364,1.154-1.96c0.382-0.238,0.558-0.702,0.43-1.134c-0.127-0.425-0.518-0.715-0.959-0.715
			c-0.007,0-0.013,0-0.02,0c-2.365,0.047-3.286,1.659-3.958,2.836c-0.081,0.142-0.126,0.3-0.131,0.463
			c-0.043,1.278,0.339,2.344,1.134,3.166c1.309,1.353,3.363,1.637,4.856,1.637c1.88,0,3.933-0.45,5.356-1.175
			c7.219-3.679,9.952-12.838,12.363-20.92c0.126-0.424,0.252-0.845,0.377-1.261c1.02,0.291,2.164,0.504,3.357,0.726
			c3.14,0.584,6.386,1.188,7.105,3.189c0.125,0.347,0.077,0.681-0.143,0.993c-0.276,0.394-0.768,0.659-1.222,0.659
			c-0.148,0-0.283-0.028-0.405-0.084c0.104-0.02,0.204-0.036,0.277-0.047c0.256-0.04,0.521-0.082,0.772-0.167
			c0.339-0.114,0.591-0.4,0.661-0.751c0.07-0.35-0.052-0.712-0.32-0.948c-0.682-0.599-1.628-0.957-2.53-0.957
			c-0.831,0-1.552,0.294-2.031,0.828c-0.324,0.362-0.688,1.006-0.579,2.015c0.231,2.118,2.59,3.082,4.683,3.082
			c1.679,0,3.105-0.592,3.815-1.583c0.634-0.884,0.845-1.954,0.609-3.092c-0.389-1.881-1.972-3.723-3.264-4.5
			c-2.157-1.299-5.08-2.068-7.906-2.811c-2.76-0.725-5.612-1.475-7.531-2.68c-0.164-0.103-0.349-0.153-0.53-0.153
			c-0.313,0-0.622,0.147-0.816,0.421c-0.307,0.432-0.224,1.029,0.19,1.36c0.459,0.367,0.743,1.045,0.833,1.882
			c-0.069-0.113-0.14-0.228-0.21-0.343c-0.759-1.246-1.619-2.658-2.979-3.972c-0.62-0.6-1.59-1.176-2.616-1.786
			c-1.404-0.834-3.527-2.096-3.487-2.949c0.015-0.315,0.396-0.523,0.642-0.523c0.047,0,0.075,0.008,0.085,0.012h-0.001
			c-0.007,0,0.007,0.036,0.013,0.1c0.053,0.513,0.485,0.898,0.994,0.898c0.021,0,0.044,0,0.065-0.002
			c0.537-0.035,0.95-0.488,0.936-1.025C367.908,22.449,366.533,21.69,365.373,21.69L365.373,21.69z"/>
	</g>
	<g>
		<path fill="#0A9995" d="M324.141,52.444c-0.399,0-1.022-0.14-1.719-0.809c-1.346-1.289-2.062-3.643-2.754-5.92
			c-0.428-1.406-0.834-2.744-1.35-3.692c-0.203,0.078-0.411,0.151-0.618,0.224c-0.74,0.26-1.443,0.506-1.854,0.968l0.071,0.523
			c0.305,2.189,0.723,5.187-0.716,6.591c-0.457,0.446-1.075,0.682-1.787,0.682c-1.546,0.001-3.296-1.104-3.744-2.363
			c-0.08-0.225,0.009-0.474,0.213-0.597c0.08-0.048,0.169-0.071,0.258-0.071c0.137,0,0.271,0.056,0.369,0.163
			c0.395,0.432,0.911,0.521,1.274,0.521c0.903,0,1.842-0.536,2.138-1.221c0.71-1.648-0.212-3.435-1.104-5.163
			c-0.533-1.033-1.037-2.008-1.192-2.948c-0.251-1.52,0.1-2.932,0.986-3.979c0.854-1.007,2.106-1.561,3.524-1.561
			c0.149,0,0.3,0.006,0.453,0.019c0.122,0.01,0.235,0.064,0.32,0.152c0.741,0.773,1.156,1.819,1.557,2.83
			c0.015,0.036,0.029,0.072,0.043,0.108c0.075-2.335-1.318-4.436-2.995-5.11c-0.182-0.073-0.304-0.245-0.312-0.439
			c-0.01-0.195,0.095-0.378,0.269-0.468c0.532-0.276,1.083-0.417,1.636-0.417c2.032,0,3.729,1.818,5.369,3.577
			c0.564,0.605,1.112,1.192,1.646,1.674c-0.043-0.099-0.087-0.198-0.131-0.299c-1.245-2.843-2.951-6.737,0.535-8.455
			c1.449-0.714,3.151-1.092,4.923-1.092c4.564,0,8.745,2.443,9.726,5.684c1.017,3.362-0.367,7.184-3.086,8.518
			c-0.691,0.339-1.507,0.511-2.423,0.511c-0.686,0-1.441-0.096-2.247-0.286c-3.096-0.731-5.428-3.492-5.94-7.034
			c-0.268-1.841,0.377-3.037,0.965-3.716c0.691-0.799,1.706-1.336,2.81-1.506c-2.316,0.167-4.473,1.26-4.477,3.473
			c-0.006,3.797,2.737,7.379,5.04,9.715c0.153,0.156,0.188,0.395,0.084,0.588c-0.088,0.164-0.259,0.263-0.44,0.263
			c-0.031,0-0.063-0.003-0.096-0.009c-3.077-0.601-4.996-2.661-6.851-4.654c-0.36-0.387-0.714-0.767-1.071-1.132
			c1.049,2.295,1.922,4.92,2.774,7.481c0.333,1.002,0.664,1.998,1.002,2.961c0.043,0.122,0.037,0.257-0.019,0.375
			c-0.166,0.359-0.291,0.713-0.379,1.077c0.038-0.01,0.077-0.014,0.115-0.014c0.146,0,0.288,0.063,0.386,0.183
			c0.723,0.878,0.904,2.05,0.463,2.984C325.456,52.029,324.842,52.444,324.141,52.444z M323.944,49.479
			c0.045,0.128,0.083,0.255,0.118,0.374c0.079,0.268,0.161,0.543,0.274,0.652c0.111-0.174,0.215-0.641,0.202-1.117
			c-0.072,0.074-0.168,0.126-0.276,0.144c-0.027,0.005-0.055,0.007-0.081,0.007C324.098,49.539,324.017,49.518,323.944,49.479z
			 M320.295,39.579c-0.042,2.913,1.551,5.908,3.001,8.608c-0.515-1.329-0.968-2.72-1.408-4.075
			C321.394,42.594,320.887,41.038,320.295,39.579z M313.94,38.918c0.248,0.783,0.483,1.528,0.95,1.969
			c0.339-0.181,0.698-0.328,1.049-0.472c0.479-0.196,0.936-0.384,1.3-0.636c-0.217-1.468-0.649-2.533-1.315-3.241
			c-0.827,0.268-1.481,1.249-2.037,2.211L313.94,38.918z M330.768,30.478c-0.979,0-1.848,0.371-2.322,0.992
			c-0.448,0.585-0.55,1.393-0.295,2.337c0.485,1.791,2.104,2.995,4.028,2.995c0.089,0,0.179-0.002,0.271-0.007
			c0.548-0.03,1.08-0.276,1.644-0.537l0.153-0.071c1.169-0.535,1.522-1.556,1.612-2.318c0.196-1.651-0.622-3.657-1.903-4.665
			c-0.705-0.554-1.731-0.941-2.874-1.102c1.472,0.337,2.571,1.374,2.917,2.83c0.052,0.219-0.048,0.445-0.245,0.554
			c-0.076,0.042-0.159,0.062-0.241,0.062c-0.132,0-0.262-0.052-0.358-0.151C332.593,30.821,331.701,30.478,330.768,30.478z"/>
		<path fill="#FFFFFF" d="M329.448,26.373c4.163,0,8.283,2.141,9.247,5.328c0.959,3.171-0.406,6.736-2.828,7.924
			c-0.661,0.324-1.411,0.459-2.202,0.459c-0.689,0-1.41-0.103-2.132-0.273c-2.947-0.696-5.088-3.354-5.561-6.619
			c-0.449-3.087,1.847-4.709,4.038-4.709c1.572,0,3.091,0.835,3.501,2.563c-0.693-0.711-1.729-1.069-2.744-1.069
			c-1.943,0-3.816,1.309-3.1,3.959c0.525,1.94,2.267,3.364,4.511,3.364c0.098,0,0.197-0.003,0.298-0.008
			c0.699-0.039,1.336-0.357,1.979-0.652c3.074-1.409,2.078-6.046-0.191-7.831c-1.081-0.85-2.728-1.291-4.374-1.291
			c-2.805,0-5.609,1.28-5.614,3.995c-0.006,4.041,2.961,7.812,5.184,10.067c-4.494-0.878-6.418-5.077-9.707-7.458
			c2.09,3.465,3.475,8.435,4.994,12.771c-0.287,0.619-0.498,1.311-0.564,2.145c-1.541-3.604-2.459-7.82-4.146-11.279
			c-1.029,3.951,1.492,8.154,3.295,11.551c0.314,0.588,0.312,1.441,0.852,1.688c0.064,0.029,0.125,0.043,0.182,0.043
			c0.6,0,0.831-1.491,0.572-2.373c1.142,1.388,0.473,3.276-0.795,3.276c-0.409,0-0.88-0.196-1.373-0.669
			c-2.168-2.078-2.688-7.49-4.24-9.879c-1.123,0.505-2.541,0.719-3.205,1.678c0.26,2.047,0.945,5.516-0.471,6.899
			c-0.39,0.38-0.898,0.539-1.438,0.539c-1.355,0-2.907-1.004-3.273-2.031c0.439,0.481,1.035,0.685,1.644,0.685
			c1.087,0,2.219-0.647,2.597-1.522c1.25-2.901-1.861-5.975-2.262-8.391c-0.468-2.833,1.391-4.958,4.018-4.958
			c0.136,0,0.272,0.005,0.412,0.017c1.055,1.1,1.414,2.887,2.168,4.288c0.984-3.046-0.666-6.325-3.016-7.271
			c0.481-0.25,0.949-0.36,1.405-0.36c3.048,0,5.577,4.931,8.112,6.14c-0.932-2.783-4.291-7.812-0.473-9.694
			C326.197,26.698,327.826,26.373,329.448,26.373 M314.852,41.488c0.9-0.57,2.135-0.808,2.922-1.491
			c-0.211-1.686-0.699-3.101-1.695-4.009c-1.252,0.193-2.102,1.587-2.734,2.704C313.697,39.773,313.971,40.93,314.852,41.488
			 M329.448,25.373c-1.848,0-3.627,0.396-5.145,1.144c-3.034,1.495-2.58,4.425-1.64,6.997c-1.591-1.701-3.39-3.545-5.558-3.545
			c-0.634,0-1.262,0.159-1.866,0.473c-0.347,0.18-0.557,0.545-0.538,0.936c0.02,0.39,0.264,0.733,0.626,0.879
			c0.526,0.211,1.019,0.588,1.436,1.078c-0.044-0.01-0.088-0.016-0.133-0.02c-0.167-0.014-0.332-0.021-0.494-0.021
			c-1.567,0-2.955,0.617-3.905,1.738c-0.984,1.16-1.374,2.717-1.099,4.383c0.168,1.018,0.689,2.027,1.241,3.096
			c0.838,1.625,1.705,3.305,1.089,4.736c-0.191,0.442-0.912,0.918-1.679,0.918c-0.383,0-0.688-0.121-0.905-0.359
			c-0.195-0.213-0.465-0.325-0.738-0.325c-0.177,0-0.355,0.047-0.516,0.143c-0.408,0.246-0.586,0.745-0.427,1.193
			c0.521,1.461,2.452,2.695,4.216,2.695c0.845,0,1.584-0.284,2.136-0.823c1.62-1.582,1.182-4.725,0.862-7.019
			c-0.013-0.091-0.025-0.181-0.037-0.269c0.352-0.283,0.908-0.478,1.49-0.682c0.068-0.024,0.138-0.048,0.206-0.073
			c0.405,0.872,0.754,2.018,1.118,3.215c0.711,2.338,1.446,4.756,2.886,6.136c0.816,0.783,1.574,0.947,2.065,0.947
			c0.899,0,1.683-0.521,2.095-1.396c0.524-1.109,0.317-2.489-0.527-3.516c-0.074-0.091-0.161-0.165-0.257-0.223
			c0.058-0.165,0.125-0.329,0.202-0.495c0.109-0.236,0.123-0.506,0.036-0.752c-0.336-0.961-0.667-1.953-0.999-2.953
			c-0.558-1.674-1.123-3.375-1.742-4.998c1.68,1.757,3.531,3.406,6.319,3.95c0.063,0.013,0.128,0.019,0.191,0.019
			c0.363,0,0.704-0.198,0.881-0.527c0.208-0.386,0.14-0.863-0.169-1.175c-0.243-0.247-0.508-0.526-0.785-0.833
			c0.599,0.329,1.241,0.579,1.918,0.739c0.843,0.199,1.638,0.3,2.361,0.3c0.993,0,1.882-0.189,2.643-0.562
			c2.929-1.438,4.43-5.525,3.345-9.112C338.594,27.913,334.303,25.373,329.448,25.373L329.448,25.373z M333.512,32.047
			c0.165,0,0.33-0.041,0.482-0.124c0.394-0.217,0.595-0.669,0.49-1.107c-0.041-0.175-0.093-0.345-0.152-0.509
			c0.736,0.976,1.166,2.355,1.03,3.501c-0.11,0.924-0.556,1.571-1.324,1.923l-0.155,0.072c-0.519,0.24-1.009,0.466-1.461,0.491
			c-0.082,0.004-0.163,0.007-0.243,0.007c-1.722,0-3.113-1.031-3.546-2.626c-0.216-0.798-0.146-1.438,0.209-1.902
			c0.382-0.498,1.102-0.796,1.926-0.796c0.802,0,1.56,0.287,2.028,0.768C332.989,31.943,333.249,32.047,333.512,32.047
			L333.512,32.047z M314.431,38.808c0.343-0.583,0.823-1.316,1.357-1.654c0.424,0.569,0.722,1.354,0.903,2.375
			c-0.276,0.151-0.604,0.285-0.942,0.424c-0.24,0.099-0.485,0.199-0.728,0.312C314.777,39.895,314.606,39.363,314.431,38.808
			L314.431,38.808z"/>
	</g>
	<g>
		<path fill="#0A9995" d="M352.615,52.538c-0.104,0-0.209-0.007-0.318-0.021c-0.677-0.089-1.236-0.65-1.497-1.503
			c-0.267-0.869-0.193-2.049,0.57-2.724c0.094-0.082,0.212-0.125,0.331-0.125c0.032,0,0.064,0.003,0.096,0.009
			c-0.049-0.312-0.119-0.602-0.255-0.732c-0.138-0.133-0.188-0.332-0.129-0.514l0.858-2.674c0.938-2.921,1.899-5.922,2.895-8.872
			c-0.466,0.454-1.03,0.852-1.766,1.001c-0.033,0.006-0.066,0.01-0.1,0.01c-0.181,0-0.351-0.098-0.439-0.261
			c-0.579-1.065-0.088-2.305,0.388-3.504c0.306-0.772,0.622-1.57,0.59-2.209c-0.072-1.404-2.212-1.958-4.171-2.021
			c1.982,0.52,3.142,1.941,3.225,4.016c0.126,3.184-2.533,7.578-5.818,8.166c-0.864,0.155-1.481,0.222-2.062,0.222
			c-0.896,0-1.708-0.17-2.555-0.534c-2.773-1.192-4.105-3.831-3.477-6.886c0.731-3.557,4.173-7.337,9.109-7.337
			c0.239,0,0.48,0.009,0.727,0.027c1.966,0.147,5.439,0.722,6.614,2.909c0.34,0.631,0.462,1.335,0.367,2.107
			c0.657-0.631,1.396-1.225,2.263-1.694c0.074-0.041,0.156-0.061,0.238-0.061c0.083,0,0.167,0.021,0.242,0.062
			c0.148,0.083,0.246,0.235,0.257,0.405c0.016,0.242,0.01,0.479-0.013,0.712c0.045-0.046,0.099-0.084,0.158-0.111
			c0.62-0.275,1.241-0.414,1.848-0.414c2.526,0,4.191,2.307,4.721,4.593c0.48,2.073,0.181,4.898-2.163,6.258
			c0.035,0.467,0.055,0.998,0.076,1.561c0.099,2.628,0.233,6.227,2.216,6.227c0.502,0,1.122-0.198,1.844-0.59
			c0.074-0.041,0.156-0.061,0.238-0.061c0.114,0,0.228,0.039,0.319,0.115c0.157,0.13,0.219,0.343,0.157,0.537
			c-0.475,1.482-2.12,2.259-3.5,2.259c-0.598,0-1.142-0.138-1.571-0.397c-1.766-1.069-1.716-3.451-1.667-5.755
			c0.024-1.161,0.05-2.361-0.164-3.329c-0.173-0.778-0.806-1.027-1.827-1.344c-0.361-0.112-0.73-0.227-1.064-0.391
			c-0.367,1.254-0.849,2.654-1.394,4.236l-0.503,1.468c-0.156,0.458-0.298,1.095-0.448,1.769
			C355.526,49.549,354.861,52.538,352.615,52.538L352.615,52.538z M352.121,49.765c0.011,0.209,0.035,0.395,0.069,0.528
			c0.036-0.099,0.113-0.329,0.119-0.348C352.232,49.903,352.167,49.841,352.121,49.765z M359.226,37.5
			c0.363,0.184,0.79,0.325,1.235,0.472c0.507,0.168,1.028,0.34,1.493,0.592c0.776-0.621,1.103-1.765,1.366-3.009
			c-0.153-0.206-0.312-0.448-0.48-0.704c-0.532-0.813-1.195-1.825-1.906-1.825c-0.038,0-0.076,0.003-0.115,0.008
			c-0.911,0.129-1.328,2.785-1.528,4.062C359.268,37.237,359.246,37.372,359.226,37.5z M345.719,28.956
			c-1.668,0.691-3.129,2.858-3.223,4.812c-0.042,0.882,0.185,2.067,1.504,2.702c0.706,0.339,1.334,0.538,1.917,0.607
			c0.123,0.015,0.249,0.021,0.376,0.021c1.367,0,2.835-0.828,3.651-2.059c0.678-1.023,0.804-2.173,0.353-3.238
			c-0.303-0.717-0.962-1.081-1.957-1.081c-1.153,0-2.393,0.503-3.02,0.999c-0.09,0.071-0.2,0.108-0.311,0.108
			c-0.064,0-0.13-0.013-0.191-0.038c-0.167-0.069-0.284-0.224-0.306-0.404c-0.082-0.703,0.137-1.368,0.632-1.924
			C345.31,29.275,345.503,29.106,345.719,28.956z"/>
		<path fill="#FFFFFF" d="M348.09,26.547c0.227,0,0.456,0.008,0.689,0.026c4.262,0.32,8.312,2.025,5.748,6.618
			c1.107-1.266,2.229-2.521,3.771-3.356c0.143,2.198-1.736,4.076-1.037,6.525c0.918-1.547,1.193-3.728,1.885-5.5
			c0.576-0.255,1.126-0.371,1.645-0.371c4.294,0,6.342,7.956,2.031,10.066c0.275,2.773-0.229,8.574,2.818,8.574
			c0.563,0,1.248-0.198,2.082-0.65c-0.396,1.237-1.793,1.911-3.023,1.911c-0.488,0-0.95-0.106-1.312-0.325
			c-2.346-1.42-0.959-5.853-1.602-8.765c-0.4-1.805-2.707-1.488-3.676-2.423c-0.475,1.766-1.234,3.874-2.074,6.339
			c-0.689,2.029-0.997,6.822-3.42,6.822c-0.082,0-0.166-0.005-0.254-0.017c-1.168-0.152-1.67-2.463-0.66-3.355
			c-0.164,0.75-0.131,2.262,0.433,2.262c0.041,0,0.085-0.009,0.132-0.025c0.42-0.15,0.453-0.771,0.67-1.172
			c1.926-3.596,3.275-8.051,3.664-12.81c-1.398,4.146-2.68,8.41-4.051,12.585c-0.289-0.738-0.135-1.918-0.66-2.424
			c1.488-4.619,2.949-9.264,4.523-13.797c-0.869,0.665-1.572,2.297-3.111,2.61c-0.816-1.5,1.127-3.748,1.037-5.5
			c-0.093-1.822-2.597-2.501-5.053-2.501c-1.357,0-2.701,0.208-3.615,0.544c-3.146,1.159-5.428,6.779-1.887,8.483
			c0.67,0.321,1.361,0.568,2.074,0.653c0.145,0.017,0.289,0.025,0.436,0.025c2.766,0,5.749-2.957,4.465-5.992
			c-0.43-1.017-1.382-1.386-2.418-1.386c-1.238,0-2.597,0.527-3.33,1.107c-0.184-1.569,1.548-2.629,3.211-2.629
			c0.123,0,0.247,0.006,0.369,0.018c6.996,0.686,3.076,10.535-1.604,11.373c-0.723,0.13-1.361,0.214-1.975,0.214
			c-0.786,0-1.53-0.138-2.357-0.493C335.967,36.937,340.167,26.548,348.09,26.547 M361.973,39.157
			c1.176-0.7,1.566-2.177,1.885-3.729c-0.733-0.877-1.602-2.903-2.924-2.903c-0.061,0-0.123,0.004-0.186,0.013
			c-1.486,0.21-1.797,3.701-2.074,5.221C359.623,38.373,361.033,38.531,361.973,39.157 M367.723,48.479h0.005 M351.701,48.666h0.005
			 M348.091,25.547h-0.002c-5.2,0-8.827,3.987-9.599,7.737c-0.679,3.301,0.766,6.154,3.77,7.445
			c0.911,0.392,1.786,0.574,2.752,0.574c0.612,0,1.256-0.069,2.151-0.229c2.273-0.407,4.204-2.389,5.29-4.649
			c0.185,0.294,0.507,0.469,0.848,0.469c0.065,0,0.133-0.006,0.199-0.02c0.256-0.052,0.494-0.13,0.716-0.228
			c-0.828,2.49-1.633,5-2.42,7.455l-0.859,2.673c-0.117,0.363-0.017,0.762,0.259,1.027l0,0c-0.057,0.034-0.11,0.073-0.16,0.117
			c-0.927,0.822-1.026,2.22-0.714,3.241c0.32,1.045,1.034,1.737,1.911,1.852c0.132,0.018,0.259,0.025,0.383,0.025
			c2.646,0,3.391-3.343,3.934-5.783c0.147-0.66,0.286-1.284,0.434-1.717l0.502-1.466c0.472-1.369,0.896-2.601,1.24-3.725
			c0.202,0.072,0.403,0.135,0.597,0.195c0.971,0.301,1.376,0.473,1.487,0.975c0.201,0.909,0.176,2.079,0.152,3.21
			c-0.049,2.333-0.105,4.975,1.908,6.194c0.508,0.308,1.141,0.47,1.83,0.47c1.492,0,3.35-0.793,3.951-2.531
			c0.048-0.117,0.075-0.245,0.075-0.38c0-0.553-0.445-1-0.998-1h-0.002c-0.001,0-0.002,0-0.003,0c-0.013,0-0.024,0-0.037,0.001
			c-0.165,0.006-0.32,0.052-0.455,0.128c-0.632,0.342-1.182,0.521-1.59,0.521c-1.501,0-1.631-3.458-1.716-5.746
			c-0.018-0.447-0.033-0.878-0.058-1.278c2.188-1.469,2.67-4.312,2.132-6.635c-0.574-2.479-2.407-4.98-5.208-4.98
			c-0.495,0-0.996,0.082-1.497,0.245c-0.033-0.325-0.224-0.615-0.512-0.774c-0.15-0.083-0.316-0.125-0.483-0.125
			c-0.164,0-0.327,0.04-0.477,0.121c-0.562,0.304-1.069,0.656-1.536,1.034c-0.065-0.436-0.204-0.851-0.415-1.243
			c-1.224-2.276-4.491-2.98-7.017-3.17C348.596,25.556,348.342,25.547,348.091,25.547L348.091,25.547z M353.224,31.224
			c-0.187-0.723-0.521-1.352-0.985-1.871c0.644,0.253,1.076,0.615,1.101,1.093C353.351,30.672,353.304,30.938,353.224,31.224
			L353.224,31.224z M346.293,36.599c-0.107,0-0.214-0.006-0.319-0.018c-0.525-0.062-1.102-0.247-1.758-0.562
			c-0.86-0.414-1.271-1.163-1.221-2.227c0.044-0.912,0.431-1.894,1.001-2.712c-0.001,0.12,0.006,0.241,0.021,0.364
			c0.042,0.36,0.275,0.669,0.61,0.808c0.123,0.051,0.254,0.076,0.383,0.076c0.222,0,0.44-0.074,0.62-0.215
			c0.547-0.432,1.682-0.892,2.71-0.892c1.169,0,1.416,0.584,1.497,0.776c0.491,1.16,0.103,2.145-0.31,2.767
			C348.812,35.844,347.481,36.599,346.293,36.599L346.293,36.599z M359.779,37.201c0.002-0.009,0.003-0.019,0.004-0.028
			c0.446-2.84,0.849-3.55,1.108-3.645c0.001,0,0.001,0,0.002,0c0.482,0,1.137,0.999,1.528,1.596
			c0.123,0.188,0.243,0.372,0.363,0.542c-0.205,0.926-0.456,1.768-0.922,2.293c-0.405-0.186-0.83-0.326-1.246-0.463
			C360.323,37.399,360.037,37.305,359.779,37.201L359.779,37.201z"/>
	</g>
	<g>
		<path fill="#FFFFFF" stroke="#0A9995" stroke-linecap="round" stroke-linejoin="round" stroke-miterlimit="10" d="M337.658,53.887
			c-0.279-0.467-0.557-1.174,0-1.492c-0.705,0.203-0.582-0.418-0.848-0.652c0,0.219,0,0.436,0,0.652
			c-0.193,0.152-0.619,0.074-0.756,0.281c0.281,0.033,0.467,0.16,0.568,0.371c0.123,0.41-0.283,0.771,0,1.025
			C336.781,52.943,337.338,53.707,337.658,53.887z"/>
		<path fill="#FFFFFF" stroke="#0A9995" stroke-linecap="round" stroke-linejoin="round" stroke-miterlimit="10" d="M341.9,54.072
			c-0.262-0.582-0.229-1.25,0.281-1.49c-0.686,0.148-0.561-0.502-0.754-0.84c-0.064,0.463-0.119,0.896-0.66,0.652
			c0.564,0.432-0.064,1.119,0.094,1.586c0.072-0.301,0.262-0.488,0.566-0.559C341.547,53.617,341.762,54.201,341.9,54.072z"/>
		<path fill="#FFFFFF" stroke="#0A9995" stroke-linecap="round" stroke-linejoin="round" stroke-miterlimit="10" d="M332.664,55.285
			c-0.52-0.352-0.678-0.857-0.566-1.398c-0.082,0.137-0.141,0.295-0.377,0.279c-0.109-0.17-0.248-0.314-0.377-0.467
			c-0.074,0.385,0.145,0.479,0.094,0.84c-0.291,0.021-0.365,0.258-0.564,0.373c0.297-0.016,0.568-0.004,0.66,0.186
			c0.021,0.381,0.045,0.762,0.188,1.025c0.057-0.379,0.043-0.828,0.285-1.025C332.125,55.203,332.615,55.416,332.664,55.285z"/>
		<path fill="#FFFFFF" stroke="#0A9995" stroke-linecap="round" stroke-linejoin="round" stroke-miterlimit="10" d="M346.141,54.072
			c0.484,0.52-0.232,0.943-0.471,1.307c0.32-0.025,0.453-0.236,0.848-0.188c0.031,1.061,0.287,0.945,0.281-0.092
			c0.164-0.15,0.582-0.047,0.66-0.279c-0.635,0.041-0.391-0.871-0.473-1.119C346.873,54.242,346.402,54.076,346.141,54.072z"/>
		<path fill="#FFFFFF" stroke="#0A9995" stroke-linecap="round" stroke-linejoin="round" stroke-miterlimit="10" d="M326.727,58.174
			c-0.168,0.242-0.373,0.439-0.564,0.654c0.297,0.045,0.33-0.17,0.658-0.094c0.299,1.029,0.301,1.25,0.566,0.094
			c0.328-0.133,0.604,0.26,0.754,0c-0.414-0.121-0.594-0.471-0.848-0.746c0.082-0.086,0.27-0.525,0.094-0.561
			c-0.086,0.164-0.211,0.289-0.379,0.373c-0.115-0.195-0.273-0.35-0.471-0.467C326.588,57.689,326.676,57.914,326.727,58.174z"/>
		<path fill="#FFFFFF" stroke="#0A9995" stroke-linecap="round" stroke-linejoin="round" stroke-miterlimit="10" d="M351.039,58.268
			c-0.377,0.092-0.531,0.406-0.754,0.652c0.367,0.051,0.461-0.166,0.85-0.094c0,0.281,0,0.561,0,0.84
			c0.381-0.09,0.123-0.809,0.471-0.934c0.24-0.1,0.449,0.283,0.566,0c-0.229-0.146-0.418-0.334-0.566-0.561
			c0.082-0.113,0.299-0.561,0.094-0.65c-0.121,0.16-0.195,0.365-0.471,0.373c-0.086-0.166-0.211-0.289-0.377-0.373
			C350.9,57.783,350.99,58.006,351.039,58.268z"/>
	</g>
</g>
</svg>
